<svg xmlns="http://www.w3.org/2000/svg" viewBox="0 0 1020 670" enable-background="new 0 0 1020 670"><path fill="#fff" d="M428 177.7c33.7 2.9 27.8-6.9 51.3-1.3 23.5 5.6 2.3-25.8 47.6-1.9 45.3 23.9 37 5.7 59.3 21-52.1-7.7-104.9-13.7-158.2-17.8zM62.3 296.4s16.9-9 32.5-8.7c15.6.3 9.9-17 41.5-8.2 31.7 8.8 18.1 1.5 28 6.6-33.8 2.3-67.9 5.7-102 10.3z"/><path fill="#2CE78B" d="M285 153.8l.5 519H1020l-735-519z"/><path fill="#fff" d="M284.5 153.8L0 672.8h569l-284.5-519zM450 374.5s8.8-11.6 35-11c26.3.6 1.9-34.7 59.6-25.4 35.7 5.8 24.8-26.5 53.5-19.2 28.7 7.4 18.4 22.5 42 33.5 16.5 7.8 25-9.5 41.2 18.2 4.5 7.7 10.5-.7 14.7 9.2 4.2 9.9 22.2-5.1 32.7 16 6.9 13.8 27.4 12.6 62.3 23h-.1C677 396 563.2 381.3 450 374.5z"/></svg>