<svg xmlns="http://www.w3.org/2000/svg" viewBox="0 0 144 144" enable-background="new 0 0 144 144"><g stroke="#EE511C" stroke-miterlimit="10" fill="none"><path d="M64.4 72.4c0-.5 0-1 .1-1.5"/><path stroke-dasharray="3.1621,3.1621" d="M65.3 67.9c2.5-6.4 10.3-11.1 19.5-11.1 9.9 0 18.1 5.4 20 12.6"/><path d="M105 70.9c.1.5.1 1 .1 1.5"/></g><g stroke="#EE511C" stroke-miterlimit="10" fill="none"><path d="M32 72.4c0-.5 0-1 .1-1.5"/><path stroke-dasharray="3.1799,3.1799" d="M32.8 67.8c2.1-6.4 8.4-11 15.9-11 8.1 0 14.8 5.4 16.3 12.6"/><path d="M65.3 70.9c0 .5.1 1 .1 1.5"/></g><g stroke="#420608" stroke-miterlimit="10" fill="none"><path d="M65.3 73c0-.5 0-1-.1-1.5"/><path stroke-dasharray="3.0613,3.0613" d="M64.8 68.5c-2.2-9.3-11-16.3-21.5-16.3-12.1 0-22 9.3-22 20.9v3.1"/><path d="M21.4 77.6v1.5"/></g><g stroke="#420608" stroke-miterlimit="10" fill="none"><path d="M64.7 68.8v-1.5"/><path stroke-dasharray="2.8463,2.8463" d="M64.9 64.5C66 55 70.3 48 75.5 48c6 0 10.8 9.3 10.8 20.9v3.2"/><path d="M86.3 73.4v1.5"/></g><path stroke="#420608" stroke-miterlimit="10" stroke-dasharray="3" d="M64.8 69.4c4.9-12.7 16-21.5 29-21.5 17.5 0 31.6 16.1 31.6 35.9 0 1.9-.1 3.8-.4 5.6M64.8 69.4c-.3-12.7-.9-21.5-1.7-21.5-1 0-1.9 16.1-1.9 35.9v5.6" fill="none"/><path fill="#015247" d="M63.6 106.2l-1.5-2 22.2-15.8-18.8-12.6-32.1 9.5-13.5 13.5-1.7-1.8 13.9-13.9 33.8-10 22.7 15.3zM69.586 75.278l.29-1.676 33.996 5.88-.29 1.674zM85.86 89.485l1.232-2.176 34.377 19.457-1.233 2.176z"/><ellipse fill="#015247" cx="65.7" cy="74.5" rx="7.2" ry="1.7"/><ellipse fill="#015247" cx="103.7" cy="80.4" rx="7.2" ry="1.7"/><ellipse fill="#015247" cx="32.8" cy="84.2" rx="9.2" ry="2.1"/><ellipse fill="#015247" cx="86.4" cy="88.4" rx="10.1" ry="2.3"/><ellipse fill="#015247" cx="62.8" cy="105.2" rx="15.9" ry="3.6"/><ellipse fill="#015247" cx="20.6" cy="97.9" rx="13.4" ry="3.1"/><ellipse fill="#015247" cx="122.2" cy="107.9" rx="16.7" ry="3.8"/><path fill="#0E1414" d="M30.5 77.3c0 1-.8 1.8-1.8 1.8s-1.8-.8-1.8-1.8.8-1.8 1.8-1.8c.9-.1 1.8.8 1.8 1.8M30.1 78.8c.6.8.4 2-.4 2.6-.8.6-2 .4-2.6-.4-.6-.8-.4-2 .4-2.6.8-.6 2-.4 2.6.4M30.6 80.2c1 .3 1.5 1.3 1.2 2.3-.3 1-1.3 1.5-2.3 1.2-1-.3-1.5-1.3-1.2-2.3.3-1 1.4-1.5 2.3-1.2M31.9 81.1c1-.3 2 .2 2.3 1.2.3 1-.2 2-1.2 2.3-1 .3-2-.2-2.3-1.2-.2-1 .3-2 1.2-2.3M33.5 81c.6-.8 1.7-1 2.6-.4.8.6 1 1.7.4 2.6-.6.8-1.7 1-2.6.4-.8-.7-1-1.8-.4-2.6M34.7 80c0-1 .8-1.8 1.8-1.8s1.8.8 1.8 1.8-.8 1.8-1.8 1.8-1.8-.8-1.8-1.8M35.1 78.5c-.6-.8-.4-2 .4-2.6.8-.6 2-.4 2.6.4.6.8.4 2-.4 2.6-.9.6-2 .4-2.6-.4M34.5 77c-1-.3-1.5-1.3-1.2-2.3.3-1 1.3-1.5 2.3-1.2 1 .3 1.5 1.3 1.2 2.3-.3 1-1.3 1.6-2.3 1.2M33.2 76.2c-1 .3-2-.2-2.3-1.2-.3-1 .2-2 1.2-2.3 1-.3 2 .2 2.3 1.2.3 1-.2 2-1.2 2.3M31.7 76.3c-.6.8-1.7 1-2.6.4-.8-.6-1-1.7-.4-2.6.6-.8 1.7-1 2.6-.4.8.6 1 1.8.4 2.6"/><path fill="#A79899" d="M35.7 79.5c0 2.5-2 3.3-3.1 3.3s-3.1-.8-3.1-3.3c0-1.9 1.2-3.5 3.1-3.5 1.9.1 3.1 1.6 3.1 3.5"/><path fill="#0E1414" d="M29.3 79.5s-.3-3.7 3.3-3.7c3.6 0 3.3 3.7 3.3 3.7s-.1-2.3-3.3-2.3c-3.2 0-3.3 2.3-3.3 2.3"/><path fill="#420709" d="M32.6 79.1l-.7 1.4h1.4z"/><path fill="#0E1414" d="M69.7 72.7c0-2.3-1.8-5.1-4.1-5.1s-4.1 2.8-4.1 5.1c0 0 1.2 1.6 4.1 1.6 2.9 0 4.1-1.6 4.1-1.6"/><path fill="#F0EBEC" d="M67.9 71.4c0 1.8-1.5 3.1-2.3 3.1-.8 0-2.3-1.3-2.3-3.1 0-1.4.9-2.5 2.3-2.5s2.3 1.1 2.3 2.5"/><path fill="#0E1414" d="M68 71.1c-.1-1.3-1.1-2.4-2.4-2.4-1.4 0-2.3 1-2.4 2.4H68z"/><path fill="#A79899" d="M65.6 71.3l-.4 1.4h.8z"/><path fill="#2912A7" d="M122.8 86.2c8.2-2.5 12 4.2 12 10.4 0 6.8-4.2 12.2-4.2 12.2-3.7-.9-7-5.5-7-5.5s-3.2 4.6-7 5.5c0 0-4.2-5.4-4.2-12.2 0-6.2 3.8-12.9 12-10.4h-1.6z"/><path fill="#FFEBEA" d="M131.5 96.1c0 6.3-5.1 8.3-7.9 8.3-2.8 0-7.9-2-7.9-8.3 0-4.8 3.1-8.7 7.9-8.7 4.9 0 7.9 3.9 7.9 8.7"/><path fill="#F29EAE" d="M123.7 96.3l-1.8 3.1h3.5z"/><path fill="#2912A7" d="M132.1 95.9c-.5-5.8-3.6-9.4-8.4-9.4-4.8 0-7.9 3.6-8.4 9.4h16.8z"/><path fill="#015247" d="M99.8 76.2c.3 1.8 3.6 2.1 3.6 2.1s3.3-.3 3.6-2.1c.2-1 0-2.2-.4-3.1-2.5 0-1.6-2.1-3-2.1-2.4-.1-4.3 2.8-3.8 5.2M100.7 73c2.2 2 5.1.8 5.6-1.6-1.6-1.3-4.8-1.6-5.6 1.6M100.7 72.9c1.5 2.5 5.3 2.5 7 .7-1.1-1.6-4.7-3.1-7-.7"/><path fill="#FFEBEA" d="M106.9 76.2c0 2.8-2.2 3.7-3.5 3.7-1.2 0-3.5-.9-3.5-3.7 0-2.1 1.4-3.8 3.5-3.8s3.5 1.7 3.5 3.8"/><path fill="#FF7353" d="M103.4 75.2l-.6 2.1h1.1z"/><path fill="#331416" d="M91.8 77.8c-.1.9-1 1.5-1.9 1.4-.9-.1-1.5-1-1.4-1.9.1-.9 1-1.5 1.9-1.4.9.1 1.5 1 1.4 1.9M81.7 80.4c-.1.9-1 1.5-1.9 1.4-.9-.1-1.5-1-1.4-1.9.1-.9 1-1.5 1.9-1.4.9.2 1.5 1 1.4 1.9M92.4 80.1c-.1.6-.6 1-1.2.9-.6-.1-1-.6-.9-1.2.1-.6.6-1 1.2-.9.6.1 1 .6.9 1.2"/><path fill="#A79899" d="M91.3 83.3c0 4.5-3.6 5.9-5.6 5.9-2 0-5.6-1.4-5.6-5.9 0-3.4 2.2-6.2 5.6-6.2s5.6 2.8 5.6 6.2"/><path fill="#331416" d="M85.7 76.9c-.3 1.9-2.1 3.3-4 3-1.9-.3-3.3-2.1-3-4 .3-1.9 2.1-3.3 4-3 2 .2 3.3 2 3 4M89 76.5c-.2 1.2-1.3 2-2.4 1.8-1.2-.2-2-1.3-1.8-2.4.2-1.2 1.3-2 2.4-1.8 1.2.1 2 1.2 1.8 2.4M88.5 77.4c-.9 2.2 1.1 4.7 2.8 5.2.4-3.1-1-4.5-2.8-5.2"/><path fill="#664D4E" d="M85.7 81.5l-1.4 3.3h2.8z"/><path fill="#FF7353" d="M70.4 94.1c0 6.7-5.8 11.6-9 11.6s-9-4.8-9-11.6c0-8.2 9-12 9-12s9 3.8 9 12"/><path fill="#FFEBEA" d="M70 97.2c0 6.7-5.5 8.9-8.5 8.9s-8.5-2.2-8.5-8.9c0-5.2 3.3-9.4 8.5-9.4S70 92 70 97.2"/><path fill="#F29EAE" d="M61.5 96.5l-2.1 3.3h4.2z"/><path fill="#8CCFEA" d="M14.9 87.1c-.8-4.6 2.7-8 6.5-8s7.2 3.4 6.5 8c-.5 3.5-12.4 3.5-13 0"/><path fill="#FFF3C1" d="M29.3 90.2c0 6.3-5.1 8.3-7.9 8.3-2.8 0-7.9-2-7.9-8.3 0-4.8 3.1-8.7 7.9-8.7 4.8 0 7.9 3.9 7.9 8.7"/><path fill="#FFD31C" d="M21.4 90.4l-1.5 3.1H23z"/><path fill="#664D4E" d="M21.4 81.2c9.7 0 7.9 9.3 7.9 9.3 0-8.1-7.1-6.8-9.9-3.9-2.5 2.5-5.8-4.2-5.8 3.9 0 0-1.9-9.3 7.8-9.3"/></svg>