<svg xmlns="http://www.w3.org/2000/svg" viewBox="0 0 144 144" enable-background="new 0 0 144 144"><path fill="#DC595D" d="M60.5 97.6c18.2-15.3 7.4-28.7 7.4-30.8-.1-2.1 5.3-1.6 5.3-1.6s5.4-.4 5.3 1.6c-.1 2.1-10.8 15.4 7.3 30.9l.1-.1L124 52.2c-1.6-.7-13.5-5.8-23.5-1.4l-2.2-.1s-6.3-8.2-18.2-8.2H66.3c-11.9 0-18.2 8.2-18.2 8.2l-2.2.1c-10-4.4-21.9.7-23.5 1.4l38.1 45.4z"/><circle fill="#fff" cx="73.2" cy="54.2" r="6.2"/><circle fill="#DC595D" cx="73.2" cy="54.2" r="3"/><circle fill="#DC595D" cx="110.6" cy="80.2" r="28"/><circle fill="#FDFDFD" cx="110.6" cy="80.2" r="24.3"/><circle fill="#DC595D" cx="35.1" cy="80.6" r="28"/><circle fill="#FDFDFD" cx="35.1" cy="80.6" r="24.3"/><path fill="#09CFB6" d="M50.4 80.6c0 8.4-6.8 15.3-15.3 15.3s-15.3-6.8-15.3-15.3c0-8.4 6.8-15.3 15.3-15.3v15.3h15.3z"/><g fill="#0AB198"><path d="M35.9 65.4c8 0 14.4 6.5 14.4 14.4M35.9 65.4v14.4h14.5"/></g><path fill="#09CFB6" d="M125.8 80.6c0 8.4-6.8 15.3-15.3 15.3s-15.3-6.8-15.3-15.3c0-8.4 6.8-15.3 15.3-15.3v15.3h15.3z"/><g fill="#0AB198"><path d="M111.4 65.4c8 0 14.4 6.5 14.4 14.4M111.4 65.4v14.4h14.4"/></g></svg>