<svg xmlns="http://www.w3.org/2000/svg" viewBox="0 0 144 144" enable-background="new 0 0 144 144"><circle fill="#B6C82F" cx="75.6" cy="66" r="55"/><circle fill="#fff" cx="75.6" cy="66" r="47.1"/><path fill="#EE511C" d="M76.9 25.1c22.6 0 40.9 18.3 40.9 40.9H75.6V25.1"/><circle fill="#EE511C" cx="75.6" cy="66" r="4.4"/><g fill="#B6C82F"><path d="M71.1 25.1h2.7v10.2h-2.7zM75.6 25.1h2.7v10.2h-2.7z"/></g><g fill="#B6C82F"><path d="M107.2 61.8h10.2v2.7h-10.2zM107.2 66.2h10.2v2.7h-10.2z"/></g><g fill="#B6C82F"><path d="M35.2 61.8h10.2v2.7H35.2zM35.2 66.2h10.2v2.7H35.2z"/></g><g fill="#B6C82F"><path d="M71.1 97.7h2.7v10.2h-2.7zM75.6 97.7h2.7v10.2h-2.7z"/></g><path fill="#EBC7C1" d="M30.4 111.2l4.8-2.7S47.5 95 67.3 99.7c0 0 8.1 1.7 17.7 1 9.6-.8 11.4-.8 11.9 2.1s-2.3 6.3-8.1 5.9c-9.3-.8-12.8-.5-13.7 0-.9.5 4.7 4.8 16.8 3 12.2-1.8 15.9-2.6 15.9-2.6s6.2-2.9 7.5-1.5 1.1 3.4-4.2 6.1c-5.3 2.6-14.8 6-14.8 6s-13.8 6.6-23.6 4.9c-9.8-1.7-16-3.4-23.6-2.4-7.6 1.1-11.9 6-11.9 6l-6.8-17z"/><path fill="#2912A7" d="M30 107.9l9.4 23.8L28 142l-10.5-29.7z"/></svg>