<svg xmlns="http://www.w3.org/2000/svg" viewBox="0 0 619.9 275" enable-background="new 0 0 619.9 275"><path opacity=".1" fill="#0163E5" d="M100.9 214.4c61.1 21 120.9 41.7 173.9 60.6h299.7c60.4-38.6 70.5-45.9-37.7-81l-496-50.2c-61.9 34.5-62 28.7 60.1 70.6z"/><path fill="#3E4B4B" d="M18.5 169.4L314.8 275h230.4l65.4-39c13.9-8.3 11.5-29.1-3.8-34L205.9 72.4c-19.3-6.2-40.3-4.9-58.6 3.7L17 136.9c-14.2 6.7-13.3 27.2 1.5 32.5z"/><path fill="#21AA9A" d="M39.8 159.7L361.9 275H449l123.9-73.8c1.9-1.1 1.5-3.9-.5-4.5L207.9 79.4c-2.4-.8-5-.6-7.3.5l-161 75.2c-2.1.9-1.9 3.9.2 4.6z"/><path fill="#23BC98" d="M136.2 171.9c64.9 5.4 140 19.2 169.8 83l56 20.1h87l49.7-29.6c69.6-59.2-150.1-121.3-192.6-112.5-49.7 10.3-24.4-16.2-89.5-17.3s-171.5 48.7-80.4 56.3z"/><path fill="#CDFAB7" d="M317 212.4c-68.5-54.1-134.1-31.1-127.4-72.5 5-31.1 94.3-29.2 169.1-1.6C529.3 201 437 307.2 317 212.4zM213.6 121v-6.8l2.2 4.8v-11.4l4 11.4 3.3-7.5-.9 7.5 6.7-5.5-3.8 7.5z"/><path fill="#ABF3B0" d="M407.3 203.9v-9.6l-3.1 6.8v-16.2l-5.8 16.2-4.7-10.7 1.3 10.7-9.6-7.8 5.5 10.6z"/><path fill="#24D595" d="M569.2 203.4c28.3-12.6 9-51.3-18.4-34.1-11.7 7.4-20.7-.8-15.2-9.5 11.5-18.2-15.7-28.7-31.6-25.4-33.6 7.2-19.8 38.1-31.7 38.7-9.3.5-4.1-15.2-15.8-15.6-7.6-.2-10.8 8.6-6.6 18.8 0 0 6.8 8.2 51.3 11.4s68 15.7 68 15.7z"/><g fill="#84FFC3"><path d="M550.7 169.1c-4.4 2.9-8.5 3.5-11.5 2.6 1.1 2.3 4.2 3.2 8.6.9 6.3-3.3 16.6-9.6 26.1-5.5-5.6-3.8-13.8-4.1-23.2 2zM504.1 134.4c-35.3 7.7-19.8 38.1-31.7 38.7h-.8c3.6 1.6 7.3.4 8.2-4.3 1.6-7.9 9.8-30.4 24.3-34.4zM465.4 165.6c-1.3-3.9-2.9-8-8.7-8.6-9.7-1-11.8 10.2-6.7 19.3-4.4-16 12.3-19.9 15.4-10.7z"/></g><path fill="#24D595" d="M33.6 156.3c-22.7-24.7-3.9-65.9 25.7-61.4 17.5 2.7 11.6 24.7 28.9 24.9 17.3.2 7.5-29.9 31.5-29.8 24.4 0 9 51.6 33.7 55.1 17.3 2.5 25.7-19.5 39.1-7.3 13.5 12.3-14.4 32.7-3 41 8.2 6.1 12.5-2.7 22.3-.3s10.7 14.6-4.5 18.9c0 0-47.7-18-91.2-19.1-54.3-1.4-82.5-22-82.5-22z"/><g fill="#84FFC3"><path d="M84.8 119.4c-12.5-3.2-6-23.1-25.2-25.3-10.2-1.1-19.1 2.9-25.5 9.7 20.3-21.2 26 22.2 50.7 15.6zM129 130c3.5 24.3 20.7 24.2 39.2 11.6-4.3 2.5-9 4.3-14.6 3-24.3-5.7-7.1-54.7-33.8-54.6-3.8 0-6.7.8-9 2 11.4.5 15.6 19.3 18.2 38zM215.3 194.3c8-5.3 4.6-14.4-3.3-16.3-9.8-2.3-14.2 6.9-22.4.8-4-3-3-7.4-.6-12.5-9 14.1-1.3 16 13.1 14.1 14.4-2 14.5 7.9 5.4 17 2.8-1 5.4-2 7.8-3.1zM190.7 162.8c4.4-8.4 10.1-18 2.1-25.2-8.5-7.7-15-2.1-22.5 2.7 15.8-8.7 25.6 9.1 20.4 22.5z"/></g><path fill="#03807B" d="M389.6 275h109c.2-.5 0-1.2-.6-1.4-5.1-2-18.9-6.6-34.7-5.8-9.1.4-17.3 2.6-23.6 4.8 5.9-3.2 13-7.8 19.5-14.2 11.3-11.2 17.1-24.5 19.1-29.6.3-.9-.5-1.7-1.4-1.4-5.1 1.9-18.4 7.7-29.7 18.9-3.5 3.4-6.4 7.1-8.9 10.6 1.5-4.1 2.7-8.6 3.6-13.4 2.7-15.7-.2-29.9-1.6-35.2-.2-.9-1.4-1.1-1.9-.3-3 4.5-10.6 17-13.3 32.6-.9 5.5-1.2 10.7-1.1 15.5-1.9-4-4.2-8.1-7-12.2-9.2-13-21.3-21-26-23.8-.8-.5-1.8.2-1.6 1.1 1.1 5.4 4.5 19.5 13.7 32.5 3.8 5.3 8 9.8 12 13.4-4.7-2.7-10.3-5.3-16.6-7.1-15.2-4.6-29.7-3.4-35.1-2.7-.9.1-1.3 1.3-.6 1.9 3.8 3.3 13.6 11 26.8 15.8z"/><path fill="#06AD90" d="M397.9 275h81.6c-.1-.2-.3-.4-.5-.5-4.2-1.6-13.9-4.6-25.1-4.1-6.7.3-12.8 1.9-17.5 3.5 4.3-2.3 9.6-5.8 14.4-10.5 7.9-7.9 12.2-17.2 13.9-21.3.3-.9-.5-1.7-1.4-1.4-4.1 1.6-13.5 5.9-21.4 13.8-2.6 2.5-4.7 5.2-6.6 7.8 1.1-3 2-6.3 2.6-9.9 1.9-11 0-21.1-1-25.4-.2-.9-1.4-1.1-1.9-.3-2.4 3.7-7.6 12.6-9.5 23.6-.6 3.3-.8 6.6-.8 9.6-1.2-2.3-2.6-4.6-4.2-6.9-6.5-9.1-14.9-14.9-18.7-17.3-.8-.5-1.8.2-1.6 1.1.9 4.4 3.6 14.2 10 23.4 2.8 3.9 5.9 7.2 8.9 9.9-3.5-2-7.6-3.9-12.2-5.3-10.7-3.2-20.9-2.6-25.4-2.1-.9.1-1.3 1.3-.6 1.9 2.9 2.5 9 7.1 17 10.4z"/><path fill="#24D595" d="M481.9 218.2l-6.4-10 6.8 4.1-4.5-12.5 8.7 11.1 1.1-8.3 4.1 10.3 3.7-5.7.1 9.8 4.8-5.6-2.4 6.8z"/><path fill="#23BC98" d="M261.4 184.5l4-4.8-4.5 2-.8-11.2-2.4 12.8-4-7.2-.1 10.3z"/><path fill="#21AA9A" d="M243.2 91.4l4-4.9-6.5 2 1.2-11.1-5.4 11.7-1-6.2-3.1 6.3zM163.6 97.3l-4-4.9 4.5 2 .8-11.1 2.4 12.7 4-7.2v10.3z"/><circle fill="#FF6252" cx="335.5" cy="113.5" r="73"/><path fill="#fff" d="M306.1 85.5v55.9c0 2.7 2.2 4.9 4.9 4.9h28v-32.9L363.4 89c3.1-3.1.9-8.3-3.5-8.3h-49c-2.7-.1-4.8 2.1-4.8 4.8z"/><path fill="#DBE1E0" d="M338.9 113.5l24.5 24.5c3.1 3.1.9 8.3-3.5 8.3h-42.1c-4.4 0-6.5-5.3-3.5-8.3l24.6-24.5z"/></svg>