<svg width="148" height="148" viewBox="0 0 148 148" xmlns="http://www.w3.org/2000/svg" xmlns:xlink="http://www.w3.org/1999/xlink"><title>avatar=teacher-4</title><desc>Created with Sketch.</desc><defs><circle id="a" cx="73.9" cy="74.2" r="73.3"/></defs><g transform="translate(-67 -500) translate(67 500)" fill="none"><mask id="b"><use xlink:href="#a"/></mask><use fill="#8EDA6D" xlink:href="#a"/><g id="Group" mask="url(#b)"><path d="M78.1 93.1l-.9-10c-.2-1.6-1.5-2.9-3.2-2.9-1.6 0-3 1.3-3.2 2.9l-.9 10c-.2 2.3-2 4.2-4.3 4.6-11 1.6-17.3 5.4-17.3 5.4L74 124l25.7-20.9s-6.3-3.8-17.3-5.4c-2.3-.4-4.1-2.2-4.3-4.6M51.3 118.3c-2.5 22.6-13.2 38-13.2 38 4.4 10.7 1.5 40.5 1.5 40.5l-3.3.3-5.9-41.4 9.1-39.8c5.6-12.5 8.9-15.6 15.7-13.1 10.1 3.8-3.9 15.5-3.9 15.5M96.7 118.9c2.5 22.6 13.2 38 13.2 38-4.4 10.7-1.5 40.5-1.5 40.5l3.3.3 5.9-41.4-9.1-39.8c-5.6-12.5-7.9-15.6-14.7-13.1-10 3.8 2.9 15.5 2.9 15.5" id="Shape" fill="#A97C50"/><g id="Group" transform="translate(30 24) translate(12)"><g id="Oval"><ellipse fill="#331416" cx="24.2" cy="8.6" rx="7.8" ry="7.9"/><ellipse fill="#331416" cx="39.4" cy="8.6" rx="7.8" ry="7.9"/><ellipse fill="#331416" cx="49.4" cy="15.7" rx="7.8" ry="7.9"/><ellipse fill="#331416" cx="56.5" cy="24" rx="6.2" ry="6.4"/><ellipse fill="#331416" cx="58.7" cy="33.7" rx="5.1" ry="5.2"/><ellipse fill="#331416" cx="57.2" cy="43.3" rx="5.5" ry="5.7"/><ellipse fill="#331416" cx="53.7" cy="54.1" rx="6" ry="6.2"/><ellipse fill="#331416" cx="44.3" cy="59.2" rx="6" ry="6.2"/><ellipse fill="#331416" cx="14.6" cy="15.7" rx="7.8" ry="7.9"/><ellipse fill="#331416" cx="7.5" cy="24" rx="6.2" ry="6.4"/><ellipse fill="#331416" cx="5.3" cy="33.7" rx="5.1" ry="5.2"/><ellipse fill="#331416" cx="6.3" cy="42.3" rx="5.5" ry="5.7"/><ellipse fill="#331416" cx="9.9" cy="53.1" rx="6" ry="6.2"/><ellipse fill="#0F0A0B" cx="19.8" cy="59.2" rx="6" ry="6.2"/><ellipse fill="#331416" cx="32" cy="36" rx="26.7" ry="28.1"/></g><circle id="Oval" fill="#fff" cx="9.6" cy="39.9" r="1.6"/><circle id="Oval" fill="#fff" cx="54.4" cy="39.9" r="1.6"/><path d="M53.8 37.4c.3 1.5.6 3.1.6 4.7 0 11.6-9.9 25.2-22 25.2-12.2 0-22-13.7-22-25.2 0-1.8.2-3.6.7-5.3 0 0 1.2-1.6 4.7-1 3.4.6 15.7-.8 20.2-12.6 0 0 .5 2.8 2.8 5.1 0 0-1.1-1.7-1-4.3 0 0 4 6.8 12.3 10.6-.1 0 3.4 1 3.7 2.8z" id="Shape" fill="#A97C50"/><path d="M32.4 43l2.7 9.8h-5.5l2.8-9.8z" id="Shape" fill="#F1ECED"/></g><path fill="#A97C50" d="M47.3 108h52.4v33.9H47.3z"/><path d="M97.9 112.6l2.8-9.4-4.5-2.5-3.5 12.2H54.9l-3.5-12.2-4.4 2.5 2.7 9.4-3.1 30.3H101l-3.1-30.3z" id="Shape" fill="#FFD31C"/><path d="M48.6 123.2l-2 25.6H101l-2.1-26.4" fill="#8DD0EB"/><g transform="translate(30 24) translate(31 73)" fill="#fff"><g transform="translate(14)" id="Oval"><circle cx="7.5" cy="3.1" r="1.4"/><circle cx="8.9" cy="1.4" r=".8"/><circle cx="5" cy="4.6" r="1.5"/><circle cx="2" cy="6.1" r="1.9"/></g><g id="Oval"><circle cx="3" cy="3.1" r="1.4"/><circle cx="1.6" cy="1.4" r=".8"/><circle cx="5.5" cy="4.6" r="1.5"/><circle cx="8.4" cy="6.1" r="1.9"/></g><circle cx="12.2" cy="6.5" r="1.9"/></g></g></g></svg>