<svg width="147" height="148" viewBox="0 0 147 148" xmlns="http://www.w3.org/2000/svg" xmlns:xlink="http://www.w3.org/1999/xlink"><title>avatar=teacher-8</title><desc>Created with Sketch.</desc><defs><circle id="a" cx="73.5" cy="73.8" r="73.3"/></defs><g transform="translate(-270 -90) translate(270 90)" fill="none"><mask id="b"><use xlink:href="#a"/></mask><use fill="#DDD3D4" xlink:href="#a"/><g transform="translate(26 30)" mask="url(#b)"><ellipse fill="#005247" cx="47.5" cy="32.1" rx="33.7" ry="31.6"/><path d="M19.4 39c-3 0-5.4 3.4-5.4 7.5s2.4 7.5 5.4 7.5c3 0 5.4-3.4 5.4-7.5 0-4.2-2.4-7.5-5.4-7.5zm0 11.7c-1.7 0-3-1.9-3-4.2 0-2.3 1.4-4.2 3-4.2 1.7 0 3 1.9 3 4.2 0 2.3-1.3 4.2-3 4.2zM70.2 46.5c0 4.1 2.4 7.5 5.4 7.5 3 0 5.4-3.4 5.4-7.5S78.6 39 75.6 39c-3 0-5.4 3.3-5.4 7.5zm2.4 0c0-2.3 1.4-4.2 3-4.2 1.7 0 3 1.9 3 4.2 0 2.3-1.4 4.2-3 4.2s-3-1.9-3-4.2z" id="Shape" fill="#000"/><path d="M70.8 21.7c3 4.1 4.8 9.1 4.8 14.4 0 14.3-12.6 25.8-28.1 25.8-15.5 0-28.1-11.6-28.1-25.8 0-5.3 1.7-10.2 4.7-14.3 0 0 17.4 4.7 23.4-6.1 0 .1 4.2 11.1 23.3 6z" id="Shape" fill="#FFF4C2"/><path d="M47.5 36.8l2.5 6h-5l2.5-6z" id="Shape" fill="#664D4E"/><path d="M51.6 64.2l-.9-10c-.2-1.6-1.5-2.9-3.2-2.9-1.7 0-3 1.3-3.2 2.9l-.9 10c-.2 2.3-2 4.2-4.3 4.6-11 1.6-17.3 5.4-17.3 5.4l25.7 20.9 25.7-20.9s-6.3-3.8-17.3-5.4c-2.3-.3-4.1-2.2-4.3-4.6M24.8 94.8c-2.5 22.6-13.2 38-13.2 38 4.4 10.7 1.5 40.5 1.5 40.5l-3.3.3-5.9-41.4L13 92.4c5.6-12.5 8.9-15.6 15.7-13.1 10.1 3.8-3.9 15.5-3.9 15.5M70.2 95.3c2.5 22.6 13.2 38 13.2 38-4.4 10.7-1.5 40.5-1.5 40.5l3.3.3 5.9-41.4L82 92.9c-5.6-12.5-7.9-15.6-14.7-13.1-10 3.8 2.9 15.5 2.9 15.5" id="Shape" fill="#FFF4C2"/><path d="M26.4 72.1s7.9 12 21.1 21.8V146H.1l2-21.4c-.1 0 4.9-52.5 24.3-52.5zM68.6 72.1s-7.9 12-21.1 21.8V146h47.4l-2-21.4c.1 0-4.9-52.5-24.3-52.5z" fill="#000"/></g></g></svg>