<svg width="148" height="148" viewBox="0 0 148 148" xmlns="http://www.w3.org/2000/svg" xmlns:xlink="http://www.w3.org/1999/xlink"><title>avatar=teacher-1</title><desc>Created with Sketch.</desc><defs><circle id="a" cx="73.9" cy="74.2" r="73.3"/></defs><g transform="translate(-67 -91) translate(67 91)" fill="none"><mask id="b"><use xlink:href="#a"/></mask><use fill="#664D4E" xlink:href="#a"/><g id="Group" mask="url(#b)"><path d="M78.3 92.1l-1-10.7c-.2-1.8-1.6-3.1-3.4-3.1-1.8 0-3.3 1.4-3.4 3.1l-1 10.7c-.2 2.5-2.2 4.5-4.7 4.9-11.8 1.7-18.6 5.8-18.6 5.8l27.6 22.5 27.6-22.5s-6.7-4.1-18.6-5.8c-2.4-.3-4.3-2.4-4.5-4.9M27 161.4l9.8-42.8c6-13.4 9.6-16.8 16.9-14.1 10.7 3.9-4.3 16.5-4.3 16.5M49.5 121.1C46.8 145.4 35.3 162 35.3 162M120.7 161.4l-9.8-42.8c-6-13.4-8.5-16.8-15.8-14.1-10.7 3.9 3.2 16.5 3.2 16.5M98.3 121.1c2.7 24.3 14.2 40.9 14.2 40.9" id="Shape" fill="#FDD6AB"/><g id="Group"><path d="M103.2 78.5c-3.9 0-4.7-10.5-4.7-10.5s3-38.3-16-38.3c0 0-6.1-.6-8.8 2.5-2.8-3-8.8-2.5-8.8-2.5-19 0-16 38.3-16 38.3s-.8 10.5-4.7 10.5c-3.9 0-4.7-1.7-4.7-1.7s.6 16 13 16S73.7 79 73.7 79s8.8 13.8 21.2 13.8c12.4 0 13-16 13-16s-.8 1.7-4.7 1.7z" id="Shape" fill="#FF675F"/><path d="M73.7 43H56.9v31s1.8 6.7 6.3 9.9c4.5 3.1 5.8 4.8 10.5 5 4.7-.2 6.1-1.9 10.5-5 4.5-3.1 6.3-9.9 6.3-9.9V43H73.7z" id="Shape" fill="#FDD6AB"/><path d="M73.7 40.4h-18l1.2 5.8s1.7-3.4 7.5-2.3c5.8 1 4.1 2.3 9.3 2.3 5.2 0 3.5-1.3 9.3-2.3 5.8-1 7.5 2.3 7.5 2.3l1.2-5.8h-18z" id="Shape" fill="#FF675F"/></g><g fill="#000"><path d="M64.8 64.3c-.8 0-1.7-.1-2.5-.3-4.6-1.1-7.6-4.9-6.8-8.5.7-2.9 3.7-4.9 7.4-4.9.8 0 1.7.1 2.5.3 4.6 1.1 7.6 4.9 6.8 8.5-.6 2.9-3.6 4.9-7.4 4.9zM-47-48.6c-3.3 0-6 1.7-6.6 4.2-.7 3.1 2 6.5 6.1 7.5.8.2 1.5.3 2.3.3 3.3 0 6-1.7 6.5-4.2.7-3.1-2-6.5-6.1-7.5-.7-.2-1.5-.3-2.2-.3zM82.6 64.3c-3.7 0-6.7-2-7.4-4.9-.9-3.6 2.2-7.4 6.8-8.5.8-.2 1.7-.3 2.5-.3 3.7 0 6.7 2 7.4 4.9.9 3.6-2.2 7.4-6.8 8.5-.8.2-1.7.3-2.5.3zm-53.1-62.9c-.8 0-1.5.1-2.3.3-4.1 1-6.9 4.3-6.1 7.5.6 2.5 3.2 4.2 6.5 4.2.8 0 1.5-.1 2.3-.3 4.1-1 6.9-4.3 6.1-7.5-.6-2.5-3.2-4.2-6.5-4.2zM71.3 55.6s1.5.7 4.8 0l-.7 2h-3.6l-.5-2z" id="Shape"/></g><path d="M73.9 60.6l2.9 11.2H71l2.9-11.2z" id="Shape" fill="#F39FAF"/><path fill="#FDD6AB" d="M46.2 107.3h56.9v43H46.2z"/><path d="M57.6 98.5s3.5 8.8 14.8 8.8 16-9.2 16-9.2 16 .8 22.5 20.6c6.5 19.7 8.4 36.8 8.4 36.8H28.6s3.6-21.5 8.3-36.8c4.6-15.4 15.4-20.8 20.7-20.2z" id="Shape" fill="#F9F9F9"/><path d="M99.8 113.1l3-10.1-4.8-2.7-3.8 13.1-18.8 9.6h-3l-18.8-9.6-3.8-13.1L45 103l2.9 10.1-3.3 32.6h58.5l-3.3-32.6z" fill="#0F0A0B"/></g></g></svg>