<svg width="148" height="148" viewBox="0 0 148 148" xmlns="http://www.w3.org/2000/svg" xmlns:xlink="http://www.w3.org/1999/xlink"><title>avatar=teacher-6</title><desc>Created with Sketch.</desc><defs><circle id="a" cx="74.1" cy="74" r="73.3"/></defs><g transform="translate(-473 -294) translate(473 294)" fill="none"><mask id="b"><use xlink:href="#a"/></mask><use fill="#EEF8A6" xlink:href="#a"/><g mask="url(#b)"><path d="M108.7 106.5c-4-8.4-6.5-43.9-6.8-49.4-.7-16-12.9-28.8-27.8-28.8S47 41.1 46.3 57.1c-.4 5.4-2.9 41-6.8 49.4 0 0-14.2 5.1-14.2 20.1v20.7h97.6v-20.7c0-15-14.2-20.1-14.2-20.1z" fill="#2A11A8"/><path d="M74.1 61.5S61.2 60.4 51 66.3v7.2s10.6 5.9 23.1 5.9c12.5 0 23.1-5.9 23.1-5.9v-7.2c-10.2-5.8-23.1-4.8-23.1-4.8z" fill="#A8999A"/><path d="M74.8 74.9l2.8 4.6h-5.7l2.9-4.6z" fill="#FFD31C"/></g></g></svg>