<svg width="148" height="148" viewBox="0 0 148 148" xmlns="http://www.w3.org/2000/svg" xmlns:xlink="http://www.w3.org/1999/xlink"><title>avatar=teacher-7</title><desc>Created with Sketch.</desc><defs><circle id="a" cx="74.1" cy="73.8" r="73.3"/></defs><g transform="translate(-473 -90) translate(473 90)" fill="none"><mask id="b"><use xlink:href="#a"/></mask><use fill="#1FAA99" xlink:href="#a"/><g transform="translate(28 31)" mask="url(#b)"><path d="M75.3 74.5c-3.9-8.2.1-40.9-.3-46.2C74.3 12.7 62.4.2 47.9.2 33.4.2 21.5 12.6 20.8 28.3c-.4 5.3 3.9 38 .1 46.2C20.9 74.5.3 77.4.3 96v23h95.2V96c0-18.3-20.2-21.5-20.2-21.5z" id="Shape" fill="#0F0A0B"/><ellipse id="Oval" fill="#fff" cx="47.9" cy="38.4" rx="23.7" ry="26.7"/><ellipse fill="#F5CBBD" cx="47.9" cy="40.5" rx="23.7" ry="24.6"/><path d="M47.9 39.5l2.8 9.8h-5.5l2.7-9.8z" id="Shape" fill="#664D4E"/><path d="M52.1 72.2l-1-10.2c-.2-1.7-1.6-3-3.3-3-1.7 0-3.1 1.3-3.3 3l-1 10.2c-.2 2.4-2.1 4.3-4.4 4.7-11.3 1.7-17.7 5.6-17.7 5.6l26.4 19.7 26.4-19.7s-6.4-3.9-17.7-5.6c-2.3-.3-4.1-2.3-4.4-4.7" id="Shape" fill="#F5CBBD"/><path d="M43.7 66.5l-.6 4.3s-6 2.7-22.2 3.7c0 0-5.5 1-10.5 3.9 0 0 6.7 23.7 37.6 23.7V66.4h-4.3v.1zM52.1 66.5l.6 4.3s6 2.7 22.2 3.7c0 0 5.5 1 10.5 3.9 0 0-6.7 23.7-37.6 23.7V66.4h4.3v.1z" fill="#fff"/></g></g></svg>