<svg width="146" height="146" viewBox="0 0 146 146" xmlns="http://www.w3.org/2000/svg" xmlns:xlink="http://www.w3.org/1999/xlink"><title>avatar=teacher-9</title><desc>Created with Sketch.</desc><defs><circle id="a" cx="73" cy="73" r="72.7"/></defs><g transform="translate(-271 -296) translate(271 296)" fill="none"><mask id="b"><use xlink:href="#a"/></mask><use fill="#91EBE1" xlink:href="#a"/><g id="Group" mask="url(#b)"><path d="M68.3 105.2s-8.7 1.2-12 2.3c-3.3 1.1 5 9.3 5 9.3l28.8-4-.2-5.3c.1.1-11.6-2.6-21.6-2.3z" id="Shape" fill="#014A60"/><g><path d="M68.5 99.8c5.3-.4 5.3-.4 8.9 0l-1.4.7h-3l-3.3-.1-1.2-.6z" id="Shape" fill="#939393"/><g id="Shape" fill="#ECC8C2"><path d="M77.4 103l-1-10.6c-.2-1.8-1.6-3.1-3.4-3.1-1.8 0-3.2 1.3-3.4 3.1l-1 10.6c-.2 2.5-2.1 4.5-4.6 4.9-11.7 1.7-18.4 5.8-18.4 5.8L73 136l27.4-22.3s-6.7-4.1-18.4-5.8c-2.5-.4-4.4-2.4-4.6-4.9M48.8 131.8c-2.7 24.1-14.1 40.5-14.1 40.5 4.7 11.4 1.6 43.3 1.6 43.3l-3.5.3-6.3-44.1 9.7-42.4c6-13.3 9.5-16.7 16.8-14 10.7 3.9-4.2 16.4-4.2 16.4M97.2 131.8c2.7 24.1 14.1 40.5 14.1 40.5-4.7 11.4-1.6 43.3-1.6 43.3l3.5.3 6.3-44.1-9.7-42.4c-6-13.3-8.4-16.7-15.7-14-10.7 3.9 3.1 16.4 3.1 16.4"/></g><g id="Shape"><path d="M62.6 48.2s-2.9 6.9 3.8 11.3c0 0-2.1-6.7-1.3-8.8 0 0 8.8 15.4 28.6 10.4l-5-1.3s6.3.8 7.7 0c0 0 .8 13.8-5.2 24.2 0 0 14.6 1.3 14.6-20.6 0-21.9-14.8-36.1-21.9-34.8 0 0-4.4-.1-7.5 2.2 0 0-1.2-1.3 1.4-3.6 0 0-3.5-.3-4.5 2.1 0 0-2-1.7-4-1.5 0 0 2.2 1.4 1.4 3.1 0 0-1.8-2.4-6.8-2.4S47 31.6 41.4 56.8c-5.6 25.2 11.7 29 14.4 27.3 0 0-7.1-9-5.6-26.1-.1 0 5.5-7.1 12.4-9.8z" fill="#FDF3C0"/><path d="M47.9 70c0-4.3.8-8.4 2.2-12 0 0 4.1-6.9 12.5-9.8 0 0-3.2 6.9 3.8 11.3 0 0-2-6.4-1.3-8.8 0 0 8.5 15.4 28.6 10.4 0 0-2.9 0-5-1.3 0 0 6.3.9 7.9-.1 1 3.2 1.6 6.6 1.6 10.2 0 20-16.2 26.5-25.1 26.5-9 .1-25.2-6.3-25.2-26.4" fill="#ECC8C2"/><path d="M75.1 66.8L78 77.9h-5.8l2.9-11.1z" fill="#F39FAF"/></g><path d="M109.5 124.6c-6.1-16.5-23-16.5-27.8-17.6-4.8-1.1-4.3-7.1-4.3-7.1-2.6.1-4.4 0-4.4 0s-1.8.1-4.4 0c0 0 .5 6-4.3 7.1-1.6.4-4.5.6-7.9 1.4-6.9 1.5-15.8 5.2-19.9 16.2-6.1 16.5-5.9 21.4-5.9 21.4h84.8s.2-4.9-5.9-21.4z" id="Shape" fill="#FCFCFC"/><path d="M66.5 151.4s1.3-25.6-10.2-43.8c0 0-12.8 1.5-18.5 13.1-5.8 11.6-7.9 25.4-7.9 25.4l36.6 5.3zM79.8 151.4s-1.3-25.6 10.2-43.8c0 0 .5.1 1.2.2 3.3.7 12.6 3.5 17.3 12.9 5.8 11.6 7.9 25.4 7.9 25.4l-36.6 5.3z" fill="#005779"/></g></g></g></svg>