<svg width="147" height="148" viewBox="0 0 147 148" xmlns="http://www.w3.org/2000/svg" xmlns:xlink="http://www.w3.org/1999/xlink"><title>avatar=teacher-2</title><desc>Created with Sketch.</desc><defs><circle id="a" cx="73.4" cy="74.1" r="73.3"/></defs><g transform="translate(-473 -500) translate(473 500)" fill="none"><mask id="b"><use xlink:href="#a"/></mask><use fill="#8EDA6D" xlink:href="#a"/><g transform="translate(24 25)" id="Group" mask="url(#b)"><path d="M33.5 29c0-16 10.4-29 23.3-29s23.3 13 23.3 29c0 7.7-2.4 14.7-6.4 19.9l4.4 12S72 66.7 54.7 67v-9.1C42.9 56.5 33.5 44.1 33.5 29zM65.2 29c0-16-10.4-29-23.3-29S18.6 13 18.6 29c0 7.7 2.4 14.7 6.4 19.9l-4.4 12S26.7 66.7 44 67v-9.1C55.9 56.5 65.2 44.1 65.2 29z" id="Shape" fill="#331416"/><circle id="Oval" fill="#00D1B8" cx="24" cy="49.3" r="1.8"/><circle fill="#00D1B8" cx="74.4" cy="49.3" r="1.8"/><path d="M74.4 42.2c0 20-16.2 30.4-25.1 30.4-8.9 0-25.1-10.4-25.1-30.4 0-15.3 9.8-27.7 25.1-27.7s25.1 12.4 25.1 27.7" id="Shape" fill="#FFF4C2"/><path d="M61.6 18c-6.7 15.7-25.4 15.7-33.9 4.5C32.7 12 49.9 3.4 61.6 18M60.7 17.1c-3.2 7.9 2.8 14.5 9.7 13.5 2-5.4-.5-14.5-9.7-13.5" id="Shape" fill="#331416"/><path d="M38.8 82.6s7.4 3.3 21.3 0l1 1.2-3.6 5-3.9 2.1-7.4 1-5.6-3-4.2-4.6 2.4-1.7z" id="Shape" fill="#DCE0DF"/><g fill="#FFF4C2"><path d="M54 79.4l-1-11.1c-.2-1.8-1.7-3.2-3.6-3.2-1.8 0-3.4 1.4-3.6 3.2l-1 11.1c-.2 2.6-2.2 4.7-4.8 5.1-12.3 1.8-19.3 6.1-19.3 6.1L49.4 114l28.7-23.4s-7-4.3-19.3-6.1c-2.6-.4-4.6-2.5-4.8-5.1M24 107.6c-2.8 25.3-14.8 42.5-14.8 42.5 5 11.9 1.7 45.3 1.7 45.3l-3.7.4-6.6-46.3L10.8 105c6.3-13.9 9.9-17.5 17.6-14.6 11.2 4.1-4.4 17.2-4.4 17.2M74.8 108.2c2.8 25.3 14.8 42.5 14.8 42.5-5 11.9-1.7 45.3-1.7 45.3l3.7.4 6.6-46.3L88 105.6C81.7 91.7 79.2 88.1 71.5 91c-11.2 4.1 3.3 17.2 3.3 17.2" id="Shape"/></g><path d="M49.4 39.4l3 11.7h-6l3-11.7z" id="Shape" fill="#FF7353"/><path d="M82.2 92.4c-4.4-5.9-22.6-8.7-22.6-8.7L49.4 97.9 39.2 83.7S21 86.5 16.6 92.4c-4.4 5.9-8.9 18.1-12.4 34h90.4c-3.5-15.9-8-28.1-12.4-34z" id="Shape" fill="#00D1B8"/><path d="M38.8 82.6l10.6 15.3-17.8-13.6 7.2-1.7zM60 82.6L49.4 97.9l17.8-13.6-7.2-1.7z" fill="#F9F9F9"/></g></g></svg>