<svg width="147" height="148" viewBox="0 0 147 148" xmlns="http://www.w3.org/2000/svg" xmlns:xlink="http://www.w3.org/1999/xlink"><title>avatar=teacher-3</title><desc>Created with Sketch.</desc><defs><circle id="a" cx="73.6" cy="74.2" r="73.3"/></defs><g transform="translate(-270 -500) translate(270 500)" fill="none"><mask id="b"><use xlink:href="#a"/></mask><use fill="#91EBE1" xlink:href="#a"/><g transform="translate(23 22)" id="Group" mask="url(#b)"><circle id="Oval" fill="#FF675F" cx="30.2" cy="50.7" r="1.4"/><circle id="Oval" fill="#FF675F" cx="71.2" cy="50.7" r="1.4"/><path d="M36.8 85.5s15.5 6.5 29.6 0l-.6 9.2-.6 8.4-1-1-16.7 3.2-6.8-1.4-6.2-5.8 2.2-12.3" id="Shape" fill="#C2CC3E"/><path d="M55.4 84.4l-1.1-11.5c-.2-1.9-1.8-3.4-3.7-3.4-1.9 0-3.5 1.5-3.7 3.4l-1.1 11.5c-.3 2.7-2.3 4.9-5 5.3-12.7 1.9-20 6.3-20 6.3l29.8 24.2L80.3 96s-7.3-4.4-20-6.3c-2.6-.4-4.7-2.6-4.9-5.3M24.4 115.6c-2.9 26.2-15.3 44-15.3 44 5.1 12.4 1.7 46.9 1.7 46.9l-3.8.4L.2 159l10.6-46C17.3 98.6 21.1 94.9 29 97.8c11.5 4.3-4.6 17.8-4.6 17.8M76.9 115.6c2.9 26.2 15.3 44 15.3 44-5.1 12.4-1.7 46.9-1.7 46.9l3.8.4L101 159l-10.6-46c-6.5-14.4-9.1-18.1-17-15.2-11.5 4.3 3.5 17.8 3.5 17.8" id="Shape" fill="#ECC8C2"/><path d="M42.3 30.3l8.6 7.1 8.6-7.1 11.7 5.6V47s-.8 30.3-20.3 33.1C31.4 77.3 30.6 47 30.6 47V36l11.7-5.7z" id="Shape" fill="#ECC8C2"/><path d="M30.8 49.7c-4.6-4.1-7.4-9.7-7.4-15.7 0-12.7 12.2-23 27.2-23s27.2 10.3 27.2 23c0 5.8-2.6 11.1-6.8 15.2 0 0 1.3-7.4-6.5-13.7-7.8-6.3-10.6.3-10.6.3s-.9 3.6-5.4 4.2c-4.2.6-4.2.4-7.6 1.8 0 0 .6-1.4 3.1-2.6 2.5-1.2-11.9 1.9-12.8 7.3 0-.2-.3 1.4-.4 3.2z" id="Shape" fill="#005779"/><ellipse id="Oval" fill="#005779" cx="60.3" cy="11" rx="9.7" ry="9.5"/><ellipse id="Oval" fill="#005779" cx="41.2" cy="11" rx="9.7" ry="9.5"/><ellipse id="Oval" fill="#005779" cx="50.6" cy="10" rx="9.7" ry="9.5"/><path d="M50.6 55.3l3.2 6.2h-6.3l3.1-6.2z" id="Shape" fill="#F39FAF"/><path d="M84.7 95.5C80.3 92.6 71 90.9 71 90.9l-2.2-.7-11.9 7.5-2.7-1.5-2.5 5.2-2.5-5.2-2.7 1.5-11.9-7.5-2.2.7s-9.3 1.7-13.7 4.6c-4.4 2.9-14.6 17.6-12.9 33.6H97.6c1.7-16.1-8.5-30.7-12.9-33.6z" id="Shape" fill="#D0E244"/><path d="M49.2 96.1s-9.6-.3-12.3-10.6l-4.5 5.3s-1 8.5 9.8 13.1l7-7.8zM54.1 96.1s9.6-.3 12.3-10.6l4.5 5.3s1 8.5-9.8 13.1l-7-7.8z" fill="#E0EF73"/><g transform="translate(41 88)" fill="#FF675F"><g transform="translate(11)" id="Oval"><circle cx="5.6" cy="2.6" r="1.1"/><circle cx="6.6" cy="1.4" r=".6"/><circle cx="3.7" cy="3.8" r="1.1"/><circle cx="1.4" cy="4.9" r="1.4"/></g><g id="Oval"><circle cx="2.5" cy="2.6" r="1.1"/><circle cx="1.4" cy="1.4" r=".6"/><circle cx="4.4" cy="3.8" r="1.1"/><circle cx="6.6" cy="4.9" r="1.4"/></g><circle cx="9.5" cy="5.2" r="1.4"/></g></g></g></svg>