<svg width="148" height="147" viewBox="0 0 148 147" xmlns="http://www.w3.org/2000/svg" xmlns:xlink="http://www.w3.org/1999/xlink"><title>avatar=teacher-5</title><desc>Created with Sketch.</desc><defs><circle id="a" cx="73.9" cy="73.7" r="73.3"/></defs><g transform="translate(-67 -296) translate(67 296)" fill="none"><mask id="b"><use xlink:href="#a"/></mask><use fill="#A79899" xlink:href="#a"/><g id="Group" mask="url(#b)"><path d="M78.6 100l-1.1-11.4c-.2-1.9-1.8-3.3-3.6-3.3-1.9 0-3.5 1.4-3.6 3.3L69.2 100c-.2 2.7-2.3 4.8-4.9 5.2-12.6 1.9-19.8 6.2-19.8 6.2l29.4 23.9 29.4-23.9s-7.2-4.4-19.8-6.2c-2.6-.4-4.7-2.5-4.9-5.2M47.9 130.8c-2.9 25.8-15.1 43.5-15.1 43.5 5.1 12.2 1.7 46.4 1.7 46.4l-3.7.4-6.7-47.3 10.4-45.5c6.4-14.3 10.2-17.9 18-15 11.4 4.1-4.6 17.5-4.6 17.5" id="Shape" fill="#F3C7A2"/><path d="M99.8 130.8c2.9 25.8 15.1 43.5 15.1 43.5-5.1 12.2-1.7 46.4-1.7 46.4l3.7.4 6.7-47.3-10.4-45.5c-6.4-14.3-9-17.9-16.8-15-11.4 4.1 3.4 17.5 3.4 17.5" id="Shape" fill="#FDD6AB"/><g id="Group" transform="translate(24 25) translate(20)"><path d="M15.9 73.7s14.6-6.2 25.8 0l8.9-10.1V37.9L33.2 25 6.8 37.1l9.1 36.6z" id="Shape" fill="#000"/><ellipse id="Oval" fill="#F3C7A2" cx="29.6" cy="42.1" rx="27" ry="30"/><path d="M21.4 16.6S5.7 41.1 15.9 73.8c0 0-13.7-1.7-14.8-19.5C0 36.4.8 15 11.3 6.2c10.4-8.9 10.1 10.4 10.1 10.4z" id="Shape" fill="#0A0406"/><circle fill="#ED1C24" cx="29.6" cy="27.9" r="1.5"/><path d="M41.7 73.7s11.5-14 1.9-40.4c0 0-13.2-2.2-22.3-16.8L19.2 5.8S21.1.8 26 .5C30.9.2 49.9-.6 56.5 21.1c6.7 21.8-.5 52.6-14.8 52.6z" id="Shape" fill="#0A0406"/></g><path d="M73.9 68.4l3.1 12h-6.2l3.1-12z" id="Shape" fill="#FF7353"/><path d="M95.6 107.5s-3.1 19-21.7 19c-18.6 0-21.7-19-21.7-19C32.8 111 29.4 147 29.4 147h89c-.1 0-3.5-36-22.8-39.5z" id="Shape" fill="#DB3247"/><path d="M110.6 119.9c-15.5 4.4-7.3 27.1-7.3 27.1H44.8c0-14.6 15.8-18.7 30.1-22.2 14.2-3.5 19-17.6 19-17.6s9.2-.1 16.7 12.7z" id="Shape" fill="#FFD31C"/><g stroke="#FFD41D" stroke-width=".25"><path id="Shape" d="M58.3 106.4l.2.4"/><path d="M59 107.7c2 3.3 7.7 11.7 14.6 11.7 7.2 0 12.4-9.4 13.9-12.4" id="Shape" stroke-dasharray="0.987,0.987"/><path id="Shape" d="M87.7 106.5c.1-.3.2-.5.2-.5"/></g><path d="M75.1 122.4c0 .7-.5 1.2-1.2 1.2h-.7c-.7 0-1.2-.5-1.2-1.2v-1.1c0-.7.5-1.2 1.2-1.2h.7c.7 0 1.2.5 1.2 1.2v1.1z" fill="#FFD41D"/><path fill="#FFD41D" d="M73.2 118.9h.8v1.4h-.8z"/></g></g></svg>