<svg xmlns="http://www.w3.org/2000/svg" viewBox="0 0 144 144" enable-background="new 0 0 144 144"><path fill="none" d="M-.4 0h144v144H-.4z"/><path fill="#0397F3" d="M31.5 100.6l-12.4-2.8c-1.1-.2-1.7-1.4-1.3-2.5l10.1-24.8 3.6 30.1z"/><path fill="#0188DC" d="M130.3 63.3c-.6-27.4-22.7-49-50.1-50C50.5 12.2 26.1 35 26.1 64.5c0 4.1.5 8.2 1.4 12l4.1 32.4c1.2 7.9 8.5 13.4 16.4 12.2l6.1-.7c2.7-.3 5.1 1.6 5.5 4.3l1.3 9.4c.2 1.5 1.5 2.6 3 2.6h35.8c1.8 0 3.2-1.6 3-3.4l-1.7-12.5c-.6-4.2 1.6-8.3 5.4-10.2 16.8-8.7 24.4-26.6 23.9-47.3z"/><ellipse transform="matrix(.394 -.919 .919 .394 -2.184 108.8)" fill="#0397F3" cx="81.4" cy="56.1" rx="38" ry="43.5"/><path fill="#FFE265" d="M83.3 74.6c-.2.6-.6.9-1.1.8l-12.8-3.6c-.4-.1-.6-.7-.5-1.2.2-.6.6-.9 1.1-.8l12.8 3.6c.4.1.6.7.5 1.2zM80.7 83.6c-.2.6-.6.9-1.1.8l-12.8-3.6c-.4-.1-.6-.7-.5-1.2.2-.6.6-.9 1.1-.8l12.8 3.6c.5.1.7.6.5 1.2zM82 79.1c-.2.6-.6.9-1.1.8l-12.8-3.6c-.4-.1-.6-.7-.5-1.2.2-.6.6-.9 1.1-.8l12.8 3.6c.4.1.6.7.5 1.2z"/><path fill="#FF7753" d="M96.8 56.4c2.3-8.2-2.4-16.8-10.7-19.1C77.8 35 69.3 39.7 67 48c-1.6 5.6.1 11.4 4 15.2l-1 3.4 14.4 4.1 1-3.4c5.3-1.3 9.8-5.3 11.4-10.9z"/><path fill="#fff" d="M82.7 66.8l-1.6-.7 6.1-14.6-9.5-2.7-1.2 15.9-1.8-.1 1.4-18.2 13.6 3.9zM88.1 34.1c-.2.5-.7.9-1.3.7-.5-.2-.9-.7-.7-1.3l2-6.9c.2-.5.7-.9 1.3-.7.5.2.9.7.7 1.3l-2 6.9zM100 58c-.5-.2-.9-.7-.7-1.3.2-.5.7-.9 1.3-.7l6.9 2c.5.2.9.7.7 1.3-.2.5-.7.9-1.3.7l-6.9-2zM56.1 45.6c-.5-.2-.9-.7-.7-1.3.2-.5.7-.9 1.3-.7l6.9 2c.5.2.9.7.7 1.3-.2.5-.7.9-1.3.7l-6.9-2zM73.7 26.6c-.2-.6.2-1.1.7-1.3.6-.2 1.1.2 1.3.7l1.9 6.9c.2.6-.2 1.1-.7 1.3-.6.2-1.1-.2-1.3-.7l-1.9-6.9zM98.4 31.3c.4-.4 1-.5 1.5-.1.4.4.5 1 .1 1.5l-4.7 5.4c-.4.4-1 .5-1.5.1-.4-.4-.5-1-.1-1.5l4.7-5.4zM63.3 57.3c.5-.2 1.1.1 1.3.6.2.5-.1 1.1-.6 1.3l-6.8 2.4c-.5.2-1.1-.1-1.3-.6-.2-.5.1-1.1.6-1.3l6.8-2.4zM106.3 42c.5-.2 1.1.1 1.3.6.2.5-.1 1.1-.6 1.3l-6.7 2.4c-.5.2-1.1-.1-1.3-.6-.2-.5.1-1.1.6-1.3l6.7-2.4zM94.8 66c-.4-.4-.4-1.1 0-1.5.4-.4 1.1-.4 1.5 0l5.1 5c.4.4.4 1.1 0 1.5-.4.4-1.1.4-1.5 0l-5.1-5zM62.1 34.1c-.4-.4-.4-1.1 0-1.5.4-.4 1.1-.4 1.5 0l5.1 5c.4.4.4 1.1 0 1.5-.4.4-1.1.4-1.5 0l-5.1-5z"/></svg>