<svg xmlns="http://www.w3.org/2000/svg" viewBox="0 0 144 144" enable-background="new 0 0 144 144"><path fill="none" d="M0 0h144v144H0z"/><path fill="#3E4B4B" d="M18.7 103.4h98.6s4.6-.2 6.1 1.7l18.2 22.2s3.1 4.5-2.6 4.5H5s-5.3.1-3-5.1c2.4-5.2 11.2-20.6 11.2-20.6s2-2.7 5.5-2.7z"/><path fill="#fff" d="M21.7 106.1l-10.8 19h117.7l-12.3-19z"/><path fill="#FF7254" d="M64.8 68.2C60.9 51.7 44.5 41.5 28 45.3S1.2 65.7 5.1 82.1c3.4 14.5 16.6 24.2 30.9 23.7l6.8 7.3c.6.6 1.6.4 1.9-.4l2.8-9.6c13.1-5.9 20.6-20.4 17.3-34.9z"/><g fill="#fff"><ellipse transform="matrix(.974 -.228 .228 .974 -17.574 6.666)" cx="20.1" cy="79.5" rx="5.4" ry="5.4"/><ellipse transform="matrix(.974 -.228 .228 .974 -16.145 9.904)" cx="34.9" cy="74.9" rx="4.6" ry="4.6"/><ellipse transform="matrix(.974 -.228 .228 .974 -14.716 13.142)" cx="49.6" cy="70.4" rx="6.3" ry="6.3"/></g><path fill="#01D0B7" d="M91.9 103.5c0-8.2-6.7-14.9-14.9-14.9s-14.9 6.7-14.9 14.9c0 7.2 5.2 13.3 12 14.6l2.4 4.2c.2.4.7.4.9 0l2.4-4.2c7-1.3 12.1-7.3 12.1-14.6z"/><path fill="#fff" d="M76.2 99.9c-4.5-5.1-8.6 2-4.2 5.6 2.3 1.8 1.5 3.4.4 4.4-.4.4-.1 1.1.5 1 3.4-.6 9.6-2.6 10.8-9.7 1-5-5.4-7-7.5-1.3z"/><path fill="#FFD31C" d="M139.8 61.2c2.9-18.1-9.4-35.1-27.5-37.9s-35.1 9.4-37.9 27.5c-2.5 15.9 6.7 31 21.3 36.3l3.8 10.1c.3.9 1.5 1 2 .3l6.8-8.5c15.5-.4 29-11.8 31.5-27.8z"/><path fill="#fff" d="M116.8 52.2s-8.8-9.7-8.3-15.5c0 0-2.9-1.1-3.4 2.1s.6 9.1.6 9.1l-12-1.9s-2.1.3-2.2 2.7c-.1 2.4.9 2.4.9 2.4s-1.7 1-1.8 3.2c-.1 2.2 1.2 2.9 1.2 2.9s-1.5.8-1.6 3.1c-.1 2.3 2.1 3.4 2.1 3.4s-.9 4.6 2 5.2c2.9.6 14.6 1.4 18.9-1.2 3.1-1.9 7.9-1.4 10.2-1 .8.1 1.5-.4 1.6-1.2l1.7-10.5c.1-.8-.4-1.5-1.2-1.6l-8.7-1.2z"/></svg>