<svg xmlns="http://www.w3.org/2000/svg" viewBox="0 0 100 100" enable-background="new 0 0 100 100"><path fill="#F3A0B0" d="M51.3 13c-19.7 0-35.7 15.9-35.7 35.6 0 7.2 2.2 14 5.9 19.6 0 0-4-6.5 0 0s7.2 12.8-4.2 9.6C5.9 74.6 2.7 93.6 6.6 93c3.9-.6 2.3-9.3 10.8-4.6 7.5 4.1 17.1 1.2 22.1-6.2 3.7 1.3 7.7 2 11.9 2C71 84.2 87 68.3 87 48.6 87 28.9 71 13 51.3 13z"/><path fill="#fff" d="M50 41.2c-11-12.3-21 5-10.1 13.8 5.5 4.5 3.7 8.3 1.1 10.7-1 .9-.2 2.6 1.2 2.3 8.4-1.4 23.4-6.4 26.5-23.8 2-12-13.7-16.9-18.7-3z"/></svg>