<svg xmlns="http://www.w3.org/2000/svg" viewBox="0 0 2615.9 670" enable-background="new 0 0 2615.9 670"><path fill="#FFF3C1" d="M0 0h2615.9v670H0z"/><path fill="#A5E7AF" d="M2485.9 637.8c-48.9-64.8-213-201.1-379.2-181.7-121.7 14.2-162.7-145.3-261.1-125.9-67.8 13.3-78.8-53.8-187-5.9-65.3 28.9-90.6-60.6-187.4-3.7-31.5 18.5-31.7-1-62.4 11.5s-.2 18.2-149 18.2c-164.9 0-149.6-46.1-289.7-28.8s-206.8 60.9-285.5 35.9c-78.7-25-84.5 9.6-120 51.8s-201.1 30-248.2 112.1c-32.9 57.3-141.6 4.6-210.7 127.5l2380.2-11z"/><path fill="#21AA9A" d="M2563.6 670C2193.4 458.7 1764.8 338 1308 338S422.6 458.7 52.3 670h2511.3z"/><g fill="#fff"><path d="M260.8 336s-8.5-5.7-25.9.7-9.2-22.7-45.5-3.2c-22.4 12-22.6-12-40-.5s-7.1 19.2-20.3 32c-9.2 9-18.9-.6-23.3 21.6-1.2 6.2-7.1 2-7.7 9.5-.5 7.6-15.9 1.7-18.1 18.2-1.3 10.8-15.3 14.7-36.1 29.7h.1c70.5-41.5 143-77.4 216.8-108zM973.1 125.6s1.7-4 9.4-5.6c7.6-1.7-1.9-10.2 15.5-11.5 10.7-.8 5.3-9.4 14.1-9.3 8.8.1 6.9 5.2 14.5 6.8 5.3 1.1 6.6-4.5 13.2 2.4 1.8 1.9 3-.9 4.9 1.7 1.9 2.6 6.1-3 10.6 2.4 3 3.5 8.8 1.7 19.6 2.3-34.6 1.2-68.6 4.9-101.8 10.8zM2489.1 471.4s4.6-2.9 13.7.6 5.1-12 24.2-1.3c11.8 6.6 12.1-6.2 21.3.1s3.6 10.3 10.5 17.2c4.8 4.9 10-.1 12.1 11.7.6 3.3 3.8 1.1 4 5.1s8.4 1.1 9.4 9.8c.7 5.7 8 7.9 18.9 16.1-37.1-22.6-75.2-42.4-114.1-59.3zM1827.8 199.7s-5.8-14.2-32.8-20.7 7.5-36-54-42c-38-3.7-18.2-33.8-49.5-34s-24.9 18-52 23c-19 3.5-23-16.5-47 7.5-6.7 6.7-10.5-3.5-17.5 5.5s-21.3-11.2-37.7 7.6c-10.8 12.2-31.4 5.5-69.8 6.7h.1c122.4 7.3 242.7 23 360.2 46.4zM838.9 104.3c-51.3-15.9-48.4 12.3-76.7-.4-40.6-18.1-67.8 15.6-122.9 7.3-55.1-8.4-81.6 55.4-129 72.4h1.5c106.4-33.2 215.6-59.8 327.1-79.3zM1223.9 203.9c-39.9 1.5-32.4-9.5-60.4-4.2s-1.5-30.2-56-4.7-43.8 4.7-70.9 21.3c61.8-6.3 124.2-10.4 187.3-12.4zM2231.4 213.1c-37.5-13.6-26.4-21-54.4-26.7-27.9-5.7 10-28.5-50.1-25.5s-42.3-12.2-73.7-7c59.7 17.4 119.1 37.2 178.2 59.2zM141.9 192.5s13.6-13.4 28.6-17.6c15-4.1 4.6-19.1 37.4-19.7 32.8-.6 17.8-3.7 28.7-1.7-31.7 11.9-63.3 24.8-94.7 39z"/></g><path fill="#23BC98" d="M2249.5 594.6c-83.7-106.1-152.3 14.3-289-133.9-110.1-119.4-351.9-3.1-646.8-75.1-217.4-53-436.6 77.6-579.3 49.7-135.3-26.4-93.6 125-243.4 102.9-64.9-9.6-46.5 79.4-188.2 79.4-44.9 0-77.3 52.4-132.9 52.4h2235.4c-51.3-58.6-104.7-10.6-155.8-75.4z"/><path fill="#24D595" d="M667.2 421.9c88.6 19.9 100.7-81.3 47.1-115.8-50.1-32.3-11.4-83.6-64.4-89-48.3-5-71 76.1-32.2 111.8 33 30.4-17.1 78.1 49.5 93z"/><g stroke="#1B8B7F" stroke-width="4" stroke-linecap="round" stroke-miterlimit="10" fill="none"><path d="M697.7 458.9c20.3-99-44.9-165.6-44.9-165.6M697.5 382.2s-10.3 6.1-25.5-1.5M690.4 357.1s17.8-5.1 13.2-20"/></g><path fill="#84FFC3" d="M711.2 420.7c47.5-17.1 48-88.8 5-116.5-50.1-32.3-12.4-82.6-65.3-88-15.7-1.6-28.8 6-38 18.3 34.2-36.6 61.6 1.1 67.3 45.6 7.3 56.4 52.9 18.3 59.1 87.1 3.1 34.8-14.6 48.3-28.1 53.5z"/><path fill="#03807B" d="M373.7 518.7c-115.1 44.2-122.3-69.6-124.8-113.6s7.2-153.3 60.1-144.8 6.4 81.3 60.9 101.2c54.6 19.8 96.2 121.7 3.8 157.2z"/><g stroke="#24D595" stroke-width="4" stroke-linecap="round" stroke-miterlimit="10" fill="none"><path d="M353.1 560.7c13.2-76.2-8.3-146-46.1-192.2M374 435.8c1.3 29.1-20.4 38.4-20.4 38.4M330.8 404.7c-8.4 4.4-15.3 4.4-20.4 3"/></g><path fill="#21AA9A" d="M372.9 358.6c-54.5-19.9-10.9-91.7-63.8-100.2-20.3-3.3-34.3 11.2-43.6 32.7 19-35.5 63.8-32.9 60.4 11.7s10.9 67.8 44.9 81.4c34 13.6 74.9 69.8 38 112.5 44.3-45.3 9.7-121.5-35.9-138.1z"/><path fill="#CDFAB7" d="M1894.7 503.3c0 91.6-253.7-19.4-586.8 98.6-305.5 108.2-586.8-7-586.8-98.6S983.8 335 1307.9 335s586.8 76.7 586.8 168.3z"/><path opacity=".2" fill="#24D595" d="M1059.3 400.6c-1-2.1 4.1-5.1 14.3-7.3 10.1-2.2 14.3-2.7 15.3-.6s-1.5 5.4-10.9 9.9c-9.3 4.5-17.7.1-18.7-2zM1150.8 366.5c-10.4-.5-14.4-3.3-14.6-5.6-.2-2.3 3.4-1.5 13.6-3.7 24.4-5.1 24.2 10.4 1 9.3z"/><path fill="#015247" d="M1053.8 332c.7 3.9 7.6 4.5 7.6 4.5s6.9-.6 7.6-4.5c.4-2.2.1-4.6-.8-6.5-5.2 0-3.4-4.5-6.2-4.5-5.2-.1-9.1 6-8.2 11zM1055.8 325.2c4.7 4.2 10.7 1.7 11.8-3.4-3.3-2.6-10.2-3.2-11.8 3.4zM1055.8 325.1c3.2 5.3 11.1 5.4 14.8 1.5-2.4-3.5-9.9-6.5-14.8-1.5z"/><path fill="#FFFFC7" d="M1068.7 332.1c0 5.8-4.7 7.7-7.3 7.7-2.6 0-7.3-1.9-7.3-7.7 0-4.5 2.9-8.1 7.3-8.1s7.3 3.7 7.3 8.1z"/><path fill="#FF7353" d="M1063 329.9l-1.2 4.5h2.3z"/><path fill="#FFFFC7" d="M1060.8 340.3l-.3-3.3c0-.6.3-1 .9-1.1.5-.1 1.1.2 1.2.8l.9 3.2c.2.8.9 1.3 1.7 1.2 3.7-.1-1.2 9.2-1.2 9.2l-9.6-4.6s1.7-2.4 5.2-3.6c.8-.3 1.3-1 1.2-1.8z"/><path fill="#FFD31C" d="M1051.3 397.7l-1-7.7s1.2-.5 2.4.6l.4 1.5s.3 5.7-1.8 5.6zM1086.6 394.2l-7.3 2.6s-.7-1 .1-2.4l1.4-.7s5.5-1.5 5.8.5z"/><path fill="#FFFFC7" d="M1051.9 390l.8 1.6 14.2-7.4 5.3-16.3-5.9-2.1c-2.9 11.7-2.3 16.4-2.3 16.4-4.4 1.3-12.1 7.8-12.1 7.8zM1064.5 373.6c5.9 3.4 15.1 6.5 15.1 6.5-1.5 4.6-.2 14.2-.2 14.2h1.9l1.1-16.5-14.1-9.8-3.8 5.6z"/><path fill="#FFEBEA" d="M1060.8 369.6c.1-5.4.8-7 .8-7h9.2s.7 1.6.8 7c0 0-.1 4.2-5.4 4.2-5.3 0-5.4-4.2-5.4-4.2z"/><path fill="#1F7698" d="M1059.9 365.7s-.2 2.1 0 5.3 2.2 3.5 4.5 4.8c3.1 1.6 7.8 2.5 13.3 5.2 0 0 1.1-.1 2.1-2.6s.5-3.6.5-3.6l-7-3.7-13.4-5.4zM1063.7 374l.2.1-1.2 7.8s.6.9 3.2 1.7c1.4.4 2-.4 2-.4 3.2-9.7 4.9-17 4.9-17l-5.9-2.1s-2.2.7-3.3 3.8.1 6.1.1 6.1z"/><path fill="#FFFFC7" d="M1078.8 354.4s-3.6-4.7-5.7-7.6c-2.2-2.9-5.8-4-5.3-1.6.8 3.5 7.4 8.7 7.4 8.7 2.1 1.9 3.6.5 3.6.5z"/><path fill="#0E1414" d="M1072 346.1s-2 1.6-6 1.5l-.5-6.4c5.5-.3 6.5 4.9 6.5 4.9zM1072.9 367.6c-.6-7-2.6-10.3-2.8-16.5-.3-5.8-2.7-10.2-4.9-10.1 0 0 .3 2.3-2.4 2.8-2.6.5-4.2-1.9-4.2-1.9-2.3 1-3.6 2.1-3.6 2.1-.2 7.5 4.7 15.4 4.3 25.6.1 0 9.5 2.8 13.6-2z"/><path fill="#FFFFC7" d="M1078.8 354.4l-5 4.9-.8-1.3s.9-1.5 2.5-3.7c1-1.5 2.3-.9 3.3.1zM1070.3 361.6s2.1.2 3-1c.9-1.1 1.2-2.4.6-2.9s-1.8.1-2.7 1.2c-.9 1.1-1.5 2.1-1.5 2.1l.6.6zM1073.9 357.7c-1.2-1-1.8.6-3.5.6 0 0 1.4 2 3.5-.6z"/><g fill="#FFFFC7"><path d="M1048.6 358.9l-2.9 10.9-1.1-.1 1.2-11.6 4.7-8.1c2.8-3.7 6.4-5.6 6.2-3.1-.2 3.4-8.1 12-8.1 12zM1039.7 372.8s.7-2.2 2.5-3c1.8-.8 3.5-.9 3.8-.2.3.7-.9 1.9-2.7 2.7-1.8.8-3.3 1.3-3.3 1.3l-.3-.8zM1045.9 369.6c.6 1.5-1.6 1.8-2.3 3.6.1 0-1.7-1.8 2.3-3.6z"/></g><path fill="#0E1414" d="M1055 344.1s-2.3 1.1-4 4.7l5.5 3.3c2.7-4.8-1.5-8-1.5-8z"/><path opacity=".2" fill="#24D595" d="M1299.3 505.5c0 3.1-7.3 6.2-15.9 9.5-8.6 3.3-18-3.1-37.2-8.6-3-.8 7.2-6.5 24.7-6.5s28.4 2.5 28.4 5.6z"/><path opacity=".4" fill="#03807B" d="M1560.5 620.5c17.4 3.8 4.5 23.7-12.4 17.7-22.2-8-37.8 5.1-44.2-7.6-2.5-5.1 10.9-14.1 29.1-16.7 18.4-2.7 20.9 5.2 27.5 6.6zM1671.9 579.7c1.5 6.9-19.1 2.5-29.5 7-28.9 12.5-44 15.7-44.8 8.8 21.9-5.9-3.3-20.7 36.6-29.3 16.7-3.7 34.3-2 37.7 13.5z"/><path opacity=".2" fill="#24D595" d="M1551.5 414.6c0 2.3-5.9 2.8-16 .3s-14.1-3.8-14.1-6.1 3.7-4.2 14.1-4.2c10.4.1 16 7.7 16 10zM927.8 490.4c.5 3.3 19.2-1.8 39.8-5.1 20.5-3.3 12.4-4 46.6-16.6-.4-10.4-5.9-22.1-25.4-15.3-19.5 6.9-61.5 33.7-61 37zM922.9 473.6c-.7 3.3 11.8.8 24.7 1 7.4-8.8-24-4.3-24.7-1z"/><path fill="#24D595" d="M609 596.5c-56.4-38.3-38.4-128.4 22.2-133.3 35.9-2.9 34.5 43.3 68.8 35.7 34.3-7.6.9-62.5 48.4-73.6 48.2-11.3 41.8 97.7 92.3 93.1 35.4-3.2 41.8-50.5 73.8-32.7 32.4 18-13.2 71.2 13.1 82.5 19.1 8.1 23.5-11.1 43.9-11.1s27.9 23.9 0 39.4c0 0-102.7-13.3-189.2 4.8-108 22.5-173.3-4.8-173.3-4.8z"/><g fill="#84FFC3"><path d="M692.8 499.6c-26.2-.6-22.7-42.9-61.6-38.2-20.6 2.5-36.3 14.6-45.8 30.9 30.2-51.2 61.8 31.8 107.4 7.3zM785.2 499.9c18.2 46.4 52.3 38.2 82.9 4.6-7.3 7-15.7 12.8-27.4 12.8-50.7 0-39.5-104.8-92.3-92.1-7.4 1.8-12.9 4.6-16.9 8.2 22.6-4.4 39.7 30.9 53.7 66.5zM985.7 586.7c13.2-14.3 2.3-30.6-14.2-30.6-20.4 0-24.9 20.2-43.9 12.1-9.4-4-9.4-13.3-7.1-24.4-11.2 32 5 32.3 32.5 21.7 27.5-10.6 32.4 8.8 18.5 31 5.2-3.3 9.9-6.6 14.2-9.8zM922.4 535.9c4.8-18.7 11.6-40.2-7.5-50.8-20.3-11.3-30.6 2.9-43.1 15.8 27-24.4 54.5 6.1 50.6 35z"/></g><path opacity=".2" fill="#24D595" d="M1112.1 560.1c-.8 3.3-14-2.6-36.4-7.8-22.1-5.2-15.2-6.7-51.6-22.5 8.5-2.4 34.6 4.8 55.5 13.5 20.8 8.6 33.3 13.5 32.5 16.8zM1114.6 545.1c-.5 3.3-12.6-1.2-24.8-5.5-3.8-10.9 25.3 2.2 24.8 5.5z"/><path fill="#005779" d="M1119.4 518.1l-14 4.2s-1.5 3.4 1.3 5.1l4.7-.8c-.1-.1 9.9-4.2 8-8.5z"/><path fill="#FFF784" d="M1107.1 527.1l3.6-1-.1 32.5-30.8-9.8 3.7-13c20.8 8.3 23.6 16.4 23.6 16.4-4.2-10.7 0-25.1 0-25.1zM1120.2 514.2l3.7.3-9.3 30.2-30.5-10.9 3.4-11.9c10.4 3 25.1 16.2 25.1 16.2-.2-11.6 7.6-23.9 7.6-23.9zM1087.5 521.8c-9.8-2.5-12.9-2.5-12.9-2.5l-3.8 13.3s-.6 13.2 9 16.2c0 0 7.6 1.9 11.5-11.9 3.9-13.8-3.8-15.1-3.8-15.1z"/><path fill="#005779" d="M1133.5 506l-14.1 4.1s-1.5 3.4 1.3 5.1l4.7-.8c.1 0 10-4.1 8.1-8.4z"/><path fill="#FFF3C1" d="M1039.3 528.4l-19.7-5.6-.9 1.9 22.9 10.3 6.1-18.7c.8-8.6-1.6-15.6-4.5-12.1-4.2 5.2-3.9 24.2-3.9 24.2zM1030.8 503.1s-.3 4.3 2.2 6.9 5.3 4 6.3 3c1-.9-.2-3.8-2.7-6.5-2.5-2.6-4.7-4.5-4.7-4.5l-1.1 1.1z"/><path fill="#0E1414" d="M1035.5 514.2l-19.2 9.7c-1.1.6-2.4.1-2.8-1.1l-5.9-16.9c-.4-1.2.2-2.4 1.4-2.8l20.4-6.1c.8-.2 1.7.3 2 1.3l4.7 13.5c.5.9.1 2-.6 2.4z"/><path fill="#FF6152" d="M1034.6 513l-18.4 9c-.3.1-.6 0-.7-.3l-5.7-16.3c-.1-.3.1-.6.3-.7l19.4-6.1c.2-.1.4.1.5.3l4.7 13.5c.2.2.1.5-.1.6z"/><g fill="#FFF3C1"><path d="M1007.2 520.7s2.1 3.8 5.6 4.6 6.6.4 6.9-1c.3-1.3-2.3-3.1-5.8-3.9-3.5-.8-6.4-1.1-6.4-1.1l-.3 1.4zM1019.7 524.3c.7-2.9-3.5-2.7-5.4-5.7 0 0-2.5 3.9 5.4 5.7z"/></g><path fill="#FFF3C1" d="M1037.4 511.1c.5-2.9-3.7-2.5-5.7-5.4-.1 0-2.3 4.1 5.7 5.4z"/><path fill="#08D0B7" d="M1049.2 515c-2.9 15.8-7.6 20-7.6 20l-2.6-4.1s-1.9-6.1-1.4-16.4c.6-10.3 13-7 11.6.5zM1042.2 529.9c-5.6-3.7-16.7-6.9-16.7-6.9l-1.3 5.8 17.4 6.2c.1 0 3-2.8.6-5.1zM1087.8 535.8c-2.6 9.1-8 14.2-8 14.2-19.8-5.6-40.9-39.6-40.9-39.6s2.4-5.4 5.8-8.7c0 0 3.8 3.8 8.2 1.3 4.4-2.5 3.7-6.2 3.7-6.2 13.2-.6 12.5 22.5 31.5 23.7-.1.1 2.2 6.2-.3 15.3z"/><path fill="#005779" d="M1062.1 523.1c6.2-1.4 14.3-8.8 11.8-12.7s3.3-6.5 2.4-10.8-5.7-4.2-3-8.2c2.1-3.2-3.2-5.1-3.6-8.4-1-8.5-10.3-14.7-19.1-12.7s-14.6 11.6-11.8 19.7c1.1 3.1-2.9 7.1.4 9.1 4.1 2.5-.2 4.4.8 8.7 1 4.3 7.4 4.1 6.8 8.8-.8 4.6 9 7.9 15.3 6.5z"/><path fill="#2912A7" d="M961.1 482.5l-1-9.1-.2-2-.9-11.9s-14.5-.2-31.1-.4c0 0-1.4 1.1-1 6.2.4 5.1 2 6.6 2 6.6l12.8.3.1 1.9-12.9.1s-1.4 1.7-1 6.8c.4 5.1 2 5.9 2 5.9 19.4-1.1 31.2-4.4 31.2-4.4z"/><path fill="#EBC7C1" d="M922.5 443.1l-3.5-.3 3.9 26c.3 2.1 4 3.7 6.1 3 0 0 1.2-2.2.3-6.6-2-9.6-6.8-22.1-6.8-22.1zM939.5 457.5l-2.8-2.1-10.5 24.1c-.9 2 .4 5.2 2.4 5.7 0 0 3.3-1.2 4.9-5.4 3.5-9.2 6-22.3 6-22.3z"/><path fill="#08D0B7" d="M934.4 445.2l8.8 10.7s-.6 3.5-3.7 3.3l-3.2-3.1s-5.7-8.5-1.9-10.9zM908.3 441.4l13.8-1.3s2.5 2.4.6 4.9l-4.4.9c0 .1-10.2 0-10-4.5z"/><path fill="#005779" d="M1008.1 442.8c8.7-1.9 15.6 5 15.6 5l-9.4 20.8s-5.2-8.5-12.8-9.2c-.5 0-1-.4-1.4-.8-1.4-2-4.2-5.8-8.6-5.3l6.3-13.9c6.2-1.8 10.3 3.4 10.3 3.4z"/><path fill="#fff" d="M1014 465.5s-5.1-8.1-12.7-7.7l7.5-16.7c8.4-2.2 14.1 4.5 14.1 4.5l-8.9 19.9zM1001.3 457.8s-3.3-6.4-8.3-5.6l6.1-13.6c5.8-2.5 9.7 2.5 9.7 2.5l-7.5 16.7z"/><path stroke="#DBE0DF" stroke-linecap="round" stroke-miterlimit="10" fill="none" d="M1007.9 443.2l-5.6 12.6"/><path fill="#EBC7C1" d="M973 440.1c6.9-5.7 5.7 2.4 9.6-5.6 1.6-3.2 2.4 5.6 6.2 9.6 2 2.1-5 4.3-7.9 5.1-8.6 2.4-15.1-3.1-7.9-9.1z"/><path fill="#FF7353" d="M945.9 472.5c2 8.7 6.9 13.8 6.9 13.8 19-4.3 37.6-27.7 38.4-33.7 2-14-6.8-6.9-10.8-9.4-4-2.5-2-5.1-2-5.1-9.5-2.4-14 19.8-32 20 0 0-2.4 5.7-.5 14.4z"/><path fill="#EBC7C1" d="M978.3 428.4c-.8 9.4 6.5 13.1 10.7 13.5 4.2.4 12.1-2 12.9-11.4.6-7.2-3.5-13.5-10.7-14.1-7.2-.6-12.3 4.8-12.9 12z"/><path fill="#FFFB84" d="M977.9 428.2c.6 6.4 11.6 8.4 11.6 8.4s11.2 0 12.9-6.2c.9-3.5.7-7.3-.4-10.7-8.4-.7-4.8-7.8-9.4-8.2-8.3-.7-15.4 8.4-14.7 16.7zM982 417.5c7 7.4 17.1 4.2 19.5-3.8-4.9-4.7-16-6.7-19.5 3.8zM982 417.4c4.5 8.9 17.2 10.2 23.6 4.4-3.3-5.9-14.9-11.9-23.6-4.4z"/><path fill="#EBC7C1" d="M987.9 445.9c-9.1 3.3-12.5 23.8-2.3 13.5 5.9-5.9 2.3-13.5 2.3-13.5zM992.1 467.8l18.9-4.4.8 1.8-22.2 8.6-4.9-17.9c-.4-8.1 2.2-12.6 4.8-9.1 3.7 5.1 2.6 21 2.6 21z"/><g fill="#EBC7C1"><path d="M1022.9 462s-2.2 3.5-5.6 4.1c-3.4.6-6.3 0-6.5-1.3s2.3-2.8 5.7-3.4c3.4-.6 6.1-.8 6.1-.8l.3 1.4zM1010.8 464.8c-.5-2.7 3.5-2.4 5.4-5.2 0 .1 2.2 3.9-5.4 5.2z"/></g><path fill="#03807B" d="M496.9 402.7c15.3-52.9 37.5-94.2 60-87.2 22.4 7-8.2 90.7.3 122.3s6.9 47.2-37.8 41.3-22.5-76.4-22.5-76.4z"/><path fill="#21AA9A" d="M557.9 314.6c-11.1-3.5-22.4 5.1-32.8 21 20.7-31.1 38.2-18.5 32.1 9.9-6.1 28.3-23.8 67.4-10 98.7 13.8 31.3-.3 34-11.9 36.2 29.8.2 32.2-15.1 24.8-42.5-8.5-31.7 20.2-116.3-2.2-123.3z"/><path stroke="#24D595" stroke-width="4" stroke-linecap="round" stroke-miterlimit="10" d="M530.7 501.1c-14.9-72.3 4.6-124.8 4.6-124.8" fill="none"/><path fill="#24D595" d="M2012.4 319.1c-17.6-61-44.4-109.7-70.3-101.6-25.9 8.1 11.1 105.7 1.3 142.2-9.8 36.5-8.5 54.5 43.1 47.7 51.7-6.8 25.9-88.3 25.9-88.3z"/><g fill="#84FFC3"><path d="M1956.6 218.6v-.1zM1990.4 406.7c-23.4 3.8-59.6 2.1-38.1-36.7 21.6-38.8-6.8-81.8-13.4-108-5.7-22.8-.6-45.6 11.7-45.2-2.9-.4-5.7-.2-8.6.7-25.9 8.1 7.2 105.7-2.6 142.2-9.8 36.5-4.7 54.5 47 47.7 1.5-.2 2.8-.4 4-.7z"/></g><path stroke="#1B8B7F" stroke-width="4" stroke-linecap="round" stroke-miterlimit="10" d="M1979.2 451.3c17.1-83.4-10.9-162.6-10.9-162.6" fill="none"/><path fill="#03807B" d="M2171.6 411.6c-2.4-37.3-11.6-68.7-27.6-67.3-15.9 1.4-9.2 61.7-19.4 81.4-10.2 19.7-9.6 30.7 21 33.3 30.5 2.7 26-47.4 26-47.4z"/><g fill="#21AA9A"><path d="M2152.2 346.8zM2147.9 459.2c-13.9-.8-34.5-6.3-17.2-25.9 17.3-19.6 6.4-47.9 6-63.8-.4-13.8 5.4-26.3 12.5-24.5-1.6-.6-3.3-.9-5-.7-15.9 1.4-9.2 61.7-19.4 81.4-10.2 19.7-9.6 30.7 21 33.3.5.2 1.3.2 2.1.2z"/></g><path stroke="#24D595" stroke-width="4" stroke-linecap="round" stroke-miterlimit="10" d="M2135.8 483.4c20.4-45.7 14.3-94.8 14.3-94.8" fill="none"/><path fill="#24D595" d="M2183.8 493.2c39.3-39.3-4.6-101.9-49.7-57.4-19.3 19-39.9 7.2-33-11.8 14.3-39.7-42.3-48.3-71.1-35.1-61.2 28-21.7 81.2-44.2 87.5-17.6 4.9-14.4-27.4-36.8-23.2-14.6 2.8-17 21-4.6 38.7 0 0 16.6 12.9 102.9 0 86.3-12.8 136.5 1.3 136.5 1.3z"/><g fill="#84FFC3"><path d="M2133.8 435.5c-7.2 7.4-14.7 10.2-20.8 9.9 3.1 3.9 9.4 4.3 16.9-2 10.6-9 27.6-25.5 47.6-21.6-12.5-4.7-28.3-2-43.7 13.7zM2029.9 388.9c-64.2 29.8-21.7 81.2-44.2 87.5-.5.1-1 .2-1.4.3 7.5 1.6 14.1-2.4 13.9-11.7-.4-15.8 5.7-62.1 31.7-76.1zM1969.2 465.1c-4.1-6.9-9-14.1-20.2-12.8-18.9 2.2-18.3 24.5-4.6 39.7-15.3-28.6 14.9-43.2 24.8-26.9z"/></g><path fill="#03807B" d="M2227.7 597.6c-6.8-2.8-25.3-9.4-46.7-8.7-12.3.4-23.4 3.1-31.9 5.9 8-4.1 17.7-10.2 26.6-18.7 15.5-14.8 23.7-32.6 26.4-39.5.5-1.2-.6-2.3-1.8-1.9-6.9 2.5-25 10-40.5 24.8-4.7 4.6-8.8 9.4-12.2 14.1 2.1-5.4 3.9-11.5 5.1-17.9 4-21.1.4-40.3-1.3-47.5-.3-1.2-1.9-1.5-2.6-.5-4.2 6.1-14.6 22.6-18.6 43.7-1.4 7.3-1.9 14.5-1.8 20.9-2.4-5.4-5.4-11.1-9.2-16.6-12.1-17.7-28.2-28.8-34.5-32.7-1.1-.7-2.4.3-2.2 1.5 1.3 7.3 5.7 26.4 17.7 44.1 4.9 7.3 10.6 13.4 15.9 18.4-6.3-3.7-13.8-7.4-22.2-10-20.4-6.5-40-5.2-47.3-4.4-1.2.1-1.7 1.7-.8 2.5 5.5 4.9 20.7 17.3 41.2 23.8 21.3 6.8 41.7 5.1 48.2 4.3 6.9 2.8 25.3 9.3 46.6 8.6 21.4-.7 39.4-8.4 46.1-11.6 1-.5.9-2.1-.2-2.6z"/><path fill="#06AD90" d="M2202 598.4c-5.6-2.2-18.7-6.6-33.8-6.1-9.1.3-17.3 2.3-23.6 4.4 5.9-3 13.1-7.5 19.7-13.8 10.9-10.5 16.9-22.9 19.2-28.4.5-1.2-.7-2.3-1.8-1.9-5.6 2.1-18.3 7.6-29.2 18.1-3.5 3.4-6.5 6.9-9 10.4 1.5-4 2.9-8.5 3.8-13.3 2.8-14.8.5-28.4-.8-34.3-.3-1.2-1.9-1.5-2.6-.5-3.4 5-10.5 16.8-13.3 31.6-.9 4.5-1.2 8.8-1.3 12.9-1.5-3.1-3.3-6.3-5.5-9.5-8.5-12.5-19.7-20.5-24.8-23.7-1.1-.7-2.4.3-2.2 1.5 1.1 5.9 4.5 19.3 13 31.8 3.7 5.4 7.8 9.9 11.8 13.6-4.7-2.7-10.2-5.4-16.4-7.4-14.4-4.6-28.2-3.9-34.2-3.4-1.3.1-1.7 1.7-.8 2.5 4.5 3.9 15.4 12.4 29.8 17 15.2 4.8 29.8 3.9 35.1 3.2 5.6 2.2 18.7 6.5 33.7 6.1 15.1-.5 27.9-5.7 33.3-8.2 1.1-.5 1.1-2.1-.1-2.6z"/><path fill="#24D595" d="M1509.8 380.9c-27-27 9.4-69.5 36.5-38.8 12.3 14 27.6 6.3 22.5-7.9-9.4-26.1 29.1-32.4 48.9-23.2 44.1 20.5 14.9 54.9 30.4 59.2 12.1 3.4 7-14.1 22.5-16.6 12.9-2.1 25.4 16.8 16 27.3 0 0-49.3 18.4-110 0-36-11-66.8 0-66.8 0z"/><ellipse transform="matrix(1 -.022 .022 1 -5.346 33.092)" fill="#FF9084" cx="1474" cy="255.1" rx="7.7" ry="4"/><ellipse transform="matrix(1 -.022 .022 1 -5.177 33.512)" fill="#fff" cx="1492.8" cy="247.8" rx="9.7" ry="4.6"/><ellipse transform="matrix(1 -.022 .022 1 -5.092 32.88)" fill="#fff" cx="1464.6" cy="243.7" rx="9.7" ry="3.9"/><ellipse transform="matrix(1 -.022 .022 1 -5.394 32.739)" fill="#fff" cx="1458.2" cy="257.1" rx="7.4" ry="2.3"/><ellipse transform="matrix(1 -.022 .022 1 -5.476 33.312)" fill="#fff" cx="1483.7" cy="261" rx="7.4" ry="2.3"/><path stroke="#FF9084" stroke-linecap="round" stroke-linejoin="round" stroke-miterlimit="10" fill="none" d="M1493.1 248v2.1l-34.8 10.2-.1-2.7M1483.7 260.8l.1 2.8-19.1-16.9-.1-2.1"/><g fill="#84FFC3"><path d="M1528.2 331.5c-20-3.4-35.3 19.9-25 40.2-4.6-15 10.3-38.6 25-40.2zM1670.6 353.6c-6.4 1.1-9.3 4.7-11.3 8.3 6.5-9.6 26.7-7.7 30.7 10.2-.1-9.6-9.6-20.1-19.4-18.5zM1658.1 364.2c-2.2 4.2-3.9 7.7-10 6-1.9-.5-3.1-1.5-3.9-2.9 2.9 7.3 10.1 6.5 13.9-3.1zM1643.1 360.4V359c0 .5-.1.9 0 1.4zM1637.3 325c-3.9-5.4-10-10.5-19.5-14.9-19.8-9.2-58.7-3.1-48.9 24.1-8.8-25.7 44.9-34 68.4-9.2zM1546.4 342.1c-1.6-1.6-3.2-3-4.8-4.3 16.1 25 34.8 14.5 27.7-2.2 3.2 12.2-10.4 19.3-22.9 6.5z"/></g><path fill="#2912A7" d="M1549.2 325.2c8 2.8 7.1 10.5 3.5 15.5-4 5.5-10.6 7.3-10.6 7.3-2.5-3-2.3-8.6-2.3-8.6s-5.3 1.8-8.9.3c0 0-.2-6.8 3.9-12.3 3.7-5 10.7-8.1 15.8-1.3l-1.4-.9z"/><path fill="#FFEBEA" d="M1550.3 338.3c-3.7 5-9 3.6-11.2 2-2.2-1.6-5.1-6.3-1.4-11.3 2.8-3.9 7.6-5.2 11.5-2.3 3.8 2.8 4 7.7 1.1 11.6z"/><path fill="#F29EAE" d="M1541.9 331.3l-3.2 1.5 2.8 2.1z"/><path fill="#2912A7" d="M1551.1 338.2c2.8-4.6 2.4-9.4-1.4-12.2-3.8-2.8-8.5-1.8-12 2.3l13.4 9.9z"/><path fill="#FFEBEA" d="M1542 342l.3-3.6c.1-.6-.4-1.1-.9-1.2-.6-.1-1.2.3-1.3.8l-1 3.5c-.2.8-1 1.4-1.8 1.3-4-.1 1.3 10 1.3 10l10.4-5s-1.9-2.6-5.7-3.9c-.9-.2-1.4-1-1.3-1.9z"/><path fill="#fff" d="M1524.8 407.9l8.4-.8s.2-1.4-1.2-2.4l-1.7-.1s-6.1 1.2-5.5 3.3z"/><path fill="#334040" d="M1532 405.4l-1.9.1-1.5-16 .6-18.7h6.8c-1.3 13-3.4 18.7-3.4 18.7 1.2 5-.6 15.9-.6 15.9z"/><path fill="#fff" d="M1539.6 413c-.7.8-3 .6-3 .6s-.8-2.2 3.2-4.5c0 0 1.5-.1 2-.2.7.4.6 1.6.6 1.6s-2.1 1.7-2.8 2.5z"/><path fill="#334040" d="M1543.3 373.3c.1 7.4-2.8 18.9-2.8 18.9 2 4.9 1.4 16.7 1.4 16.7l-2 .2-2.7-16.6-1.6-18.6 7.7-.6zM1542 373.9c-.1-5.8-.9-7.6-.9-7.6H1531s-.8 1.7-.9 7.6c0 0 .1 4.5 5.9 4.5s6-4.5 6-4.5z"/><path fill="#FFEBEA" d="M1522.5 357.3s3.9-5.1 6.2-8.2c2.4-3.1 6.3-4.3 5.7-1.7-.8 3.8-8.1 9.5-8.1 9.5-2.2 2-3.8.4-3.8.4z"/><path fill="#FFFB84" d="M1529.8 348.3s2.2 1.8 6.5 1.6l.5-6.9c-5.9-.3-7 5.3-7 5.3z"/><path fill="#FF6152" d="M1528.8 371.7c.6-7.6 2.8-11.2 3.1-17.9.3-6.4 2.9-11.1 5.3-10.9 0 0-.3 2.5 2.6 3s4.6-2 4.6-2c2.5 1.1 3.9 2.3 3.9 2.3.2 8.1-5.1 16.8-4.7 27.8 0-.1-10.3 3-14.8-2.3z"/><path fill="#FFEBEA" d="M1522.5 357.3l4.6 4.4.8-1.4s-.1-.8-1.9-3.2c-1-1.5-2.5-.8-3.5.2zM1529.8 365.6s-2.2-.7-2.6-2.1c-.5-1.5-.2-2.9.5-3.1.8-.2 1.8.8 2.2 2.3.5 1.5.7 2.8.7 2.8l-.8.1zM1546.1 362.4c-3.1-.8-7.4.6-7.4.6v1.5l10.4.4.7-10.1c-.3-5-1.6-7.5-3-5.2-2 3.4-.7 12.8-.7 12.8zM1532.4 366.6s2.4.9 4.2-.1c1.9-.9 3.1-2.3 2.7-3s-2.2-.5-4 .4c-1.9.9-3.3 1.9-3.3 1.9l.4.8z"/><path fill="#334040" d="M1534 366.4l-7.4-2.4c-.5-.1-.5-.8 0-1l3.3-1.4c.2-.1.5-.1.7 0l7.4 2.4c.5.1.5.8 0 1l-3.3 1.4c-.2.1-.4.1-.7 0z"/><path stroke="#334040" stroke-width=".5" stroke-linecap="round" stroke-miterlimit="10" fill="none" d="M1524.6 367.1l6.1-2.5"/><path fill="#FFEBEA" d="M1527.6 360.3c1.6-.5 1.6 1.3 3.3 1.9 0 .1-2.2 1.5-3.3-1.9zM1539.4 363.5c-.8-1.5-2.6.2-4.5-.4-.1 0 .4 2.7 4.5.4z"/><path fill="#FFFB84" d="M1548.3 346.2s2.2 1.7 3.1 6l-6.6 2.1c-1.8-5.7 3.5-8.1 3.5-8.1z"/><path fill="#24D595" d="M1823.7 614.7c-12.6 33.9-94.8-63.3-119.3 17.4-11 36.4-46.6 30.1-60.7 20.9-10.7-7-34-1.4-37.9 17h390.5c81.4-138.7-127.9-175.2-172.6-55.3z"/><path fill="#84FFC3" d="M1823.7 614.7c-12.6 33.9-94.8-63.3-119.3 17.4-7.6 25-26.8 29.9-42.6 27.4 46.9 15.4 61.7 1.3 72-19 10.4-20.3 14.9-35.4 64.1-14.1 124.8 54.1 94.1-92.7 185.7-70.4-47-28.9-133.1-13.3-159.9 58.7zM1605.8 670h13.1c3.9-13.2 10.8-18.5 30.7-13.9-2.2-.9-4.2-2-5.9-3.1-10.8-7-34-1.4-37.9 17z"/><path fill="#03807B" d="M937.7 282.2c31.5 93.5-13 142.4-101 136.6-87.9-5.8-82.3-92.9-7.7-211.3 26.9-42.6 77.2-89.3 110.7-71.1 53.2 29.1-17.5 99.8-2 145.8z"/><g stroke="#24D595" stroke-width="4" stroke-linecap="round" stroke-miterlimit="10" fill="none"><path d="M872.2 473.2c-43.7-135 9.2-230.5 9.2-230.5M854.9 368.3c39.6-7.3 38.2-40.5 38.2-40.5"/></g><path fill="#CDFAB7" d="M453.7 570.9c9.3-10.6 13.4-21.2 12.1-31.6-1.9-15.4-14.7-24.5-15.2-24.9-.9-.6-2.2-.4-2.8.5s-.4 2.2.5 2.8c.1.1 11.9 8.4 13.5 22.1 1.1 9.2-2.6 18.8-11.1 28.5-9.1 10.3-14.6 22.4-16.5 35.7-12.5-.2-22.1-3.7-28.6-10.5-9.5-9.8-9.2-23.2-9.2-23.3 0-1.1-.8-2-1.9-2.1-1.1 0-2 .8-2.1 1.9 0 .6-.3 15.2 10.3 26.2 7.2 7.5 17.7 11.4 31.1 11.7-.5 5.2-.4 10.5.3 15.9 1.8 15.3 7.9 31.4 17.5 46.1h4.8c-29.2-41.9-20.1-79.2-2.7-99zm87.3-8.3c-.8 0-19.4.4-29.8 12.5-5.6 6.5-7.8 15.1-6.3 25.6 2.3 17-8.3 23-20.6 30.1-13.1 7.5-27.8 15.9-27.5 39.2h4c-.2-20.9 12.8-28.4 25.5-35.7 12.4-7.1 25.2-14.5 22.5-34.1-1.3-9.3.6-16.8 5.4-22.5 9.3-10.8 26.7-11.1 26.9-11.1 1.1 0 2-.9 2-2-.1-1.1-1-2-2.1-2zm-207.8 76.2c-.2-.1-.3-.1-.5-.2 5.3-7.9 7.1-15.7 5.6-23.2-2.7-12.9-14.8-20-15.3-20.3-1-.5-2.2-.2-2.7.7-.5 1-.2 2.2.7 2.7.1.1 11.1 6.4 13.4 17.6 1.4 6.6-.5 13.7-5.6 21-12.3-4.3-24.4-9.1-32.4-17.3-9.9-10.1-12.1-24.6-6.8-44.3.3-1.1-.3-2.2-1.4-2.5-1.1-.3-2.2.3-2.5 1.4-13 47.4 18.4 58.3 46.1 68 18 6.3 35.2 12.3 39.5 27.5h4.1c-4.1-17.9-23.4-24.6-42.2-31.1z"/><path fill="#FF9084" d="M457.4 584.1c-5 0-9 4-9 4s4 3.9 9 3.9 9-4 9-4-4-3.9-9-3.9zm69.8-7.1c-4.9-.8-9.6 2.4-9.6 2.4s3.3 4.6 8.2 5.4c4.9.8 9.6-2.4 9.6-2.4s-3.2-4.6-8.2-5.4zm15.4-22.5c2.8-4.1 1.8-9.7 1.8-9.7s-5.5 1.1-8.3 5.2c-2.8 4.1-1.8 9.7-1.8 9.7s5.5-1.1 8.3-5.2zM357.3 662.3c-5-.2-9.2 3.6-9.2 3.6s3.2 3.4 7.5 4.1h3.6c4-.7 7-3.4 7-3.4s-4-4.1-8.9-4.3zm187.5-90.2c-4.1-2.8-9.7-1.8-9.7-1.8s1.1 5.5 5.2 8.3 9.7 1.8 9.7 1.8-1.1-5.5-5.2-8.3zm-263.3 41.6s-3-4.8-7.9-5.9c-4.9-1.1-9.7 1.8-9.7 1.8s3 4.8 7.9 5.9 9.7-1.8 9.7-1.8zm1.9-35s.8-5.6-2.1-9.6c-2.9-4-8.5-5-8.5-5s-.8 5.6 2.1 9.6c2.9 4.1 8.5 5 8.5 5zm-14.2 8.1c4 3 9.6 2.4 9.6 2.4s-.8-5.6-4.8-8.6-9.6-2.4-9.6-2.4.9 5.6 4.8 8.6zm.1 15.6c4.5 2.2 9.8.5 9.8.5s-1.8-5.3-6.3-7.6-9.8-.5-9.8-.5 1.9 5.4 6.3 7.6zm8.9 17.5c-5-.1-9.1 3.7-9.1 3.7s3.9 4.1 8.9 4.2c5 .1 9.1-3.7 9.1-3.7s-4-4.1-8.9-4.2zm234.5 9.8c-4.6-1.8-9.8.4-9.8.4s2.3 5.2 7 7c4.6 1.8 9.8-.4 9.8-.4s-2.3-5.2-7-7zm8.2-39.9c-4.8 1.4-7.5 6.4-7.5 6.4s5 2.6 9.8 1.2 7.5-6.4 7.5-6.4-5-2.6-9.8-1.2zm-86.5 47.6s-2.8-4.9-7.6-6.2c-4.8-1.3-9.8 1.4-9.8 1.4s2.8 4.9 7.6 6.2c4.9 1.3 9.8-1.4 9.8-1.4zm39.4-63.4s-4.2-3.8-9.2-3.6c-5 .2-8.9 4.3-8.9 4.3s4.2 3.8 9.2 3.6c5-.2 8.9-4.3 8.9-4.3zm5.1 55.3s1-5.6-1.8-9.7-8.3-5.2-8.3-5.2-1 5.6 1.8 9.7 8.3 5.2 8.3 5.2zm41.2-25c-4.7 1.5-7.4 6.5-7.4 6.5s5.1 2.5 9.8 1c4.7-1.5 7.4-6.5 7.4-6.5s-5-2.6-9.8-1zm-2 13.6c-4.9-.6-9.5 2.8-9.5 2.8s3.5 4.4 8.4 5.1 9.5-2.8 9.5-2.8-3.4-4.4-8.4-5.1zm-2.6-57.2c.5-5-3-9.4-3-9.4s-4.3 3.6-4.8 8.6 3 9.4 3 9.4 4.3-3.6 4.8-8.6zm13.3-5.7c1.5-4.8-1.1-9.8-1.1-9.8s-5 2.7-6.4 7.5c-1.5 4.8 1.1 9.8 1.1 9.8s4.9-2.8 6.4-7.5zm-174.5 99.1s-5.1-2.5-9.8-1c-4.7 1.5-7.4 6.5-7.4 6.5s5.1 2.5 9.8 1c4.8-1.5 7.4-6.5 7.4-6.5zM342 628.8c-2.5 4.3-1 9.8-1 9.8s5.4-1.6 7.9-5.9c2.5-4.3 1-9.8 1-9.8s-5.5 1.6-7.9 5.9zm4.2-29.4c2.1-4.5.2-9.8.2-9.8s-5.3 2-7.3 6.6c-2.1 4.5-.2 9.8-.2 9.8s5.2-2 7.3-6.6zm-16.7 48.2c-4.6 1.9-6.8 7.1-6.8 7.1s5.2 2.1 9.8.2c4.6-1.9 6.8-7.1 6.8-7.1s-5.2-2.1-9.8-.2zm-25.6-44.5s4.2 3.8 9.2 3.5 8.8-4.4 8.8-4.4-4.2-3.8-9.2-3.5c-5 .2-8.8 4.4-8.8 4.4zM293.2 563c.7-4.9-2.7-9.5-2.7-9.5s-4.5 3.5-5.1 8.4 2.7 9.5 2.7 9.5 4.4-3.4 5.1-8.4zm11.8 18.8s-5.5-1.2-9.7 1.4c-4.2 2.6-5.6 8.1-5.6 8.1s5.5 1.2 9.7-1.4c4.3-2.6 5.6-8.1 5.6-8.1zm52.8 63.3s4.4-3.5 5-8.5c.6-4.9-2.8-9.4-2.8-9.4s-4.4 3.5-5 8.5 2.8 9.4 2.8 9.4zm-15.2-28.7s5.6 1 9.7-1.8 5.3-8.3 5.3-8.3-5.6-1-9.7 1.8c-4.2 2.7-5.3 8.3-5.3 8.3zm-23-22.8s.8-5.6-2.1-9.6c-2.9-4-8.5-5-8.5-5s-.8 5.6 2.1 9.6c2.9 4.1 8.5 5 8.5 5zm-4.1 26.9s-.4 5.6 2.9 9.4c3.2 3.8 8.9 4.3 8.9 4.3s.4-5.6-2.9-9.4c-3.3-3.8-8.9-4.3-8.9-4.3zm15.7-23.4s3.8-4.2 3.6-9.2c-.2-5-4.3-8.9-4.3-8.9s-3.8 4.2-3.6 9.2c.2 5 4.3 8.9 4.3 8.9zM313 613s3.4 4.5 8.3 5.3 9.5-2.6 9.5-2.6-3.4-4.5-8.3-5.3-9.5 2.6-9.5 2.6zm-11.9-36.5c3.9-3.1 4.5-8.8 4.5-8.8s-5.6-.5-9.5 2.6c-3.9 3.1-4.5 8.8-4.5 8.8s5.7.5 9.5-2.6zm-2.1 61.1c-4.7 1.7-7.1 6.8-7.1 6.8s5.2 2.3 9.8.6 7.1-6.8 7.1-6.8-5.1-2.3-9.8-.6zm-6-37.9c-2.7 4.2-1.7 9.7-1.7 9.7s5.5-1.2 8.3-5.3c2.7-4.2 1.7-9.7 1.7-9.7s-5.6 1.2-8.3 5.3zm3.4 31.5s-4.9-2.8-9.7-1.5c-4.8 1.3-7.7 6.1-7.7 6.1s4.9 2.8 9.7 1.5c4.8-1.3 7.7-6.1 7.7-6.1zm12.4-5.9s2.7-5 1.3-9.8c-1.4-4.8-6.3-7.6-6.3-7.6s-2.7 5-1.3 9.8c1.4 4.8 6.3 7.6 6.3 7.6zm6.2 17.1c-4.8 1.5-7.5 6.4-7.5 6.4s5 2.6 9.8 1.1c4.8-1.5 7.5-6.4 7.5-6.4s-5-2.6-9.8-1.1zm122.1 10.4s-2.3-5.1-7-6.9c-4.6-1.8-9.8.4-9.8.4s2.3 5.1 7 6.9c4.6 1.9 9.8-.4 9.8-.4zm-6.6-51.5s1.9-5.3-.1-9.8-7.3-6.6-7.3-6.6-1.9 5.3.1 9.8 7.3 6.6 7.3 6.6zm-9.8 21.8c4.1 2.8 9.7 1.9 9.7 1.9s-1.1-5.5-5.2-8.4c-4.1-2.8-9.7-1.9-9.7-1.9s1.1 5.6 5.2 8.4zm-5.1-46.4s-5.2 2.1-7.2 6.7 0 9.8 0 9.8 5.2-2.1 7.2-6.7c2-4.5 0-9.8 0-9.8zm-6.8-5c1.6-4.7-.8-9.8-.8-9.8s-5 2.6-6.6 7.3c-1.6 4.7.8 9.8.8 9.8s5-2.6 6.6-7.3zm24.6-48.1s3.2 4.7 8.1 5.6c4.9 1 9.6-2.1 9.6-2.1s-3.2-4.7-8.1-5.6c-4.9-1-9.6 2.1-9.6 2.1zM398 607c-4.2 2.7-5.5 8.2-5.5 8.2s5.5 1.1 9.7-1.5c4.2-2.7 5.5-8.2 5.5-8.2s-5.5-1.2-9.7 1.5zm39.1-23.1s.2-5.6-3.2-9.3c-3.4-3.7-9-4-9-4s-.2 5.6 3.2 9.3c3.3 3.7 9 4 9 4zm6.3-24.7c4 3 9.6 2.4 9.6 2.4s-.8-5.6-4.8-8.6-9.6-2.4-9.6-2.4.8 5.6 4.8 8.6zm-8.7-47.8c4.2 2.6 9.8 1.4 9.8 1.4s-1.4-5.5-5.6-8.1c-4.2-2.6-9.8-1.4-9.8-1.4s1.3 5.5 5.6 8.1zm-61.3 123.5s-5.1 2.5-6.7 7.2c-1.7 4.7.7 9.8.7 9.8s5.1-2.5 6.7-7.2c1.7-4.7-.7-9.8-.7-9.8zM463.5 508c-.1-5-4-9-4-9s-3.9 4.1-3.9 9.1c.1 5 4 9 4 9s3.9-4.1 3.9-9.1zm-72.4 95.8c4.7-1.7 7.1-6.8 7.1-6.8s-5.1-2.3-9.8-.6-7.1 6.8-7.1 6.8 5.2 2.3 9.8.6zm79.1 65.7c-.5.1-.9.3-1.3.5h8.8c-1.9-.6-4.7-1.2-7.5-.5zm84.4-109.1c-5 .2-8.8 4.4-8.8 4.4s4.2 3.7 9.2 3.5c5-.2 8.8-4.4 8.8-4.4s-4.3-3.8-9.2-3.5zm-173.4 16.7c4.6 1.9 9.8-.2 9.8-.2s-2.2-5.2-6.8-7.1c-4.6-1.9-9.8.2-9.8.2s2.2 5.1 6.8 7.1zm13.4 11.1s-3.8-4.2-8.8-4.5c-5-.3-9.2 3.4-9.2 3.4s3.8 4.2 8.8 4.5c4.9.3 9.2-3.4 9.2-3.4zm-11.5 65.6c3-4 2.3-9.6 2.3-9.6s-5.6.8-8.6 4.8-2.3 9.6-2.3 9.6 5.6-.9 8.6-4.8zm-.3 5.2c-3.9 3.1-4.7 8.7-4.7 8.7s5.6.6 9.5-2.4c3.9-3.1 4.7-8.7 4.7-8.7s-5.5-.7-9.5 2.4zm11.4-92.8s2.8-4.9 1.6-9.7-6.1-7.8-6.1-7.8-2.8 4.9-1.6 9.7 6.1 7.8 6.1 7.8zm47.7-29.8s1.1 5.5 5.3 8.3 9.7 1.8 9.7 1.8-1.1-5.5-5.3-8.3c-4.1-2.8-9.7-1.8-9.7-1.8zm17.4 61.7s-5.1-2.4-9.8-.8c-4.7 1.6-7.3 6.7-7.3 6.7s5.1 2.4 9.8.8c4.7-1.6 7.3-6.7 7.3-6.7zm6.9 35.1c-.8-4.9-5.4-8.2-5.4-8.2s-3.2 4.6-2.4 9.6c.8 4.9 5.4 8.2 5.4 8.2s3.3-4.7 2.4-9.6zm19.3 11.5c-4.7-1.6-9.8.9-9.8.9s2.6 5 7.3 6.6 9.8-.9 9.8-.9-2.5-5-7.3-6.6zm-34.5-5.6s-3 4.8-1.9 9.7c1.1 4.9 5.8 8 5.8 8s3-4.8 1.9-9.7c-1.1-4.9-5.8-8-5.8-8zm13.9 20.8s4.2 3.8 9.1 3.7c5-.1 8.9-4.2 8.9-4.2s-4.2-3.8-9.1-3.7c-5 .1-8.9 4.2-8.9 4.2zm7.9-101.1c-5-.5-9.4 3-9.4 3s3.6 4.4 8.5 4.9 9.4-3 9.4-3-3.6-4.3-8.5-4.9zm-37.9 100.9c-4.9-.8-9.5 2.5-9.5 2.5s3.4 4.5 8.3 5.3c4.9.8 9.5-2.5 9.5-2.5s-3.4-4.5-8.3-5.3zm17.6-27.5c3.1-3.9 2.5-9.5 2.5-9.5s-5.6.7-8.7 4.6c-3.1 3.9-2.5 9.5-2.5 9.5s5.6-.7 8.7-4.6zm-11.9-11.9s5.6.8 9.6-2.1c4-2.9 5-8.5 5-8.5s-5.6-.8-9.6 2.1c-4 3-5 8.5-5 8.5zm-9.6-60.1s.7 5.6 4.6 8.7 9.5 2.5 9.5 2.5-.7-5.6-4.6-8.7-9.5-2.5-9.5-2.5zm37.3-21.5s5.4 1.5 9.8-.9 6-7.8 6-7.8-5.4-1.5-9.8.9-6 7.8-6 7.8zm14.2 77.6c2.5 4.3 7.9 5.9 7.9 5.9s1.4-5.5-1-9.8c-2.5-4.3-7.9-5.9-7.9-5.9s-1.4 5.5 1 9.8zm-6.1-71.9c-4.9 1-8 5.7-8 5.7s4.8 3 9.6 2 8-5.7 8-5.7-4.7-3-9.6-2zm1.5-31s-5.7 0-9.2 3.5c-3.6 3.5-3.7 9.1-3.7 9.1s5.7 0 9.2-3.5c3.6-3.5 3.7-9.1 3.7-9.1zm22.8 96.2s.2-5.6-3.2-9.3c-3.4-3.7-9-4-9-4s-.2 5.6 3.2 9.3 9 4 9 4zm4-31.1s1.5-5.5-1-9.8c-2.4-4.3-7.9-5.9-7.9-5.9s-1.5 5.5 1 9.8c2.4 4.3 7.9 5.9 7.9 5.9zm-3.3 13s.1-5.6-3.3-9.3c-3.4-3.6-9.1-3.9-9.1-3.9s-.1 5.6 3.3 9.3c3.4 3.6 9.1 3.9 9.1 3.9zm-1.8 46.5c-4.3-2.4-9.8-1-9.8-1s1.6 5.4 5.9 7.9c4.3 2.4 9.8 1 9.8 1s-1.5-5.5-5.9-7.9z"/><path fill="#24D595" d="M2351.6 581.5c-130.2 27.9-153.7-124.2-72.4-176.6 76-48.9 16.9-126.2 97.2-134.5 73.2-7.5 109.1 115.8 50.3 170-50 46.1 26.2 119.4-75.1 141.1z"/><path fill="#84FFC3" d="M2430.9 293.1c-15.1-14.9-32.4-25.9-54.5-23.7-80.3 8.3-23.1 84.6-99.1 133.5-77.6 50-61.8 194.6 56.6 181.5-53.6 5.1-108-38.2-77.5-116.3 27.2-69.6 80.1-57.4 80.1-123 0-73.8 54.5-91.3 94.4-52z"/><g stroke="#1B8B7F" stroke-width="4" stroke-linecap="round" stroke-miterlimit="10" fill="none"><path d="M2305.5 637.5c-30.8-150.1 68.1-251.2 68.1-251.2M2305.7 521.2s15.6 9.3 38.7-2.3M2316.5 483.1s-27-7.8-20.1-30.4"/></g><path fill="#03807B" d="M960.8 623.3c-7.8-.9-40.4-3.8-74.4 7.8-17.6 6-32.6 14.8-43.7 22.7 9.8-9.5 21.2-22.6 30.2-38.8 17.5-31.3 20.6-63.9 21.1-71.7 0-.7-.8-1.2-1.4-.8-6.4 4.5-32.6 24.2-50.1 55.5-4.9 8.7-8.6 17.5-11.5 25.8.6-8.8.6-18.3-.5-28.2-3.9-35.7-20.2-64-24.4-70.7-.4-.6-1.3-.5-1.6.2-2.6 7.4-12.5 38.6-8.6 74.3 1.2 11.2 3.7 21.8 6.6 31.1-5.9-6.8-12.7-13.6-20.6-20-27.9-22.5-59.6-31-67.2-32.8-.7-.2-1.3.6-1 1.2 3.4 7.1 18.5 36.1 46.4 58.6 10.4 8.3 21.2 14.7 31.2 19.6-10.8-2.6-23.2-4.6-36.5-4.7-35.9-.4-66 12.4-73.1 15.7-.7.3-.7 1.2 0 1.6.2.1.5.2.8.4h191c7.7-1.3 15.8-3.3 23.9-6.1 34-11.5 58.1-33.7 63.7-39.2.7-.5.4-1.4-.3-1.5z"/><path fill="#21AA9A" d="M940.7 135.5c-23.6-12.8-55.9 6.9-82.4 34.5 42.6-40.9 102-51.1 86.2 22.9s-35.4 72.1-22.1 125.2c13.3 53.1 16.4 80.1-36.8 97.3 55.2-13 80-59.1 55-133.3-15.6-45.9 53.3-117.6.1-146.6z"/><path fill="#B39F8B" d="M1625.2 501.4l-2.4-6.6c-.4-1.1-1.6-1.7-2.7-1.4-1.1.3-1.8 1.4-1.7 2.6l1.1 7c.3 1.6-.6 3.2-2.1 3.9-7.2 3.1-7.2 7.5-7.2 7.5l17.7 9 14.2-17.4s-5.4-3-13.2-2.2c-1.6.1-3.2-.9-3.7-2.4z"/><path fill="#005779" d="M1620.5 468.3c-6.2-3.8-6.7 2.1-6.7 2.1-3.8-5.7-22.8 22.9-22.8 22.9s14 12.1 28.4 3.6c14.4-8.6 8-24.4 1.1-28.6z"/><path fill="#B39F8B" d="M1627.2 480c6.2 10.5-.4 18.8-5 21.6-4.7 2.7-15.1 4.4-21.3-6.1-4.7-8-3.4-17.5 4.6-22.3 8.1-4.7 17-1.2 21.7 6.8z"/><path fill="#005779" d="M1613.7 470.4c2 15.7-10.7 27.8-22.8 22.9-1.9-14.1 4.6-39.7 22.8-22.9zM1613.8 471.1c1 6.3 8.9 9.5 13.6 8.3-3.2-7.7-8.4-9.2-13.6-8.3z"/><path fill="#FFB7A5" d="M1608.8 492l-.3 7 6.5-3.8z"/><g fill="#B39F8B"><path d="M1654.3 532.4l6.7 24.2 2.3-.4-3.2-25.7-10.3-16.7c-6.1-7.5-13.5-11.3-13.1-6.1.7 7.4 17.6 24.7 17.6 24.7zM1670.1 567s.6-4.8-2-7.9-5.7-4.8-6.9-3.8c-1.2 1 0 4.3 2.6 7.4s5 5.4 5 5.4l1.3-1.1zM1661.2 555.3c-2.5 2.1 1.3 4.8 1 8.8 0 0 4.9-1.8-1-8.8z"/></g><path fill="#C7E543" d="M1639.6 503.5s5.3 1.2 10.3 8.1c5 6.9 8.4 11.6 8.4 11.6l-8.5 7.3s-2.1-1-9.8-9.7c-7.7-8.8-.4-17.3-.4-17.3z"/><path fill="#1F7698" d="M1607.5 581.4l14.3-8.1s3.9 1.4 3.1 5l-4.3 3.2c0-.1-11.1 4.8-13.1-.1z"/><path fill="#0E1414" d="M1620.1 578l.3 3.5s44.9-3.5 44.2-7.2c-.6-3.7-4.8-12.3-13.1-17.2l-16.4 15.4 15.8-.3c-11.7 0-30.8 5.8-30.8 5.8zM1651.5 559.2c.3-7.1-1.5-9.2-1.5-9.2l-25.7-1.7s2.2 3.3 1.2 14.6c0 0-10.5 8.3 5.6 9.3 24.9 1.7 20.4-13 20.4-13z"/><path fill="#B39F8B" d="M1618.1 542.5s-9-14.2-9-21.7c0-5.2 1.4-10.1 6.8-2.1l7.1 26.7s-3.2 1.1-5 1.6c-3.9-1.1.1-4.5.1-4.5z"/><path fill="#C7E543" d="M1608.6 513.9s-3.4 7.1 1.8 17.4l7.4-1.1c1-11.6-9.2-16.3-9.2-16.3zM1635.9 561.8c-10.6-.4-13-3.1-13-3.1 2.1-17-14.3-44.8-14.3-44.8s2.1-4.7 6.7-7.2c0 0 3.7 4.7 9.1 3.3s6.4-7.3 6.4-7.3c5.3 0 8.8.9 8.8.9-1.2 1.2 7.8 31.2 13.5 51.8 0-.1-6.6 6.8-17.2 6.4z"/><path fill="#1F7698" d="M1596.7 598.2l15.6-5.3s1.6-3.9-1.7-5.6l-5.2 1.1c0-.1-11 5-8.7 9.8z"/><path fill="#0E1414" d="M1610.6 587.3l-3.4 1s-8.2-30.9-3.4-42.8c4.5-11.1 29.4 18.6 29.4 18.6l-3.1 8.1c-11.2.8-21.7-18-21.7-18 3.1 5.5 2.2 33.1 2.2 33.1z"/><g fill="#B39F8B"><path d="M1600.4 558.6s-1.8-4.6.1-8.2c1.8-3.6 4.4-6 5.8-5.3 1.4.7 1 4.2-.8 7.8-1.8 3.6-3.6 6.4-3.6 6.4l-1.5-.7zM1606.2 545.1c3 1.5-.1 5 1.1 8.8 0 0-5.2-.7-1.1-8.8z"/></g><path fill="#B39F8B" d="M1618.1 542.5c-6.6 0-13.5 2.9-13.5 2.9l.6 2.2s8.6.6 12.8-.7"/><path fill="#FFB7A5" d="M1154.9 332c-.1-4.3-.9-5.6-.9-5.6h-10.6s-.8 1.3-.9 5.6c0 0 2.5 3.4 6.5 3.4 3.8 0 5.9-3.4 5.9-3.4z"/><path fill="#0E1414" d="M1141.9 361.3c-.7.3-2.2-.5-2.2-.5s.1-1.7 3.6-2.1c0 0 1 .4 1.4.5.4.5-.1 1.3-.1 1.3s-2 .4-2.7.8zM1176.3 347.2c.8-.1 1.6-1.6 1.6-1.6s-1-1.4-4.1.2c0 0-.7.9-.9 1.2 0 .6.7 1 .7 1s1.9-.7 2.7-.8z"/><path fill="#FFB7A5" d="M1148.1 332c-.4 5.5-2.6 14.5-2.6 14.5 1.2 3.8-.8 12.7-.8 12.7l-1.4-.5-.8-12.8-.1-13.9h5.7zM1149.1 332c.4 5.5 12.8 8 12.8 8 1.9 4 10.9 7 10.9 7l.9-1.2-9.3-8-9.6-5.8h-5.7z"/><ellipse transform="matrix(.251 -.968 .968 .251 575.755 1334.531)" fill="#0E1414" cx="1149.9" cy="295.3" rx="3.4" ry="3.4"/><ellipse transform="matrix(.93 -.366 .366 .93 -30.059 441.487)" fill="#0E1414" cx="1148.7" cy="300" rx="3.4" ry="3.4"/><ellipse transform="matrix(.538 -.843 .843 .538 275.229 1110.803)" fill="#0E1414" cx="1150.4" cy="304.5" rx="3.4" ry="3.4"/><ellipse transform="matrix(.998 -.061 .061 .998 -16.52 70.672)" fill="#0E1414" cx="1154.4" cy="307.1" rx="3.4" ry="3.4"/><ellipse transform="matrix(.772 -.636 .636 .772 69.356 807.06)" fill="#0E1414" cx="1159.2" cy="306.9" rx="3.4" ry="3.4"/><ellipse transform="matrix(.251 -.968 .968 .251 577.193 1353.5)" fill="#0E1414" cx="1162.9" cy="303.9" rx="3.4" ry="3.4"/><path fill="#1B8B7F" d="M1157.5 308.3c.1-.2-1.3-.8-3-1.2-1.7-.4-3.1-.6-3.2-.4-.1.2-.8 3 2.3 3.9 3.1.8 3.8-2 3.9-2.3z"/><ellipse transform="matrix(.93 -.366 .366 .93 -28.723 447.123)" fill="#0E1414" cx="1164.2" cy="299.3" rx="3.4" ry="3.4"/><ellipse transform="matrix(.538 -.843 .843 .538 289.019 1116.561)" fill="#0E1414" cx="1162.5" cy="294.8" rx="3.4" ry="3.4"/><ellipse transform="matrix(.998 -.061 .061 .998 -15.603 70.895)" fill="#0E1414" cx="1158.5" cy="292.1" rx="3.4" ry="3.4"/><ellipse transform="matrix(.772 -.636 .636 .772 77.358 800.266)" fill="#0E1414" cx="1153.7" cy="292.3" rx="3.4" ry="3.4"/><path fill="#A79899" d="M1161.7 302.7c-1.2 4.5-5.2 5-7.2 4.5s-5.3-2.9-4.1-7.4c.9-3.4 3.8-5.7 7.3-4.8s4.9 4.3 4 7.7z"/><path fill="#0E1414" d="M1150.1 299.7s1.2-6.9 7.7-5.2c6.5 1.7 4.2 8.3 4.2 8.3s.8-4.2-4.9-5.7-7 2.6-7 2.6z"/><path fill="#420709" d="M1156.2 300.5l-1.9 2.1 2.5.7z"/><path fill="#A79899" d="M1155.5 307.7l.4-2.7c.1-.4-.2-.9-.6-1-.4-.1-.9.1-1 .5l-.9 2.5c-.2.6-.8 1-1.4.9-3-.3-5 .8-5 .8l5.5 6.6 8-3.1s-1.2-2-4-3.2c-.8-.1-1.1-.7-1-1.3z"/><g fill="#A79899"><path d="M1167.4 316.5l11.8-6-.8-.8-9.4 3.7-6.2-2.6c-3.5-1.3-6.7-1-5.5.6 1.6 2.4 10.1 5.1 10.1 5.1zM1182.5 307s-.1 1.9-1.4 2.8c-1.2.9-2.5 1.3-2.9.9s.3-1.6 1.6-2.6c1.2-.9 2.3-1.6 2.3-1.6l.4.5zM1178.3 310.6c-.8-1 .9-1.7 1.1-3.2-.1 0 1.6 1.1-1.1 3.2z"/></g><path fill="#fff" d="M1157.4 309.5s2-.7 5 .6c1.2.5 6.6 3.4 6.6 3.4l-1.5 3.1s-4.9-1.4-6.5-1.9c-4.4-1.3-3.6-5.2-3.6-5.2zM1159.9 311.1s-1-1-2.8-1.9c0 0-1.1 1.8-2.7 2l-1.6 2.5-.2-2.9c-1.3-1-1.4-3.1-1.4-3.1-2 0-3.4.3-3.4.3s-2.5 14.4-6.2 21.7c0 0 1.9 1.9 5.2 3l1.5-1.8.5 2.3c3.4.6 6-.1 6-.1.3-8.2 5.1-22 5.1-22z"/><g fill="#A79899"><path d="M1142.3 319l-4.2 8.9-.8-.3 2.7-9.3 3.9-6.4c2.3-2.9 4.6-3.9 4.4-1.9-.2 2.9-6 9-6 9zM1133 329.8s.6-1.8 2.1-2.3 2.8-.6 3-.1c.2.5-.8 1.5-2.2 2.1s-2.6.9-2.6.9l-.3-.6zM1138.1 327.3c.5 1.2-1.3 1.4-1.9 2.8 0 0-1.3-1.4 1.9-2.8z"/></g><path fill="#fff" d="M1147.8 307.9s-2 .4-3.9 3.1c-.7 1-3.9 7.3-3.9 7.3l2.8.9s3.5-3.7 4.6-5c3-3.3.4-6.3.4-6.3z"/><path fill="#08D0B7" d="M1152.6 310.7s-1.2-1.6-1.3-4l-1 .9c-.1 1.7 1 4.6 1 4.6.4-1.3 1.3-1.5 1.3-1.5zM1154.4 311.2s1.8-.8 3.1-2.8l.4 1.3c-.8 1.6-3.1 3.5-3.1 3.5.3-1.5-.4-2-.4-2z"/><ellipse transform="matrix(.251 -.968 .968 .251 557.52 1352.148)" fill="#08D0B7" cx="1152.2" cy="315.9" rx=".6" ry=".6"/><ellipse transform="matrix(.251 -.968 .968 .251 553.625 1353.819)" fill="#08D0B7" cx="1151.3" cy="319.3" rx=".6" ry=".6"/><path fill="#03807B" d="M1783.2 74.4c-54.6-1.5-116.1 91.1-98.7 159.4 17.4 68.3-67.2 77-62 150.1s202.4 143.1 273.4 46.6c38.3-52.1-35.5-84.9-2.5-135 23.1-35.1 25.6-83.4-14.6-112.6-48.2-35-32.7-106.8-95.6-108.5z"/><g stroke="#24D595" stroke-width="4" stroke-linecap="round" stroke-miterlimit="10" fill="none"><path d="M1738.3 562.5c49.4-102.5 61.2-265.7 38.2-350.4M1733.2 370.8c9.9 41.7 44.3 46 44.3 46M1786.6 275c13-4.9 19.7-12.5 23.2-19.4"/></g><path fill="#21AA9A" d="M1833.4 109.4c-9.5-19.3-21.9-34.2-50.2-35-54.6-1.5-120.9 91.1-103.5 159.4 17.4 68.3-62.4 68.9-57.2 150.1 2.6 40.3 53.9 74.3 112.8 87.3-66.8-15.9-129.3-79.4-35.9-148.3s7.9-101.6 21.2-167.7c13.2-66.2 82.3-96.3 112.8-45.8z"/><path fill="#0E1414" d="M1293 340.3c-2.5-11.7-15.1-24.1-26.8-21.6-11.7 2.5-18.1 19-15.6 30.7 0 0 7.9 6.9 22.9 3.6s19.5-12.7 19.5-12.7z"/><path fill="#fff" d="M1282.3 335.8c2 9.4-4.2 17.8-8.3 18.7-4.2.9-13.3-4.2-15.3-13.6-1.6-7.2 1.8-14.1 9-15.6s13 3.3 14.6 10.5z"/><path fill="#0E1414" d="M1282.6 333.8c-2.2-6.8-8.1-11.1-15.2-9.5s-10.8 7.9-9.9 15l25.1-5.5z"/><path fill="#A79899" d="M1272.1 338l-.6 7.4 4.2-.9z"/><path fill="#fff" d="M1244.4 389.6c6.4 3.2 14.3 18.7 14.3 18.7l-1.4 1.5-19.8-20.4s7-12.5 12.3-17.5 13.5-11.6 13.6-7c0 6.5-19 24.7-19 24.7zM1296.2 393.1c4.9-5.3 21.8-9.5 21.8-9.5l1 1.8-26.2 14.1s-6.1-13.2-7.5-24c-.6-4.6-2.1-11.1 2.3-11.8 3.8-.6 8.6 29.4 8.6 29.4z"/><g fill="#fff"><path d="M1331 386.9s-3.9 3-7.9 2.2c-4-.7-7-2.6-6.7-4.1.3-1.5 3.7-2.2 7.7-1.4 4 .7 7.2 1.7 7.2 1.7l-.3 1.6zM1316.4 385c.6-3.3 4.8-1.3 8.1-3.5 0 0 .9 5.2-8.1 3.5z"/></g><path fill="#DF4611" d="M1282.7 358.2c0-.6-3.9-1.1-8.7-1.1s-8.7.5-8.7 1.1-.1 8.5 8.7 8.5 8.7-7.9 8.7-8.5z"/><path fill="#fff" d="M1276.5 357.7l-.6-6.2c-.1-1-1-1.8-2-1.8s-1.9.8-2 1.8l-.6 6.2c-.1 1.5-1.3 2.6-2.7 2.8-6.8 1-10.8 3.4-10.8 3.4l16 13 16-13s-3.9-2.4-10.8-3.4c-1.2-.2-2.3-1.3-2.5-2.8z"/><path fill="#0E1414" d="M1293 507.2l-13.5-5.1s-1.4-2.9 2-3.6l2.7.7 8.8 6.9v1.1z"/><path fill="#08D0B7" d="M1280.4 499.2h3.7l8-37.2-1.1-42.8h-15.2c3 27.8 8 42.8 8 42.8-5.5 10-3.4 37.2-3.4 37.2zM1256.9 419.2c.2-10 2.3-12.9 2.3-12.9h29.5s2 3 2.3 12.9c0 0-2.1 4.6-17 4.6-15 0-17.1-4.6-17.1-4.6z"/><path fill="#0E1414" d="M1261.8 506.4h-4v-1.2s4.9-4.2 4.9-6h3.7c1 .7.8 1.9.8 1.9l-5.4 5.3z"/><path fill="#08D0B7" d="M1272 419.2c0 36.6-5.7 79.9-5.7 79.9h-3.7s-5.7-43.3-5.7-79.9h15.1z"/><path fill="#FFE884" d="M1291 363.9s-3-1.6-7.7-2.7c0 0-3.8 5.6-9.3 5.6s-9.3-5.6-9.3-5.6c-4.7 1.1-7.7 2.7-7.7 2.7s5.4 15.3 5.4 25.7c0 10.4-5.4 18-5.4 25.7 0 0 7.2 3.8 17 3.8s17-3.8 17-3.8c0-7.7-5.4-15.3-5.4-25.7.1-10.3 5.4-25.7 5.4-25.7z"/><path fill="#FF7353" d="M1274 366.8s-6.7-2.4-8.7-8.6l-2 3.2c1 4.6 8.1 10.5 8.1 10.5.3-4 2.6-5.1 2.6-5.1zM1274 366.8s6.7-2.4 8.7-8.6l2 3.2c-1 4.6-8.1 10.5-8.1 10.5-.2-4-2.6-5.1-2.6-5.1z"/><circle fill="#fff" cx="1274" cy="375.8" r="1.2"/><circle fill="#fff" cx="1274" cy="383" r="1.2"/><g fill="#fff"><path d="M1256.3 422.3s-3-3.9-2.2-7.9c.7-4 2.6-7 4.1-6.7 1.5.3 2.2 3.7 1.4 7.7-.7 4-1.7 7.2-1.7 7.2l-1.6-.3zM1258.2 407.8c3.3.6 1.3 4.9 3.5 8.1 0 0-5.1.8-3.5-8.1z"/></g><path fill="#331416" d="M1571.2 548.6c-1.5-3.7-2.3-7.9-3.3-12.4-2.2-10.9-5.3-19.1-17.9-22.7h-.1c-.4-.1-.9-.2-1.4-.3-.1 0-.2-.1-.3-.1-.5-.1-1.1-.2-1.7-.3s-1.1-.1-1.7-.2h-.3c-.5 0-1-.1-1.4-.1h-.1c-13.1-.1-18.4 6.9-23.7 16.6-2.2 4-4.2 7.8-6.7 10.9-.8 1-.6 2.6.4 3.4 1 .8 2.6.6 3.4-.4.5-.7 1.1-1.4 1.6-2.1-.8 2.8-1.1 3-1.9 5.3-.4 1.3.3 2.6 1.5 3.1 1 .3 2.1-.1 2.7-.9-.3 1.5-.3 1.4-.6 2.7l-.2.9c-.2 1.3.6 2.6 1.9 2.8h.1c1.1.2 2.2-.5 2.6-1.5-.2.9-.3 1.7-.4 2.5l-.2.9c-.2 1.3.6 2.6 2 2.8 1.2.2 2.3-.5 2.7-1.6 0 .1 0 .3-.1.4l-.1.7c-.2 1.3.7 2.6 2 2.8.8.1 1.5-.2 2-.7v.2l-.2 1.5c-.2 1.3.7 2.6 2 2.8 1.3.2 2.5-.7 2.7-2l-.3 2.4c-.2 1.3.7 2.5 2 2.7 1.3.2 2.5-.7 2.7-2l.3-2.4c-.2 1.3.7 2.5 2 2.7 1.3.2 2.5-.7 2.7-2.1l.2-1.5v-.2c.4.6 1 1.1 1.7 1.2 1.3.2 2.5-.8 2.7-2.1l.1-.7c0-.1 0-.3.1-.4 0 1.2.9 2.1 2.1 2.3h.1c1.3.2 2.5-.8 2.7-2.1l.1-.9c.1-.8.2-1.6.3-2.5.1 1.1.9 2 2.1 2.2h.1c1.3.1 2.5-.8 2.7-2.1l.1-.9c.1-1.3.1-1.2.2-2.7.3.8 1 1.5 1.9 1.6h.4c1.3 0 2.4-1.1 2.3-2.5-.1-2.4-.4-2.7-.3-5.6.3.8.6 1.7.9 2.5.3.8 1.1 1.4 1.9 1.5.4.1.8 0 1.2-.1 1.5-.7 2.1-2.1 1.7-3.3z"/><path fill="#664D4E" d="M1558.7 535.4c-1.8 12.1-12.2 14.6-17.5 13.8-5.4-.8-14.6-6.1-12.8-18.2 1.4-9.3 8.4-15.9 17.7-14.6s14 9.7 12.6 19z"/><path fill="#331416" d="M1528.4 530.3s.4-18.4 17.8-15.8c17.5 2.6 12.5 20.3 12.5 20.3s1.9-13.4-13.5-12.9c-15.4.6-16.8 8.4-16.8 8.4z"/><path fill="#A79899" d="M1549.9 534.1l-4.6 7.6 6.8 1z"/><path fill="#664D4E" d="M1535.5 549.2l1.7-6.9c.3-1.1 1.4-1.9 2.5-1.7 1.2.2 2 1.2 1.9 2.4l-.4 7.1c-.1 1.7.9 3.2 2.5 3.7 7.5 2.3 7.9 6.7 7.9 6.7l-16.7 10.8-15.8-15.1s4.9-4.3 12.7-4.2c1.9-.1 3.3-1.2 3.7-2.8z"/><g fill="#664D4E"><path d="M1505.1 580.3l-9.4 23.3-2.2-.6 6-25.2 12.1-15.5c6.9-6.8 13-10.9 13.1-5.8.1 7.6-19.6 23.8-19.6 23.8zM1485.1 613s-.1-4.9 2.8-7.7 6.2-4.1 7.2-3-.5 4.3-3.4 7.1-5.6 4.8-5.6 4.8l-1-1.2zM1495.2 602.3c2.3 2.4-1.8 4.7-1.9 8.6 0 0-4.7-2.3 1.9-8.6z"/></g><path fill="#664D4E" d="M1526.5 625.7l-.2 3.6s24.3-2.2 34.3-8.7c10-6.6-22.8-20.6-22.8-20.6l-6.6 5.6c2.9 10.9 20.9 12.4 20.9 12.4-9.2 1.8-25.6 7.7-25.6 7.7z"/><path fill="#0E1414" d="M1510 630.3l15.1-6.6s3.8 1.8 2.5 5.3l-4.6 2.7c-.1 0-11.6 3.7-13-1.4z"/><path fill="#664D4E" d="M1539.7 623.4l-.4 3.5s-40.5 0-40.6-3.7c-.1-3.8 16.8-18.2 25-21.7l15 5.3-27.3 13.3c11.7-1.1 28.3 3.3 28.3 3.3z"/><path fill="#0E1414" d="M1551.5 633l-10.7-12.5s-4.2 0-4.6 3.7l3 4.4s8.8 8.4 12.3 4.4z"/><path fill="#08D0B7" d="M1506.7 611.7c3.7 6.9 13.2 6.3 13.2 6.3l7.3-3.6 8.6-.4s4.5 2.8 7.3 3.4c9.6-1.5 11.2-9.8 11.2-9.8-7.6-5.6-12.2-6.6-12.2-6.6l-23.3.8c0 .1-6.4 3.4-12.1 9.9z"/><path fill="#664D4E" d="M1549.5 588.2s4.4-15 3.2-22.4c-1.5-9.4-2.3-10.6-6.8-2.1l-.6 27.7s1.7.4 3.4 1.2c4-.2.8-4.4.8-4.4z"/><path fill="#FFB7A5" d="M1532.9 606.8c10.5-1.5 12.8-2.2 12.8-2.2-7.4-20 4-47.9 4-47.9s-1-1.6-4.5-2.8c0 0 .4 10.1-8.6 9.5-9-.5-6.6-11.9-6.6-11.9-5.3.1-6.3 1.3-6.3 1.3-3.3 17.2-6.7 23.9-8 50.9 0 .1 6.7 4.6 17.2 3.1z"/><path fill="#664D4E" d="M1562.2 601.2c-3.9-1-5.2-2.8-4.8-4.3.4-1.5 3.9-1.6 7.8-.6 2.3.6-.8 5.5-3 4.9zM1549.5 588.2c6.5 1.3 13 8.8 13 8.8l-1 2.1s-8.9-4.4-12.8-6.5"/><path fill="#0E1414" d="M1577.5 579.7c2.1 2.1 3.9 5.4-1.7 10.9s-8.9 3.6-10.9 1.5l12.6-12.4z"/><path stroke="#0E1414" stroke-width="2" stroke-linecap="round" stroke-miterlimit="10" fill="none" d="M1558.1 601.7L1569 591"/><path fill="#664D4E" d="M1557.5 596.9c.9-3.2 5-.7 8.4-2.6 0 0 .3 5.2-8.4 2.6z"/><ellipse transform="matrix(.712 -.703 .703 .712 41.403 1272.668)" fill="#0E1414" cx="1571.2" cy="585.9" rx="8.9" ry="4.1"/><path fill="#24D595" d="M1577.5 581.7c-1.2-1.1-5.2-.8-8.3 2.2-2.6 2.6-3.6 6.3-3.1 8 1.7.8 4.9-.5 7.8-3.3 2.4-2.4 3.8-5.1 3.6-6.9z"/><path opacity=".2" fill="#24D595" d="M1354.4 552.7c0 3.1-3.7 15.3-17.6 10.1-14.6-5.5-31.1-7-31.1-10.1 0-3.1 9.5-5.6 24.3-5.6s24.4 2.6 24.4 5.6z"/><path fill="#EBC7C1" d="M1333.4 444.5l-.5-5.5c-.1-.9-.8-1.6-1.8-1.6-.9 0-1.7.7-1.8 1.6l-.5 5.5c-.1 1.3-1.1 2.3-2.4 2.5-6.1.9-8.1 4.2-8.1 4.2l12.7 10.3 12.7-10.3s-2-3.3-8.1-4.2c-1.1-.2-2.1-1.2-2.2-2.5z"/><g fill="#EBC7C1"><path d="M1344.1 474l-3.9 19.2 1.7.6 6.9-19-1.2-15.3c-1.5-7.4-5.4-12.7-6.9-8.9-2.3 5.4 3.4 23.4 3.4 23.4zM1338.6 503.9s3.4-1.8 4.2-4.8c.8-3.1.5-5.8-.7-6.1-1.2-.3-2.8 1.9-3.6 5-.8 3.1-1.2 5.6-1.2 5.6l1.3.3zM1342.1 493c-2.5-.7-2.5 3-5.2 4.6 0-.1 3.4 2.3 5.2-4.6z"/></g><path fill="#EBC7C1" d="M1343.8 495.6c-.2-8.8-1.9-11.5-1.9-11.5h-21.7s-1.7 2.6-1.9 11.5c0 0 5.1 6.9 13.2 6.9s12.3-6.9 12.3-6.9z"/><path fill="#FF7353" d="M1318.3 551.1c-5.4-2 0-5.6 6-1.9l1.2 1.2s1.6 3-.9 3.6c-1.8.4-3.7-2-6.3-2.9zM1335.3 549.7c-3.8-2.7 2.1-4.8 5.9-.5l.6 1.3s.2 2.9-2.2 2.9c-1.8 0-2.5-2.4-4.3-3.7z"/><path fill="#EBC7C1" d="M1330 495.6c-.8 11.2-5.8 28.3-5.8 28.3 2.4 7.7.2 25.4.2 25.4h-3.1l-2.2-25.4-.9-28.3h11.8zM1332 495.6c.8 11.2 5.8 28.3 5.8 28.3-2.4 7.7-.2 25.4-.2 25.4h3.1l2.2-25.4.9-28.3H1332z"/><path fill="#FF6152" d="M1331.2 515.6c-12.6 0-18.8-3.1-18.8-3.1 6-22.4 2.5-32.2 7.9-37.7h21.7c5.5 5.5 2 15.3 7.9 37.7 0 0-6.2 3.1-18.7 3.1z"/><path fill="#EBC7C1" d="M1310.1 468.8l3.3-10.7c3.1-6.9 8-11.2 8.7-7.2 1 5.8-8.4 21.7-8.4 21.7s-2-.3-2.9-1c-1-.8-.7-2.8-.7-2.8z"/><path fill="#2912A7" d="M1345.4 449.8l-5.1-2s.1 8.5-9.2 8.5-9.2-8.5-9.2-8.5l-5.1 2s4 15.8 2.8 25.9c0 0 3.4 2.9 11.5 2.9s11.5-2.9 11.5-2.9c-1.2-10.1 2.8-25.9 2.8-25.9z"/><path fill="#fff" d="M1318.2 503.5l-11.5-13.8c-.2-.2-.2-.4-.2-.7l1-15.5c0-.5.5-.9 1-.9l12.1.7c.5 0 .9.5.9 1l-1.6 28.6c-.1.9-1.2 1.3-1.7.6z"/><g fill="#EBC7C1"><path d="M1311.6 496.8c.3-3.2 1.4-5.6 2.6-5.5 1.2.1 2 2.7 1.7 5.9-.3 3.2-.5 4.1-.5 4.1s-4.1-1.4-3.8-4.5zM1314.2 491.3c2.6.2 1.4 3.7 3.4 6 0 0-4 1.1-3.4-6z"/></g><path fill="#EBC7C1" d="M1308.9 472.8l4.5 19.6 1.7-.5-1.5-19.3 2.5-4.5s-.9-2.2-2.3-2.5-3.2 1.4-3.2 1.4l-1.7 5.8zM1343.2 430.9c0 9.5-7.7 12.5-11.9 12.5s-11.9-3-11.9-12.5c0-7.3 4.6-13.2 11.9-13.2s11.9 6 11.9 13.2z"/><path fill="#FFF784" d="M1339.1 413.9c-14.3-17.1-43.3 14.1-19.6 38.9 4.7-14.6 38-16.8 19.6-38.9z"/><path stroke="#FFE884" stroke-linecap="round" stroke-miterlimit="10" d="M1584.5 621.2s-1.5-.1-2.2 1.7M1591 615l.5 2.9M1601.9 619.5v1.2M1613.2 614.1s-2-.9-1.6 1M1610.9 616.5s-1.2-.9-1.9.7M1587 618.1s-1.7-.9-2.7.7" fill="none"/><path stroke="#FF6152" stroke-width="2" stroke-linecap="round" stroke-miterlimit="10" d="M1584.8 622.8c.6-6 6.8-8.1 13.4-4.8 6.6 3.3 14.6-.5 15.8-5.4" fill="none"/><path stroke="#FFE884" stroke-linecap="round" stroke-miterlimit="10" d="M1585.8 621.2s1.5-.1 2.2 1.7M1588 618.1s1.9 0 2.1 1.9M1611.9 616.5s1.9 0 2.1 1.9M1614 614.1s1.9 0 2.1 1.9M1597.1 618s-1.1.6-1 2.1M1610.1 618s1.1.6 1 2.1M1600.2 619.2s-.7.8-.6 2M1606.9 619.2s.7.8.6 2M1593.3 616.8v2.2M1603.6 619.6v2.3" fill="none"/><ellipse transform="matrix(.392 -.92 .92 .392 420.532 1857.043)" fill="#FFE884" cx="1614.7" cy="610.5" rx="2.1" ry="1.7"/><path stroke="#FFE884" stroke-linecap="round" stroke-miterlimit="10" fill="none" d="M1614.2 609.8l-1.8-4.8M1615.1 610.5l1-4.8"/><path opacity=".2" fill="#24D595" d="M1404.6 498.7c-.5 3 .6 9.7-16.6 6.8-17.2-2.8-29-10.3-28.5-13.3s7.3-5.4 24.5-2.6c17.2 2.9 21.1 6 20.6 9.1z"/><path fill="#fff" d="M1398 380.1c-3.6 8.8-11.9 8.7-15.8 7.1-3.9-1.6-9.9-7.3-6.3-16.1 2.8-6.7 9.3-10.4 16-7.6 6.8 2.7 8.9 9.9 6.1 16.6z"/><path fill="#2912A7" d="M1394.4 357.5c16.2 6.7 3.2 23.6 3.2 23.6 5-12.2-3.1-14-9-11.2s-8.7-3.5-8.7-3.5-2.9 2.1-4.3 5.6c0 0 2.6-21.2 18.8-14.5z"/><g stroke="#0E1414" stroke-width="1.26" stroke-linecap="round" stroke-linejoin="round" stroke-miterlimit="10" fill="none"><path d="M1383 373c-1.5-.5-2.7-3.1-6.1-2.7-.5.1-.9-.2-.9-.2l-.2.4s.7.6.3 1.6M1383 373c1.5.5 5.3-.1 8.5 2.8.4.4 1.1.5 1.1.5l-.2.4s-1.2-.1-1.5.9M1391.5 375.7c.1 1.3-1.3 3.8-2.7 4.5-1.3.7-4.9-.5-5.2-2.4-.4-2.1.7-3.5-.8-4.1-1.5-.6-1.4 1.3-2.8 2.8-1.2 1.3-3.8.2-4.1-1.1-.3-1.4.4-4.1 1.2-5.1"/></g><path fill="#FFD31C" d="M1383.2 373l-4.8 5.7 4.3 1.7z"/><path fill="#005779" d="M1392.8 390c-4.6-2-11.2-.3-11.2-.3s-3.8 3.8 3.8 3.5 7.6-.4 7.4-3.2z"/><path fill="#fff" d="M1388.2 389l-.3-5.7c-.1-.9-.8-1.7-1.7-1.7-.9 0-1.7.7-1.9 1.6l-.7 5.6c-.2 1.3-1.2 2.4-2.5 2.5-6.3.7 4.3 15.1 4.3 15.1l15-10.1s-3.4-3.6-9.6-4.7c-1.5-.2-2.5-1.3-2.6-2.6z"/><path fill="#FF6152" d="M1368.2 492.5l13.2-1.3s.4-2.1-1.9-3.7l-2.7-.1s-9.5 1.7-8.6 5.1z"/><path fill="#fff" d="M1373.3 421.2c.7 4.9.6 13.8.6 13.8l-2 1.1-3.1-15.5 2.6-15.7c2.2-7.4 5.2-10.8 6.4-6.8 1.8 5.9-4.5 23.1-4.5 23.1zM1373.9 445.6s-2.9-2.7-2.9-5.9c0-3.3 1.1-5.9 2.3-5.9 1.2 0 2.2 2.7 2.2 5.9 0 3.3-.3 5.9-.3 5.9h-1.3zM1373.4 433.8c2.7.1 1.5 3.7 3.7 6.1-.1 0-4.1 1.2-3.7-6.1z"/><path fill="#1F7698" d="M1380.5 391.4s-6.2 2.5-8.6 8.7c-1 2.4-3 18.2-3 18.2s3.2 1.9 5.7 0c0 0 3.7-10.4 5-13.7 1.7-4.5.9-13.2.9-13.2z"/><path fill="#334040" d="M1379.5 488.6l-3 .2-2.3-24.9 1-29.1h10.6c-2.1 20.3-5.4 29.1-5.4 29.1 1.8 7.7-.9 24.7-.9 24.7z"/><path fill="#FF6152" d="M1391.3 500.5c-1.1 1.3-4.7 1-4.7 1s-1.3-3.4 5-7.1c0 0 2.3-.2 3.1-.2 1.1.6 1 2.5 1 2.5s-3.3 2.5-4.4 3.8z"/><path fill="#334040" d="M1397.1 438.6c.1 11.6-3.3 29.5-3.3 29.5 3.1 7.7 1.2 26 1.2 26l-3.1.2-4.3-25.9-2.5-29 12-.8zM1395.1 439.5c-.2-9.1-1.4-11.8-1.4-11.8H1378s-1.2 2.7-1.4 11.8c0 0 .1 7 9.2 7s9.3-7 9.3-7z"/><path fill="#FFB7A5" d="M1375.6 437.8c-.7-11.9 1.8-18 .7-28.4-1-9.9 1.1-17.7 4.8-18.1 0 0-1.1 8.1 3.4 8.3 4.5.2 8.3-7.9 8.3-7.9 4.1 1.2 4.2 2.2 4.2 2.2 2.2 12.5-2.1 27 .9 43.9 0 .1-14.2 7.1-22.3 0z"/><path fill="#1F7698" d="M1388.6 443c7.1-.5 11.5-3.3 11.5-3.3-3.5-16.3-1.1-46.1-1.1-46.1s-2.5-1.4-6.5-2.4c0 0-1 4.1-4.1 5.4l.2 46.4zM1382.1 396.6c-3.1-1.3-1.2-5.2-1.2-5.2-3.9.5-5.8 6.1-5.8 6.1s1.7 25.9-1.8 42.2c0 0 1.5 2.8 8.6 3.3l.2-46.4z"/><path fill="#fff" d="M1407.7 415c-3.3.7-11.2 10.5-11.2 10.5l1.3 2 15.6-11.6-6.1-11.2c-4-6.7-7.6-9.2-7.9-5-.3 5.9 8.3 15.3 8.3 15.3z"/><path fill="#1F7698" d="M1399 393.6s4 1.3 7.5 7c1.3 2.2 7 15.2 7 15.2s-3.2.5-5.8-.8c0 0-6.9-5.8-9.1-8.7-5.5-7.2.4-12.7.4-12.7z"/><path fill="#fff" d="M1395.8 436.9s3.2-2.3 3.6-5.5c.4-3.2-.3-6-1.5-6.1-1.2-.2-2.6 2.3-2.9 5.6-.4 3.2-.4 5.9-.4 5.9l1.2.1zM1397.9 425.3c-2.6-.2-2 3.5-4.4 5.5 0 0 3.8 1.8 4.4-5.5z"/><path fill="#66ADCB" d="M1382.1 396.6s-2-3.4-.6-6.9l-2.5 2.5c-.3 2.3 1.2 7.5 1.2 7.5 0-3 1.9-3.1 1.9-3.1zM1388.4 396.6s4.4-3.8 4.4-6.6l1.4 1.9c-1.2 3.3-3.3 8.9-3.3 8.9.3-3-2.5-4.2-2.5-4.2z"/><circle fill="#fff" cx="1098.2" cy="372.3" r="8.2"/><path fill="#0E1414" d="M1105.5 368.7l-.7 1.5.9 2.7.6-.1v-.4c.1-1.4-.2-2.6-.8-3.7zm-9.2 11.3l.7.5c.4.1.8.1 1.2.1 1 0 1.9-.2 2.8-.5l.1-.4-2.7-.5-2.1.8zm4.2-14.5l-1.1-1.3c-.4-.1-.8-.1-1.3-.1-.7 0-1.4.1-2 .3l-.3 1.8 2.7.9 2-1.6zm-10 6.7l-.6 1.2c.1 1.2.6 2.3 1.2 3.3l.9-.2v-2.8l-1.5-1.5zm5.9-.6l1.1 3.6h3.4l1.1-3.6-2.8-2.2-2.8 2.2z"/><path fill="#24D595" d="M1442.8 615.5l-9.5-14.9 10.1 6.1-6.7-18.6 13 16.6 1.7-12.3 6 15.3 5.5-8.6.2 14.6 7.1-8.3-3.6 10.1z"/><path fill="#21AA9A" d="M569.7 640.8l-4.9-12.1 9.7 8.5-6.7-25.6 9.9 19.3-.4-15.5 9.2 25.4 3.6-10.7.9 11.7z"/><path fill="#ABF3B0" d="M1496.9 464.7l2.6-9.2-4.5 6.3v-16l-4.7 12.3-1.7-9.1-3.4 15.7-4.1-5.8v6.5z"/><path fill="#23BC98" d="M1212.1 630.9l5.6-6.8-6.3 2.8-1.1-15.5-3.3 17.7-5.6-10-.1 14.3z"/><path fill="#CDFAB7" d="M794.3 429.6l5.4-4.6-5.4 1.3 1.4-12.6-5.2 13.8-1.8-11.8-1.7 13.9z"/><path fill="#ABF3B0" d="M1135.2 441.9v-11.5l3.7 8.1v-19.4l6.9 19.4 5.7-12.9-1.6 12.9 11.5-9.4-6.5 12.8z"/><path fill="#23BC98" d="M1806 545.3v-11.7l3.8 8.2v-19.5l7 19.5 5.7-12.9-1.6 12.9 11.6-9.4-6.6 12.9z"/></svg>