<svg xmlns="http://www.w3.org/2000/svg" viewBox="0 0 128.3 48" enable-background="new 0 0 128.3 48"><path fill="#fff" d="M27.3 22.8c0-3.2 2.6-4.8 2.8-4.9-1.5-2.2-3.9-2.5-4.7-2.5-2-.2-3.9 1.2-4.9 1.2-1 0-2.6-1.2-4.2-1.1-2.1 0-4.1 1.3-5.2 3.2-2.3 3.9-.6 9.7 1.6 12.9 1.1 1.6 2.4 3.3 4 3.2 1.6-.1 2.2-1 4.2-1 1.9 0 2.5 1 4.2 1 1.7 0 2.8-1.6 3.9-3.1 1.3-1.8 1.8-3.5 1.8-3.6-.2-.2-3.5-1.5-3.5-5.3zm-3.2-9.5c.9-1.1 1.5-2.6 1.3-4.1-1.3.1-2.8.9-3.8 1.9-.8.9-1.5 2.5-1.3 3.9 1.4.2 2.9-.6 3.8-1.7zm19.7 7.9l-4.3 13.3h2.2l1.2-3.9h4.3l1.2 3.9h2.3l-4.3-13.3h-2.6zm-.5 7.8l1.1-3.5c.3-1.1.5-1.9.6-2.5.3 1.3.6 2.2.7 2.5l1.1 3.5h-3.5zm14.5-4.3c-1.4 0-2.5.6-3.2 1.7l-.1-1.5h-1.9c.1 1.1.1 2.1.1 3.2v10.3h2.1v-5.1c.6.9 1.5 1.4 2.7 1.4 1.2 0 2.2-.4 2.9-1.3.9-.9 1.3-2.2 1.3-3.9 0-1.5-.4-2.6-1.1-3.5-.7-.8-1.6-1.3-2.8-1.3zm1.2 7.4c-.4.6-1.1.9-1.9.9-.7 0-1.2-.2-1.7-.7-.4-.5-.6-1.1-.6-1.8V29c0-.2 0-.4.1-.7.1-.6.4-1 .8-1.4.4-.3.9-.5 1.4-.5.8 0 1.4.3 1.9.9.4.6.6 1.4.6 2.3 0 1.1-.2 1.9-.6 2.5zm9.9-7.4c-1.4 0-2.5.6-3.2 1.7l-.1-1.5h-1.9c.1 1.1.1 2.1.1 3.2v10.3h2.1v-5.1c.6.9 1.5 1.4 2.7 1.4 1.2 0 2.2-.4 2.9-1.3.9-.9 1.3-2.2 1.3-3.9 0-1.5-.4-2.6-1.1-3.5-.8-.8-1.7-1.3-2.8-1.3zm1.1 7.4c-.4.6-1.1.9-1.9.9-.7 0-1.2-.2-1.7-.7-.4-.5-.6-1.1-.6-1.8V29c0-.2 0-.4.1-.7.1-.6.4-1 .8-1.4.4-.3.9-.5 1.4-.5.8 0 1.4.3 1.9.9.4.6.6 1.4.6 2.3.1 1.1-.2 1.9-.6 2.5zm11.8-5.3c-.9-.4-1.6-.7-1.9-1-.4-.3-.6-.8-.6-1.3s.2-.9.5-1.2c.4-.4 1-.6 1.8-.6.9 0 1.8.2 2.5.6l.5-1.7c-.8-.4-1.8-.6-3-.6-1.4 0-2.4.3-3.3 1-.8.7-1.2 1.6-1.2 2.7 0 1.7 1.2 2.9 3.5 3.8.9.3 1.5.7 1.8 1 .4.4.6.8.6 1.4 0 .6-.2 1.1-.7 1.5-.4.4-1.1.5-1.9.5-1.1 0-2.1-.3-3.1-.9l-.5 1.8c.9.6 2 .8 3.4.8 1.6 0 2.8-.4 3.6-1.2.8-.7 1.2-1.6 1.2-2.8 0-.9-.3-1.7-.8-2.3-.4-.5-1.2-1-2.4-1.5zm8.1-4.3l-2.1.6v1.8h-1.4v1.6h1.4v4.8c0 1.2.2 2.1.7 2.6.5.5 1.1.8 2 .8.7 0 1.2-.1 1.7-.2l-.1-1.6c-.2.1-.6.1-.9.1-.8 0-1.2-.6-1.2-1.8v-4.7h2.3v-1.6H90v-2.4zm8.3 2.2c-1.5 0-2.6.5-3.5 1.4-.9.9-1.3 2.2-1.3 3.7 0 1.4.4 2.6 1.3 3.5.8.9 2 1.4 3.4 1.4 1.5 0 2.6-.5 3.5-1.5.8-.9 1.3-2.2 1.3-3.6s-.4-2.6-1.2-3.5c-1-.9-2.1-1.4-3.5-1.4zM100 32c-.5.8-1.1 1.2-1.9 1.2-.8 0-1.5-.4-1.9-1.1-.4-.6-.6-1.4-.6-2.3 0-.9.2-1.7.6-2.3.4-.8 1.1-1.1 2-1.1.8 0 1.5.4 1.9 1.1.4.6.6 1.4.6 2.3-.1.8-.3 1.5-.7 2.2zm7.7-6.8c-.5.4-.8.9-1.1 1.5h-.1l-.1-1.8h-1.9c.1.9.1 1.9.1 3v6.6h2.1v-5c0-.8.2-1.4.5-1.9.4-.6 1-.8 1.7-.8.2 0 .5 0 .7.1v-2h-.5c-.4-.2-.9 0-1.4.3zm11.6 4.1c0-1.2-.3-2.2-.8-3-.7-1-1.8-1.5-3.1-1.5-1.4 0-2.5.5-3.4 1.5-.8 1-1.2 2.2-1.2 3.6 0 1.5.4 2.6 1.3 3.5.8.9 2 1.3 3.5 1.3 1.2 0 2.3-.2 3.2-.6l-.3-1.5c-.8.3-1.6.5-2.6.5-.9 0-1.6-.2-2.1-.7-.6-.5-.9-1.2-.9-2.2h6.4v-.9zm-6.5-.6c.1-.6.3-1.2.6-1.7.4-.6 1-.9 1.7-.9.8 0 1.3.3 1.7.9.3.5.4 1 .4 1.6h-4.4zm-67.7-13c.7-.6 1.1-1.5 1.1-2.7 0-1-.3-1.9-1-2.4-.6-.5-1.4-.7-2.6-.7-.6 0-1.2 0-1.8.1v6.4c.4.1.9.1 1.5.1 1.2 0 2.2-.3 2.8-.8zm-3.2-5c.2 0 .5-.1.8-.1.8 0 1.4.2 1.8.6.4.4.6 1 .6 1.8 0 .9-.2 1.5-.7 2-.4.4-1.1.7-1.9.7h-.7v-5zm7.9.9c-.7 0-1.3.2-1.7.7-.4.5-.6 1.1-.6 1.8s.2 1.3.6 1.7c.4.5 1 .7 1.7.7s1.3-.2 1.7-.7c.4-.5.6-1.1.6-1.8s-.2-1.3-.6-1.7c-.5-.4-1-.7-1.7-.7zm.9 3.6c-.2.4-.5.6-.9.6s-.7-.2-1-.6c-.2-.3-.3-.7-.3-1.1 0-.4.1-.8.3-1.1.2-.4.5-.6 1-.6.4 0 .7.2.9.6.2.3.3.7.3 1.1s-.1.8-.3 1.1zm9.2-3.5zm-4.5 4.7l.6-2c.2-.5.3-1 .4-1.5.1.5.2 1 .4 1.5l.6 2h1l1.5-4.7h-1l-.6 2.2c-.1.6-.2 1.1-.3 1.6-.1-.5-.2-1-.4-1.6l-.6-2.2h-.9l-.7 2.3c-.2.6-.3 1.1-.4 1.5l-.3-1.5-.5-2.2h-1.1l1.4 4.7h.9zm8.9-2.7v2.7h1v-2.8c0-.7-.2-1.2-.5-1.6-.3-.3-.7-.4-1.1-.4-.3 0-.7.1-.9.3-.2.2-.4.3-.5.6v-.7h-.9v4.7h1v-2.8c0-.3.1-.6.3-.8.2-.2.4-.3.8-.3.5-.1.8.3.8 1.1zm3.9-4.1h-1v6.9h1V9.6zm3.9 2c-.7 0-1.3.2-1.7.7-.4.5-.6 1.1-.6 1.8s.2 1.3.6 1.7c.4.5 1 .7 1.7.7s1.3-.2 1.7-.7c.4-.5.6-1.1.6-1.8s-.2-1.3-.6-1.7c-.4-.4-1-.7-1.7-.7zm.9 3.6c-.2.4-.5.6-.9.6s-.7-.2-1-.6c-.2-.3-.3-.7-.3-1.1 0-.4.1-.8.3-1.1.2-.4.5-.6 1-.6.4 0 .7.2.9.6.2.3.3.7.3 1.1s-.1.8-.3 1.1zm5.4.7l.1.5h.9c0-.3-.1-.7-.1-1.1v-1.7c0-1.3-.6-1.9-1.9-1.9-.6 0-1.2.1-1.6.4l.2.7c.4-.2.8-.3 1.2-.3.7 0 1 .3 1 .9v.1c-.9 0-1.6.1-2 .4-.5.3-.7.7-.7 1.3 0 .4.1.7.4 1 .3.3.6.4 1.1.4.6-.1 1.1-.3 1.4-.7zm-1.8-.9c0-.7.6-1 1.7-1V14.9c0 .2-.2.4-.4.6-.2.1-.4.2-.6.2-.2 0-.4-.1-.5-.2s-.2-.2-.2-.5zm8.8-5.4h-1v2.7c-.3-.4-.7-.6-1.3-.6-.6 0-1.1.2-1.5.7-.4.5-.6 1.1-.6 1.9 0 .7.2 1.3.6 1.7.4.4.8.7 1.4.7.7 0 1.2-.3 1.5-.9v.8h.9v-7zm-1.1 4.8c0 .3-.1.6-.3.9-.2.3-.5.4-.8.4-.4 0-.7-.2-.9-.5-.2-.3-.3-.7-.3-1.1 0-.5.1-.9.3-1.2.2-.3.5-.5.9-.5.3 0 .5.1.7.3.2.2.3.4.4.6v1.1zm7.7 2.1c.7 0 1.3-.2 1.7-.7.4-.5.6-1.1.6-1.8s-.2-1.3-.6-1.7c-.4-.5-1-.7-1.7-.7s-1.3.2-1.7.7c-.4.5-.6 1.1-.6 1.8s.2 1.3.6 1.7c.5.5 1 .7 1.7.7zm-.9-3.5c.2-.4.5-.6 1-.6.4 0 .7.2.9.6.2.3.3.7.3 1.1s-.1.8-.3 1.1c-.2.4-.5.6-.9.6s-.7-.2-1-.6c-.2-.3-.3-.7-.3-1.1 0-.5.1-.8.3-1.1zm4.8 3.4h1v-2.8c0-.3.1-.6.3-.8.2-.2.4-.3.8-.3.6 0 1 .4 1 1.2v2.7h1v-2.8c0-.7-.2-1.2-.5-1.6-.3-.3-.7-.4-1.1-.4-.3 0-.7.1-1 .3-.2.2-.4.3-.5.6v-.7H96v4.6zm9-1.5c0 .6.1 1 .4 1.3.2.3.6.4 1 .4.3 0 .6 0 .8-.1v-.8h-.5c-.4 0-.6-.3-.6-.9v-2.3h1.2v-.8H106v-1.2l-1 .3v.9h-.7v.8h.7v2.4zm6.7-1.1v2.7h1v-2.8c0-.7-.2-1.2-.5-1.6-.3-.3-.6-.4-1.1-.4-.6 0-1.1.3-1.4.8V9.6h-1v6.9h1V13.3c.2-.5.5-.7 1-.7.7-.1 1 .3 1 1.2zm4.9 2.7c.6 0 1.1-.1 1.6-.3l-.2-.7c-.4.1-.8.2-1.3.2-.4 0-.8-.1-1-.3-.3-.2-.4-.6-.5-1.1h3.1v-.5c0-.6-.1-1.1-.4-1.5-.3-.5-.9-.8-1.5-.8-.7 0-1.2.3-1.6.8-.4.5-.6 1.1-.6 1.8s.2 1.3.6 1.7c.5.5 1.1.7 1.8.7zm-1-3.7c.2-.3.5-.4.8-.4.4 0 .7.1.8.4.1.2.2.5.2.8h-2.2c.1-.3.2-.6.4-.8z"/></svg>