<svg xmlns="http://www.w3.org/2000/svg" viewBox="0 0 48 48" enable-background="new 0 0 48 48"><path fill="#55ACEE" d="M34.2 19.3v.6c0 6.3-4.8 13.6-13.6 13.6-2.7 0-5.2-.8-7.3-2.1.4 0 .8.1 1.1.1 2.2 0 4.3-.8 5.9-2-2.1 0-3.8-1.4-4.5-3.3.3.1.6.1.9.1.4 0 .9-.1 1.3-.2-2.2-.4-3.8-2.4-3.8-4.7v-.1c.6.4 1.4.6 2.2.6-1.3-.9-2.1-2.3-2.1-4 0-.9.2-1.7.6-2.4 2.4 2.9 5.9 4.8 9.8 5-.1-.3-.1-.7-.1-1.1 0-2.6 2.1-4.8 4.8-4.8 1.4 0 2.6.6 3.5 1.5 1.1-.2 2.1-.6 3-1.2-.4 1.1-1.1 2-2.1 2.6 1-.1 1.9-.4 2.7-.8-.5 1-1.3 1.9-2.3 2.6z"/></svg>