<svg xmlns="http://www.w3.org/2000/svg" xmlns:xlink="http://www.w3.org/1999/xlink" width="760" height="466" viewBox="0 0 760 466"><path fill="#0F6587" d="M0 0h760v466H0z"/><defs><path id="a" d="M0 0h760v466H0z"/></defs><clipPath id="b"><use xlink:href="#a" overflow="visible"/></clipPath><path clip-path="url(#b)" fill="#C7ECC0" d="M616.463 300.467c.84 9.697-6.984 20.203-7.72 30.023 0 0 1.334 2.885 4.323 6.752l-3.247 88.635L619.01 466h18.272c-.88-14.836-3.098-29.87-8.04-38.842 0 0 8.168-24.686 14.774-71.043 1.94.36 3.96.637 6.085.797 2.01.148 3.944.184 5.816.13 1.103 39.43 4.45 79.624 7.388 108.958h18.365c3.274-32.7 7.06-78.893 7.673-122.48.137-.218.278-.435.41-.655l.06-.06 21.254 5.92c1.437.4 2.925-.44 3.325-1.878l11.764-42.24c.4-1.438-.44-2.926-1.877-3.326l-7.886-2.194 11.643-15.27-8.15-24.652c1.664-1.74 4.064-3.232 7.56-4.375 0 0-6.68-33.213-38.263-48.75-.02.214-.062.43-.117.647-3.863-1.725-9.088-3.65-15.573-5.11-3.186-.717-5.478-3.52-5.536-6.782l-.032-1.76c3.81-1.77 6.577-4.872 8.02-8.496 7.21 2.79 15.56-.028 19.485-6.952 2.1-3.705 2.532-7.893 1.56-11.717 7.47-1.978 12.57-9.166 11.676-17.075-.48-4.23-2.59-7.873-5.627-10.395 4.882-5.992 4.783-14.807-.59-20.678-2.875-3.143-6.725-4.848-10.662-5.104.428-7.717-4.833-14.79-12.632-16.382-4.172-.853-8.29.03-11.625 2.14-4.19-6.496-12.603-9.125-19.847-5.83-3.877 1.764-6.688 4.897-8.147 8.563-7.208-2.793-15.56.025-19.485 6.95-2.098 3.704-2.53 7.893-1.556 11.717-7.473 1.978-12.573 9.167-11.677 17.075.48 4.232 2.59 7.875 5.626 10.396-4.883 5.992-4.783 14.806.59 20.68 2.874 3.14 6.724 4.846 10.662 5.102-.43 7.717 4.833 14.79 12.632 16.382 4.17.852 8.288-.03 11.624-2.14 2.065 3.2 5.147 5.454 8.62 6.528l-.024.14c-.544 3.22-3.227 5.65-6.483 5.885-6.626.48-12.084 1.606-16.16 2.737-.023-.223-.032-.442-.02-.655-33.54 10.668-57.726 35.442-57.726 35.442.324.235.618.468.93.704-3.145 3.223-5.088 5.438-5.088 5.438-13.257-16.12-33.647-28.663-40.293-32.513l-2.89 4.77 42.483 46.528s8.185-5.078 18.23-11.736c7.63 11.422 3.948 20.525 10.275 30.273 9.098 14.013 15.818 9.956 16.658 19.652m87.822-5.094l-.17.293-.182-.05c.116-.08.234-.16.352-.243M499.136 68.23c2.76 0 5 2.237 5 5v243.434c0 2.764-2.24 5-5 5H78.39c-2.763 0-5-2.236-5-5V73.23c0-2.763 2.237-5 5-5h420.746m0-6H78.39c-6.066 0-11 4.933-11 11v243.434c0 6.066 4.934 11 11 11h420.746c6.064 0 11-4.934 11-11V73.23c0-6.067-4.936-11-11-11"/><path clip-path="url(#b)" fill="#331416" d="M698.473 115.68c-.532-4.7-2.88-8.75-6.252-11.55 5.427-6.66 5.315-16.454-.655-22.98-3.194-3.49-7.472-5.386-11.848-5.67.476-8.576-5.37-16.435-14.037-18.204-4.637-.947-9.21.033-12.917 2.377-4.657-7.22-14.006-10.14-22.058-6.477-4.307 1.96-7.432 5.44-9.054 9.515-8.008-3.102-17.29.03-21.65 7.726-2.333 4.116-2.813 8.77-1.73 13.02-8.304 2.198-13.973 10.187-12.977 18.976.532 4.702 2.88 8.75 6.252 11.55-5.426 6.66-5.314 16.454.656 22.98 3.195 3.49 7.472 5.386 11.85 5.67-.477 8.575 5.37 16.435 14.036 18.204 4.636.947 9.21-.034 12.917-2.377 4.656 7.218 14.006 10.14 22.058 6.477 4.308-1.96 7.432-5.442 9.054-9.516 8.01 3.104 17.29-.028 21.652-7.725 2.332-4.115 2.813-8.77 1.73-13.02 8.305-2.197 13.972-10.186 12.977-18.975"/><path clip-path="url(#b)" fill="#2912A7" d="M639.44 318.793c0 51.193 4.484 107.617 8.408 147.207h20.844c3.924-39.59 8.406-96.014 8.406-147.207H639.44zm-47.032-.04l-2.836 106.257L598.38 466h20.632c-1.063-15.77-3.545-31.46-8.797-40.99 0 0 12.308-37.156 19.85-106.258H592.41z"/><path clip-path="url(#b)" fill="#664D4E" d="M591.385 187.644c-17.72 2.43-44.782 33.267-44.782 33.267-14.73-17.91-37.39-31.85-44.774-36.13-.812-5.045-9.396-7.504-12.482-15.168 0 0-1.846 1.98-1.888 4.98l-.194-.09c-9.277-3.948-17.145-6.335-17.145-6.335l-1.585 3.727s4 11.47 13.275 15.42c6.753 2.875 13.207 3.824 16.808 2.768l47.21 51.707s38.378-23.813 54.28-37.805 8.996-18.77-8.723-16.34m108.63 17.63c-6.538-12.38-10.413-18.602-15.276-20.08l.69-.48s-9.252-6.603-26.04-10.382c-3.54-.797-6.087-3.908-6.153-7.536l-.185-10.263c10.114-5.608 21.938-22.328 19.68-42.26-.29-2.557-.807-5.015-1.52-7.354-3.907-6.04-12.49-13.39-30.85-11.313-18.36 2.08-25.08 11.16-27.54 17.924-.172 2.44-.128 4.952.162 7.507 2.275 20.1 17.776 33.82 28.91 36.873l-1.34 7.938c-.604 3.578-3.584 6.277-7.204 6.54-17.164 1.24-27.294 6.392-27.294 6.392l37.27 35.283 27.45-19.136c1.42 7.108 11.315 15.013 11.315 15.013 6.094 34.683 24.114 57.443 24.114 57.443C711.308 271.76 720 265.72 720 265.72l-19.984-60.446z"/><path clip-path="url(#b)" fill="#A79899" d="M638.495 119.83l-3.43 14.083 13.064-3.254z"/><path clip-path="url(#b)" fill="#CFE143" d="M633.395 346.945c33.552 2.508 49.812-22.2 49.812-22.2.815-10.915-6.048-23.753-3.522-34.267 2.523-10.516 9.238-4.95 21.552-18.846 11.607-13.102-2.968-31.275 18.108-38.168 0 0-7.424-36.908-42.52-54.17-.637 7.045-19.878 16.694-32.078 15.782-12.2-.91-29.793-13.314-29.376-20.377-37.27 11.854-64.146 39.383-64.146 39.383 27.684 20.258 16.75 33.62 26.28 48.3 10.11 15.573 17.578 11.065 18.513 21.84.933 10.774-7.764 22.45-8.578 33.364-.002 0 12.402 26.85 45.955 29.358"/><path clip-path="url(#b)" fill="#DFEE73" d="M600.218 209.887c.183-2.438-1.646-4.563-4.085-4.745s-4.563 1.647-4.744 4.085c-.185 2.438 1.645 4.563 4.084 4.745 2.437.183 4.56-1.647 4.744-4.085m20.28-1.44c2.44.183 4.564-1.647 4.745-4.085.183-2.438-1.646-4.563-4.085-4.746-2.438-.182-4.563 1.647-4.744 4.086-.183 2.438 1.647 4.562 4.085 4.744m-1.827 24.43c-.183 2.437 1.646 4.562 4.085 4.744 2.438.182 4.563-1.646 4.745-4.084.182-2.44-1.647-4.564-4.085-4.746-2.44-.183-4.564 1.646-4.745 4.085m-17.62 13.248c-2.44-.182-4.564 1.646-4.746 4.086-.182 2.437 1.646 4.562 4.085 4.743s4.563-1.646 4.745-4.084c.18-2.44-1.647-4.565-4.085-4.747m25.59 14.87c-2.438-.183-4.563 1.645-4.745 4.083-.182 2.44 1.647 4.563 4.085 4.746 2.44.182 4.563-1.646 4.745-4.086.18-2.437-1.647-4.562-4.085-4.744m-7.564 25.848c-2.438-.182-4.563 1.646-4.744 4.086-.183 2.438 1.646 4.563 4.085 4.744 2.437.184 4.562-1.646 4.744-4.084.182-2.438-1.647-4.563-4.086-4.746m32.188.03c-2.438-.183-4.563 1.645-4.745 4.083-.18 2.44 1.648 4.563 4.086 4.746 2.438.18 4.563-1.647 4.745-4.087.182-2.437-1.647-4.562-4.084-4.744m-36.53 25.915c-2.44-.182-4.563 1.646-4.746 4.084-.182 2.437 1.647 4.562 4.085 4.745 2.44.182 4.563-1.648 4.745-4.086.184-2.438-1.645-4.563-4.085-4.745m54.373-105.01c-2.438-.182-4.563 1.647-4.745 4.087-.182 2.438 1.646 4.562 4.085 4.744 2.438.182 4.563-1.646 4.745-4.085.183-2.437-1.646-4.562-4.085-4.744m24.91 1.86c-2.44-.18-4.563 1.647-4.746 4.086-.182 2.438 1.647 4.563 4.085 4.745 2.44.183 4.563-1.646 4.745-4.085.182-2.438-1.647-4.56-4.085-4.745m-41.34 25.187c2.44.182 4.563-1.646 4.746-4.086.182-2.438-1.647-4.562-4.085-4.745-2.44-.182-4.563 1.647-4.745 4.085-.184 2.44 1.645 4.563 4.085 4.746m11.877 26.875c-2.438-.185-4.563 1.644-4.745 4.083-.182 2.438 1.647 4.563 4.085 4.744 2.44.184 4.563-1.646 4.745-4.084.182-2.44-1.647-4.562-4.085-4.744m-4.52 49.978c-2.437-.182-4.562 1.646-4.743 4.086-.184 2.438 1.646 4.563 4.085 4.744 2.438.184 4.562-1.646 4.744-4.086.184-2.438-1.645-4.56-4.084-4.744m26.637-63.178c-2.438-.182-4.563 1.648-4.745 4.086s1.646 4.563 4.085 4.744c2.438.182 4.563-1.646 4.745-4.084.18-2.44-1.648-4.564-4.085-4.746"/><path clip-path="url(#b)" fill="#F4F8F7" d="M717.91 288.824l-13.072 46.94c-.445 1.595-2.1 2.528-3.695 2.083l-61.062-17.004c-1.596-.443-2.528-2.098-2.084-3.693l13.072-46.94c.444-1.597 2.1-2.53 3.694-2.087l61.063 17.006c1.596.444 2.53 2.097 2.085 3.694"/><path clip-path="url(#b)" fill="#DBE0DF" d="M679.648 296.898c-3.362-.936-6.847 1.03-7.783 4.393s1.03 6.85 4.392 7.784 6.848-1.03 7.783-4.393c.937-3.36-1.03-6.846-4.392-7.782"/><path clip-path="url(#b)" fill="#664D4E" d="M720 265.72c-8.14-10.104-12.67-5.702-12.67-5.702-11.972 10.037-26.658 44.123-30.22 52.676-4.92.324-8.836 7.984-16.714 9.648 0 0 1.633 2.162 4.576 2.723l-.12.178s-2.04 2.338-4.79 1.572c-10.64 1.12 10.956 14.475 16.457 6.025 4.444-6.826 6.5-13.713 5.43-17.215L720 265.72zM185.91 343.54s4.95 9.038 10.02 14.173c-.63 3.578-2.518 18.686 4.7 43.178.864 2.937 1.883 5.595 3.016 8.005-5.306 14.236-19.46 26.78-41.467 57.105h46.098c8.498-16.324 17.933-31.027 27.54-42.965 7.827-2.936 17.256-10.36 27.798-24.438 17.446-23.297 27.848-27.19 27.848-27.19s-9.303-15.92-31.892 8.862c-1.568 1.72-3.163 3.27-4.73 4.597 1.46-12.62-1.21-21.777-1.21-21.777-.663-13.564 1.76-34.71 4.705-48.668 2.593-12.295-5.02-14.22-10.156-1.598-4.89 12.018-6.17 21.86-7.088 40.742-1.984-1.117-3.934-2.04-5.844-2.787-2.227-20.985-8.303-27.587-8.303-27.587s.55-5.838 1.208-19.678c.38-7.95-2.057-11.65-4.2-13.36-1.357-1.083-3.373-.456-3.88 1.204-3.835 12.54-5.447 31.296-5.447 31.296s2.453 10.855 5.34 25.363c-.93.024-1.843.08-2.73.17-6.367-18.77-12.11-22.456-12.11-22.456s.436-15.436-1.74-22.785c-.944-3.192-2.37-4.75-3.68-5.495-1.482-.838-3.345.074-3.618 1.754-2.398 14.743-1.523 26.78-1.523 26.78s2.808 10.813 11.687 24.945c-.81.328-1.58.67-2.305 1.016-4.586-5.206-10.792-11.17-10.792-11.17s-2.867-13.058-6.998-19.55c-1.325-2.08-2.632-3.215-3.797-3.795-1.917-.955-4.047.857-3.43 2.908l6.98 23.198z"/><path clip-path="url(#b)" fill="#fff" d="M291.633 448.44c2.394 2.085 4.61 3.726 6.67 5.022-.547 3.97-1.395 8.186-2.5 12.537h16.245c.83-4.327 1.994-7.58 4.36-10.5 2.813-2.24 4.83-6.41 5.28-12.38.755-10.063-.722-16.533-1.652-19.467.212-.332.39-.72.51-1.176.887-3.365 1.287-9.563 1.287-9.563l.385-11.123c.034-1.036-1.188-1.62-1.967-.935-.472.416-.943 1.11-1.304 2.248-.97 3.055-2.472 12.61-2.934 17.412-.91-.26-1.978-.492-3.164-.635.62-6.553-.763-21.912-.763-21.912-.045-1.217-1.523-1.797-2.377-.932-.52.525-1.013 1.375-1.342 2.736-.858 3.56-1.568 14.52-1.516 20.346-.63.13-1.27.295-1.92.504-.074-.43-.174-.88-.304-1.35-2.697-9.725-2.83-14.01-3.568-20.566-.74-6.557-4.147-5.7-4.968.33-.93 6.846.573 17.893 2.782 24.088.074.207.162.38.244.568-.567.43-1.134.896-1.7 1.412-3.374-8.605-4.957-13.143-7.78-18.79-2.95-5.897-5.62-4.005-4.216 1.9 1.584 6.653 4.7 16.202 7.5 22.155-.057.083-.115.155-.17.24 0 0-.334 4.604 1.64 10.43-.876-.468-1.79-1.038-2.706-1.692-11.44-8.148-13.412.256-13.412.256s2.73-.42 13.36 8.835"/><path clip-path="url(#b)" fill="#A79899" d="M78.535 431.328c-.203.945-.45 1.836-.735 2.64-2.108-4.808-4.964-7.532-4.964-7.532-3.062-4.7-6.603-12.75-8.46-18.344-1.636-4.926-4.753-4.027-3.956 1.545.76 5.31 2.355 9.092 5.963 16.023-.943.014-1.834.09-2.673.22-5.162-7.013-8.706-8.118-8.706-8.118s-1.02-2.197-3.67-7.273c-1.52-2.915-3.16-3.728-4.28-3.892-.71-.104-1.3.54-1.134 1.238 1.244 5.27 4.577 12.3 4.577 12.3s3.138 3.364 7.19 7.938c-.33.205-.644.414-.944.633-6.17-5.36-8.995-5.494-8.995-5.494s-3.06-5.598-5.366-7.766c-1.002-.943-1.836-1.2-2.46-1.193-.702.008-1.176.723-.924 1.38 2.216 5.76 5.036 9.87 5.036 9.87s3.257 3.273 9.368 6.465c-.222.286-.423.567-.61.843-2.72-.902-6.18-1.738-6.18-1.738s-3.743-4.06-6.57-5.516c-.906-.468-1.608-.6-2.144-.564-.883.06-1.266 1.148-.618 1.752l7.323 6.822s3.648 2.19 6.526 2.967c.516 1.398 2.985 7.184 10.67 14.426.918.865 1.832 1.6 2.736 2.22.605 3.48.1 7.356-.732 12.817h14.15c.02-5.172.366-10.074 1.033-14.498 2.172-2.682 3.982-7.28 4.808-14.48 1.37-11.944 4.272-15.5 4.272-15.5s-6.636-3.74-9.532 9.806M468.05 463.09c-12.436-35.592-22.22-40.82-20.984-51.12.03-.255.036-.497.037-.737.348-1.014.64-2.12.842-3.352 1.268-7.708.57-12.796.053-15.12.186-.244.35-.53.473-.873.914-2.535 1.646-7.285 1.646-7.285l1.055-8.55c.098-.798-.804-1.33-1.452-.855-.393.287-.803.79-1.16 1.643-.954 2.29-2.765 9.555-3.447 13.225-.685-.262-1.49-.514-2.395-.703.924-5.012.905-16.947.905-16.947.047-.94-1.052-1.49-1.77-.88-.437.37-.875.99-1.222 2.02-.905 2.687-2.197 11.09-2.553 15.58-.495.06-1 .142-1.52.26-.024-.337-.07-.69-.14-1.062-1.417-7.682-1.227-10.994-1.35-16.102-.123-5.103-2.81-4.675-3.853-.083-1.185 5.217-.778 13.836.503 18.762.043.165.1.306.15.456-.467.29-.937.61-1.407.973-2.015-6.868-2.927-10.472-4.72-15.02-1.872-4.75-4.06-3.47-3.38 1.18.77 5.237 2.52 12.812 4.273 17.59-.05.062-.098.114-.146.175 0 0-.57 3.53.554 8.154-.643-.42-1.308-.923-1.97-1.49-8.266-7.062-10.36-.716-10.36-.716s2.136-.14 9.7 7.72c3.19 3.315 6.022 5.435 8.48 6.67 7 11.63 12.69 29.974 13.892 47.82.037.546.102 1.058.16 1.577h21.934c-.214-.937-.47-1.898-.825-2.91"/><path clip-path="url(#b)" fill="#EBC7C1" d="M577.885 375.537c-.767.174-1.695.652-2.77 1.684-2.767 2.657-9.64 11.58-13.166 16.7-.722-.646-1.548-1.313-2.48-1.96 4.147-6.804 10.93-25.495 10.93-25.495.59-1.396-.77-2.834-2.19-2.31-.865.32-1.87 1.02-2.963 2.384-2.853 3.565-9.462 15.593-12.477 22.192-.706-.21-1.44-.39-2.205-.533.176-.513.335-1.065.472-1.66 2.842-12.255 5.25-17.026 8.348-24.645 3.098-7.62-1.146-8.713-5.635-2.6-5.1 6.94-10.035 19.936-11.308 28.033-.04.266-.07.523-.092.773-.87.132-1.762.304-2.682.53 1.433-11.434 2.4-17.344 2.674-25.21.285-8.22-3.768-7.735-5.747-.433-2.23 8.23-4.507 20.543-4.99 28.73-.11.058-.217.103-.33.16 0 0-3.107 4.845-4.417 12.4-.68-1.034-1.34-2.202-1.955-3.464-7.67-15.74-14.84-7.713-14.84-7.713s3.245 1.164 9.37 17.633c2.36 6.352 4.923 11.055 7.515 14.42.08 12.06-1.795 26.303-5.466 40.846h24.08c.456-17.68-.714-27.24 2.077-34.91 2.723-1.737 5.416-4.47 7.872-8.272 7.796-12.076 9.615-20.777 10.025-23.666 2.956-3.232 6.893-9.47 6.893-9.47l7.05-11.95c.656-1.115-.334-2.482-1.595-2.195M147.15 402.688c-.714.887-1.446 1.69-2.17 2.387.327-6.21-1.257-10.6-1.257-10.6-.078-.066-.154-.123-.232-.188 1.097-6.56 1.517-16.705 1.238-23.615-.248-6.13-3.364-7.242-4.622-.693-1.203 6.267-1.503 11.114-2.433 20.413-.69-.348-1.37-.646-2.04-.908.03-.205.067-.4.082-.62.455-6.634-1.103-17.798-3.883-24.204-2.447-5.642-6-5.546-4.924 1.038s2.118 10.79 2.154 20.992c.002.494.028.96.074 1.396-.69-.025-1.36-.012-2.007.035-1.544-5.683-5.235-16.157-7.043-19.384-.693-1.236-1.406-1.928-2.055-2.297-1.068-.61-2.347.358-2.06 1.556 0 0 2.86 15.326 5.254 21.535-1.116.462-2.09.98-2.906 1.483-1.763-4.55-5.84-13.436-7.62-16.145-.662-1.008-1.31-1.555-1.884-1.83-.946-.453-1.975.45-1.658 1.45l3.418 10.718s2.085 5.924 3.868 8.955c.242.41.52.74.82 1.007-.104 3.11.23 9.81 3.717 19.396.563 1.543 1.203 2.916 1.9 4.14.06.296.12.59.216.9 3.277 10.4-3.403 18.313-9.977 46.395h21.983c.266-16.393 2.96-32.17 7.298-43.848 2.86-2.182 5.99-5.61 9.286-10.635 7.812-11.916 10.587-12.25 10.587-12.25s-4.22-7.638-13.123 3.423"/><path clip-path="url(#b)" fill="#FFF3C1" d="M478.6 445.484c1.998 1.742 3.85 3.11 5.57 4.195-.7 5.067-1.975 10.608-3.742 16.32h14.335c.868-6.817 1.603-11.022 4.522-14.62 2.347-1.873 4.032-5.354 4.407-10.336.63-8.402-.604-13.805-1.38-16.254.178-.277.326-.602.427-.98.74-2.81 1.073-7.984 1.073-7.984l.32-9.287c.03-.866-.99-1.355-1.64-.782-.397.348-.79.926-1.09 1.877-.812 2.55-2.065 10.527-2.45 14.537-.76-.217-1.652-.41-2.642-.53.518-5.47-.637-18.294-.637-18.294-.038-1.016-1.27-1.5-1.984-.777-.436.44-.848 1.15-1.12 2.286-.718 2.973-1.31 12.125-1.265 16.986-.527.107-1.063.246-1.606.42-.063-.357-.146-.732-.254-1.127-2.252-8.12-2.362-11.697-2.98-17.17-.615-5.475-3.462-4.758-4.145.275-.777 5.715.48 14.94 2.322 20.11.063.173.136.32.204.474-.474.36-.946.748-1.42 1.182-2.815-7.188-4.138-10.975-6.496-15.688-2.463-4.926-4.69-3.346-3.52 1.584 1.323 5.557 3.925 13.53 6.262 18.498-.047.07-.095.13-.142.2 0 0-.278 3.847 1.37 8.71-.732-.39-1.494-.867-2.26-1.414-9.55-6.803-11.197.215-11.197.215s2.282-.352 11.156 7.374"/><path clip-path="url(#b)" fill="#F0EBEC" d="M323.992 367.037c6.418 9.785 12.52 16.508 18.11 20.846 12.202 20.303 22.918 48.166 29.69 78.117h45.978c-20.452-46.328-35.745-63.537-39.448-80.336 2.526-3.342 4.78-7.535 6.622-12.598 7.877-21.664 7.642-35.945 7.254-40.68.286-.465.552-.967.765-1.543 2.414-6.553 4.396-18.857 4.396-18.857l2.892-22.148c.267-2.064-2.062-3.463-3.75-2.244-1.023.742-2.097 2.035-3.036 4.242-2.45 5.752-7.085 23.7-9.03 33.428-1.03-.563-2.15-1.12-3.36-1.645 1.9-12.534.12-44.894.12-44.894-.007-2.44-2.93-3.71-4.704-2.033-1.078 1.018-2.127 2.688-2.88 5.395-1.854 6.654-3.9 26.46-4.388 38.516-1.557-.13-3.176-.168-4.855-.086.08-.947.117-1.957.087-3.04-.555-20.24 1.257-28.653 2.985-41.78 1.73-13.127-5.324-13.104-9.834-1.756-5.12 12.883-7.528 35.127-6.217 48.258.042.416.097.813.162 1.197-1.184.475-2.388 1.02-3.607 1.63-1.472-18.415-1.878-28.017-4.016-40.476-2.24-13.046-8.47-10.96-9.2 1.198-.83 13.754-.386 34.016 1.55 47.072-.153.127-.306.25-.46.38 0 0-3.142 8.718-2.488 21.042-1.44-1.38-2.892-2.977-4.31-4.738-17.678-21.95-26.05-6.78-26.05-6.78s5.507.66 21.02 24.313"/><path clip-path="url(#b)" fill="#84D9FF" d="M443.853 237.924h.01-.01z"/><path fill="#fff" d="M265.395 197.38c-3.477 0-6.295-2.82-6.295-6.296v-5.78c0-3.476 2.818-6.294 6.295-6.294h6.343c-4.323-32.484-32.132-57.545-65.798-57.545-36.664 0-66.385 29.72-66.385 66.385 0 36.662 29.72 66.384 66.385 66.384 33.427 0 61.08-24.708 65.702-56.855h-6.247zM305.022 197.38c3.477 0 6.295-2.82 6.295-6.296v-5.78c0-3.476-2.818-6.294-6.295-6.294h-6.343c4.322-32.484 32.13-57.545 65.797-57.545 36.664 0 66.384 29.72 66.384 66.385 0 36.662-29.72 66.384-66.383 66.384-33.427 0-61.08-24.708-65.7-56.855h6.245z"/><path fill="#CF5726" d="M335.557 202.79c-1.922.945-4.086 1.488-6.353 1.488-9.35 0-13.08-5.678-13.08-12.935 0-7.256 5.066-13.14 13.385-13.14 2.238 0 4.35.513 6.218 1.424l-1.08 3.457c-1.422-.736-3.06-1.152-4.796-1.152-5.965 0-9.175 4.05-9.175 9.29 0 5.24 2.675 9.34 9.38 9.34 1.705 0 3.292-.43 4.67-1.175l.83 3.403z"/><path fill="#A6CB65" d="M339.4 169.026h4.657v34.643H339.4z"/><path fill="#477637" d="M344.88 182.65v5.614s8.693 6.287 13.69 16.014c0 0 2.137-.785 4.16-2.842 0 0-3.46-6.854-9.3-12.012 0 0 5.255 2.674 10.14 10.89 0 0 .546-1.187.684-1.598 0 0-8.353-11.593-18.03-13.374 0 0 10.18-2.692 15.428-10.862l-.228-.82s-4.747 6.98-12.142 10.223c0 0 5.112-2.282 11.958-11.273l-.502-.96s-3.47 5.067-7.53 8.126c0 0 6.252-7.12 7.21-8.673 0 0-1.05-1.734-2.647-2.646.002 0-5.658 8.9-12.89 14.193z"/><path fill="#A6CB65" d="M363.797 188.19h12.78v3.27h-12.78zM377.626 174.252l7.304-4.017h4.015v33.456h-4.517v-29.164l-5.888 3.285zM397.87 176.495s3.767-3.793 9.01-2.79c5.245 1.003 4.972 6.93 3.83 9.895-1.14 2.964-4.696 7.387-7.296 9.575l-7.934 7.706v2.81h21.34v-3.72h-14.956s6.566-6.02 10.442-10.898c3.875-4.88 4.56-10.442 2.827-14.045-1.733-3.603-5.518-5.974-11.4-5.153 0 0-3.693.41-7.387 3.33l1.523 3.29z"/><defs><path id="c" d="M154.65 136.56h102.578v102.58H154.65z"/></defs><clipPath id="d"><use xlink:href="#c" overflow="visible"/></clipPath><path clip-path="url(#d)" fill="#FF6252" d="M257.228 187.85c0 28.326-22.962 51.29-51.29 51.29-28.325 0-51.288-22.963-51.288-51.29 0-28.327 22.963-51.29 51.29-51.29 28.326 0 51.288 22.963 51.288 51.29"/><path clip-path="url(#d)" fill="#fff" d="M185.27 168.19v39.32c0 1.896 1.537 3.435 3.435 3.435h19.66V187.85l17.23-17.232c2.165-2.164.632-5.863-2.428-5.863h-34.462c-1.898 0-3.436 1.537-3.436 3.434"/><path clip-path="url(#d)" fill="#DBE1E0" d="M208.364 187.85l17.23 17.23c2.165 2.164.632 5.864-2.428 5.864h-31.202c-2.47 0-3.708-2.987-1.96-4.735l18.36-18.36z"/><path fill="#fff" d="M309.315 189.506c0 3.477-2.818 6.295-6.295 6.295h-35.385c-3.477 0-6.295-2.817-6.295-6.294v-2.623c0-3.477 2.818-6.295 6.295-6.295h35.385c3.477 0 6.295 2.818 6.295 6.295v2.623z"/></svg>