<svg xmlns="http://www.w3.org/2000/svg" viewBox="0 0 285.1 80" enable-background="new 0 0 285.1 80"><circle fill="#FF6252" cx="40" cy="40" r="40"/><path fill="#fff" d="M23.9 24.7v30.7c0 1.5 1.2 2.7 2.7 2.7h15.3V40l13.4-13.4c1.7-1.7.5-4.6-1.9-4.6H26.6c-1.5 0-2.7 1.2-2.7 2.7z"/><path fill="#DBE1E0" d="M41.9 40l13.4 13.4c1.7 1.7.5 4.6-1.9 4.6H30.3c-2.4 0-3.6-2.9-1.9-4.6L41.9 40z"/><path fill="#3F4C4C" d="M102.8 55.6c-1 0-1.5-.5-1.5-1.6V26.9c0-1.1.5-1.6 1.5-1.6h3.2c1 0 1.5.5 1.5 1.6v8.4c0 .8 0 1.7-.1 2.5h.1l10.3-11.3c.8-.8 1.4-1.2 1.9-1.2h4.2c1.6 0 1.9.6.8 1.8l-9.6 10.5 10.3 16.1c.8 1.2.5 1.8-.8 1.8h-3.9c-.7 0-1.4-.4-1.9-1.2L111 42.1l-3.5 3.9v8c0 1.1-.5 1.6-1.5 1.6h-3.2zM135.9 55.6c-1 0-1.5-.5-1.5-1.6V26.9c0-1.1.5-1.6 1.5-1.6h3.2c1 0 1.5.5 1.5 1.6V54c0 1.1-.5 1.6-1.5 1.6h-3.2zM153.1 55.6c-1 0-1.5-.5-1.5-1.6V26.9c0-1.1.5-1.6 1.5-1.6h7.4c6.5 0 10.9 1.3 13.1 3.9 2.3 2.6 3.4 6.3 3.4 11.2s-1.1 8.6-3.4 11.2c-2.3 2.6-6.7 4-13.1 4h-7.4zm4.7-5.3h2.3c4.4 0 7.2-.8 8.5-2.4 1.3-1.6 1.9-4.1 1.9-7.5s-.6-5.9-1.9-7.5c-1.3-1.6-4.1-2.4-8.5-2.4h-2.3v19.8zM186.3 55.6c-1 0-1.5-.5-1.5-1.6V26.9c0-1.1.5-1.6 1.5-1.6h7.4c6.5 0 10.9 1.3 13.1 3.9 2.3 2.6 3.4 6.3 3.4 11.2s-1.1 8.6-3.4 11.2c-2.3 2.6-6.7 4-13.1 4h-7.4zm4.7-5.3h2.3c4.4 0 7.2-.8 8.5-2.4 1.3-1.6 1.9-4.1 1.9-7.5s-.6-5.9-1.9-7.5c-1.3-1.6-4.1-2.4-8.5-2.4H191v19.8zM216.5 40.4c0-4.9 1.3-8.7 3.8-11.6 2.5-2.9 6.1-4.3 10.7-4.3s8.2 1.4 10.7 4.3 3.8 6.7 3.8 11.6-1.3 8.7-3.8 11.6c-2.5 2.9-6.1 4.3-10.7 4.3s-8.2-1.4-10.7-4.3-3.8-6.7-3.8-11.6zm6.6 0c0 3.5.6 6.2 1.9 8.1 1.3 1.9 3.3 2.8 6 2.8s4.7-.9 6-2.8c1.3-1.9 1.9-4.6 1.9-8.1s-.6-6.2-1.9-8.1c-1.3-1.9-3.3-2.8-6-2.8s-4.7.9-6 2.8c-1.3 1.9-1.9 4.6-1.9 8.1zM254.8 55.6c-1 0-1.5-.5-1.5-1.6V26.9c0-1.1.5-1.6 1.5-1.6h6.1c.8 0 1.4.6 1.8 1.7l5.7 18.5c.3.8.4 1.5.5 2 .1.5.2 1.1.3 1.8h.1c.1-.7.2-1.3.3-1.8.1-.5.3-1.2.5-2l5.7-18.5c.4-1.1.9-1.7 1.8-1.7h6.1c1 0 1.5.5 1.5 1.6V54c0 1.1-.5 1.6-1.5 1.6h-3.2c-1 0-1.5-.5-1.5-1.6V36.5c0-.8 0-1.7.1-2.5h-.1l-6.1 19.9c-.4 1.1-1 1.7-1.8 1.7h-3.6c-.9 0-1.5-.6-1.8-1.7L259.5 34h-.1c.1.8.1 1.7.1 2.5V54c0 1.1-.5 1.6-1.5 1.6h-3.2z"/></svg>