<svg xmlns="http://www.w3.org/2000/svg" viewBox="0 0 176 176" enable-background="new 0 0 176 176"><circle fill="#fff" cx="88" cy="88" r="88"/><path fill="#0085FF" d="M112.3 47.9c-9.2 0-17.6 3.1-24.3 8.2 9.6 7.3 15.8 18.9 15.8 31.9s-6.2 24.5-15.8 31.9c6.7 5.2 15.2 8.2 24.3 8.2 22.1 0 40.1-17.9 40.1-40.1 0-22.1-17.9-40.1-40.1-40.1z"/><path fill="#1EB9FF" d="M23.6 88c0 22.1 17.9 40.1 40.1 40.1 9.2 0 17.6-3.1 24.3-8.2-9.6-7.4-15.8-18.9-15.8-31.9S78.4 63.5 88 56.1c-6.7-5.2-15.2-8.2-24.3-8.2-22.2 0-40.1 18-40.1 40.1z"/></svg>