<svg width="110" height="110" viewBox="0 0 110 110" xmlns="http://www.w3.org/2000/svg"><title>logo-teach</title><desc>Created with Sketch.</desc><g transform="translate(0 0)" fill="none"><circle fill="#1DBAFF" cx="54.9" cy="54.9" r="54.9"/><path d="M70.08 29.89c-5.488-.007-10.825 1.8-15.18 5.14 6.194 4.73 9.828 12.077 9.828 19.87 0 7.793-3.634 15.14-9.828 19.87 8.667 6.61 20.617 6.84 29.534.574 8.917-6.267 12.746-17.59 9.464-27.982C90.616 36.97 80.978 29.9 70.08 29.89z" id="Shape" fill="#0086FF"/><path d="M14.71 54.89c-.005 9.515 5.39 18.208 13.92 22.425 8.53 4.216 18.713 3.226 26.27-2.555-6.194-4.73-9.828-12.077-9.828-19.87 0-7.793 3.634-15.14 9.828-19.87-7.557-5.78-17.74-6.77-26.27-2.555-8.53 4.217-13.925 12.91-13.92 22.425z" fill="#fff"/></g></svg>