<svg width="22" height="22" viewBox="0 0 22 22" xmlns="http://www.w3.org/2000/svg"><title>logo-google</title><desc>Created with Sketch.</desc><g fill="none"><path d="M21.56 11.137c.002-.747-.063-1.492-.196-2.228H11v4.212h5.916c-.248 1.35-1.043 2.54-2.2 3.293v2.736h3.556c2.186-2.087 3.376-4.995 3.276-8l.012-.013z" id="Shape" fill="#3E82F1"/><path d="M11 21.79c2.696.086 5.322-.86 7.333-2.64l-3.556-2.735c-1.723 1.093-3.86 1.34-5.79.665-1.93-.675-3.437-2.193-4.086-4.115H1.235v2.772C3.08 19.42 6.86 21.76 11.012 21.79H11z" id="Shape" fill="#32A753"/><path d="M4.852 12.965c-.46-1.343-.46-2.798 0-4.14V6.053H1.186c-1.56 3.077-1.56 6.704 0 9.78l3.666-2.82v-.048z" id="Shape" fill="#F9BB00"/><path d="M11 4.334c1.564-.025 3.075.562 4.204 1.634l3.154-3.123C16.373 1 13.746-.015 11.024.012c-4.15.03-7.932 2.37-9.777 6.053l3.666 2.82c.86-2.635 3.315-4.44 6.11-4.49L11 4.334z" fill="#E74133"/></g></svg>