<svg width="109" height="109" viewBox="0 0 109 109" xmlns="http://www.w3.org/2000/svg"><title>logo-academy</title><desc>Created with Sketch.</desc><g fill="none"><path d="M108.792 54.396c.017 16.486-7.46 32.085-20.325 42.395-.535.437-1.07.863-1.626 1.27-20.232 15.038-48.146 14.207-67.45-2.01C.09 79.836-5.545 52.483 5.78 29.96 17.1 7.434 42.415-4.362 66.945 1.458s41.848 27.728 41.847 52.938z" id="Shape" fill="#fff"/><path d="M108.792 54.396c.017 16.486-7.46 32.085-20.325 42.395L48.45 23.726 12.586 89.19C-2.77 70.738-4.214 44.4 9.03 24.38 22.277 4.36 47.08-4.612 70.07 2.305c22.987 6.917 38.723 28.085 38.722 52.09z" id="Shape" fill="#28E88C"/><path d="M107.642 65.565c-2.582 12.316-9.36 23.353-19.175 31.226L48.45 23.726l59.192 41.84z" fill="#00AF91"/></g></svg>