<svg width="110" height="110" viewBox="0 0 110 110" xmlns="http://www.w3.org/2000/svg"><title>logo-learn</title><desc>Created with Sketch.</desc><g transform="translate(0 0)" fill="none"><ellipse id="Oval" fill="#fff" cx="55.396" cy="54.9" rx="54.405" ry="54.9"/><path d="M94.124 93.44c5.323-12.22 4.678-26.25-1.744-37.92H18.413c-6.444 11.66-7.108 25.693-1.794 37.92-21.017-21.522-20.85-56.136.376-77.45 21.225-21.31 55.527-21.31 76.75 0 21.226 21.314 21.395 55.928.378 77.45z" id="Shape" fill="#8F80FF"/><path d="M92.925 52.07c.002 1.17-.17 2.333-.515 3.45H18.413c-1.09-3.548-.438-7.407 1.752-10.392 2.19-2.986 5.656-4.74 9.337-4.728 1.398.003 2.785.26 4.093.76.22-5.28 3.93-9.75 9.042-10.894 5.112-1.144 10.348 1.323 12.76 6.014 2.41-4.69 7.646-7.158 12.76-6.014 5.11 1.144 8.822 5.615 9.04 10.894 1.31-.498 2.696-.755 4.094-.76 3.08-.02 6.04 1.203 8.223 3.393 2.184 2.19 3.412 5.17 3.412 8.277z" fill="#573FE0"/><ellipse id="Oval" fill="#8F80FF" cx="41.414" cy="77.87" rx="6.303" ry="6.36"/><ellipse fill="#8F80FF" cx="69.379" cy="77.87" rx="6.303" ry="6.36"/></g></svg>