<svg width="142" height="40" viewBox="0 0 142 40" xmlns="http://www.w3.org/2000/svg"><title>logo-kiddom</title><desc>Created with Sketch.</desc><g fill="none"><g fill="#3F4C4C"><path d="M50.567 27.833c-.5 0-.734-.266-.734-.8V13.567c0-.534.234-.8.734-.8h1.6c.5 0 .733.266.733.8v4.166c0 .434-.033.834-.067 1.267h.067l5.133-5.6c.367-.4.7-.633.967-.633h2.1c.833 0 .967.3.4.9L56.733 18.9l5.134 8c.4.6.266.9-.4.9H59.5c-.367 0-.667-.2-.933-.633l-3.9-6-1.767 1.966v3.934c0 .533-.233.8-.733.8h-1.6v-.034zM67 27.833c-.5 0-.733-.266-.733-.8V13.567c0-.534.233-.8.733-.8h1.6c.5 0 .733.266.733.8v13.466c0 .534-.233.8-.733.8H67zM75.6 27.833c-.5 0-.733-.266-.733-.8V13.567c0-.534.233-.8.733-.8h3.667c3.233 0 5.4.666 6.533 1.966 1.133 1.3 1.7 3.167 1.7 5.567 0 2.4-.567 4.267-1.7 5.567-1.133 1.3-3.3 1.966-6.533 1.966H75.6zm-46.7-14.6h1.133c2.167 0 3.567-.4 4.2-1.2.634-.8.967-2.066.967-3.733 0-1.667-.333-2.933-.967-3.733-.633-.8-2.033-1.2-4.2-1.2H28.9v9.866zM92.1 27.833c-.5 0-.733-.266-.733-.8V13.567c0-.534.233-.8.733-.8h3.667c3.233 0 5.4.666 6.533 1.966 1.133 1.3 1.7 3.167 1.7 5.567 0 2.4-.567 4.267-1.7 5.567-1.133 1.3-3.3 1.966-6.533 1.966H92.1zm-46.667-14.6h1.134c2.166 0 3.566-.4 4.2-1.2.633-.8.966-2.066.966-3.733 0-1.667-.333-2.933-.966-3.733-.634-.8-2.034-1.2-4.2-1.2h-1.134v9.866zM107.1 20.3c0-2.4.633-4.333 1.867-5.767C110.2 13.1 112 12.4 114.3 12.4c2.3 0 4.1.7 5.333 2.133 1.234 1.434 1.867 3.334 1.867 5.767 0 2.433-.633 4.333-1.867 5.767C118.4 27.5 116.6 28.2 114.3 28.2c-2.3 0-4.1-.7-5.333-2.133-1.234-1.434-1.867-3.334-1.867-5.767zm-45.733-12c0 1.733.3 3.1.933 4 .633.933 1.633 1.4 3 1.4s2.367-.467 3-1.4c.633-.933.933-2.267.933-4s-.3-3.1-.933-4c-.633-.933-1.633-1.4-3-1.4s-2.367.467-3 1.4c-.6.933-.933 2.267-.933 4zM126.1 27.833c-.5 0-.733-.266-.733-.8V13.567c0-.534.233-.8.733-.8h3.033c.4 0 .7.266.867.833l2.833 9.2c.134.4.2.733.267.967.033.266.1.566.133.9h.067c.033-.367.067-.667.133-.9.034-.267.134-.567.267-.967l2.833-9.2c.167-.567.467-.833.867-.833h3.033c.5 0 .734.266.734.8v13.466c0 .534-.234.8-.734.8h-1.6c-.5 0-.733-.266-.733-.8v-8.666c0-.434.033-.834.067-1.267h-.067l-3.033 9.867c-.167.566-.467.866-.9.866h-1.8c-.434 0-.734-.3-.9-.866l-3.034-9.867h-.066c.033.433.066.833.066 1.267v8.666c0 .534-.233.8-.733.8h-1.6z" id="Shape"/></g><g transform="translate(-548 -2361) translate(548 2361)"><circle fill="#FF6252" cx="20" cy="20" r="20"/><g><path d="M12 12.467V27.7c0 .733.6 1.333 1.333 1.333h7.634v-8.966l6.666-6.667c.834-.833.234-2.267-.933-2.267H13.333c-.733 0-1.333.6-1.333 1.334z" id="Shape" fill="#fff"/><path d="M20.967 20.1l6.666 6.667c.834.833.234 2.266-.933 2.266H14.6c-.967 0-1.433-1.166-.767-1.833l7.134-7.1z" fill="#DCE2E1"/></g></g></g></svg>