<svg xmlns="http://www.w3.org/2000/svg" viewBox="0 0 304 275" enable-background="new 0 0 304 275"><path fill="#DEF5FF" d="M192.9 185.1C105.7 165 111.5 241.5 46.4 223c-65.3-18.6-56.8-104.9-5-148.2s110.9-58.9 172.1-30.2c100.3 47.1 66.7 160.5-20.6 140.5z"/><path fill="#222929" d="M33.5 165.7h147.3c1.3 0 2.4 1.1 2.4 2.4v25.8c0 1.3-1.1 2.4-2.4 2.4H33.5c-1.3 0-2.4-1.1-2.4-2.4v-25.8c0-1.4 1.1-2.4 2.4-2.4z"/><path fill="#1CB8FF" d="M68.5 140.3c0 1.2.9 2.1 2.1 2.1l138.1-2.7v21.7H70.6c-1.2 0-2.1.9-2.1 2.1 0 1.2.9 2.1 2.1 2.1H220c1.2 0 2.1-.9 2.1-2.1v-25.9c0-1.2-.9-2.1-2.1-2.1l-149.3 2.7c-1.3 0-2.2.9-2.2 2.1z"/><path fill="#FF7353" d="M101.2 103.6l108-1.9c1.3 0 2.4 1 2.4 2.3l.4 20.1c0 1.3-1 2.4-2.3 2.4l-108 1.9c-1.3 0-2.4-1-2.4-2.3l-.4-20.1c0-1.3 1-2.3 2.3-2.4z"/><path fill="#4224D6" d="M187.473 102.13l14.797-.263.443 24.895-14.797.263zM108.175 103.52l2.6-.045.443 24.895-2.6.046z"/><path fill="#FFE884" d="M137.6 62.1c9.6-2.4 21.2 8.1 11.2 31l-6.1-8.7L137 90s8.4-17.5-.8-17.5c-9.2.1 1.4-10.4 1.4-10.4z"/><path fill="#8EDA6D" d="M44.4 99.5l81.7-47.7c2.9-1.7 6.5-.7 8.2 2.2l10.4 17.8c1.7 2.9.7 6.5-2.2 8.2l-81.7 47.7c-2.9 1.7-6.5.7-8.2-2.2l-10.4-17.8c-1.6-2.8-.6-6.5 2.2-8.2z"/><path stroke="#CDFAB7" stroke-width="4" stroke-linecap="round" stroke-miterlimit="10" fill="none" d="M61.7 121.1l-11.2-19.2M137.7 76.9l-11.2-19.3"/><path fill="#FFE884" d="M32.1 129.3l132.9-2.4c1.3 0 2.4 1 2.4 2.3l.1 4.9c0 1.3-1 2.4-2.3 2.4l-132.9 2.4c-1.3 0-2.4-1-2.4-2.3l-.1-4.9c-.1-1.3 1-2.4 2.3-2.4z"/><path fill="#FF7353" d="M38.9 165.7h18.9v30.6H38.9zM168.3 186H153c-2.8 0-5-2.2-5-5s2.2-5 5-5h15.3c2.8 0 5 2.2 5 5s-2.3 5-5 5z"/><path fill="#fff" d="M61.9 134.6l-25.6.5c-.6 0-1.1-.5-1.1-1.1 0-.6.5-1.1 1.1-1.1l25.6-.5c.6 0 1.1.5 1.1 1.1 0 .6-.5 1.1-1.1 1.1zM216.7 139.7l-141.1 2.7s1.9.6 2.5 5.1l13.1 1.1-12.9 3.7c-.4 6.2-2.6 9-2.6 9h141.1s-3.6-4.4-3.6-10.8c0-6.3 3.5-10.8 3.5-10.8z"/><path fill="#1CB8FF" d="M195.6 154H177s2.7-1.2 2.7-3.4h20.1c0 .6-.3 1.2-.6 1.7-.9 1.1-2.3 1.7-3.6 1.7z"/><path fill="#01D0B7" d="M137.5 158.4h-18.7s2.7-1.2 2.7-3.4h20.1c0 .8-.4 1.4-.9 2-.8.9-2 1.4-3.2 1.4z"/><path fill="#FFE884" d="M176.8 142.5l-17.5 3.8s2.7.3 2.7 2.5h20c0-1-.7-2.9-1.4-4.4-.7-1.4-2.3-2.2-3.8-1.9z"/><path fill="#FFF3C1" d="M210 156.8s.2-4 19.5-4 19.5 4 19.5 4-1.9 8-19.5 8-19.5-8-19.5-8z"/><path stroke="#FFF3C1" stroke-width="8" stroke-miterlimit="10" d="M260.5 180.2c0 7.6-2.9 13.7-9.6 13.7-6.7 0-9.6-6.2-9.6-13.7s2.9-13.7 9.6-13.7c6.7-.1 9.6 6.1 9.6 13.7z" fill="none"/><path fill="#FFF3C1" d="M210 156.8v42.9c0 2 1.2 3.8 3.1 4.5 3.1 1.1 8.4 2.6 16.4 2.6 7.9 0 13.3-1.4 16.4-2.6 1.9-.7 3.1-2.5 3.1-4.5v-42.9s-1.6 4-19.5 4-19.5-4-19.5-4z"/><path fill="#FFE884" d="M220.6 206.1c2.5.4 5.4.6 8.8.6 7.9 0 13.3-1.4 16.4-2.6 1.9-.7 3.1-2.5 3.1-4.5v-34.3c0 .1-1.6 42.8-28.3 40.8z"/><path fill="#FF6252" d="M241.4 185.6c0 6.2-6.4 11.2-11.2 11.2-4.8 0-11.2-5-11.2-11.2s2.7-9.3 11.2-9.3 11.2 3.1 11.2 9.3z"/><path fill="#6AB446" d="M231.1 178.6s-4.9-.3-8.3-4c-3.3-3.5-1.8-7.8-1.8-7.8.4 4 11.9.6 10.1 11.8z"/><path fill="#8EDA6D" d="M231.1 178.6c2.1-11.7-9.4-8-10.1-11.8.3 6.2 10 5.5 10.1 11.8z"/><ellipse transform="matrix(.299 -.954 .954 .299 -19.316 341.217)" fill="#FFF7F6" cx="222.7" cy="183.8" rx="2.2" ry="1.2"/><path fill="#FF2B02" d="M241.4 185.6c0-5-1.8-8.1-7.1-9 7.1 4.6.7 26-13.5 14.5 2 3.1 6.3 5.7 9.4 5.7 4.8 0 11.2-5 11.2-11.2z"/><ellipse fill="#FFE884" cx="229.4" cy="156.8" rx="14.8" ry="2.1"/><path fill="#fff" d="M234.9 146.4c14.7-6.6-1.8-10.6-8.3-18.2-13.7-15.9 9.3-30.5 16.1-16.6.4.7-.4 1.5-1.1 1.2-2.6-1.3-6.2-.3-7.6 3.3-1.5 3.7.5 8.6 6.2 11.4 11.1 5.2 13.3 18.9-5.3 18.9z"/><circle fill="#6AB446" cx="117.1" cy="76.4" r="9"/></svg>