<svg xmlns="http://www.w3.org/2000/svg" viewBox="0 0 176 176" enable-background="new 0 0 176 176"><circle fill="#58DBCC" cx="88" cy="88" r="88"/><path fill="#E1F073" d="M78 60.8c0-4-3.1-4.8-7.4-9.1 4.8-1.4 8.2-5.8 8.2-11.1 0-6.4-5.2-11.6-11.6-11.6s-11.6 5.2-11.6 11.6c0 5.2 3.5 9.6 8.2 11.1-4.3 4.4-7.4 5.2-7.4 9.1 0 2.3-1.8 16.9-2.6 22.8-.2 1.7.6 3.4 2.1 4.3 2.1 1.2 5.7 2.5 11.2 2.5s9.1-1.3 11.2-2.5c1.5-.9 2.3-2.6 2.1-4.3-.5-6-2.4-20.5-2.4-22.8zm44 22.7c-.8-5.9-2.6-20.5-2.6-22.8 0-4-3.1-4.8-7.4-9.1 4.8-1.4 8.2-5.8 8.2-11.1 0-6.4-5.2-11.6-11.6-11.6S97 34.1 97 40.5c0 5.2 3.5 9.6 8.2 11.1-4.3 4.4-7.4 5.2-7.4 9.1 0 2.3-1.8 16.9-2.6 22.8-.2 1.7.6 3.4 2.1 4.3 2.1 1.2 5.7 2.5 11.2 2.5s9.1-1.3 11.2-2.5c1.7-.8 2.5-2.5 2.3-4.3z"/><path fill="#fff" d="M139.2 88.1c0-12.3-22.9-22.3-51.2-22.3s-51.2 10-51.2 22.3c0 8.9 12.1 16.6 29.6 20.2l-6.3 19.1c-.3.8.2 1.7 1 2 .2.1.3.1.5.1.7 0 1.3-.4 1.5-1.1l6.4-19.5c5.7 1 12 1.5 18.5 1.5s12.8-.5 18.5-1.5l6.4 19.5c.2.7.8 1.1 1.5 1.1.2 0 .3 0 .5-.1.8-.3 1.3-1.2 1-2l-6.3-19.1c17.5-3.6 29.6-11.3 29.6-20.2z"/><path fill="#E1F073" d="M98.7 116c0-4-3.1-4.8-7.4-9.1 4.8-1.4 8.2-5.8 8.2-11.1 0-6.4-5.2-11.6-11.6-11.6s-11.6 5.2-11.6 11.6c0 5.2 3.5 9.6 8.2 11.1-4.3 4.4-7.4 5.2-7.4 9.1 0 2.3-1.8 16.9-2.6 22.8-.2 1.7.6 3.4 2.1 4.3 2.1 1.2 5.7 2.5 11.2 2.5s9.1-1.3 11.2-2.5c1.5-.9 2.3-2.6 2.1-4.3-.6-6-2.4-20.5-2.4-22.8zm53.5 1.7c-.8-5.9-2.6-20.5-2.6-22.8 0-4-3.1-4.8-7.4-9.1 4.8-1.4 8.2-5.8 8.2-11.1 0-6.4-5.2-11.6-11.6-11.6-6.4 0-11.6 5.2-11.6 11.6 0 5.2 3.5 9.6 8.2 11.1-4.3 4.4-7.4 5.2-7.4 9.1 0 2.3-1.8 16.9-2.6 22.8-.2 1.7.6 3.4 2.1 4.3 2.1 1.2 5.7 2.5 11.2 2.5 5.5 0 9.1-1.3 11.2-2.5 1.7-.9 2.5-2.6 2.3-4.3zM47.8 94.9c0-4-3.1-4.8-7.4-9.1 4.8-1.4 8.2-5.8 8.2-11.1 0-6.4-5.2-11.6-11.6-11.6s-11.6 5.2-11.6 11.6c0 5.2 3.5 9.6 8.2 11.1-4.3 4.4-7.4 5.2-7.4 9.1 0 2.3-1.8 16.9-2.6 22.8-.2 1.7.6 3.4 2.1 4.3 2.1 1.2 5.7 2.5 11.2 2.5 5.5 0 9.1-1.3 11.2-2.5 1.5-.9 2.3-2.6 2.1-4.3-.6-6-2.4-20.5-2.4-22.8z"/></svg>