<svg xmlns="http://www.w3.org/2000/svg" viewBox="0 0 176 176" enable-background="new 0 0 176 176"><circle fill="#58DBCC" cx="88" cy="88" r="88"/><path fill="#fff" d="M27.2 71.1c0-10.9 2.6-21 7.9-29.4 1.3-2-1.5-4.2-3.1-2.4-10.2 11-15.2 25.7-15.2 41.8 0 21.5 12.1 40.4 30.4 51.4v-21.4c-12.2-9.7-20-24-20-40zM144 39.3c-1.6-1.8-4.4.4-3.1 2.4 5.3 8.4 7.9 18.5 7.9 29.4 0 16-7.7 30.4-19.9 40.1v21.4c18.3-11.1 30.4-30 30.4-51.4-.1-16.2-5.1-30.9-15.3-41.9z"/><path fill="#E1F073" d="M108.3 102.1c0-10.7-8.6-19.3-19.3-19.3s-19.3 8.6-19.3 19.3c0 8.7 5.8 16.1 13.7 18.5-7.1 7.3-12.3 8.6-12.3 15.2 0 3.8-3 27.6-4.3 37.7 6.8 1.7 13.8 2.6 21.1 2.6 8 0 15.7-1.1 23.1-3.1-1.3-10.3-4.2-33.4-4.2-37.2 0-6.6-5.2-7.9-12.3-15.2 8-2.4 13.8-9.8 13.8-18.5z"/><path fill="#fff" d="M131.8 139.7v-12.1l4.2-9.4-4.2-5.1v-15c0-2-2.5-2.7-3.6-1.1l-16.8 25.2 17 18.9c1.2 1.3 3.4.4 3.4-1.4zM109.1 52.2H66.9c-1.9 0-2.7 2.3-1.2 3.5l22.3 18 22.3-18c1.5-1.2.7-3.5-1.2-3.5zM44.2 139.7v-12.1l-4.2-9.4 4.2-5.1v-15c0-2 2.5-2.7 3.6-1.1l16.8 25.2-17 18.9c-1.2 1.3-3.4.4-3.4-1.4zM86.1 20.3L74.5 52.2 88 55.4l13.5-3.2-11.6-31.9c-.7-1.7-3.1-1.7-3.8 0z"/></svg>