<svg xmlns="http://www.w3.org/2000/svg" viewBox="0 0 1600 668.5" enable-background="new 0 0 1600 668.5"><path fill="#664D4E" d="M0 0h1600v668.5H0z"/><path fill="#5A4042" d="M0 668.5c156.5 0 319.1-200.2 592-122 422.9 121.2 645.9-25.8 534.3-241.8-111.7-216 62-328.7 473.8-296.8v660.6H0z"/><circle fill="#58DBCC" cx="1051.5" cy="555" r="83.4"/><path fill="#fff" d="M993.9 538.9c0-10.3 2.5-19.9 7.5-27.9 1.2-1.9-1.4-4-2.9-2.3-9.7 10.4-14.5 24.4-14.5 39.7 0 20.3 11.4 38.2 28.8 48.7V577c-11.6-9.3-18.9-22.9-18.9-38.1zM1104.6 508.8c-1.5-1.7-4.1.4-2.9 2.3 5 8 7.5 17.6 7.5 27.9 0 15.2-7.3 28.8-18.9 38v20.2c17.4-10.5 28.8-28.4 28.8-48.7-.1-15.4-4.9-29.3-14.5-39.7z"/><path fill="#E1F073" d="M1070.7 568.3c0-10.1-8.2-18.3-18.3-18.3s-18.3 8.2-18.3 18.3c0 8.3 5.5 15.2 13 17.5-6.7 6.9-11.6 8.1-11.6 14.4 0 3.6-2.8 26.2-4.1 35.7 6.4 1.6 13.1 2.4 20 2.4 7.6 0 14.9-1 21.9-2.9-1.2-9.8-4-31.7-4-35.2 0-6.3-4.9-7.5-11.6-14.4 7.5-2.2 13-9.2 13-17.5z"/><path fill="#fff" d="M1093 604v-11.5l3.9-8.9-3.9-4.9v-14.2c0-1.9-2.4-2.6-3.4-1l-15.9 23.9 16.1 17.9c1.1 1.2 3.2.4 3.2-1.3zM1071.5 521h-40c-1.8 0-2.6 2.2-1.2 3.3l21.2 17.1 21.2-17.1c1.4-1 .6-3.3-1.2-3.3zM1010 604v-11.5l-3.9-8.9 3.9-4.9v-14.2c0-1.9 2.4-2.6 3.4-1l15.9 23.9-16.1 17.9c-1.1 1.2-3.2.4-3.2-1.3zM1049.7 490.8l-11 30.2 12.8 3 12.8-3-11-30.2c-.6-1.6-3-1.6-3.6 0z"/><circle fill="#58DBCC" cx="1168.5" cy="377.4" r="83.4"/><path fill="#fff" d="M1148.8 372.5c0-5.1-4-6.1-9.4-11.7 6.1-1.8 10.5-7.5 10.5-14.2 0-8.2-6.6-14.8-14.8-14.8-8.2 0-14.8 6.6-14.8 14.8 0 6.7 4.4 12.3 10.5 14.2-5.5 5.6-9.4 6.6-9.4 11.7 0 2.9-2.3 21.6-3.3 29.1-.3 2.2.8 4.4 2.7 5.5 2.7 1.5 7.3 3.3 14.3 3.3 7 0 11.6-1.7 14.3-3.3 1.9-1.1 3-3.3 2.7-5.5-1-7.6-3.3-26.2-3.3-29.1zm80.4 5.3l-8.1-13.4v-25.7c0-3.9-3.1-7-7-7h-43c-3.9 0-7 3.1-7 7v25.7l-8.1 13.4c-.8 1.3.1 3 1.7 3h69.9c1.4 0 2.4-1.7 1.6-3zm-14.2-13.4h-45v-25.7c0-.6.4-1 1-1h43c.6 0 1 .4 1 1v25.7z"/><path fill="#E1F073" d="M1227.1 419.9c6.1-1.8 10.5-7.5 10.5-14.2 0-8.2-6.6-14.8-14.8-14.8-8.2 0-14.8 6.6-14.8 14.8 0 6.7 4.4 12.3 10.5 14.2-5.5 5.6-9.4 6.6-9.4 11.7 0 2-1.1 11.7-2.1 19.9 11.1-5.8 20.8-14 28.2-24-1.6-2.2-4.5-3.9-8.1-7.6zm-59.3 11.6c0-5.1-4-6.1-9.4-11.7 6.1-1.8 10.5-7.5 10.5-14.2 0-8.2-6.6-14.8-14.8-14.8-8.2 0-14.8 6.6-14.8 14.8 0 6.7 4.4 12.3 10.5 14.2-5.5 5.6-9.4 6.6-9.4 11.7 0 2.3-1.5 14.7-2.6 23.5 9.5 3.8 19.8 5.8 30.6 5.8.9 0 1.8 0 2.6-.1v-.1c-.9-7.5-3.2-26.1-3.2-29.1zm35.5-12.2c0-8.2-6.6-14.8-14.8-14.8s-14.8 6.6-14.8 14.8c0 6.7 4.4 12.3 10.5 14.2-5.5 5.6-9.4 6.6-9.4 11.7 0 1.7-.8 8.6-1.6 15.6 10.6-.6 20.6-3.2 29.8-7.3-.4-4-.8-7.2-.8-8.2 0-5.1-4-6.1-9.4-11.7 6-1.9 10.5-7.6 10.5-14.3z"/><circle fill="#58DBCC" cx="1090.6" cy="186.5" r="83.4"/><path fill="#E1F073" d="M1081.1 160.7c0-3.8-2.9-4.5-7-8.6 4.5-1.4 7.8-5.5 7.8-10.5 0-6.1-4.9-11-11-11s-11 4.9-11 11c0 5 3.3 9.1 7.8 10.5-4 4.1-7 4.9-7 8.6 0 2.2-1.7 16-2.5 21.6-.2 1.6.6 3.3 2 4.1 2 1.1 5.4 2.4 10.6 2.4s8.6-1.3 10.6-2.4c1.4-.8 2.2-2.4 2-4.1-.5-5.6-2.3-19.4-2.3-21.6zm41.6 21.6c-.7-5.6-2.5-19.4-2.5-21.6 0-3.8-2.9-4.5-7-8.6 4.5-1.4 7.8-5.5 7.8-10.5 0-6.1-4.9-11-11-11s-11 4.9-11 11c0 5 3.3 9.1 7.8 10.5-4 4.1-7 4.9-7 8.6 0 2.2-1.7 16-2.5 21.6-.2 1.6.6 3.3 2 4.1 2 1.1 5.4 2.4 10.6 2.4s8.6-1.3 10.6-2.4c1.7-.9 2.5-2.5 2.2-4.1z"/><path fill="#fff" d="M1139.1 186.6c0-11.7-21.7-21.1-48.6-21.1s-48.6 9.5-48.6 21.1c0 8.5 11.5 15.8 28 19.1l-5.9 18.1c-.3.8.2 1.6 1 1.9.2.1.3.1.5.1.6 0 1.2-.4 1.4-1l6.1-18.5c5.4.9 11.4 1.4 17.6 1.4s12.1-.5 17.6-1.4l6.1 18.5c.2.6.8 1 1.4 1 .2 0 .3 0 .5-.1.8-.3 1.2-1.1 1-1.9l-5.9-18.1c16.3-3.4 27.8-10.7 27.8-19.1z"/><path fill="#E1F073" d="M1100.7 213c0-3.8-2.9-4.5-7-8.6 4.5-1.4 7.8-5.5 7.8-10.5 0-6.1-4.9-11-11-11s-11 4.9-11 11c0 5 3.3 9.1 7.8 10.5-4 4.1-7 4.9-7 8.6 0 2.2-1.7 16-2.5 21.6-.2 1.6.6 3.3 2 4.1 2 1.1 5.4 2.4 10.6 2.4s8.6-1.3 10.6-2.4c1.4-.8 2.2-2.4 2-4.1-.6-5.6-2.3-19.4-2.3-21.6zm50.7 1.6c-.7-5.6-2.5-19.4-2.5-21.6 0-3.8-2.9-4.5-7-8.6 4.5-1.4 7.8-5.5 7.8-10.5 0-6.1-4.9-11-11-11s-11 4.9-11 11c0 5 3.3 9.1 7.8 10.5-4 4.1-7 4.9-7 8.6 0 2.2-1.7 16-2.5 21.6-.2 1.6.6 3.3 2 4.1 2 1.1 5.4 2.4 10.6 2.4 5.2 0 8.6-1.3 10.6-2.4 1.7-.8 2.4-2.5 2.2-4.1zm-99-21.6c0-3.8-2.9-4.5-7-8.6 4.5-1.4 7.8-5.5 7.8-10.5 0-6.1-4.9-11-11-11s-11 4.9-11 11c0 5 3.3 9.1 7.8 10.5-4 4.1-7 4.9-7 8.6 0 2.2-1.7 16-2.5 21.6-.2 1.6.6 3.3 2 4.1 2 1.1 5.4 2.4 10.6 2.4 5.2 0 8.6-1.3 10.6-2.4 1.4-.8 2.2-2.4 2-4.1-.5-5.6-2.3-19.4-2.3-21.6z"/></svg>