<svg xmlns="http://www.w3.org/2000/svg" viewBox="0 0 176 176" enable-background="new 0 0 176 176"><circle fill="#58DBCC" cx="88" cy="88" r="88"/><path fill="#fff" d="M67.2 82.8c0-5.4-4.2-6.4-9.9-12.3 6.4-1.9 11.1-7.9 11.1-14.9 0-8.6-7-15.6-15.6-15.6s-15.6 7-15.6 15.6c0 7.1 4.7 13 11.1 14.9-5.8 5.9-9.9 6.9-9.9 12.3 0 3.1-2.5 22.7-3.5 30.7-.3 2.3.8 4.6 2.8 5.8 2.8 1.6 7.7 3.4 15.1 3.4 7.4 0 12.2-1.8 15.1-3.4 2-1.2 3.1-3.5 2.8-5.8-1-8-3.5-27.6-3.5-30.7zm84.8 5.6l-8.6-14.1V47.1c0-4.1-3.3-7.4-7.4-7.4H90.7c-4.1 0-7.4 3.3-7.4 7.4v27.2l-8.6 14.1c-.9 1.4.2 3.2 1.8 3.2h73.7c1.7 0 2.7-1.8 1.8-3.2zm-14.9-14.2H89.6V47.1c0-.6.5-1.1 1.1-1.1H136c.6 0 1.1.5 1.1 1.1v27.1z"/><path fill="#E1F073" d="M149.9 132.8c6.4-1.9 11.1-7.9 11.1-14.9 0-8.6-7-15.6-15.6-15.6s-15.6 7-15.6 15.6c0 7.1 4.7 13 11.1 14.9-5.8 5.9-9.9 6.9-9.9 12.3 0 2.1-1.2 12.3-2.3 21 11.7-6.1 21.9-14.8 29.8-25.3-1.7-2.3-4.8-4.1-8.6-8zm-62.6 12.3c0-5.4-4.2-6.4-9.9-12.3 6.4-1.9 11.1-7.9 11.1-14.9 0-8.6-7-15.6-15.6-15.6s-15.6 7-15.6 15.6c0 7.1 4.7 13 11.1 14.9-5.8 5.9-9.9 6.9-9.9 12.3 0 2.5-1.6 15.5-2.7 24.8 10 4 20.9 6.2 32.3 6.2.9 0 1.9 0 2.8-.1v-.1c-1.1-8.1-3.6-27.7-3.6-30.8zm37.4-12.9c0-8.6-7-15.6-15.6-15.6s-15.6 7-15.6 15.6c0 7.1 4.7 13 11.1 14.9-5.8 5.9-9.9 6.9-9.9 12.3 0 1.8-.8 9-1.7 16.4 11.1-.6 21.7-3.3 31.4-7.7-.5-4.2-.8-7.6-.8-8.7 0-5.4-4.2-6.4-9.9-12.3 6.3-1.9 11-7.8 11-14.9z"/></svg>