<svg xmlns="http://www.w3.org/2000/svg" viewBox="0 0 1600 668.5" enable-background="new 0 0 1600 668.5"><path fill="#66ADCB" d="M0 0h1600v668.5H0z"/><path fill="#DDD3D4" d="M412.7 568c-1.5.2-2.8-.7-3.1-2.2l-11.9-73.5c-.2-1.5.7-2.8 2.2-3.1 1.5-.2 2.8.7 3.1 2.2l11.9 73.5c.2 1.5-.8 2.9-2.2 3.1z"/><path fill="#664D4E" d="M425.5 516.8l-44.3 7.2c-1.1.2-2.1-.6-2.3-1.7l-3.5-21.4c-.2-1.1.6-2.1 1.7-2.3l44.3-7.2c.5-.1 1 0 1.4.3l13.4 8.8c1 .6 1.2 2 .5 2.9l-9.9 12.6c-.3.4-.8.7-1.3.8z"/><path fill="#F5FAF9" d="M1333.3 368.5l-266.6 90-266.7 50-266.7 10-266.6 78L0 668.5h1600v-450z"/><path fill="#FFE682" d="M1600 276l-1.7-2.5C1482.5 350 1370.2 411.2 1255 460.7c-119.5 51.3-239.6 89-367.3 115.1-130 26.6-264.6 40.6-411.5 42.8C329 620.9 173.4 611.2.4 589l-.4 3v3c157 20.1 299.8 30 434.9 30 13.9 0 27.7-.1 41.4-.3 147.2-2.2 282.2-16.3 412.6-43 128.1-26.2 248.6-64 368.5-115.5 114.9-49.4 227-110.4 342.6-186.6V276z"/><path fill="#FFF3C1" d="M950 452.3c-.2 5.1 8.4 7.8 8.4 7.8s9 1.1 10.9-3.7c1.1-2.7 1.3-5.8.7-8.6-6.6-1.4-3.1-6.7-6.7-7.5-6.4-1.3-13 5.3-13.3 12z"/><path fill="#EBC7C1" d="M950.4 452.5c-1.6 7.4 3.9 11.1 7.2 11.8 3.3.7 9.8-.4 11.4-7.8 1.2-5.7-1.4-11.1-7.1-12.3-5.7-1.2-10.3 2.6-11.5 8.3z"/><path fill="#FFF3C1" d="M954.4 444.2c4.8 6.6 13.2 5.1 16-1.1-3.5-4.3-12.2-7-16 1.1zM954.4 444.1c2.7 7.6 12.7 9.9 18.4 5.9-2.1-5.2-10.7-11-18.4-5.9z"/><path fill="#FF7353" d="M962.8 456.5l1.4 5.1-4.6-1z"/><path opacity=".05" fill="#0E1414" d="M928.2 536c-.1 2-2.4 6.2 14.6 6.8 17 .6 29.7-2.6 29.8-4.7s-5.9-4.5-23-5.1c-17-.5-21.4 1-21.4 3z"/><path fill="#EBC7C1" d="M954.7 464.7l1.5-4.1c.3-.7 1-1 1.7-.9.7.2 1.1.9 1 1.6l-.7 4.3c-.2 1 .5 1.8 1.3 2.4 8.8 7-6.6 10.2-6.6 10.2l-8.4-10.2s3-2.5 7.8-1.9c1.1.1 2.1-.5 2.4-1.4zM933.8 479c1.7 3.4.1 13.5.1 13.5l-1.8.4-1.4-15.2 7.1-6.8c4.5-4 11.7-6.1 10.9-3-1.1 4.4-14.9 11.1-14.9 11.1zM934.3 500.5s-2.4-1.8-2.7-4.3c-.3-2.5.3-4.6 1.2-4.7.9-.1 1.9 1.8 2.2 4.3.3 2.5.3 4.5.3 4.5l-1 .2zM932.9 492c2-.1 1.5 2.7 3.4 4.3 0 0-3 1.3-3.4-4.3z"/><path fill="#FF6152" d="M941.5 538l-9.9-2.2s-.1-1.7 1.8-2.7l2.1.2c-.1.1 7 2.3 6 4.7z"/><path fill="#EBC7C1" d="M965.9 487.4c3.8.7 9 5.7 9 5.7l-.4 1.7-11.5-5.3s-3-3.9-4.9-10.6c-2-6.7 3.5-9.3 3.9-7.6.7 2.4 3.9 16.1 3.9 16.1zM976.8 497.3c-2-1.5-3.8-2.6-3.4-3.6.4-.9 2.9-1.3 4.9.2 1.6 1.1.1 4.5-1.5 3.4zM973.5 493.6c.9-1.8 3.1.1 5.4-.7 0 0-.3 3.2-5.4.7zM932.8 533.9l2.2.1 11.1-14.9s6.8-12.5 6.8-19.2-6.9-2.9-6.9-2.9l-4.1 19.7c-4.2 4.3-9.1 17.2-9.1 17.2zM938.9 500.7c.1-7 1.1-9.1 1.1-9.1h12s1 2.1 1.1 9.1c0 0-.1 5.4-7.1 5.4s-7.1-5.4-7.1-5.4z"/><path fill="#2912A7" d="M949.3 495.1c-5.8 1.7-2.1 4.8-7 15.1 0 0 .2 1.2 3.3 2.4 3.1 1.2 4.5.6 4.5.6l3.1-7.6c-.1-.1 1.8-12.2-3.9-10.5z"/><path fill="#FF6152" d="M967.9 534.1c1.4-.2 3.1-2.6 3.1-2.6s-1.6-2.3-7.3.2c0 0-1.3 1.5-1.8 2-.2 1 1.1 1.7 1.1 1.7s3.5-1.1 4.9-1.3z"/><path fill="#EBC7C1" d="M940 501.8c2.3 5.1 20.7 12.8 20.7 12.8-1.5 6.2 1.7 18.5 1.7 18.5l2.4-.2-.3-19.9-18.5-15s-9.4-3.5-6 3.8z"/><path fill="#2912A7" d="M937.6 497.7c0 10.6 5.8 6.9 13.8 14.3 0 0 1.1.1 3.1-2.4 1.9-2.5 1.7-3.9 1.7-3.9l-6.1-4.9c0-.1-12.5-8.8-12.5-3.1z"/><path fill="#FF7353" d="M953.9 500.6c3.2-8.6 1.9-10.7 5-18.2 3-7 3.2-13.3.6-14.4 0 0-1 6.3-4.4 5.3s-4.3-7.7-4.3-7.7c-3.3-.1-3.6.7-3.6.7-4.5 8.7-3.7 17.5-9.8 29.3 0 0 8.9 8.3 16.5 5z"/><path opacity=".05" fill="#0E1414" d="M1471.8 328.9c14.7-.7 20.5-4.7 20.8-7.9s-4.9-2.2-19.3-5.2c-34.7-7.4-34.5 14.6-1.5 13.1z"/><path fill="#2B3635" d="M1463.5 280.4c1.8-5.9 3.4-7.4 3.4-7.4l14.6 4s.7 2.1-.8 8.1c0 0-4.7 3.7-10.2 2.2-5.4-1.5-7-6.9-7-6.9z"/><path fill="#CFE144" d="M1482.1 323.3c1 .5 3.1-.7 3.1-.7s-.2-2.5-5.1-3c0 0-1.5.5-2 .7-.5.7.1 1.8.1 1.8s2.9.7 3.9 1.2zM1457 319.7c-.9.7-3.2 0-3.2 0s-.4-2.4 4.4-4c0 0 1.6.2 2.1.3.6.5.3 1.8.3 1.8s-2.7 1.2-3.6 1.9z"/><path fill="#2B3635" d="M1473.2 281.6c.5 7.8 3.8 20.7 3.8 20.7-1.7 5.3 1.2 18 1.2 18l2-.7 1.1-18.2.2-19.7h-8.3zM1468.8 277c5.2 5.9-4.7 21-4.7 21 2.2 6-3.8 18.1-3.8 18.1l-2.1-.3 1.2-17.4 3.7-16.7 5.7-4.7z"/><path fill="#664D4E" d="M1478.1 248.9l1.2-3.7c.2-.6.8-1 1.4-.8.6.1 1 .7 1 1.3l-.5 3.8c-.1.9.4 1.7 1.3 2.1 4 1.5 5.9 4.3 5.9 4.3l-11.2 4.9-8.2-9.1s2.9-1.8 7.1-1.5c.9.2 1.7-.4 2-1.3z"/><g fill="#664D4E"><path d="M1457.2 252.6l-11.2-15.1 1.6-.5 9.6 10.8 9.6.7c5.2.6 9.1 2.9 6.6 4.2-3.6 1.8-16.2-.1-16.2-.1zM1444.2 230.8s-1 2.5 0 4.4c1 2 2.3 3.3 3.1 2.9.8-.4.6-2.3-.4-4.3s-1.9-3.5-1.9-3.5l-.8.5zM1447.2 238.2c1.6-.8 0-2.7.7-4.8 0 0-2.8.3-.7 4.8z"/></g><path fill="#08D0B7" d="M1474.5 250.1s-2.1-2.1-6.7-2.4c-1.8-.1-10.6 0-10.6 0v4.9s7 1.4 9.5 1.8c6.3 1.1 7.8-4.3 7.8-4.3z"/><g fill="#664D4E"><path d="M1497.5 263.4l17.2-7.5-1.1-1.2-13.7 4.5-8.6-4.2c-4.8-2.1-9.4-2-7.9.3 2.2 3.5 14.1 8.1 14.1 8.1zM1519.7 251.1s-.4 2.6-2.2 3.9c-1.8 1.2-3.7 1.7-4.2 1s.6-2.3 2.4-3.5 3.4-2.1 3.4-2.1l.6.7zM1513.4 255.9c-1-1.5 1.4-2.3 1.8-4.5-.1.1 2.3 1.7-1.8 4.5z"/></g><path fill="#08D0B7" d="M1483.8 252.6s2.9-.8 7 1.3c1.6.8 9.1 5.3 9.1 5.3l-2.4 4.2s-6.8-2.3-9.1-3.2c-6-2.2-4.6-7.6-4.6-7.6zM1470.3 250.4s1.9-.6 4.8-.7c0 0 .3 3 2.2 4.3l.4 4.1 2.1-3.6c2.3-.4 3.8-3 3.8-3 2.6 1.3 4.1 2.6 4.1 2.6s-6 19.9-6 31.6c0 0-3.6 1.2-8.5.5l-.8-3.2-2 2.6c-4.8-1.4-7.6-4-7.6-4 4.7-10.5 7.5-31.2 7.5-31.2z"/><ellipse transform="matrix(.21 -.978 .978 .21 910.77 1650.508)" fill="#08D0B7" cx="1477" cy="261.5" rx=".8" ry=".8"/><ellipse transform="matrix(.21 -.978 .978 .21 905.247 1653.298)" fill="#08D0B7" cx="1475.9" cy="266.3" rx=".8" ry=".8"/><path fill="#420709" d="M1473.8 238c1.3-5 5.8-7.7 10.2-6.6 4.4 1.1 7 5.7 5.7 10.7-1.3 5-5.9 8.1-10.3 7s-6.9-6.1-5.6-11.1z"/><path fill="#664D4E" d="M1473.9 240.4c-1.5 5.8 2.7 8.9 5.3 9.5s7.8 0 9.3-5.8c1.1-4.4-.8-8.8-5.2-9.9s-8.2 1.8-9.4 6.2z"/><ellipse transform="matrix(.862 -.508 .508 .862 86.76 780.525)" fill="#420709" cx="1474.5" cy="231.2" rx="4.4" ry="3.3"/><path fill="#420709" d="M1488.5 244s3.3-8.4-5-10.5c-8.4-2.2-9.5 6.8-9.5 6.8s1.5-6.1 8.9-4.3c7.3 1.9 5.6 8 5.6 8z"/><path fill="#A79899" d="M1481.7 240.3l.2 4.7-2.6-.7z"/><path fill="#FFE9E8" d="M889.4 480.4s-2.6 1.6-5 .9-4.1-2-3.8-2.9c.3-.9 2.4-1.1 4.8-.4 2.4.7 4.3 1.5 4.3 1.5l-.3.9zM880.6 478.3c.7-1.9 3.1-.4 5.3-1.4 0-.1 0 3.2-5.3 1.4z"/><path opacity=".05" fill="#0E1414" d="M830.6 527.1c.2 2.2 9.5 1.7 25.1-2.4 15.6-4.1 21.8-6 21.6-8.3s-6.2-3.4-22.4-1.6c-16.3 1.8-24.5 10.1-24.3 12.3z"/><path fill="#FFE9E8" d="M866.3 447.9l2.3-3.7c.4-.6 1.2-.8 1.8-.5.6.3.9 1.1.7 1.7l-1.5 4.1c-.4 1 0 2 .8 2.6 4 2.7-8.3 8.7-8.3 8.7l-6.5-12.2s3.6-1.2 8.2.3c.9.2 2-.2 2.5-1z"/><path fill="#FF7353" d="M881.5 439.3c-.2 7-6.4 11.8-9.6 11.6-3.3-.1-9.1-5.3-8.9-12.3.3-8.4 9.6-12.1 9.6-12.1s9.1 4.4 8.9 12.8z"/><path fill="#FFE9E8" d="M882.1 442.9c-.2 7-5.9 9-9 8.9-3.1-.1-8.7-2.5-8.4-9.5.2-5.3 3.7-9.5 9.1-9.4s8.4 4.7 8.3 10z"/><path fill="#F09CAC" d="M875.6 442l-2.2 3.3 4.3.2z"/><path fill="#FF7353" d="M873.6 433c-6.1-.2-3 6.3-6.7 7.2-.2.1-2.2-1.8-2.4 2.1.2-4.8 1.5-14.8 9.1-9.3z"/><path fill="#2B3635" d="M867.8 517.6l-10.1.3s-.5-1.6 1.1-3l2-.3c-.1-.1 7.4.4 7 3z"/><path fill="#1F7696" d="M858.4 514.8l2.1.9 7.7-19.4-13.6-18.2-8.7 5.2c10.7 11.4 17.2 13.6 17.2 13.6-3.3 5.1-4.7 17.9-4.7 17.9z"/><path fill="#2B3635" d="M814.2 508.9c-.5 1.2 1 3.5 1 3.5s2.8-.3 3.1-5.9c0 0-.7-1.6-.9-2.2-.8-.5-2.1.2-2.1.2s-.6 3.2-1.1 4.4z"/><path fill="#1F7696" d="M845.2 476.6c-5.1 7.2-9.4 19.9-9.4 19.9-6.3.6-18.5 7.7-18.5 7.7l.9 2.2 20.3-6.5 13.8-17.4-7.1-5.9zM844.9 478.9c2.7-6.4 4.4-8 4.4-8l11.2 4.5s.1 2.3-2.4 8.8c0 0-2.1 5-8.6 2.4-6.6-2.6-4.6-7.7-4.6-7.7z"/><path fill="#FFE9E8" d="M870.7 474c3.8-.4 10.6 3.5 10.6 3.5l-.3 1.8-13.1-3.2.1-12.1c.8-5.9 2.7-8.8 4.1-5.9 2 4.2-1.4 15.9-1.4 15.9z"/><path fill="#FFE682" d="M873.7 462.6s-3.3.2-7.5-3.1l4.4-7.1c6 3.9 3.1 10.2 3.1 10.2z"/><path fill="#FFE9E8" d="M841.6 456.8c-.5 3.8-5.5 10.4-5.5 10.4l-1.7-.7 5.7-12.4 11.3-4.3c5.8-1.4 9.1-.8 7 1.6-3.1 3.4-16.8 5.4-16.8 5.4zM830.8 473.7s-.5-3 1-4.9c1.5-2 3.4-3.1 4.1-2.5.8.6.1 2.7-1.4 4.6s-2.9 3.5-2.9 3.5l-.8-.7zM835.9 466.2c1.6 1.3-.8 3-.5 5.4-.1 0-3.1-1 .5-5.4z"/><path fill="#FFE682" d="M857.3 447.4s-3.3-.8-7.9 1.7l3.1 7.8c6.6-2.8 4.8-9.5 4.8-9.5zM858.1 484.3c4.8-7.8 5.2-11.3 9.6-18 4.2-6.3 5-12.8 2.6-14.3 0 0-1.5 2.6-4.6 1.1-3.1-1.5-3-5.2-3-5.2-3.2-.7-5.4-.5-5.4-.5-6 7.7-7 20.8-15.1 31.1 0 0 7.9 7.7 15.9 5.8z"/><path fill="#015247" d="M543 449c-8.1-2.4-24.1 5.7-19.6 16.2 4 9.4-10.4 18.2 8.9 19.6 10.5.8 24.9-3.6 19.2-18.9-2.8-7.3.6-14.2-8.5-16.9z"/><path fill="#FFF3C1" d="M548 461.9c1.2 7-4.2 10.2-7.3 10.8-3.1.5-9.2-.8-10.4-7.9-.9-5.4 1.8-10.3 7.2-11.2 5.4-.9 9.6 2.9 10.5 8.3z"/><path fill="#015247" d="M544.7 454.8c-2.2 9-11.7 11.1-17.3 5.8 1.8-6.1 9.8-12.6 17.3-5.8z"/><path fill="#FFD31C" d="M542.7 462l-1.4 4.7 4.3-.7z"/><path opacity=".05" fill="#0E1414" d="M514.4 549.7c-.3 2.1 8.3 3.6 23.5 3.4 15.1-.3 21.2-.7 21.5-2.8.3-2.1-4.9-4.4-20.1-6.4s-24.6 3.8-24.9 5.8z"/><path fill="#FFF3C1" d="M538.4 473.2l.6-4.1c.1-.7.7-1.2 1.4-1.1.7 0 1.2.6 1.2 1.2l.2 4.1c0 1 .7 1.8 1.7 1.9 4.5.9-3.9 10.6-3.9 10.6l-10.2-8.1s2.7-2.4 7.2-2.8c.9 0 1.6-.7 1.8-1.7z"/><path fill="#FF7353" d="M560.7 539.9l-8.8 3.6s-.9-1.2-.1-3l1.7-1s6.7-2.1 7.2.4z"/><path fill="#A22900" d="M551.5 540.5l2.1.1.8-18.6-11.9-17.6-8.4 4.5c9.5 11.2 15.6 14.4 15.6 14.4-1.2 5.6 1.8 17.2 1.8 17.2z"/><path fill="#FF7353" d="M524.3 550.3c.8.9 3.4.6 3.4.6s.8-2.5-3.8-5c0 0-1.7-.1-2.3-.1-.8.4-.6 1.8-.6 1.8s2.5 1.8 3.3 2.7z"/><path fill="#A22900" d="M530.7 505.7c-2.3 8-2.9 22.6-2.9 22.6-3.5 4.8-6 17.8-6 17.8l2.2.7 8-18.4 7-19.7-8.3-3zM531.5 508c-.1-6.5.8-8.5.8-8.5l11.3-.3s.9 1.9 1.2 8.5c0 0 0 5.1-6.5 5.2-6.6.2-6.8-4.9-6.8-4.9z"/><path fill="#FFF3C1" d="M550.2 493.8c2.7-2.3 8-3.8 8-3.8l1.1 1.4-11.1 6.1-2.8-11c-.7-5.5.3-8.6 2.2-6.4 2.7 3.3 2.6 13.7 2.6 13.7zM565.4 486.2s-.6 2.8-2.6 3.9c-2 1.2-4 1.5-4.5.7s.8-2.4 2.8-3.5 3.8-2 3.8-2l.5.9zM558.3 490.9c-.9-1.7 1.7-2.3 2.4-4.5 0 0 2.2 2-2.4 4.5z"/><path fill="#CFE144" d="M550.4 491.5l-4.2 1.5s-2.3-9.6-3.7-10.3l1.2-7.3c6.7 1.3 6.7 16.1 6.7 16.1z"/><path fill="#FFF3C1" d="M520.9 490.1c1 3.4-1.3 11.9-1.3 11.9l-1.7.1.3-13.7 8.1-7.9c4.5-3.4 7.6-4.1 6.6-1.2-1.4 4-12 10.8-12 10.8zM517.4 509.7s-1.6-2.3-1-4.6c.6-2.3 1.7-3.9 2.6-3.7.9.2 1.1 2.2.5 4.5-.6 2.3-1.2 4.1-1.2 4.1l-.9-.3zM519 501.3c1.8.5.4 2.9 1.5 4.9 0 0-3 .2-1.5-4.9z"/><path fill="#CFE144" d="M530.5 476.2s-6 3.6-10.8 10.7l3.5 2.2 6.4-4.3c4.7-4.9.9-8.6.9-8.6zM544.9 507.7c1.2-8.5.2-11.7 1.6-19.1 1.3-7-.5-12.9-3.1-13.3 0 0-.3 2.8-3.6 2.7s-4.5-3.4-4.5-3.4c-3 .6-4.9 1.6-4.9 1.6-2.3 8.9 1.7 20.5-1.4 32.5 0 0 9.7 3.6 15.9-1z"/><path fill="#DDD3D4" d="M1183.2 431.9c-.9-.5-1.4-1.5-1.2-2.5l13.3-69.9c.2-1.3 1.5-2.1 2.8-1.9 1.3.2 2.1 1.5 1.9 2.8l-13.3 69.9c-.2 1.3-1.5 2.1-2.8 1.9-.2-.1-.5-.2-.7-.3z"/><path fill="#CDFAB7" d="M1201 356c-11.5-25-32.2-25.7-31.9-13.5.6 23.1-16.5 3.5-18.4-8.9s-4.4 1.7-3.7 10.7c1.2 15.1 17 44 25 18.8s.3 21.5 22.1 28.7l6.9-35.8z"/></svg>