<svg xmlns="http://www.w3.org/2000/svg" viewBox="0 0 550 550" enable-background="new 0 0 550 550"><path fill="#DDFAF7" d="M403.7 81.6c-86.6-6-26.7 88-228.4 112-198.6 23.7-129.7 258.5 27.3 268.3C564.5 484.4 554.6 92 403.7 81.6z"/><path fill="#664D4E" d="M493.1 186.9S371.7 162 231.6 214.7c-34.1 12.8-49.5 36 7.9 49.6 32.9 7.8 35.2 26.4 4.1 30.4-43 5.5-128.9 19.2-196.5 57.5-9 5.1-5.4 18.7 4.9 18.7h315.8c8.3 0 15.8-5.1 18.7-12.9 15-39.9 100-43 86.6-77.3-14.7-37.7-206.4-41.2-116.4-81.3 57.9-25.8 136.4-12.5 136.4-12.5z"/><path fill="#FFD31C" d="M67.5 244.8c-19.2-.2-34.8 15.3-34.8 34.5 0 29.8 24.4 62.9 32.2 72.6 1.2 1.5 3.5 1.5 4.7 0 7.6-9.5 30.9-41.1 32.1-70.4.7-19.5-14.5-36.5-34.2-36.7zm373.4-34.3c-13.5 0-24.4 10.8-24.4 24.2 0 20.9 17.1 44.1 22.5 50.9.8 1.1 2.4 1.1 3.3 0 5.3-6.7 21.7-28.8 22.5-49.3.9-21.3-12.1-25.8-23.9-25.8zm-216.7-39.2c-10-.1-18.1 8-18.1 17.9 0 15.5 12.7 32.7 16.7 37.8.6.8 1.8.8 2.4 0 3.9-4.9 16.1-21.4 16.7-36.6.4-10.2-7.5-19-17.7-19.1zm268.7-11.5c-6.2-.1-11.3 5-11.3 11.2 0 9.7 7.9 20.4 10.4 23.5.4.5 1.1.5 1.5 0 2.5-3.1 10-13.3 10.4-22.8.3-6.4-4.6-11.9-11-11.9z"/><path fill="#24D595" d="M437.4 188.9c-2.3-.9-8.4-3.1-15.4-2.9-4.1.1-7.7 1-10.6 2 2.6-1.4 5.9-3.4 8.8-6.2 5.1-4.9 7.8-10.8 8.7-13 .2-.4-.2-.8-.6-.6-2.3.8-8.3 3.3-13.4 8.2-1.6 1.5-2.9 3.1-4 4.7.7-1.8 1.3-3.8 1.7-5.9 1.3-7 .1-13.3-.4-15.7-.1-.4-.6-.5-.9-.2-1.4 2-4.8 7.5-6.2 14.4-.5 2.4-.6 4.8-.6 6.9-.8-1.8-1.8-3.7-3-5.5-4-5.9-9.3-9.5-11.4-10.8-.4-.2-.8.1-.7.5.4 2.4 1.9 8.7 5.9 14.6 1.6 2.4 3.5 4.4 5.3 6.1-2.1-1.2-4.6-2.4-7.3-3.3-6.7-2.1-13.2-1.7-15.6-1.5-.4 0-.6.6-.3.8 1.8 1.6 6.8 5.7 13.6 7.8 7 2.2 13.8 1.7 15.9 1.4 2.3.9 8.4 3.1 15.4 2.8 7.1-.2 13-2.8 15.2-3.8.3-.1.3-.6-.1-.8z"/><path fill="#554242" d="M275.6 308.8c-2.2-5.4 11.8-10.8 45.3-13.7 30.9-2.7 43.6-3 45.6 2.2s-6.8 12.3-36.4 20.7c-29.5 8.4-52.4-4-54.5-9.2z"/><path fill="#58DBCC" d="M351.6 191.2c-4.2-18.4-15.9-25.1-40.8-19-4.5 1.1-7.4 5.6-6.4 10.1l1.4 6 6.1 2.7 5.5 24.1c1.7 7.4 9.6 11.4 16.6 8.5 12.1-5.1 21.8-14 17.6-32.4z"/><path fill="#015247" d="M326.4 148.3c.6 9.5-15.2 14.8-15.2 14.8s-16.5 2.4-20.3-6.3c-2.1-4.9-2.7-10.6-1.7-15.8 12.1-2.9 5.3-12.4 12.1-14.1 11.9-2.8 24.3 9.1 25.1 21.4z"/><path fill="#FFFFC7" d="M291.5 157c3.3 13.6 15.4 15.4 21.4 13.9s16.1-8.5 12.8-22.1c-2.5-10.4-11.2-17.3-21.7-14.8s-15 12.5-12.5 23z"/><path fill="#015247" d="M318 133.4c-5.7 13.7-24.5 16.9-34.6 8.9 4.4-9.2 20.9-19.1 34.6-8.9z"/><path fill="#FF7353" d="M303.9 148.6l5.1 9.9-5.3 1.3z"/><path fill="#FFFFC7" d="M314.7 171.4l-2.1-7.8c-.4-1.3-1.6-2.1-2.9-1.9-1.3.2-2.2 1.4-2.1 2.7l.7 8c.2 1.9-1 3.6-2.8 4.2-8.5 2.8 10.4 19.7 10.4 19.7l17.7-18.4s-5.8-3.9-14.8-3.7c-1.9.2-3.6-1-4.1-2.8z"/><path fill="#FFD31C" d="M387.4 287.7l-7.6-17.1s-3 .5-4.1 4.2l1.1 3.7c-.1-.1 6.5 11.9 10.6 9.2zM270.3 298.5l15.8 10s2.3-2.1 1.1-5.8l-2.9-2.5c.1.1-12.1-6.3-14-1.7z"/><path fill="#FFFFC7" d="M376.6 272.6l.3 4.2-40 2.4-18.9-37.7 13.1-7.3c11.4 26.5 10.4 37.4 10.4 37.4 11-2.7 35.1 1 35.1 1zM333.1 249.5c-12.6 10.4-37.9 19.6-37.9 19.6 1 11.7-8 33.5-8 33.5l-4.4-1 5.6-37 33.4-25.9 11.3 10.8z"/><path fill="#1F7698" d="M337.1 227.1s1.3 4.9 1.9 12.5c.6 7.6-3.8 9.2-8.9 13.1-6.6 5-17.5 8.9-29.7 17.5 0 0-2.5.2-5.9-5.3-3.4-5.5-2.5-8.4-2.5-8.4l15.2-11.4 29.9-18zM339.4 253.3l5.7 18.1s-1.2 2.5-7 5.2c-3.1 1.5-4.8-.3-4.8-.3-11.3-21.9-14.1-40.6-14.1-40.6l9.2-5.1s10.4-2.5 13.6 4.5c5.4 12.5-2.6 18.2-2.6 18.2z"/><path fill="#FFFFC7" d="M288.5 218.7s-.9-8.3 4.1-22.5c2.9-8.2 9.8-13.8 10.6-8 1.2 8.4-9.5 25.9-9.5 25.9-3.2 5.9-5.2 4.6-5.2 4.6z"/><path fill="#0E1414" d="M292.2 192.3s5.5 2.7 14.9.2l-2.3-15.2c-13 2.3-12.6 15-12.6 15z"/><path fill="#FFFFC7" d="M352 198.8l-.8 24.5 2.7.4 4.2-27.6-17.5-14.4c-9.4-6-19-7.3-16.6-1.8 3.5 7.8 28 18.9 28 18.9zM352.5 237.8s4.2-3.8 4.2-8.4-1.4-8.5-3.2-8.5c-1.8 0-3.3 3.8-3.3 8.4s.3 8.5.3 8.5h2zM353.6 220.9c-3.8 0-2.5 5.2-5.8 8.4 0 0 5.7 2.1 5.8-8.4z"/><path fill="#0E1414" d="M310.3 243c-4.5-16.2-2.9-25.4-7.4-39.5-4.3-13.4-2.4-25.2 2.6-26.7 0 0 1.3 5.4 7.6 4.3 6.3-1.1 7.9-7.7 7.9-7.7 6 .4 9.9 1.8 9.9 1.8 6.8 16.7 2.4 38.7 11.6 61.2 0-.1-18.9 14-32.2 6.6z"/><path fill="#FFFFC7" d="M288.5 218.7l-19.8-16.5 2.9-2.1s11.5 6.1 17.3 9.5c3.6 2.2 1.7 6.6-.4 9.1zM258.6 191.7s.1 6.3 3.7 8.7c3.6 2.4 7.6 2.9 8.8 1 1.2-1.8-.7-5.3-4.3-7.7-3.6-2.4-6.8-3.9-6.8-3.9l-1.4 1.9zM271.1 201.4c2.6-3.9-2.4-5.2-2.6-10.2-.1 0-5.6 4.8 2.6 10.2z"/><path fill="#0E1414" d="M330.9 175.1s6.2.4 13 7.3l-9.6 12.1c-10.1-8.6-3.4-19.4-3.4-19.4z"/><path fill="#58DBCC" d="M305.7 176.6c-5.8-1.6-9.6 7.2-7.3 19.3 1 5.3 3.7 16.8 6.9 17.3-1.6-12.2-3.9-20-2.6-28.4.5-3.3 1-7.4 3-8.2zM325.5 206.9c3.5 9.7 11.4 7.5 11.4 7.5l.9-4s-8.6 4.1-10.8-20.6c-1.4-16.3 5-14.5 5-14.5-1.1-1.6-8.3-3.4-9.2-1.8-.9 1.8-4 14.6 2.7 33.4z"/><path fill="#24D595" d="M209.9 263.5c-8.1 10.6-18.9 6.2-16.9-3.5 4.3-20.2-23.8-20.6-37-12.2-27.9 17.8-5 41-15.5 45.5-8.2 3.6-8.9-12.3-19.5-8.8-6.9 2.3-6.8 11.4.4 19.1 0 0 8.9 5.1 50-7s66.4-8.7 66.4-8.7c21.4-20.9-9-49.2-27.9-24.4z"/></svg>