<svg xmlns="http://www.w3.org/2000/svg" viewBox="0 0 688 670" enable-background="new 0 0 688 670"><path fill="none" d="M0 0h688v670H0z"/><path fill="#F7F6FF" d="M254.7 195.8C366.6-3.8 597.3 246 426.2 454.4c-57.1 69.5-147.1 103.8-226.3 88C89.3 520.5-9.6 396.2 28.7 322.6s149.6 9.6 226-126.8z"/><path fill="#01D0B7" d="M469.9 435.3h-38.5c.6-1.7.9-3.5.9-5.4V238.5c0-9.1-7.4-16.5-16.5-16.5H115.4c-9.1 0-16.5 7.4-16.5 16.5v191.4c0 1.9.3 3.7.9 5.4H61.4c-2 0-3.5 1.8-3 3.7 1.7 7.3 8.2 12.8 16.1 12.8H457c7.8 0 14.4-5.4 16-12.8.4-1.9-1.1-3.7-3.1-3.7zm-175.2 3.1c0 1.1-.9 1.9-1.9 1.9h-58c-1.1 0-1.9-.9-1.9-1.9 0-1.1.9-1.9 1.9-1.9h58c1 0 1.9.9 1.9 1.9z"/><path fill="#fff" d="M416.2 425.5H115.1c-.9 0-1.5-.7-1.5-1.5V241c0-.9.7-1.5 1.5-1.5h301.1c.9 0 1.5.7 1.5 1.5v183c.1.8-.6 1.5-1.5 1.5z"/><path fill="#FF7353" d="M357.8 256.6v24.3c0 1.3 1.1 2.4 2.4 2.4h39.1c1.3 0 2.4-1.1 2.4-2.4v-29.2c0-1.3-1.1-2.4-2.4-2.4h-14.6c-1.3 0-2.4 1.1-2.4 2.4 0 1.3-1.1 2.4-2.4 2.4h-19.7c-1.3.1-2.4 1.2-2.4 2.5z"/><path fill="#8272F7" d="M298.7 256.6v24.3c0 1.3 1.1 2.4 2.4 2.4h39.1c1.3 0 2.4-1.1 2.4-2.4v-29.2c0-1.3-1.1-2.4-2.4-2.4h-14.6c-1.3 0-2.4 1.1-2.4 2.4 0 1.3-1.1 2.4-2.4 2.4h-19.7c-1.3.1-2.4 1.2-2.4 2.5z"/><path fill="#FF7353" d="M357.8 299.9v24.3c0 1.3 1.1 2.4 2.4 2.4h39.1c1.3 0 2.4-1.1 2.4-2.4V295c0-1.3-1.1-2.4-2.4-2.4h-14.6c-1.3 0-2.4 1.1-2.4 2.4 0 1.3-1.1 2.4-2.4 2.4h-19.7c-1.3.1-2.4 1.1-2.4 2.5zM298.7 299.9v24.3c0 1.3 1.1 2.4 2.4 2.4h39.1c1.3 0 2.4-1.1 2.4-2.4V295c0-1.3-1.1-2.4-2.4-2.4h-14.6c-1.3 0-2.4 1.1-2.4 2.4 0 1.3-1.1 2.4-2.4 2.4h-19.7c-1.3.1-2.4 1.1-2.4 2.5zM357.8 343.1v24.3c0 1.3 1.1 2.4 2.4 2.4h39.1c1.3 0 2.4-1.1 2.4-2.4v-29.2c0-1.3-1.1-2.4-2.4-2.4h-14.6c-1.3 0-2.4 1.1-2.4 2.4 0 1.3-1.1 2.4-2.4 2.4h-19.7c-1.3.1-2.4 1.2-2.4 2.5zM298.7 343.1v24.3c0 1.3 1.1 2.4 2.4 2.4h39.1c1.3 0 2.4-1.1 2.4-2.4v-29.2c0-1.3-1.1-2.4-2.4-2.4h-14.6c-1.3 0-2.4 1.1-2.4 2.4 0 1.3-1.1 2.4-2.4 2.4h-19.7c-1.3.1-2.4 1.2-2.4 2.5zM357.8 386.8v24.3c0 1.3 1.1 2.4 2.4 2.4h39.1c1.3 0 2.4-1.1 2.4-2.4V382c0-1.3-1.1-2.4-2.4-2.4h-14.6c-1.3 0-2.4 1.1-2.4 2.4 0 1.3-1.1 2.4-2.4 2.4h-19.7c-1.3 0-2.4 1.1-2.4 2.4zM298.7 386.8v24.3c0 1.3 1.1 2.4 2.4 2.4h39.1c1.3 0 2.4-1.1 2.4-2.4V382c0-1.3-1.1-2.4-2.4-2.4h-14.6c-1.3 0-2.4 1.1-2.4 2.4 0 1.3-1.1 2.4-2.4 2.4h-19.7c-1.3 0-2.4 1.1-2.4 2.4z"/><path fill="#DBE0DF" d="M259 381.4H127.9c-1 0-1.8-.8-1.8-1.8v-3.1c0-1 .8-1.8 1.8-1.8H259c1 0 1.8.8 1.8 1.8v3.1c0 1-.8 1.8-1.8 1.8zM243.5 395H127.9c-1 0-1.8-.8-1.8-1.8v-3.1c0-1 .8-1.8 1.8-1.8h115.6c1 0 1.8.8 1.8 1.8v3.1c0 1-.8 1.8-1.8 1.8z"/><path fill="#005779" d="M126.2 255h156.3v109H126.2z"/><path fill="#fff" d="M192.2 290.1l28 16.2c2.5 1.5 2.5 5.1 0 6.6l-28 16.2c-2.5 1.5-5.7-.4-5.7-3.3v-32.4c0-3 3.2-4.8 5.7-3.3z"/><path fill="#FFD31C" d="M140.4 478.8c0 7.4-6 13.5-13.5 13.5H71c-7.4 0-13.5-6-13.5-13.5V342c0-7.4 6-13.5 13.5-13.5h55.9c7.4 0 13.5 6 13.5 13.5v136.8z"/><path fill="#fff" d="M132.2 471.2H65.7c-.8 0-1.5-.6-1.5-1.4V349.6c0-.8.7-1.4 1.5-1.4h66.5c.8 0 1.5.6 1.5 1.4v120.2c0 .8-.7 1.4-1.5 1.4z"/><path fill="#005779" d="M133.7 391.2H64.2v-47c0-.8.7-1.5 1.5-1.5h66.5c.8 0 1.5.7 1.5 1.5v47z"/><path fill="#fff" d="M93.6 358.3l12.5 7.2c1.1.7 1.1 2.3 0 2.9l-12.5 7.2c-1.1.7-2.5-.2-2.5-1.5v-14.4c-.1-1.2 1.3-2 2.5-1.4z"/><path fill="#FF7353" d="M101.2 419.8v15c0 .8.7 1.5 1.5 1.5h24.2c.8 0 1.5-.7 1.5-1.5v-18c0-.8-.7-1.5-1.5-1.5h-9.1c-.8 0-1.5.7-1.5 1.5s-.7 1.5-1.5 1.5h-12.2c-.7 0-1.4.7-1.4 1.5z"/><path fill="#8272F7" d="M69.5 419.8v15c0 .8.7 1.5 1.5 1.5h24.2c.8 0 1.5-.7 1.5-1.5v-18c0-.8-.7-1.5-1.5-1.5h-9.1c-.8 0-1.5.7-1.5 1.5s-.7 1.5-1.5 1.5H71c-.8 0-1.5.7-1.5 1.5z"/><path fill="#FF7353" d="M101.2 447.6v15c0 .8.7 1.5 1.5 1.5h24.2c.8 0 1.5-.7 1.5-1.5v-18c0-.8-.7-1.5-1.5-1.5h-9.1c-.8 0-1.5.7-1.5 1.5s-.7 1.5-1.5 1.5h-12.2c-.7 0-1.4.7-1.4 1.5zM69.5 447.6v15c0 .8.7 1.5 1.5 1.5h24.2c.8 0 1.5-.7 1.5-1.5v-18c0-.8-.7-1.5-1.5-1.5h-9.1c-.8 0-1.5.7-1.5 1.5s-.7 1.5-1.5 1.5H71c-.8 0-1.5.7-1.5 1.5z"/><path fill="#DBE0DF" d="M127.5 404H70.4c-1 0-1.8-.8-1.8-1.8v-3.7c0-1 .8-1.8 1.8-1.8h57.1c1 0 1.8.8 1.8 1.8v3.7c0 1.1-.8 1.8-1.8 1.8z"/></svg>