<svg xmlns="http://www.w3.org/2000/svg" viewBox="0 0 550 550" enable-background="new 0 0 550 550"><path fill="#F7F6FF" d="M275.5 135.8C387.4-63.8 618.1 186 447 394.4c-57.1 69.5-147.1 103.8-226.3 88C110.1 460.5 11.1 336.2 49.5 262.6s149.6 9.6 226-126.8z"/><path fill="#01D0B7" d="M490.7 375.3h-38.5c.6-1.7.9-3.5.9-5.4V178.5c0-9.1-7.4-16.5-16.5-16.5H136.2c-9.1 0-16.5 7.4-16.5 16.5v191.4c0 1.9.3 3.7.9 5.4H82.2c-2 0-3.5 1.8-3 3.7 1.7 7.3 8.2 12.8 16.1 12.8h382.5c7.8 0 14.4-5.4 16-12.8.4-1.9-1.1-3.7-3.1-3.7zm-175.2 3.1c0 1.1-.9 1.9-1.9 1.9h-58c-1.1 0-1.9-.9-1.9-1.9 0-1.1.9-1.9 1.9-1.9h58c1 0 1.9.9 1.9 1.9z"/><path fill="#fff" d="M437 365.5H135.9c-.9 0-1.5-.7-1.5-1.5V181c0-.9.7-1.5 1.5-1.5H437c.9 0 1.5.7 1.5 1.5v183c.1.8-.6 1.5-1.5 1.5z"/><path fill="#FF7353" d="M378.6 196.6v24.3c0 1.3 1.1 2.4 2.4 2.4h39.1c1.3 0 2.4-1.1 2.4-2.4v-29.2c0-1.3-1.1-2.4-2.4-2.4h-14.6c-1.3 0-2.4 1.1-2.4 2.4 0 1.3-1.1 2.4-2.4 2.4H381c-1.3.1-2.4 1.2-2.4 2.5z"/><path fill="#8272F7" d="M319.5 196.6v24.3c0 1.3 1.1 2.4 2.4 2.4H361c1.3 0 2.4-1.1 2.4-2.4v-29.2c0-1.3-1.1-2.4-2.4-2.4h-14.6c-1.3 0-2.4 1.1-2.4 2.4 0 1.3-1.1 2.4-2.4 2.4h-19.7c-1.3.1-2.4 1.2-2.4 2.5z"/><path fill="#FF7353" d="M378.6 239.9v24.3c0 1.3 1.1 2.4 2.4 2.4h39.1c1.3 0 2.4-1.1 2.4-2.4V235c0-1.3-1.1-2.4-2.4-2.4h-14.6c-1.3 0-2.4 1.1-2.4 2.4 0 1.3-1.1 2.4-2.4 2.4H381c-1.3.1-2.4 1.1-2.4 2.5zM319.5 239.9v24.3c0 1.3 1.1 2.4 2.4 2.4H361c1.3 0 2.4-1.1 2.4-2.4V235c0-1.3-1.1-2.4-2.4-2.4h-14.6c-1.3 0-2.4 1.1-2.4 2.4 0 1.3-1.1 2.4-2.4 2.4h-19.7c-1.3.1-2.4 1.1-2.4 2.5zM378.6 283.1v24.3c0 1.3 1.1 2.4 2.4 2.4h39.1c1.3 0 2.4-1.1 2.4-2.4v-29.2c0-1.3-1.1-2.4-2.4-2.4h-14.6c-1.3 0-2.4 1.1-2.4 2.4 0 1.3-1.1 2.4-2.4 2.4H381c-1.3.1-2.4 1.2-2.4 2.5zM319.5 283.1v24.3c0 1.3 1.1 2.4 2.4 2.4H361c1.3 0 2.4-1.1 2.4-2.4v-29.2c0-1.3-1.1-2.4-2.4-2.4h-14.6c-1.3 0-2.4 1.1-2.4 2.4 0 1.3-1.1 2.4-2.4 2.4h-19.7c-1.3.1-2.4 1.2-2.4 2.5zM378.6 326.8v24.3c0 1.3 1.1 2.4 2.4 2.4h39.1c1.3 0 2.4-1.1 2.4-2.4V322c0-1.3-1.1-2.4-2.4-2.4h-14.6c-1.3 0-2.4 1.1-2.4 2.4 0 1.3-1.1 2.4-2.4 2.4H381c-1.3 0-2.4 1.1-2.4 2.4zM319.5 326.8v24.3c0 1.3 1.1 2.4 2.4 2.4H361c1.3 0 2.4-1.1 2.4-2.4V322c0-1.3-1.1-2.4-2.4-2.4h-14.6c-1.3 0-2.4 1.1-2.4 2.4 0 1.3-1.1 2.4-2.4 2.4h-19.7c-1.3 0-2.4 1.1-2.4 2.4z"/><path fill="#DBE0DF" d="M279.8 321.4H148.7c-1 0-1.8-.8-1.8-1.8v-3.1c0-1 .8-1.8 1.8-1.8h131.1c1 0 1.8.8 1.8 1.8v3.1c0 1-.8 1.8-1.8 1.8zM264.3 335H148.7c-1 0-1.8-.8-1.8-1.8v-3.1c0-1 .8-1.8 1.8-1.8h115.6c1 0 1.8.8 1.8 1.8v3.1c0 1-.8 1.8-1.8 1.8z"/><path fill="#005779" d="M147 195h156.3v109H147z"/><path fill="#fff" d="M213 230.1l28 16.2c2.5 1.5 2.5 5.1 0 6.6L213 269c-2.5 1.5-5.7-.4-5.7-3.3v-32.4c0-2.9 3.2-4.7 5.7-3.2z"/><path fill="#FFD31C" d="M161.2 418.8c0 7.4-6 13.5-13.5 13.5H91.8c-7.4 0-13.5-6-13.5-13.5V282c0-7.4 6-13.5 13.5-13.5h55.9c7.4 0 13.5 6 13.5 13.5v136.8z"/><path fill="#fff" d="M153 411.2H86.5c-.8 0-1.5-.6-1.5-1.4V289.6c0-.8.7-1.4 1.5-1.4H153c.8 0 1.5.6 1.5 1.4v120.2c0 .8-.7 1.4-1.5 1.4z"/><path fill="#005779" d="M154.5 331.2H85v-47c0-.8.7-1.5 1.5-1.5H153c.8 0 1.5.7 1.5 1.5v47z"/><path fill="#fff" d="M114.4 298.3l12.5 7.2c1.1.7 1.1 2.3 0 2.9l-12.5 7.2c-1.1.7-2.5-.2-2.5-1.5v-14.4c-.1-1.2 1.3-2 2.5-1.4z"/><path fill="#FF7353" d="M122 359.8v15c0 .8.7 1.5 1.5 1.5h24.2c.8 0 1.5-.7 1.5-1.5v-18c0-.8-.7-1.5-1.5-1.5h-9.1c-.8 0-1.5.7-1.5 1.5s-.7 1.5-1.5 1.5h-12.2c-.7 0-1.4.7-1.4 1.5z"/><path fill="#8272F7" d="M90.3 359.8v15c0 .8.7 1.5 1.5 1.5H116c.8 0 1.5-.7 1.5-1.5v-18c0-.8-.7-1.5-1.5-1.5h-9.1c-.8 0-1.5.7-1.5 1.5s-.7 1.5-1.5 1.5H91.8c-.8 0-1.5.7-1.5 1.5z"/><path fill="#FF7353" d="M122 387.6v15c0 .8.7 1.5 1.5 1.5h24.2c.8 0 1.5-.7 1.5-1.5v-18c0-.8-.7-1.5-1.5-1.5h-9.1c-.8 0-1.5.7-1.5 1.5s-.7 1.5-1.5 1.5h-12.2c-.7 0-1.4.7-1.4 1.5zM90.3 387.6v15c0 .8.7 1.5 1.5 1.5H116c.8 0 1.5-.7 1.5-1.5v-18c0-.8-.7-1.5-1.5-1.5h-9.1c-.8 0-1.5.7-1.5 1.5s-.7 1.5-1.5 1.5H91.8c-.8 0-1.5.7-1.5 1.5z"/><path fill="#DBE0DF" d="M148.3 344H91.2c-1 0-1.8-.8-1.8-1.8v-3.7c0-1 .8-1.8 1.8-1.8h57.1c1 0 1.8.8 1.8 1.8v3.7c0 1.1-.8 1.8-1.8 1.8z"/></svg>