<svg xmlns="http://www.w3.org/2000/svg" viewBox="0 0 100 100" enable-background="new 0 0 100 100"><path fill="#F4F8F7" d="M62.1 42.4c-3.1 1-6.6-.3-8.2-3.3L42.8 18.7c-1.1-2-2.8-3.4-5-4s-4.4-.4-6.4.7c-3.4 1.8-7.6.6-9.4-2.8-1.8-3.4-.6-7.6 2.8-9.4C30 .3 36.1-.4 41.8 1.3 47.5 3 52.2 6.8 55 12.1l11.1 20.4c1.8 3.4.6 7.6-2.8 9.4-.4.2-.8.4-1.2.5z"/><path fill="#FFD31C" d="M71.3 97c-17.7 7.9-37.4 2.1-46.3-17.7s.1-38.4 17.7-46.3 36.6.9 44.4 18.6S96.2 85.9 71.3 97z"/><path fill="#FFF3C1" d="M89.6 52c-7.3-16.5-23.9-25.1-37.1-19.2C39.4 38.6 34.7 56.7 42 73.2c7.3 16.5 23.9 25.1 37.1 19.2C92.2 86.6 96.9 68.5 89.6 52zM78.5 73.4c-7.4 3-16.2 1.9-20-7.9s1.6-16.6 9-19.6 12.7 1.3 16 9.4c3.2 8.2 2.5 15.1-5 18.1z"/><ellipse transform="matrix(.928 -.372 .372 .928 -15.951 32.929)" fill="#fff" cx="77.5" cy="57.9" rx="10.8" ry="13.6"/><path fill="#F4F8F7" d="M32.8 52.6c-3.1 1-6.6-.3-8.2-3.3l-8.7-16.1C13 28 12.4 22 14.1 16.3c1.7-5.7 5.5-10.4 10.7-13.2 3.4-1.8 7.6-.6 9.4 2.8 1.8 3.4.6 7.6-2.8 9.4-2 1.1-3.4 2.8-4 5-.6 2.1-.4 4.4.7 6.4l8.7 16.1c1.8 3.4.6 7.6-2.8 9.4-.4.1-.8.3-1.2.4z"/><path fill="#FFD31C" d="M46.5 52.9c.2.1.5.1.7 0 .3-.1.5-.3.6-.6.2-.5 0-1.1-.6-1.3l-6.5-2.6c-.3-.1-.7-.1-1 .2-.1.4-.2.8-.3 1.1.1.2.3.4.5.5l6.6 2.7zm8.4-21v.1l2.9 6.4c.2.5.7.7 1.2.5h.1c.5-.2.7-.8.5-1.3l-2.8-6.3c-.6.2-1.3.4-1.9.6zm35.8 39.8c-.5-.3-1.1-.1-1.3.4-.3.5-.1 1.1.4 1.3l2.6 1.4c.1-.7.3-1.4.4-2.1l-2.1-1zm-11.1 12c-.5.2-.8.8-.6 1.3l2.4 6.1c.6-.4 1.1-.7 1.7-1.2l-2.2-5.7c-.2-.4-.8-.6-1.3-.5zm-31.2-13l-6.2 3 .9 1.8 6.2-3c.5-.2.7-.8.5-1.3-.3-.5-.9-.7-1.4-.5zm23.3-32c-.1.5.2 1.1.7 1.2h.5c.3-.1.6-.4.7-.7l1-4.3c-.6-.4-1.2-.7-1.8-1l-1.1 4.8zM60.3 84.8L57.9 91l1.8.9 2.5-6.3c.2-.5-.1-1.1-.6-1.3-.5-.3-1.1-.1-1.3.5z"/><ellipse transform="matrix(.104 -.995 .995 .104 -4.987 37.69)" fill="#fff" cx="18.4" cy="21.6" rx="5.3" ry="2"/></svg>