<svg xmlns="http://www.w3.org/2000/svg" viewBox="0 0 940 670" enable-background="new 0 0 940 670"><path clip-rule="evenodd" stroke="#8E80FF" stroke-width="6" stroke-linecap="round" stroke-miterlimit="10" fill="none" d="M470 33.2v74.7M470 145.2c128.1 0 232 103.9 232 232s-103.9 232-232 232-232-103.9-232-232c0-92.9 54.6-173.1 133.6-210.1"/><circle fill-rule="evenodd" clip-rule="evenodd" fill="#8E80FF" cx="470" cy="145.2" r="72"/><ellipse transform="matrix(.309 -.951 .951 .309 -118.209 448.218)" fill-rule="evenodd" clip-rule="evenodd" fill="#8E80FF" cx="249.4" cy="305.5" rx="72" ry="72"/><ellipse transform="matrix(.588 -.809 .809 .588 -319.439 502.752)" fill-rule="evenodd" clip-rule="evenodd" fill="#8E80FF" cx="333.6" cy="564.8" rx="72" ry="72"/><ellipse transform="matrix(.809 -.588 .588 .809 -216.201 464.289)" fill-rule="evenodd" clip-rule="evenodd" fill="#8E80FF" cx="606.4" cy="564.8" rx="72" ry="72"/><ellipse transform="matrix(.951 -.309 .309 .951 -60.59 228.371)" fill-rule="evenodd" clip-rule="evenodd" fill="#8E80FF" cx="690.6" cy="305.5" rx="72" ry="72"/><text transform="translate(423.355 137.596)"><tspan x="0" y="0" fill="#fff" font-family="'IstokWeb-Bold'" font-size="20">What do I</tspan><tspan x="-2.4" y="26" fill="#fff" font-family="'IstokWeb-Bold'" font-size="20">complete?</tspan></text><text transform="translate(638.076 297.904)"><tspan x="0" y="0" fill="#fff" font-family="'IstokWeb-Bold'" font-size="20">Where do I</tspan><tspan x="-6.5" y="26" fill="#fff" font-family="'IstokWeb-Bold'" font-size="20">complete it?</tspan></text><text transform="translate(568.022 557.288)"><tspan x="0" y="0" fill="#fff" font-family="'IstokWeb-Bold'" font-size="20">When is</tspan><tspan x="5.6" y="26" fill="#fff" font-family="'IstokWeb-Bold'" font-size="20">it due?</tspan></text><text transform="translate(295.118 557.288)"><tspan x="0" y="0" fill="#fff" font-family="'IstokWeb-Bold'" font-size="20">How did</tspan><tspan x="15" y="26" fill="#fff" font-family="'IstokWeb-Bold'" font-size="20">I do?</tspan></text><text transform="translate(208.53 297.904)"><tspan x="0" y="0" fill="#fff" font-family="'IstokWeb-Bold'" font-size="20">How can</tspan><tspan x="-8.4" y="26" fill="#fff" font-family="'IstokWeb-Bold'" font-size="20">I improve?</tspan></text><path clip-rule="evenodd" fill="none" d="M341.5 326.7h257v121h-257z"/><text transform="translate(356.287 346.839)"><tspan x="0" y="0" fill="#3E4B4B" font-family="'IstokWeb-Bold'" font-size="28">Help students get</tspan><tspan x="18.4" y="32" fill="#3E4B4B" font-family="'IstokWeb-Bold'" font-size="28">answers to the</tspan><tspan x="18.1" y="64" fill="#3E4B4B" font-family="'IstokWeb-Bold'" font-size="28">right questions</tspan></text><path fill-rule="evenodd" clip-rule="evenodd" fill="#8E80FF" d="M352.6 206.2l-24.9-39.9c-2.2-3.5.6-8 4.7-7.6l38.4 3.8c3.3.3 5.3 3.7 4.2 6.7l-13.6 36.2c-1.3 3.8-6.6 4.4-8.8.8z"/></svg>