<svg xmlns="http://www.w3.org/2000/svg" viewBox="0 0 760 466" enable-background="new 0 0 760 466"><path fill="#8372F8" d="M63.1 466.6c98.1-18 54.7-45.7 76.9-102 25-63.3 89.2-20.2 123.9 25.5 46.5 61.2 105.7.5 66.3-62.5C209.9 134.7 510 91 597.6 191.1c82.1 93.7-94.5 238 53.1 221.9 73.2-8 43.9 53.7 104.3 53.7H63.1zM276.1.6c125.8 13.9 79.4 32.9 40.6 72.2s70.5 58.7 112.4-18.7 154.1 44 223.1-9.3S703.6 58 755.6.6H276.1zM208.5 49.3c16.2 42.8-28.2 45.2-49.9 91.8-47.2 101.4 73.9 111.8 56.2 39.8-20.6-83.8 29.2-72.4 47.4-90 40.9-39.3-73.4-93.8-53.7-41.6z"/><g fill="#fff"><circle cx="72.1" cy="415.9" r="3"/><circle cx="198" cy="148.2" r="3"/><circle cx="691.7" cy="86.6" r="3"/><circle cx="688.7" cy="394.6" r="3"/><circle cx="396.4" cy="319.1" r="3"/><circle cx="315" cy="400.6" r="3"/><circle cx="396.4" cy="28.2" r="3"/><circle cx="139.5" cy="61.9" r="3"/><circle cx="319.5" cy="170.9" r="3"/><circle cx="581.2" cy="274.1" r="3"/></g><g fill="#BCB4FF"><circle cx="394.4" cy="225.1" r="1.5"/><circle cx="396.4" cy="97.9" r="1.5"/><circle cx="353.1" cy="140.6" r="1.5"/><circle cx="648.4" cy="96.1" r="1.5"/><circle cx="579.7" cy="88.1" r="1.5"/><circle cx="721.1" cy="235.4" r="1.5"/><circle cx="519.7" cy="38.1" r="1.5"/><circle cx="465.4" cy="12.2" r="1.5"/><circle cx="669.7" cy="23.7" r="1.5"/><circle cx="142.5" cy="38.1" r="1.5"/><circle cx="260.4" cy="50.8" r="1.5"/><circle cx="353.1" cy="72.8" r="1.5"/><circle cx="239.7" cy="211.4" r="1.5"/><circle cx="274.4" cy="127.4" r="1.5"/><circle cx="301.7" cy="370.8" r="1.5"/><circle cx="371.1" cy="314.1" r="1.5"/><circle cx="417.1" cy="370.1" r="1.5"/><circle cx="361.1" cy="402.1" r="1.5"/><circle cx="262.4" cy="278.8" r="1.5"/><circle cx="654.4" cy="298.1" r="1.5"/><circle cx="662.4" cy="250.1" r="1.5"/><circle cx="556.4" cy="328.1" r="1.5"/><circle cx="639.2" cy="383.9" r="1.5"/><circle cx="705.2" cy="361.3" r="1.5"/><circle cx="679.2" cy="433.3" r="1.5"/><circle cx="568.6" cy="394.6" r="1.5"/><circle cx="474.6" cy="432.6" r="1.5"/><circle cx="401.9" cy="433.9" r="1.5"/><circle cx="261.9" cy="424.6" r="1.5"/><circle cx="130.3" cy="194.2" r="1.5"/><circle cx="73.6" cy="124.9" r="1.5"/><circle cx="161.6" cy="134.9" r="1.5"/><circle cx="754.4" cy="74.3" r="1.5"/><circle cx="608.4" cy="451.3" r="1.5"/><circle cx="193.5" cy="94" r="1.5"/><circle cx="112.8" cy="150.7" r="1.5"/><circle cx="184.1" cy="234" r="1.5"/><ellipse transform="matrix(.707 -.707 .707 .707 -236.14 200.621)" cx="124.1" cy="385.4" rx="1.5" ry="1.5"/><ellipse transform="matrix(.707 -.707 .707 .707 -167.671 112.626)" cx="52.1" cy="258.7" rx="1.5" ry="1.5"/><ellipse transform="matrix(.707 -.707 .707 .707 -239.247 239.789)" cx="169.8" cy="408.7" rx="1.5" ry="1.5"/><ellipse transform="matrix(.707 -.707 .707 .707 -190.425 237.921)" cx="192" cy="348.8" rx="1.5" ry="1.5"/><ellipse transform="matrix(.707 -.707 .707 .707 -170.086 153.271)" cx="100" cy="281.9" rx="1.5" ry="1.5"/><ellipse transform="matrix(.707 -.707 .707 .707 -159.429 213.756)" cx="178.3" cy="299.3" rx="1.5" ry="1.5"/></g><path fill="#BCB4FF" d="M84.9 302.6c-.4 0-.8-.3-1-.7-5.7-19.5 19.8-46.7 71.7-76.6 51.6-29.7 123.2-58.7 201.7-81.6 78.5-22.9 154.4-37.1 213.9-39.9 59.9-2.8 96 6.4 101.7 25.9.2.5-.1 1.1-.7 1.2-.5.2-1.1-.1-1.2-.7-5.3-18.3-41.7-27.2-99.7-24.5-59.3 2.8-135.1 16.9-213.4 39.8S208.1 197.4 156.6 227c-50.3 29-76.1 56.1-70.8 74.3.2.5-.1 1.1-.7 1.2 0 .1-.1.1-.2.1zM672.1 302h-.3c-.5-.2-.8-.7-.7-1.2 5.3-18.3-20.6-45.3-70.9-74.2-51.5-29.5-123-58.3-201.4-81-78.4-22.7-154.2-36.7-213.5-39.4-58-2.6-94.3 6.4-99.6 24.7-.2.5-.7.8-1.2.7-.5-.2-.8-.7-.7-1.2 5.7-19.5 41.8-28.8 101.6-26.1 59.4 2.7 135.4 16.7 213.9 39.5s150.2 51.6 201.8 81.2c52 29.8 77.5 57 71.9 76.5-.1.2-.5.5-.9.5zM138.6 282.7c-.4 0-.8-.3-1-.7-4-13.5 17.3-33.4 59.9-56 42.2-22.4 100.4-44.9 163.8-63.4 63.4-18.6 124.6-30.9 172.2-34.8 48-3.9 76.7 1.4 80.6 14.9.2.5-.1 1.1-.7 1.2-.5.2-1.1-.1-1.2-.7-3.6-12.4-32.2-17.3-78.6-13.5-47.5 3.9-108.5 16.2-171.8 34.7-63.3 18.5-121.4 41-163.4 63.3-41.1 21.8-62.5 41.3-58.9 53.7.2.5-.1 1.1-.7 1.2 0 .1-.1.1-.2.1zM180.2 266.8c-.4 0-.8-.3-1-.7-3-10.1 26.6-25.9 51.9-37.3 35.3-16 83.4-33.1 135.4-48.4 96.2-28.1 198.8-46.6 204-28.8.2.5-.1 1.1-.7 1.2-.5.2-1.1-.1-1.2-.7-3.7-12.8-85.6-3.8-201.5 30.1-52 15.2-100 32.3-135.2 48.3-33.7 15.3-52.7 28.3-50.8 34.9.2.5-.1 1.1-.7 1.2 0 .2-.1.2-.2.2z"/><path fill="#FFD31C" d="M343.2 466.6c.4-3.4.5-6.5.5-9.4 0 0 17-38.9 25.7-73.2 2.4.2 5 .3 7.7.3 2.4 0 4.6-.1 6.8-.2 3.7 18.6 9.3 29.2 26.7 73.1-.1 2.9.1 6 .5 9.4H429l-1.6-10.3-6.7-97.1-2.9.2c-.9-27.1-6.1-35.2-6.1-35.2h-69.2s-5.2 8.2-6.1 35.2l-2.9-.2-6.7 97.1c-.9 3.4-1.7 6.9-2.4 10.3h18.8z"/><path fill="#005779" d="M376.9 288c24.6 0 59.8-20.1 53.7-37s18-21.5 18-38.6-17.9-20.7-4.4-33.5c10.8-10.3-7.7-21.8-6.3-34.5 3.6-32.8-26.4-63.8-61-63.8s-64.6 31-61 63.8c1.4 12.7-17.1 24.3-6.3 34.5 13.4 12.8-4.4 16.4-4.4 33.5s24.2 21.8 18 38.6 29.2 37 53.7 37z"/><path fill="#FFF3C1" d="M416 150.4c0 31.1-25.3 41.1-39.1 41.1s-39.1-10-39.1-41.1c0-23.9 15.2-43.2 39.1-43.2 23.9 0 39.1 19.4 39.1 43.2z"/><path fill="#005779" d="M398.1 110.8c-3.6 26.4-26.2 8.4-38.6 29.3-8.6 14.5-21.3 22.7-30.4 15.8 4.9-27.1 23-70.1 69-45.1z"/><path fill="#FFD31C" d="M376.9 141.2l-8.7 20.8h17.5z"/><path fill="#FFF3C1" d="M384.4 195.7l-1.7-18.1c-.3-3-2.8-5.3-5.8-5.3s-5.5 2.3-5.8 5.3l-1.7 18.1c-.4 4.2-3.6 7.6-7.8 8.3-19.9 2.9-31.3 13.9-31.3 13.9l46.6 33.8 46.6-33.8s-11.4-11-31.3-13.9c-4.2-.7-7.4-4.1-7.8-8.3zM450.1 279.5l-24.9 41.3 6.8 4.1 36.9-46.1-23.4-42.3c-15.9-19-35.3-28.3-33.9-15.1 1.8 19.1 38.5 58.1 38.5 58.1z"/><g fill="#08D0B7"><path d="M418.8 210.3s14 6 26.7 20.5c14.4 16.5 26.2 44.6 26.2 44.6l-13.9 11.1s-17.3-13.3-37.3-35.3c-20.1-22-1.7-40.9-1.7-40.9zM456.8 272.4c-12.2 7.4-17.3 22.2-17.3 22.2l16.4 8.4 15.9-27.5c-.1-.1-5.9-9.8-15-3.1z"/></g><path fill="#FFF3C1" d="M303.8 279.5l24.9 41.3-6.8 4.1-36.9-46.1 23.4-42.3c15.9-19 35.3-28.3 33.9-15.1-1.9 19.1-38.5 58.1-38.5 58.1z"/><g fill="#08D0B7"><path d="M335.1 210.3s-14 6-26.7 20.5c-14.4 16.5-26.2 44.6-26.2 44.6l13.9 11.1s17.3-13.3 37.3-35.3 1.7-40.9 1.7-40.9zM297.1 272.4c12.2 7.4 17.3 22.2 17.3 22.2L298 303l-15.9-27.5c0-.1 5.9-9.8 15-3.1z"/></g><path fill="#08D0B7" d="M376.9 374c-27.2 0-46.8-12.4-46.8-12.4 6.5-36.7 13-59.3 4.9-151.3 0 0 8.3-4.6 21.3-7.9 0 0 6 14 20.5 14s20.5-14 20.5-14c13.1 3.3 21.3 7.9 21.3 7.9-8.1 92-1.6 114.6 4.9 151.3.2 0-19.4 12.4-46.6 12.4z"/><path fill="#FFF3C1" d="M406.8 321.1c-5.6 9.6 1.1 15.4 5.9 11.1 4.8-4.3 3-2.7 8.5-2.1 5.3.6 7.7-1.5 10.5-5 3.2-4-2.8-3.5-4.2-4.4-7.2-4.2-15.1-9.3-20.7.4zM347 321.1c5.6 9.6-1.1 15.4-5.9 11.1-4.8-4.3-3-2.7-8.5-2.1-5.3.6-7.7-1.5-10.5-5-3.2-4 2.8-3.5 4.2-4.4 7.3-4.2 15.2-9.3 20.7.4z"/><ellipse transform="matrix(.969 -.247 .247 .969 -41.617 100.335)" cx="378.4" cy="215.8" rx="28.4" ry="28.4" fill="none"/><path fill="#fff" d="M165.5 328.2c-47.8 0-76.5-9.2-81.6-26.4-.2-.5.1-1.1.7-1.2.5-.2 1.1.1 1.2.7 5.3 18.3 41.7 27.2 99.7 24.5 59.3-2.8 135.1-16.9 213.4-39.8s149.8-51.8 201.2-81.4c50.3-29 76.1-56.1 70.8-74.3-.2-.5.1-1.1.7-1.2.5-.2 1.1.1 1.2.7 5.7 19.5-19.8 46.7-71.7 76.6-51.6 29.7-123.2 58.7-201.7 81.6-78.4 22.8-154.3 37-213.8 39.8-7 .3-13.7.4-20.1.4zM590.8 327.8c-6.1 0-12.6-.2-19.4-.5-59.4-2.7-135.4-16.7-213.9-39.5s-150.2-51.6-201.8-81.2c-52-29.8-77.5-57-71.9-76.5.2-.5.7-.8 1.2-.7.5.2.8.7.7 1.2-5.3 18.3 20.6 45.3 70.9 74.2 51.5 29.5 123 58.3 201.4 81 78.4 22.7 154.2 36.7 213.5 39.4 58 2.6 94.3-6.4 99.6-24.7.2-.5.7-.8 1.2-.7.5.2.8.7.7 1.2-5 17.6-34 26.8-82.2 26.8zM190 298.1c-30.9 0-49.2-5.5-52.4-16.2-.2-.5.1-1.1.7-1.2.5-.2 1.1.1 1.2.7 3.6 12.4 32.2 17.3 78.6 13.5 47.5-3.9 108.5-16.2 171.8-34.7 63.3-18.5 121.4-41 163.4-63.3 41.1-21.8 62.5-41.3 58.9-53.7-.2-.5.1-1.1.7-1.2.5-.2 1.1.1 1.2.7 4 13.5-17.3 33.4-59.9 56-42.2 22.4-100.4 44.9-163.8 63.4-63.4 18.5-124.5 30.9-172.1 34.8-10.3.8-19.8 1.2-28.3 1.2z"/><ellipse transform="matrix(.603 -.798 .798 .603 37.527 462.763)" fill="#985053" cx="483.5" cy="193.7" rx="15.3" ry="15.3"/><path fill="#EF511C" d="M486.7 178.8c-5.6-1.2-11.6.8-15.3 5.7-3.7 4.9-4 11.2-1.3 16.3 5.6 1.2 11.6-.8 15.3-5.7 3.6-4.9 3.9-11.3 1.3-16.3z"/><ellipse transform="matrix(.603 -.798 .798 .603 71.207 471.274)" fill="#0163E5" cx="508.9" cy="164.1" rx="6.2" ry="6.2"/><path fill="#08D0B7" d="M510.2 158.1c-2.3-.5-4.7.3-6.2 2.3-1.5 2-1.6 4.5-.5 6.6 2.3.5 4.7-.3 6.2-2.3 1.4-2 1.6-4.6.5-6.6z"/><path fill="#fff" d="M203.2 273.1c-13.8 0-22.5-2.2-23.9-7-.2-.5.1-1.1.7-1.2.5-.2 1.1.1 1.2.7 3.7 12.8 85.6 3.8 201.5-30.1 52-15.2 100-32.3 135.2-48.3 33.7-15.3 52.7-28.3 50.8-34.9-.2-.5.1-1.1.7-1.2.5-.2 1.1.1 1.2.7 3 10.1-26.6 25.9-51.9 37.3-35.3 16-83.4 33.1-135.4 48.4-70 20.3-143.3 35.6-180.1 35.6z"/><ellipse transform="matrix(1 -.033 .033 1 -3.367 5.579)" fill="#FFF3C1" cx="166.8" cy="104.5" rx="8.3" ry="8.3"/><path fill="#664D4E" d="M164.5 110.4c-.2-4.6 3.5-8.4 8-8.6.7 0 1.5.1 2.1.2-1.1-3.5-4.4-6-8.2-5.9-4.6.2-8.2 4-8 8.6.1 3.9 2.9 7 6.5 7.8-.2-.6-.3-1.3-.4-2.1z"/><ellipse transform="matrix(1 -.033 .033 1 -6.828 7.798)" fill="#1DBAFF" cx="232.1" cy="210.1" rx="12.5" ry="12.5"/><path fill="#0163E5" d="M236.1 219.6c-5-4.7-5.3-12.6-.6-17.7 1-1 2.1-1.8 3.2-2.5-5-3.1-11.6-2.4-15.8 2.1-4.7 5-4.5 13 .6 17.7 4 3.8 9.9 4.4 14.5 1.9-.7-.4-1.3-.9-1.9-1.5z"/><path fill="#FFE884" d="M155.6 260.7c.8-2 10.4-.1 21.6 4.2s19.5 9.5 18.7 11.5l17.6 8.1c1.8-4.7-13.7-15.2-34.8-23.4s-39.7-11.1-41.5-6.4l18.4 6z"/><ellipse transform="matrix(.036 -.999 .999 .036 -99.268 433.95)" fill="#FF7353" cx="175.4" cy="268.4" rx="18.8" ry="18.8"/><path fill="#EF511C" d="M186.4 276c-7.8-.3-14-6.7-13.7-14.4.2-4.9 3-9.2 7.1-11.5-1.2-.3-2.5-.5-3.8-.5-10.4-.4-19.1 7.7-19.5 18.1-.4 10.4 7.7 19.1 18.1 19.5 8.4.3 15.8-5 18.4-12.6-1.9 1-4.2 1.5-6.6 1.4z"/><path fill="#FFF3C1" d="M155.6 260.7c-.8 2 7.6 7.2 18.7 11.5s20.8 6.2 21.6 4.2c0 0 2.2-.8 9.1 2.3s8.5 5.8 8.5 5.8c-1.8 4.7-20.4 1.9-41.5-6.4s-36.7-18.7-34.8-23.4c0 0 3.2-1.5 10 .8 6.8 2.4 8.4 5.2 8.4 5.2z"/><ellipse transform="matrix(1 -.033 .033 1 -5.997 20.723)" fill="#0163E5" cx="622.8" cy="191.4" rx="15.3" ry="15.3"/><path fill="#1DBAFF" d="M607.5 191.9c.1 2.5.8 4.9 1.9 6.9 8.1-.6 14.4-7.5 14.2-15.7-.1-2.5-.8-4.9-1.9-6.9-8.2.6-14.5 7.5-14.2 15.7z"/><path fill="none" d="M0 .6h760v466H0z"/></svg>