<svg xmlns="http://www.w3.org/2000/svg" viewBox="0 0 688 670" enable-background="new 0 0 688 670"><path fill="#DDF4FF" d="M580.6 319.2s30.1-70.8 5-78.1c-25.1-7.3-39 1.7-37.4 25.7 1.7 24-1.1 31.2-35.7 30.7-34.6-.6-190.8-38.5-225.3-32.4-34.6 6.1 63 34.6 122.7 39.6s-2.2 50.8-74.7 63c-72.5 12.3-113.8 80.9-51.3 101.5 62.5 20.6 36.8-40.7 140.6-32.9 103.7 7.8 229.8 78.6 227 12.3-2.8-66.4-87-41.3-87-41.3s99.4 4.5 87.1-39.6c-12.4-44-71-48.5-71-48.5z"/><path fill="#333131" d="M669.2 260.2s-139-12.6-261.5 27.8c0 0-66.9 24.5 7.9 49.6 74.8 25.2 39.1 35.7-2 44.4-41 8.6-133.7-.7-209.2 62.2h385.3s-56.3-20.5-23.8-29.1c32.4-8.6 111.9-14.6 94-59.6-17.9-45-134.4-33.8-134.4-33.8s-73.5-13.9 7.3-35.1c80.8-21.1 136.4-26.4 136.4-26.4z"/><path stroke="#595353" stroke-miterlimit="10" d="M630.7 260.7c-47.8 2.1-106.6 9-162 27.3 0 0-66.9 24.5 7.9 49.6 74.8 25.2 122.3 35.7 81.2 44.4-32.8 6.9-98.8 2.3-162.5 32.5" fill="none"/><path fill="#CEE043" d="M415.7 263c0-11.2-9.1-20.3-20.3-20.3-11.2 0-20.3 9.1-20.3 20.3l20.3 30.4 20.3-30.4z"/><circle fill="#97AB00" cx="395.3" cy="259.8" r="12.9"/><path fill="#fff" d="M403.7 260c0 4.7-3.8 8.5-8.5 8.5s-8.5-3.8-8.5-8.5 3.8-8.5 8.5-8.5v8.5h8.5zM404.2 259c-.3-4.3-3.8-7.7-8.1-8v8h8.1z"/><path fill="#CEE043" d="M676.3 343.3c0-21-17-38-38-38s-38 17-38 38l38 57.1 38-57.1z"/><circle fill="#97AB00" cx="638.2" cy="337.3" r="24.2"/><path fill="#fff" d="M622.7 333.8h5.9v17.4h-5.9zM632.9 325.6h5.9v25.5h-5.9zM643.1 321.5h5.9v29.6h-5.9z"/><path fill="#CEE043" d="M680.5 243.5c0-6.3-5.1-11.4-11.4-11.4-6.3 0-11.4 5.1-11.4 11.4l11.4 17 11.4-17z"/><circle fill="#97AB00" cx="669.1" cy="241.8" r="7.2"/><path fill="#fff" d="M662.6 243.7l.5.6 2.7-1.8 4 1.2 4.3-3.3.4.5.6-1.7h-1.9l.5.6-4 3-4.1-1.2z"/><path fill="#CEE043" d="M259.4 361.9c0-28.8-23.4-52.2-52.2-52.2-28.8 0-52.2 23.4-52.2 52.2l52.2 78.4 52.2-78.4z"/><circle fill="#97AB00" cx="207" cy="353.7" r="33.2"/><path fill="#fff" d="M208.7 336h-15.2v13.1s2.1 7.9 9.2 7.9 0 14.3 0 14.3h9.7s-7.1-14.3 0-14.3 9.2-7.9 9.2-7.9V336h-12.9zM199.3 370.5h16.4v4.7h-16.4zM199.9 355.7h-1.1c-9.4 0-10-6.8-10-6.8V338h11.1v17.7zm-8.9-15.4v8.6c0 .1.4 4.2 6.7 4.6v-13.2H191zM215.7 355.7h-1.1V338h11.1v10.8c0 .2-.6 6.9-10 6.9zm1.1-15.4v13.2c6.3-.4 6.7-4.7 6.7-4.7v-8.5h-6.7z"/><path fill="#5C983A" d="M414.7 347.2s3.2 3.6 3.8 5.6c0 0-4.4-6-5.4-6.8-.1 0 1.3.9 1.6 1.2z"/><path fill="#6BB346" d="M454.3 354.7c.7-2.2 1.1-5.7-.9-9.2-2.3-3.9-5-4.7-6.5-4.7-2-3.5-4.9-6.7-8.7-7.3-8.8-1.4-8.4 7.8-8.4 7.8s-3.9-3.4-11.3-3.3c-7.4.1-3.7 9.2-3.7 9.2s-4.1-4.3-10.8-1.2c-6.6 3.1 2.7 8-2 9.8-4.7 1.8-5.1 13.5-.8 21.7 4.2 8.1 34.3-3 49.5-7.5 9.7-2.9 6.8-10.3 3.6-15.3z"/><path fill="#5C983A" d="M429.7 341.3s-.7 5.5-.3 8.8c0 0-.8-7.1-.2-9.3l.5.5zM401.9 355.8s6.1-1 8.7 1.9c0 0-6.9-2.4-10-1 0 0 .5-.6 1.3-.9zM416 346.2s6.1-1 8.7 1.9c0 0-6.9-2.4-10-1 0 0 .5-.6 1.3-.9zM453 354.3s-5.8-5-11.1-1.2-11.2-2.5-16.2 4.2v.4s3.8-3.7 9.1-2.3c5.3 1.4 9.4-2.3 9.4-2.3s3.9-1.9 8.8 1.2zM400.6 368.1s4.1-4.9 11-1.9c0-.1-7.5-1.4-11 1.9zM435.2 339.1s7.8-3.7 11.7 1.8c0 0-5.4-4.3-11.7-.7v-1.1zM575.3 248.8s.7 1.3.8 2c0 0-.9-2.1-1.2-2.4 0 0 .4.3.4.4z"/><path fill="#6BB346" d="M586.8 253.8c.3-.6.7-1.7.3-2.9-.4-1.4-1.2-1.8-1.7-1.9-.4-1.2-1-2.4-2.2-2.8-2.6-1-3.1 1.8-3.1 1.8s-1-1.3-3.2-1.8c-2.3-.5-1.7 2.5-1.7 2.5s-1-1.6-3.2-1.1.3 2.6-1.3 2.8c-1.5.2-2.5 3.8-1.7 6.5.7 2.8 10.6 1.4 15.5 1.1 3.4 0 3-2.5 2.3-4.2z"/><path fill="#5C983A" d="M580.3 248.1s-.6 1.6-.7 2.7c0 0 .2-2.2.6-2.8l.1.1zM570.9 250.6s1.9.1 2.5 1.2c0 0-1.9-1.2-3-1 0 0 .2-.2.5-.2zM575.8 248.6s1.9.1 2.5 1.2c0 0-1.9-1.2-3-1 .1 0 .2-.1.5-.2zM586.5 253.6s-1.4-1.9-3.3-1.1c-1.9.8-3.2-1.5-5.2.2v.1s1.4-.9 2.9-.1 3 0 3 0 1.3-.4 2.6.9zM569.6 254.2s1.6-1.2 3.5.2c0 0-2.2-.9-3.5-.2zM582.1 247.8s2.6-.6 3.4 1.3c0 0-1.3-1.7-3.5-1l.1-.3z"/><path fill="#DC595D" d="M481.7 255.8l18.5 33s7.6 14.6 16.7 23.2 17.6 0 17.6 0l2.5-8.1V274.7l-2-5.5v-19.4l-2.6-4.2-5.3-4.2s-15.7-7.1-30.5-7.5c-14.8-.4-15.4 5.2-15.4 5.2l.5 16.7z"/><path fill="#A79899" d="M563.6 265.6l12.6 27.2s5.6 2 5.4 5.7c-.1 3.7-3.7 6.8-5.9 6.8s-7.6-1-5.5-9.1l.8-1.8-15.3-22.1 7.9-6.7zM477.5 213.7s.9 14 4.2 19.8c0 0 4.5 3 8.1 3.3l.9 10 1.1 7.9 2.2 39.7 11.1-1.9 4.9-41-1.2-12.4-.8-15.2-3.2-14.9-13-6-14.3 10.7z"/><path fill="#231F20" d="M469.1 390.1l-2 11.6s-30.6 4.5-30.3-5.8c.3-10.3 20.3-5.6 20.3-5.6l2.5-2.8s8.4-1.6 9.5 2.6z"/><path fill="#F3AEA1" d="M497 326.1l12.7 30s4.2 12.8 19.1 8.6c14.9-4.1 40.9-21.6 40.9-21.6l-5-8.5s-33.3 8-35.9 9c-2.6 1-5.2-22.3-5.2-22.3l-26.6 4.8z"/><path fill="#FFB7A5" d="M524.9 309.3s5.5 13.2-12.2 20.4c-17.8 7.3-30.5 17.3-30.5 17.3l-13.8 45.6s-5.6 1.9-11.2-3.3l8.9-56.5s26.6-17.4 28-23.6c1.3-6.1 30.8.1 30.8.1z"/><path fill="#231F20" d="M564.7 334.6s0-5.3 5-4.5c5 .8 24 19 21.1 24.8-2.9 5.8-21.1-11.7-21.1-11.7l-5-8.6z"/><circle fill="#08D0B7" cx="491.7" cy="265.6" r="1.2"/><circle fill="#08D0B7" cx="492.2" cy="272.3" r="1.2"/><path fill="#F0EBEC" d="M481.1 239.1l-28.7 16.5-4.8-1.4s4.3 9-1.3 15.1c0 0 2.6 2.1 7.3.3l20.3-7.8 16 51.2 6.4-1 .2-1.7.5 1.4 27.4 3.7 2.2-32.7.9-12.3 20.9-.5 3.9 5.2s11.2-3.3 12.4-9.9l-4.5-7.6-47.6-17.6-4.5-1.5-13.5 7-2.1 5.7-3.9-12h-7.5z"/><path fill="#A79899" d="M448.1 255.2l-20.8-8.8s-10-10.8-15.3-3.6c-5.3 7.2 7.9 9.1 10.4 8.3L448 269c.1 0 6.2-7 .1-13.8z"/><path fill="#08D0B7" d="M489.4 239.2l3.6 6.4-2.6 4.2-2.3-10.7.7.1zM509.6 236.8l-15.7 9.1 3.1 8.3 15.6-15.7z"/><path fill="#231F20" d="M525.9 214.9c1.3-.7 2.2-2.1 2.2-3.7 0-2-1.4-3.7-3.3-4.1.6-.7 1-1.7 1-2.7 0-2.1-1.6-3.8-3.6-4.1l-.3-1.2c.3-.6.5-1.2.5-1.9 0-2.3-1.9-4.1-4.1-4.1-.8 0-1.5.2-2.2.6.5-.7.9-1.6.9-2.5 0-2.3-1.9-4.1-4.1-4.1-.6 0-1.2.2-1.8.4-.1-2.2-1.9-4-4.1-4-1.3 0-2.5.6-3.3 1.6-.5-1.7-2.1-3-4-3-1.1 0-2.2.5-2.9 1.2-.7-.7-1.8-1.2-2.9-1.2-1.8 0-3.2 1.1-3.9 2.6-.8-.8-1.8-1.2-2.9-1.2-2.3 0-4.1 1.9-4.1 4.1v.5c-.7-.5-1.6-.9-2.5-.9-2 0-3.6 1.4-4 3.2h-.1c-2.3 0-4.1 1.9-4.1 4.1 0 .3.1.7.1 1h-.1c-2.3 0-4.1 1.9-4.1 4.1 0 .8.2 1.5.6 2.1-1.5.6-2.5 2.1-2.5 3.8 0 1.5.8 2.8 2 3.6-.1.3-.1.6-.1 1 0 2.3 1.9 4.1 4.1 4.1.3 0 .5 0 .8-.1.8 1 1.9 1.6 3.3 1.6 1.5 0 2.8-.8 3.5-2 .6.3 1.2.5 1.9.5 1.4 0 2.6-.7 3.3-1.7.6 1.6 2.1 2.7 3.9 2.7.2 0 .4 0 .6-.1 1.1 1.3 2.7 2.1 4.4 2.1 1.4 0 2.6-.5 3.6-1.3.5 1.1 1.6 2 2.8 2.3-.4.6-.6 1.3-.6 2.1 0 1.3.6 2.4 1.5 3.1-.2.5-.4 1.1-.4 1.7 0 1.4.7 2.6 1.7 3.3-.8.8-1.3 1.8-1.3 3 0 1.8 1.1 3.3 2.7 3.9.3 2 2 3.6 4.1 3.6 1.3 0 2.4-.6 3.2-1.5.8.9 1.9 1.5 3.2 1.5 2.3 0 4.1-1.9 4.1-4.1 2.3 0 4.1-1.9 4.1-4.1 0-.5-.1-.9-.2-1.4h.1c2.3 0 4.1-1.9 4.1-4.2 0-1.1-.4-2.1-1.2-2.9 1.6-.6 2.7-2.1 2.7-3.9-.1-1.3-1-2.7-2.3-3.4zm-4 .1v-.1h.1s-.1 0-.1.1z"/><ellipse fill="#08D0B7" cx="490.5" cy="259.5" rx=".8" ry="2.5"/><ellipse fill="#08D0B7" cx="491" cy="268.1" rx=".8" ry="2.5"/><path fill="#DC595D" d="M528.1 312.8s-23.1-1.7-23-20.3c.1-18.6 2.3-47.1 12.9-50.5l4.1 1.5s-27.2 51.4 5.9 64v5.3zM487.2 303.8s-18.2-39.8-2.1-64.7h-4s-19.8 35 6.1 64.7z"/></svg>