<svg xmlns="http://www.w3.org/2000/svg" viewBox="0 0 100 100" enable-background="new 0 0 100 100"><path fill="#01D0B7" d="M51.3 13c-19.7 0-35.7 15.9-35.7 35.6 0 7.2 2.2 14 5.9 19.6 0 0-4-6.5 0 0s7.2 12.8-4.2 9.6S2.7 93.6 6.6 93c3.9-.6 2.3-9.3 10.8-4.6 7.5 4.1 17.1 1.2 22.1-6.2 3.7 1.3 7.7 2 11.9 2C71 84.2 87 68.3 87 48.6 87 28.9 71 13 51.3 13z"/><path fill="#fff" d="M48.8 36.6l-2.6.4c-.8.1-1.2.6-1.1 1.4l1 8.4-9.3 1.2-1-8.4c-.1-.9-.6-1.2-1.4-1.1l-2.6.3c-.8.1-1.2.6-1.1 1.4l2.7 22.2c.1.9.6 1.2 1.4 1.1l2.6-.3c.8-.1 1.2-.6 1.1-1.4l-1.2-9.4 9.3-1.1 1.2 9.4c.1.9.6 1.2 1.4 1.1l2.6-.3c.8-.1 1.2-.6 1.1-1.4l-2.7-22.2c-.2-1-.6-1.4-1.4-1.3zm10.6 2.8c.7-.1 1-.5.9-1.2L60 36c-.1-.7-.5-1-1.2-.9l-2.8.3c-.7.1-1 .5-.9 1.2l.3 2.2c.1.7.5 1 1.2.9l2.8-.3zm.3 2.6l-2.8.3c-.7.1-1 .5-.9 1.2l2 16.1c.1.7.5 1 1.2.9l2.8-.3c.7-.1 1-.5.9-1.2l-2-16.1c-.1-.6-.5-1-1.2-.9zm9.6 9.9l1.9-.2c.7-.1 1-.5 1-1.3l-1.4-15.1c-.1-.9-.5-1.2-1.3-1.2l-2.7.3c-.8.1-1.1.6-1 1.4l2.3 15c0 .9.4 1.2 1.2 1.1zm3.9 3.2c-.1-.9-.6-1.2-1.4-1.1l-2.6.3c-.8.1-1.2.6-1.1 1.4l.3 2.3c.1.9.6 1.2 1.4 1.1l2.6-.3c.8-.1 1.2-.6 1.1-1.4l-.3-2.3z"/></svg>