<svg xmlns="http://www.w3.org/2000/svg" viewBox="0 0 176 176" enable-background="new 0 0 176 176"><circle fill="#8E80FF" cx="88" cy="88" r="88"/><path fill="#5640DF" d="M129.9 64.8c-2.3 0-4.6.4-6.6 1.2-.4-10-8.6-18-18.7-18-7.3 0-13.5 4.1-16.6 10.2-3.1-6-9.4-10.2-16.6-10.2-10.1 0-18.3 8-18.7 18-2.1-.8-4.3-1.2-6.6-1.2-10.3 0-18.7 8.4-18.7 18.7s8.4 18.7 18.7 18.7H130c10.3 0 18.7-8.4 18.7-18.7s-8.4-18.7-18.8-18.7z"/><path fill="#fff" d="M147.8 89H28.2c-5.5 9.8-8.6 21.2-8.6 33.2 0 9.8 2.1 19.1 5.8 27.5C41.3 166 63.5 176 88 176s46.7-10 62.7-26.2c3.7-8.4 5.8-17.7 5.8-27.5-.1-12.1-3.2-23.5-8.7-33.3zm-82.4 46c-5.6 0-10.2-4.6-10.2-10.2s4.6-10.2 10.2-10.2 10.2 4.6 10.2 10.2S71 135 65.4 135zm45.2 0c-5.6 0-10.2-4.6-10.2-10.2s4.6-10.2 10.2-10.2 10.2 4.6 10.2 10.2-4.6 10.2-10.2 10.2z"/></svg>