<svg xmlns="http://www.w3.org/2000/svg" viewBox="0 0 688 670" enable-background="new 0 0 688 670"><path fill="#FFE8E1" d="M310.5 392.9c-49.6 31.7-74.6 81.2-55.8 110.7 18.8 29.4 74.2 27.6 123.8-4.1 49.6-31.7 74.6-81.2 55.8-110.7-18.7-29.4-74.2-27.6-123.8 4.1zm25.7-47.1c256.2-69.6-6.1-339.5-243.3-147-88.3 71.7-98.7 241.3 5.7 286.4C203 530.3 226.5 375.6 336.2 345.8z"/><path fill="#4D3134" d="M174.5 216.4l9.3 16.1v9.2l2.8 9.7h11.8l11.8-10.1-2-26.1-9.3-8.3-18.1 1z"/><path fill="#EF511C" d="M372.4 342.2h43.5l-4-6.9-10.5-11.2-19-4.9-9.1 6.5z"/><path fill="#FF7254" d="M343.5 315s63.9-16 75 27.1h-4.9s-6-19.4-24.9-19.4c0 0-10.4-1.1-13.4 22.6L374 377v58.2L343.5 315z"/><path fill="#0284FF" d="M130.8 381.6V263.5s-2.5-17.1 19.1-17.1h194.9s17.6-1 17.6 14.1v141.2H130.7l.1-20.1z"/><path fill="#fff" d="M337 389.6H150.1c-1.2 0-2.3-1-2.3-2.3V263.8c0-1.2 1-2.3 2.3-2.3H337c1.2 0 2.3 1 2.3 2.3v123.6c0 1.2-1 2.2-2.3 2.2z"/><path fill="#FF7254" d="M233.2 316.2c-4.6-19.5-24-31.6-43.5-27s-31.6 24-27 43.5c4 17.1 19.6 28.6 36.5 27.9l8 8.7c.7.7 1.9.4 2.2-.5l3.4-11.3c15.5-7 24.4-24.1 20.4-41.3z"/><ellipse transform="matrix(.974 -.228 .228 .974 -70.307 49.756)" fill="#fff" cx="180.5" cy="329.6" rx="6.4" ry="6.4"/><ellipse transform="matrix(.974 -.228 .228 .974 -68.62 53.581)" fill="#fff" cx="197.9" cy="324.2" rx="5.5" ry="5.5"/><ellipse transform="matrix(.974 -.228 .228 .974 -66.932 57.406)" fill="#fff" cx="215.3" cy="318.8" rx="7.4" ry="7.4"/><path fill="#01D0B7" d="M265.3 367c0-9.7-7.9-17.6-17.6-17.6-9.7 0-17.6 7.9-17.6 17.6 0 8.6 6.1 15.7 14.2 17.3l2.8 5c.2.4.9.4 1.1 0l2.8-5c8.2-1.6 14.3-8.7 14.3-17.3z"/><path fill="#fff" d="M246.8 362.7c-5.3-6-10.2 2.4-4.9 6.6 2.7 2.2 1.8 4 .5 5.2-.5.4-.1 1.2.6 1.1 4-.7 11.3-3.1 12.8-11.5 1-5.8-6.6-8.1-9-1.4z"/><path fill="#FFD31C" d="M321.9 317.1c3.4-21.4-11.2-41.4-32.5-44.8-21.4-3.4-41.4 11.2-44.8 32.5-3 18.8 7.9 36.6 25.2 42.9l4.5 12c.4 1 1.7 1.2 2.4.4l8-10c18.3-.7 34.2-14.2 37.2-33z"/><path fill="#fff" d="M294.7 306.4s-10.4-11.5-9.8-18.4c0 0-3.4-1.3-4 2.5-.6 3.8.7 10.7.7 10.7l-14.2-2.3s-2.5.4-2.6 3.2c-.2 2.9 1.1 2.9 1.1 2.9s-2.1 1.2-2.1 3.7c-.1 2.6 1.5 3.4 1.5 3.4s-1.8.9-1.9 3.6c-.1 2.7 2.5 4 2.5 4s-1 5.4 2.4 6.1c3.4.7 17.3 1.7 22.3-1.4 3.7-2.3 9.3-1.7 12.1-1.2.9.2 1.8-.5 1.9-1.4l2-12.3c.1-.9-.5-1.8-1.4-1.9l-10.5-1.2z"/><circle fill="#0163E5" cx="351" cy="336.1" r="7.6"/><path fill="#FF7254" d="M123.3 377.1v65.3s-1 13.6 16.6 13.6H361l-13.1-13.1v-65.8H123.3z"/><path fill="#EF511C" d="M374 442.8c0 7.2-5.9 13.1-13.1 13.1s-13.1-5.9-13.1-13.1V377s5.9 7.5 13.8 7.5S374 377 374 377v65.8z"/><path fill="#664D4E" d="M44.1 243.8c-2.2-8.2 2-16.8 9.9-20.1 30.5-12.5 102.2-41.5 116.7-43.6 18.5-2.6 46.7 26 50.9 36.2 4.1 10.2-4.5 30.1-4.5 30.1h-16.4l-.2-23.9s-3.4-10.5-13.6-9.3l-20.3 10s3.8 12.6 22.4 21.1 17.8 13.3 15.3 17.8-12.6 3.5-25.4-4.8-22.4-8.3-22.4-8.3-19.6.3-34.4-7.8c-9.5-5.1-36.4 5.3-54.7 13.5-9.6 4.4-20.6-.9-23.3-10.9zM117.2 512.7c-2.6-6.6-.8-14.1 4.5-18.8l42.3-37s23.2-21.5 41.1-18.8c37 5.5 64.8 1.9 77.6-1.6 0 0 3.7-.6 4.4 3.9.7 4.5-3.3 7.2-10.4 9.2s-33.3 5.2-33.3 5.2l-2.3.9 75.4.4s-13.9 11.3-25.2 14.1c-11.3 2.8-24.7 7.5-24.7 7.5s-17.1 9.6-38.2 4.3-31.6-5.7-42.8-1.3c-6.6 2.6-26.1 22-40.8 37.3-8.5 8.8-23.1 5.9-27.6-5.3z"/><path fill="none" d="M0 0h688v670H0z"/></svg>