<svg xmlns="http://www.w3.org/2000/svg" viewBox="0 0 688 670" enable-background="new 0 0 688 670"><g fill="#FFFADD"><path d="M513.5 115.1C185 69-125.6 230.9 83.6 336.2c39.9 20.1 40.6 41.2 24.5 74.6C21.8 589 221.6 613.2 318.9 470.1c91.4-134.5 193.2-115.1 286-162.6 111.2-57 87.8-167.2-91.4-192.4z"/><ellipse transform="matrix(.912 -.411 .411 .912 -151.484 249.783)" cx="505" cy="477.1" rx="107.8" ry="55.2"/></g><path fill="#005779" d="M534.4 493.8l-457-52.7c-5.5-.6-9.4-5.6-8.8-11.1L103 132c.6-5.5 5.6-9.4 11.1-8.8l457 52.7c5.5.6 9.4 5.6 8.8 11.1l-34.4 298c-.7 5.5-5.7 9.5-11.1 8.8z"/><ellipse transform="matrix(.115 -.993 .993 .115 -60.037 389.505)" fill="#90DB6E" cx="188.5" cy="228.4" rx="52.4" ry="52.4"/><path fill="#66ADCB" d="M528.9 332.1l-250.3-28.9c-1.1-.1-1.9-1.1-1.8-2.2L291 177.8c.1-1.1 1.1-1.9 2.2-1.8l250.3 29c1.1.1 1.9 1.1 1.8 2.2l-14.2 123.2c-.2 1.1-1.1 1.9-2.2 1.7z"/><path fill="#FFD31C" d="M304 346.2l-30.1-3.5c-1.1-.1-1.9-1.1-1.8-2.2l1.5-13.3c.1-1.1 1.1-1.9 2.2-1.8L306 329c1.1.1 1.9 1.1 1.8 2.2l-1.5 13.3c-.2 1-1.2 1.8-2.3 1.7z"/><ellipse transform="matrix(.115 -.993 .993 .115 -82.396 577.604)" fill="#fff" cx="282.8" cy="335" rx="2.1" ry="2.1"/><path fill="#E5A317" d="M309.5 346.8l-17.8-2.1 2-17.2 17.8 2.1c1.1.1 1.9 1.1 1.8 2.2l-1.5 13.3c-.2 1.1-1.2 1.9-2.3 1.7z"/><path fill="#FFD31C" d="M353 351.9l-30.5-3.5c-1.1-.1-1.9-1.1-1.8-2.2l1.5-13.3c.1-1.1 1.1-1.9 2.2-1.8l30.5 3.5c1.1.1 1.9 1.1 1.8 2.2l-1.5 13.3c-.1 1.1-1.1 1.9-2.2 1.8z"/><path fill="#FF7353" d="M377.7 337.2l29.9 3.4c1.1.1 1.9 1.1 1.8 2.2l-1.5 13.3c-.1 1.1-1.1 1.9-2.2 1.8l-29.9-3.4c-1.1-.1-1.9-1.1-1.8-2.2l1.5-13.3c.1-1.1 1.1-1.9 2.2-1.8z"/><path fill="#90DB6E" d="M367.4 430.3L270.1 419c-.8-.1-1.4-.8-1.3-1.6 3.9-26.9 28.5-46 55.7-42.8s46.8 27.3 44.4 54.4c0 .8-.7 1.4-1.5 1.3z"/><path fill="#FFD31C" d="M510.3 446.8l-97.2-11.2c-.8-.1-1.4-.8-1.3-1.6 3.9-26.9 28.5-46 55.7-42.8s46.8 27.3 44.4 54.4c0 .7-.8 1.3-1.6 1.2z"/><path fill="#fff" d="M326.4 416.4c-2.5 3.4-7.4 4.1-10.8 1.6-3.4-2.5-4.1-7.4-1.6-10.8 3.5-4.8 16.1-13.1 20.6-16 .6-.4 1.3.2 1.1.8-1.4 5.1-5.7 19.6-9.3 24.4zM470.7 426.5c1 4.1-1.6 8.3-5.7 9.3s-8.3-1.6-9.3-5.7c-1.4-5.8.3-20.8 1-26.1.1-.7.9-.9 1.3-.3 3 4.4 11.3 17 12.7 22.8z"/><path fill="#66ADCB" d="M457.5 466l6.2-4.9c1.1.5 2.5.4 3.5-.4.9-.7 1.3-1.7 1.3-2.7 0-.3-.3-.4-.5-.3l-1.3 1c-.1.1-.2.1-.3 0l-1.3-.5c-.1 0-.2-.1-.2-.3l-.2-1.4c0-.1 0-.2.1-.3l1.3-1c.2-.2.1-.5-.1-.6-1.1-.3-2.2 0-3.1.8-.9.8-1.2 2-1 3.1l-6.2 4.9c-1-.5-2.3-.4-3.3.3s-1.5 1.8-1.5 2.9c0 .3.3.4.5.3l1.3-1c.1-.1.2-.1.3 0l1.3.5c.1 0 .2.1.2.3l.2 1.4c0 .1 0 .2-.1.3l-1.3 1c-.2.2-.1.5.1.6 1 .2 2.1 0 2.9-.6 1-.9 1.4-2.2 1.2-3.4z"/><g fill="#66ADCB"><path d="M318.6 444.2c-.5-.7-1.5-.8-2.2-.2l-8 7.5c-.2.2-.2.6-.1.8.2.2.5.3.8.1l9.1-6.1c.8-.4.9-1.4.4-2.1zM322.6 438.9c-.2-.1-.4.2-.2.4.8.7.6 1.6-1 1.5-3.3-.2-3.2 4.4.8 3.2 2.3-.7 3.3-4.2.4-5.1z"/></g><path stroke="#66ADCB" stroke-width="4" stroke-linecap="round" stroke-miterlimit="10" fill="none" d="M424.5 351.4l98.8 11.4"/><path fill="#E5A317" d="M358.1 352.4l-17.8-2.1 2-17.2 17.8 2.1c1.1.1 1.9 1.1 1.8 2.2l-1.5 13.3c-.2 1.1-1.2 1.9-2.3 1.7z"/><path fill="#CB3503" d="M372 336.6l17.8 2.1-2 17.2-17.8-2.1c-1.1-.1-1.9-1.1-1.8-2.2l1.5-13.3c.2-1.1 1.2-1.8 2.3-1.7z"/><ellipse transform="matrix(.115 -.993 .993 .115 77.651 805.107)" fill="#fff" cx="490.5" cy="359" rx="7.1" ry="7.1"/><ellipse transform="matrix(.115 -.993 .993 .115 -44.93 630.861)" fill="#fff" cx="331.5" cy="340.6" rx="2.1" ry="2.1"/><ellipse transform="matrix(.115 -.993 .993 .115 -8.349 682.86)" fill="#FF7353" cx="378.9" cy="346.1" rx="2.1" ry="2.1"/><path fill="#fff" d="M280.2 271.2l52.1-5.3 50.2 11.4 54.3-24.2 52-3.4 53.6-17.6-11.4 98.7c-.1.9-.9 1.5-1.8 1.4l-251.1-29c-.9-.1-1.5-.9-1.4-1.8l3.5-30.2z"/><ellipse transform="matrix(.115 -.993 .993 .115 30.074 565.604)" fill="#90DB6E" cx="332.4" cy="265.9" rx="4.6" ry="4.6"/><ellipse transform="matrix(.115 -.993 .993 .115 135.286 658.136)" fill="#90DB6E" cx="436.9" cy="253.2" rx="4.6" ry="4.6"/><ellipse transform="matrix(.115 -.993 .993 .115 184.682 706.743)" fill="#90DB6E" cx="488.8" cy="249.8" rx="4.6" ry="4.6"/><ellipse transform="matrix(.115 -.993 .993 .115 63.181 625.615)" fill="#FFD31C" cx="382.6" cy="277.4" rx="4.6" ry="4.6"/><path fill="#66ADCB" d="M163.6 356.8l-43.7-5c-1.1-.1-1.9-1.1-1.8-2.2l5-43.7c.1-1.1 1.1-1.9 2.2-1.8l43.7 5c1.1.1 1.9 1.1 1.8 2.2l-5 43.7c-.1 1.2-1.1 2-2.2 1.8zM227.2 364.2l-43.7-5c-1.1-.1-1.9-1.1-1.8-2.2l5-43.7c.1-1.1 1.1-1.9 2.2-1.8l43.7 5c1.1.1 1.9 1.1 1.8 2.2l-5 43.7c-.1 1.1-1.1 1.9-2.2 1.8z"/><path fill="#fff" d="M218 330.2l-17.5-2c-1.1-.1-2 .6-2.1 1.7l-1.7 14.9c-.1.8.9 1.4 1.6.9l4.2-3.3 14.1 1.6c1.1.1 2-.6 2.1-1.7l1.1-9.9c0-1.1-.8-2.1-1.8-2.2z"/><ellipse transform="matrix(.115 -.993 .993 .115 -210.411 573.028)" fill="#fff" cx="216.3" cy="404.6" rx="8.2" ry="8.2"/><ellipse transform="matrix(.115 -.993 .993 .115 -283.575 469.027)" fill="#fff" cx="121.3" cy="393.6" rx="8.2" ry="8.2"/><ellipse transform="matrix(.115 -.993 .993 .115 -259.187 503.694)" fill="#FFD31C" cx="153" cy="397.3" rx="8.2" ry="8.2"/><ellipse transform="matrix(.115 -.993 .993 .115 -234.799 538.361)" fill="#fff" cx="184.6" cy="400.9" rx="8.2" ry="8.2"/><path fill="#005779" d="M150.7 321.6c-2.1-.2-4.1.6-5.4 2.2-.9-1.8-2.6-3.1-4.8-3.3-3.3-.4-6.4 2-6.8 5.4-.9 7.9 9.7 14.1 9.7 14.1s11.7-3.6 12.6-11.5c.4-3.5-2-6.5-5.3-6.9z"/><path fill="#D29D96" d="M194.3 248.7c-2.2-.6-3.6-2.6-3.6-4.8v-1.1c7.4-.7 17.5-5.5 19-19.2 1.4-12.5-5.4-23.5-17.8-24.9-12.5-1.4-21.6 7.7-23 20.2-1.6 13.7 7.1 20.7 14.2 23l-.2 1.1c-.5 2.2-2.4 3.8-4.6 3.8-10.6.3-17.2 5.4-17.2 5.4l22.3 20.5 26.4-14.9c0 .1-5.3-6.4-15.5-9.1z"/><path fill="#005779" d="M209.4 225.9c4.2-6.6 4.7-15.1 2.7-20.4-3.6-9.1-9-3.2-9-3.2 0-.5-.1-.9-.2-1.2-6.4-31.1-33.7-9.3-42.8 7.3 0 0 2 9.4 9 17.1-.3-2-.3-4.2-.1-6.7.1-.8.2-1.6.4-2.4 10.6 4.4 25.1-.2 33.1-13.1-3.6 7.2 1.7 16.5 7.5 19.3 0 .3 0 .6-.1.9-.3.9-.4 1.6-.5 2.4z"/><path fill="#FFC7D2" d="M189.2 221.8l-5.9 7.3 10.1 1.2z"/><path fill="#E1F073" d="M207.6 253.5l.2.2c-.1-.3-.2-.3-.2-.2zm-43.6-4.9s.1 0 .2-.1c0-.1-.1-.1-.2.1zm52.8 20.2c-2.9-11.1-9-15.2-9-15.2s-.2.1-.4.3c.1-.2.2-.3.2-.4-.9-.6-4.7-3.1-10.5-5.3 0 0-4 7-11.6 6.1-7.6-.9-9.9-8.6-9.9-8.6-6.1.8-10.3 2.3-11.4 2.7 0 .1.1.2.1.4l-.4-.4s-6.9 2.6-12.3 12.7c-.5 1-1 2-1.5 2.9 8.2 8.8 19.4 14.8 32.3 16.3 12.9 1.5 25.2-1.8 35.2-8.5-.2-.9-.5-1.9-.8-3z"/></svg>