<svg xmlns="http://www.w3.org/2000/svg" viewBox="0 0 688 670" enable-background="new 0 0 688 670"><path fill="none" d="M0 0h688v670H0z"/><path fill="#E6FFDA" d="M395.5 212.5c37.4-23.2 58.4-58.3 46.9-78.3-11.5-20.1-51-17.5-88.4 5.7s-58.4 58.3-46.9 78.3c11.4 20.1 51 17.5 88.4-5.7zM523.8 140.4c-86.7 1.4-19.1 93.6-217.7 136.4-195.6 42.1-68.2 325 158.5 258.6s193-397.2 59.2-395z"/><path fill="#01D0B7" d="M465.8 462l7.5-14.1c.8-1.5.7-3.4-.4-4.7l-5.5-7.5c-.8-1-1.1-2.3-.8-3.6 1-5 1.4-10 1.3-15 0-1.3.6-2.6 1.6-3.5l7.3-6.1c1.4-1.2 1.9-3 1.4-4.7l-4.9-15.8c-.5-1.7-1.9-2.9-3.6-3.1l-10.7-1.5c-1.2-.2-2.4-.8-3.1-1.9-2.5-3.7-5.4-7.1-8.6-10.3-.9-.9-1.4-2.2-1.3-3.5l.8-11.1c.1-1.8-.8-3.4-2.4-4.3l-14.5-7.7c-1.7-.9-3.8-.6-5.2.7l-6.9 6.6c-1.1 1-2.6 1.4-4 1.1-5.4-1.2-10.8-1.8-16.1-1.7l-8.2-8.9c-1.2-1.2-2.9-1.7-4.5-1.3l-16.6 4.9c-1.8.5-3 2.1-3.2 3.9l-.6 8.2c-.1 1.4-.9 2.7-2.1 3.4-4.5 2.8-8.7 6.2-12.5 10.1-.9.9-2.1 1.4-3.4 1.3l-8.5-.4c-1.7-.1-3.4.8-4.2 2.4l-7.2 13.7c-.8 1.4-.7 3.2.2 4.5l5.2 8c.6 1 .9 2.1.6 3.3-1.1 5.3-1.5 10.6-1.3 15.9.1 1.4-.6 2.8-1.7 3.7l-6.3 4.9c-1.4 1.1-2.1 3-1.5 4.8l4.9 16.3c.5 1.7 1.9 2.9 3.7 3.1l10 1.4c1.2.2 2.3.8 3 1.8 2.5 3.6 5.4 7.1 8.6 10.2.9.9 1.4 2.1 1.3 3.4l-.6 10.4c-.1 1.7.8 3.4 2.4 4.2l14.6 7.7c1.6.8 3.5.7 4.8-.4l7.8-6.2c1-.8 2.4-1.1 3.6-.9 4.8 1 9.7 1.5 14.5 1.5 1.3 0 2.5.6 3.3 1.6l6.4 7.4c1.1 1.3 2.9 1.9 4.6 1.4l16.7-4.8c1.7-.5 2.9-1.9 3.2-3.6l1.4-10c.2-1.2.9-2.4 1.9-3.1 3.8-2.5 7.3-5.4 10.6-8.7.8-.8 2-1.3 3.2-1.3l9.9.2c1.8.1 3.3-.9 4.1-2.3z"/><ellipse transform="matrix(.467 -.884 .884 .467 -156.5 575.824)" fill="#fff" cx="399.6" cy="417.8" rx="53.3" ry="54.4"/><path fill="#9BB43B" d="M409.7 393.9c1.8-2.8 1.1-5.2 1.1-5.2s-2.5.1-4.8 1.8c-2.6 2-1.3 5.2-1.3 5.2 2.4-2.9 2.8-2.9 2.8-2.9 0 .2-2.3 3.3-2.3 3.3s2.6.8 4.5-2.2zm3.6 11.5c2.7-1.2 3.3-3.3 3.3-3.3s-1.9-1.2-4.4-1c-2.9.2-3.6 3.2-3.6 3.2 3.2-.9 3.5-.8 3.5-.8-.1.2-3.3 1.3-3.3 1.3s1.7 1.8 4.5.6zm5.6 2.3c-2.5-1.9-5.2.2-5.2.2 3.3 1.5 3.4 1.8 3.4 1.8-.2.1-3.7-1.2-3.7-1.2s0 2.7 3.3 3.7c3 .9 5.1-.4 5.1-.4s-.7-2.4-2.9-4.1zm-5.3 5.3c-2-1.5-4.2.1-4.2.1 2.6 1.2 2.8 1.4 2.8 1.4-.2.1-2.9-1-2.9-1s0 2.2 2.6 3c2.4.7 4.1-.4 4.1-.4s-.6-1.8-2.4-3.1zm8.6-11.6c-2-.8-3.4 1.1-3.4 1.1 2.5.3 2.6.5 2.6.5-.1.1-2.7-.1-2.7-.1s.5 1.8 2.9 1.8c2.2 0 3.3-1.3 3.3-1.3s-.9-1.4-2.7-2zm-38.5 10.5s.2-.1 2.4-.3c0 0-1.1-1.8-3-1.3-1.7.5-2.6 1.7-2.6 1.7s.9 1.2 2.9 1.4c2.1.2 2.8-1.5 2.8-1.5s-2.4.1-2.5 0zm-1.1-5.9s-2.8-.1-2.9-.2c0 0 .2-.2 2.9-.2 0 0-1.2-2.2-3.5-1.7-2 .5-3.2 1.8-3.2 1.8s1 1.5 3.4 1.8c2.5.3 3.3-1.5 3.3-1.5zm28.8-7.1s1.9.8 3.6-1.1c1.6-1.8 1.3-3.7 1.3-3.7s-1.8-.2-3.7.8c-2.1 1.2-1.5 3.7-1.5 3.7 2-1.8 2.3-1.8 2.3-1.8 0 .1-2 2.1-2 2.1zm9.7-2.4c-.1.2-2.9 1.2-2.9 1.2s1.5 1.7 4 .5c2.3-1.1 2.9-3 2.9-3s-1.7-1-3.9-.8c-2.5.2-3.1 2.9-3.1 2.9 2.7-.9 3-.8 3-.8zm-44.3-2.2c1.8 1.2 3.2 0 3.2 0s-2.1-1.1-2.2-1.2c0 0 .2-.1 2.3.9 0 0-.2-2.2-2.1-2.6-1.7-.4-3.2.3-3.2.3s.2 1.6 2 2.6zm14.1 20.8s.1-.2 2.5-1.3c0 0-2-1.5-3.8-.1-1.6 1.2-2.2 2.9-2.2 2.9s1.5 1 3.8.3c2.4-.7 2.4-2.7 2.4-2.7s-2.6.9-2.7.9zm22.8-24.1c2.1-1.5 2.3-1.4 2.3-1.4 0 .2-2.1 1.8-2.1 1.8s1.7 1 3.4-.7c1.6-1.5 1.6-3.3 1.6-3.3s-1.7-.4-3.5.4c-2 .8-1.7 3.2-1.7 3.2zm-35.8 9.8c2.5-.3 2.9-2.3 2.9-2.3s-2.7.5-2.8.4c0 0 .1-.2 2.7-.8 0 0-1.7-1.8-3.8-.8-1.8.9-2.7 2.5-2.7 2.5s1.4 1.2 3.7 1zm34.7-16.7c0 .1-1.8 1.5-1.8 1.5s1.4.8 2.9-.6c1.4-1.3 1.3-2.8 1.3-2.8s-1.4-.3-3 .3c-1.7.7-1.5 2.7-1.5 2.7 1.9-1.1 2.1-1.1 2.1-1.1zm-14.3-.8s-1-1.7-1-1.8c0 0 .2 0 1.3 1.6 0 0 .8-1.6-.4-2.7-1.1-1-2.3-1.1-2.3-1.1s-.5 1.2.3 2.7c.7 1.5 2.1 1.3 2.1 1.3zm-9.5 2.1s-.8-1.8-.8-1.9c0 0 .2.1 1.1 1.7 0 0 1-1.5-.1-2.7-.9-1.1-2.2-1.4-2.2-1.4s-.6 1.1 0 2.7c.6 1.7 2 1.6 2 1.6zm10.7-1s-2 1.5-2.9 4.2c-1 3.1 1.9 5.1 1.9 5.1.4-3.7.6-4 .6-4 .2.2 0 4 0 4s2.7-.9 2.6-4.5c-.2-3.2-2.2-4.8-2.2-4.8zm5.4 2.9c.6-2.9.8-3.1.8-3.1.1.1-.3 3.2-.3 3.2s2.2-.5 2.4-3.3c.1-2.6-1.3-4-1.3-4s-1.7 1-2.6 3.1c-1.1 2.3 1 4.1 1 4.1zm-10.5.6s-1.2-2.6-1.1-2.8c0 0 .2.1 1.5 2.6 0 0 1.4-2.2-.1-4-1.4-1.6-3.2-2.1-3.2-2.1s-.9 1.7-.1 4c.9 2.4 3 2.3 3 2.3zm-3.1 1.1s-1.4 2.1-1.2 5c.2 3.3 3.6 4.1 3.6 4.1-1-3.6-.8-3.9-.8-3.9.2.1 1.4 3.8 1.4 3.8s2.2-1.8.8-5.1c-1.4-3.1-3.8-3.9-3.8-3.9zm-3.7 6.7c-2.8-2.3-5.5-1.8-5.5-1.8s-.3 2.7 1.3 5.4c1.8 3 5.5 2.1 5.5 2.1-2.8-3-2.8-3.4-2.8-3.4.2 0 3.3 2.9 3.3 2.9s1.1-2.8-1.8-5.2zm1.2-4.5c-3.1-1.9-3.2-2.2-3.2-2.2.2-.1 3.5 1.7 3.5 1.7s.3-2.7-2.8-4.1c-2.9-1.2-5.2-.2-5.2-.2s.5 2.4 2.5 4.3c2.3 2.2 5.2.5 5.2.5zm.3 13.2c-2.8-1.8-5.3-1.1-5.3-1.1s0 2.5 1.7 4.9c1.9 2.6 5.3 1.4 5.3 1.4-2.8-2.5-2.9-2.8-2.9-2.8.2 0 3.3 2.4 3.3 2.4s.8-2.8-2.1-4.8z"/><path fill="#91897E" d="M404.7 424.8h-7.4s.4-1.5.4-3.1v-3s-1.8-2-2.4-5c-.6-3-.5-4.7-1.7-7.3-1.2-2.6-1.5-3.4-1.5-3.4s-.5-.9.2-1.2c.8-.3 1.4.8 1.4.8l1.8 3.1s.5 1.1 1 1.1.2-1.5.2-1.5l-.7-6.6s-.1-1.2.6-1.2.9.9.9.9l1.7 6.3s.2.8.4.8.4-.6.5-1.7l.6-7.5s.1-.9.9-.9c.9 0 .9.9.9.9l-.1 8.1s0 1.3.3 1.3.5-.2.8-.8l2.8-6.2s.4-.7 1.1-.4c.7.2.3 1.4.3 1.4l-2.4 7.3s-.4 1.7-.1 2.5c.3.8.5 1.8 1.5 1 .9-.8 1.6-2.2 2.8-2.4 1.2-.2 2.7.1 2 .8-.7.7-1.9 1-3.2 3.1-1.4 2.1-1.6 4.8-4 5.9.1 0-.5 5 .4 6.9z"/><path fill="#24282E" d="M380.9 440.5v-4.9h.8c.8 0 1.3.4 1.6 1.5l.7 2c.3 1.1.7 1.6 1.7 1.6.7 0 1.5-.3 1.8-.8-.6-.5-.7-1-.9-1.6l-.7-2.1c-.3-.9-.7-1.7-1.9-2 .4-.3.7-.7 1-1.3l2.1-4-.2-.2c-.6-.1-1.2-.1-1.7-.1-.8 0-1.1.3-1.4 1l-1.6 3.1c-.2.5-.3.6-.8.6h-.4v-4.6c-.4-.1-1-.1-1.4-.1-.3 0-.9 0-1.4.1v11.8c.4.1 1.1.1 1.4.1.3 0 .8 0 1.3-.1zm10.7 0v-5h3.8v5c.5.1 1 .1 1.4.1s.9 0 1.3-.1v-11.8c-.4-.1-1-.1-1.4-.1-.4 0-.9 0-1.4.1v4.6h-3.8v-4.6c-.4-.1-1-.1-1.4-.1-.3 0-.9 0-1.4.1v11.8c.4.1 1.1.1 1.4.1.5 0 1.1 0 1.5-.1zm9.4.1c.4 0 .8 0 1.2-.1l.7-2.5H406.8l.3 1.1c.3 1.2.8 1.5 1.7 1.5.5 0 1.2-.1 1.6-.3l-3.7-11.6c-.4-.1-1.1-.1-1.6-.1s-1.2 0-1.6.1l-3.8 11.6.1.1c.2.1.8.2 1.2.2zm2.9-6.1c.3-1 .7-2.3.8-3.3h.1c.3 1.1.7 2.6 1 3.6l.3 1.1H403.5l.4-1.4zm10.4 6v-3.4c0-1.4-.1-3.7-.2-5.2h.1c.2.7.6 1.6 1 2.4l2.7 6.2c.6.1 1.3.1 1.6.1.3 0 1.2-.1 1.7-.2v-11.8l-.1-.1h-.9c-1.1 0-1.5.4-1.5 1.7v2.1c0 1.2.1 3.5.2 5.1h-.1c-.2-.6-.6-1.6-1.1-2.6l-2.7-6.2c-.6-.1-1.2-.1-1.6-.1-.3 0-1.2.1-1.6.2v11.8c.4.1 1 .1 1.3.1.3 0 .8 0 1.2-.1zm-34.6 4.8h-.3l-1.7 5h.5l.4-1.3h2l.4 1.1c.1.2.2.3.3.3.1 0 .2 0 .3-.1l-1.7-5h-.2zm.8 3.2h-1.6l.6-1.7c.1-.2.2-.6.2-.9.1.3.2.8.4 1.2l.4 1.4zm5.8-3.3c-1 0-1.9.8-1.9 2.6 0 1.3.5 2.6 1.8 2.6.7 0 1.3-.3 1.7-.7 0-.1-.2-.3-.3-.4-.5.4-.9.6-1.3.6-.8 0-1.3-.8-1.3-2.1 0-1.4.5-2.1 1.3-2.1.9 0 1.2.7 1.1 1.2h.2c.3 0 .3-.2.3-.3.1-.7-.5-1.4-1.6-1.4zm6.5.1h-.3l-1.7 5h.5l.4-1.3h2l.3 1.1c.1.2.2.3.3.3.1 0 .2 0 .3-.1l-1.7-5h-.1zm.8 3.2H392l.6-1.7c.1-.2.2-.6.2-.9.1.3.2.8.4 1.2l.4 1.4zm7-2.9c-.3-.3-.9-.4-1.2-.4h-1.5v4.9h1.5c.4 0 .9-.1 1.2-.4.6-.5.8-1.3.8-2.1 0-.7-.1-1.4-.8-2zm-1.2 4.2h-1v-4.1h1c1.2 0 1.4 1.1 1.4 2.1 0 .9-.2 2-1.4 2zm5.9 0V448h1.9v-.4h-1.9v-1.8h2.3v-.5h-2.8v4.6c0 .2.1.4.3.4h2.3c.2 0 .3-.1.4-.3v-.2h-2.5zm9.4-4.5h-.4l-.8 2.6c-.1.2-.3 1-.3 1.1 0-.1-.2-.8-.3-1.1l-.8-2.6h-.8l-.4 5h.6l.2-3c0-.3 0-1 .1-1.4l1.2 3.6h.6l1.2-3.6c0 .4 0 1 .1 1.4l.2 3h.6l-.4-5h-.6zm6.8 0h-.5l-.8 1.9c-.1.1-.2.6-.3.8-.1-.2-.2-.6-.3-.8l-.7-1.7c-.1-.2-.2-.3-.3-.3-.1 0-.2 0-.4.1l1.4 3.3v1.6h.6v-1.6l1.3-3.3zm-.2-2.5h-43.4v.3h43.4v-.3z"/><path fill="#66ADCB" d="M305.3 425.8l2.5-4.7c.8-1.5.7-3.4-.4-4.7l-1.4-1.9c-.7-1-1-2.2-.8-3.4.3-1.9.5-3.8.5-5.7 0-1.3.6-2.6 1.6-3.5l1.7-1.5c1.4-1.2 1.9-3 1.4-4.7l-1.6-5.2c-.5-1.6-1.9-2.9-3.6-3.1l-3.1-.4c-1.2-.2-2.3-.8-3-1.8-1-1.3-2-2.6-3.2-3.8-.9-.9-1.3-2.2-1.3-3.4l.2-3.2c.1-1.8-.8-3.4-2.4-4.3l-4.7-2.5c-1.7-.9-3.8-.6-5.1.7l-1.5 1.4c-1.1 1-2.5 1.4-3.9 1.1-2.4-.5-4.7-.7-7.1-.6l-3.2-3.5c-1.2-1.2-2.9-1.7-4.5-1.3l-5.6 1.7c-1.8.5-3 2.1-3.2 3.9l-.1 1.5c-.1 1.4-.8 2.6-2 3.4-1.7 1.1-3.3 2.4-4.8 3.9-.9.9-2.1 1.3-3.3 1.3l-1.9-.1c-1.7-.1-3.4.8-4.2 2.4l-2.4 4.5c-.8 1.4-.7 3.2.2 4.5l1.4 2.2c.6.9.9 2.1.7 3.2-.4 2-.5 4.1-.5 6.2 0 1.4-.6 2.7-1.7 3.6l-1.1.9c-1.4 1.1-2.1 3-1.5 4.8l1.6 5.4c.5 1.7 1.9 2.9 3.7 3.1l2.7.4c1.2.2 2.3.8 3 1.8 1 1.3 2 2.6 3.2 3.8.9.9 1.3 2.1 1.3 3.4l-.2 2.9c-.1 1.7.8 3.4 2.4 4.2l4.9 2.6c1.6.8 3.5.7 4.8-.4l2-1.6c1-.8 2.3-1.1 3.6-.9 1.8.3 3.6.5 5.5.6 1.3 0 2.4.6 3.3 1.5l1.6 1.9c1.1 1.3 2.9 1.9 4.6 1.4l5.7-1.6c1.7-.5 2.9-1.9 3.2-3.6l.4-2.7c.2-1.2.9-2.3 1.9-3 1.4-1 2.7-2.1 4-3.3.8-.8 2-1.2 3.1-1.2h2.7c1.5-.2 3.1-1.1 3.9-2.6z"/><path fill="#8E80FF" d="M393.3 316.4l14.2-16.5c1.1-1.3 1.4-3.1.7-4.7l-5.3-12.1c-.5-1.2-.5-2.5.1-3.7 2.8-6.2 4.9-12.6 6.1-19.2.3-1.3 1.1-2.5 2.3-3.1l11.9-6.1c1.6-.8 2.6-2.5 2.4-4.3l-1.7-22.5c-.1-1.7-1.2-3.2-2.9-3.8L407 215c-1.2-.5-2.1-1.4-2.6-2.6-2.2-5.5-4.9-10.9-8.2-15.9-.7-1.1-1-2.5-.6-3.8l4.6-14.8c.5-1.7 0-3.5-1.4-4.7l-17.1-14.7c-1.4-1.2-3.5-1.4-5.2-.5l-11.7 7c-1.3.8-2.9.8-4.2.2-6.5-3.1-13.2-5.4-20.1-6.9l-8-13.9c-.8-1.5-2.5-2.3-4.1-2.2l-23.5 1.5c-1.9.1-3.4 1.4-4 3.1l-3.5 11.3c-.4 1.3-1.4 2.4-2.8 2.9-6.7 2.3-13.2 5.4-19.2 9.4-1.1.7-2.5 1-3.7.6l-11.6-3.3c-1.7-.5-3.5.1-4.6 1.4l-13.8 16c-1.1 1.2-1.4 2.9-.8 4.5l4.6 12.5c.4 1.1.3 2.4-.2 3.4-3 6.5-5.1 13.3-6.3 20.3-.3 1.4-1.2 2.6-2.5 3.2l-10.5 4.9c-1.7.8-2.7 2.5-2.6 4.3l1.6 23.1c.1 1.7 1.2 3.3 2.9 3.9l13.3 5c1.2.4 2.1 1.4 2.6 2.6 2.2 5.5 4.9 10.8 8.2 15.8.7 1.1.9 2.5.6 3.7l-4 14c-.5 1.7.1 3.5 1.4 4.6l17.1 14.7c1.3 1.1 3.2 1.4 4.8.6l12.7-6c1.2-.6 2.6-.6 3.8 0 6 2.8 12.2 4.9 18.5 6.3 1.3.3 2.3 1.1 2.9 2.3l6.4 12.1c.8 1.5 2.5 2.5 4.2 2.4l23.5-1.4c1.7-.1 3.3-1.2 3.9-2.9l5.1-13.2c.5-1.2 1.4-2.1 2.7-2.6 5.7-2.1 11.1-4.8 16.3-8.1 1-.7 2.3-.9 3.5-.6l13.4 3.3c1.7.4 3.4-.1 4.5-1.4z"/><path fill="#fff" d="M271.8 197.5c24.4-28.4 67.6-31.2 96.5-6.4 28.9 24.9 32.6 68 8.3 96.4-24.4 28.4-67.6 31.2-96.5 6.4-28.9-24.9-32.6-68-8.3-96.4z"/><path fill="#CF5726" d="M290.8 259.1c-1.9 1-4.1 1.5-6.4 1.5-9.5 0-13.2-5.7-13.2-13.1s5.1-13.3 13.5-13.3c2.3 0 4.4.5 6.3 1.4l-1.1 3.5c-1.4-.7-3.1-1.2-4.8-1.2-6 0-9.3 4.1-9.3 9.4s2.7 9.4 9.5 9.4c1.7 0 3.3-.4 4.7-1.2l.8 3.6z"/><path fill="#A6CB65" d="M294.6 225h4.7v35h-4.7z"/><path fill="#477637" d="M300.2 238.8v5.7s8.8 6.4 13.8 16.2c0 0 2.2-.8 4.2-2.9 0 0-3.5-6.9-9.4-12.1 0 0 5.3 2.7 10.3 11 0 0 .6-1.2.7-1.6 0 0-8.4-11.7-18.2-13.5 0 0 10.3-2.7 15.6-11l-.2-.8s-4.8 7.1-12.3 10.3c0 0 5.2-2.3 12.1-11.4l-.5-1s-3.5 5.1-7.6 8.2c0 0 6.3-7.2 7.3-8.8 0 0-1.1-1.8-2.7-2.7-.1 0-5.8 9-13.1 14.4z"/><path fill="#A6CB65" d="M319.3 244.4h12.9v3.3h-12.9zM333.3 230.3l7.4-4.1h4V260h-4.5v-29.4l-6 3.3zM353.8 232.5s3.8-3.8 9.1-2.8 5 7 3.9 10c-1.2 3-4.7 7.5-7.4 9.7l-8 7.8v2.8H373v-3.8h-15.1s6.6-6.1 10.6-11c3.9-4.9 4.6-10.6 2.9-14.2-1.8-3.6-5.6-6-11.5-5.2 0 0-3.7.4-7.5 3.4l1.4 3.3z"/><path fill="#DDFAF7" d="M265.4 396.8V401.7c0 .3.1.4.4.4h.8c.2 0 .4-.1.4-.4V395c0-.3-.1-.4-.4-.4H265c-.2 0-.3.1-.4.4l-1.4 4.6c-.1.2-.1.4-.1.5 0 .1 0 .3-.1.5 0-.2 0-.3-.1-.5 0-.1-.1-.3-.1-.5l-1.4-4.6c-.1-.3-.2-.4-.4-.4h-1.5c-.2 0-.4.1-.4.4v6.7c0 .3.1.4.4.4h.8c.2 0 .4-.1.4-.4V396.8l1.5 4.9c.1.3.2.4.4.4h.9c.2 0 .4-.1.4-.4l1.5-4.9zm5.5 5.5c.9 0 1.6-.3 2-.8.5-.5.7-1.2.7-2.1 0-.9-.2-1.6-.7-2.1-.5-.5-1.1-.8-2-.8-.9 0-1.6.3-2 .8-.5.5-.7 1.2-.7 2.1 0 .9.2 1.6.7 2.1.4.5 1.1.8 2 .8zm-.9-4.3c.2-.3.5-.4.9-.4s.7.1.9.4c.2.3.3.7.3 1.4s-.1 1.1-.3 1.4c-.2.3-.5.4-.9.4s-.7-.1-.9-.4c-.2-.3-.3-.7-.3-1.4 0-.6.1-1.1.3-1.4zm7.6-.3c.2.1.3 0 .3-.1l.1-.6c0-.1 0-.2-.1-.3-.1 0-.3-.1-.5-.1-.3 0-.5.1-.8.3-.2.2-.4.4-.5.6v-.5c0-.2-.1-.3-.3-.3h-.8c-.2 0-.3.1-.3.3v4.9c0 .2.1.3.3.3h.8c.2 0 .3-.1.3-.3V400c0-.8.1-1.3.3-1.8.2-.4.5-.6.8-.6.2 0 .3 0 .4.1zm5.7 3.4l-.5-.3c-.2-.1-.3-.1-.4.1-.1.1-.2.2-.4.3-.2.1-.4.1-.7.1-.3 0-.6-.1-.8-.2-.2-.1-.4-.5-.4-1.1h3.4c.2 0 .3-.1.3-.3 0-1.1-.2-1.8-.7-2.3-.5-.5-1.1-.7-2.1-.7-.8 0-1.4.3-1.9.8-.4.5-.7 1.2-.7 2.1 0 .9.2 1.6.6 2.1.4.5 1.1.8 2.1.8.6 0 1.1-.1 1.4-.2.3-.1.5-.3.7-.6.4-.4.3-.5.1-.6zm-2.9-3.1c.2-.2.5-.3.8-.3.4 0 .7.1.9.4.2.2.3.5.3.9h-2.3c0-.5.1-.8.3-1zm-17.9 11.2c-.2-.2-.5-.3-.8-.5-.3-.1-.5-.2-.8-.3-.3-.1-.6-.2-1-.3-.1 0-.2-.1-.4-.1-.1-.1-.2-.1-.3-.3-.1-.1-.1-.3-.1-.5s.1-.4.2-.5c.1-.1.3-.2.5-.3.2 0 .4-.1.6-.1.3 0 .6.1.8.2.3.1.5.2.6.3.2.2.4.1.6 0l.4-.6c.1-.1.1-.3-.2-.5-.2-.2-.6-.3-1-.5-.4-.1-.9-.2-1.3-.2s-.8 0-1.2.1c-.4.1-.8.3-1.1.7-.3.3-.5.8-.5 1.2 0 .4.1.7.2 1 .1.2.3.5.6.6s.5.3.8.5c.3.1.7.2 1 .3.3.1.6.2.8.3.1.1.2.1.4.2l.3.3c.1.1.1.3.1.4 0 .2-.1.4-.2.6-.1.2-.3.3-.5.3-.2.1-.5.1-.7.1-.3 0-.7-.1-1-.2-.3-.1-.6-.3-.8-.4-.3-.2-.4-.2-.6 0l-.4.6c-.1.2-.1.3.2.5.3.3.7.4 1.1.6.4.1.9.2 1.5.2.4 0 .8-.1 1.3-.2.4-.1.8-.3 1.2-.7.4-.4.5-.8.5-1.4 0-.4-.1-.7-.2-1-.3 0-.5-.3-.6-.4zm4.1-1.9c-.9 0-1.6.3-2 .8-.5.5-.7 1.2-.7 2.1 0 .9.2 1.6.7 2.1.5.5 1.1.8 2 .8.9 0 1.6-.3 2-.8.5-.5.7-1.2.7-2.1 0-.9-.2-1.6-.7-2.1-.4-.6-1.1-.8-2-.8zm.9 4.2c-.2.3-.5.4-.9.4s-.7-.1-.9-.4c-.2-.3-.3-.7-.3-1.4s.1-1.1.3-1.4c.2-.3.5-.4.9-.4s.7.1.9.4c.2.3.3.7.3 1.4s-.1 1.2-.3 1.4zm5.4-4.2c-.9 0-1.6.3-2 .8-.5.5-.7 1.2-.7 2.1 0 .9.2 1.6.7 2.1.5.5 1.1.8 2 .8.9 0 1.6-.3 2-.8.5-.5.7-1.2.7-2.1 0-.9-.2-1.6-.7-2.1-.4-.6-1.1-.8-2-.8zm.9 4.2c-.2.3-.5.4-.9.4s-.7-.1-.9-.4c-.2-.3-.3-.7-.3-1.4s.1-1.1.3-1.4c.2-.3.5-.4.9-.4s.7.1.9.4c.2.3.3.7.3 1.4s-.1 1.2-.3 1.4zm5.9-4.2c-.4 0-.6.1-.9.2-.2.1-.5.3-.6.6v-.3c0-.2-.1-.3-.3-.3h-.8c-.2 0-.3.1-.3.3v4.9c0 .2.1.3.3.3h.8c.2 0 .3-.1.3-.3v-2.1c0-.9.1-1.5.3-1.8s.5-.4.8-.4c.3 0 .6.1.7.3.1.2.2.7.2 1.4v2.5c0 .2.1.3.3.3h.8c.2 0 .3-.1.3-.3v-2.9c0-.9-.2-1.5-.5-1.9-.4-.3-.8-.5-1.4-.5zm3.6-1.5l.1 4.6c0 .2.1.3.3.3h.6c.2 0 .3-.1.3-.3l.1-4.6c0-.3-.1-.4-.4-.4h-.8c-.1 0-.2.1-.2.4zm1.2 5.6h-.8c-.2 0-.4.1-.4.4v.7c0 .3.1.4.4.4h.8c.2 0 .4-.1.4-.4v-.7c-.1-.3-.2-.4-.4-.4z"/><path fill="#DA1D00" d="M660.7 302.2v-24.9c0-1.7-1-3.3-2.5-4l-13.7-6.6c-1.2-.6-2-1.6-2.4-2.8-2.1-7.4-5.1-14.4-8.9-21-.7-1.2-.8-2.7-.3-4l5.9-14.4c.7-1.7.3-3.6-1-4.8l-18.2-18.2c-1.2-1.2-3-1.6-4.7-1l-16.3 5.9c-1.2.4-2.5.3-3.6-.3-6-3.2-12.3-5.8-19-7.7-1.3-.4-2.3-1.3-2.9-2.5l-7.1-16.3c-.7-1.6-2.3-2.7-4.1-2.7h-25.8c-1.9 0-3.6 1.2-4.2 3l-5.1 15c-.5 1.4-1.6 2.5-3.1 2.9-7.8 2-15.3 5-22.2 8.8l-17.2-6.1c-1.6-.6-3.4-.2-4.6 1l-19.3 18.8c-1.3 1.3-1.7 3.3-1 5l5.5 12.7c.6 1.3.5 2.8-.2 4-4.1 6.9-7.3 14.4-9.6 22.3-.4 1.3-1.2 2.3-2.4 2.9L440 273c-1.6.7-2.6 2.3-2.6 4v24.2c0 1.6.9 3.1 2.3 3.9l13.4 7.4c1 .6 1.8 1.6 2.1 2.7 2.2 7.8 5.5 15.2 9.5 22.1.7 1.2.8 2.8.2 4.1l-5.5 12.3c-.8 1.7-.4 3.6.9 5l18.6 18.9c1.2 1.2 3.1 1.7 4.7 1.1l15.4-5.6c1.2-.4 2.5-.3 3.7.3 5.9 3.1 12.2 5.7 18.8 7.6 1.3.4 2.3 1.2 2.8 2.4l7 15.3c.7 1.6 2.3 2.6 4.1 2.6h25.8c1.8 0 3.4-1 4.1-2.7l6.6-14.8c.5-1.2 1.6-2.1 2.9-2.5 7.2-2 14.1-4.7 20.5-8.2 1.2-.6 2.5-.7 3.8-.2l14.7 5.8c1.6.6 3.5.3 4.7-.9l19.4-18.7c1.3-1.2 1.7-3.1 1.1-4.7l-5.5-15.3c-.4-1.2-.3-2.6.3-3.7 3.3-6 6.1-12.4 8-19.1.4-1.2 1.2-2.2 2.3-2.8l14.2-7.2c1.5-.8 2.4-2.4 2.4-4.1z"/><ellipse fill="#FF6152" cx="548.7" cy="289.6" rx="77" ry="75.5"/><path fill="#fff" d="M518.2 260.6v58.2c0 2.8 2.3 5.1 5.1 5.1h29.1v-34.2l25.5-25.5c3.2-3.2.9-8.7-3.6-8.7h-51c-2.8.1-5.1 2.3-5.1 5.1"/><path fill="#DBE0DF" d="M552.4 289.7l25.5 25.5c3.2 3.2.9 8.7-3.6 8.7h-46.2c-3.7 0-5.5-4.4-2.9-7l27.2-27.2z"/></svg>