<svg xmlns="http://www.w3.org/2000/svg" viewBox="0 0 550 550" enable-background="new 0 0 550 550"><path fill="#FFFADD" d="M415.9 107C159.1 70.9-83.6 197.5 80 279.7c31.2 15.7 31.7 32.2 19.1 58.3-67.4 139.3 88.7 158.3 164.7 46.4 71.4-105.1 151-89.9 223.5-127.1 87-44.5 68.7-130.7-71.4-150.3z"/><ellipse transform="matrix(.912 -.411 .411 .912 -124.096 202.716)" fill="#FFFADD" cx="409.3" cy="389.9" rx="84.3" ry="43.1"/><path fill="#005779" d="M430 402.7L77.2 362c-5.5-.6-9.4-5.6-8.8-11.1l26.4-228.6c.6-5.5 5.6-9.4 11.1-8.8l352.8 40.7c5.5.6 9.4 5.6 8.8 11.1l-26.4 228.6c-.6 5.5-5.6 9.4-11.1 8.8z"/><ellipse transform="matrix(.115 -.993 .993 .115 -50.908 333.966)" fill="#90DB6E" cx="161.9" cy="195.5" rx="41" ry="41"/><path fill="#66ADCB" d="M427.5 276.5L232.7 254c-1.1-.1-1.9-1.1-1.8-2.2l11-95.4c.1-1.1 1.1-1.9 2.2-1.8l194.8 22.5c1.1.1 1.9 1.1 1.8 2.2l-11 95.4c-.1 1.2-1.1 2-2.2 1.8z"/><path fill="#FFD31C" d="M251.8 287.5l-22.6-2.6c-1.1-.1-1.9-1.1-1.8-2.2l1.1-9.5c.1-1.1 1.1-1.9 2.2-1.8l22.6 2.6c1.1.1 1.9 1.1 1.8 2.2l-1.1 9.5c-.1 1.2-1.1 2-2.2 1.8z"/><ellipse transform="matrix(.115 -.993 .993 .115 -68.383 480.973)" fill="#fff" cx="235.6" cy="278.9" rx="1.6" ry="1.6"/><path fill="#E5A317" d="M256 288l-13.5-1.6 1.6-13.5 13.5 1.6c1.1.1 1.9 1.1 1.8 2.2l-1.1 9.5c-.2 1.2-1.2 2-2.3 1.8z"/><path fill="#FFD31C" d="M290.1 292l-22.9-2.6c-1.1-.1-1.9-1.1-1.8-2.2l1.1-9.5c.1-1.1 1.1-1.9 2.2-1.8l22.9 2.6c1.1.1 1.9 1.1 1.8 2.2l-1.1 9.5c-.2 1.1-1.1 1.9-2.2 1.8z"/><path fill="#FF7353" d="M310.2 280.6l22.5 2.6c1.1.1 1.9 1.1 1.8 2.2l-1.1 9.5c-.1 1.1-1.1 1.9-2.2 1.8l-22.5-2.6c-1.1-.1-1.9-1.1-1.8-2.2l1.1-9.5c.1-1.1 1.1-1.9 2.2-1.8z"/><path fill="#90DB6E" d="M301.7 353.3l-76-8.8c-.6-.1-1.1-.6-1-1.3 3-21 22.3-35.9 43.5-33.5 21.2 2.5 36.6 21.4 34.7 42.5 0 .7-.6 1.2-1.2 1.1z"/><path fill="#FFD31C" d="M413.4 366.2l-76-8.8c-.6-.1-1.1-.6-1-1.3 3-21 22.3-35.9 43.5-33.5 21.2 2.5 36.6 21.4 34.7 42.5 0 .7-.5 1.2-1.2 1.1z"/><path fill="#fff" d="M269.7 342.4c-2 2.7-5.8 3.2-8.4 1.2-2.7-2-3.2-5.8-1.2-8.4 2.8-3.7 12.6-10.2 16.1-12.5.4-.3 1 .1.8.6-1.2 4.1-4.5 15.4-7.3 19.1zM382.5 350.3c.8 3.2-1.2 6.5-4.5 7.3-3.2.8-6.5-1.2-7.3-4.5-1.1-4.5.3-16.2.8-20.4.1-.5.7-.7 1-.2 2.4 3.5 8.9 13.3 10 17.8z"/><path fill="#66ADCB" d="M372.1 381.2l4.8-3.8c.9.4 1.9.3 2.7-.3.7-.5 1-1.3 1-2.1 0-.2-.3-.3-.4-.2l-1 .8c-.1.1-.2.1-.3 0l-1-.4c-.1 0-.1-.1-.2-.2l-.2-1.1c0-.1 0-.2.1-.2l1-.8c.2-.1.1-.4-.1-.5-.8-.2-1.8 0-2.4.7-.7.6-.9 1.6-.8 2.4l-4.8 3.8c-.8-.4-1.8-.3-2.5.2-.8.5-1.2 1.4-1.2 2.2 0 .2.3.3.4.2l1-.8c.1-.1.2-.1.3 0l1 .4c.1 0 .1.1.2.2l.2 1.1c0 .1 0 .2-.1.2l-1 .8c-.2.1-.1.4.1.5.8.2 1.6 0 2.3-.5.7-.6 1.1-1.6.9-2.6zM263.6 364.2c-.4-.5-1.2-.6-1.7-.1l-6.2 5.8c-.2.2-.2.4 0 .6.1.2.4.2.6.1l7.1-4.7c.5-.4.6-1.2.2-1.7zM266.7 360c-.2-.1-.3.2-.1.3.7.5.4 1.2-.8 1.2-2.6-.1-2.5 3.4.6 2.5 1.8-.5 2.6-3.2.3-4z"/><path stroke="#66ADCB" stroke-width="4" stroke-linecap="round" stroke-miterlimit="10" fill="none" d="M346.3 291.6l77.3 8.9"/><path fill="#E5A317" d="M294 292.4l-13.5-1.6 1.6-13.5 13.5 1.6c1.1.1 1.9 1.1 1.8 2.2l-1.1 9.5c-.2 1.2-1.2 1.9-2.3 1.8z"/><path fill="#CB3503" d="M305.8 280.1l13.5 1.6-1.6 13.5-13.5-1.6c-1.1-.1-1.9-1.1-1.8-2.2l1.1-9.5c.2-1.1 1.2-1.9 2.3-1.8z"/><ellipse transform="matrix(.115 -.993 .993 .115 56.701 658.778)" fill="#fff" cx="397.9" cy="297.6" rx="5.5" ry="5.5"/><ellipse transform="matrix(.115 -.993 .993 .115 -39.101 522.596)" fill="#fff" cx="273.6" cy="283.2" rx="1.6" ry="1.6"/><ellipse transform="matrix(.115 -.993 .993 .115 -10.512 563.236)" fill="#FF7353" cx="310.7" cy="287.5" rx="1.6" ry="1.6"/><path fill="#fff" d="M233.6 229l40.8-4.1 39.2 8.9 42.4-18.9 40.6-2.7 41.9-13.7-8.9 77.1c-.1.7-.7 1.2-1.4 1.1L231.9 254c-.7-.1-1.2-.7-1.1-1.4l2.8-23.6z"/><ellipse transform="matrix(.115 -.993 .993 .115 19.518 471.595)" fill="#90DB6E" cx="274.3" cy="224.8" rx="3.6" ry="3.6"/><ellipse transform="matrix(.115 -.993 .993 .115 101.745 543.913)" fill="#90DB6E" cx="356" cy="214.9" rx="3.6" ry="3.6"/><ellipse transform="matrix(.115 -.993 .993 .115 140.35 581.901)" fill="#90DB6E" cx="396.6" cy="212.2" rx="3.6" ry="3.6"/><ellipse transform="matrix(.115 -.993 .993 .115 45.392 518.496)" fill="#FFD31C" cx="313.6" cy="233.8" rx="3.6" ry="3.6"/><path fill="#66ADCB" d="M142 295.8l-33.3-3.8c-1.1-.1-1.9-1.1-1.8-2.2l3.8-33.3c.1-1.1 1.1-1.9 2.2-1.8l33.3 3.8c1.1.1 1.9 1.1 1.8 2.2l-3.8 33.3c-.1 1.2-1.1 2-2.2 1.8zM191.7 301.6l-33.3-3.8c-1.1-.1-1.9-1.1-1.8-2.2l3.8-33.3c.1-1.1 1.1-1.9 2.2-1.8l33.3 3.8c1.1.1 1.9 1.1 1.8 2.2l-3.8 33.3c-.1 1.1-1.1 1.9-2.2 1.8z"/><path fill="#fff" d="M185 275.1l-13.7-1.6c-.8-.1-1.6.5-1.7 1.3l-1.3 11.6c-.1.7.7 1.1 1.2.7l3.2-2.6 11 1.3c.8.1 1.6-.5 1.7-1.3l.9-7.8c.1-.8-.5-1.5-1.3-1.6z"/><ellipse transform="matrix(.115 -.993 .993 .115 -168.432 477.397)" fill="#fff" cx="183.6" cy="333.2" rx="6.4" ry="6.4"/><ellipse transform="matrix(.115 -.993 .993 .115 -225.613 396.116)" fill="#fff" cx="109.4" cy="324.6" rx="6.4" ry="6.4"/><ellipse transform="matrix(.115 -.993 .993 .115 -206.553 423.209)" fill="#FFD31C" cx="134.2" cy="327.5" rx="6.4" ry="6.4"/><ellipse transform="matrix(.115 -.993 .993 .115 -187.493 450.303)" fill="#fff" cx="158.9" cy="330.3" rx="6.4" ry="6.4"/><path fill="#005779" d="M132.4 268.4c-1.7-.2-3.2.5-4.2 1.7-.7-1.4-2.1-2.4-3.7-2.6-2.6-.3-5 1.6-5.3 4.2-.7 6.2 7.6 11 7.6 11s9.2-2.8 9.9-9c.1-2.7-1.7-5-4.3-5.3z"/><path fill="#D29D96" d="M166.4 211.4c-1.7-.5-2.9-2-2.8-3.7v-.9c5.8-.5 13.7-4.3 14.9-15 1.1-9.7-4.2-18.4-13.9-19.5-9.7-1.1-16.9 6.1-18 15.8-1.2 10.7 5.6 16.2 11.1 18l-.2.9c-.4 1.7-1.8 2.9-3.6 3-8.3.3-13.4 4.2-13.4 4.2l17.4 16 20.6-11.6s-4.1-5.1-12.1-7.2z"/><path fill="#005779" d="M178.2 193.5c3.2-5.2 3.7-11.8 2.1-15.9-2.8-7.1-7-2.5-7-2.5 0-.4 0-.7-.2-.9-5-24.3-26.3-7.2-33.5 5.7 0 0 1.6 7.3 7 13.4-.2-1.6-.3-3.3-.1-5.2l.3-1.8c8.3 3.5 19.6-.1 25.9-10.2-2.8 5.6 1.3 12.9 5.8 15.1 0 .2 0 .5-.1.7 0 .5-.1 1.1-.2 1.6z"/><path fill="#FFC7D2" d="M162.5 190.4l-4.7 5.7 7.9.9z"/><path fill="#E1F073" d="M176.8 215.1c.1.1.2.1.2.1-.1-.1-.1-.2-.2-.1zm-34-3.8s.1 0 .2-.1c-.1-.1-.2-.1-.2.1zm41.2 15.8c-2.3-8.7-7.1-11.9-7.1-11.9s-.1.1-.3.2c.1-.2.1-.3.2-.3-.7-.5-3.7-2.4-8.2-4.1 0 0-3.1 5.4-9.1 4.8s-7.7-6.7-7.7-6.7c-4.8.6-8.1 1.8-8.9 2.1 0 .1.1.2.1.4l-.3-.3s-5.4 2-9.6 9.9c-.4.8-.8 1.5-1.2 2.3 6.4 6.9 15.2 11.6 25.2 12.7 10.1 1.2 19.7-1.4 27.5-6.7-.1-.7-.3-1.6-.6-2.4z"/></svg>