<svg xmlns="http://www.w3.org/2000/svg" viewBox="0 0 760 466" enable-background="new 0 0 760 466"><path fill="#0284FF" d="M616.5 300.5c.8 9.7-7 20.2-7.7 30 0 0 1.3 2.9 4.3 6.8l-3.2 88.6L619 466h18.3c-.9-14.8-3.1-29.9-8-38.8 0 0 8.2-24.7 14.8-71 1.9.4 4 .6 6.1.8 2 .2 3.9.2 5.8.1 1.1 39.4 4.4 79.6 7.4 109h18.4c3.3-32.7 7.1-78.9 7.7-122.5.1-.2.3-.4.4-.7l.1-.1 21.3 5.9c1.4.4 2.9-.4 3.3-1.9l11.8-42.2c.4-1.4-.4-2.9-1.9-3.3l-7.9-2.2 11.6-15.3-8.2-24.7c1.7-1.7 4.1-3.2 7.6-4.4 0 0-6.7-33.2-38.3-48.7 0 .2-.1.4-.1.6-3.9-1.7-9.1-3.7-15.6-5.1-3.2-.7-5.5-3.5-5.5-6.8v-1.8c3.8-1.8 6.6-4.9 8-8.5 7.2 2.8 15.6 0 19.5-7 2.1-3.7 2.5-7.9 1.6-11.7 7.5-2 12.6-9.2 11.7-17.1-.5-4.2-2.6-7.9-5.6-10.4 4.9-6 4.8-14.8-.6-20.7-2.9-3.1-6.7-4.8-10.7-5.1.4-7.7-4.8-14.8-12.6-16.4-4.2-.9-8.3 0-11.6 2.1-4.2-6.5-12.6-9.1-19.8-5.8-3.9 1.8-6.7 4.9-8.1 8.6-7.2-2.8-15.6 0-19.5 7-2.1 3.7-2.5 7.9-1.6 11.7-7.5 2-12.6 9.2-11.7 17.1.5 4.2 2.6 7.9 5.6 10.4-4.9 6-4.8 14.8.6 20.7 2.9 3.1 6.7 4.8 10.7 5.1-.4 7.7 4.8 14.8 12.6 16.4 4.2.9 8.3 0 11.6-2.1 2.1 3.2 5.1 5.5 8.6 6.5v.1c-.5 3.2-3.2 5.6-6.5 5.9-6.6.5-12.1 1.6-16.2 2.7v-.7c-33.5 10.7-57.7 35.4-57.7 35.4.3.2.6.5.9.7-3.1 3.2-5.1 5.4-5.1 5.4-13.3-16.1-33.6-28.7-40.3-32.5l-2.9 4.8 42.5 46.5s8.2-5.1 18.2-11.7c7.6 11.4 3.9 20.5 10.3 30.3 8.9 14.2 15.6 10.2 16.5 19.9zm87.8-5.1c-.1.1-.1.2-.2.3l-.2-.1c.1-.1.3-.1.4-.2z"/><path fill="none" d="M0 0h760v466H0z"/><path fill="#84D9FF" d="M499.1 68.2c2.8 0 5 2.2 5 5v243.4c0 2.8-2.2 5-5 5H78.4c-2.8 0-5-2.2-5-5V73.2c0-2.8 2.2-5 5-5h420.7m0-6H78.4c-6.1 0-11 4.9-11 11v243.4c0 6.1 4.9 11 11 11h420.7c6.1 0 11-4.9 11-11V73.2c0-6-4.9-11-11-11z"/><path fill="#331416" d="M698.5 115.7c-.5-4.7-2.9-8.7-6.3-11.6 5.4-6.7 5.3-16.5-.7-23-3.2-3.5-7.5-5.4-11.8-5.7.5-8.6-5.4-16.4-14-18.2-4.6-.9-9.2 0-12.9 2.4-4.7-7.2-14-10.1-22.1-6.5-4.3 2-7.4 5.4-9.1 9.5-8-3.1-17.3 0-21.7 7.7-2.3 4.1-2.8 8.8-1.7 13-8.3 2.2-14 10.2-13 19 .5 4.7 2.9 8.7 6.3 11.6-5.4 6.7-5.3 16.5.7 23 3.2 3.5 7.5 5.4 11.8 5.7-.5 8.6 5.4 16.4 14 18.2 4.6.9 9.2 0 12.9-2.4 4.7 7.2 14 10.1 22.1 6.5 4.3-2 7.4-5.4 9.1-9.5 8 3.1 17.3 0 21.7-7.7 2.3-4.1 2.8-8.8 1.7-13 8.3-2.2 14-10.2 13-19z"/><path fill="#2912A7" d="M639.4 318.8c0 51.2 4.5 107.6 8.4 147.2h20.8c3.9-39.6 8.4-96 8.4-147.2h-37.6zm-47 0L589.6 425l8.8 41H619c-1.1-15.8-3.5-31.5-8.8-41 0 0 12.3-37.2 19.9-106.3h-37.7z"/><path fill="#664D4E" d="M591.4 187.6c-17.7 2.4-44.8 33.3-44.8 33.3-14.7-17.9-37.4-31.9-44.8-36.1-.8-5-9.4-7.5-12.5-15.2 0 0-1.8 2-1.9 5-.1 0-.1-.1-.2-.1-9.3-3.9-17.1-6.3-17.1-6.3l-1.6 3.7s4 11.5 13.3 15.4c6.8 2.9 13.2 3.8 16.8 2.8l47.2 51.7s38.4-23.8 54.3-37.8c15.9-14 9-18.8-8.7-16.4zM700 205.3c-6.5-12.4-10.4-18.6-15.3-20.1l.7-.5s-9.3-6.6-26-10.4c-3.5-.8-6.1-3.9-6.2-7.5l-.2-10.3c10.1-5.6 21.9-22.3 19.7-42.3-.3-2.6-.8-5-1.5-7.4-3.9-6-12.5-13.4-30.8-11.3-18.4 2.1-25.1 11.2-27.5 17.9-.2 2.4-.1 5 .2 7.5 2.3 20.1 17.8 33.8 28.9 36.9l-1.3 7.9c-.6 3.6-3.6 6.3-7.2 6.5-17.2 1.2-27.3 6.4-27.3 6.4l37.3 35.3 27.4-19.1c1.4 7.1 11.3 15 11.3 15 6.1 34.7 24.1 57.4 24.1 57.4 5.1 4.4 13.8-1.7 13.8-1.7L700 205.3z"/><path fill="#A79899" d="M638.5 119.8l-3.4 14.1 13-3.2z"/><path fill="#CFE143" d="M633.4 346.9c33.6 2.5 49.8-22.2 49.8-22.2.8-10.9-6-23.8-3.5-34.3 2.5-10.5 9.2-4.9 21.6-18.8 11.6-13.1-3-31.3 18.1-38.2 0 0-7.4-36.9-42.5-54.2-.6 7-19.9 16.7-32.1 15.8-12.2-.9-29.8-13.3-29.4-20.4-37.3 11.9-64.1 39.4-64.1 39.4 27.7 20.3 16.8 33.6 26.3 48.3 10.1 15.6 17.6 11.1 18.5 21.8.9 10.8-7.8 22.4-8.6 33.4-.1.1 12.3 26.9 45.9 29.4"/><path fill="#DFEE73" d="M600.2 209.9c.2-2.4-1.6-4.6-4.1-4.7-2.4-.2-4.6 1.6-4.7 4.1s1.6 4.6 4.1 4.7 4.5-1.7 4.7-4.1zm20.3-1.5c2.4.2 4.6-1.6 4.7-4.1.2-2.4-1.6-4.6-4.1-4.7s-4.6 1.6-4.7 4.1c-.2 2.4 1.7 4.6 4.1 4.7zm-1.8 24.5c-.2 2.4 1.6 4.6 4.1 4.7 2.4.2 4.6-1.6 4.7-4.1s-1.6-4.6-4.1-4.7c-2.4-.2-4.5 1.6-4.7 4.1zm-17.6 13.2c-2.4-.2-4.6 1.6-4.7 4.1-.2 2.4 1.6 4.6 4.1 4.7 2.4.2 4.6-1.6 4.7-4.1.1-2.4-1.7-4.5-4.1-4.7zm25.5 14.9c-2.4-.2-4.6 1.6-4.7 4.1-.2 2.4 1.6 4.6 4.1 4.7 2.4.2 4.6-1.6 4.7-4.1.2-2.4-1.6-4.5-4.1-4.7zm-7.5 25.8c-2.4-.2-4.6 1.6-4.7 4.1-.2 2.4 1.6 4.6 4.1 4.7 2.4.2 4.6-1.6 4.7-4.1.1-2.4-1.7-4.5-4.1-4.7zm32.2.1c-2.4-.2-4.6 1.6-4.7 4.1-.2 2.4 1.6 4.6 4.1 4.7 2.4.2 4.6-1.6 4.7-4.1.1-2.4-1.7-4.5-4.1-4.7zm-36.6 25.9c-2.4-.2-4.6 1.6-4.7 4.1-.2 2.4 1.6 4.6 4.1 4.7 2.4.2 4.6-1.6 4.7-4.1.2-2.4-1.6-4.5-4.1-4.7zm54.4-105c-2.4-.2-4.6 1.6-4.7 4.1-.2 2.4 1.6 4.6 4.1 4.7 2.4.2 4.6-1.6 4.7-4.1.2-2.4-1.7-4.5-4.1-4.7zm24.9 1.8c-2.4-.2-4.6 1.6-4.7 4.1-.2 2.4 1.6 4.6 4.1 4.7 2.4.2 4.6-1.6 4.7-4.1.2-2.4-1.6-4.5-4.1-4.7zm-41.3 25.2c2.4.2 4.6-1.6 4.7-4.1s-1.6-4.6-4.1-4.7c-2.4-.2-4.6 1.6-4.7 4.1-.2 2.4 1.6 4.5 4.1 4.7zm11.9 26.9c-2.4-.2-4.6 1.6-4.7 4.1-.2 2.4 1.6 4.6 4.1 4.7s4.6-1.6 4.7-4.1c.1-2.4-1.7-4.5-4.1-4.7zm-4.6 50c-2.4-.2-4.6 1.6-4.7 4.1-.2 2.4 1.6 4.6 4.1 4.7 2.4.2 4.6-1.6 4.7-4.1.2-2.4-1.6-4.5-4.1-4.7zm26.7-63.2c-2.4-.2-4.6 1.6-4.7 4.1-.2 2.4 1.6 4.6 4.1 4.7 2.4.2 4.6-1.6 4.7-4.1.1-2.4-1.7-4.5-4.1-4.7z"/><path fill="#F4F8F7" d="M717.9 288.8l-13.1 46.9c-.4 1.6-2.1 2.5-3.7 2.1l-61.1-17c-1.6-.4-2.5-2.1-2.1-3.7l13.1-46.9c.4-1.6 2.1-2.5 3.7-2.1l61.1 17c1.6.5 2.6 2.1 2.1 3.7z"/><ellipse transform="matrix(.268 -.963 .963 .268 204.195 874.803)" fill="#DBE0DF" cx="678" cy="303" rx="6.3" ry="6.3"/><path fill="#664D4E" d="M720 265.7c-8.1-10.1-12.7-5.7-12.7-5.7-12 10-26.7 44.1-30.2 52.7-4.9.3-8.8 8-16.7 9.6 0 0 1.6 2.2 4.6 2.7 0 .1-.1.1-.1.2 0 0-2 2.3-4.8 1.6-10.6 1.1 11 14.5 16.5 6 4.4-6.8 6.5-13.7 5.4-17.2l38-49.9zM185.9 343.5s4.9 9 10 14.2c-.6 3.6-2.5 18.7 4.7 43.2.9 2.9 1.9 5.6 3 8-5.3 14.2-19.5 26.8-41.5 57.1h46.1c8.5-16.3 17.9-31 27.5-43 7.8-2.9 17.3-10.4 27.8-24.4 17.4-23.3 27.8-27.2 27.8-27.2s-9.3-15.9-31.9 8.9c-1.6 1.7-3.2 3.3-4.7 4.6 1.5-12.6-1.2-21.8-1.2-21.8-.7-13.6 1.8-34.7 4.7-48.7 2.6-12.3-5-14.2-10.2-1.6-4.9 12-6.2 21.9-7.1 40.7-2-1.1-3.9-2-5.8-2.8-2.2-21-8.3-27.6-8.3-27.6s.5-5.8 1.2-19.7c.4-7.9-2.1-11.6-4.2-13.4-1.4-1.1-3.4-.5-3.9 1.2-3.8 12.5-5.4 31.3-5.4 31.3s2.5 10.9 5.3 25.4c-.9 0-1.8.1-2.7.2-6.4-18.8-12.1-22.5-12.1-22.5s.4-15.4-1.7-22.8c-.9-3.2-2.4-4.8-3.7-5.5-1.5-.8-3.3.1-3.6 1.8-2.4 14.7-1.5 26.8-1.5 26.8s2.8 10.8 11.7 24.9c-.8.3-1.6.7-2.3 1-4.6-5.2-10.8-11.2-10.8-11.2s-2.9-13.1-7-19.5c-1.3-2.1-2.6-3.2-3.8-3.8-1.9-1-4 .9-3.4 2.9l7 23.3z"/><path fill="#fff" d="M291.6 448.4c2.4 2.1 4.6 3.7 6.7 5-.5 4-1.4 8.2-2.5 12.5H312c.8-4.3 2-7.6 4.4-10.5 2.8-2.2 4.8-6.4 5.3-12.4.8-10.1-.7-16.5-1.7-19.5.2-.3.4-.7.5-1.2.9-3.4 1.3-9.6 1.3-9.6l.4-11.1c0-1-1.2-1.6-2-.9-.5.4-.9 1.1-1.3 2.2-1 3.1-2.5 12.6-2.9 17.4-.9-.3-2-.5-3.2-.6.6-6.6-.8-21.9-.8-21.9 0-1.2-1.5-1.8-2.4-.9-.5.5-1 1.4-1.3 2.7-.9 3.6-1.6 14.5-1.5 20.3-.6.1-1.3.3-1.9.5-.1-.4-.2-.9-.3-1.4-2.7-9.7-2.8-14-3.6-20.6s-4.1-5.7-5 .3c-.9 6.8.6 17.9 2.8 24.1.1.2.2.4.2.6-.6.4-1.1.9-1.7 1.4-3.4-8.6-5-13.1-7.8-18.8-3-5.9-5.6-4-4.2 1.9 1.6 6.7 4.7 16.2 7.5 22.2-.1.1-.1.2-.2.2 0 0-.3 4.6 1.6 10.4-.9-.5-1.8-1-2.7-1.7-11.4-8.1-13.4.3-13.4.3s2.9-.1 13.5 9.1z"/><path fill="#A79899" d="M78.5 431.3c-.2.9-.4 1.8-.7 2.6-2.1-4.8-5-7.5-5-7.5-3.1-4.7-6.6-12.7-8.5-18.3-1.6-4.9-4.8-4-4 1.5.8 5.3 2.4 9.1 6 16-.9 0-1.8.1-2.7.2-5.2-7-8.7-8.1-8.7-8.1s-1-2.2-3.7-7.3c-1.5-2.9-3.2-3.7-4.3-3.9-.7-.1-1.3.5-1.1 1.2C47 413 50.4 420 50.4 420l7.2 7.9-.9.6c-6.2-5.4-9-5.5-9-5.5s-3.1-5.6-5.4-7.8c-1-.9-1.8-1.2-2.5-1.2s-1.2.7-.9 1.4c2.2 5.8 5 9.9 5 9.9s3.3 3.3 9.4 6.5c-.2.3-.4.6-.6.8-2.7-.9-6.2-1.7-6.2-1.7s-3.7-4.1-6.6-5.5c-.9-.5-1.6-.6-2.1-.6-.9.1-1.3 1.1-.6 1.8l7.3 6.8s3.6 2.2 6.5 3c.5 1.4 3 7.2 10.7 14.4.9.9 1.8 1.6 2.7 2.2.6 3.5.1 7.4-.7 12.8H78c0-5.2.4-10.1 1-14.5 2.2-2.7 4-7.3 4.8-14.5 1.4-11.9 4.3-15.5 4.3-15.5s-6.7-3.5-9.6 10zM468 463.1c-12.4-35.6-22.2-40.8-21-51.1v-.7c.3-1 .6-2.1.8-3.4 1.3-7.7.6-12.8.1-15.1.2-.2.3-.5.5-.9.9-2.5 1.6-7.3 1.6-7.3l1.1-8.6c.1-.8-.8-1.3-1.5-.9-.4.3-.8.8-1.2 1.6-1 2.3-2.8 9.6-3.4 13.2-.7-.3-1.5-.5-2.4-.7.9-5 .9-16.9.9-16.9 0-.9-1.1-1.5-1.8-.9-.4.4-.9 1-1.2 2-.9 2.7-2.2 11.1-2.6 15.6-.5.1-1 .1-1.5.3 0-.3-.1-.7-.1-1.1-1.4-7.7-1.2-11-1.3-16.1s-2.8-4.7-3.9-.1c-1.2 5.2-.8 13.8.5 18.8 0 .2.1.3.1.5-.5.3-.9.6-1.4 1-2-6.9-2.9-10.5-4.7-15-1.9-4.8-4.1-3.5-3.4 1.2.8 5.2 2.5 12.8 4.3 17.6 0 .1-.1.1-.1.2 0 0-.6 3.5.6 8.2-.6-.4-1.3-.9-2-1.5-8.3-7.1-10.4-.7-10.4-.7s2.1-.1 9.7 7.7c3.2 3.3 6 5.4 8.5 6.7 7 11.6 12.7 30 13.9 47.8 0 .5.1 1.1.2 1.6h21.9c-.1-1-.4-2-.8-3z"/><g fill="#EBC7C1"><path d="M577.9 375.5c-.8.2-1.7.7-2.8 1.7-2.8 2.7-9.6 11.6-13.2 16.7-.7-.6-1.5-1.3-2.5-2 4.1-6.8 10.9-25.5 10.9-25.5.6-1.4-.8-2.8-2.2-2.3-.9.3-1.9 1-3 2.4-2.9 3.6-9.5 15.6-12.5 22.2-.7-.2-1.4-.4-2.2-.5.2-.5.3-1.1.5-1.7 2.8-12.3 5.2-17 8.3-24.6 3.1-7.6-1.1-8.7-5.6-2.6-5.1 6.9-10 19.9-11.3 28 0 .3-.1.5-.1.8-.9.1-1.8.3-2.7.5 1.4-11.4 2.4-17.3 2.7-25.2.3-8.2-3.8-7.7-5.7-.4-2.2 8.2-4.5 20.5-5 28.7-.1.1-.2.1-.3.2 0 0-3.1 4.8-4.4 12.4-.7-1-1.3-2.2-2-3.5-7.7-15.7-14.8-7.7-14.8-7.7s3.2 1.2 9.4 17.6c2.4 6.4 4.9 11.1 7.5 14.4.1 12.1-1.8 26.3-5.5 40.8h24.1c.5-17.7-.7-27.2 2.1-34.9 2.7-1.7 5.4-4.5 7.9-8.3 7.8-12.1 9.6-20.8 10-23.7 3-3.2 6.9-9.5 6.9-9.5l7-12c.7-.9-.3-2.2-1.5-2zM147.1 402.7c-.7.9-1.4 1.7-2.2 2.4.3-6.2-1.3-10.6-1.3-10.6-.1-.1-.2-.1-.2-.2 1.1-6.6 1.5-16.7 1.2-23.6-.2-6.1-3.4-7.2-4.6-.7-1.2 6.3-1.5 11.1-2.4 20.4-.7-.3-1.4-.6-2-.9 0-.2.1-.4.1-.6.5-6.6-1.1-17.8-3.9-24.2-2.4-5.6-6-5.5-4.9 1 1.1 6.6 2.1 10.8 2.2 21 0 .5 0 1 .1 1.4h-2c-1.5-5.7-5.2-16.2-7-19.4-.7-1.2-1.4-1.9-2.1-2.3-1.1-.6-2.3.4-2.1 1.6 0 0 2.9 15.3 5.3 21.5-1.1.5-2.1 1-2.9 1.5-1.8-4.5-5.8-13.4-7.6-16.1-.7-1-1.3-1.6-1.9-1.8-.9-.5-2 .4-1.7 1.4l3.4 10.7s2.1 5.9 3.9 9c.2.4.5.7.8 1-.1 3.1.2 9.8 3.7 19.4.6 1.5 1.2 2.9 1.9 4.1.1.3.1.6.2.9 3.3 10.4-3.4 18.3-10 46.4h22c.3-16.4 3-32.2 7.3-43.8 2.9-2.2 6-5.6 9.3-10.6 7.8-11.9 10.6-12.3 10.6-12.3s-4.2-7.7-13.2 3.4z"/></g><path fill="#FFF3C1" d="M478.6 445.5c2 1.7 3.8 3.1 5.6 4.2-.7 5.1-2 10.6-3.7 16.3h14.3c.9-6.8 1.6-11 4.5-14.6 2.3-1.9 4-5.4 4.4-10.3.6-8.4-.6-13.8-1.4-16.3.2-.3.3-.6.4-1 .7-2.8 1.1-8 1.1-8l.3-9.3c0-.9-1-1.4-1.6-.8-.4.3-.8.9-1.1 1.9-.8 2.6-2.1 10.5-2.4 14.5-.8-.2-1.7-.4-2.6-.5.5-5.5-.6-18.3-.6-18.3 0-1-1.3-1.5-2-.8-.4.4-.8 1.1-1.1 2.3-.7 3-1.3 12.1-1.3 17-.5.1-1.1.2-1.6.4-.1-.4-.1-.7-.3-1.1-2.3-8.1-2.4-11.7-3-17.2-.6-5.5-3.5-4.8-4.1.3-.8 5.7.5 14.9 2.3 20.1.1.2.1.3.2.5-.5.4-.9.7-1.4 1.2-2.8-7.2-4.1-11-6.5-15.7-2.5-4.9-4.7-3.3-3.5 1.6 1.3 5.6 3.9 13.5 6.3 18.5 0 .1-.1.1-.1.2 0 0-.3 3.8 1.4 8.7-.7-.4-1.5-.9-2.3-1.4-9.6-6.8-11.2.2-11.2.2s2.1-.3 11 7.4z"/><path fill="#F0EBEC" d="M324 367c6.4 9.8 12.5 16.5 18.1 20.8 12.2 20.3 22.9 48.2 29.7 78.1h46c-20.5-46.3-35.7-63.5-39.4-80.3 2.5-3.3 4.8-7.5 6.6-12.6 7.9-21.7 7.6-35.9 7.3-40.7.3-.5.6-1 .8-1.5 2.4-6.6 4.4-18.9 4.4-18.9l2.9-22.1c.3-2.1-2.1-3.5-3.7-2.2-1 .7-2.1 2-3 4.2-2.4 5.8-7.1 23.7-9 33.4-1-.6-2.1-1.1-3.4-1.6 1.9-12.5.1-44.9.1-44.9 0-2.4-2.9-3.7-4.7-2-1.1 1-2.1 2.7-2.9 5.4-1.9 6.7-3.9 26.5-4.4 38.5-1.6-.1-3.2-.2-4.9-.1.1-.9.1-2 .1-3-.6-20.2 1.3-28.7 3-41.8 1.7-13.1-5.3-13.1-9.8-1.8-5.1 12.9-7.5 35.1-6.2 48.3 0 .4.1.8.2 1.2-1.2.5-2.4 1-3.6 1.6-1.5-18.4-1.9-28-4-40.5-2.2-13-8.5-11-9.2 1.2-.8 13.8-.4 34 1.6 47.1-.2.1-.3.2-.5.4 0 0-3.1 8.7-2.5 21-1.4-1.4-2.9-3-4.3-4.7-17.7-22-26.1-6.8-26.1-6.8s5.3.7 20.8 24.3z"/><g fill="#84D9FF"><path d="M162.2 192.3c-.3 0-.5-.2-.5-.5l-2-23c0-.3.2-.5.4-.5l68.9-6.9-.4-4.1c0-.3.2-.5.5-.5s.5.2.5.5l.4 4.1 3.1-.3c.3 0 .5.2.5.4 0 .3-.2.5-.4.5l-3.1.3 2.1 24.2c0 .1 0 .3-.1.4-.1.1-.2.2-.3.2l-69.6 5.2zm-1.5-23.1l2 22 68.6-5.2-2.1-23.7-68.5 6.9zM110.1 245.3c-.1 0-.3-.1-.4-.2-.1-.1-.1-.2-.1-.4l2-23.1c0-.3.2-.5.5-.5l67.5-1.1v-3.2c0-.3.2-.5.5-.5s.5.2.5.5v3.2l4-.1c.3 0 .5.2.5.5s-.2.5-.5.5l-4 .1-.2 20.7c0 .3-.2.5-.5.5l-69.8 3.1c.1 0 .1 0 0 0zm2.5-23.1l-1.9 22.1 68.7-3 .2-20.2-67 1.1zM211.2 244.7c-.2 0-.4-.2-.5-.4-.1-.3.1-.5.4-.6l72.4-14.1-2.9-17c0-.3.1-.5.4-.6.3 0 .5.1.6.4l3 17.5c0 .3-.1.5-.4.6l-73 14.2c.1 0 .1 0 0 0zM216.3 247.5c-.2 0-.5-.2-.5-.4l-4.9-29c0-.1 0-.3.1-.4s.2-.2.3-.2l68.9-10.7c.3 0 .5.1.6.4 0 .3-.1.5-.4.6L212 218.5l4.8 28.5c0 .2-.2.5-.5.5zM273.3 133.6s-.1 0 0 0l-72.5-1.4c-.3 0-.5-.2-.5-.5s.3-.5.5-.5l71.9 1.4-.8-21.3-65.2-.3-.8 17.4c0 .3-.2.5-.5.5s-.5-.2-.5-.5l.8-17.9c0-.3.2-.5.5-.5l66.2.3c.3 0 .5.2.5.5l.8 22.3c0 .1 0 .3-.1.4-.1 0-.2.1-.3.1zM106 157.2c-.2 0-.5-.2-.5-.4l-4.4-28.4c0-.3.1-.5.4-.6l71-14.4c.3-.1.5.1.6.4.1.3-.1.5-.4.6l-70.5 14.3 4.3 27.9c0 .2-.1.5-.5.6.1 0 0 0 0 0zM100.8 153.4c-.2 0-.4-.2-.5-.4-.1-.3.1-.5.4-.6l70.7-13.4-3.8-24.1c0-.3.1-.5.4-.6.3 0 .5.1.6.4l3.9 24.6c0 .3-.1.5-.4.6l-71.3 13.5c.1 0 0 0 0 0zM156.6 235.4c-.4 0-.8 0-1.2-.1-1.7-.2-2.8-.7-3.2-1.5-.1-.2-.2-.3-.2-.5l-3.5 1.6c-.2.1-.3.1-.5 0s-.2-.3-.2-.4v-2l-3.7 2.4c-.2.1-.4.1-.6 0-.9-.7-1.1-1.6-1.2-2.4l-3 2.3c-.2.2-.5.1-.7 0l-1.8-1.8c-4 2.3-4.4 1.8-4.6 1.5-.4-.5.1-1.2.4-1.6.8-1 .9-1.7.7-1.8-.3-.3-1.9-.1-5.1 2.5-.2.2-.5.1-.7-.1-.2-.2-.1-.5.1-.7 3.1-2.5 5.4-3.4 6.4-2.4.7.6.4 1.8-.6 3.1 0 0 0 .1-.1.1.8-.3 2.2-1 3.3-1.7.2-.1.5-.1.6.1l1.7 1.8 3.6-2.8c.2-.1.4-.1.6 0 .2.1.3.4.2.6 0 .1-.4 1.4.5 2.3l4.2-2.7c.2-.1.3-.1.5 0s.3.3.3.4v2.1l3.5-1.6c.2-.1.4 0 .6.1.1.1.2.4.1.6 0 0-.1.3.1.6s.7.8 2.5 1c3.5.4 6-1.4 6-1.4.2-.2.5-.1.7.1.2.2.1.5-.1.7-.1 0-2.3 1.6-5.6 1.6zM237 123.4h-.2c-.2-.1-.3-.2-.3-.4l-.2-2.1-3.3 2c-.2.1-.4.1-.6 0s-.2-.3-.2-.5c0 0 .1-.3-.1-.6s-.8-.7-2.5-.7c-3.5 0-5.8 2-5.8 2-.2.2-.5.2-.7 0-.2-.2-.2-.5 0-.7.1-.1 2.6-2.3 6.5-2.3 1.7 0 2.8.4 3.4 1.2.1.2.2.3.2.5l3.3-1.9c.1-.1.3-.1.5 0s.3.2.3.4l.2 2 3.5-2.7c.2-.1.4-.1.6 0 1 .6 1.3 1.5 1.4 2.2l2.7-2.6c.2-.2.5-.2.7 0l2 1.7c3.7-2.7 4.2-2.2 4.5-2 .5.5 0 1.2-.2 1.6-.7 1-.7 1.7-.5 1.9.3.3 1.9-.1 4.8-3 .2-.2.5-.2.7 0 .2.2.2.5 0 .7-2.8 2.8-5.1 3.9-6.1 3-.7-.6-.6-1.8.3-3.2 0 0 0-.1.1-.1-.8.4-2.1 1.2-3.2 2-.2.1-.4.1-.6 0l-1.9-1.6-3.3 3.1c-.2.2-.4.2-.6.1-.2-.1-.3-.3-.2-.5 0-.1.3-1.4-.7-2.2l-3.9 3.1c-.4-.5-.5-.4-.6-.4zM460.1 123.8c-.3 0-.7 0-1-.1-1.7-.2-2.8-.7-3.2-1.5-.1-.2-.2-.3-.2-.5l-3.4 1.6c-.2.1-.3.1-.5 0-.1-.1-.2-.2-.2-.4v-2l-3.7 2.4c-.2.1-.4.1-.6 0-.9-.7-1.2-1.6-1.2-2.3l-3 2.4c-.2.2-.5.1-.7 0l-1.8-1.8c-3.9 2.3-4.4 1.8-4.6 1.6-.5-.5.1-1.2.4-1.6.7-1 .8-1.7.7-1.8-.3-.3-1.9 0-5.1 2.5-.2.2-.5.1-.7-.1-.2-.2-.1-.5.1-.7 3.1-2.5 5.4-3.5 6.4-2.5.7.6.5 1.8-.6 3.2 0 0 0 .1-.1.1.8-.3 2.2-1 3.3-1.7.2-.1.5-.1.6.1l1.8 1.8 3.5-2.8c.2-.1.4-.1.6 0s.3.4.2.6c0 .1-.4 1.4.5 2.3l4.2-2.7c.2-.1.3-.1.5 0s.3.3.3.4v2.1l3.5-1.7c.2-.1.4-.1.6.1.1.1.2.4.1.6 0 0-.1.3.1.6s.7.8 2.5 1c3.5.4 6-1.5 6-1.5.2-.2.5-.1.7.1.2.2.1.5-.1.7-.4-.2-2.6 1.5-5.9 1.5zM239.9 230h-.1c-.2-.1-.4-.3-.4-.5l.1-4-4 4.1c-.1.1-.3.2-.4.1-.2 0-.3-.1-.4-.3l-.9-1.9c-1.4 1.3-3.8 2.5-4.9 2.2-.4-.1-.6-.3-.7-.6-.1-.5 0-1.2 2-3.2.2-.2.5-.2.7 0 .2.2.2.5 0 .7-1.4 1.4-1.7 2-1.7 2.2.7.1 3.1-.9 4.4-2.5.1-.1.3-.2.5-.2s.3.1.4.3l.9 1.9 4.4-4.5c.1-.1.4-.2.6-.1.2.1.3.3.3.5l-.1 3.5 2.2-3.3c.1-.2.3-.3.5-.2.2 0 .3.1.4.3l.9 1.9c.5-.2 1.4-.6 2.2-1.6-1.3-1.7-.9-2.7-.7-3.1.4-.6 1.2-.8 1.8-.5.6.3 1.1 1.1.6 2.3-.2.4-.3.8-.5 1.2l.8.8c1.8 1.6 2.3 1.5 2.3 1.5.1-.2-.2-1.6-.7-2.7-.1-.2 0-.5.2-.6.2-.1.5-.1.6 0l1.6 1.5 1.9-3.2c.1-.2.4-.3.6-.2.2.1.4.3.3.6-.2 1-.2 2.6.3 3 .3.2.9-.1 1.2-.3 1.8-1.1 2-3.4 2-3.4 0-.3.2-.5.5-.5s.5.2.5.4l.2 1.4 2.9-3.5c.2-.2.5-.2.7-.1.2.2.3.5.1.7 0 0-.8 1.1-.4 2.2.2.7.9 1.3 1.9 1.7.3.1.4.4.3.7-.1.3-.4.4-.7.3-1.4-.6-2.2-1.4-2.5-2.4-.1-.2-.1-.4-.1-.6l-2.1 2.6c-.1.2-.3.2-.5.2-.2-.1-.3-.2-.4-.4l-.1-.4c-.4.7-.9 1.5-1.9 2-1 .6-1.7.6-2.3.2-.5-.4-.8-1.1-.8-1.8l-1.2 2c-.1.1-.2.2-.4.2-.1 0-.3 0-.4-.1l-.6-.5c.2.8.2 1.7-.3 2-.7.5-1.7 0-3.5-1.6-.3-.2-.5-.5-.7-.7-1.3 1.6-2.9 1.9-3 1.9-.2 0-.4-.1-.5-.3l-.7-1.5-2.6 4c-.3.1-.5.2-.6.2zm-10.8-1.2zm17.9-6.7c-.1 0-.3.1-.3.2-.2.2-.2.8.4 1.6l.3-.6c.2-.6.1-1-.1-1.1-.2-.1-.3-.1-.3-.1zM350.2 108.4h-.3c-1-.3-1.2-2.2-1.1-4l-1.4 1.6c-.1.1-.2.2-.4.2s-.3-.1-.4-.2l-2-2.8c.1 1.1 0 2.2-.8 2.8-.6.6-1.6.5-2.8 0-1.4-.6-1.9-1.8-2-2.9l-.9 1.4c-.1.2-.3.2-.5.2s-.3-.1-.4-.3l-2.3-6.4c-.1 2.7-.8 6.1-3.7 7.6-.2.1-.5 0-.7-.2-.1-.2 0-.5.2-.7 4.4-2.3 3-10 3-10.1 0-.3.1-.5.4-.6.2-.1.5.1.6.3l3.2 8.7 1.7-2.5c.1-.2.4-.3.7-.2.2.1.3.4.2.6-.1.1-1.2 2.9 1.1 4 .6.3 1.4.5 1.8.2.7-.6.4-3 .1-4-.1-.2 0-.5.3-.6.2-.1.5 0 .6.2l2.9 4.1 1.9-2.2c.1-.2.4-.2.6-.1.2.1.3.3.3.5-.2 2.1 0 4.2.3 4.4 0 0 .6-.1 2-2.7.2-.4.5-.9.6-1.3-.2-.5-.4-1-.5-1.6-.6-4.6.3-6.7 1.3-7.2.5-.2.9-.1 1.3.3.9.9 1.2 3.9-1 8.6 1 1.6 2.8 1.9 3.6 1.9l.2-3.3c0-.2.1-.3.3-.4.2-.1.4-.1.5.1l5.2 3.9c1.4-1.2 1-3 1-3.1 0-.2 0-.4.2-.5.2-.1.4-.1.6.1l4.4 4 2.5-2.2c.2-.2.4-.2.6 0 1.7 1.2 3.7 2.4 4.5 2.7-.1-.1-.2-.3-.3-.5-1.1-1.7-1.3-3.2-.5-3.9 1.3-1.1 4.2.3 7.8 3.8.2.2.2.5 0 .7-.2.2-.5.2-.7 0-4.2-4-6.1-4-6.4-3.7-.3.3-.2 1.3.7 2.6.3.4.9 1.4.4 1.9-.2.2-.9.9-5.7-2.5l-2.6 2.2c-.2.2-.5.2-.7 0l-3.8-3.5c-.1.9-.4 2.2-1.7 3.1-.2.1-.4.1-.6 0l-4.8-3.6-.2 2.8c0 .3-.2.5-.5.5 0 0-2.9.1-4.6-1.9-.1.2-.3.5-.4.8-1.2 1.9-2.1 2.9-2.9 2.9zm4-13s-.1 0 0 0c-.5.3-1.4 2.1-.8 6.2 0 .2.1.3.1.5 1.6-3.8 1.3-6.1.8-6.6-.1 0-.1-.1-.1-.1zM133.1 137.2h-.1c-.2-.1-.4-.3-.4-.5v-4.1l-3.2 3.2c-.2.2-.5.2-.7 0l-1.6-1.2c-1.4 1.4-3.8 2.7-5 2.5-.4-.1-.6-.3-.7-.6-.1-.5-.1-1.2 1.9-3.3.2-.2.5-.2.7 0 .2.2.2.5 0 .7-1.4 1.4-1.6 2-1.7 2.2.6.1 3.1-1 4.3-2.6.2-.2.5-.3.7-.1l1.6 1.2 3.8-3.7c.1-.1.4-.2.5-.1.2.1.3.3.3.5v3.5l2.1-3.3c.1-.2.3-.2.5-.2s.3.1.4.3l.8 1.6c.8-.9 2.6-2.4 5.3-3.1 1.6-.4 2.8-.2 3.5.4.2.1.3.3.4.4l2.8-2.6c.1-.1.3-.2.5-.1.2 0 .3.2.4.3l.9 2.8c.1.3-.1.5-.3.6-.3.1-.5-.1-.6-.3l-.7-2-2.8 2.7c-.1.1-.4.2-.6.1-.2-.1-.3-.3-.3-.5 0 0 0-.3-.3-.6-.3-.2-.9-.5-2.6-.1-3.5.8-5.2 3.3-5.2 3.3-.1.1-.3.2-.5.2s-.3-.1-.4-.3l-.8-1.4-2.5 4c-.1.2-.3.2-.4.2zm-10.8-.9zM288.6 263.7h-.2c-.2-.1-.3-.3-.3-.5l.5-5.4-4.7 3.8c-.2.2-.5.2-.7 0l-1.9-1.8c-1.8 1.7-5.2 3.1-6.6 2.7-.6-.2-.7-.5-.8-.7-.1-.6.1-1.5 2.8-3.8.2-.2.5-.2.7.1.2.2.2.5-.1.7-2.5 2.1-2.5 2.8-2.5 2.8.5.3 4.1-.7 6-2.8.2-.2.5-.2.7 0l2 1.8 5.3-4.3c.2-.1.4-.1.6-.1.2.1.3.3.3.5l-.5 4.9 3.3-4.3c.1-.1.3-.2.5-.2s.3.1.4.3l.8 2.2c1-1 3.5-2.9 7.1-3.4 2.1-.3 3.5 0 4.3.8.2.2.3.5.4.7l3.9-3.1c.1-.1.3-.1.5-.1.2.1.3.2.3.4l.9 3.6c.1.3-.1.5-.4.6-.3.1-.5-.1-.6-.4l-.7-2.8-4 3.2c-.2.1-.4.1-.6 0-.2-.1-.3-.3-.2-.5 0 0 .1-.5-.3-.9s-1.3-.8-3.4-.5c-4.5.6-7 3.6-7 3.6-.1.1-.3.2-.5.2s-.3-.2-.4-.3l-.8-2.1-3.8 5s-.2.1-.3.1zM175.7 181.5h-.2l-.3-.3-.8-2.8c-.1-.3.1-.5.3-.6.3-.1.5.1.6.3l.6 2.2 4.7-2.7c.2-.1.4-.1.6 0 .2.1.2.3.2.5 0 0 0 .2.1.4.2.2 1.1.8 4.1.5 5.1-.6 8.1-3 8.1-3 .1-.1.3-.1.4-.1.2 0 .3.1.3.3l.8 1.7 4.6-4.2c.2-.1.4-.2.6-.1.2.1.3.3.2.5l-.8 4.2 5.5-3.2c.2-.1.4-.1.5 0l2.2 1.4c2.3-1.5 6.5-2.8 7.8-2.2.3.1.5.4.5.7 0 .5-.3 1.3-3.3 3.1-.2.1-.5.1-.7-.2-.1-.2-.1-.5.2-.7 2-1.2 2.6-1.8 2.7-2-1-.2-4.9.8-6.9 2.3-.2.1-.4.1-.6 0l-2.2-1.5-6.2 3.6c-.2.1-.4.1-.5 0-.2-.1-.2-.3-.2-.5l.7-3.8-4 3.6c-.1.1-.3.1-.4.1-.2 0-.3-.1-.4-.3l-.9-1.8c-1.1.8-3.9 2.4-8.1 2.9-2.6.3-4.2 0-4.9-.8-.1-.1-.2-.2-.2-.3l-4.6 2.6c0 .2-.1.2-.1.2zM173.5 168h-.2c-21-6.8-29.7-19.7-29.8-19.8-.2-.2-.1-.5.1-.7.2-.2.5-.1.7.1.1.1 8.6 12.7 29.2 19.4.3.1.4.4.3.6.1.2-.1.4-.3.4zM144.6 154.9c-.3 0-.5-.2-.5-.5l-.6-6.6c0-.2.1-.4.2-.5.2-.1.4-.1.5 0 0 0 3.1 1.7 7.4 1.5.3 0 .5.2.5.5s-.2.5-.5.5c-3.3.2-5.9-.7-7.1-1.2l.5 5.7c.1.4-.1.6-.4.6zM209 164.2c-.2 0-.3-.1-.4-.2-.1-.2-.1-.5.2-.7 22.6-13.2 25.7-26.7 25.7-26.9.1-.3.3-.4.6-.4.3.1.4.3.4.6-.1.6-3.2 14.1-26.2 27.5-.1 0-.2.1-.3.1zM236.8 143.8c-.2 0-.4-.1-.5-.4l-1.5-5.8c-.7.6-2.1 1.3-4.9 1.7-.3 0-.5-.1-.6-.4 0-.3.1-.5.4-.6 4.5-.7 4.7-2 4.7-2 0-.3.1-.5.4-.5.3-.1.5.1.6.4l1.8 6.9c.1.3-.1.5-.4.6v.1zM147.7 217.7c-.2 0-.4-.1-.5-.3-.1-.3 0-.5.3-.6.1-.1 14.2-5.5 21.8-25.7.1-.3.4-.4.6-.3.3.1.4.4.3.6-4.1 10.8-9.9 17.4-14.1 21-4.6 3.9-8.1 5.3-8.3 5.3h-.1zM147.7 217.7c-.2 0-.3-.1-.4-.3-.1-.2-.1-.4 0-.5 0 0 1.9-3 1.9-7.3 0-.3.2-.5.5-.5s.5.2.5.5c0 3.3-1 5.8-1.6 7.1l5.7-.2c.3 0 .5.2.5.5s-.2.5-.5.5l-6.6.2c.1 0 .1 0 0 0zM241.5 210.6c-.2 0-.4-.1-.5-.3-.1-.1-5.5-12.6-30-21.7-.3-.1-.4-.4-.3-.6.1-.3.4-.4.6-.3 25 9.2 30.3 21.7 30.6 22.2.1.3 0 .5-.3.7 0-.1-.1 0-.1 0zM241.5 210.6c-.3 0-.5-.2-.5-.5 0 0-.5-1.2-5-1.1-.2 0-.5-.2-.5-.5s.2-.5.5-.5c2.8 0 4.3.4 5.1.9l.5-5.9c0-.3.3-.5.5-.5.3 0 .5.3.5.5l-.6 7.1c-.1.3-.3.5-.5.5zM398.1 166.8h-.1l-65-14.4c-.2 0-.4-.2-.4-.5 0-.2.1-.4.4-.5l45.7-13.6c.3-.1.5.1.6.3.1.3-.1.5-.3.6l-43.9 13 62.9 13.9 48.6-19.4-63.8-7.6c-.3 0-.5-.3-.4-.6 0-.3.3-.5.6-.4l65.7 7.8c.2 0 .4.2.4.4s-.1.4-.3.5l-50.6 20.1c.1.3 0 .4-.1.4zM400.4 272.5c-.1 0-.3 0-.4-.1-23.1-23.4-62.9-35.6-63.3-35.8-.2-.1-.4-.3-.3-.6.1-.5 9.6-46.3-6.4-88.6-.1-.3 0-.5.3-.6.3-.1.5 0 .6.3 15.3 40.4 7.5 83.9 6.5 88.7 4.4 1.4 41.3 13.6 63.2 35.9.2.2.2.5 0 .7.1.1-.1.1-.2.1zM396.3 271c-.1 0-.3-.1-.4-.2-.2-.2-.2-.5 0-.7 15.1-14.7 44.8-31.1 47.5-32.6.8-3.2 9.9-42.8 4.8-85.2 0-.3.2-.5.4-.6.3 0 .5.2.6.4 5.2 44.3-4.8 85.4-4.9 85.8 0 .1-.1.3-.2.3-.3.2-31.9 17.3-47.5 32.5-.1.3-.2.3-.3.3zm47.6-33.1zM336.9 236.6c-.1 0-.3-.1-.4-.2-.2-.2-.2-.5 0-.7 19.3-16.9 40.9-22.4 43.8-23.1 7-35.1-.5-70.1-.5-70.5-.1-.3.1-.5.4-.6.3-.1.5.1.6.4.1.4 7.6 35.8.5 71.2 0 .2-.2.3-.4.4-.2 0-23.3 5.1-43.7 23 0 .1-.1.1-.3.1zm44-23.5zM447.3 240.7c-.1 0-.3-.1-.4-.2-.2-.2-23.2-23.6-66.1-27-.3 0-.5-.3-.5-.5s.3-.5.5-.5c22.6 1.8 39.5 9.1 49.7 14.9 11.1 6.3 16.9 12.3 17 12.4.2.2.2.5 0 .7 0 .1-.1.2-.2.2zM401.2 199.1c-4.3 0-7.7-3.5-7.7-7.7s3.5-7.7 7.7-7.7 7.7 3.5 7.7 7.7-3.5 7.7-7.7 7.7zm0-14.5c-3.7 0-6.7 3-6.7 6.7s3 6.7 6.7 6.7 6.7-3 6.7-6.7-3-6.7-6.7-6.7zM402 198.2c-.1 0-.3-.1-.4-.2-.2-.2-.2-.4 0-.6l3.4-5.2-7.7 5.6c-.2.1-.5.1-.6 0-.2-.2-.2-.4-.1-.6l6.9-10-9.3 5.6c-.2.1-.5.1-.6-.1s-.2-.4 0-.6l7.2-9.2c.2-.2.5-.3.7-.1.2.2.3.5.1.7l-5.5 7.1 8.9-5.4c.2-.1.5-.1.6.1.2.2.2.4 0 .6l-6.6 9.6 7.5-5.4c.2-.1.5-.1.6 0s.2.4.1.6l-3.8 5.9 2.5-1.3c.2-.1.5 0 .7.2.1.2 0 .5-.2.7l-4.2 2.2c0-.2-.1-.2-.2-.2zM336.2 243.7c-4.3 0-7.7-3.5-7.7-7.7s3.5-7.7 7.7-7.7 7.7 3.5 7.7 7.7-3.4 7.7-7.7 7.7zm0-14.5c-3.7 0-6.7 3-6.7 6.7s3 6.7 6.7 6.7 6.7-3 6.7-6.7-3-6.7-6.7-6.7zM336.2 244.8h-.2c-.2-.1-.4-.3-.3-.6l2.5-9.4-5.7 7.4c-.2.2-.4.3-.7.1-.2-.1-.3-.4-.2-.6l4.6-9.4-5.5 5.2c-.2.2-.5.2-.7 0-.2-.2-.2-.4-.1-.7l3.8-5.9-2.5 1.3c-.2.1-.5 0-.7-.2-.1-.2 0-.5.2-.7l4.2-2.2c.2-.1.4-.1.6.1s.2.4 0 .6l-2.5 3.9 4.4-4.2c.2-.2.4-.2.6 0 .2.1.3.4.2.6l-3.7 7.5 4.3-5.5c.1-.2.4-.2.6-.1.2.1.3.3.3.6l-2 7.3 2.8-5.5c.1-.2.4-.3.6-.2.2.1.4.3.4.5l-.7 7c0 .3-.3.5-.5.5-.3 0-.5-.3-.5-.5l.4-4.5-3.8 7.3c.2.2 0 .3-.2.3zM442.9 244.4c-.8 0-1.5-.1-2.3-.3-2-.6-3.6-2-4.6-3.8-1-1.8-1.2-3.9-.5-5.9 1.3-4.1 5.6-6.4 9.7-5.1 2 .6 3.6 2 4.6 3.8 1 1.8 1.2 3.9.5 5.9-.6 2-2 3.6-3.8 4.6-1.1.5-2.4.8-3.6.8zm0-14.4c-2.9 0-5.5 1.9-6.4 4.7-.5 1.7-.4 3.5.5 5.1s2.2 2.8 4 3.3c3.6 1.1 7.3-.9 8.4-4.4 1.1-3.5-.9-7.3-4.4-8.4-.8-.2-1.5-.3-2.1-.3zM441.8 243.5c-.2 0-.4-.1-.5-.3-.1-.2 0-.5.1-.6l3.6-3-5.4 2.7c-.2.1-.5 0-.6-.2-.1-.2-.1-.5 0-.6l5.8-6.1-5.7 4c-.2.1-.5.1-.6 0-.2-.2-.2-.4-.1-.6l4-6.4-4.3 4.4c-.2.2-.4.2-.6.1-.2-.1-.3-.4-.2-.6l2.7-6.5c.1-.3.4-.4.7-.3.3.1.4.4.3.7l-1.7 4.1 5.8-5.9c.2-.2.5-.2.7 0 .2.2.2.4.1.7l-5.2 8.2 7.7-5.4c.2-.1.5-.1.7.1s.2.5 0 .7l-7.2 7.6 6.7-3.3c.2-.1.5 0 .6.2.1.2.1.5-.1.7l-5.4 4.5 2.8-.5c.3 0 .5.1.6.4.1.3-.1.5-.4.6l-4.9.6c.1 0 .1 0 0 0zM380.1 145.5c-.9 0-1.8-.2-2.6-.5-4-1.4-6.1-5.9-4.7-9.9 1.4-4 5.9-6.1 9.9-4.7 1.9.7 3.5 2.1 4.4 4 .9 1.9 1 4 .3 5.9-.7 1.9-2.1 3.5-4 4.4-1 .5-2.2.8-3.3.8zm-6.3-10c-1.3 3.5.6 7.4 4.1 8.6 1.7.6 3.5.5 5.1-.2 1.6-.8 2.9-2.1 3.5-3.8.6-1.7.5-3.5-.2-5.1s-2.1-2.9-3.8-3.5c-3.6-1.3-7.5.5-8.7 4zM377.3 146.2c-.2 0-.3-.1-.4-.2-.1-.2-.1-.5.2-.7l7.6-4.8-10.2 2.1c-.2 0-.5-.1-.6-.3-.1-.2 0-.5.2-.6l9.5-6.8-8.9 2.6c-.2.1-.5 0-.6-.3-.1-.2 0-.5.1-.6l5.6-4.2-2.8.4c-.3 0-.5-.2-.6-.4 0-.3.2-.5.4-.6l4.7-.7c.2 0 .4.1.5.3.1.2 0 .5-.2.6l-5 3.8 9.1-2.6c.2-.1.5 0 .6.3.1.2 0 .5-.2.6l-9.9 7.1 10.6-2.1c.2 0 .5.1.6.3.1.2 0 .5-.2.6l-9.9 6.3c0-.2-.1-.1-.2-.1zM330.5 158.2c-4.3 0-7.7-3.5-7.7-7.7s3.5-7.7 7.7-7.7 7.7 3.5 7.7 7.7-3.4 7.7-7.7 7.7zm0-14.5c-3.7 0-6.7 3-6.7 6.7s3 6.7 6.7 6.7 6.7-3 6.7-6.7-3-6.7-6.7-6.7zM331.4 157.3c-.1 0-.3-.1-.4-.2-.2-.2-.2-.4 0-.6l3.4-5.2-7.7 5.6c-.2.1-.5.1-.6 0-.2-.2-.2-.4-.1-.6l6.9-10-9.3 5.6c-.2.1-.5.1-.6-.1s-.2-.4 0-.6l7.2-9.2c.2-.2.5-.3.7-.1.2.2.3.5.1.7l-5.5 7.1 8.9-5.4c.2-.1.5-.1.6.1s.2.4 0 .6l-6.6 9.6 7.5-5.4c.2-.1.5-.1.6 0 .2.2.2.4.1.6l-3.8 5.9 2.5-1.3c.2-.1.5 0 .7.2s0 .5-.2.7l-4.2 2.2c-.1-.2-.1-.2-.2-.2zM393.7 271c-4.6 0-8.4-3.8-8.4-8.4 0-4.6 3.8-8.4 8.4-8.4s8.4 3.8 8.4 8.4c0 4.6-3.7 8.4-8.4 8.4zm0-15.8c-4.1 0-7.4 3.3-7.4 7.4s3.3 7.4 7.4 7.4 7.4-3.3 7.4-7.4-3.3-7.4-7.4-7.4zM394.7 270c-.1 0-.3-.1-.4-.2-.2-.2-.2-.4 0-.6l3.8-5.9-8.6 6.2c-.2.1-.5.1-.6 0-.2-.2-.2-.4-.1-.6l7.7-11.1-10.3 6.2c-.2.1-.5.1-.6-.1-.2-.2-.2-.4 0-.6l7.8-10c.2-.2.5-.3.7-.1.2.2.3.5.1.7l-6.2 7.9 9.9-6c.2-.1.5-.1.6.1s.2.4 0 .6l-7.3 10.6 8.4-6.1c.2-.1.5-.1.6 0 .2.2.2.4.1.6l-4.2 6.5 2.9-1.5c.2-.1.5 0 .7.2.1.2 0 .5-.2.7l-4.6 2.4c-.1.1-.1.1-.2.1zM447.3 155.6c-3.8 0-7.2-2.9-7.7-6.8-.5-4.2 2.5-8.1 6.7-8.6s8.1 2.5 8.6 6.7c.3 2.1-.3 4.1-1.6 5.7s-3.1 2.7-5.2 2.9c-.2 0-.5.1-.8.1zm0-14.5c-.3 0-.5 0-.8.1-3.7.5-6.3 3.8-5.9 7.5.2 1.8 1.1 3.4 2.5 4.5s3.2 1.6 5 1.4c1.8-.2 3.4-1.1 4.5-2.5s1.6-3.2 1.4-5c-.4-3.5-3.3-6-6.7-6zM443.9 154.8c-.1 0-.2 0-.3-.1-.2-.1-.3-.4-.1-.6l5.7-10.8-8.5 6.7c-.2.1-.5.1-.6 0-.2-.2-.2-.4-.1-.6l6-10c.1-.2.4-.3.7-.2.2.1.3.4.2.7l-4.6 7.7 8.2-6.5c.2-.1.4-.1.6 0 .2.2.2.4.1.6l-5.4 10.3 6.8-6.3c.2-.2.4-.2.6 0 .2.1.3.4.2.6l-3.1 6.3 2.3-1.6c.2-.2.5-.1.7.1.2.2.1.5-.1.7l-3.9 2.7c-.2.1-.4.1-.6 0-.2-.1-.2-.4-.1-.6l2.7-5.6-7 6.5c-.1-.1-.3 0-.4 0zM379.9 217.8c-3.5 0-6.4-2.9-6.4-6.4s2.9-6.4 6.4-6.4 6.4 2.9 6.4 6.4-2.8 6.4-6.4 6.4zm0-11.8c-3 0-5.4 2.4-5.4 5.4s2.4 5.4 5.4 5.4 5.4-2.4 5.4-5.4-2.4-5.4-5.4-5.4zM376.4 218c-.3 0-.5-.2-.5-.5l.1-10.9c0-.3.2-.5.5-.5s.5.1.5.4l1.8 8.8 2.9-7.6c.1-.2.2-.3.4-.3s.4.1.5.3l3 6.5c.1.3 0 .5-.2.7-.2.1-.5 0-.7-.2l-2.5-5.4-3.1 8.1c-.1.2-.3.3-.5.3s-.4-.2-.4-.4l-1.2-5.8-.1 6.2c0 .1-.3.3-.5.3zM399.2 190.8h-.1c-.2 0-.3-.2-.3-.3l-18.4-50.8c-.1-.3 0-.5.3-.6.3-.1.5 0 .6.3l18.1 50.1 44.7-39.4c.2-.2.5-.2.7 0 .2.2.2.5 0 .7l-45.2 39.9c-.1.1-.2.1-.4.1zM383.9 206c-.1 0-.3-.1-.4-.2-.2-.2-.1-.5.1-.7l13.5-10.5c.2-.2.5-.1.7.1.2.2.1.5-.1.7l-13.5 10.5s-.2.1-.3.1zM443.2 234.3c-.1 0-.3-.1-.4-.2l-37.4-40c-.2-.2-.2-.5 0-.7.2-.2.5-.2.7 0l37.4 40c.2.2.2.5 0 .7 0 .2-.2.2-.3.2zM343.5 228.1c-.1 0-.2 0-.3-.1-.2-.2-.2-.5-.1-.7 22-26.9 51.2-37.2 51.5-37.3.3-.1.5 0 .6.3.1.3 0 .5-.3.6-.3.1-29.2 10.3-51.1 37-.1.1-.2.2-.3.2zM398.2 253.9c-.3 0-.5-.2-.5-.5 1-27.4 5.5-58.2 5.6-58.5 0-.3.3-.5.6-.4.3 0 .5.3.4.6 0 .3-4.5 31-5.6 58.4 0 .2-.2.4-.5.4zM394.9 258.1c-.3 0-.5-.2-.5-.5 0-.5.3-49.6 4.2-89.2 0-.3.3-.5.5-.4.3 0 .5.3.4.5-3.9 39.5-4.2 88.6-4.2 89.1.1.2-.2.5-.4.5z"/></g></svg>