<svg xmlns="http://www.w3.org/2000/svg" viewBox="0 0 550 550" enable-background="new 0 0 550 550"><path fill="#E6FFDA" d="M496.5 437c99-126.6-100.2-495.4-229.8-341.3C142 244.2 116.5 118.1 52.7 158 11 184.1 29.3 324 108.3 411.7c114.5 127.2 236.4 102.1 227.1 3.7C320 252 424.6 528.9 496.5 437z"/><path fill="#FF6152" d="M144 248l-35.5-2.8c23.3-30.1 82-57.3 165.4-57.3 87.7 0 140.8 23.1 168.8 40.9 2.7 1.7 5.6-1.9 3.2-4.1-27.4-24.1-83-57.4-180.8-57.4-117.2 0-182.6 37.8-202.1 72.7-.3.5-.5 1-.7 1.5l-37.5-3c-2.6-.2-3.9 2.9-1.9 4.5L72 283.1c.8.6 1.8.8 2.8.4l70.1-30.6c2.5-1.1 1.8-4.7-.9-4.9zM529.9 308.4l-49.1-40.1c-.8-.6-1.8-.8-2.8-.4l-70.1 30.6c-2.5 1.1-1.9 4.7.9 4.9l35.5 2.8c-23.3 30.1-82 57.3-165.4 57.3-87.7 0-140.8-23.1-168.8-40.9-2.7-1.7-5.6 1.9-3.2 4.1 27.4 24.1 83 57.4 180.8 57.4 117.2 0 182.6-37.8 202.1-72.7.3-.5.5-1 .7-1.5l37.5 3c2.5.3 3.8-2.9 1.9-4.5z"/><circle fill="#4E9FC7" cx="364.5" cy="361.1" r="65.3"/><path fill-rule="evenodd" clip-rule="evenodd" fill="#fff" d="M346 370.9c1.1.3 2.2.6 3.3.8.9.1 1.9.1 2.8-.1 1.7-.4 2.6-1.7 2.7-3.4v-1.3h-.3c-1.9 1.9-4.3 2-6.6 1.1-2.4-.9-3.6-2.8-4.1-5.2-.4-1.9-.3-3.9.4-5.7 1.6-4.3 7.3-5.6 10.6-2.4.1.1.2.1.3.2.5-1.3.8-1.5 2.2-1.5h6.1c1.9 0 2.6.6 2.4 2.4v.5c.8-.8 1.5-1.7 2.3-2.4.9-.7 2-.9 3.3-.7v3.4c0 .5-.4.3-.7.3-2.2 0-3.9 1.3-4.4 3.4-.2.6-.2 1.2-.3 1.8v6.6h-3.8c0-.1-.1-.2-.1-.4v-10.4c0-1.3-.1-1.4-1.4-1.4-2.5 0-2.2-.1-2.2 2.2v8.8c0 4.2-2.1 6.7-6.2 7.4-2.4.4-4.7 0-7-.9-.3-.1-.5-.2-.3-.6.3-.9.7-1.7 1-2.5zm1.2-10.4c.2.8.3 1.6.5 2.3.6 1.6 2 2.4 3.7 2.3 1.5-.1 2.7-1.1 3.1-2.7.3-1.2.3-2.5 0-3.7-.7-2.4-3.8-3.4-5.8-1.8-1.1.9-1.4 2.2-1.5 3.6zM398.5 354.5V351c0-.5-.5-.5-.9-.5-.9-.1-.9-.1-.9-1v-1.8c0-.4.1-.5.5-.5h3.6c.9 0 1.4.5 1.6 1.4.1.3.1.7.1 1v14.6c0 1.1.1 1.2 1.2 1.2.5 0 .7.1.7.7v2.1c0 .4-.1.6-.5.5H401c-1.4-.1-1.7-.3-2.1-1.8-.1.1-.2.1-.3.2-2.3 2.9-8 2.7-10.1-1.2-1.7-3.2-1.7-6.5 0-9.7 1.9-3.5 6.9-4.4 9.9-1.8-.2 0-.1 0 .1.1zm.1 6.6c.1 0 .1 0 .2-.1-.3-1-.5-1.9-.9-2.8-.6-1.2-1.6-1.9-3-2-1.4 0-2.5.6-3.2 1.8-1.1 2-1.1 4.1.1 6.1 1.3 2.3 4.6 2.3 6 .1.6-1 .8-2 .8-3.1zM330.7 355.7l.4-.4c1.7-2.3 4.6-2.9 7.1-2.1 1.9.5 2.8 1.9 3 3.7.2 1.7.1 3.4.2 5.1v2.5c0 .6.3.9.9.9 1.1 0 1-.1 1 1v1.8c0 .2-.3.5-.4.5-1.2 0-2.4 0-3.6-.1-1.2-.1-1.6-.6-1.6-1.8v-7.1c0-.6-.1-1.2-.2-1.8-.3-1-.9-1.5-2-1.6-2.3-.1-4.3 1.5-4.5 4-.2 2.2-.1 4.3-.1 6.5 0 1.9 0 1.9-1.9 1.9s-1.9 0-1.9-1.9v-9.2c0-1-.1-1.2-1.1-1.2-.5 0-.8-.1-.8-.7v-2.1c0-.2.3-.5.4-.5 1.2 0 2.3-.1 3.5 0 1.2.1 1.6.6 1.7 1.8-.2.4-.1.5-.1.8zM381.4 366.7c-.2.2-.3.3-.4.5-1.9 2.3-5.8 2.6-8 .5-2.3-2.2-1.7-5.8 1-7.3 2-1 4.1-1.3 6.2-1.3 1 0 1.1-.1.9-1.1-.3-1.3-1-2-2.3-2-.5 0-1 0-1.4.1-.7.1-1.1.5-1.1 1.3 0 .4-.2.5-.5.5h-2.5c-.4 0-.5-.2-.6-.6-.2-2.4.5-3.4 2.8-3.9 2-.5 4-.5 6 .1 2.1.7 3.2 2.2 3.4 4.2.2 2.2.1 4.5.2 6.7 0 1.1.1 1.2 1.1 1.1.6 0 .8.2.7.7v2.1c0 .2-.3.5-.4.5-1 0-2.1.1-3.1 0-1.4-.2-1.7-.5-2-2.1zm-1.1-5.2h-.2c-1.2.3-2.5.5-3.6.9-1.4.6-1.5 2.3-.4 3.2.6.5 1.3.6 2.1.4 1.6-.4 2.5-1.6 2.9-3.2.3-1.1.3-1.3-.8-1.3zM408.4 361.6c0 2 1.5 3.6 3.5 4.1 1.4.3 2.6 0 5.4-1.6.5.8 1 1.7 1.6 2.6-1.2 1.1-2.6 1.7-4.1 2.1-2.1.5-4.2.3-6.1-.7-3.1-1.5-4.6-5-4.2-8.2.2-1.4.6-2.7 1.4-3.9 2.6-3.9 8.9-4.3 11.7-.8 1.4 1.7 1.7 3.8 1.5 6 0 .5-.4.4-.7.4h-10zm3.3-2.6h2.7c.6 0 .8-.2.6-.8-.4-1.5-1.5-2.4-3-2.3-1.6 0-3.1 1.2-3.4 2.6-.1.4.1.5.5.5h2.6zM322.9 364.1c.5.8 1 1.6 1.4 2.4.1.1 0 .5-.2.5-2.7 2-5.7 2.6-8.9 1.5-3-1-4.8-3.3-5.2-6.4-.8-6.5 4.2-10.5 10.1-8.9 2.7.8 4 2.9 4.4 5.5.1.7.1 1.4.1 2.1 0 .6-.2.8-.8.7H314c.1 1.4.7 2.5 1.7 3.2 2.5 1.9 4.9 1 7.2-.6zm-8.7-5.2h5.8c.7 0 .8-.1.6-.9-.4-1.5-1.6-2.3-3.2-2.2-1.6.2-3 1.5-3.2 3.1z"/><circle fill="#FFD21B" cx="314.4" cy="191.7" r="64.8"/><path fill="#fff" d="M349.9 168.8s-1.4-11.8-36.6-11.8-34.3 11.8-34.3 11.8l1.3 47.3 22.5 8.5 11.7 11.5 11.4-11.5 22.8-8.5 1.2-47.3z"/><path fill="#3D93C6" d="M314.4 154.7s-15.4-.5-26.2 2.6c-10.7 3.1-11.4 12.2-12.7 23.1 0 0-1.3 21.7 2.5 32.2 0 0 .7 8.3 9 10.4 8.3 2.1 13 2.3 13 2.3l14.3 14V233L304 222.5s-1-1.6-3.1-1.8c-2.1-.2-16.6-.5-18.5-9.6-2-9.1-3.1-19.8-1.6-33.5s6.8-16.3 14.1-17.2c7.3-1 19.5-1.5 19.5-1.5v-4.2zM303.4 172.4c-6.7 0-12.2 5.5-12.2 12.3s5.5 12.3 12.2 12.3c6.7 0 12.2-5.5 12.2-12.3s-5.5-12.3-12.2-12.3zm.2 21.3c-5 0-9-4-9-8.9s4-8.9 9-8.9 9 4 9 8.9-4 8.9-9 8.9zM278.9 181.3h12.9v4.9h-12.9z"/><ellipse fill="#3D93C6" cx="304.3" cy="187.5" rx="3.2" ry="3.5"/><path fill="#3D93C6" d="M314.3 211.1c-8.8 0-12.2-5.5-12.4-5.7-.5-.8-.2-1.9.6-2.3.8-.5 1.8-.2 2.3.6.1.2 2.6 4.1 9.4 4.1.9 0 1.7.8 1.7 1.7.1.8-.7 1.6-1.6 1.6zM314.4 154.7s15.4-.5 26.2 2.6c10.7 3.1 11.4 12.2 12.7 23.1 0 0 1.3 21.7-2.5 32.2 0 0-.7 8.3-9 10.4-8.3 2.1-13 2.3-13 2.3l-14.3 14V233l10.4-10.4s1-1.6 3.1-1.8c2.1-.2 16.6-.5 18.5-9.6 2-9.1 3.1-19.8 1.6-33.5s-6.8-16.3-14.1-17.2c-7.3-1-19.5-1.5-19.5-1.5v-4.3zM313.3 184.7c0 6.8 5.5 12.3 12.2 12.3s12.2-5.5 12.2-12.3-5.5-12.3-12.2-12.3-12.2 5.5-12.2 12.3zm2.9.1c0-4.9 4-8.9 9-8.9s9 4 9 8.9-4 8.9-9 8.9-9-4-9-8.9zM337.1 181.3H350v4.9h-12.9z"/><ellipse fill="#3D93C6" cx="324.6" cy="187.5" rx="3.2" ry="3.5"/><path fill="#3D93C6" d="M314.6 211.1c-.9 0-1.7-.8-1.7-1.7 0-.9.8-1.7 1.7-1.7 6.9 0 9.4-4 9.4-4 .5-.8 1.5-1.1 2.3-.6.8.5 1.1 1.5.6 2.3-.1.2-3.5 5.7-12.3 5.7z"/><circle fill="#4593CA" cx="181.1" cy="182.5" r="52.1"/><path fill="#fff" d="M181.1 146.3c-19.9 0-36.2 16.2-36.2 36.2s16.2 36.2 36.2 36.2c19.9 0 36.2-16.2 36.2-36.2s-16.2-36.2-36.2-36.2zm0 67.5c-17.3 0-31.3-14-31.3-31.3s14-31.3 31.3-31.3 31.3 14 31.3 31.3-14 31.3-31.3 31.3zm-4.1-36.6c-7.8-2-6.3-11.8 4.1-11 10.4.8 9.6 9 9.6 9l7.8-1.1c-2.1-13.7-17.4-13.6-17.4-13.6-14.8.5-16.1 8.2-16.5 13.1-.4 4.9 4.5 9.8 16.5 11.6 12 1.8 11.1 6.1 10.3 9.2-.8 3.2-7.3 5.9-14.1 4-6.8-1.9-6.4-10-6.4-10l-7.8 1.4c.5 6.6 5.2 14.7 18.1 14.8 12.9.1 16.9-6.8 17.8-10.3.9-3.5-.5-7.3-.5-7.3-3.2-6.9-13.7-7.8-21.5-9.8z"/><circle fill="#fff" cx="208.1" cy="340.2" r="64.1"/><path fill-rule="evenodd" clip-rule="evenodd" fill="#3073EF" d="M173.9 348.1H171c-5.8-.7-10.4-5.3-11.1-11.1V333.9c.1-.9.3-1.8.6-2.7.4-1.2 1-2.3 1.8-3.3.5-.6 1-1.2 1.5-1.7.6-.6 1.3-1.1 2.1-1.6 1.2-.7 2.5-1.3 3.9-1.5.4-.1.8-.1 1.1-.2H174.3c.6.1 1.2.2 1.7.4 1.6.4 3 1.1 4.3 2.1.3.2.6.5 1 .8-.2.2-.4.4-.6.7l-1.7 1.7c-.2.2-.2.2-.4 0-.6-.6-1.3-1-2.1-1.4-.7-.3-1.4-.5-2.1-.7-.2 0-.4-.1-.6-.1h-2.1c-.6 0-1.1.1-1.7.3-1.3.4-2.4 1-3.4 1.8-1.4 1.2-2.3 2.6-2.9 4.3-.2.6-.3 1.1-.3 1.7v2c0 .5.1 1 .3 1.5.3 1.2.9 2.3 1.7 3.3.7.9 1.6 1.7 2.7 2.3 1 .5 2 .9 3.1 1.1h.8c.2 0 .3.1.5 0H173.8c.6 0 1.1-.2 1.6-.4.9-.3 1.7-.7 2.5-1.2.3-.2.6-.5.9-.7.4-.4.8-.9 1.1-1.5.4-.7.6-1.4.8-2.2 0-.2 0-.4.1-.5v-.2c0-.1 0 0-.1 0H172.6V334.7c0-.1 0-.2.2-.2h11.5v3.7c-.1.6-.2 1.1-.3 1.7-.4 1.5-1.1 2.9-2.1 4.2-1.1 1.3-2.5 2.3-4 3.1-.9.4-1.8.7-2.8.9-.3.1-.5.1-.8.1H174c0-.1-.1-.1-.1-.1z"/><path fill-rule="evenodd" clip-rule="evenodd" fill="#269841" d="M239.3 323.6h3.4c.1 0 .2 0 .2.2v23.7c0 .1 0 .2-.1.2h-3.5v-23.8c-.1-.2-.1-.2 0-.3zM239.3 323.6v24c-.1-.1 0-.1 0-.2v-23.6c-.1-.1-.1-.1 0-.2z"/><path fill-rule="evenodd" clip-rule="evenodd" fill="#3073EF" d="M236.8 348.2V332.3c.1 0 0 .1 0 .2v15.6s.1 0 0 .1zM184.4 334.3h-11.5c-.2 0-.2.1-.2.2v3.2c-.1 0 0-.1 0-.2v-3.1c0-.2 0-.2.2-.2h11.3c0 .1.1.1.2.1zM173.8 337.7h4.4-4.3c0 .1 0 .1-.1 0z"/><path fill-rule="evenodd" clip-rule="evenodd" fill="#E43125" d="M185.6 339.4v1.1c-.1-.1 0-.3 0-.4 0-.2-.1-.5 0-.7z"/><path fill-rule="evenodd" clip-rule="evenodd" fill="#3073EF" d="M163.6 336v-1.2 1.2zM228.4 348.1h1-1zM221.1 339.6v.7-.7zM233.4 333v.5s0 .1-.1 0c.1-.1 0-.2 0-.3.1 0 .1-.1.1-.2zM159.8 335.9v.4c0-.1.1-.3 0-.4zM159.9 334.6v.4c0-.1-.1-.3 0-.4z"/><path fill-rule="evenodd" clip-rule="evenodd" fill="#F4AB00" d="M203.4 340.2v.4c-.1-.1 0-.3 0-.4zM203.4 339.3v.4c0-.1-.1-.3 0-.4zM219.8 339.7v-.4c.1.1 0 .3 0 .4z"/><path fill-rule="evenodd" clip-rule="evenodd" fill="#3073EF" d="M184.5 336.5v-.4c.1.2.1.3 0 .4z"/><path fill-rule="evenodd" clip-rule="evenodd" fill="#F4AB00" d="M219.8 340.6v-.4c0 .1.1.3 0 .4z"/><path fill-rule="evenodd" clip-rule="evenodd" fill="#E43125" d="M193.6 348.2h.4-.4z"/><path fill-rule="evenodd" clip-rule="evenodd" fill="#3073EF" d="M172.6 326.3h.4-.4z"/><path fill-rule="evenodd" clip-rule="evenodd" fill="#F4AB00" d="M211.4 348.2h.4-.4z"/><path fill-rule="evenodd" clip-rule="evenodd" fill="#3073EF" d="M184.5 335.7v-.4.4zM173.3 348.2h.4-.4z"/><path fill-rule="evenodd" clip-rule="evenodd" fill="#E43125" d="M202 339.6v-.4c.1.2 0 .3 0 .4z"/><path fill-rule="evenodd" clip-rule="evenodd" fill="#3073EF" d="M171.8 348.1h.4c-.2.1-.3.1-.4 0zM233.5 332.3v.4c-.1-.1-.1-.3 0-.4zM233.5 346.3v.3c-.1 0 0-.2 0-.3zM173 344.6h-.3.3z"/><path fill-rule="evenodd" clip-rule="evenodd" fill="#E43125" d="M202 340.6v-.3c0 .1.1.2 0 .3z"/><path fill-rule="evenodd" clip-rule="evenodd" fill="#3073EF" d="M229.6 355.3h.3c-.1.1-.2 0-.3 0zM184.5 337.4v-.3.3zM233.5 347.1v.3-.3zM172 322.8h-.3c.1-.1.2 0 .3 0zM173.7 322.8h-.3c.1 0 .2-.1.3 0zM228.2 355.3h.3c-.1 0-.2.1-.3 0zM173.3 326.3h.3-.3zM229.2 352.2h-.3.3zM172.2 344.6h-.3.3zM228.7 352.2h-.3.3zM233.5 347.8v.3c0-.1-.1-.2 0-.3zM159.9 336.4v.3c-.1-.1 0-.2 0-.3zM173.6 344.6h-.3.3z"/><path fill-rule="evenodd" clip-rule="evenodd" fill="#E43125" d="M193 348.1h.3c-.1.1-.2.1-.3 0zM194.3 348.2h.3-.3z"/><path fill-rule="evenodd" clip-rule="evenodd" fill="#3073EF" d="M171.9 326.3h.3-.3zM159.9 334.3v.3c0-.1-.1-.2 0-.3z"/><path fill-rule="evenodd" clip-rule="evenodd" fill="#F4AB00" d="M210.8 348.1h.3c-.1.1-.2.1-.3 0zM211 331.7h-.3.3zM212.1 348.2h.3-.3z"/><path fill-rule="evenodd" clip-rule="evenodd" fill="#3073EF" d="M171.6 322.8h-.2.2zM174.1 322.8h-.2.2zM180.9 337.8v.2s-.1-.1 0-.2z"/><path fill-rule="evenodd" clip-rule="evenodd" fill="#E43125" d="M185.6 340.7v.2-.2z"/><path fill-rule="evenodd" clip-rule="evenodd" fill="#3073EF" d="M184.4 337.8v-.2c.1.1.1.1 0 .2z"/><path fill-rule="evenodd" clip-rule="evenodd" fill="#E43125" d="M194.7 331.8h-.2c0-.1.1-.1.2 0z"/><path fill-rule="evenodd" clip-rule="evenodd" fill="#3073EF" d="M163.6 334.7v-.2.2zM221.2 340.5v.2c-.1-.1 0-.2 0-.2z"/><path fill-rule="evenodd" clip-rule="evenodd" fill="#F4AB00" d="M203.4 340.7v.2-.2z"/><path fill-rule="evenodd" clip-rule="evenodd" fill="#3073EF" d="M221.2 339.1v.2s-.1-.1 0-.2z"/><path fill-rule="evenodd" clip-rule="evenodd" fill="#E43125" d="M185.6 339v.2-.2z"/><path fill-rule="evenodd" clip-rule="evenodd" fill="#F4AB00" d="M219.8 340.9v-.2.2z"/><path fill-rule="evenodd" clip-rule="evenodd" fill="#3073EF" d="M159.9 336.8v.2-.2zM229.8 352.2h-.2c0-.1.1 0 .2 0zM163.6 336.5v-.2.2zM184.5 335.1v-.2.2zM184.4 334.8v-.2c.1 0 0 .1 0 .2zM171.8 344.6h-.2s.1-.1.2 0zM173.9 344.6h-.2c.1-.1.2 0 .2 0z"/><path fill-rule="evenodd" clip-rule="evenodd" fill="#E43125" d="M202 339.1v-.2.2z"/><path fill-rule="evenodd" clip-rule="evenodd" fill="#F4AB00" d="M219.8 338.8v-.2.2z"/><path fill-rule="evenodd" clip-rule="evenodd" fill="#3073EF" d="M184.4 338.1v-.2.2z"/><path fill-rule="evenodd" clip-rule="evenodd" fill="#F4AB00" d="M203.5 338.7v.2c-.1-.1-.1-.2 0-.2z"/><path fill-rule="evenodd" clip-rule="evenodd" fill="#3073EF" d="M228.1 348h.2c0 .1-.1.1-.2 0zM171 348.1h.2-.2zM174.2 348.1h.2-.2zM221.2 338.8v.2-.2zM171.2 322.8h-.2.2zM173.9 348.1h.2c-.1.1-.2 0-.2 0z"/><path fill-rule="evenodd" clip-rule="evenodd" fill="#E43125" d="M194.7 348.1h.2c0 .1-.1 0-.2 0zM185.7 338.7v.2c-.1-.1-.1-.1 0-.2z"/><path fill-rule="evenodd" clip-rule="evenodd" fill="#3073EF" d="M174.4 322.9h-.2c.1-.1.2-.1.2 0zM173.8 326.3h.2c-.1 0-.2.1-.2 0zM228.4 331.7h-.2.2z"/><path fill-rule="evenodd" clip-rule="evenodd" fill="#E43125" d="M202 341v-.2.2z"/><path fill-rule="evenodd" clip-rule="evenodd" fill="#3073EF" d="M171.4 348.1h.2c-.1 0-.2.1-.2 0z"/><path fill-rule="evenodd" clip-rule="evenodd" fill="#F4AB00" d="M219.8 339.1v-.2.2z"/><path fill-rule="evenodd" clip-rule="evenodd" fill="#3073EF" d="M233.5 348.2v.2c-.1-.1-.1-.2 0-.2z"/><path fill-rule="evenodd" clip-rule="evenodd" fill="#E43125" d="M185.6 341v.2-.2z"/><path fill-rule="evenodd" clip-rule="evenodd" fill="#3073EF" d="M227.9 355.3h.2-.2zM230 355.3h.2-.2zM159.9 333.9v.2-.2z"/><path fill-rule="evenodd" clip-rule="evenodd" fill="#F4AB00" d="M203.4 338.9v.2-.2z"/><path fill-rule="evenodd" clip-rule="evenodd" fill="#3073EF" d="M236.8 332.5v-.2H233.4v1.1s0 .1-.1.1h-.1c-.7-.6-1.4-1-2.3-1.4-.5-.2-1-.3-1.4-.4h-1.4c-.2 0-.5.1-.7.1-1.4.3-2.6 1.1-3.6 2l-.8.8c-.5.7-1 1.4-1.3 2.2-.3.6-.4 1.2-.5 1.8v2.3c.1.7.4 1.4.7 2.1.5 1 1.1 1.8 1.8 2.6.4.4.9.8 1.4 1.1 1 .6 2 1 3.1 1.1h1.3c.2 0 .4 0 .6-.1.8-.1 1.6-.5 2.3-.9.3-.2.7-.5 1-.7 0 0 .1-.1.1 0v2c0 .4-.2.8-.3 1.2-.2.5-.5.9-.9 1.3-.2.2-.5.4-.8.6-.5.3-1.1.5-1.7.6H228.4c-.5 0-1-.2-1.4-.5-.9-.5-1.5-1.3-1.9-2.2-.1-.1-.1-.1-.2-.1-.3.1-.6.3-.9.4-.7.3-1.3.6-2 .8-.1 0-.1.1-.1.2.1.2.2.3.3.5.5.9 1.1 1.7 1.8 2.3.4.3.9.7 1.3.9.8.4 1.6.7 2.5.8H230.1c.3 0 .5-.1.8-.1.5-.1.9-.2 1.4-.4 1.5-.7 2.7-1.7 3.5-3.2.6-1.1.9-2.2 1-3.4V332.5zm-5 11.6c-.7.6-1.6.9-2.8.8-1.3 0-2.5-.8-3.4-2.1-1.3-2.1-1-4.9.7-6.6 1.7-1.6 4.2-1.6 5.9 0 2.3 2.2 2 6.1-.4 7.9z"/><path fill-rule="evenodd" clip-rule="evenodd" fill="#F4AB00" d="M219.8 339.7V338.5c-.1-.7-.3-1.4-.7-2.1-.5-1-1.1-1.9-2-2.6-.8-.7-1.7-1.2-2.7-1.6-.5-.2-1.1-.3-1.6-.4h-2.3c-.8.1-1.5.3-2.2.6-1 .5-1.9 1.1-2.7 1.9-.3.3-.5.6-.7.9-.4.5-.7 1.1-.9 1.7-.2.5-.4 1.1-.4 1.7V340.9c0 .2 0 .4.1.6.2.7.4 1.4.7 2.1.3.6.7 1.2 1.2 1.7.4.4.8.8 1.2 1.1.6.4 1.2.8 1.9 1.1.7.3 1.5.5 2.2.5h1.6c.3 0 .6-.1.9-.2.5-.1 1.1-.3 1.6-.5 1.2-.5 2.2-1.3 3-2.3.6-.7 1.1-1.6 1.4-2.5.2-.6.3-1.2.4-1.8v-1zm-5.1 4c-2 2-5.3 1.6-6.9-.8-.6-.9-.9-1.9-.9-3.2.1-1.5.7-2.9 2.2-3.9 1.8-1.2 4.2-.9 5.7.7 2 1.9 1.9 5.3-.1 7.2z"/><path fill-rule="evenodd" clip-rule="evenodd" fill="#E43125" d="M202 339.6V338.7c-.1-.8-.3-1.5-.7-2.3-.5-1-1.2-2-2-2.7-.8-.7-1.6-1.2-2.6-1.5-.6-.2-1.3-.4-2-.5H192.8c-.8.1-1.6.3-2.3.7-.7.3-1.3.7-1.8 1.2-.4.4-.9.8-1.2 1.3-.5.7-1 1.5-1.3 2.4-.2.5-.3.9-.3 1.4V341.2c0 .2 0 .4.1.6.2.8.5 1.5.8 2.2.3.5.7 1.1 1.1 1.5.5.5 1 1 1.5 1.3.7.4 1.4.8 2.2 1 .5.2 1.1.3 1.6.3H195.1c.7-.1 1.5-.3 2.1-.6 1.1-.5 2.1-1.2 2.9-2.1.7-.8 1.2-1.6 1.6-2.6.2-.6.4-1.2.5-1.8v-.7c-.2-.2-.2-.5-.2-.7zm-5.6 4.5c-1.8 1.3-4.1 1.1-5.7-.4-2-1.9-2-5.3-.1-7.3 2-2 5.1-1.8 6.8.5.7.9 1 2 1 3.4s-.6 2.8-2 3.8zM259.3 337.7c-.3-.9-.8-1.8-1.3-2.7-.8-1.3-1.9-2.3-3.3-2.8-2.2-.8-4.4-.6-6.4.7-2.8 1.7-4.3 5-3.7 8.3.7 3.9 4 6.8 8 6.8h.7c.2 0 .4 0 .6-.1 2.2-.4 4-1.5 5.3-3.4.1-.1.1-.1 0-.2-.8-.5-1.6-1.1-2.5-1.6-.1-.1-.1-.1-.2 0-.3.5-.6.9-1.1 1.2-.7.5-1.6.8-2.5.9-1.9.2-3.5-.6-4.3-2.3-.1-.1 0-.2.1-.2 1.5-.6 3-1.3 4.5-1.9 2-.8 4-1.7 6-2.6.1.1.1.1.1-.1zm-4.2-1c-2.3 1-4.7 2-7 2.9-.1 0-.2.1-.2-.1 0-1 .2-2 .8-2.8.5-.8 1.3-1.3 2.2-1.6.5-.1.9-.2 1.6-.2 1 0 2 .5 2.6 1.5.1.2.1.3 0 .3z"/><path fill="#808184" d="M158.7 351.3l-1.8 6.3h.8l.5-1.8h2l.5 1.8h.8l-1.8-6.3h-1zm-.4 3.9l.8-3.4.8 3.4h-1.6zm6.6-1.7c-.1-.2-.3-.4-.5-.5-.2-.1-.4-.2-.7-.2-.2 0-.4.1-.5.2-.2.1-.3.3-.4.5v-.5h-.6v6.3h.7v-2.1c.1.2.3.3.4.5.1.1.3.2.6.2s.6-.1.8-.2c.2-.2.4-.4.5-.6.1-.3.2-.6.2-.9 0-.3.1-.7.1-1 0-.2 0-.5-.1-.7-.3-.5-.4-.8-.5-1zm-.6 3.2c-.1.3-.4.5-.7.5-.2 0-.4-.1-.5-.2-.1-.1-.2-.3-.3-.5-.1-.2-.1-.4-.1-.6v-1.2c0-.2 0-.4.1-.6.1-.2.1-.4.3-.5.1-.1.3-.2.5-.2s.4.1.5.2c.1.1.2.3.3.5.1.2.1.4.1.6v.5c0 .6 0 1.1-.2 1.5zm4.8-3.2c-.1-.2-.3-.4-.5-.5-.2-.1-.4-.2-.7-.2-.2 0-.4.1-.5.2-.2.1-.3.3-.4.5v-.5h-.6v6.3h.7v-2.1c.1.2.3.3.4.5.1.1.3.2.6.2s.6-.1.8-.2c.2-.2.4-.4.5-.6.1-.3.2-.6.2-.9 0-.3.1-.7.1-1 0-.2 0-.5-.1-.7-.3-.5-.3-.8-.5-1zm-.5 3.2c-.1.3-.4.5-.7.5-.2 0-.4-.1-.5-.2-.1-.1-.2-.3-.3-.5-.1-.2-.1-.4-.1-.6v-1.2c0-.2 0-.4.1-.6.1-.2.1-.4.3-.5.1-.1.3-.2.5-.2s.4.1.5.2c.1.1.2.3.3.5.1.2.1.4.1.6v.5c0 .6-.1 1.1-.2 1.5zm4.3-1.3c-.1-.1-.3-.2-.4-.2-.2-.1-.3-.1-.5-.2-.1-.1-.2-.1-.3-.1-.1 0-.2-.1-.3-.1-.1-.1-.2-.1-.2-.2-.1-.1-.1-.2-.1-.4s.1-.4.2-.5c.1-.1.3-.2.5-.2.3 0 .5.1.6.2.1.1.2.3.1.6h.7c0-.5-.1-.8-.4-1.1-.3-.2-.6-.3-1.1-.3-.2 0-.4 0-.6.1-.2.1-.3.2-.4.3-.1.1-.2.3-.3.4-.1.2-.1.3-.1.5s0 .4.1.5c.1.1.1.3.2.4.1.1.2.2.4.3.1.1.3.1.5.2.1.1.2.1.4.1.1 0 .3.1.4.2.1.1.2.1.3.2.1.1.1.2.1.4 0 .3-.1.5-.2.6-.2.1-.4.2-.7.2-.3 0-.5-.1-.6-.2-.1-.2-.2-.4-.2-.7h-.6v.5c0 .2.1.3.2.5s.3.3.5.4c.2.1.4.1.6.1.5 0 .9-.1 1.2-.4.3-.3.4-.6.4-1.1 0-.2 0-.4-.1-.5-.1-.3-.2-.4-.3-.5zm4.3-4.1c-.2 0-.4.2-.5.3-.1.1-.1.3-.1.4v.9h-.7v.6h.7v4.1h.7v-4.1h.7v-.6h-.7v-.8c0-.1.1-.1.1-.2.1 0 .1-.1.2-.1h.3v-.6c-.2 0-.5.1-.7.1zm4.3 2.1c-.1-.2-.3-.4-.5-.5-.2-.1-.5-.2-.7-.2-.3 0-.5.1-.7.2-.2.1-.4.3-.5.5-.1.2-.2.4-.3.7-.1.3-.1.6-.1 1 0 .5 0 .9.1 1.3.1.3.2.6.3.8.1.2.3.3.5.4.2.1.4.1.7.1.3 0 .5 0 .7-.1.2-.1.4-.2.5-.4.1-.2.3-.5.3-.8.1-.3.1-.8.1-1.3 0-.4 0-.7-.1-1 0-.2-.1-.5-.3-.7zm-.3 2.7c0 .2-.1.4-.2.6-.1.2-.2.3-.3.4-.1.1-.3.1-.5.1s-.4 0-.5-.1c-.1-.1-.2-.2-.3-.4-.1-.2-.1-.4-.2-.6v-.8c0-.7.1-1.2.2-1.5.2-.3.4-.4.8-.4.3 0 .6.1.8.4.2.3.2.8.2 1.5v.8zm2.5-2.4v-.8h-.7v4.7h.7v-2.8c0-.2 0-.4.1-.6.1-.2.2-.3.3-.4.1-.1.3-.2.4-.2h.6v-.7c-.4 0-.6 0-.8.2-.3 0-.5.3-.6.6zm4.9.9h2.3v-.6h-2.3v-2.1h2.5v-.6h-3.2v6.3h3.2v-.6h-2.5v-2.4zm5.8-1.2c-.2-.2-.3-.4-.5-.5-.2-.1-.4-.2-.6-.2-.3 0-.5.1-.7.2-.2.1-.3.3-.4.5-.1.2-.2.5-.2.8-.1.3-.1.6-.1 1v.8c0 .2.1.4.1.6 0 .2.1.4.2.5.1.2.2.3.4.4.2.1.4.2.6.2h.4c.1 0 .2-.1.3-.1.1-.1.2-.1.2-.2.1-.1.1-.2.2-.4v.6h.6v-6.3h-.7v2.1zm0 2.4v.4c0 .2-.1.3-.1.5-.1.1-.2.3-.3.4-.1.1-.3.1-.4.1-.2 0-.4-.1-.5-.2-.1-.1-.2-.2-.3-.4-.1-.2-.1-.4-.1-.6v-.7c0-.4 0-.7.1-.9 0-.2.1-.4.2-.6l.3-.3c.1-.1.2-.1.4-.1s.4.1.5.2c.1.1.2.3.3.5.1.2.1.4.1.6v1.1zm4.3.1v.4c0 .1-.1.3-.2.4-.1.1-.2.2-.4.3-.1.1-.3.1-.5.1s-.4-.1-.5-.2c-.1-.1-.1-.3-.1-.5v-3.7h-.7v3.6c0 .4.1.7.3.9.2.2.5.3.8.3.2 0 .4-.1.6-.2.2-.1.4-.3.5-.6v.6h.7v-4.7h-.7v3.3zm4 .5c0 .1-.1.3-.1.4-.1.1-.1.2-.2.3-.1.1-.3.1-.4.1-.2 0-.4-.1-.5-.2-.1-.1-.2-.3-.3-.4-.1-.2-.1-.4-.1-.6v-1.1c0-.2 0-.5.1-.7.1-.2.1-.4.3-.6.1-.2.3-.2.6-.2.2 0 .3 0 .4.1.1.1.2.1.2.2.1.1.1.2.1.3v.4h.6c0-.2 0-.4-.1-.6-.1-.2-.1-.4-.3-.5-.1-.1-.3-.3-.4-.3-.2-.1-.4-.1-.6-.1-.4 0-.6.1-.9.2-.2.2-.4.4-.5.6-.1.2-.2.5-.2.8 0 .3-.1.6-.1.9 0 .3 0 .6.1.9 0 .3.1.5.2.8.1.2.3.4.5.5.2.1.5.2.9.2.3 0 .5 0 .7-.1.2-.1.3-.2.4-.4.1-.2.2-.4.2-.6.1-.2.1-.4.1-.7h-.6c-.1.1-.1.3-.1.4zm4.3.7c-.1 0-.1-.1-.1-.2V353.7c0-.1-.1-.2-.1-.3 0-.1-.1-.2-.2-.3-.1-.1-.2-.2-.4-.2-.2-.1-.3-.1-.6-.1-.5 0-.8.1-1.1.3-.2.2-.3.6-.3 1.1h.6v-.4c0-.1 0-.2.1-.3 0-.1.1-.1.2-.2.1 0 .2-.1.4-.1.3 0 .5.1.6.2.1.1.2.3.2.6v.3c0 .1 0 .2-.1.2 0 0-.1 0-.2.1-.1 0-.2.1-.4.2-.1.1-.3.1-.4.2-.1.1-.3.1-.4.2-.2.1-.3.2-.4.3-.1.1-.2.2-.2.3 0 .1-.1.2-.1.3v.2c0 .2 0 .4.1.6 0 .2.1.3.2.4.1.1.2.2.4.3.2.1.4.1.6.1.1 0 .2 0 .3-.1.1 0 .2-.1.3-.2l.2-.2c.1-.1.1-.2.2-.3 0 .2 0 .3.1.4 0 .1.1.2.2.2s.2.1.2.1h.6v-.5h-.5zm-.9-.9c0 .2 0 .3-.1.5-.1.1-.1.2-.2.3-.1.1-.2.1-.3.1h-.2c-.3 0-.4-.1-.5-.2-.1-.1-.1-.3-.1-.6 0-.2 0-.3.1-.5s.2-.3.3-.3c.2-.1.4-.2.5-.2.2-.1.4-.2.5-.3v1.2zm2.8-4.6h-.7v1.3h-.7v.6h.7v3.4c0 .2 0 .3.1.4 0 .1.1.2.1.2.1.1.1.1.2.1h1v-.6H209l-.1-.1V353.5h.8v-.6h-.8v-1.3zm1.5.5h.7v-.8h-.7v.8zm0 5.5h.7v-4.7h-.7v4.7zm4.7-4.2c-.1-.2-.3-.4-.5-.5-.2-.1-.5-.2-.7-.2-.3 0-.5.1-.7.2-.2.1-.4.3-.5.5-.1.2-.2.4-.3.7-.1.3-.1.6-.1 1 0 .5 0 .9.1 1.3.1.3.2.6.3.8.1.2.3.3.5.4.2.1.4.1.7.1.3 0 .5 0 .7-.1.2-.1.4-.2.5-.4.1-.2.3-.5.3-.8.1-.3.1-.8.1-1.3 0-.4 0-.7-.1-1-.1-.2-.2-.5-.3-.7zm-.3 2.7c0 .2-.1.4-.2.6-.1.2-.2.3-.3.4-.1.1-.3.1-.5.1s-.4 0-.5-.1c-.1-.1-.2-.2-.3-.4-.1-.2-.1-.4-.2-.6v-.8c0-.7.1-1.2.2-1.5.2-.3.4-.4.8-.4.3 0 .6.1.8.4.2.3.2.8.2 1.5v.8zm4.4-3c-.2-.2-.5-.3-.8-.3-.3 0-.5.1-.7.2-.2.1-.4.3-.5.5v-.5h-.7v4.7h.7v-3.1c0-.2 0-.3.1-.5 0-.1.1-.3.3-.4.2-.2.4-.3.7-.3.3 0 .5.1.6.2.1.1.1.3.1.6v3.4h.7V354c-.2-.4-.3-.7-.5-.9z"/></svg>