<svg xmlns="http://www.w3.org/2000/svg" viewBox="0 0 144 144" enable-background="new 0 0 144 144"><path fill="none" d="M0 0h144v144H0z"/><path fill="#1F6901" d="M129.8 74.3c8.7-5.2 11.6-16.5 6.4-25.2-5.2-8.7-16.5-11.6-25.2-6.4-7.7 4.6-10.8 13.9-7.9 22l-3 5.2c-.3.4.1 1 .6 1l6-.1c5.8 6.4 15.4 8.1 23.1 3.5z"/><path fill="#FCFFFD" d="M121 51.3l-.3-2.3-1.3.2-9.7 2.9 1.9 15.1 10.1.6 1.3-.2-.3-2.7 7.1-.9-1.7-13.7-7.1 1zm-1.9 10.9l-1.6.1-1.4-2.5-.7 2.6-1.5.2 1.3-3.5-2-3.1 1.5-.3 1.3 2.4.7-2.8 1.5-.2-1.3 3.8 2.2 3.3zm5.2 1.2l-1.8.2-.2-1.5 1.8-.2.2 1.5zm-.3-2.3l-1.8.2-.2-1.5 1.8-.2.2 1.5zm-.3-2.4l-1.8.2-.2-1.5 1.8-.2.2 1.5zm-.3-2.4l-1.8.2-.2-1.5 1.8-.2.2 1.5zm-.3-2.3l-1.8.2-.2-1.5 1.8-.2.2 1.5zm5.1 9l-3 .4-.2-1.5 3-.4.2 1.5zm-.3-2.4l-3 .4-.2-1.5 3-.4.2 1.5zm-.3-2.4l-3 .4-.2-1.5 3-.4.2 1.5zm-.3-2.4l-3 .4-.2-1.5 3-.4.2 1.5zm-.3-2.3l-3 .4-.2-1.5 3-.4.2 1.5z"/><path fill="#0397F3" d="M106.1 35.3c2.2-12.5-6.2-24.5-18.7-26.7S63 14.8 60.8 27.3c-1.9 11 4.3 21.6 14.4 25.5l2.5 7.1c.2.6 1 .7 1.4.2l4.8-5.8c10.8-.1 20.3-7.9 22.2-19z"/><path fill="#01D0B7" d="M4.2 109.4l37.5-39.7s2.3-2.5 7.1-.8L137.2 91s5.4.6 3.4 5.4L108.9 139s-2.6 2.3-9.3.5L5.9 114.3s-5.1-1.3-1.7-4.9z"/><path fill="#fff" d="M14.6 112.1l79.8 22.2c.3.1.6 0 .8-.3l33-42c.3-.4.1-1.1-.4-1.2l-76-18.4c-.3-.1-.5 0-.7.2l-36.9 38.3c-.3.4-.1 1.1.4 1.2z"/><path fill="#DA1D00" d="M107 99.5c.6 10.5-12.7 19.8-29.8 20.7-17 1-31.3-6.8-31.9-17.3l-.5-8.9 5.4-4.3 56.3 1 .5 8.8z"/><ellipse transform="matrix(.999 -.036 .036 .999 -3.265 2.803)" fill="#FF6152" cx="75.8" cy="91.6" rx="30.9" ry="19"/><path fill="#fff" d="M96.6 37.2c-1.9 4.1-5.8 7.2-10.6 7.8-7.4.9-14.2-4.3-15.1-11.8-.9-7.4 4.3-14.2 11.8-15.1 4.3-.5 8.3 1 11.2 3.8l-3.5 3.6c-1.8-1.7-4.3-2.7-7-2.3-4.7.6-8 4.9-7.4 9.5.6 4.7 4.9 8 9.5 7.4 2.7-.3 4.9-1.9 6.2-4l4.9 1.1z"/><path fill="#F4F8F7" d="M52.3 26.7c-7.5-9.4-21.3-10.9-30.7-3.4S10.7 44.6 18.3 54c6.6 8.3 18.1 10.4 27.1 5.7l6.6 2.6c.6.2 1.2-.3 1.1-.8l-1.1-7c6.5-7.9 6.9-19.6.3-27.8z"/><path fill="#4285F4" d="M47.6 36.1l-12.5 1.6.6 5.2 7.2-.9c-.3 2.6-1.5 4.7-4.1 5.7l4.4 1.9h1.5c2.6-2.8 3.8-6.8 3.3-11 0-.9-.2-1.7-.4-2.5z"/><path fill="#34A853" d="M37.2 53.5c3.4-.4 6.2-2.1 8.2-4.5L41 46.3c-1.1 1.1-2.6 1.8-4.7 1.9-3.5.2-6.7-1.6-8.1-4.6l-4 3.8c2.7 4.2 7.7 6.8 13 6.1z"/><path fill="#FBBC02" d="M23.1 34.9c-.9 2.1-1.3 4.5-.9 6.9.3 2.2 1 4.2 2.2 5.8l3.9-3.9c-.4-.8-.7-1.7-.8-2.6-.2-1.4 0-2.7.5-4l-4.9-2.2z"/><path fill="#EA4335" d="M22.8 35.7l4.7 2.8c.7-3.3 3.3-5.9 6.7-6.4 2.1-.3 4 .3 5.5 1.5l3.3-4.3c-2.5-1.9-5.8-2.9-9.2-2.5-5.2.6-9.3 4.2-11 8.9z"/><path d="M42.9 42c-.3 3.3-2.4 6-6.7 6.3-4.4.3-8.2-2.7-8.8-7.1-.5-4.4 2.4-8.5 6.8-9 2.1-.3 4 .3 5.5 1.5l3.3-4.3c-2.5-1.9-5.8-2.9-9.2-2.5-7.4.9-12.6 7.6-11.7 15 .9 7.4 7.6 12.6 15 11.7C44.5 52.7 49 46 48 38.7c-.1-.9-.3-1.7-.5-2.5L35 37.8l.6 5.2 7.3-1z" fill="none"/></svg>