<?xml version="1.0" encoding="utf-8"?>
<!-- Generator: Adobe Illustrator 19.2.0, SVG Export Plug-In . SVG Version: 6.00 Build 0)  -->
<svg version="1.1" id="Layer_1" xmlns="http://www.w3.org/2000/svg" xmlns:xlink="http://www.w3.org/1999/xlink" x="0px" y="0px"
	 viewBox="0 0 1020 670" enable-background="new 0 0 1020 670" xml:space="preserve">
<path fill="#FFFFFF" d="M428,177.7C428,177.7,428,177.7,428,177.7c33.7,2.9,27.8-6.9,51.3-1.3c23.5,5.6,2.3-25.8,47.6-1.9
	c45.3,23.9,37,5.7,59.3,21h0C534.1,187.8,481.3,181.8,428,177.7z"/>
<path fill="#FFFFFF" d="M62.3,296.4c0,0,16.9-9,32.5-8.7c15.6,0.3,9.9-17,41.5-8.2c31.7,8.8,18.1,1.5,28,6.6l0,0
	C130.5,288.4,96.4,291.8,62.3,296.4z"/>
<path fill="#2CE78B" d="M285,153.8l0.5,519l734.5,0L285,153.8z"/>
<path fill="#FFFFFF" d="M284.5,153.8L0,672.8l569,0L284.5,153.8z"/>
<path fill="#FFFFFF" d="M450,374.5C450,374.5,450,374.5,450,374.5c0,0,8.8-11.6,35-11c26.3,0.6,1.9-34.7,59.6-25.4
	c35.7,5.8,24.8-26.5,53.5-19.2c28.7,7.4,18.4,22.5,42,33.5c16.5,7.8,25-9.5,41.2,18.2c4.5,7.7,10.5-0.7,14.7,9.2
	c4.2,9.9,22.2-5.1,32.7,16c6.9,13.8,27.4,12.6,62.3,23c0,0-0.1,0-0.1,0C677,396,563.2,381.3,450,374.5z"/>
</svg>
