<?xml version="1.0" encoding="utf-8"?>
<!-- Generator: Adobe Illustrator 19.2.0, SVG Export Plug-In . SVG Version: 6.00 Build 0)  -->
<svg version="1.1" id="Layer_1" xmlns="http://www.w3.org/2000/svg" xmlns:xlink="http://www.w3.org/1999/xlink" x="0px" y="0px"
	 viewBox="0 0 144 144" enable-background="new 0 0 144 144" xml:space="preserve">
<g>
	<g>
		<g>
			<path fill="none" stroke="#EE511C" stroke-miterlimit="10" d="M64.4,72.4c0-0.5,0-1,0.1-1.5"/>
			<path fill="none" stroke="#EE511C" stroke-miterlimit="10" stroke-dasharray="3.1621,3.1621" d="M65.3,67.9
				c2.5-6.4,10.3-11.1,19.5-11.1c9.9,0,18.1,5.4,20,12.6"/>
			<path fill="none" stroke="#EE511C" stroke-miterlimit="10" d="M105,70.9c0.1,0.5,0.1,1,0.1,1.5"/>
		</g>
	</g>
	<g>
		<g>
			<path fill="none" stroke="#EE511C" stroke-miterlimit="10" d="M32,72.4c0-0.5,0-1,0.1-1.5"/>
			<path fill="none" stroke="#EE511C" stroke-miterlimit="10" stroke-dasharray="3.1799,3.1799" d="M32.8,67.8
				c2.1-6.4,8.4-11,15.9-11c8.1,0,14.8,5.4,16.3,12.6"/>
			<path fill="none" stroke="#EE511C" stroke-miterlimit="10" d="M65.3,70.9c0,0.5,0.1,1,0.1,1.5"/>
		</g>
	</g>
	<g>
		<g>
			<path fill="none" stroke="#420608" stroke-miterlimit="10" d="M65.3,73c0-0.5,0-1-0.1-1.5"/>
			<path fill="none" stroke="#420608" stroke-miterlimit="10" stroke-dasharray="3.0613,3.0613" d="M64.8,68.5
				c-2.2-9.3-11-16.3-21.5-16.3c-12.1,0-22,9.3-22,20.9l0,3.1"/>
			<line fill="none" stroke="#420608" stroke-miterlimit="10" x1="21.4" y1="77.6" x2="21.4" y2="79.1"/>
		</g>
	</g>
	<g>
		<g>
			<path fill="none" stroke="#420608" stroke-miterlimit="10" d="M64.7,68.8c0-0.5,0-1,0-1.5"/>
			<path fill="none" stroke="#420608" stroke-miterlimit="10" stroke-dasharray="2.8463,2.8463" d="M64.9,64.5
				C66,55,70.3,48,75.5,48c6,0,10.8,9.3,10.8,20.9l0,3.2"/>
			<line fill="none" stroke="#420608" stroke-miterlimit="10" x1="86.3" y1="73.4" x2="86.3" y2="74.9"/>
		</g>
	</g>
	<path fill="none" stroke="#420608" stroke-miterlimit="10" stroke-dasharray="3" d="M64.8,69.4c4.9-12.7,16-21.5,29-21.5
		c17.5,0,31.6,16.1,31.6,35.9c0,1.9-0.1,3.8-0.4,5.6"/>
	<path fill="none" stroke="#420608" stroke-miterlimit="10" stroke-dasharray="3" d="M64.8,69.4c-0.3-12.7-0.9-21.5-1.7-21.5
		c-1,0-1.9,16.1-1.9,35.9c0,1.9,0,3.8,0,5.6"/>
</g>
<g>
	<polygon fill="#015247" points="63.6,106.2 62.1,104.2 84.3,88.4 65.5,75.8 33.4,85.3 19.9,98.8 18.2,97 32.1,83.1 65.9,73.1 
		88.6,88.4 	"/>
</g>
<g>
	
		<rect x="85.9" y="60.2" transform="matrix(0.1704 -0.9854 0.9854 0.1704 -4.3725 149.6654)" fill="#015247" width="1.7" height="34.5"/>
</g>
<g>
	
		<rect x="102.4" y="78.4" transform="matrix(0.4926 -0.8703 0.8703 0.4926 -32.8133 139.984)" fill="#015247" width="2.5" height="39.5"/>
</g>
<ellipse fill="#015247" cx="65.7" cy="74.5" rx="7.2" ry="1.7"/>
<ellipse fill="#015247" cx="103.7" cy="80.4" rx="7.2" ry="1.7"/>
<ellipse fill="#015247" cx="32.8" cy="84.2" rx="9.2" ry="2.1"/>
<ellipse fill="#015247" cx="86.4" cy="88.4" rx="10.1" ry="2.3"/>
<ellipse fill="#015247" cx="62.8" cy="105.2" rx="15.9" ry="3.6"/>
<ellipse fill="#015247" cx="20.6" cy="97.9" rx="13.4" ry="3.1"/>
<ellipse fill="#015247" cx="122.2" cy="107.9" rx="16.7" ry="3.8"/>
<g>
	<path fill="#0E1414" d="M30.5,77.3c0,1-0.8,1.8-1.8,1.8c-1,0-1.8-0.8-1.8-1.8c0-1,0.8-1.8,1.8-1.8C29.6,75.4,30.5,76.3,30.5,77.3"
		/>
	<path fill="#0E1414" d="M30.1,78.8c0.6,0.8,0.4,2-0.4,2.6c-0.8,0.6-2,0.4-2.6-0.4c-0.6-0.8-0.4-2,0.4-2.6
		C28.3,77.8,29.5,78,30.1,78.8"/>
	<path fill="#0E1414" d="M30.6,80.2c1,0.3,1.5,1.3,1.2,2.3c-0.3,1-1.3,1.5-2.3,1.2c-1-0.3-1.5-1.3-1.2-2.3
		C28.6,80.4,29.7,79.9,30.6,80.2"/>
	<path fill="#0E1414" d="M31.9,81.1c1-0.3,2,0.2,2.3,1.2c0.3,1-0.2,2-1.2,2.3c-1,0.3-2-0.2-2.3-1.2C30.5,82.4,31,81.4,31.9,81.1"/>
	<path fill="#0E1414" d="M33.5,81c0.6-0.8,1.7-1,2.6-0.4c0.8,0.6,1,1.7,0.4,2.6c-0.6,0.8-1.7,1-2.6,0.4C33.1,82.9,32.9,81.8,33.5,81
		"/>
	<path fill="#0E1414" d="M34.7,80c0-1,0.8-1.8,1.8-1.8c1,0,1.8,0.8,1.8,1.8c0,1-0.8,1.8-1.8,1.8C35.5,81.8,34.7,81,34.7,80"/>
	<path fill="#0E1414" d="M35.1,78.5c-0.6-0.8-0.4-2,0.4-2.6c0.8-0.6,2-0.4,2.6,0.4c0.6,0.8,0.4,2-0.4,2.6
		C36.8,79.5,35.7,79.3,35.1,78.5"/>
	<path fill="#0E1414" d="M34.5,77c-1-0.3-1.5-1.3-1.2-2.3c0.3-1,1.3-1.5,2.3-1.2c1,0.3,1.5,1.3,1.2,2.3C36.5,76.8,35.5,77.4,34.5,77
		"/>
	<path fill="#0E1414" d="M33.2,76.2c-1,0.3-2-0.2-2.3-1.2c-0.3-1,0.2-2,1.2-2.3c1-0.3,2,0.2,2.3,1.2C34.7,74.9,34.2,75.9,33.2,76.2"
		/>
	<path fill="#0E1414" d="M31.7,76.3c-0.6,0.8-1.7,1-2.6,0.4c-0.8-0.6-1-1.7-0.4-2.6c0.6-0.8,1.7-1,2.6-0.4
		C32.1,74.3,32.3,75.5,31.7,76.3"/>
	<path fill="#A79899" d="M35.7,79.5c0,2.5-2,3.3-3.1,3.3c-1.1,0-3.1-0.8-3.1-3.3c0-1.9,1.2-3.5,3.1-3.5
		C34.5,76.1,35.7,77.6,35.7,79.5"/>
	<path fill="#0E1414" d="M29.3,79.5c0,0-0.3-3.7,3.3-3.7c3.6,0,3.3,3.7,3.3,3.7s-0.1-2.3-3.3-2.3C29.4,77.2,29.3,79.5,29.3,79.5"/>
	<polygon fill="#420709" points="32.6,79.1 31.9,80.5 33.3,80.5 	"/>
</g>
<g>
	<path fill="#0E1414" d="M69.7,72.7c0-2.3-1.8-5.1-4.1-5.1c-2.3,0-4.1,2.8-4.1,5.1c0,0,1.2,1.6,4.1,1.6
		C68.5,74.3,69.7,72.7,69.7,72.7"/>
	<path fill="#F0EBEC" d="M67.9,71.4c0,1.8-1.5,3.1-2.3,3.1c-0.8,0-2.3-1.3-2.3-3.1c0-1.4,0.9-2.5,2.3-2.5C67,68.9,67.9,70,67.9,71.4
		"/>
	<path fill="#0E1414" d="M68,71.1c-0.1-1.3-1.1-2.4-2.4-2.4c-1.4,0-2.3,1-2.4,2.4H68z"/>
	<polygon fill="#A79899" points="65.6,71.3 65.2,72.7 66,72.7 	"/>
</g>
<path fill="#2912A7" d="M122.8,86.2c8.2-2.5,12,4.2,12,10.4c0,6.8-4.2,12.2-4.2,12.2c-3.7-0.9-7-5.5-7-5.5s-3.2,4.6-7,5.5
	c0,0-4.2-5.4-4.2-12.2c0-6.2,3.8-12.9,12-10.4H122.8z"/>
<path fill="#FFEBEA" d="M131.5,96.1c0,6.3-5.1,8.3-7.9,8.3c-2.8,0-7.9-2-7.9-8.3c0-4.8,3.1-8.7,7.9-8.7
	C128.5,87.4,131.5,91.3,131.5,96.1"/>
<polygon fill="#F29EAE" points="123.7,96.3 121.9,99.4 125.4,99.4 "/>
<path fill="#2912A7" d="M132.1,95.9c-0.5-5.8-3.6-9.4-8.4-9.4c-4.8,0-7.9,3.6-8.4,9.4H132.1z"/>
<g>
	<path fill="#015247" d="M99.8,76.2c0.3,1.8,3.6,2.1,3.6,2.1s3.3-0.3,3.6-2.1c0.2-1,0-2.2-0.4-3.1c-2.5,0-1.6-2.1-3-2.1
		C101.2,70.9,99.3,73.8,99.8,76.2"/>
	<path fill="#015247" d="M100.7,73c2.2,2,5.1,0.8,5.6-1.6C104.7,70.1,101.5,69.8,100.7,73"/>
	<path fill="#015247" d="M100.7,72.9c1.5,2.5,5.3,2.5,7,0.7C106.6,72,103,70.5,100.7,72.9"/>
	<path fill="#FFEBEA" d="M106.9,76.2c0,2.8-2.2,3.7-3.5,3.7c-1.2,0-3.5-0.9-3.5-3.7c0-2.1,1.4-3.8,3.5-3.8
		C105.5,72.4,106.9,74.1,106.9,76.2"/>
	<polygon fill="#FF7353" points="103.4,75.2 102.8,77.3 103.9,77.3 	"/>
</g>
<g>
	<path fill="#331416" d="M91.8,77.8c-0.1,0.9-1,1.5-1.9,1.4c-0.9-0.1-1.5-1-1.4-1.9c0.1-0.9,1-1.5,1.9-1.4
		C91.3,76,91.9,76.9,91.8,77.8"/>
	<path fill="#331416" d="M81.7,80.4c-0.1,0.9-1,1.5-1.9,1.4c-0.9-0.1-1.5-1-1.4-1.9c0.1-0.9,1-1.5,1.9-1.4
		C81.2,78.7,81.8,79.5,81.7,80.4"/>
	<path fill="#331416" d="M92.4,80.1c-0.1,0.6-0.6,1-1.2,0.9c-0.6-0.1-1-0.6-0.9-1.2c0.1-0.6,0.6-1,1.2-0.9
		C92.1,79,92.5,79.5,92.4,80.1"/>
	<path fill="#A79899" d="M91.3,83.3c0,4.5-3.6,5.9-5.6,5.9c-2,0-5.6-1.4-5.6-5.9c0-3.4,2.2-6.2,5.6-6.2S91.3,79.9,91.3,83.3"/>
	<path fill="#331416" d="M85.7,76.9c-0.3,1.9-2.1,3.3-4,3c-1.9-0.3-3.3-2.1-3-4c0.3-1.9,2.1-3.3,4-3C84.7,73.1,86,74.9,85.7,76.9"/>
	<path fill="#331416" d="M89,76.5c-0.2,1.2-1.3,2-2.4,1.8c-1.2-0.2-2-1.3-1.8-2.4c0.2-1.2,1.3-2,2.4-1.8
		C88.4,74.2,89.2,75.3,89,76.5"/>
	<path fill="#331416" d="M88.5,77.4c-0.9,2.2,1.1,4.7,2.8,5.2C91.7,79.5,90.3,78.1,88.5,77.4"/>
	<polygon fill="#664D4E" points="85.7,81.5 84.3,84.8 87.1,84.8 	"/>
</g>
<g>
	<path fill="#FF7353" d="M70.4,94.1c0,6.7-5.8,11.6-9,11.6c-3.2,0-9-4.8-9-11.6c0-8.2,9-12,9-12S70.4,85.9,70.4,94.1"/>
	<path fill="#FFEBEA" d="M70,97.2c0,6.7-5.5,8.9-8.5,8.9c-3,0-8.5-2.2-8.5-8.9c0-5.2,3.3-9.4,8.5-9.4S70,92,70,97.2"/>
	<polygon fill="#F29EAE" points="61.5,96.5 59.4,99.8 63.6,99.8 	"/>
</g>
<g>
	<path fill="#8CCFEA" d="M14.9,87.1c-0.8-4.6,2.7-8,6.5-8c3.8,0,7.2,3.4,6.5,8C27.4,90.6,15.5,90.6,14.9,87.1"/>
	<path fill="#FFF3C1" d="M29.3,90.2c0,6.3-5.1,8.3-7.9,8.3c-2.8,0-7.9-2-7.9-8.3c0-4.8,3.1-8.7,7.9-8.7
		C26.2,81.5,29.3,85.4,29.3,90.2"/>
	<polygon fill="#FFD31C" points="21.4,90.4 19.9,93.5 23,93.5 	"/>
	<path fill="#664D4E" d="M21.4,81.2c9.7,0,7.9,9.3,7.9,9.3c0-8.1-7.1-6.8-9.9-3.9c-2.5,2.5-5.8-4.2-5.8,3.9
		C13.6,90.5,11.7,81.2,21.4,81.2"/>
</g>
</svg>
