<?xml version="1.0" encoding="utf-8"?>
<!-- Generator: Adobe Illustrator 19.2.0, SVG Export Plug-In . SVG Version: 6.00 Build 0)  -->
<svg version="1.1" id="Layer_1" xmlns="http://www.w3.org/2000/svg" xmlns:xlink="http://www.w3.org/1999/xlink" x="0px" y="0px"
	 viewBox="0 0 144 144" enable-background="new 0 0 144 144" xml:space="preserve">
<circle fill="#B6C82F" cx="75.6" cy="66" r="55"/>
<circle fill="#FFFFFF" cx="75.6" cy="66" r="47.1"/>
<path fill="#EE511C" d="M76.9,25.1c22.6,0,40.9,18.3,40.9,40.9H75.6V25.1"/>
<circle fill="#EE511C" cx="75.6" cy="66" r="4.4"/>
<g>
	<rect x="71.1" y="25.1" fill="#B6C82F" width="2.7" height="10.2"/>
	<rect x="75.6" y="25.1" fill="#B6C82F" width="2.7" height="10.2"/>
</g>
<g>
	<rect x="107.2" y="61.8" fill="#B6C82F" width="10.2" height="2.7"/>
	<rect x="107.2" y="66.2" fill="#B6C82F" width="10.2" height="2.7"/>
</g>
<g>
	<rect x="35.2" y="61.8" fill="#B6C82F" width="10.2" height="2.7"/>
	<rect x="35.2" y="66.2" fill="#B6C82F" width="10.2" height="2.7"/>
</g>
<g>
	<rect x="71.1" y="97.7" fill="#B6C82F" width="2.7" height="10.2"/>
	<rect x="75.6" y="97.7" fill="#B6C82F" width="2.7" height="10.2"/>
</g>
<path fill="#EBC7C1" d="M30.4,111.2l4.8-2.7c0,0,12.3-13.5,32.1-8.8c0,0,8.1,1.7,17.7,1c9.6-0.8,11.4-0.8,11.9,2.1s-2.3,6.3-8.1,5.9
	c-9.3-0.8-12.8-0.5-13.7,0c-0.9,0.5,4.7,4.8,16.8,3c12.2-1.8,15.9-2.6,15.9-2.6s6.2-2.9,7.5-1.5s1.1,3.4-4.2,6.1
	c-5.3,2.6-14.8,6-14.8,6s-13.8,6.6-23.6,4.9c-9.8-1.7-16-3.4-23.6-2.4c-7.6,1.1-11.9,6-11.9,6L30.4,111.2z"/>
<polygon fill="#2912A7" points="30,107.9 39.4,131.7 28,142 17.5,112.3 "/>
</svg>
