<?xml version="1.0" encoding="utf-8"?>
<!-- Generator: Adobe Illustrator 19.2.0, SVG Export Plug-In . SVG Version: 6.00 Build 0)  -->
<svg version="1.1" id="Layer_1" xmlns="http://www.w3.org/2000/svg" xmlns:xlink="http://www.w3.org/1999/xlink" x="0px" y="0px"
	 viewBox="0 0 619.9 275" enable-background="new 0 0 619.9 275" xml:space="preserve">
<path opacity="0.1" fill="#0163E5" d="M100.9,214.4c61.1,21,120.9,41.7,173.9,60.6h299.7c60.4-38.6,70.5-45.9-37.7-81l-496-50.2
	C-21.1,178.3-21.2,172.5,100.9,214.4z"/>
<path fill="#3E4B4B" d="M18.5,169.4L314.8,275h230.4l65.4-39c13.9-8.3,11.5-29.1-3.8-34L205.9,72.4c-19.3-6.2-40.3-4.9-58.6,3.7
	L17,136.9C2.8,143.6,3.7,164.1,18.5,169.4z"/>
<path fill="#21AA9A" d="M39.8,159.7L361.9,275H449l123.9-73.8c1.9-1.1,1.5-3.9-0.5-4.5L207.9,79.4c-2.4-0.8-5-0.6-7.3,0.5
	L39.6,155.1C37.5,156,37.7,159,39.8,159.7z"/>
<path fill="#23BC98" d="M136.2,171.9c64.9,5.4,140,19.2,169.8,83l56,20.1H449l49.7-29.6c69.6-59.2-150.1-121.3-192.6-112.5
	c-49.7,10.3-24.4-16.2-89.5-17.3S45.1,164.3,136.2,171.9z"/>
<path fill="#CDFAB7" d="M317,212.4c-68.5-54.1-134.1-31.1-127.4-72.5c5-31.1,94.3-29.2,169.1-1.6C529.3,201,437,307.2,317,212.4z"/>
<polygon fill="#CDFAB7" points="213.6,121 213.6,114.2 215.8,119 215.8,107.6 219.8,119 223.1,111.5 222.2,119 228.9,113.5 
	225.1,121 "/>
<polygon fill="#ABF3B0" points="407.3,203.9 407.3,194.3 404.2,201.1 404.2,184.9 398.4,201.1 393.7,190.4 395,201.1 385.4,193.3 
	390.9,203.9 "/>
<path fill="#24D595" d="M569.2,203.4c28.3-12.6,9-51.3-18.4-34.1c-11.7,7.4-20.7-0.8-15.2-9.5c11.5-18.2-15.7-28.7-31.6-25.4
	c-33.6,7.2-19.8,38.1-31.7,38.7c-9.3,0.5-4.1-15.2-15.8-15.6c-7.6-0.2-10.8,8.6-6.6,18.8c0,0,6.8,8.2,51.3,11.4
	S569.2,203.4,569.2,203.4z"/>
<g>
	<path fill="#84FFC3" d="M550.7,169.1c-4.4,2.9-8.5,3.5-11.5,2.6c1.1,2.3,4.2,3.2,8.6,0.9c6.3-3.3,16.6-9.6,26.1-5.5
		C568.3,163.3,560.1,163,550.7,169.1z"/>
	<path fill="#84FFC3" d="M504.1,134.4c-35.3,7.7-19.8,38.1-31.7,38.7c-0.3,0-0.5,0-0.8,0c3.6,1.6,7.3,0.4,8.2-4.3
		C481.4,160.9,489.6,138.4,504.1,134.4z"/>
	<path fill="#84FFC3" d="M465.4,165.6c-1.3-3.9-2.9-8-8.7-8.6c-9.7-1-11.8,10.2-6.7,19.3C445.6,160.3,462.3,156.4,465.4,165.6z"/>
</g>
<path fill="#24D595" d="M33.6,156.3c-22.7-24.7-3.9-65.9,25.7-61.4c17.5,2.7,11.6,24.7,28.9,24.9c17.3,0.2,7.5-29.9,31.5-29.8
	c24.4,0,9,51.6,33.7,55.1c17.3,2.5,25.7-19.5,39.1-7.3c13.5,12.3-14.4,32.7-3,41c8.2,6.1,12.5-2.7,22.3-0.3s10.7,14.6-4.5,18.9
	c0,0-47.7-18-91.2-19.1C61.8,176.9,33.6,156.3,33.6,156.3z"/>
<g>
	<path fill="#84FFC3" d="M84.8,119.4c-12.5-3.2-6-23.1-25.2-25.3c-10.2-1.1-19.1,2.9-25.5,9.7C54.4,82.6,60.1,126,84.8,119.4z"/>
	<path fill="#84FFC3" d="M129,130c3.5,24.3,20.7,24.2,39.2,11.6l0,0c-4.3,2.5-9,4.3-14.6,3c-24.3-5.7-7.1-54.7-33.8-54.6
		c-3.8,0-6.7,0.8-9,2C122.2,92.5,126.4,111.3,129,130z"/>
	<path fill="#84FFC3" d="M215.3,194.3c8-5.3,4.6-14.4-3.3-16.3c-9.8-2.3-14.2,6.9-22.4,0.8c-4-3-3-7.4-0.6-12.5
		c-9,14.1-1.3,16,13.1,14.1c14.4-2,14.5,7.9,5.4,17C210.3,196.4,212.9,195.4,215.3,194.3z"/>
	<path fill="#84FFC3" d="M190.7,162.8c4.4-8.4,10.1-18,2.1-25.2c-8.5-7.7-15-2.1-22.5,2.7C186.1,131.6,195.9,149.4,190.7,162.8z"/>
</g>
<path fill="#03807B" d="M389.6,275h109c0.2-0.5,0-1.2-0.6-1.4c-5.1-2-18.9-6.6-34.7-5.8c-9.1,0.4-17.3,2.6-23.6,4.8
	c5.9-3.2,13-7.8,19.5-14.2c11.3-11.2,17.1-24.5,19.1-29.6c0.3-0.9-0.5-1.7-1.4-1.4c-5.1,1.9-18.4,7.7-29.7,18.9
	c-3.5,3.4-6.4,7.1-8.9,10.6c1.5-4.1,2.7-8.6,3.6-13.4c2.7-15.7-0.2-29.9-1.6-35.2c-0.2-0.9-1.4-1.1-1.9-0.3
	c-3,4.5-10.6,17-13.3,32.6c-0.9,5.5-1.2,10.7-1.1,15.5c-1.9-4-4.2-8.1-7-12.2c-9.2-13-21.3-21-26-23.8c-0.8-0.5-1.8,0.2-1.6,1.1
	c1.1,5.4,4.5,19.5,13.7,32.5c3.8,5.3,8,9.8,12,13.4c-4.7-2.7-10.3-5.3-16.6-7.1c-15.2-4.6-29.7-3.4-35.1-2.7
	c-0.9,0.1-1.3,1.3-0.6,1.9C366.6,262.5,376.4,270.2,389.6,275z"/>
<path fill="#06AD90" d="M397.9,275h81.6c-0.1-0.2-0.3-0.4-0.5-0.5c-4.2-1.6-13.9-4.6-25.1-4.1c-6.7,0.3-12.8,1.9-17.5,3.5
	c4.3-2.3,9.6-5.8,14.4-10.5c7.9-7.9,12.2-17.2,13.9-21.3c0.3-0.9-0.5-1.7-1.4-1.4c-4.1,1.6-13.5,5.9-21.4,13.8
	c-2.6,2.5-4.7,5.2-6.6,7.8c1.1-3,2-6.3,2.6-9.9c1.9-11,0-21.1-1-25.4c-0.2-0.9-1.4-1.1-1.9-0.3c-2.4,3.7-7.6,12.6-9.5,23.6
	c-0.6,3.3-0.8,6.6-0.8,9.6c-1.2-2.3-2.6-4.6-4.2-6.9c-6.5-9.1-14.9-14.9-18.7-17.3c-0.8-0.5-1.8,0.2-1.6,1.1
	c0.9,4.4,3.6,14.2,10,23.4c2.8,3.9,5.9,7.2,8.9,9.9c-3.5-2-7.6-3.9-12.2-5.3c-10.7-3.2-20.9-2.6-25.4-2.1c-0.9,0.1-1.3,1.3-0.6,1.9
	C383.8,267.1,389.9,271.7,397.9,275z"/>
<polygon fill="#24D595" points="481.9,218.2 475.5,208.2 482.3,212.3 477.8,199.8 486.5,210.9 487.6,202.6 491.7,212.9 495.4,207.2 
	495.5,217 500.3,211.4 497.9,218.2 "/>
<polygon fill="#23BC98" points="261.4,184.5 265.4,179.7 260.9,181.7 260.1,170.5 257.7,183.3 253.7,176.1 253.6,186.4 "/>
<polygon fill="#21AA9A" points="243.2,91.4 247.2,86.5 240.7,88.5 241.9,77.4 236.5,89.1 235.5,82.9 232.4,89.2 "/>
<polygon fill="#21AA9A" points="163.6,97.3 159.6,92.4 164.1,94.4 164.9,83.3 167.3,96 171.3,88.8 171.3,99.1 "/>
<circle fill="#FF6252" cx="335.5" cy="113.5" r="73"/>
<path fill="#FFFFFF" d="M306.1,85.5v55.9c0,2.7,2.2,4.9,4.9,4.9h28v-32.9L363.4,89c3.1-3.1,0.9-8.3-3.5-8.3h-49
	C308.2,80.6,306.1,82.8,306.1,85.5z"/>
<path fill="#DBE1E0" d="M338.9,113.5l24.5,24.5c3.1,3.1,0.9,8.3-3.5,8.3h-42.1c-4.4,0-6.5-5.3-3.5-8.3L338.9,113.5z"/>
</svg>
