<?xml version="1.0" encoding="UTF-8" standalone="no"?>
<svg width="146px" height="146px" viewBox="0 0 146 146" version="1.1" xmlns="http://www.w3.org/2000/svg" xmlns:xlink="http://www.w3.org/1999/xlink" xmlns:sketch="http://www.bohemiancoding.com/sketch/ns">
    <!-- Generator: Sketch 3.5.2 (25235) - http://www.bohemiancoding.com/sketch -->
    <title>avatar=teacher-9</title>
    <desc>Created with Sketch.</desc>
    <defs>
        <circle id="path-1" cx="73" cy="73" r="72.7"></circle>
    </defs>
    <g id="Page-1" stroke="none" stroke-width="1" fill="none" fill-rule="evenodd" sketch:type="MSPage">
        <g id="Female-Teachers" sketch:type="MSArtboardGroup" transform="translate(-271.000000, -296.000000)">
            <g id="avatar=teacher-9" sketch:type="MSLayerGroup" transform="translate(271.000000, 296.000000)">
                <mask id="mask-2" sketch:name="Mask" fill="white">
                    <use xlink:href="#path-1"></use>
                </mask>
                <use id="Mask" fill="#91EBE1" sketch:type="MSShapeGroup" xlink:href="#path-1"></use>
                <g id="Group" mask="url(#mask-2)">
                    <g transform="translate(26.000000, 27.000000)">
                        <path d="M42.3,78.2 C42.3,78.2 33.6,79.4 30.3,80.5 C27,81.6 35.3,89.8 35.3,89.8 L64.1,85.8 L63.9,80.5 C64,80.6 52.3,77.9 42.3,78.2 L42.3,78.2 Z" id="Shape" fill="#014A60" sketch:type="MSShapeGroup"></path>
                        <g id="Group" stroke-width="1" fill="none" sketch:type="MSLayerGroup">
                            <path d="M42.5,72.8 C47.8,72.4 47.8,72.4 51.4,72.8 L50,73.5 L47,73.5 L43.7,73.4 L42.5,72.8 L42.5,72.8 Z" id="Shape" fill="#939393" sketch:type="MSShapeGroup"></path>
                            <g transform="translate(0.000000, 62.000000)" id="Shape" fill="#ECC8C2" sketch:type="MSShapeGroup">
                                <path d="M51.4,14 L50.4,3.4 C50.2,1.6 48.8,0.3 47,0.3 C45.2,0.3 43.8,1.6 43.6,3.4 L42.6,14 C42.4,16.5 40.5,18.5 38,18.9 C26.3,20.6 19.6,24.7 19.6,24.7 L47,47 L74.4,24.7 C74.4,24.7 67.7,20.6 56,18.9 C53.5,18.5 51.6,16.5 51.4,14"></path>
                                <path d="M22.8,42.8 C20.1,66.9 8.7,83.3 8.7,83.3 C13.4,94.7 10.3,126.6 10.3,126.6 L6.8,126.9 L0.5,82.8 L10.2,40.4 C16.2,27.1 19.7,23.7 27,26.4 C37.7,30.3 22.8,42.8 22.8,42.8"></path>
                                <path d="M71.2,42.8 C73.9,66.9 85.3,83.3 85.3,83.3 C80.6,94.7 83.7,126.6 83.7,126.6 L87.2,126.9 L93.5,82.8 L83.8,40.4 C77.8,27.1 75.4,23.7 68.1,26.4 C57.4,30.3 71.2,42.8 71.2,42.8"></path>
                            </g>
                            <g transform="translate(14.000000, 0.000000)" id="Shape" sketch:type="MSShapeGroup">
                                <path d="M22.6,21.2 C22.6,21.2 19.7,28.1 26.4,32.5 C26.4,32.5 24.3,25.8 25.1,23.7 C25.1,23.7 33.9,39.1 53.7,34.1 L48.7,32.8 C48.7,32.8 55,33.6 56.4,32.8 C56.4,32.8 57.2,46.6 51.2,57 C51.2,57 65.8,58.3 65.8,36.4 C65.8,14.5 51,0.3 43.9,1.6 C43.9,1.6 39.5,1.5 36.4,3.8 C36.4,3.8 35.2,2.5 37.8,0.2 C37.8,0.2 34.3,-0.1 33.3,2.3 C33.3,2.3 31.3,0.6 29.3,0.8 C29.3,0.8 31.5,2.2 30.7,3.9 C30.7,3.9 28.9,1.5 23.9,1.5 C18.9,1.5 7,4.6 1.4,29.8 C-4.2,55 13.1,58.8 15.8,57.1 C15.8,57.1 8.7,48.1 10.2,31 C10.1,31 15.7,23.9 22.6,21.2 L22.6,21.2 Z" fill="#FDF3C0"></path>
                                <path d="M7.9,43 C7.9,38.7 8.7,34.6 10.1,31 C10.1,31 14.2,24.1 22.6,21.2 C22.6,21.2 19.4,28.1 26.4,32.5 C26.4,32.5 24.4,26.1 25.1,23.7 C25.1,23.7 33.6,39.1 53.7,34.1 C53.7,34.1 50.8,34.1 48.7,32.8 C48.7,32.8 55,33.7 56.6,32.7 C57.6,35.9 58.2,39.3 58.2,42.9 C58.2,62.9 42,69.4 33.1,69.4 C24.1,69.5 7.9,63.1 7.9,43" fill="#ECC8C2"></path>
                                <path d="M35.1,39.8 L38,50.9 L32.2,50.9 L35.1,39.8 Z" fill="#F39FAF"></path>
                            </g>
                            <path d="M83.5,97.6 C77.4,81.1 60.5,81.1 55.7,80 C50.9,78.9 51.4,72.9 51.4,72.9 C48.8,73 47,72.9 47,72.9 C47,72.9 45.2,73 42.6,72.9 C42.6,72.9 43.1,78.9 38.3,80 C36.7,80.4 33.8,80.6 30.4,81.4 C23.5,82.9 14.6,86.6 10.5,97.6 C4.4,114.1 4.6,119 4.6,119 L47,119 L89.4,119 C89.4,119 89.6,114.1 83.5,97.6 L83.5,97.6 Z" id="Shape" fill="#FCFCFC" sketch:type="MSShapeGroup"></path>
                            <path d="M40.5,124.4 C40.5,124.4 41.8,98.8 30.3,80.6 C30.3,80.6 17.5,82.1 11.8,93.7 C6,105.3 3.9,119.1 3.9,119.1 L40.5,124.4 L40.5,124.4 Z" id="Shape" fill="#005779" sketch:type="MSShapeGroup"></path>
                            <path d="M53.8,124.4 C53.8,124.4 52.5,98.8 64,80.6 C64,80.6 64.5,80.7 65.2,80.8 C68.5,81.5 77.8,84.3 82.5,93.7 C88.3,105.3 90.4,119.1 90.4,119.1 L53.8,124.4 L53.8,124.4 Z" id="Shape" fill="#005779" sketch:type="MSShapeGroup"></path>
                        </g>
                    </g>
                </g>
            </g>
        </g>
    </g>
</svg>