<?xml version="1.0" encoding="UTF-8" standalone="no"?>
<svg width="148px" height="148px" viewBox="0 0 148 148" version="1.1" xmlns="http://www.w3.org/2000/svg" xmlns:xlink="http://www.w3.org/1999/xlink" xmlns:sketch="http://www.bohemiancoding.com/sketch/ns">
    <!-- Generator: Sketch 3.5.2 (25235) - http://www.bohemiancoding.com/sketch -->
    <title>avatar=teacher-4</title>
    <desc>Created with Sketch.</desc>
    <defs>
        <circle id="path-1" cx="73.9" cy="74.2" r="73.3"></circle>
    </defs>
    <g id="Page-1" stroke="none" stroke-width="1" fill="none" fill-rule="evenodd" sketch:type="MSPage">
        <g id="Female-Teachers" sketch:type="MSArtboardGroup" transform="translate(-67.000000, -500.000000)">
            <g id="avatar=teacher-4" sketch:type="MSLayerGroup" transform="translate(67.000000, 500.000000)">
                <mask id="mask-2" sketch:name="Mask" fill="white">
                    <use xlink:href="#path-1"></use>
                </mask>
                <use id="Mask" fill="#8EDA6D" sketch:type="MSShapeGroup" xlink:href="#path-1"></use>
                <g id="Group" mask="url(#mask-2)">
                    <g transform="translate(30.000000, 24.000000)">
                        <path d="M48.1,69.1 L47.2,59.1 C47,57.5 45.7,56.2 44,56.2 C42.4,56.2 41,57.5 40.8,59.1 L39.9,69.1 C39.7,71.4 37.9,73.3 35.6,73.7 C24.6,75.3 18.3,79.1 18.3,79.1 L44,100 L69.7,79.1 C69.7,79.1 63.4,75.3 52.4,73.7 C50.1,73.3 48.3,71.5 48.1,69.1" id="Shape" fill="#A97C50" sketch:type="MSShapeGroup"></path>
                        <path d="M21.3,94.3 C18.8,116.9 8.1,132.3 8.1,132.3 C12.5,143 9.6,172.8 9.6,172.8 L6.3,173.1 L0.4,131.7 L9.5,91.9 C15.1,79.4 18.4,76.3 25.2,78.8 C35.3,82.6 21.3,94.3 21.3,94.3" id="Shape" fill="#A97C50" sketch:type="MSShapeGroup"></path>
                        <path d="M66.7,94.9 C69.2,117.5 79.9,132.9 79.9,132.9 C75.5,143.6 78.4,173.4 78.4,173.4 L81.7,173.7 L87.6,132.3 L78.5,92.5 C72.9,80 70.6,76.9 63.8,79.4 C53.8,83.2 66.7,94.9 66.7,94.9" id="Shape" fill="#A97C50" sketch:type="MSShapeGroup"></path>
                        <g id="Group" stroke-width="1" fill="none" sketch:type="MSLayerGroup" transform="translate(12.000000, 0.000000)">
                            <g id="Oval" sketch:type="MSShapeGroup">
                                <ellipse fill="#331416" cx="24.2" cy="8.6" rx="7.8" ry="7.9"></ellipse>
                                <ellipse fill="#331416" cx="39.4" cy="8.6" rx="7.8" ry="7.9"></ellipse>
                                <ellipse fill="#331416" cx="49.4" cy="15.7" rx="7.8" ry="7.9"></ellipse>
                                <ellipse fill="#331416" cx="56.5" cy="24" rx="6.2" ry="6.4"></ellipse>
                                <ellipse fill="#331416" cx="58.7" cy="33.7" rx="5.1" ry="5.2"></ellipse>
                                <ellipse fill="#331416" cx="57.2" cy="43.3" rx="5.5" ry="5.7"></ellipse>
                                <ellipse fill="#331416" cx="53.7" cy="54.1" rx="6" ry="6.2"></ellipse>
                                <ellipse fill="#331416" cx="44.3" cy="59.2" rx="6" ry="6.2"></ellipse>
                                <ellipse fill="#331416" cx="14.6" cy="15.7" rx="7.8" ry="7.9"></ellipse>
                                <ellipse fill="#331416" cx="7.5" cy="24" rx="6.2" ry="6.4"></ellipse>
                                <ellipse fill="#331416" cx="5.3" cy="33.7" rx="5.1" ry="5.2"></ellipse>
                                <ellipse fill="#331416" cx="6.3" cy="42.3" rx="5.5" ry="5.7"></ellipse>
                                <ellipse fill="#331416" cx="9.9" cy="53.1" rx="6" ry="6.2"></ellipse>
                                <ellipse fill="#0F0A0B" cx="19.8" cy="59.2" rx="6" ry="6.2"></ellipse>
                                <ellipse fill="#331416" cx="32" cy="36" rx="26.7" ry="28.1"></ellipse>
                            </g>
                            <circle id="Oval" fill="#FFFFFF" sketch:type="MSShapeGroup" cx="9.6" cy="39.9" r="1.6"></circle>
                            <circle id="Oval" fill="#FFFFFF" sketch:type="MSShapeGroup" cx="54.4" cy="39.9" r="1.6"></circle>
                            <path d="M53.8,37.4 C54.1,38.9 54.4,40.5 54.4,42.1 C54.4,53.7 44.5,67.3 32.4,67.3 C20.2,67.3 10.4,53.6 10.4,42.1 C10.4,40.3 10.6,38.5 11.1,36.8 C11.1,36.8 12.3,35.2 15.8,35.8 C19.2,36.4 31.5,35 36,23.2 C36,23.2 36.5,26 38.8,28.3 C38.8,28.3 37.7,26.6 37.8,24 C37.8,24 41.8,30.8 50.1,34.6 C50,34.6 53.5,35.6 53.8,37.4 L53.8,37.4 Z" id="Shape" fill="#A97C50" sketch:type="MSShapeGroup"></path>
                            <path d="M32.4,43 L35.1,52.8 L29.6,52.8 L32.4,43 Z" id="Shape" fill="#F1ECED" sketch:type="MSShapeGroup"></path>
                        </g>
                        <rect id="Rectangle-path" fill="#A97C50" sketch:type="MSShapeGroup" x="17.3" y="84" width="52.4" height="33.9"></rect>
                        <path d="M67.9,88.6 L70.7,79.2 L66.2,76.7 L62.7,88.9 L45.2,88.9 L42.4,88.9 L24.9,88.9 L21.4,76.7 L17,79.2 L19.7,88.6 L16.6,118.9 L42.4,118.9 L45.2,118.9 L71,118.9 L67.9,88.6 Z" id="Shape" fill="#FFD31C" sketch:type="MSShapeGroup"></path>
                        <path d="M18.6,99.2 L16.6,124.8 L42.4,124.8 L45.2,124.8 L71,124.8 L68.9,98.4" id="Shape" fill="#8DD0EB" sketch:type="MSShapeGroup"></path>
                        <g id="Group" stroke-width="1" fill="none" sketch:type="MSLayerGroup" transform="translate(31.000000, 73.000000)">
                            <g transform="translate(14.000000, 0.000000)" id="Oval" fill="#FFFFFF" sketch:type="MSShapeGroup">
                                <circle cx="7.5" cy="3.1" r="1.4"></circle>
                                <circle cx="8.9" cy="1.4" r="0.8"></circle>
                                <circle cx="5" cy="4.6" r="1.5"></circle>
                                <circle cx="2" cy="6.1" r="1.9"></circle>
                            </g>
                            <g id="Oval" fill="#FFFFFF" sketch:type="MSShapeGroup">
                                <circle cx="3" cy="3.1" r="1.4"></circle>
                                <circle cx="1.6" cy="1.4" r="0.8"></circle>
                                <circle cx="5.5" cy="4.6" r="1.5"></circle>
                                <circle cx="8.4" cy="6.1" r="1.9"></circle>
                            </g>
                            <circle id="Oval" fill="#FFFFFF" sketch:type="MSShapeGroup" cx="12.2" cy="6.5" r="1.9"></circle>
                        </g>
                    </g>
                </g>
            </g>
        </g>
    </g>
</svg>