<?xml version="1.0" encoding="UTF-8" standalone="no"?>
<svg width="148px" height="148px" viewBox="0 0 148 148" version="1.1" xmlns="http://www.w3.org/2000/svg" xmlns:xlink="http://www.w3.org/1999/xlink" xmlns:sketch="http://www.bohemiancoding.com/sketch/ns">
    <!-- Generator: Sketch 3.5.2 (25235) - http://www.bohemiancoding.com/sketch -->
    <title>avatar=teacher-6</title>
    <desc>Created with Sketch.</desc>
    <defs>
        <circle id="path-1" cx="74.1" cy="74" r="73.3"></circle>
    </defs>
    <g id="Page-1" stroke="none" stroke-width="1" fill="none" fill-rule="evenodd" sketch:type="MSPage">
        <g id="Female-Teachers" sketch:type="MSArtboardGroup" transform="translate(-473.000000, -294.000000)">
            <g id="avatar=teacher-6" sketch:type="MSLayerGroup" transform="translate(473.000000, 294.000000)">
                <mask id="mask-2" sketch:name="Mask" fill="white">
                    <use xlink:href="#path-1"></use>
                </mask>
                <use id="Mask" fill="#EEF8A6" sketch:type="MSShapeGroup" xlink:href="#path-1"></use>
                <g id="Group" mask="url(#mask-2)" sketch:type="MSShapeGroup">
                    <g transform="translate(25.000000, 28.000000)" id="Shape">
                        <path d="M83.7,78.5 C79.7,70.1 77.2,34.6 76.9,29.1 C76.2,13.1 64,0.3 49.1,0.3 C34.2,0.3 22,13.1 21.3,29.1 C20.9,34.5 18.4,70.1 14.5,78.5 C14.5,78.5 0.3,83.6 0.3,98.6 L0.3,119.3 L49.1,119.3 L97.9,119.3 L97.9,98.6 C97.9,83.6 83.7,78.5 83.7,78.5 L83.7,78.5 Z" fill="#2A11A8"></path>
                        <path d="M49.1,33.5 C49.1,33.5 36.2,32.4 26,38.3 L26,45.5 C26,45.5 36.6,51.4 49.1,51.4 C61.6,51.4 72.2,45.5 72.2,45.5 L72.2,38.3 C62,32.5 49.1,33.5 49.1,33.5 L49.1,33.5 Z" fill="#A8999A"></path>
                        <path d="M49.8,46.9 L52.6,51.5 L46.9,51.5 L49.8,46.9 Z" fill="#FFD31C"></path>
                    </g>
                </g>
            </g>
        </g>
    </g>
</svg>