<?xml version="1.0" encoding="UTF-8" standalone="no"?>
<svg width="148px" height="148px" viewBox="0 0 148 148" version="1.1" xmlns="http://www.w3.org/2000/svg" xmlns:xlink="http://www.w3.org/1999/xlink" xmlns:sketch="http://www.bohemiancoding.com/sketch/ns">
    <!-- Generator: Sketch 3.5.2 (25235) - http://www.bohemiancoding.com/sketch -->
    <title>avatar=teacher-1</title>
    <desc>Created with Sketch.</desc>
    <defs>
        <circle id="path-1" cx="73.9" cy="74.2" r="73.3"></circle>
    </defs>
    <g id="Page-1" stroke="none" stroke-width="1" fill="none" fill-rule="evenodd" sketch:type="MSPage">
        <g id="Female-Teachers" sketch:type="MSArtboardGroup" transform="translate(-67.000000, -91.000000)">
            <g id="avatar=teacher-1" sketch:type="MSLayerGroup" transform="translate(67.000000, 91.000000)">
                <mask id="mask-2" sketch:name="Mask" fill="white">
                    <use xlink:href="#path-1"></use>
                </mask>
                <use id="Mask" fill="#664D4E" sketch:type="MSShapeGroup" xlink:href="#path-1"></use>
                <g id="Group" mask="url(#mask-2)">
                    <g transform="translate(27.000000, 29.000000)">
                        <path d="M51.3,63.1 L50.3,52.4 C50.1,50.6 48.7,49.3 46.9,49.3 C45.1,49.3 43.6,50.7 43.5,52.4 L42.5,63.1 C42.3,65.6 40.3,67.6 37.8,68 C26,69.7 19.2,73.8 19.2,73.8 L46.8,96.3 L74.4,73.8 C74.4,73.8 67.7,69.7 55.8,68 C53.4,67.7 51.5,65.6 51.3,63.1" id="Shape" fill="#FDD6AB" sketch:type="MSShapeGroup"></path>
                        <path d="M-7.10542736e-15,132.4 L9.8,89.6 C15.8,76.2 19.4,72.8 26.7,75.5 C37.4,79.4 22.4,92 22.4,92" id="Shape" fill="#FDD6AB" sketch:type="MSShapeGroup"></path>
                        <path d="M22.5,92.1 C19.8,116.4 8.3,133 8.3,133" id="Shape" fill="#FDD6AB" sketch:type="MSShapeGroup"></path>
                        <path d="M93.7,132.4 L83.9,89.6 C77.9,76.2 75.4,72.8 68.1,75.5 C57.4,79.4 71.3,92 71.3,92" id="Shape" fill="#FDD6AB" sketch:type="MSShapeGroup"></path>
                        <path d="M71.3,92.1 C74,116.4 85.5,133 85.5,133" id="Shape" fill="#FDD6AB" sketch:type="MSShapeGroup"></path>
                        <g id="Group" stroke-width="1" fill="none" sketch:type="MSLayerGroup" transform="translate(12.000000, 0.000000)">
                            <path d="M64.2,49.5 C60.3,49.5 59.5,39 59.5,39 C59.5,39 62.5,0.7 43.5,0.7 C43.5,0.7 37.4,0.1 34.7,3.2 C31.9,0.2 25.9,0.7 25.9,0.7 C6.9,0.7 9.9,39 9.9,39 C9.9,39 9.1,49.5 5.2,49.5 C1.3,49.5 0.5,47.8 0.5,47.8 C0.5,47.8 1.1,63.8 13.5,63.8 C25.9,63.8 34.7,50 34.7,50 C34.7,50 43.5,63.8 55.9,63.8 C68.3,63.8 68.9,47.8 68.9,47.8 C68.9,47.8 68.1,49.5 64.2,49.5 L64.2,49.5 Z" id="Shape" fill="#FF675F" sketch:type="MSShapeGroup"></path>
                            <path d="M34.7,14 L17.9,14 L17.9,22.8 L17.9,45 C17.9,45 19.7,51.7 24.2,54.9 C28.7,58 30,59.7 34.7,59.9 C39.4,59.7 40.8,58 45.2,54.9 C49.7,51.8 51.5,45 51.5,45 L51.5,22.8 L51.5,14 L34.7,14 L34.7,14 Z" id="Shape" fill="#FDD6AB" sketch:type="MSShapeGroup"></path>
                            <path d="M34.7,11.4 L16.7,11.4 L17.9,17.2 C17.9,17.2 19.6,13.8 25.4,14.9 C31.2,15.9 29.5,17.2 34.7,17.2 C39.9,17.2 38.2,15.9 44,14.9 C49.8,13.9 51.5,17.2 51.5,17.2 L52.7,11.4 L34.7,11.4 L34.7,11.4 Z" id="Shape" fill="#FF675F" sketch:type="MSShapeGroup"></path>
                        </g>
                        <g id="Group" stroke-width="1" fill="none" sketch:type="MSLayerGroup" transform="translate(28.000000, 21.000000)">
                            <path d="M9.8,14.3 C9,14.3 8.1,14.2 7.3,14 C2.7,12.9 -0.3,9.1 0.5,5.5 C1.2,2.6 4.2,0.6 7.9,0.6 C8.7,0.6 9.6,0.7 10.4,0.9 C15,2 18,5.8 17.2,9.4 C16.6,12.3 13.6,14.3 9.8,14.3 L9.8,14.3 Z M8,1.4 C4.7,1.4 2,3.1 1.4,5.6 C0.7,8.7 3.4,12.1 7.5,13.1 C8.3,13.3 9,13.4 9.8,13.4 C13.1,13.4 15.8,11.7 16.3,9.2 C17,6.1 14.3,2.7 10.2,1.7 C9.5,1.5 8.7,1.4 8,1.4 L8,1.4 Z" id="Shape" fill="#000000" sketch:type="MSShapeGroup"></path>
                            <path d="M27.6,14.3 L27.6,14.3 C23.9,14.3 20.9,12.3 20.2,9.4 C19.3,5.8 22.4,2 27,0.9 C27.8,0.7 28.7,0.6 29.5,0.6 C33.2,0.6 36.2,2.6 36.9,5.5 C37.8,9.1 34.7,12.9 30.1,14 C29.3,14.2 28.4,14.3 27.6,14.3 L27.6,14.3 Z M29.5,1.4 C28.7,1.4 28,1.5 27.2,1.7 C23.1,2.7 20.3,6 21.1,9.2 C21.7,11.7 24.3,13.4 27.6,13.4 L27.6,13.4 C28.4,13.4 29.1,13.3 29.9,13.1 C34,12.1 36.8,8.8 36,5.6 C35.4,3.1 32.8,1.4 29.5,1.4 L29.5,1.4 Z" id="Shape" fill="#000000" sketch:type="MSShapeGroup"></path>
                            <path d="M16.3,5.6 C16.3,5.6 17.8,6.3 21.1,5.6 L20.4,7.6 L16.8,7.6 L16.3,5.6 L16.3,5.6 Z" id="Shape" fill="#000000" sketch:type="MSShapeGroup"></path>
                        </g>
                        <path d="M46.9,31.6 L49.8,42.8 L44,42.8 L46.9,31.6 Z" id="Shape" fill="#F39FAF" sketch:type="MSShapeGroup"></path>
                        <rect id="Rectangle-path" fill="#FDD6AB" sketch:type="MSShapeGroup" x="19.2" y="78.3" width="56.9" height="43"></rect>
                        <path d="M30.6,69.5 C30.6,69.5 34.1,78.3 45.4,78.3 C56.7,78.3 61.4,69.1 61.4,69.1 C61.4,69.1 77.4,69.9 83.9,89.7 C90.4,109.4 92.3,126.5 92.3,126.5 L1.6,126.5 C1.6,126.5 5.2,105 9.9,89.7 C14.5,74.3 25.3,68.9 30.6,69.5 L30.6,69.5 Z" id="Shape" fill="#F9F9F9" sketch:type="MSShapeGroup"></path>
                        <path d="M72.8,84.1 L75.8,74 L71,71.3 L67.2,84.4 L48.4,94 L45.4,94 L26.6,84.4 L22.8,71.3 L18,74 L20.9,84.1 L17.6,116.7 L45.4,116.7 L48.4,116.7 L76.1,116.7 L72.8,84.1 Z" id="Shape" fill="#0F0A0B" sketch:type="MSShapeGroup"></path>
                    </g>
                </g>
            </g>
        </g>
    </g>
</svg>