<?xml version="1.0" encoding="UTF-8" standalone="no"?>
<svg width="148px" height="148px" viewBox="0 0 148 148" version="1.1" xmlns="http://www.w3.org/2000/svg" xmlns:xlink="http://www.w3.org/1999/xlink" xmlns:sketch="http://www.bohemiancoding.com/sketch/ns">
    <!-- Generator: Sketch 3.5.2 (25235) - http://www.bohemiancoding.com/sketch -->
    <title>avatar=teacher-7</title>
    <desc>Created with Sketch.</desc>
    <defs>
        <circle id="path-1" cx="74.1" cy="73.8" r="73.3"></circle>
    </defs>
    <g id="Page-1" stroke="none" stroke-width="1" fill="none" fill-rule="evenodd" sketch:type="MSPage">
        <g id="Female-Teachers" sketch:type="MSArtboardGroup" transform="translate(-473.000000, -90.000000)">
            <g id="avatar=teacher-7" sketch:type="MSLayerGroup" transform="translate(473.000000, 90.000000)">
                <mask id="mask-2" sketch:name="Mask" fill="white">
                    <use xlink:href="#path-1"></use>
                </mask>
                <use id="Mask" fill="#1FAA99" sketch:type="MSShapeGroup" xlink:href="#path-1"></use>
                <g id="Group" mask="url(#mask-2)" sketch:type="MSShapeGroup">
                    <g transform="translate(28.000000, 31.000000)">
                        <path d="M75.3,74.5 C71.4,66.3 75.4,33.6 75,28.3 C74.3,12.7 62.4,0.2 47.9,0.2 C33.4,0.2 21.5,12.6 20.8,28.3 C20.4,33.6 24.7,66.3 20.9,74.5 C20.9,74.5 0.3,77.4 0.3,96 L0.3,119 L47.9,119 L95.5,119 L95.5,96 C95.5,77.7 75.3,74.5 75.3,74.5 L75.3,74.5 Z" id="Shape" fill="#0F0A0B"></path>
                        <ellipse id="Oval" fill="#FFFFFF" cx="47.9" cy="38.4" rx="23.7" ry="26.7"></ellipse>
                        <ellipse id="Oval" fill="#F5CBBD" cx="47.9" cy="40.5" rx="23.7" ry="24.6"></ellipse>
                        <path d="M47.9,39.5 L50.7,49.3 L45.2,49.3 L47.9,39.5 Z" id="Shape" fill="#664D4E"></path>
                        <path d="M52.1,72.2 L51.1,62 C50.9,60.3 49.5,59 47.8,59 C46.1,59 44.7,60.3 44.5,62 L43.5,72.2 C43.3,74.6 41.4,76.5 39.1,76.9 C27.8,78.6 21.4,82.5 21.4,82.5 L47.8,102.2 L74.2,82.5 C74.2,82.5 67.8,78.6 56.5,76.9 C54.2,76.6 52.4,74.6 52.1,72.2" id="Shape" fill="#F5CBBD"></path>
                        <path d="M43.7,66.5 L43.1,70.8 C43.1,70.8 37.1,73.5 20.9,74.5 C20.9,74.5 15.4,75.5 10.4,78.4 C10.4,78.4 17.1,102.1 48,102.1 L48,66.4 L43.7,66.4 L43.7,66.5 Z" id="Shape" fill="#FFFFFF"></path>
                        <path d="M52.1,66.5 L52.7,70.8 C52.7,70.8 58.7,73.5 74.9,74.5 C74.9,74.5 80.4,75.5 85.4,78.4 C85.4,78.4 78.7,102.1 47.8,102.1 L47.8,66.4 L52.1,66.4 L52.1,66.5 Z" id="Shape" fill="#FFFFFF"></path>
                    </g>
                </g>
            </g>
        </g>
    </g>
</svg>