<?xml version="1.0" encoding="UTF-8" standalone="no"?>
<svg width="147px" height="148px" viewBox="0 0 147 148" version="1.1" xmlns="http://www.w3.org/2000/svg" xmlns:xlink="http://www.w3.org/1999/xlink" xmlns:sketch="http://www.bohemiancoding.com/sketch/ns">
    <!-- Generator: Sketch 3.5.2 (25235) - http://www.bohemiancoding.com/sketch -->
    <title>avatar=teacher-3</title>
    <desc>Created with Sketch.</desc>
    <defs>
        <circle id="path-1" cx="73.6" cy="74.2" r="73.3"></circle>
    </defs>
    <g id="Page-1" stroke="none" stroke-width="1" fill="none" fill-rule="evenodd" sketch:type="MSPage">
        <g id="Female-Teachers" sketch:type="MSArtboardGroup" transform="translate(-270.000000, -500.000000)">
            <g id="avatar=teacher-3" sketch:type="MSLayerGroup" transform="translate(270.000000, 500.000000)">
                <mask id="mask-2" sketch:name="Mask" fill="white">
                    <use xlink:href="#path-1"></use>
                </mask>
                <use id="Mask" fill="#91EBE1" sketch:type="MSShapeGroup" xlink:href="#path-1"></use>
                <g id="Group" mask="url(#mask-2)">
                    <g transform="translate(23.000000, 22.000000)">
                        <circle id="Oval" fill="#FF675F" sketch:type="MSShapeGroup" cx="30.2" cy="50.7" r="1.4"></circle>
                        <circle id="Oval" fill="#FF675F" sketch:type="MSShapeGroup" cx="71.2" cy="50.7" r="1.4"></circle>
                        <path d="M36.8,85.5 C36.8,85.5 52.3,92 66.4,85.5 L65.8,94.7 L65.2,103.1 L64.2,102.1 L47.5,105.3 L40.7,103.9 L34.5,98.1 L36.7,85.8" id="Shape" fill="#C2CC3E" sketch:type="MSShapeGroup"></path>
                        <path d="M55.4,84.4 L54.3,72.9 C54.1,71 52.5,69.5 50.6,69.5 C48.7,69.5 47.1,71 46.9,72.9 L45.8,84.4 C45.5,87.1 43.5,89.3 40.8,89.7 C28.1,91.6 20.8,96 20.8,96 L50.6,120.2 L80.3,96 C80.3,96 73,91.6 60.3,89.7 C57.7,89.3 55.6,87.1 55.4,84.4" id="Shape" fill="#ECC8C2" sketch:type="MSShapeGroup"></path>
                        <path d="M24.4,115.6 C21.5,141.8 9.1,159.6 9.1,159.6 C14.2,172 10.8,206.5 10.8,206.5 L7,206.9 L0.2,159 L10.8,113 C17.3,98.6 21.1,94.9 29,97.8 C40.5,102.1 24.4,115.6 24.4,115.6" id="Shape" fill="#ECC8C2" sketch:type="MSShapeGroup"></path>
                        <path d="M76.9,115.6 C79.8,141.8 92.2,159.6 92.2,159.6 C87.1,172 90.5,206.5 90.5,206.5 L94.3,206.9 L101,159 L90.4,113 C83.9,98.6 81.3,94.9 73.4,97.8 C61.9,102.1 76.9,115.6 76.9,115.6" id="Shape" fill="#ECC8C2" sketch:type="MSShapeGroup"></path>
                        <path d="M42.3,30.3 L50.9,37.4 L59.5,30.3 L71.2,35.9 L71.2,47 C71.2,47 70.4,77.3 50.9,80.1 C31.4,77.3 30.6,47 30.6,47 L30.6,36 L42.3,30.3 L42.3,30.3 Z" id="Shape" fill="#ECC8C2" sketch:type="MSShapeGroup"></path>
                        <path d="M30.8,49.7 C26.2,45.6 23.4,40 23.4,34 C23.4,21.3 35.6,11 50.6,11 C65.6,11 77.8,21.3 77.8,34 C77.8,39.8 75.2,45.1 71,49.2 C71,49.2 72.3,41.8 64.5,35.5 C56.7,29.2 53.9,35.8 53.9,35.8 C53.9,35.8 53,39.4 48.5,40 C44.3,40.6 44.3,40.4 40.9,41.8 C40.9,41.8 41.5,40.4 44,39.2 C46.5,38 32.1,41.1 31.2,46.5 C31.2,46.3 30.9,47.9 30.8,49.7 L30.8,49.7 Z" id="Shape" fill="#005779" sketch:type="MSShapeGroup"></path>
                        <ellipse id="Oval" fill="#005779" sketch:type="MSShapeGroup" cx="60.3" cy="11" rx="9.7" ry="9.5"></ellipse>
                        <ellipse id="Oval" fill="#005779" sketch:type="MSShapeGroup" cx="41.2" cy="11" rx="9.7" ry="9.5"></ellipse>
                        <ellipse id="Oval" fill="#005779" sketch:type="MSShapeGroup" cx="50.6" cy="10" rx="9.7" ry="9.5"></ellipse>
                        <path d="M50.6,55.3 L53.8,61.5 L47.5,61.5 L50.6,55.3 Z" id="Shape" fill="#F39FAF" sketch:type="MSShapeGroup"></path>
                        <path d="M84.7,95.5 C80.3,92.6 71,90.9 71,90.9 L68.8,90.2 L56.9,97.7 L54.2,96.2 L51.7,101.4 L49.2,96.2 L46.5,97.7 L34.6,90.2 L32.4,90.9 C32.4,90.9 23.1,92.6 18.7,95.5 C14.3,98.4 4.1,113.1 5.8,129.1 L51.4,129.1 L51.9,129.1 L97.6,129.1 C99.3,113 89.1,98.4 84.7,95.5 L84.7,95.5 Z" id="Shape" fill="#D0E244" sketch:type="MSShapeGroup"></path>
                        <path d="M49.2,96.1 C49.2,96.1 39.6,95.8 36.9,85.5 L32.4,90.8 C32.4,90.8 31.4,99.3 42.2,103.9 L49.2,96.1 L49.2,96.1 Z" id="Shape" fill="#E0EF73" sketch:type="MSShapeGroup"></path>
                        <path d="M54.1,96.1 C54.1,96.1 63.7,95.8 66.4,85.5 L70.9,90.8 C70.9,90.8 71.9,99.3 61.1,103.9 L54.1,96.1 L54.1,96.1 Z" id="Shape" fill="#E0EF73" sketch:type="MSShapeGroup"></path>
                        <g id="Group" stroke-width="1" fill="none" sketch:type="MSLayerGroup" transform="translate(41.000000, 88.000000)">
                            <g transform="translate(11.000000, 0.000000)" id="Oval" fill="#FF675F" sketch:type="MSShapeGroup">
                                <circle cx="5.6" cy="2.6" r="1.1"></circle>
                                <circle cx="6.6" cy="1.4" r="0.6"></circle>
                                <circle cx="3.7" cy="3.8" r="1.1"></circle>
                                <circle cx="1.4" cy="4.9" r="1.4"></circle>
                            </g>
                            <g id="Oval" fill="#FF675F" sketch:type="MSShapeGroup">
                                <circle cx="2.5" cy="2.6" r="1.1"></circle>
                                <circle cx="1.4" cy="1.4" r="0.6"></circle>
                                <circle cx="4.4" cy="3.8" r="1.1"></circle>
                                <circle cx="6.6" cy="4.9" r="1.4"></circle>
                            </g>
                            <circle id="Oval" fill="#FF675F" sketch:type="MSShapeGroup" cx="9.5" cy="5.2" r="1.4"></circle>
                        </g>
                    </g>
                </g>
            </g>
        </g>
    </g>
</svg>