<?xml version="1.0" encoding="UTF-8" standalone="no"?>
<svg width="148px" height="147px" viewBox="0 0 148 147" version="1.1" xmlns="http://www.w3.org/2000/svg" xmlns:xlink="http://www.w3.org/1999/xlink" xmlns:sketch="http://www.bohemiancoding.com/sketch/ns">
    <!-- Generator: Sketch 3.5.2 (25235) - http://www.bohemiancoding.com/sketch -->
    <title>avatar=teacher-5</title>
    <desc>Created with Sketch.</desc>
    <defs>
        <circle id="path-1" cx="73.9" cy="73.7" r="73.3"></circle>
    </defs>
    <g id="Page-1" stroke="none" stroke-width="1" fill="none" fill-rule="evenodd" sketch:type="MSPage">
        <g id="Female-Teachers" sketch:type="MSArtboardGroup" transform="translate(-67.000000, -296.000000)">
            <g id="avatar=teacher-5" sketch:type="MSLayerGroup" transform="translate(67.000000, 296.000000)">
                <mask id="mask-2" sketch:name="Mask" fill="white">
                    <use xlink:href="#path-1"></use>
                </mask>
                <use id="Mask" fill="#A79899" sketch:type="MSShapeGroup" xlink:href="#path-1"></use>
                <g id="Group" mask="url(#mask-2)">
                    <g transform="translate(24.000000, 25.000000)">
                        <path d="M54.6,75 L53.5,63.6 C53.3,61.7 51.7,60.3 49.9,60.3 C48,60.3 46.4,61.7 46.3,63.6 L45.2,75 C45,77.7 42.9,79.8 40.3,80.2 C27.7,82.1 20.5,86.4 20.5,86.4 L49.9,110.3 L79.3,86.4 C79.3,86.4 72.1,82 59.5,80.2 C56.9,79.8 54.8,77.7 54.6,75" id="Shape" fill="#F3C7A2" sketch:type="MSShapeGroup"></path>
                        <path d="M23.9,105.8 C21,131.6 8.8,149.3 8.8,149.3 C13.9,161.5 10.5,195.7 10.5,195.7 L6.8,196.1 L0.1,148.8 L10.5,103.3 C16.9,89 20.7,85.4 28.5,88.3 C39.9,92.4 23.9,105.8 23.9,105.8" id="Shape" fill="#F3C7A2" sketch:type="MSShapeGroup"></path>
                        <path d="M75.8,105.8 C78.7,131.6 90.9,149.3 90.9,149.3 C85.8,161.5 89.2,195.7 89.2,195.7 L92.9,196.1 L99.6,148.8 L89.2,103.3 C82.8,89 80.2,85.4 72.4,88.3 C61,92.4 75.8,105.8 75.8,105.8" id="Shape" fill="#FDD6AB" sketch:type="MSShapeGroup"></path>
                        <g id="Group" stroke-width="1" fill="none" sketch:type="MSLayerGroup" transform="translate(20.000000, 0.000000)">
                            <path d="M15.9,73.7 C15.9,73.7 30.5,67.5 41.7,73.7 L50.6,63.6 L50.6,37.9 L33.2,25 L6.8,37.1 L15.9,73.7 L15.9,73.7 Z" id="Shape" fill="#000000" sketch:type="MSShapeGroup"></path>
                            <ellipse id="Oval" fill="#F3C7A2" sketch:type="MSShapeGroup" cx="29.6" cy="42.1" rx="27" ry="30"></ellipse>
                            <path d="M21.4,16.6 C21.4,16.6 5.7,41.1 15.9,73.8 C15.9,73.8 2.2,72.1 1.1,54.3 C8.9928065e-15,36.4 0.8,15 11.3,6.2 C21.7,-2.7 21.4,16.6 21.4,16.6 L21.4,16.6 Z" id="Shape" fill="#0A0406" sketch:type="MSShapeGroup"></path>
                            <circle id="Oval" fill="#ED1C24" sketch:type="MSShapeGroup" cx="29.6" cy="27.9" r="1.5"></circle>
                            <path d="M41.7,73.7 C41.7,73.7 53.2,59.7 43.6,33.3 C43.6,33.3 30.4,31.1 21.3,16.5 L19.2,5.8 C19.2,5.8 21.1,0.8 26,0.5 C30.9,0.2 49.9,-0.6 56.5,21.1 C63.2,42.9 56,73.7 41.7,73.7 L41.7,73.7 Z" id="Shape" fill="#0A0406" sketch:type="MSShapeGroup"></path>
                        </g>
                        <path d="M49.9,43.4 L53,55.4 L46.8,55.4 L49.9,43.4 Z" id="Shape" fill="#FF7353" sketch:type="MSShapeGroup"></path>
                        <path d="M71.6,82.5 C71.6,82.5 68.5,101.5 49.9,101.5 C31.3,101.5 28.2,82.5 28.2,82.5 C8.8,86 5.4,122 5.4,122 L49.9,122 L94.4,122 C94.3,122 90.9,86 71.6,82.5 L71.6,82.5 Z" id="Shape" fill="#DB3247" sketch:type="MSShapeGroup"></path>
                        <path d="M86.6,94.9 C71.1,99.3 79.3,122 79.3,122 L20.8,122 C20.8,107.4 36.6,103.3 50.9,99.8 C65.1,96.3 69.9,82.2 69.9,82.2 C69.9,82.2 79.1,82.1 86.6,94.9 L86.6,94.9 Z" id="Shape" fill="#FFD31C" sketch:type="MSShapeGroup"></path>
                        <g id="Group" stroke-width="1" fill="none" sketch:type="MSLayerGroup" transform="translate(34.000000, 81.000000)">
                            <path id="Shape" stroke="#FFD41D" stroke-width="0.25" sketch:type="MSShapeGroup" d="M0.3,0.4 C0.3,0.4 0.4,0.6 0.5,0.8"></path>
                            <path d="M1,1.7 C3,5 8.7,13.4 15.6,13.4 C22.8,13.4 28,4 29.5,1" id="Shape" stroke="#FFD41D" stroke-width="0.25" stroke-dasharray="0.987,0.987" sketch:type="MSShapeGroup"></path>
                            <path id="Shape" stroke="#FFD41D" stroke-width="0.25" sketch:type="MSShapeGroup" d="M29.7,0.5 C29.8,0.2 29.9,0 29.9,0"></path>
                        </g>
                        <path d="M51.1,97.4 C51.1,98.1 50.6,98.6 49.9,98.6 L49.2,98.6 C48.5,98.6 48,98.1 48,97.4 L48,96.3 C48,95.6 48.5,95.1 49.2,95.1 L49.9,95.1 C50.6,95.1 51.1,95.6 51.1,96.3 L51.1,97.4 L51.1,97.4 Z" id="Shape" fill="#FFD41D" sketch:type="MSShapeGroup"></path>
                        <rect id="Rectangle-path" fill="#FFD41D" sketch:type="MSShapeGroup" x="49.2" y="93.9" width="0.8" height="1.4"></rect>
                    </g>
                </g>
            </g>
        </g>
    </g>
</svg>