<?xml version="1.0" encoding="UTF-8" standalone="no"?>
<svg width="147px" height="148px" viewBox="0 0 147 148" version="1.1" xmlns="http://www.w3.org/2000/svg" xmlns:xlink="http://www.w3.org/1999/xlink" xmlns:sketch="http://www.bohemiancoding.com/sketch/ns">
    <!-- Generator: Sketch 3.5.2 (25235) - http://www.bohemiancoding.com/sketch -->
    <title>avatar=teacher-8</title>
    <desc>Created with Sketch.</desc>
    <defs>
        <circle id="path-1" cx="73.5" cy="73.8" r="73.3"></circle>
    </defs>
    <g id="Page-1" stroke="none" stroke-width="1" fill="none" fill-rule="evenodd" sketch:type="MSPage">
        <g id="Female-Teachers" sketch:type="MSArtboardGroup" transform="translate(-270.000000, -90.000000)">
            <g id="avatar=teacher-8" sketch:type="MSLayerGroup" transform="translate(270.000000, 90.000000)">
                <mask id="mask-2" sketch:name="Mask" fill="white">
                    <use xlink:href="#path-1"></use>
                </mask>
                <use id="Mask" fill="#DDD3D4" sketch:type="MSShapeGroup" xlink:href="#path-1"></use>
                <g id="Group" mask="url(#mask-2)" sketch:type="MSShapeGroup">
                    <g transform="translate(26.000000, 30.000000)">
                        <ellipse id="Oval" fill="#005247" cx="47.5" cy="32.1" rx="33.7" ry="31.6"></ellipse>
                        <path d="M19.4,39 C16.4,39 14,42.4 14,46.5 C14,50.6 16.4,54 19.4,54 C22.4,54 24.8,50.6 24.8,46.5 C24.8,42.3 22.4,39 19.4,39 L19.4,39 Z M19.4,50.7 C17.7,50.7 16.4,48.8 16.4,46.5 C16.4,44.2 17.8,42.3 19.4,42.3 C21.1,42.3 22.4,44.2 22.4,46.5 C22.4,48.8 21.1,50.7 19.4,50.7 L19.4,50.7 Z" id="Shape" fill="#000000"></path>
                        <path d="M70.2,46.5 C70.2,50.6 72.6,54 75.6,54 C78.6,54 81,50.6 81,46.5 C81,42.4 78.6,39 75.6,39 C72.6,39 70.2,42.3 70.2,46.5 L70.2,46.5 Z M72.6,46.5 C72.6,44.2 74,42.3 75.6,42.3 C77.3,42.3 78.6,44.2 78.6,46.5 C78.6,48.8 77.2,50.7 75.6,50.7 C74,50.7 72.6,48.8 72.6,46.5 L72.6,46.5 Z" id="Shape" fill="#000000"></path>
                        <path d="M70.8,21.7 C73.8,25.8 75.6,30.8 75.6,36.1 C75.6,50.4 63,61.9 47.5,61.9 C32,61.9 19.4,50.3 19.4,36.1 C19.4,30.8 21.1,25.9 24.1,21.8 C24.1,21.8 41.5,26.5 47.5,15.7 C47.5,15.8 51.7,26.8 70.8,21.7 L70.8,21.7 Z" id="Shape" fill="#FFF4C2"></path>
                        <path d="M47.5,36.8 L50,42.8 L45,42.8 L47.5,36.8 Z" id="Shape" fill="#664D4E"></path>
                        <path d="M51.6,64.2 L50.7,54.2 C50.5,52.6 49.2,51.3 47.5,51.3 C45.8,51.3 44.5,52.6 44.3,54.2 L43.4,64.2 C43.2,66.5 41.4,68.4 39.1,68.8 C28.1,70.4 21.8,74.2 21.8,74.2 L47.5,95.1 L73.2,74.2 C73.2,74.2 66.9,70.4 55.9,68.8 C53.6,68.5 51.8,66.6 51.6,64.2" id="Shape" fill="#FFF4C2"></path>
                        <path d="M24.8,94.8 C22.3,117.4 11.6,132.8 11.6,132.8 C16,143.5 13.1,173.3 13.1,173.3 L9.8,173.6 L3.9,132.2 L13,92.4 C18.6,79.9 21.9,76.8 28.7,79.3 C38.8,83.1 24.8,94.8 24.8,94.8" id="Shape" fill="#FFF4C2"></path>
                        <path d="M70.2,95.3 C72.7,117.9 83.4,133.3 83.4,133.3 C79,144 81.9,173.8 81.9,173.8 L85.2,174.1 L91.1,132.7 L82,92.9 C76.4,80.4 74.1,77.3 67.3,79.8 C57.3,83.6 70.2,95.3 70.2,95.3" id="Shape" fill="#FFF4C2"></path>
                        <path d="M26.4,72.1 C26.4,72.1 34.3,84.1 47.5,93.9 L47.5,146 L0.1,146 L2.1,124.6 C2,124.6 7,72.1 26.4,72.1 L26.4,72.1 Z" id="Shape" fill="#000000"></path>
                        <path d="M68.6,72.1 C68.6,72.1 60.7,84.1 47.5,93.9 L47.5,146 L94.9,146 L92.9,124.6 C93,124.6 88,72.1 68.6,72.1 L68.6,72.1 Z" id="Shape" fill="#000000"></path>
                    </g>
                </g>
            </g>
        </g>
    </g>
</svg>