<?xml version="1.0" encoding="UTF-8" standalone="no"?>
<svg width="147px" height="148px" viewBox="0 0 147 148" version="1.1" xmlns="http://www.w3.org/2000/svg" xmlns:xlink="http://www.w3.org/1999/xlink" xmlns:sketch="http://www.bohemiancoding.com/sketch/ns">
    <!-- Generator: Sketch 3.5.2 (25235) - http://www.bohemiancoding.com/sketch -->
    <title>avatar=teacher-2</title>
    <desc>Created with Sketch.</desc>
    <defs>
        <circle id="path-1" cx="73.4" cy="74.1" r="73.3"></circle>
    </defs>
    <g id="Page-1" stroke="none" stroke-width="1" fill="none" fill-rule="evenodd" sketch:type="MSPage">
        <g id="Female-Teachers" sketch:type="MSArtboardGroup" transform="translate(-473.000000, -500.000000)">
            <g id="avatar=teacher-2" sketch:type="MSLayerGroup" transform="translate(473.000000, 500.000000)">
                <mask id="mask-2" sketch:name="Mask" fill="white">
                    <use xlink:href="#path-1"></use>
                </mask>
                <use id="Mask" fill="#8EDA6D" sketch:type="MSShapeGroup" xlink:href="#path-1"></use>
                <g id="Group" mask="url(#mask-2)">
                    <g transform="translate(24.000000, 25.000000)">
                        <path d="M33.5,29 C33.5,13 43.9,0 56.8,0 C69.7,0 80.1,13 80.1,29 C80.1,36.7 77.7,43.7 73.7,48.9 L78.1,60.9 C78.1,60.9 72,66.7 54.7,67 L54.7,57.9 C42.9,56.5 33.5,44.1 33.5,29 L33.5,29 Z" id="Shape" fill="#331416" sketch:type="MSShapeGroup"></path>
                        <path d="M65.2,29 C65.2,13 54.8,0 41.9,0 C29,0 18.6,13 18.6,29 C18.6,36.7 21,43.7 25,48.9 L20.6,60.9 C20.6,60.9 26.7,66.7 44,67 L44,57.9 C55.9,56.5 65.2,44.1 65.2,29 L65.2,29 Z" id="Shape" fill="#331416" sketch:type="MSShapeGroup"></path>
                        <circle id="Oval" fill="#00D1B8" sketch:type="MSShapeGroup" cx="24" cy="49.3" r="1.8"></circle>
                        <circle id="Oval" fill="#00D1B8" sketch:type="MSShapeGroup" cx="74.4" cy="49.3" r="1.8"></circle>
                        <path d="M74.4,42.2 C74.4,62.2 58.2,72.6 49.3,72.6 C40.4,72.6 24.2,62.2 24.2,42.2 C24.2,26.9 34,14.5 49.3,14.5 C64.6,14.5 74.4,26.9 74.4,42.2" id="Shape" fill="#FFF4C2" sketch:type="MSShapeGroup"></path>
                        <path d="M61.6,18 C54.9,33.7 36.2,33.7 27.7,22.5 C32.7,12 49.9,3.4 61.6,18" id="Shape" fill="#331416" sketch:type="MSShapeGroup"></path>
                        <path d="M60.7,17.1 C57.5,25 63.5,31.6 70.4,30.6 C72.4,25.2 69.9,16.1 60.7,17.1" id="Shape" fill="#331416" sketch:type="MSShapeGroup"></path>
                        <path d="M38.8,82.6 C38.8,82.6 46.2,85.9 60.1,82.6 L61.1,83.8 L57.5,88.8 L53.6,90.9 L46.2,91.9 L40.6,88.9 L36.4,84.3 L38.8,82.6 L38.8,82.6 Z" id="Shape" fill="#DCE0DF" sketch:type="MSShapeGroup"></path>
                        <g id="Group" stroke-width="1" fill="none" sketch:type="MSLayerGroup" transform="translate(0.000000, 65.000000)">
                            <path d="M54,14.4 L53,3.3 C52.8,1.5 51.3,0.1 49.4,0.1 C47.6,0.1 46,1.5 45.8,3.3 L44.8,14.4 C44.6,17 42.6,19.1 40,19.5 C27.7,21.3 20.7,25.6 20.7,25.6 L49.4,49 L78.1,25.6 C78.1,25.6 71.1,21.3 58.8,19.5 C56.2,19.1 54.2,17 54,14.4" id="Shape" fill="#FFF4C2" sketch:type="MSShapeGroup"></path>
                            <path d="M24,42.6 C21.2,67.9 9.2,85.1 9.2,85.1 C14.2,97 10.9,130.4 10.9,130.4 L7.2,130.8 L0.6,84.5 L10.8,40 C17.1,26.1 20.7,22.5 28.4,25.4 C39.6,29.5 24,42.6 24,42.6" id="Shape" fill="#FFF4C2" sketch:type="MSShapeGroup"></path>
                            <path d="M74.8,43.2 C77.6,68.5 89.6,85.7 89.6,85.7 C84.6,97.6 87.9,131 87.9,131 L91.6,131.4 L98.2,85.1 L88,40.6 C81.7,26.7 79.2,23.1 71.5,26 C60.3,30.1 74.8,43.2 74.8,43.2" id="Shape" fill="#FFF4C2" sketch:type="MSShapeGroup"></path>
                        </g>
                        <path d="M49.4,39.4 L52.4,51.1 L46.4,51.1 L49.4,39.4 Z" id="Shape" fill="#FF7353" sketch:type="MSShapeGroup"></path>
                        <path d="M82.2,92.4 C77.8,86.5 59.6,83.7 59.6,83.7 L49.4,97.9 L39.2,83.7 C39.2,83.7 21,86.5 16.6,92.4 C12.2,98.3 7.7,110.5 4.2,126.4 L49.4,126.4 L94.6,126.4 C91.1,110.5 86.6,98.3 82.2,92.4 L82.2,92.4 Z" id="Shape" fill="#00D1B8" sketch:type="MSShapeGroup"></path>
                        <path d="M38.8,82.6 L49.4,97.9 L31.6,84.3 L38.8,82.6 Z" id="Shape" fill="#F9F9F9" sketch:type="MSShapeGroup"></path>
                        <path d="M60,82.6 L49.4,97.9 L67.2,84.3 L60,82.6 Z" id="Shape" fill="#F9F9F9" sketch:type="MSShapeGroup"></path>
                    </g>
                </g>
            </g>
        </g>
    </g>
</svg>