<?xml version="1.0" encoding="utf-8"?>
<!-- Generator: Adobe Illustrator 19.2.0, SVG Export Plug-In . SVG Version: 6.00 Build 0)  -->
<svg version="1.1" id="Layer_1" xmlns="http://www.w3.org/2000/svg" xmlns:xlink="http://www.w3.org/1999/xlink" x="0px" y="0px"
	 viewBox="0 0 144 144" enable-background="new 0 0 144 144" xml:space="preserve">
<rect x="-0.4" fill="none" width="144" height="144"/>
<path fill="#0397F3" d="M31.5,100.6l-12.4-2.8c-1.1-0.2-1.7-1.4-1.3-2.5l10.1-24.8L31.5,100.6z"/>
<path fill="#0188DC" d="M130.3,63.3c-0.6-27.4-22.7-49-50.1-50C50.5,12.2,26.1,35,26.1,64.5c0,4.1,0.5,8.2,1.4,12l4.1,32.4
	c1.2,7.9,8.5,13.4,16.4,12.2l6.1-0.7c2.7-0.3,5.1,1.6,5.5,4.3l1.3,9.4c0.2,1.5,1.5,2.6,3,2.6h35.8c1.8,0,3.2-1.6,3-3.4l-1.7-12.5
	c-0.6-4.2,1.6-8.3,5.4-10.2C123.2,101.9,130.8,84,130.3,63.3z"/>
<ellipse transform="matrix(0.3939 -0.9192 0.9192 0.3939 -2.1836 108.7997)" fill="#0397F3" cx="81.4" cy="56.1" rx="38" ry="43.5"/>
<g>
	<path fill="#FFE265" d="M83.3,74.6c-0.2,0.6-0.6,0.9-1.1,0.8l-12.8-3.6c-0.4-0.1-0.6-0.7-0.5-1.2l0,0c0.2-0.6,0.6-0.9,1.1-0.8
		l12.8,3.6C83.2,73.5,83.4,74.1,83.3,74.6L83.3,74.6z"/>
	<path fill="#FFE265" d="M80.7,83.6c-0.2,0.6-0.6,0.9-1.1,0.8l-12.8-3.6c-0.4-0.1-0.6-0.7-0.5-1.2l0,0c0.2-0.6,0.6-0.9,1.1-0.8
		l12.8,3.6C80.7,82.5,80.9,83,80.7,83.6L80.7,83.6z"/>
	<path fill="#FFE265" d="M82,79.1c-0.2,0.6-0.6,0.9-1.1,0.8l-12.8-3.6c-0.4-0.1-0.6-0.7-0.5-1.2l0,0c0.2-0.6,0.6-0.9,1.1-0.8
		l12.8,3.6C81.9,78,82.1,78.6,82,79.1L82,79.1z"/>
	<path fill="#FF7753" d="M96.8,56.4c2.3-8.2-2.4-16.8-10.7-19.1C77.8,35,69.3,39.7,67,48c-1.6,5.6,0.1,11.4,4,15.2l-1,3.4l14.4,4.1
		l1-3.4C90.7,66,95.2,62,96.8,56.4z"/>
	<polygon fill="#FFFFFF" points="82.7,66.8 81.1,66.1 87.2,51.5 77.7,48.8 76.5,64.7 74.7,64.6 76.1,46.4 89.7,50.3 	"/>
	<path fill="#FFFFFF" d="M88.1,34.1c-0.2,0.5-0.7,0.9-1.3,0.7l0,0c-0.5-0.2-0.9-0.7-0.7-1.3l2-6.9c0.2-0.5,0.7-0.9,1.3-0.7l0,0
		c0.5,0.2,0.9,0.7,0.7,1.3L88.1,34.1z"/>
	<path fill="#FFFFFF" d="M100,58c-0.5-0.2-0.9-0.7-0.7-1.3l0,0c0.2-0.5,0.7-0.9,1.3-0.7l6.9,2c0.5,0.2,0.9,0.7,0.7,1.3l0,0
		c-0.2,0.5-0.7,0.9-1.3,0.7L100,58z"/>
	<path fill="#FFFFFF" d="M56.1,45.6c-0.5-0.2-0.9-0.7-0.7-1.3l0,0c0.2-0.5,0.7-0.9,1.3-0.7l6.9,2c0.5,0.2,0.9,0.7,0.7,1.3l0,0
		c-0.2,0.5-0.7,0.9-1.3,0.7L56.1,45.6z"/>
	<path fill="#FFFFFF" d="M73.7,26.6c-0.2-0.6,0.2-1.1,0.7-1.3l0,0c0.6-0.2,1.1,0.2,1.3,0.7l1.9,6.9c0.2,0.6-0.2,1.1-0.7,1.3l0,0
		c-0.6,0.2-1.1-0.2-1.3-0.7L73.7,26.6z"/>
	<path fill="#FFFFFF" d="M98.4,31.3c0.4-0.4,1-0.5,1.5-0.1l0,0c0.4,0.4,0.5,1,0.1,1.5l-4.7,5.4c-0.4,0.4-1,0.5-1.5,0.1l0,0
		c-0.4-0.4-0.5-1-0.1-1.5L98.4,31.3z"/>
	<path fill="#FFFFFF" d="M63.3,57.3c0.5-0.2,1.1,0.1,1.3,0.6l0,0c0.2,0.5-0.1,1.1-0.6,1.3l-6.8,2.4c-0.5,0.2-1.1-0.1-1.3-0.6l0,0
		c-0.2-0.5,0.1-1.1,0.6-1.3L63.3,57.3z"/>
	<path fill="#FFFFFF" d="M106.3,42c0.5-0.2,1.1,0.1,1.3,0.6l0,0c0.2,0.5-0.1,1.1-0.6,1.3l-6.7,2.4c-0.5,0.2-1.1-0.1-1.3-0.6l0,0
		c-0.2-0.5,0.1-1.1,0.6-1.3L106.3,42z"/>
	<path fill="#FFFFFF" d="M94.8,66c-0.4-0.4-0.4-1.1,0-1.5l0,0c0.4-0.4,1.1-0.4,1.5,0l5.1,5c0.4,0.4,0.4,1.1,0,1.5l0,0
		c-0.4,0.4-1.1,0.4-1.5,0L94.8,66z"/>
	<path fill="#FFFFFF" d="M62.1,34.1c-0.4-0.4-0.4-1.1,0-1.5l0,0c0.4-0.4,1.1-0.4,1.5,0l5.1,5c0.4,0.4,0.4,1.1,0,1.5l0,0
		c-0.4,0.4-1.1,0.4-1.5,0L62.1,34.1z"/>
</g>
</svg>
