<?xml version="1.0" encoding="utf-8"?>
<!-- Generator: Adobe Illustrator 19.2.0, SVG Export Plug-In . SVG Version: 6.00 Build 0)  -->
<svg version="1.1" id="Layer_1" xmlns="http://www.w3.org/2000/svg" xmlns:xlink="http://www.w3.org/1999/xlink" x="0px" y="0px"
	 viewBox="0 0 144 144" enable-background="new 0 0 144 144" xml:space="preserve">
<rect x="0" fill="none" width="144" height="144"/>
<path fill="#3E4B4B" d="M18.7,103.4h95h3.6c0,0,4.6-0.2,6.1,1.7l18.2,22.2c0,0,3.1,4.5-2.6,4.5S5,131.8,5,131.8s-5.3,0.1-3-5.1
	c2.4-5.2,11.2-20.6,11.2-20.6S15.2,103.4,18.7,103.4z"/>
<polygon fill="#FFFFFF" points="21.7,106.1 10.9,125.1 128.6,125.1 116.3,106.1 "/>
<g>
	<path fill="#FF7254" d="M64.8,68.2c-3.9-16.5-20.3-26.7-36.8-22.9S1.2,65.7,5.1,82.1c3.4,14.5,16.6,24.2,30.9,23.7l6.8,7.3
		c0.6,0.6,1.6,0.4,1.9-0.4l2.8-9.6C60.6,97.2,68.1,82.7,64.8,68.2z"/>
	<g>
		
			<ellipse transform="matrix(0.9737 -0.2277 0.2277 0.9737 -17.5738 6.6658)" fill="#FFFFFF" cx="20.1" cy="79.5" rx="5.4" ry="5.4"/>
		
			<ellipse transform="matrix(0.9737 -0.2277 0.2277 0.9737 -16.1449 9.9039)" fill="#FFFFFF" cx="34.9" cy="74.9" rx="4.6" ry="4.6"/>
		
			<ellipse transform="matrix(0.9737 -0.2277 0.2277 0.9737 -14.7161 13.142)" fill="#FFFFFF" cx="49.6" cy="70.4" rx="6.3" ry="6.3"/>
	</g>
</g>
<g>
	<path fill="#01D0B7" d="M91.9,103.5c0-8.2-6.7-14.9-14.9-14.9s-14.9,6.7-14.9,14.9c0,7.2,5.2,13.3,12,14.6l2.4,4.2
		c0.2,0.4,0.7,0.4,0.9,0l2.4-4.2C86.8,116.8,91.9,110.8,91.9,103.5z"/>
	<g>
		<path fill="#FFFFFF" d="M76.2,99.9c-4.5-5.1-8.6,2-4.2,5.6c2.3,1.8,1.5,3.4,0.4,4.4c-0.4,0.4-0.1,1.1,0.5,1
			c3.4-0.6,9.6-2.6,10.8-9.7C84.7,96.2,78.3,94.2,76.2,99.9z"/>
	</g>
</g>
<g>
	<path fill="#FFD31C" d="M139.8,61.2c2.9-18.1-9.4-35.1-27.5-37.9s-35.1,9.4-37.9,27.5c-2.5,15.9,6.7,31,21.3,36.3l3.8,10.1
		c0.3,0.9,1.5,1,2,0.3l6.8-8.5C123.8,88.6,137.3,77.2,139.8,61.2z"/>
	<path fill="#FFFFFF" d="M116.8,52.2c0,0-8.8-9.7-8.3-15.5c0,0-2.9-1.1-3.4,2.1c-0.5,3.2,0.6,9.1,0.6,9.1l-12-1.9
		c0,0-2.1,0.3-2.2,2.7c-0.1,2.4,0.9,2.4,0.9,2.4s-1.7,1-1.8,3.2c-0.1,2.2,1.2,2.9,1.2,2.9s-1.5,0.8-1.6,3.1
		c-0.1,2.3,2.1,3.4,2.1,3.4s-0.9,4.6,2,5.2c2.9,0.6,14.6,1.4,18.9-1.2c3.1-1.9,7.9-1.4,10.2-1c0.8,0.1,1.5-0.4,1.6-1.2l1.7-10.5
		c0.1-0.8-0.4-1.5-1.2-1.6L116.8,52.2z"/>
</g>
</svg>
