<?xml version="1.0" encoding="utf-8"?>
<!-- Generator: Adobe Illustrator 19.2.0, SVG Export Plug-In . SVG Version: 6.00 Build 0)  -->
<svg version="1.1" id="Layer_1" xmlns="http://www.w3.org/2000/svg" xmlns:xlink="http://www.w3.org/1999/xlink" x="0px" y="0px"
	 viewBox="0 0 40 40" enable-background="new 0 0 40 40" xml:space="preserve">
<path fill="#DCE2E1" d="M20,0L20,0C9,0,0,9,0,20.1l0,0C0,30.4,7.7,38.8,17.7,40V24.8h-4.5v-5.2h4.5v-3.9c0-4.5,2.7-6.9,6.7-6.9
	c1.9,0,3.5,0.1,4,0.2v4.7l-2.8,0c-2.2,0-2.6,1-2.6,2.5v3.3h5.2l-0.7,5.2h-4.5v15.1C32.7,38.4,40,30.1,40,20.1l0,0C40,9,31,0,20,0z"
	/>
</svg>
