<?xml version="1.0" encoding="utf-8"?>
<!-- Generator: Adobe Illustrator 19.2.0, SVG Export Plug-In . SVG Version: 6.00 Build 0)  -->
<svg version="1.1" id="Layer_1" xmlns="http://www.w3.org/2000/svg" xmlns:xlink="http://www.w3.org/1999/xlink" x="0px" y="0px"
	 viewBox="0 0 100 100" enable-background="new 0 0 100 100" xml:space="preserve">
<g>
	<g>
		<g>
			<path fill="#F3A0B0" d="M51.3,13c-19.7,0-35.7,15.9-35.7,35.6c0,7.2,2.2,14,5.9,19.6c0,0-4-6.5,0,0c4,6.5,7.2,12.8-4.2,9.6
				C5.9,74.6,2.7,93.6,6.6,93c3.9-0.6,2.3-9.3,10.8-4.6c7.5,4.1,17.1,1.2,22.1-6.2c3.7,1.3,7.7,2,11.9,2C71,84.2,87,68.3,87,48.6
				C87,28.9,71,13,51.3,13z"/>
		</g>
	</g>
	<path fill="#FFFFFF" d="M50,41.2C39,28.9,29,46.2,39.9,55c5.5,4.5,3.7,8.3,1.1,10.7c-1,0.9-0.2,2.6,1.2,2.3
		c8.4-1.4,23.4-6.4,26.5-23.8C70.7,32.2,55,27.3,50,41.2z"/>
</g>
</svg>
