<?xml version="1.0" encoding="utf-8"?>
<!-- Generator: Adobe Illustrator 19.2.0, SVG Export Plug-In . SVG Version: 6.00 Build 0)  -->
<svg version="1.1" id="Layer_1" xmlns="http://www.w3.org/2000/svg" xmlns:xlink="http://www.w3.org/1999/xlink" x="0px" y="0px"
	 viewBox="0 0 2615.9 670" enable-background="new 0 0 2615.9 670" xml:space="preserve">
<g>
	<rect fill="#FFF3C1" width="2615.9" height="670"/>
	<path fill="#A5E7AF" d="M2485.9,637.8c-48.9-64.8-213-201.1-379.2-181.7c-121.7,14.2-162.7-145.3-261.1-125.9
		c-67.8,13.3-78.8-53.8-187-5.9c-65.3,28.9-90.6-60.6-187.4-3.7c-31.5,18.5-31.7-1-62.4,11.5c-30.7,12.5-0.2,18.2-149,18.2
		c-164.9,0-149.6-46.1-289.7-28.8s-206.8,60.9-285.5,35.9c-78.7-25-84.5,9.6-120,51.8s-201.1,30-248.2,112.1
		c-32.9,57.3-141.6,4.6-210.7,127.5L2485.9,637.8z"/>
	<path fill="#21AA9A" d="M2563.6,670c-370.2-211.3-798.8-332-1255.6-332S422.6,458.7,52.3,670H2563.6z"/>
	<g>
		<path fill="#FFFFFF" d="M260.8,336C260.8,336,260.8,336,260.8,336c0,0-8.5-5.7-25.9,0.7s-9.2-22.7-45.5-3.2
			c-22.4,12-22.6-12-40-0.5s-7.1,19.2-20.3,32c-9.2,9-18.9-0.6-23.3,21.6c-1.2,6.2-7.1,2-7.7,9.5c-0.5,7.6-15.9,1.7-18.1,18.2
			C78.7,425.1,64.7,429,43.9,444c0,0,0,0,0.1,0C114.5,402.5,187,366.6,260.8,336z"/>
		<path fill="#FFFFFF" d="M973.1,125.6C973.1,125.6,973.1,125.6,973.1,125.6c0,0,1.7-4,9.4-5.6c7.6-1.7-1.9-10.2,15.5-11.5
			c10.7-0.8,5.3-9.4,14.1-9.3c8.8,0.1,6.9,5.2,14.5,6.8c5.3,1.1,6.6-4.5,13.2,2.4c1.8,1.9,3-0.9,4.9,1.7c1.9,2.6,6.1-3,10.6,2.4
			c3,3.5,8.8,1.7,19.6,2.3c0,0,0,0,0,0C1040.3,116,1006.3,119.7,973.1,125.6z"/>
		<path fill="#FFFFFF" d="M2489.1,471.4C2489.1,471.4,2489.1,471.4,2489.1,471.4c0,0,4.6-2.9,13.7,0.6s5.1-12,24.2-1.3
			c11.8,6.6,12.1-6.2,21.3,0.1s3.6,10.3,10.5,17.2c4.8,4.9,10-0.1,12.1,11.7c0.6,3.3,3.8,1.1,4,5.1s8.4,1.1,9.4,9.8
			c0.7,5.7,8,7.9,18.9,16.1c0,0,0,0,0,0C2566.1,508.1,2528,488.3,2489.1,471.4z"/>
		<path fill="#FFFFFF" d="M1827.8,199.7C1827.8,199.7,1827.8,199.7,1827.8,199.7c0,0-5.8-14.2-32.8-20.7s7.5-36-54-42
			c-38-3.7-18.2-33.8-49.5-34s-24.9,18-52,23c-19,3.5-23-16.5-47,7.5c-6.7,6.7-10.5-3.5-17.5,5.5s-21.3-11.2-37.7,7.6
			c-10.8,12.2-31.4,5.5-69.8,6.7c0,0,0.1,0,0.1,0C1590,160.6,1710.3,176.3,1827.8,199.7z"/>
		<path fill="#FFFFFF" d="M838.9,104.3c-51.3-15.9-48.4,12.3-76.7-0.4c-40.6-18.1-67.8,15.6-122.9,7.3c-55.1-8.4-81.6,55.4-129,72.4
			c0.5,0,1,0,1.5,0C618.2,150.4,727.4,123.8,838.9,104.3z"/>
		<path fill="#FFFFFF" d="M1223.9,203.9C1223.9,203.9,1223.9,203.9,1223.9,203.9c-39.9,1.5-32.4-9.5-60.4-4.2s-1.5-30.2-56-4.7
			s-43.8,4.7-70.9,21.3l0,0C1098.4,210,1160.8,205.9,1223.9,203.9z"/>
		<path fill="#FFFFFF" d="M2231.4,213.1C2231.4,213.1,2231.4,213.1,2231.4,213.1c-37.5-13.6-26.4-21-54.4-26.7
			c-27.9-5.7,10-28.5-50.1-25.5c-60.1,3-42.3-12.2-73.7-7l0,0C2112.9,171.3,2172.3,191.1,2231.4,213.1z"/>
		<path fill="#FFFFFF" d="M141.9,192.5c0,0,13.6-13.4,28.6-17.6c15-4.1,4.6-19.1,37.4-19.7c32.8-0.6,17.8-3.7,28.7-1.7l0,0
			C204.9,165.4,173.3,178.3,141.9,192.5z"/>
	</g>
	<path fill="#23BC98" d="M2249.5,594.6c-83.7-106.1-152.3,14.3-289-133.9c-110.1-119.4-351.9-3.1-646.8-75.1
		c-217.4-53-436.6,77.6-579.3,49.7c-135.3-26.4-93.6,125-243.4,102.9c-64.9-9.6-46.5,79.4-188.2,79.4c-44.9,0-77.3,52.4-132.9,52.4
		h2235.4C2354,611.4,2300.6,659.4,2249.5,594.6z"/>
	<g>
		<path fill="#24D595" d="M667.2,421.9c88.6,19.9,100.7-81.3,47.1-115.8c-50.1-32.3-11.4-83.6-64.4-89c-48.3-5-71,76.1-32.2,111.8
			C650.7,359.3,600.6,407,667.2,421.9z"/>
		<g>
			<path fill="none" stroke="#1B8B7F" stroke-width="4" stroke-linecap="round" stroke-miterlimit="10" d="M697.7,458.9
				c20.3-99-44.9-165.6-44.9-165.6"/>
			<path fill="none" stroke="#1B8B7F" stroke-width="4" stroke-linecap="round" stroke-miterlimit="10" d="M697.5,382.2
				c0,0-10.3,6.1-25.5-1.5"/>
			<path fill="none" stroke="#1B8B7F" stroke-width="4" stroke-linecap="round" stroke-miterlimit="10" d="M690.4,357.1
				c0,0,17.8-5.1,13.2-20"/>
		</g>
		<path fill="#84FFC3" d="M711.2,420.7c47.5-17.1,48-88.8,5-116.5c-50.1-32.3-12.4-82.6-65.3-88c-15.7-1.6-28.8,6-38,18.3
			c34.2-36.6,61.6,1.1,67.3,45.6c7.3,56.4,52.9,18.3,59.1,87.1C742.4,402,724.7,415.5,711.2,420.7z"/>
	</g>
	<g>
		<path fill="#03807B" d="M373.7,518.7c-115.1,44.2-122.3-69.6-124.8-113.6s7.2-153.3,60.1-144.8c52.9,8.5,6.4,81.3,60.9,101.2
			C424.5,381.3,466.1,483.2,373.7,518.7z"/>
		<g>
			<path fill="none" stroke="#24D595" stroke-width="4" stroke-linecap="round" stroke-miterlimit="10" d="M353.1,560.7
				c13.2-76.2-8.3-146-46.1-192.2"/>
			<path fill="none" stroke="#24D595" stroke-width="4" stroke-linecap="round" stroke-miterlimit="10" d="M374,435.8
				c1.3,29.1-20.4,38.4-20.4,38.4"/>
			<path fill="none" stroke="#24D595" stroke-width="4" stroke-linecap="round" stroke-miterlimit="10" d="M330.8,404.7
				c-8.4,4.4-15.3,4.4-20.4,3"/>
		</g>
		<path fill="#21AA9A" d="M372.9,358.6c-54.5-19.9-10.9-91.7-63.8-100.2c-20.3-3.3-34.3,11.2-43.6,32.7l0,0
			c19-35.5,63.8-32.9,60.4,11.7s10.9,67.8,44.9,81.4c34,13.6,74.9,69.8,38,112.5C453.1,451.4,418.5,375.2,372.9,358.6z"/>
	</g>
	<path fill="#CDFAB7" d="M1894.7,503.3c0,91.6-253.7-19.4-586.8,98.6c-305.5,108.2-586.8-7-586.8-98.6s262.7-168.3,586.8-168.3
		S1894.7,411.7,1894.7,503.3z"/>
	<path opacity="0.2" fill="#24D595" d="M1059.3,400.6c-1-2.1,4.1-5.1,14.3-7.3c10.1-2.2,14.3-2.7,15.3-0.6c1,2.1-1.5,5.4-10.9,9.9
		C1068.7,407.1,1060.3,402.7,1059.3,400.6z"/>
	<path opacity="0.2" fill="#24D595" d="M1150.8,366.5c-10.4-0.5-14.4-3.3-14.6-5.6c-0.2-2.3,3.4-1.5,13.6-3.7
		C1174.2,352.1,1174,367.6,1150.8,366.5z"/>
	<g>
		<g>
			<path fill="#015247" d="M1053.8,332c0.7,3.9,7.6,4.5,7.6,4.5s6.9-0.6,7.6-4.5c0.4-2.2,0.1-4.6-0.8-6.5c-5.2,0-3.4-4.5-6.2-4.5
				C1056.8,320.9,1052.9,327,1053.8,332z"/>
			<path fill="#015247" d="M1055.8,325.2c4.7,4.2,10.7,1.7,11.8-3.4C1064.3,319.2,1057.4,318.6,1055.8,325.2z"/>
			<path fill="#015247" d="M1055.8,325.1c3.2,5.3,11.1,5.4,14.8,1.5C1068.2,323.1,1060.7,320.1,1055.8,325.1z"/>
			<path fill="#FFFFC7" d="M1068.7,332.1c0,5.8-4.7,7.7-7.3,7.7c-2.6,0-7.3-1.9-7.3-7.7c0-4.5,2.9-8.1,7.3-8.1
				S1068.7,327.7,1068.7,332.1z"/>
			<polygon fill="#FF7353" points="1063,329.9 1061.8,334.4 1064.1,334.4 			"/>
		</g>
		<path fill="#FFFFC7" d="M1060.8,340.3l-0.3-3.3c0-0.6,0.3-1,0.9-1.1l0,0c0.5-0.1,1.1,0.2,1.2,0.8l0.9,3.2c0.2,0.8,0.9,1.3,1.7,1.2
			c3.7-0.1-1.2,9.2-1.2,9.2l-9.6-4.6c0,0,1.7-2.4,5.2-3.6C1060.4,341.8,1060.9,341.1,1060.8,340.3z"/>
		<path fill="#FFD31C" d="M1051.3,397.7l-1-7.7c0,0,1.2-0.5,2.4,0.6l0.4,1.5C1053.1,392.1,1053.4,397.8,1051.3,397.7z"/>
		<path fill="#FFD31C" d="M1086.6,394.2l-7.3,2.6c0,0-0.7-1,0.1-2.4l1.4-0.7C1080.8,393.7,1086.3,392.2,1086.6,394.2z"/>
		<path fill="#FFFFC7" d="M1051.9,390l0.8,1.6l14.2-7.4l5.3-16.3l-5.9-2.1c-2.9,11.7-2.3,16.4-2.3,16.4
			C1059.6,383.5,1051.9,390,1051.9,390z"/>
		<path fill="#FFFFC7" d="M1064.5,373.6c5.9,3.4,15.1,6.5,15.1,6.5c-1.5,4.6-0.2,14.2-0.2,14.2l1.9,0l1.1-16.5l-14.1-9.8
			L1064.5,373.6z"/>
		<path fill="#FFEBEA" d="M1060.8,369.6c0.1-5.4,0.8-7,0.8-7h9.2c0,0,0.7,1.6,0.8,7c0,0-0.1,4.2-5.4,4.2
			C1060.9,373.8,1060.8,369.6,1060.8,369.6z"/>
		<path fill="#1F7698" d="M1059.9,365.7c0,0-0.2,2.1,0,5.3s2.2,3.5,4.5,4.8c3.1,1.6,7.8,2.5,13.3,5.2c0,0,1.1-0.1,2.1-2.6
			c1-2.5,0.5-3.6,0.5-3.6l-7-3.7L1059.9,365.7z"/>
		<path fill="#1F7698" d="M1063.7,374l0.2,0.1l-1.2,7.8c0,0,0.6,0.9,3.2,1.7c1.4,0.4,2-0.4,2-0.4c3.2-9.7,4.9-17,4.9-17l-5.9-2.1
			c0,0-2.2,0.7-3.3,3.8S1063.7,374,1063.7,374z"/>
		<path fill="#FFFFC7" d="M1078.8,354.4c0,0-3.6-4.7-5.7-7.6c-2.2-2.9-5.8-4-5.3-1.6c0.8,3.5,7.4,8.7,7.4,8.7
			C1077.3,355.8,1078.8,354.4,1078.8,354.4z"/>
		<path fill="#0E1414" d="M1072,346.1c0,0-2,1.6-6,1.5l-0.5-6.4C1071,340.9,1072,346.1,1072,346.1z"/>
		<path fill="#0E1414" d="M1072.9,367.6c-0.6-7-2.6-10.3-2.8-16.5c-0.3-5.8-2.7-10.2-4.9-10.1c0,0,0.3,2.3-2.4,2.8
			c-2.6,0.5-4.2-1.9-4.2-1.9c-2.3,1-3.6,2.1-3.6,2.1c-0.2,7.5,4.7,15.4,4.3,25.6C1059.4,369.6,1068.8,372.4,1072.9,367.6z"/>
		<path fill="#FFFFC7" d="M1078.8,354.4l-5,4.9l-0.8-1.3c0,0,0.9-1.5,2.5-3.7C1076.5,352.8,1077.8,353.4,1078.8,354.4z"/>
		<g>
			<g>
				<path fill="#FFFFC7" d="M1070.3,361.6c0,0,2.1,0.2,3-1c0.9-1.1,1.2-2.4,0.6-2.9c-0.6-0.5-1.8,0.1-2.7,1.2
					c-0.9,1.1-1.5,2.1-1.5,2.1L1070.3,361.6z"/>
			</g>
		</g>
		<path fill="#FFFFC7" d="M1073.9,357.7c-1.2-1-1.8,0.6-3.5,0.6C1070.4,358.3,1071.8,360.3,1073.9,357.7z"/>
		<g>
			<path fill="#FFFFC7" d="M1048.6,358.9l-2.9,10.9l-1.1-0.1l1.2-11.6l4.7-8.1c2.8-3.7,6.4-5.6,6.2-3.1
				C1056.5,350.3,1048.6,358.9,1048.6,358.9z"/>
			<g>
				<path fill="#FFFFC7" d="M1039.7,372.8c0,0,0.7-2.2,2.5-3c1.8-0.8,3.5-0.9,3.8-0.2c0.3,0.7-0.9,1.9-2.7,2.7
					c-1.8,0.8-3.3,1.3-3.3,1.3L1039.7,372.8z"/>
				<path fill="#FFFFC7" d="M1045.9,369.6c0.6,1.5-1.6,1.8-2.3,3.6C1043.7,373.2,1041.9,371.4,1045.9,369.6z"/>
			</g>
		</g>
		<path fill="#0E1414" d="M1055,344.1c0,0-2.3,1.1-4,4.7l5.5,3.3C1059.2,347.3,1055,344.1,1055,344.1z"/>
	</g>
	<path opacity="0.2" fill="#24D595" d="M1299.3,505.5c0,3.1-7.3,6.2-15.9,9.5c-8.6,3.3-18-3.1-37.2-8.6c-3-0.8,7.2-6.5,24.7-6.5
		S1299.3,502.4,1299.3,505.5z"/>
	<path opacity="0.4" fill="#03807B" d="M1560.5,620.5c17.4,3.8,4.5,23.7-12.4,17.7c-22.2-8-37.8,5.1-44.2-7.6
		c-2.5-5.1,10.9-14.1,29.1-16.7C1551.4,611.2,1553.9,619.1,1560.5,620.5z"/>
	<path opacity="0.4" fill="#03807B" d="M1671.9,579.7c1.5,6.9-19.1,2.5-29.5,7c-28.9,12.5-44,15.7-44.8,8.8
		c21.9-5.9-3.3-20.7,36.6-29.3C1650.9,562.5,1668.5,564.2,1671.9,579.7z"/>
	<path opacity="0.2" fill="#24D595" d="M1551.5,414.6c0,2.3-5.9,2.8-16,0.3c-10.1-2.5-14.1-3.8-14.1-6.1s3.7-4.2,14.1-4.2
		C1545.9,404.7,1551.5,412.3,1551.5,414.6z"/>
	<path opacity="0.2" fill="#24D595" d="M927.8,490.4c0.5,3.3,19.2-1.8,39.8-5.1c20.5-3.3,12.4-4,46.6-16.6
		c-0.4-10.4-5.9-22.1-25.4-15.3C969.3,460.3,927.3,487.1,927.8,490.4z"/>
	<path opacity="0.2" fill="#24D595" d="M922.9,473.6c-0.7,3.3,11.8,0.8,24.7,1C955,465.8,923.6,470.3,922.9,473.6z"/>
	<g>
		<path fill="#24D595" d="M609,596.5c-56.4-38.3-38.4-128.4,22.2-133.3c35.9-2.9,34.5,43.3,68.8,35.7c34.3-7.6,0.9-62.5,48.4-73.6
			c48.2-11.3,41.8,97.7,92.3,93.1c35.4-3.2,41.8-50.5,73.8-32.7c32.4,18-13.2,71.2,13.1,82.5c19.1,8.1,23.5-11.1,43.9-11.1
			c20.4,0,27.9,23.9,0,39.4c0,0-102.7-13.3-189.2,4.8C674.3,623.8,609,596.5,609,596.5z"/>
		<g>
			<path fill="#84FFC3" d="M692.8,499.6c-26.2-0.6-22.7-42.9-61.6-38.2c-20.6,2.5-36.3,14.6-45.8,30.9
				C615.6,441.1,647.2,524.1,692.8,499.6z"/>
			<path fill="#84FFC3" d="M785.2,499.9c18.2,46.4,52.3,38.2,82.9,4.6l0,0c-7.3,7-15.7,12.8-27.4,12.8c-50.7,0-39.5-104.8-92.3-92.1
				c-7.4,1.8-12.9,4.6-16.9,8.2C754.1,429,771.2,464.3,785.2,499.9z"/>
			<path fill="#84FFC3" d="M985.7,586.7c13.2-14.3,2.3-30.6-14.2-30.6c-20.4,0-24.9,20.2-43.9,12.1c-9.4-4-9.4-13.3-7.1-24.4
				c-11.2,32,5,32.3,32.5,21.7c27.5-10.6,32.4,8.8,18.5,31C976.7,593.2,981.4,589.9,985.7,586.7z"/>
			<path fill="#84FFC3" d="M922.4,535.9c4.8-18.7,11.6-40.2-7.5-50.8c-20.3-11.3-30.6,2.9-43.1,15.8
				C898.8,476.5,926.3,507,922.4,535.9z"/>
		</g>
	</g>
	<g>
		<path opacity="0.2" fill="#24D595" d="M1112.1,560.1c-0.8,3.3-14-2.6-36.4-7.8c-22.1-5.2-15.2-6.7-51.6-22.5
			c8.5-2.4,34.6,4.8,55.5,13.5C1100.4,551.9,1112.9,556.8,1112.1,560.1z"/>
		<path opacity="0.2" fill="#24D595" d="M1114.6,545.1c-0.5,3.3-12.6-1.2-24.8-5.5C1086,528.7,1115.1,541.8,1114.6,545.1z"/>
		<g>
			<path fill="#005779" d="M1119.4,518.1l-14,4.2c0,0-1.5,3.4,1.3,5.1l4.7-0.8C1111.3,526.5,1121.3,522.4,1119.4,518.1z"/>
			<path fill="#FFF784" d="M1107.1,527.1l3.6-1l-0.1,32.5l-30.8-9.8l3.7-13c20.8,8.3,23.6,16.4,23.6,16.4
				C1102.9,541.5,1107.1,527.1,1107.1,527.1z"/>
			<path fill="#FFF784" d="M1120.2,514.2l3.7,0.3l-9.3,30.2l-30.5-10.9l3.4-11.9c10.4,3,25.1,16.2,25.1,16.2
				C1112.4,526.5,1120.2,514.2,1120.2,514.2z"/>
			<path fill="#FFF784" d="M1087.5,521.8c-9.8-2.5-12.9-2.5-12.9-2.5l-3.8,13.3c0,0-0.6,13.2,9,16.2c0,0,7.6,1.9,11.5-11.9
				C1095.2,523.1,1087.5,521.8,1087.5,521.8z"/>
			<path fill="#005779" d="M1133.5,506l-14.1,4.1c0,0-1.5,3.4,1.3,5.1l4.7-0.8C1125.5,514.4,1135.4,510.3,1133.5,506z"/>
			<path fill="#FFF3C1" d="M1039.3,528.4l-19.7-5.6l-0.9,1.9l22.9,10.3l6.1-18.7c0.8-8.6-1.6-15.6-4.5-12.1
				C1039,509.4,1039.3,528.4,1039.3,528.4z"/>
			<path fill="#FFF3C1" d="M1030.8,503.1c0,0-0.3,4.3,2.2,6.9s5.3,4,6.3,3c1-0.9-0.2-3.8-2.7-6.5c-2.5-2.6-4.7-4.5-4.7-4.5
				L1030.8,503.1z"/>
			<path fill="#0E1414" d="M1035.5,514.2l-19.2,9.7c-1.1,0.6-2.4,0.1-2.8-1.1l-5.9-16.9c-0.4-1.2,0.2-2.4,1.4-2.8l20.4-6.1
				c0.8-0.2,1.7,0.3,2,1.3l4.7,13.5C1036.6,512.7,1036.2,513.8,1035.5,514.2z"/>
			<path fill="#FF6152" d="M1034.6,513l-18.4,9c-0.3,0.1-0.6,0-0.7-0.3l-5.7-16.3c-0.1-0.3,0.1-0.6,0.3-0.7l19.4-6.1
				c0.2-0.1,0.4,0.1,0.5,0.3l4.7,13.5C1034.9,512.6,1034.8,512.9,1034.6,513z"/>
			<g>
				<path fill="#FFF3C1" d="M1007.2,520.7c0,0,2.1,3.8,5.6,4.6s6.6,0.4,6.9-1c0.3-1.3-2.3-3.1-5.8-3.9c-3.5-0.8-6.4-1.1-6.4-1.1
					L1007.2,520.7z"/>
				<path fill="#FFF3C1" d="M1019.7,524.3c0.7-2.9-3.5-2.7-5.4-5.7C1014.3,518.6,1011.8,522.5,1019.7,524.3z"/>
			</g>
			<path fill="#FFF3C1" d="M1037.4,511.1c0.5-2.9-3.7-2.5-5.7-5.4C1031.6,505.7,1029.4,509.8,1037.4,511.1z"/>
			<path fill="#08D0B7" d="M1049.2,515c-2.9,15.8-7.6,20-7.6,20l-2.6-4.1c0,0-1.9-6.1-1.4-16.4
				C1038.2,504.2,1050.6,507.5,1049.2,515z"/>
			<path fill="#08D0B7" d="M1042.2,529.9c-5.6-3.7-16.7-6.9-16.7-6.9l-1.3,5.8l17.4,6.2C1041.7,535,1044.6,532.2,1042.2,529.9z"/>
			<path fill="#08D0B7" d="M1087.8,535.8c-2.6,9.1-8,14.2-8,14.2c-19.8-5.6-40.9-39.6-40.9-39.6s2.4-5.4,5.8-8.7
				c0,0,3.8,3.8,8.2,1.3c4.4-2.5,3.7-6.2,3.7-6.2c13.2-0.6,12.5,22.5,31.5,23.7C1088,520.6,1090.3,526.7,1087.8,535.8z"/>
			<path fill="#005779" d="M1062.1,523.1c6.2-1.4,14.3-8.8,11.8-12.7s3.3-6.5,2.4-10.8s-5.7-4.2-3-8.2c2.1-3.2-3.2-5.1-3.6-8.4
				c-1-8.5-10.3-14.7-19.1-12.7c-8.8,2-14.6,11.6-11.8,19.7c1.1,3.1-2.9,7.1,0.4,9.1c4.1,2.5-0.2,4.4,0.8,8.7c1,4.3,7.4,4.1,6.8,8.8
				C1046,521.2,1055.8,524.5,1062.1,523.1z"/>
		</g>
	</g>
	<g>
		<path fill="#2912A7" d="M961.1,482.5l-1-9.1l-0.2-2l-0.9-11.9c0,0-14.5-0.2-31.1-0.4c0,0-1.4,1.1-1,6.2c0.4,5.1,2,6.6,2,6.6
			l12.8,0.3l0.1,1.9l-12.9,0.1c0,0-1.4,1.7-1,6.8c0.4,5.1,2,5.9,2,5.9C949.3,485.8,961.1,482.5,961.1,482.5z"/>
		<path fill="#EBC7C1" d="M922.5,443.1l-3.5-0.3l3.9,26c0.3,2.1,4,3.7,6.1,3c0,0,1.2-2.2,0.3-6.6
			C927.3,455.6,922.5,443.1,922.5,443.1z"/>
		<path fill="#EBC7C1" d="M939.5,457.5l-2.8-2.1l-10.5,24.1c-0.9,2,0.4,5.2,2.4,5.7c0,0,3.3-1.2,4.9-5.4
			C937,470.6,939.5,457.5,939.5,457.5z"/>
		<path fill="#08D0B7" d="M934.4,445.2l8.8,10.7c0,0-0.6,3.5-3.7,3.3l-3.2-3.1C936.3,456.1,930.6,447.6,934.4,445.2z"/>
		<path fill="#08D0B7" d="M908.3,441.4l13.8-1.3c0,0,2.5,2.4,0.6,4.9l-4.4,0.9C918.3,446,908.1,445.9,908.3,441.4z"/>
		<path fill="#005779" d="M1008.1,442.8c8.7-1.9,15.6,5,15.6,5l-9.4,20.8c0,0-5.2-8.5-12.8-9.2c-0.5,0-1-0.4-1.4-0.8
			c-1.4-2-4.2-5.8-8.6-5.3l6.3-13.9C1004,437.6,1008.1,442.8,1008.1,442.8z"/>
		<path fill="#FFFFFF" d="M1014,465.5c0,0-5.1-8.1-12.7-7.7l7.5-16.7c8.4-2.2,14.1,4.5,14.1,4.5L1014,465.5z"/>
		<path fill="#FFFFFF" d="M1001.3,457.8c0,0-3.3-6.4-8.3-5.6l6.1-13.6c5.8-2.5,9.7,2.5,9.7,2.5L1001.3,457.8z"/>
		
			<line fill="none" stroke="#DBE0DF" stroke-linecap="round" stroke-miterlimit="10" x1="1007.9" y1="443.2" x2="1002.3" y2="455.8"/>
		<path fill="#EBC7C1" d="M973,440.1c6.9-5.7,5.7,2.4,9.6-5.6c1.6-3.2,2.4,5.6,6.2,9.6c2,2.1-5,4.3-7.9,5.1
			C972.3,451.6,965.8,446.1,973,440.1z"/>
		<path fill="#FF7353" d="M945.9,472.5c2,8.7,6.9,13.8,6.9,13.8c19-4.3,37.6-27.7,38.4-33.7c2-14-6.8-6.9-10.8-9.4
			c-4-2.5-2-5.1-2-5.1c-9.5-2.4-14,19.8-32,20C946.4,458.1,944,463.8,945.9,472.5z"/>
		<path fill="#EBC7C1" d="M978.3,428.4c-0.8,9.4,6.5,13.1,10.7,13.5c4.2,0.4,12.1-2,12.9-11.4c0.6-7.2-3.5-13.5-10.7-14.1
			C984,415.8,978.9,421.2,978.3,428.4z"/>
		<path fill="#FFFB84" d="M977.9,428.2c0.6,6.4,11.6,8.4,11.6,8.4s11.2,0,12.9-6.2c0.9-3.5,0.7-7.3-0.4-10.7
			c-8.4-0.7-4.8-7.8-9.4-8.2C984.3,410.8,977.2,419.9,977.9,428.2z"/>
		<path fill="#FFFB84" d="M982,417.5c7,7.4,17.1,4.2,19.5-3.8C996.6,409,985.5,407,982,417.5z"/>
		<path fill="#FFFB84" d="M982,417.4c4.5,8.9,17.2,10.2,23.6,4.4C1002.3,415.9,990.7,409.9,982,417.4z"/>
		<path fill="#EBC7C1" d="M987.9,445.9c-9.1,3.3-12.5,23.8-2.3,13.5C991.5,453.5,987.9,445.9,987.9,445.9z"/>
		<path fill="#EBC7C1" d="M992.1,467.8l18.9-4.4l0.8,1.8l-22.2,8.6l-4.9-17.9c-0.4-8.1,2.2-12.6,4.8-9.1
			C993.2,451.9,992.1,467.8,992.1,467.8z"/>
		<g>
			<path fill="#EBC7C1" d="M1022.9,462c0,0-2.2,3.5-5.6,4.1c-3.4,0.6-6.3,0-6.5-1.3s2.3-2.8,5.7-3.4c3.4-0.6,6.1-0.8,6.1-0.8
				L1022.9,462z"/>
			<path fill="#EBC7C1" d="M1010.8,464.8c-0.5-2.7,3.5-2.4,5.4-5.2C1016.2,459.7,1018.4,463.5,1010.8,464.8z"/>
		</g>
	</g>
	<g>
		<path fill="#03807B" d="M496.9,402.7c15.3-52.9,37.5-94.2,60-87.2c22.4,7-8.2,90.7,0.3,122.3s6.9,47.2-37.8,41.3
			S496.9,402.7,496.9,402.7z"/>
		<path fill="#21AA9A" d="M557.9,314.6c-11.1-3.5-22.4,5.1-32.8,21l0,0c20.7-31.1,38.2-18.5,32.1,9.9c-6.1,28.3-23.8,67.4-10,98.7
			c13.8,31.3-0.3,34-11.9,36.2c29.8,0.2,32.2-15.1,24.8-42.5C551.6,406.2,580.3,321.6,557.9,314.6z"/>
		<path fill="none" stroke="#24D595" stroke-width="4" stroke-linecap="round" stroke-miterlimit="10" d="M530.7,501.1
			c-14.9-72.3,4.6-124.8,4.6-124.8"/>
	</g>
	<g>
		<path fill="#24D595" d="M2012.4,319.1c-17.6-61-44.4-109.7-70.3-101.6c-25.9,8.1,11.1,105.7,1.3,142.2
			c-9.8,36.5-8.5,54.5,43.1,47.7C2038.2,400.6,2012.4,319.1,2012.4,319.1z"/>
		<g>
			<polygon fill="#84FFC3" points="1956.6,218.6 1956.6,218.6 1956.6,218.5 			"/>
			<path fill="#84FFC3" d="M1990.4,406.7c-23.4,3.8-59.6,2.1-38.1-36.7c21.6-38.8-6.8-81.8-13.4-108c-5.7-22.8-0.6-45.6,11.7-45.2
				c-2.9-0.4-5.7-0.2-8.6,0.7c-25.9,8.1,7.2,105.7-2.6,142.2c-9.8,36.5-4.7,54.5,47,47.7C1987.9,407.2,1989.2,407,1990.4,406.7z"/>
		</g>
		<path fill="none" stroke="#1B8B7F" stroke-width="4" stroke-linecap="round" stroke-miterlimit="10" d="M1979.2,451.3
			c17.1-83.4-10.9-162.6-10.9-162.6"/>
	</g>
	<g>
		<path fill="#03807B" d="M2171.6,411.6c-2.4-37.3-11.6-68.7-27.6-67.3c-15.9,1.4-9.2,61.7-19.4,81.4c-10.2,19.7-9.6,30.7,21,33.3
			C2176.1,461.7,2171.6,411.6,2171.6,411.6z"/>
		<g>
			<polygon fill="#21AA9A" points="2152.2,346.8 2152.2,346.8 2152.2,346.8 			"/>
			<path fill="#21AA9A" d="M2147.9,459.2c-13.9-0.8-34.5-6.3-17.2-25.9c17.3-19.6,6.4-47.9,6-63.8c-0.4-13.8,5.4-26.3,12.5-24.5
				c-1.6-0.6-3.3-0.9-5-0.7c-15.9,1.4-9.2,61.7-19.4,81.4c-10.2,19.7-9.6,30.7,21,33.3C2146.3,459.2,2147.1,459.2,2147.9,459.2z"/>
		</g>
		<path fill="none" stroke="#24D595" stroke-width="4" stroke-linecap="round" stroke-miterlimit="10" d="M2135.8,483.4
			c20.4-45.7,14.3-94.8,14.3-94.8"/>
	</g>
	<g>
		<path fill="#24D595" d="M2183.8,493.2c39.3-39.3-4.6-101.9-49.7-57.4c-19.3,19-39.9,7.2-33-11.8c14.3-39.7-42.3-48.3-71.1-35.1
			c-61.2,28-21.7,81.2-44.2,87.5c-17.6,4.9-14.4-27.4-36.8-23.2c-14.6,2.8-17,21-4.6,38.7c0,0,16.6,12.9,102.9,0
			C2133.6,479.1,2183.8,493.2,2183.8,493.2z"/>
		<g>
			<path fill="#84FFC3" d="M2133.8,435.5c-7.2,7.4-14.7,10.2-20.8,9.9c3.1,3.9,9.4,4.3,16.9-2c10.6-9,27.6-25.5,47.6-21.6
				C2165,417.1,2149.2,419.8,2133.8,435.5z"/>
			<path fill="#84FFC3" d="M2029.9,388.9c-64.2,29.8-21.7,81.2-44.2,87.5c-0.5,0.1-1,0.2-1.4,0.3c7.5,1.6,14.1-2.4,13.9-11.7
				C1997.8,449.2,2003.9,402.9,2029.9,388.9z"/>
			<path fill="#84FFC3" d="M1969.2,465.1c-4.1-6.9-9-14.1-20.2-12.8c-18.9,2.2-18.3,24.5-4.6,39.7
				C1929.1,463.4,1959.3,448.8,1969.2,465.1z"/>
		</g>
	</g>
	<g>
		<g>
			<g>
				<path fill="#03807B" d="M2227.7,597.6c-6.8-2.8-25.3-9.4-46.7-8.7c-12.3,0.4-23.4,3.1-31.9,5.9c8-4.1,17.7-10.2,26.6-18.7
					c15.5-14.8,23.7-32.6,26.4-39.5c0.5-1.2-0.6-2.3-1.8-1.9c-6.9,2.5-25,10-40.5,24.8c-4.7,4.6-8.8,9.4-12.2,14.1
					c2.1-5.4,3.9-11.5,5.1-17.9c4-21.1,0.4-40.3-1.3-47.5c-0.3-1.2-1.9-1.5-2.6-0.5c-4.2,6.1-14.6,22.6-18.6,43.7
					c-1.4,7.3-1.9,14.5-1.8,20.9c-2.4-5.4-5.4-11.1-9.2-16.6c-12.1-17.7-28.2-28.8-34.5-32.7c-1.1-0.7-2.4,0.3-2.2,1.5
					c1.3,7.3,5.7,26.4,17.7,44.1c4.9,7.3,10.6,13.4,15.9,18.4c-6.3-3.7-13.8-7.4-22.2-10c-20.4-6.5-40-5.2-47.3-4.4
					c-1.2,0.1-1.7,1.7-0.8,2.5c5.5,4.9,20.7,17.3,41.2,23.8c21.3,6.8,41.7,5.1,48.2,4.3c6.9,2.8,25.3,9.3,46.6,8.6
					c21.4-0.7,39.4-8.4,46.1-11.6C2228.9,599.7,2228.8,598.1,2227.7,597.6z"/>
			</g>
		</g>
		<g>
			<g>
				<path fill="#06AD90" d="M2202,598.4c-5.6-2.2-18.7-6.6-33.8-6.1c-9.1,0.3-17.3,2.3-23.6,4.4c5.9-3,13.1-7.5,19.7-13.8
					c10.9-10.5,16.9-22.9,19.2-28.4c0.5-1.2-0.7-2.3-1.8-1.9c-5.6,2.1-18.3,7.6-29.2,18.1c-3.5,3.4-6.5,6.9-9,10.4
					c1.5-4,2.9-8.5,3.8-13.3c2.8-14.8,0.5-28.4-0.8-34.3c-0.3-1.2-1.9-1.5-2.6-0.5c-3.4,5-10.5,16.8-13.3,31.6
					c-0.9,4.5-1.2,8.8-1.3,12.9c-1.5-3.1-3.3-6.3-5.5-9.5c-8.5-12.5-19.7-20.5-24.8-23.7c-1.1-0.7-2.4,0.3-2.2,1.5
					c1.1,5.9,4.5,19.3,13,31.8c3.7,5.4,7.8,9.9,11.8,13.6c-4.7-2.7-10.2-5.4-16.4-7.4c-14.4-4.6-28.2-3.9-34.2-3.4
					c-1.3,0.1-1.7,1.7-0.8,2.5c4.5,3.9,15.4,12.4,29.8,17c15.2,4.8,29.8,3.9,35.1,3.2c5.6,2.2,18.7,6.5,33.7,6.1
					c15.1-0.5,27.9-5.7,33.3-8.2C2203.2,600.5,2203.2,598.9,2202,598.4z"/>
			</g>
		</g>
	</g>
	<path fill="#24D595" d="M1509.8,380.9c-27-27,9.4-69.5,36.5-38.8c12.3,14,27.6,6.3,22.5-7.9c-9.4-26.1,29.1-32.4,48.9-23.2
		c44.1,20.5,14.9,54.9,30.4,59.2c12.1,3.4,7-14.1,22.5-16.6c12.9-2.1,25.4,16.8,16,27.3c0,0-49.3,18.4-110,0
		C1540.6,369.9,1509.8,380.9,1509.8,380.9z"/>
	<g>
		
			<ellipse transform="matrix(0.9997 -2.240735e-02 2.240735e-02 0.9997 -5.3464 33.0924)" fill="#FF9084" cx="1474" cy="255.1" rx="7.7" ry="4"/>
		
			<ellipse transform="matrix(0.9997 -2.240735e-02 2.240735e-02 0.9997 -5.1773 33.512)" fill="#FFFFFF" cx="1492.8" cy="247.8" rx="9.7" ry="4.6"/>
		
			<ellipse transform="matrix(0.9997 -2.240735e-02 2.240735e-02 0.9997 -5.0924 32.8795)" fill="#FFFFFF" cx="1464.6" cy="243.7" rx="9.7" ry="3.9"/>
		
			<ellipse transform="matrix(0.9997 -2.240735e-02 2.240735e-02 0.9997 -5.3939 32.739)" fill="#FFFFFF" cx="1458.2" cy="257.1" rx="7.4" ry="2.3"/>
		
			<ellipse transform="matrix(0.9997 -2.240735e-02 2.240735e-02 0.9997 -5.4757 33.312)" fill="#FFFFFF" cx="1483.7" cy="261" rx="7.4" ry="2.3"/>
		<polyline fill="none" stroke="#FF9084" stroke-linecap="round" stroke-linejoin="round" stroke-miterlimit="10" points="
			1493.1,248 1493.1,250.1 1458.3,260.3 1458.2,257.6 		"/>
		<polyline fill="none" stroke="#FF9084" stroke-linecap="round" stroke-linejoin="round" stroke-miterlimit="10" points="
			1483.7,260.8 1483.8,263.6 1464.7,246.7 1464.6,244.6 		"/>
	</g>
	<g>
		<path fill="#84FFC3" d="M1528.2,331.5c-20-3.4-35.3,19.9-25,40.2C1498.6,356.7,1513.5,333.1,1528.2,331.5z"/>
		<path fill="#84FFC3" d="M1670.6,353.6c-6.4,1.1-9.3,4.7-11.3,8.3c6.5-9.6,26.7-7.7,30.7,10.2
			C1689.9,362.5,1680.4,352,1670.6,353.6z"/>
		<path fill="#84FFC3" d="M1658.1,364.2c-2.2,4.2-3.9,7.7-10,6c-1.9-0.5-3.1-1.5-3.9-2.9C1647.1,374.6,1654.3,373.8,1658.1,364.2z"
			/>
		<path fill="#84FFC3" d="M1643.1,360.4c0-0.4,0-0.9,0-1.4C1643.1,359.5,1643,359.9,1643.1,360.4z"/>
		<path fill="#84FFC3" d="M1637.3,325L1637.3,325c-3.9-5.4-10-10.5-19.5-14.9c-19.8-9.2-58.7-3.1-48.9,24.1
			C1560.1,308.5,1613.8,300.2,1637.3,325z"/>
		<path fill="#84FFC3" d="M1546.4,342.1c-1.6-1.6-3.2-3-4.8-4.3c16.1,25,34.8,14.5,27.7-2.2C1572.5,347.8,1558.9,354.9,1546.4,342.1
			z"/>
	</g>
	<g>
		<path fill="#2912A7" d="M1549.2,325.2c8,2.8,7.1,10.5,3.5,15.5c-4,5.5-10.6,7.3-10.6,7.3c-2.5-3-2.3-8.6-2.3-8.6s-5.3,1.8-8.9,0.3
			c0,0-0.2-6.8,3.9-12.3c3.7-5,10.7-8.1,15.8-1.3L1549.2,325.2z"/>
		<path fill="#FFEBEA" d="M1550.3,338.3c-3.7,5-9,3.6-11.2,2c-2.2-1.6-5.1-6.3-1.4-11.3c2.8-3.9,7.6-5.2,11.5-2.3
			C1553,329.5,1553.2,334.4,1550.3,338.3z"/>
		<polygon fill="#F29EAE" points="1541.9,331.3 1538.7,332.8 1541.5,334.9 		"/>
		<path fill="#2912A7" d="M1551.1,338.2c2.8-4.6,2.4-9.4-1.4-12.2c-3.8-2.8-8.5-1.8-12,2.3L1551.1,338.2z"/>
		<path fill="#FFEBEA" d="M1542,342l0.3-3.6c0.1-0.6-0.4-1.1-0.9-1.2l0,0c-0.6-0.1-1.2,0.3-1.3,0.8l-1,3.5c-0.2,0.8-1,1.4-1.8,1.3
			c-4-0.1,1.3,10,1.3,10l10.4-5c0,0-1.9-2.6-5.7-3.9C1542.4,343.7,1541.9,342.9,1542,342z"/>
		<path fill="#FFFFFF" d="M1524.8,407.9l8.4-0.8c0,0,0.2-1.4-1.2-2.4l-1.7-0.1C1530.3,404.6,1524.2,405.8,1524.8,407.9z"/>
		<path fill="#334040" d="M1532,405.4l-1.9,0.1l-1.5-16l0.6-18.7h6.8c-1.3,13-3.4,18.7-3.4,18.7C1533.8,394.5,1532,405.4,1532,405.4
			z"/>
		<path fill="#FFFFFF" d="M1539.6,413c-0.7,0.8-3,0.6-3,0.6s-0.8-2.2,3.2-4.5c0,0,1.5-0.1,2-0.2c0.7,0.4,0.6,1.6,0.6,1.6
			S1540.3,412.2,1539.6,413z"/>
		<path fill="#334040" d="M1543.3,373.3c0.1,7.4-2.8,18.9-2.8,18.9c2,4.9,1.4,16.7,1.4,16.7l-2,0.2l-2.7-16.6l-1.6-18.6
			L1543.3,373.3z"/>
		<path fill="#334040" d="M1542,373.9c-0.1-5.8-0.9-7.6-0.9-7.6h-10.1c0,0-0.8,1.7-0.9,7.6c0,0,0.1,4.5,5.9,4.5
			S1542,373.9,1542,373.9z"/>
		<path fill="#FFEBEA" d="M1522.5,357.3c0,0,3.9-5.1,6.2-8.2c2.4-3.1,6.3-4.3,5.7-1.7c-0.8,3.8-8.1,9.5-8.1,9.5
			C1524.1,358.9,1522.5,357.3,1522.5,357.3z"/>
		<path fill="#FFFB84" d="M1529.8,348.3c0,0,2.2,1.8,6.5,1.6l0.5-6.9C1530.9,342.7,1529.8,348.3,1529.8,348.3z"/>
		<path fill="#FF6152" d="M1528.8,371.7c0.6-7.6,2.8-11.2,3.1-17.9c0.3-6.4,2.9-11.1,5.3-10.9c0,0-0.3,2.5,2.6,3s4.6-2,4.6-2
			c2.5,1.1,3.9,2.3,3.9,2.3c0.2,8.1-5.1,16.8-4.7,27.8C1543.6,373.9,1533.3,377,1528.8,371.7z"/>
		<path fill="#FFEBEA" d="M1522.5,357.3l4.6,4.4l0.8-1.4c0,0-0.1-0.8-1.9-3.2C1525,355.6,1523.5,356.3,1522.5,357.3z"/>
		<g>
			<g>
				<path fill="#FFEBEA" d="M1529.8,365.6c0,0-2.2-0.7-2.6-2.1c-0.5-1.5-0.2-2.9,0.5-3.1c0.8-0.2,1.8,0.8,2.2,2.3
					c0.5,1.5,0.7,2.8,0.7,2.8L1529.8,365.6z"/>
			</g>
		</g>
		<path fill="#FFEBEA" d="M1546.1,362.4c-3.1-0.8-7.4,0.6-7.4,0.6l0,1.5l10.4,0.4l0.7-10.1c-0.3-5-1.6-7.5-3-5.2
			C1544.8,353,1546.1,362.4,1546.1,362.4z"/>
		<g>
			<g>
				<path fill="#FFEBEA" d="M1532.4,366.6c0,0,2.4,0.9,4.2-0.1c1.9-0.9,3.1-2.3,2.7-3s-2.2-0.5-4,0.4c-1.9,0.9-3.3,1.9-3.3,1.9
					L1532.4,366.6z"/>
			</g>
		</g>
		<path fill="#334040" d="M1534,366.4l-7.4-2.4c-0.5-0.1-0.5-0.8,0-1l3.3-1.4c0.2-0.1,0.5-0.1,0.7,0l7.4,2.4c0.5,0.1,0.5,0.8,0,1
			l-3.3,1.4C1534.5,366.5,1534.3,366.5,1534,366.4z"/>
		
			<line fill="none" stroke="#334040" stroke-width="0.5" stroke-linecap="round" stroke-miterlimit="10" x1="1524.6" y1="367.1" x2="1530.7" y2="364.6"/>
		<path fill="#FFEBEA" d="M1527.6,360.3c1.6-0.5,1.6,1.3,3.3,1.9C1530.9,362.3,1528.7,363.7,1527.6,360.3z"/>
		<path fill="#FFEBEA" d="M1539.4,363.5c-0.8-1.5-2.6,0.2-4.5-0.4C1534.8,363.1,1535.3,365.8,1539.4,363.5z"/>
		<path fill="#FFFB84" d="M1548.3,346.2c0,0,2.2,1.7,3.1,6l-6.6,2.1C1543,348.6,1548.3,346.2,1548.3,346.2z"/>
	</g>
	<path fill="#24D595" d="M1823.7,614.7c-12.6,33.9-94.8-63.3-119.3,17.4c-11,36.4-46.6,30.1-60.7,20.9c-10.7-7-34-1.4-37.9,17h390.5
		C2077.7,531.3,1868.4,494.8,1823.7,614.7z"/>
	<path fill="#84FFC3" d="M1823.7,614.7c-12.6,33.9-94.8-63.3-119.3,17.4c-7.6,25-26.8,29.9-42.6,27.4c46.9,15.4,61.7,1.3,72-19
		c10.4-20.3,14.9-35.4,64.1-14.1c124.8,54.1,94.1-92.7,185.7-70.4C1936.6,527.1,1850.5,542.7,1823.7,614.7z M1605.8,670h13.1
		c3.9-13.2,10.8-18.5,30.7-13.9c-2.2-0.9-4.2-2-5.9-3.1C1632.9,646,1609.7,651.6,1605.8,670z"/>
	<path fill="#03807B" d="M937.7,282.2c31.5,93.5-13,142.4-101,136.6c-87.9-5.8-82.3-92.9-7.7-211.3c26.9-42.6,77.2-89.3,110.7-71.1
		C992.9,165.5,922.2,236.2,937.7,282.2z"/>
	<g>
		<path fill="none" stroke="#24D595" stroke-width="4" stroke-linecap="round" stroke-miterlimit="10" d="M872.2,473.2
			c-43.7-135,9.2-230.5,9.2-230.5"/>
		<path fill="none" stroke="#24D595" stroke-width="4" stroke-linecap="round" stroke-miterlimit="10" d="M854.9,368.3
			c39.6-7.3,38.2-40.5,38.2-40.5"/>
	</g>
	<path fill="#CDFAB7" d="M453.7,570.9c9.3-10.6,13.4-21.2,12.1-31.6c-1.9-15.4-14.7-24.5-15.2-24.9c-0.9-0.6-2.2-0.4-2.8,0.5
		s-0.4,2.2,0.5,2.8c0.1,0.1,11.9,8.4,13.5,22.1c1.1,9.2-2.6,18.8-11.1,28.5c-9.1,10.3-14.6,22.4-16.5,35.7
		c-12.5-0.2-22.1-3.7-28.6-10.5c-9.5-9.8-9.2-23.2-9.2-23.3c0-1.1-0.8-2-1.9-2.1c-1.1,0-2,0.8-2.1,1.9c0,0.6-0.3,15.2,10.3,26.2
		c7.2,7.5,17.7,11.4,31.1,11.7c-0.5,5.2-0.4,10.5,0.3,15.9c1.8,15.3,7.9,31.4,17.5,46.1h4.8C427.2,628,436.3,590.7,453.7,570.9z
		 M541,562.6c-0.8,0-19.4,0.4-29.8,12.5c-5.6,6.5-7.8,15.1-6.3,25.6c2.3,17-8.3,23-20.6,30.1c-13.1,7.5-27.8,15.9-27.5,39.2h4
		c-0.2-20.9,12.8-28.4,25.5-35.7c12.4-7.1,25.2-14.5,22.5-34.1c-1.3-9.3,0.6-16.8,5.4-22.5c9.3-10.8,26.7-11.1,26.9-11.1
		c1.1,0,2-0.9,2-2C543,563.5,542.1,562.6,541,562.6z M333.2,638.8c-0.2-0.1-0.3-0.1-0.5-0.2c5.3-7.9,7.1-15.7,5.6-23.2
		c-2.7-12.9-14.8-20-15.3-20.3c-1-0.5-2.2-0.2-2.7,0.7c-0.5,1-0.2,2.2,0.7,2.7c0.1,0.1,11.1,6.4,13.4,17.6c1.4,6.6-0.5,13.7-5.6,21
		c-12.3-4.3-24.4-9.1-32.4-17.3c-9.9-10.1-12.1-24.6-6.8-44.3c0.3-1.1-0.3-2.2-1.4-2.5c-1.1-0.3-2.2,0.3-2.5,1.4
		c-13,47.4,18.4,58.3,46.1,68c18,6.3,35.2,12.3,39.5,27.5h4.1C371.3,652,352,645.3,333.2,638.8z"/>
	<path fill="#FF9084" d="M457.4,584.1c-5,0-9,4-9,4s4,3.9,9,3.9c5,0,9-4,9-4S462.4,584.1,457.4,584.1z M527.2,577
		c-4.9-0.8-9.6,2.4-9.6,2.4s3.3,4.6,8.2,5.4c4.9,0.8,9.6-2.4,9.6-2.4S532.2,577.8,527.2,577z M542.6,554.5c2.8-4.1,1.8-9.7,1.8-9.7
		s-5.5,1.1-8.3,5.2c-2.8,4.1-1.8,9.7-1.8,9.7S539.8,558.6,542.6,554.5z M357.3,662.3c-5-0.2-9.2,3.6-9.2,3.6s3.2,3.4,7.5,4.1h3.6
		c4-0.7,7-3.4,7-3.4S362.2,662.5,357.3,662.3z M544.8,572.1c-4.1-2.8-9.7-1.8-9.7-1.8s1.1,5.5,5.2,8.3s9.7,1.8,9.7,1.8
		S548.9,574.9,544.8,572.1z M281.5,613.7c0,0-3-4.8-7.9-5.9c-4.9-1.1-9.7,1.8-9.7,1.8s3,4.8,7.9,5.9S281.5,613.7,281.5,613.7z
		 M283.4,578.7c0,0,0.8-5.6-2.1-9.6c-2.9-4-8.5-5-8.5-5s-0.8,5.6,2.1,9.6C277.8,577.8,283.4,578.7,283.4,578.7z M269.2,586.8
		c4,3,9.6,2.4,9.6,2.4s-0.8-5.6-4.8-8.6c-4-3-9.6-2.4-9.6-2.4S265.3,583.8,269.2,586.8z M269.3,602.4c4.5,2.2,9.8,0.5,9.8,0.5
		s-1.8-5.3-6.3-7.6s-9.8-0.5-9.8-0.5S264.9,600.2,269.3,602.4z M278.2,619.9c-5-0.1-9.1,3.7-9.1,3.7s3.9,4.1,8.9,4.2
		c5,0.1,9.1-3.7,9.1-3.7S283.1,620,278.2,619.9z M512.7,629.7c-4.6-1.8-9.8,0.4-9.8,0.4s2.3,5.2,7,7c4.6,1.8,9.8-0.4,9.8-0.4
		S517.4,631.5,512.7,629.7z M520.9,589.8c-4.8,1.4-7.5,6.4-7.5,6.4s5,2.6,9.8,1.2s7.5-6.4,7.5-6.4S525.7,588.4,520.9,589.8z
		 M434.4,637.4c0,0-2.8-4.9-7.6-6.2c-4.8-1.3-9.8,1.4-9.8,1.4s2.8,4.9,7.6,6.2C429.5,640.1,434.4,637.4,434.4,637.4z M473.8,574
		c0,0-4.2-3.8-9.2-3.6c-5,0.2-8.9,4.3-8.9,4.3s4.2,3.8,9.2,3.6C469.9,578.1,473.8,574,473.8,574z M478.9,629.3c0,0,1-5.6-1.8-9.7
		c-2.8-4.1-8.3-5.2-8.3-5.2s-1,5.6,1.8,9.7C473.4,628.2,478.9,629.3,478.9,629.3z M520.1,604.3c-4.7,1.5-7.4,6.5-7.4,6.5
		s5.1,2.5,9.8,1c4.7-1.5,7.4-6.5,7.4-6.5S524.9,602.7,520.1,604.3z M518.1,617.9c-4.9-0.6-9.5,2.8-9.5,2.8s3.5,4.4,8.4,5.1
		s9.5-2.8,9.5-2.8S523.1,618.6,518.1,617.9z M515.5,560.7c0.5-5-3-9.4-3-9.4s-4.3,3.6-4.8,8.6s3,9.4,3,9.4S515,565.7,515.5,560.7z
		 M528.8,555c1.5-4.8-1.1-9.8-1.1-9.8s-5,2.7-6.4,7.5c-1.5,4.8,1.1,9.8,1.1,9.8S527.3,559.7,528.8,555z M354.3,654.1
		c0,0-5.1-2.5-9.8-1c-4.7,1.5-7.4,6.5-7.4,6.5s5.1,2.5,9.8,1C351.7,659.1,354.3,654.1,354.3,654.1z M342,628.8c-2.5,4.3-1,9.8-1,9.8
		s5.4-1.6,7.9-5.9c2.5-4.3,1-9.8,1-9.8S344.4,624.5,342,628.8z M346.2,599.4c2.1-4.5,0.2-9.8,0.2-9.8s-5.3,2-7.3,6.6
		c-2.1,4.5-0.2,9.8-0.2,9.8S344.1,604,346.2,599.4z M329.5,647.6c-4.6,1.9-6.8,7.1-6.8,7.1s5.2,2.1,9.8,0.2c4.6-1.9,6.8-7.1,6.8-7.1
		S334.1,645.7,329.5,647.6z M303.9,603.1c0,0,4.2,3.8,9.2,3.5s8.8-4.4,8.8-4.4s-4.2-3.8-9.2-3.5
		C307.7,598.9,303.9,603.1,303.9,603.1z M293.2,563c0.7-4.9-2.7-9.5-2.7-9.5s-4.5,3.5-5.1,8.4s2.7,9.5,2.7,9.5S292.5,568,293.2,563z
		 M305,581.8c0,0-5.5-1.2-9.7,1.4c-4.2,2.6-5.6,8.1-5.6,8.1s5.5,1.2,9.7-1.4C303.7,587.3,305,581.8,305,581.8z M357.8,645.1
		c0,0,4.4-3.5,5-8.5c0.6-4.9-2.8-9.4-2.8-9.4s-4.4,3.5-5,8.5S357.8,645.1,357.8,645.1z M342.6,616.4c0,0,5.6,1,9.7-1.8
		c4.1-2.8,5.3-8.3,5.3-8.3s-5.6-1-9.7,1.8C343.7,610.8,342.6,616.4,342.6,616.4z M319.6,593.6c0,0,0.8-5.6-2.1-9.6
		c-2.9-4-8.5-5-8.5-5s-0.8,5.6,2.1,9.6C314,592.7,319.6,593.6,319.6,593.6z M315.5,620.5c0,0-0.4,5.6,2.9,9.4
		c3.2,3.8,8.9,4.3,8.9,4.3s0.4-5.6-2.9-9.4C321.1,621,315.5,620.5,315.5,620.5z M331.2,597.1c0,0,3.8-4.2,3.6-9.2
		c-0.2-5-4.3-8.9-4.3-8.9s-3.8,4.2-3.6,9.2C327.1,593.2,331.2,597.1,331.2,597.1z M313,613c0,0,3.4,4.5,8.3,5.3s9.5-2.6,9.5-2.6
		s-3.4-4.5-8.3-5.3S313,613,313,613z M301.1,576.5c3.9-3.1,4.5-8.8,4.5-8.8s-5.6-0.5-9.5,2.6c-3.9,3.1-4.5,8.8-4.5,8.8
		S297.3,579.6,301.1,576.5z M299,637.6c-4.7,1.7-7.1,6.8-7.1,6.8s5.2,2.3,9.8,0.6s7.1-6.8,7.1-6.8S303.7,635.9,299,637.6z
		 M293,599.7c-2.7,4.2-1.7,9.7-1.7,9.7s5.5-1.2,8.3-5.3c2.7-4.2,1.7-9.7,1.7-9.7S295.7,595.6,293,599.7z M296.4,631.2
		c0,0-4.9-2.8-9.7-1.5c-4.8,1.3-7.7,6.1-7.7,6.1s4.9,2.8,9.7,1.5C293.5,636,296.4,631.2,296.4,631.2z M308.8,625.3
		c0,0,2.7-5,1.3-9.8c-1.4-4.8-6.3-7.6-6.3-7.6s-2.7,5-1.3,9.8C303.9,622.5,308.8,625.3,308.8,625.3z M315,642.4
		c-4.8,1.5-7.5,6.4-7.5,6.4s5,2.6,9.8,1.1c4.8-1.5,7.5-6.4,7.5-6.4S319.8,640.9,315,642.4z M437.1,652.8c0,0-2.3-5.1-7-6.9
		c-4.6-1.8-9.8,0.4-9.8,0.4s2.3,5.1,7,6.9C431.9,655.1,437.1,652.8,437.1,652.8z M430.5,601.3c0,0,1.9-5.3-0.1-9.8s-7.3-6.6-7.3-6.6
		s-1.9,5.3,0.1,9.8S430.5,601.3,430.5,601.3z M420.7,623.1c4.1,2.8,9.7,1.9,9.7,1.9s-1.1-5.5-5.2-8.4c-4.1-2.8-9.7-1.9-9.7-1.9
		S416.6,620.3,420.7,623.1z M415.6,576.7c0,0-5.2,2.1-7.2,6.7c-2,4.6,0,9.8,0,9.8s5.2-2.1,7.2-6.7
		C417.6,582,415.6,576.7,415.6,576.7z M408.8,571.7c1.6-4.7-0.8-9.8-0.8-9.8s-5,2.6-6.6,7.3c-1.6,4.7,0.8,9.8,0.8,9.8
		S407.2,576.4,408.8,571.7z M433.4,523.6c0,0,3.2,4.7,8.1,5.6c4.9,1,9.6-2.1,9.6-2.1s-3.2-4.7-8.1-5.6
		C438.1,520.5,433.4,523.6,433.4,523.6z M398,607c-4.2,2.7-5.5,8.2-5.5,8.2s5.5,1.1,9.7-1.5c4.2-2.7,5.5-8.2,5.5-8.2
		S402.2,604.3,398,607z M437.1,583.9c0,0,0.2-5.6-3.2-9.3c-3.4-3.7-9-4-9-4s-0.2,5.6,3.2,9.3C431.4,583.6,437.1,583.9,437.1,583.9z
		 M443.4,559.2c4,3,9.6,2.4,9.6,2.4s-0.8-5.6-4.8-8.6c-4-3-9.6-2.4-9.6-2.4S439.4,556.2,443.4,559.2z M434.7,511.4
		c4.2,2.6,9.8,1.4,9.8,1.4s-1.4-5.5-5.6-8.1c-4.2-2.6-9.8-1.4-9.8-1.4S430.4,508.8,434.7,511.4z M373.4,634.9c0,0-5.1,2.5-6.7,7.2
		c-1.7,4.7,0.7,9.8,0.7,9.8s5.1-2.5,6.7-7.2C375.8,640,373.4,634.9,373.4,634.9z M463.5,508c-0.1-5-4-9-4-9s-3.9,4.1-3.9,9.1
		c0.1,5,4,9,4,9S463.5,513,463.5,508z M391.1,603.8c4.7-1.7,7.1-6.8,7.1-6.8s-5.1-2.3-9.8-0.6s-7.1,6.8-7.1,6.8
		S386.5,605.5,391.1,603.8z M470.2,669.5c-0.5,0.1-0.9,0.3-1.3,0.5h8.8C475.8,669.4,473,668.8,470.2,669.5z M554.6,560.4
		c-5,0.2-8.8,4.4-8.8,4.4s4.2,3.7,9.2,3.5c5-0.2,8.8-4.4,8.8-4.4S559.5,560.1,554.6,560.4z M381.2,577.1c4.6,1.9,9.8-0.2,9.8-0.2
		s-2.2-5.2-6.8-7.1c-4.6-1.9-9.8,0.2-9.8,0.2S376.6,575.1,381.2,577.1z M394.6,588.2c0,0-3.8-4.2-8.8-4.5c-5-0.3-9.2,3.4-9.2,3.4
		s3.8,4.2,8.8,4.5C390.3,591.9,394.6,588.2,394.6,588.2z M383.1,653.8c3-4,2.3-9.6,2.3-9.6s-5.6,0.8-8.6,4.8c-3,4-2.3,9.6-2.3,9.6
		S380.1,657.7,383.1,653.8z M382.8,659c-3.9,3.1-4.7,8.7-4.7,8.7s5.6,0.6,9.5-2.4c3.9-3.1,4.7-8.7,4.7-8.7S386.8,655.9,382.8,659z
		 M394.2,566.2c0,0,2.8-4.9,1.6-9.7s-6.1-7.8-6.1-7.8s-2.8,4.9-1.6,9.7S394.2,566.2,394.2,566.2z M441.9,536.4c0,0,1.1,5.5,5.3,8.3
		s9.7,1.8,9.7,1.8s-1.1-5.5-5.3-8.3C447.5,535.4,441.9,536.4,441.9,536.4z M459.3,598.1c0,0-5.1-2.4-9.8-0.8
		c-4.7,1.6-7.3,6.7-7.3,6.7s5.1,2.4,9.8,0.8C456.7,603.2,459.3,598.1,459.3,598.1z M466.2,633.2c-0.8-4.9-5.4-8.2-5.4-8.2
		s-3.2,4.6-2.4,9.6c0.8,4.9,5.4,8.2,5.4,8.2S467.1,638.1,466.2,633.2z M485.5,644.7c-4.7-1.6-9.8,0.9-9.8,0.9s2.6,5,7.3,6.6
		s9.8-0.9,9.8-0.9S490.3,646.3,485.5,644.7z M451,639.1c0,0-3,4.8-1.9,9.7c1.1,4.9,5.8,8,5.8,8s3-4.8,1.9-9.7
		C455.7,642.2,451,639.1,451,639.1z M464.9,659.9c0,0,4.2,3.8,9.1,3.7c5-0.1,8.9-4.2,8.9-4.2s-4.2-3.8-9.1-3.7
		C468.8,655.8,464.9,659.9,464.9,659.9z M472.8,558.8c-5-0.5-9.4,3-9.4,3s3.6,4.4,8.5,4.9s9.4-3,9.4-3S477.7,559.4,472.8,558.8z
		 M434.9,659.7c-4.9-0.8-9.5,2.5-9.5,2.5s3.4,4.5,8.3,5.3c4.9,0.8,9.5-2.5,9.5-2.5S439.8,660.5,434.9,659.7z M452.5,632.2
		c3.1-3.9,2.5-9.5,2.5-9.5s-5.6,0.7-8.7,4.6c-3.1,3.9-2.5,9.5-2.5,9.5S449.4,636.1,452.5,632.2z M440.6,620.3c0,0,5.6,0.8,9.6-2.1
		c4-2.9,5-8.5,5-8.5s-5.6-0.8-9.6,2.1C441.6,614.8,440.6,620.3,440.6,620.3z M431,560.2c0,0,0.7,5.6,4.6,8.7s9.5,2.5,9.5,2.5
		s-0.7-5.6-4.6-8.7S431,560.2,431,560.2z M468.3,538.7c0,0,5.4,1.5,9.8-0.9c4.4-2.4,6-7.8,6-7.8s-5.4-1.5-9.8,0.9
		S468.3,538.7,468.3,538.7z M482.5,616.3c2.5,4.3,7.9,5.9,7.9,5.9s1.4-5.5-1-9.8c-2.5-4.3-7.9-5.9-7.9-5.9S480.1,612,482.5,616.3z
		 M476.4,544.4c-4.9,1-8,5.7-8,5.7s4.8,3,9.6,2s8-5.7,8-5.7S481.3,543.4,476.4,544.4z M477.9,513.4c0,0-5.7,0-9.2,3.5
		c-3.6,3.5-3.7,9.1-3.7,9.1s5.7,0,9.2-3.5C477.8,519,477.9,513.4,477.9,513.4z M500.7,609.6c0,0,0.2-5.6-3.2-9.3c-3.4-3.7-9-4-9-4
		s-0.2,5.6,3.2,9.3S500.7,609.6,500.7,609.6z M504.7,578.5c0,0,1.5-5.5-1-9.8c-2.4-4.3-7.9-5.9-7.9-5.9s-1.5,5.5,1,9.8
		C499.2,576.9,504.7,578.5,504.7,578.5z M501.4,591.5c0,0,0.1-5.6-3.3-9.3c-3.4-3.6-9.1-3.9-9.1-3.9s-0.1,5.6,3.3,9.3
		C495.7,591.2,501.4,591.5,501.4,591.5z M499.6,638c-4.3-2.4-9.8-1-9.8-1s1.6,5.4,5.9,7.9c4.3,2.4,9.8,1,9.8,1S504,640.4,499.6,638z
		"/>
	<g>
		<path fill="#24D595" d="M2351.6,581.5c-130.2,27.9-153.7-124.2-72.4-176.6c76-48.9,16.9-126.2,97.2-134.5
			c73.2-7.5,109.1,115.8,50.3,170C2376.7,486.5,2452.9,559.8,2351.6,581.5z"/>
		<g>
			<path fill="#84FFC3" d="M2430.9,293.1c-15.1-14.9-32.4-25.9-54.5-23.7c-80.3,8.3-23.1,84.6-99.1,133.5
				c-77.6,50-61.8,194.6,56.6,181.5c-53.6,5.1-108-38.2-77.5-116.3c27.2-69.6,80.1-57.4,80.1-123
				C2336.5,271.3,2391,253.8,2430.9,293.1z"/>
		</g>
		<g>
			<path fill="none" stroke="#1B8B7F" stroke-width="4" stroke-linecap="round" stroke-miterlimit="10" d="M2305.5,637.5
				c-30.8-150.1,68.1-251.2,68.1-251.2"/>
			<path fill="none" stroke="#1B8B7F" stroke-width="4" stroke-linecap="round" stroke-miterlimit="10" d="M2305.7,521.2
				c0,0,15.6,9.3,38.7-2.3"/>
			<path fill="none" stroke="#1B8B7F" stroke-width="4" stroke-linecap="round" stroke-miterlimit="10" d="M2316.5,483.1
				c0,0-27-7.8-20.1-30.4"/>
		</g>
	</g>
	<path fill="#03807B" d="M960.8,623.3c-7.8-0.9-40.4-3.8-74.4,7.8c-17.6,6-32.6,14.8-43.7,22.7c9.8-9.5,21.2-22.6,30.2-38.8
		c17.5-31.3,20.6-63.9,21.1-71.7c0-0.7-0.8-1.2-1.4-0.8c-6.4,4.5-32.6,24.2-50.1,55.5c-4.9,8.7-8.6,17.5-11.5,25.8
		c0.6-8.8,0.6-18.3-0.5-28.2c-3.9-35.7-20.2-64-24.4-70.7c-0.4-0.6-1.3-0.5-1.6,0.2c-2.6,7.4-12.5,38.6-8.6,74.3
		c1.2,11.2,3.7,21.8,6.6,31.1c-5.9-6.8-12.7-13.6-20.6-20c-27.9-22.5-59.6-31-67.2-32.8c-0.7-0.2-1.3,0.6-1,1.2
		c3.4,7.1,18.5,36.1,46.4,58.6c10.4,8.3,21.2,14.7,31.2,19.6c-10.8-2.6-23.2-4.6-36.5-4.7c-35.9-0.4-66,12.4-73.1,15.7
		c-0.7,0.3-0.7,1.2,0,1.6c0.2,0.1,0.5,0.2,0.8,0.4h191c7.7-1.3,15.8-3.3,23.9-6.1c34-11.5,58.1-33.7,63.7-39.2
		C961.8,624.3,961.5,623.4,960.8,623.3z"/>
	<path fill="#21AA9A" d="M940.7,135.5c-23.6-12.8-55.9,6.9-82.4,34.5c42.6-40.9,102-51.1,86.2,22.9s-35.4,72.1-22.1,125.2
		c13.3,53.1,16.4,80.1-36.8,97.3c55.2-13,80-59.1,55-133.3C925,236.2,993.9,164.5,940.7,135.5z"/>
	<g>
		<path fill="#B39F8B" d="M1625.2,501.4l-2.4-6.6c-0.4-1.1-1.6-1.7-2.7-1.4h0c-1.1,0.3-1.8,1.4-1.7,2.6l1.1,7
			c0.3,1.6-0.6,3.2-2.1,3.9c-7.2,3.1-7.2,7.5-7.2,7.5l17.7,9l14.2-17.4c0,0-5.4-3-13.2-2.2C1627.3,503.9,1625.7,502.9,1625.2,501.4z
			"/>
		<path fill="#005779" d="M1620.5,468.3c-6.2-3.8-6.7,2.1-6.7,2.1l0,0c-3.8-5.7-22.8,22.9-22.8,22.9s14,12.1,28.4,3.6
			C1633.8,488.3,1627.4,472.5,1620.5,468.3z"/>
		<path fill="#B39F8B" d="M1627.2,480c6.2,10.5-0.4,18.8-5,21.6c-4.7,2.7-15.1,4.4-21.3-6.1c-4.7-8-3.4-17.5,4.6-22.3
			C1613.6,468.5,1622.5,472,1627.2,480z"/>
		<path fill="#005779" d="M1613.7,470.4c2,15.7-10.7,27.8-22.8,22.9C1589,479.2,1595.5,453.6,1613.7,470.4z"/>
		<path fill="#005779" d="M1613.8,471.1c1,6.3,8.9,9.5,13.6,8.3C1624.2,471.7,1619,470.2,1613.8,471.1z"/>
		<polygon fill="#FFB7A5" points="1608.8,492 1608.5,499 1615,495.2 		"/>
		<g>
			<path fill="#B39F8B" d="M1654.3,532.4l6.7,24.2l2.3-0.4l-3.2-25.7l-10.3-16.7c-6.1-7.5-13.5-11.3-13.1-6.1
				C1637.4,515.1,1654.3,532.4,1654.3,532.4z"/>
			<g>
				<path fill="#B39F8B" d="M1670.1,567c0,0,0.6-4.8-2-7.9s-5.7-4.8-6.9-3.8c-1.2,1,0,4.3,2.6,7.4s5,5.4,5,5.4L1670.1,567z"/>
				<path fill="#B39F8B" d="M1661.2,555.3c-2.5,2.1,1.3,4.8,1,8.8C1662.2,564.1,1667.1,562.3,1661.2,555.3z"/>
			</g>
		</g>
		<path fill="#C7E543" d="M1639.6,503.5c0,0,5.3,1.2,10.3,8.1c5,6.9,8.4,11.6,8.4,11.6l-8.5,7.3c0,0-2.1-1-9.8-9.7
			C1632.3,512,1639.6,503.5,1639.6,503.5z"/>
		<path fill="#1F7698" d="M1607.5,581.4l14.3-8.1c0,0,3.9,1.4,3.1,5l-4.3,3.2C1620.6,581.4,1609.5,586.3,1607.5,581.4z"/>
		<path fill="#0E1414" d="M1620.1,578l0.3,3.5c0,0,44.9-3.5,44.2-7.2c-0.6-3.7-4.8-12.3-13.1-17.2l-16.4,15.4l15.8-0.3
			C1639.2,572.2,1620.1,578,1620.1,578z"/>
		<path fill="#0E1414" d="M1651.5,559.2c0.3-7.1-1.5-9.2-1.5-9.2l-25.7-1.7c0,0,2.2,3.3,1.2,14.6c0,0-10.5,8.3,5.6,9.3
			C1656,573.9,1651.5,559.2,1651.5,559.2z"/>
		<path fill="#B39F8B" d="M1618.1,542.5c0,0-9-14.2-9-21.7c0-5.2,1.4-10.1,6.8-2.1l7.1,26.7c0,0-3.2,1.1-5,1.6
			C1614.1,545.9,1618.1,542.5,1618.1,542.5z"/>
		<path fill="#C7E543" d="M1608.6,513.9c0,0-3.4,7.1,1.8,17.4l7.4-1.1C1618.8,518.6,1608.6,513.9,1608.6,513.9z"/>
		<path fill="#C7E543" d="M1635.9,561.8c-10.6-0.4-13-3.1-13-3.1c2.1-17-14.3-44.8-14.3-44.8s2.1-4.7,6.7-7.2c0,0,3.7,4.7,9.1,3.3
			s6.4-7.3,6.4-7.3c5.3,0,8.8,0.9,8.8,0.9c-1.2,1.2,7.8,31.2,13.5,51.8C1653.1,555.3,1646.5,562.2,1635.9,561.8z"/>
		<path fill="#1F7698" d="M1596.7,598.2l15.6-5.3c0,0,1.6-3.9-1.7-5.6l-5.2,1.1C1605.4,588.3,1594.4,593.4,1596.7,598.2z"/>
		<path fill="#0E1414" d="M1610.6,587.3l-3.4,1c0,0-8.2-30.9-3.4-42.8c4.5-11.1,29.4,18.6,29.4,18.6l-3.1,8.1
			c-11.2,0.8-21.7-18-21.7-18C1611.5,559.7,1610.6,587.3,1610.6,587.3z"/>
		<g>
			<g>
				<path fill="#B39F8B" d="M1600.4,558.6c0,0-1.8-4.6,0.1-8.2c1.8-3.6,4.4-6,5.8-5.3c1.4,0.7,1,4.2-0.8,7.8
					c-1.8,3.6-3.6,6.4-3.6,6.4L1600.4,558.6z"/>
				<path fill="#B39F8B" d="M1606.2,545.1c3,1.5-0.1,5,1.1,8.8C1607.3,553.9,1602.1,553.2,1606.2,545.1z"/>
			</g>
		</g>
		<path fill="#B39F8B" d="M1618.1,542.5c-6.6,0-13.5,2.9-13.5,2.9l0.6,2.2c0,0,8.6,0.6,12.8-0.7"/>
	</g>
	<g>
		<path fill="#FFB7A5" d="M1154.9,332c-0.1-4.3-0.9-5.6-0.9-5.6h-10.6c0,0-0.8,1.3-0.9,5.6c0,0,2.5,3.4,6.5,3.4
			C1152.8,335.4,1154.9,332,1154.9,332z"/>
		<path fill="#0E1414" d="M1141.9,361.3c-0.7,0.3-2.2-0.5-2.2-0.5s0.1-1.7,3.6-2.1c0,0,1,0.4,1.4,0.5c0.4,0.5-0.1,1.3-0.1,1.3
			S1142.6,360.9,1141.9,361.3z"/>
		<path fill="#0E1414" d="M1176.3,347.2c0.8-0.1,1.6-1.6,1.6-1.6s-1-1.4-4.1,0.2c0,0-0.7,0.9-0.9,1.2c0,0.6,0.7,1,0.7,1
			S1175.5,347.3,1176.3,347.2z"/>
		<path fill="#FFB7A5" d="M1148.1,332c-0.4,5.5-2.6,14.5-2.6,14.5c1.2,3.8-0.8,12.7-0.8,12.7l-1.4-0.5l-0.8-12.8l-0.1-13.9H1148.1z"
			/>
		<path fill="#FFB7A5" d="M1149.1,332c0.4,5.5,12.8,8,12.8,8c1.9,4,10.9,7,10.9,7l0.9-1.2l-9.3-8l-9.6-5.8H1149.1z"/>
		
			<ellipse transform="matrix(0.2507 -0.9681 0.9681 0.2507 575.7549 1334.5312)" fill="#0E1414" cx="1149.9" cy="295.3" rx="3.4" ry="3.4"/>
		
			<ellipse transform="matrix(0.9305 -0.3662 0.3662 0.9305 -30.0586 441.4867)" fill="#0E1414" cx="1148.7" cy="300" rx="3.4" ry="3.4"/>
		
			<ellipse transform="matrix(0.5376 -0.8432 0.8432 0.5376 275.2288 1110.803)" fill="#0E1414" cx="1150.4" cy="304.5" rx="3.4" ry="3.4"/>
		
			<ellipse transform="matrix(0.9982 -6.073051e-02 6.073051e-02 0.9982 -16.5204 70.6723)" fill="#0E1414" cx="1154.4" cy="307.1" rx="3.4" ry="3.4"/>
		
			<ellipse transform="matrix(0.7718 -0.6358 0.6358 0.7718 69.3564 807.0602)" fill="#0E1414" cx="1159.2" cy="306.9" rx="3.4" ry="3.4"/>
		
			<ellipse transform="matrix(0.2507 -0.9681 0.9681 0.2507 577.1933 1353.4998)" fill="#0E1414" cx="1162.9" cy="303.9" rx="3.4" ry="3.4"/>
		<path fill="#1B8B7F" d="M1157.5,308.3c0.1-0.2-1.3-0.8-3-1.2c-1.7-0.4-3.1-0.6-3.2-0.4c-0.1,0.2-0.8,3,2.3,3.9
			C1156.7,311.4,1157.4,308.6,1157.5,308.3z"/>
		
			<ellipse transform="matrix(0.9305 -0.3662 0.3662 0.9305 -28.7225 447.1225)" fill="#0E1414" cx="1164.2" cy="299.3" rx="3.4" ry="3.4"/>
		
			<ellipse transform="matrix(0.5376 -0.8432 0.8432 0.5376 289.019 1116.5613)" fill="#0E1414" cx="1162.5" cy="294.8" rx="3.4" ry="3.4"/>
		
			<ellipse transform="matrix(0.9982 -6.073051e-02 6.073051e-02 0.9982 -15.6029 70.8953)" fill="#0E1414" cx="1158.5" cy="292.1" rx="3.4" ry="3.4"/>
		
			<ellipse transform="matrix(0.7718 -0.6358 0.6358 0.7718 77.358 800.2656)" fill="#0E1414" cx="1153.7" cy="292.3" rx="3.4" ry="3.4"/>
		<path fill="#A79899" d="M1161.7,302.7c-1.2,4.5-5.2,5-7.2,4.5c-2-0.5-5.3-2.9-4.1-7.4c0.9-3.4,3.8-5.7,7.3-4.8
			S1162.6,299.3,1161.7,302.7z"/>
		<path fill="#0E1414" d="M1150.1,299.7c0,0,1.2-6.9,7.7-5.2c6.5,1.7,4.2,8.3,4.2,8.3s0.8-4.2-4.9-5.7
			C1151.4,295.6,1150.1,299.7,1150.1,299.7z"/>
		<polygon fill="#420709" points="1156.2,300.5 1154.3,302.6 1156.8,303.3 		"/>
		<path fill="#A79899" d="M1155.5,307.7l0.4-2.7c0.1-0.4-0.2-0.9-0.6-1l0,0c-0.4-0.1-0.9,0.1-1,0.5l-0.9,2.5c-0.2,0.6-0.8,1-1.4,0.9
			c-3-0.3-5,0.8-5,0.8l5.5,6.6l8-3.1c0,0-1.2-2-4-3.2C1155.7,308.9,1155.4,308.3,1155.5,307.7z"/>
		<g>
			<path fill="#A79899" d="M1167.4,316.5l11.8-6l-0.8-0.8l-9.4,3.7l-6.2-2.6c-3.5-1.3-6.7-1-5.5,0.6
				C1158.9,313.8,1167.4,316.5,1167.4,316.5z"/>
			<g>
				<path fill="#A79899" d="M1182.5,307c0,0-0.1,1.9-1.4,2.8c-1.2,0.9-2.5,1.3-2.9,0.9s0.3-1.6,1.6-2.6c1.2-0.9,2.3-1.6,2.3-1.6
					L1182.5,307z"/>
				<path fill="#A79899" d="M1178.3,310.6c-0.8-1,0.9-1.7,1.1-3.2C1179.3,307.4,1181,308.5,1178.3,310.6z"/>
			</g>
		</g>
		<g>
			<path fill="#FFFFFF" d="M1157.4,309.5c0,0,2-0.7,5,0.6c1.2,0.5,6.6,3.4,6.6,3.4l-1.5,3.1c0,0-4.9-1.4-6.5-1.9
				C1156.6,313.4,1157.4,309.5,1157.4,309.5z"/>
		</g>
		<path fill="#FFFFFF" d="M1159.9,311.1c0,0-1-1-2.8-1.9c0,0-1.1,1.8-2.7,2l0,0l-1.6,2.5l-0.2-2.9l0,0c-1.3-1-1.4-3.1-1.4-3.1
			c-2,0-3.4,0.3-3.4,0.3s-2.5,14.4-6.2,21.7c0,0,1.9,1.9,5.2,3l1.5-1.8l0.5,2.3c3.4,0.6,6-0.1,6-0.1
			C1155.1,324.9,1159.9,311.1,1159.9,311.1z"/>
		<g>
			<path fill="#A79899" d="M1142.3,319l-4.2,8.9l-0.8-0.3l2.7-9.3l3.9-6.4c2.3-2.9,4.6-3.9,4.4-1.9
				C1148.1,312.9,1142.3,319,1142.3,319z"/>
			<g>
				<path fill="#A79899" d="M1133,329.8c0,0,0.6-1.8,2.1-2.3s2.8-0.6,3-0.1c0.2,0.5-0.8,1.5-2.2,2.1s-2.6,0.9-2.6,0.9L1133,329.8z"
					/>
				<path fill="#A79899" d="M1138.1,327.3c0.5,1.2-1.3,1.4-1.9,2.8C1136.2,330.1,1134.9,328.7,1138.1,327.3z"/>
			</g>
		</g>
		<path fill="#FFFFFF" d="M1147.8,307.9c0,0-2,0.4-3.9,3.1c-0.7,1-3.9,7.3-3.9,7.3l2.8,0.9c0,0,3.5-3.7,4.6-5
			C1150.4,310.9,1147.8,307.9,1147.8,307.9z"/>
		<path fill="#08D0B7" d="M1152.6,310.7c0,0-1.2-1.6-1.3-4l-1,0.9c-0.1,1.7,1,4.6,1,4.6C1151.7,310.9,1152.6,310.7,1152.6,310.7z"/>
		<path fill="#08D0B7" d="M1154.4,311.2c0,0,1.8-0.8,3.1-2.8l0.4,1.3c-0.8,1.6-3.1,3.5-3.1,3.5
			C1155.1,311.7,1154.4,311.2,1154.4,311.2z"/>
		
			<ellipse transform="matrix(0.2507 -0.9681 0.9681 0.2507 557.5197 1352.1482)" fill="#08D0B7" cx="1152.2" cy="315.9" rx="0.6" ry="0.6"/>
		
			<ellipse transform="matrix(0.2507 -0.9681 0.9681 0.2507 553.6249 1353.8193)" fill="#08D0B7" cx="1151.3" cy="319.3" rx="0.6" ry="0.6"/>
	</g>
	<g>
		<path fill="#03807B" d="M1783.2,74.4c-54.6-1.5-116.1,91.1-98.7,159.4c17.4,68.3-67.2,77-62,150.1s202.4,143.1,273.4,46.6
			c38.3-52.1-35.5-84.9-2.5-135c23.1-35.1,25.6-83.4-14.6-112.6C1830.6,147.9,1846.1,76.1,1783.2,74.4z"/>
		<g>
			<path fill="none" stroke="#24D595" stroke-width="4" stroke-linecap="round" stroke-miterlimit="10" d="M1738.3,562.5
				c49.4-102.5,61.2-265.7,38.2-350.4"/>
			<path fill="none" stroke="#24D595" stroke-width="4" stroke-linecap="round" stroke-miterlimit="10" d="M1733.2,370.8
				c9.9,41.7,44.3,46,44.3,46"/>
			<path fill="none" stroke="#24D595" stroke-width="4" stroke-linecap="round" stroke-miterlimit="10" d="M1786.6,275
				c13-4.9,19.7-12.5,23.2-19.4"/>
		</g>
		<path fill="#21AA9A" d="M1833.4,109.4c-9.5-19.3-21.9-34.2-50.2-35c-54.6-1.5-120.9,91.1-103.5,159.4
			c17.4,68.3-62.4,68.9-57.2,150.1c2.6,40.3,53.9,74.3,112.8,87.3h0c-66.8-15.9-129.3-79.4-35.9-148.3s7.9-101.6,21.2-167.7
			C1733.8,89,1802.9,58.9,1833.4,109.4z"/>
	</g>
	<g>
		<g>
			<path fill="#0E1414" d="M1293,340.3c-2.5-11.7-15.1-24.1-26.8-21.6c-11.7,2.5-18.1,19-15.6,30.7c0,0,7.9,6.9,22.9,3.6
				S1293,340.3,1293,340.3z"/>
			<path fill="#FFFFFF" d="M1282.3,335.8c2,9.4-4.2,17.8-8.3,18.7c-4.2,0.9-13.3-4.2-15.3-13.6c-1.6-7.2,1.8-14.1,9-15.6
				C1274.9,323.8,1280.7,328.6,1282.3,335.8z"/>
			<path fill="#0E1414" d="M1282.6,333.8c-2.2-6.8-8.1-11.1-15.2-9.5s-10.8,7.9-9.9,15L1282.6,333.8z"/>
			<polygon fill="#A79899" points="1272.1,338 1271.5,345.4 1275.7,344.5 			"/>
		</g>
		<g>
			<path fill="#FFFFFF" d="M1244.4,389.6c6.4,3.2,14.3,18.7,14.3,18.7l-1.4,1.5l-19.8-20.4c0,0,7-12.5,12.3-17.5s13.5-11.6,13.6-7
				C1263.4,371.4,1244.4,389.6,1244.4,389.6z"/>
		</g>
		<path fill="#FFFFFF" d="M1296.2,393.1c4.9-5.3,21.8-9.5,21.8-9.5l1,1.8l-26.2,14.1c0,0-6.1-13.2-7.5-24
			c-0.6-4.6-2.1-11.1,2.3-11.8C1291.4,363.1,1296.2,393.1,1296.2,393.1z"/>
		<g>
			<path fill="#FFFFFF" d="M1331,386.9c0,0-3.9,3-7.9,2.2c-4-0.7-7-2.6-6.7-4.1c0.3-1.5,3.7-2.2,7.7-1.4c4,0.7,7.2,1.7,7.2,1.7
				L1331,386.9z"/>
			<path fill="#FFFFFF" d="M1316.4,385c0.6-3.3,4.8-1.3,8.1-3.5C1324.5,381.5,1325.4,386.7,1316.4,385z"/>
		</g>
		<path fill="#DF4611" d="M1282.7,358.2c0-0.6-3.9-1.1-8.7-1.1s-8.7,0.5-8.7,1.1s-0.1,8.5,8.7,8.5S1282.7,358.8,1282.7,358.2z"/>
		<path fill="#FFFFFF" d="M1276.5,357.7l-0.6-6.2c-0.1-1-1-1.8-2-1.8l0,0c-1,0-1.9,0.8-2,1.8l-0.6,6.2c-0.1,1.5-1.3,2.6-2.7,2.8
			c-6.8,1-10.8,3.4-10.8,3.4l16,13l16-13c0,0-3.9-2.4-10.8-3.4C1277.8,360.3,1276.7,359.2,1276.5,357.7z"/>
		<g>
			<path fill="#0E1414" d="M1293,507.2l-13.5-5.1c0,0-1.4-2.9,2-3.6l2.7,0.7l8.8,6.9V507.2z"/>
			<path fill="#08D0B7" d="M1280.4,499.2h3.7l8-37.2l-1.1-42.8h-15.2c3,27.8,8,42.8,8,42.8C1278.3,472,1280.4,499.2,1280.4,499.2z"
				/>
			<path fill="#08D0B7" d="M1256.9,419.2c0.2-10,2.3-12.9,2.3-12.9h29.5c0,0,2,3,2.3,12.9c0,0-2.1,4.6-17,4.6
				C1259,423.8,1256.9,419.2,1256.9,419.2z"/>
			<path fill="#0E1414" d="M1261.8,506.4h-4v-1.2c0,0,4.9-4.2,4.9-6c0,0,2.9,0,3.7,0c1,0.7,0.8,1.9,0.8,1.9L1261.8,506.4z"/>
			<path fill="#08D0B7" d="M1272,419.2c0,36.6-5.7,79.9-5.7,79.9h-3.7c0,0-5.7-43.3-5.7-79.9H1272z"/>
		</g>
		<g>
			<g>
				<path fill="#FFE884" d="M1291,363.9c0,0-3-1.6-7.7-2.7c0,0-3.8,5.6-9.3,5.6s-9.3-5.6-9.3-5.6c-4.7,1.1-7.7,2.7-7.7,2.7
					s5.4,15.3,5.4,25.7c0,10.4-5.4,18-5.4,25.7c0,0,7.2,3.8,17,3.8s17-3.8,17-3.8c0-7.7-5.4-15.3-5.4-25.7
					C1285.7,379.3,1291,363.9,1291,363.9z"/>
			</g>
			<path fill="#FF7353" d="M1274,366.8c0,0-6.7-2.4-8.7-8.6l-2,3.2c1,4.6,8.1,10.5,8.1,10.5C1271.7,367.9,1274,366.8,1274,366.8z"/>
			<path fill="#FF7353" d="M1274,366.8c0,0,6.7-2.4,8.7-8.6l2,3.2c-1,4.6-8.1,10.5-8.1,10.5C1276.4,367.9,1274,366.8,1274,366.8z"/>
			<circle fill="#FFFFFF" cx="1274" cy="375.8" r="1.2"/>
			<circle fill="#FFFFFF" cx="1274" cy="383" r="1.2"/>
		</g>
		<g>
			<path fill="#FFFFFF" d="M1256.3,422.3c0,0-3-3.9-2.2-7.9c0.7-4,2.6-7,4.1-6.7c1.5,0.3,2.2,3.7,1.4,7.7c-0.7,4-1.7,7.2-1.7,7.2
				L1256.3,422.3z"/>
			<path fill="#FFFFFF" d="M1258.2,407.8c3.3,0.6,1.3,4.9,3.5,8.1C1261.7,415.9,1256.6,416.7,1258.2,407.8z"/>
		</g>
	</g>
	<g>
		<path fill="#331416" d="M1571.2,548.6c-1.5-3.7-2.3-7.9-3.3-12.4c-2.2-10.9-5.3-19.1-17.9-22.7c0,0-0.1,0-0.1,0
			c-0.4-0.1-0.9-0.2-1.4-0.3c-0.1,0-0.2-0.1-0.3-0.1c-0.5-0.1-1.1-0.2-1.7-0.3s-1.1-0.1-1.7-0.2c-0.1,0-0.2,0-0.3,0
			c-0.5,0-1-0.1-1.4-0.1c0,0-0.1,0-0.1,0c-13.1-0.1-18.4,6.9-23.7,16.6c-2.2,4-4.2,7.8-6.7,10.9c-0.8,1-0.6,2.6,0.4,3.4
			c1,0.8,2.6,0.6,3.4-0.4c0.5-0.7,1.1-1.4,1.6-2.1c-0.8,2.8-1.1,3-1.9,5.3c-0.4,1.3,0.3,2.6,1.5,3.1c1,0.3,2.1-0.1,2.7-0.9
			c-0.3,1.5-0.3,1.4-0.6,2.7l-0.2,0.9c-0.2,1.3,0.6,2.6,1.9,2.8c0,0,0.1,0,0.1,0c1.1,0.2,2.2-0.5,2.6-1.5c-0.2,0.9-0.3,1.7-0.4,2.5
			l-0.2,0.9c-0.2,1.3,0.6,2.6,2,2.8c1.2,0.2,2.3-0.5,2.7-1.6c0,0.1,0,0.3-0.1,0.4l-0.1,0.7c-0.2,1.3,0.7,2.6,2,2.8c0,0,0,0,0,0
			c0.8,0.1,1.5-0.2,2-0.7c0,0.1,0,0.2,0,0.2l-0.2,1.5c-0.2,1.3,0.7,2.6,2,2.8c0,0,0,0,0,0c1.3,0.2,2.5-0.7,2.7-2l-0.3,2.4
			c-0.2,1.3,0.7,2.5,2,2.7c1.3,0.2,2.5-0.7,2.7-2l0.3-2.4c-0.2,1.3,0.7,2.5,2,2.7c0,0,0,0,0,0c1.3,0.2,2.5-0.7,2.7-2.1l0.2-1.5
			c0-0.1,0-0.1,0-0.2c0.4,0.6,1,1.1,1.7,1.2c0,0,0,0,0,0c1.3,0.2,2.5-0.8,2.7-2.1l0.1-0.7c0-0.1,0-0.3,0.1-0.4
			c0,1.2,0.9,2.1,2.1,2.3c0,0,0,0,0.1,0c1.3,0.2,2.5-0.8,2.7-2.1l0.1-0.9c0.1-0.8,0.2-1.6,0.3-2.5c0.1,1.1,0.9,2,2.1,2.2
			c0,0,0.1,0,0.1,0c1.3,0.1,2.5-0.8,2.7-2.1l0.1-0.9c0.1-1.3,0.1-1.2,0.2-2.7c0.3,0.8,1,1.5,1.9,1.6c0.1,0,0.3,0,0.4,0
			c1.3,0,2.4-1.1,2.3-2.5c-0.1-2.4-0.4-2.7-0.3-5.6c0.3,0.8,0.6,1.7,0.9,2.5c0.3,0.8,1.1,1.4,1.9,1.5c0.4,0.1,0.8,0,1.2-0.1
			C1571,551.2,1571.6,549.8,1571.2,548.6z"/>
		<path fill="#664D4E" d="M1558.7,535.4c-1.8,12.1-12.2,14.6-17.5,13.8c-5.4-0.8-14.6-6.1-12.8-18.2c1.4-9.3,8.4-15.9,17.7-14.6
			S1560.1,526.1,1558.7,535.4z"/>
		<path fill="#331416" d="M1528.4,530.3c0,0,0.4-18.4,17.8-15.8c17.5,2.6,12.5,20.3,12.5,20.3s1.9-13.4-13.5-12.9
			C1529.8,522.5,1528.4,530.3,1528.4,530.3z"/>
		<polygon fill="#A79899" points="1549.9,534.1 1545.3,541.7 1552.1,542.7 		"/>
		<path fill="#664D4E" d="M1535.5,549.2l1.7-6.9c0.3-1.1,1.4-1.9,2.5-1.7l0,0c1.2,0.2,2,1.2,1.9,2.4l-0.4,7.1
			c-0.1,1.7,0.9,3.2,2.5,3.7c7.5,2.3,7.9,6.7,7.9,6.7l-16.7,10.8l-15.8-15.1c0,0,4.9-4.3,12.7-4.2
			C1533.7,551.9,1535.1,550.8,1535.5,549.2z"/>
		<g>
			<path fill="#664D4E" d="M1505.1,580.3l-9.4,23.3l-2.2-0.6l6-25.2l12.1-15.5c6.9-6.8,13-10.9,13.1-5.8
				C1524.8,564.1,1505.1,580.3,1505.1,580.3z"/>
			<g>
				<path fill="#664D4E" d="M1485.1,613c0,0-0.1-4.9,2.8-7.7s6.2-4.1,7.2-3s-0.5,4.3-3.4,7.1c-2.9,2.8-5.6,4.8-5.6,4.8L1485.1,613z"
					/>
				<path fill="#664D4E" d="M1495.2,602.3c2.3,2.4-1.8,4.7-1.9,8.6C1493.3,610.9,1488.6,608.6,1495.2,602.3z"/>
			</g>
		</g>
		<path fill="#664D4E" d="M1526.5,625.7l-0.2,3.6c0,0,24.3-2.2,34.3-8.7c10-6.6-22.8-20.6-22.8-20.6l-6.6,5.6
			c2.9,10.9,20.9,12.4,20.9,12.4C1542.9,619.8,1526.5,625.7,1526.5,625.7z"/>
		<path fill="#0E1414" d="M1510,630.3l15.1-6.6c0,0,3.8,1.8,2.5,5.3l-4.6,2.7C1522.9,631.7,1511.4,635.4,1510,630.3z"/>
		<path fill="#664D4E" d="M1539.7,623.4l-0.4,3.5c0,0-40.5,0-40.6-3.7c-0.1-3.8,16.8-18.2,25-21.7l15,5.3l-27.3,13.3
			C1523.1,619,1539.7,623.4,1539.7,623.4z"/>
		<path fill="#0E1414" d="M1551.5,633l-10.7-12.5c0,0-4.2,0-4.6,3.7l3,4.4C1539.2,628.6,1548,637,1551.5,633z"/>
		<path fill="#08D0B7" d="M1506.7,611.7c3.7,6.9,13.2,6.3,13.2,6.3l7.3-3.6l8.6-0.4c0,0,4.5,2.8,7.3,3.4c9.6-1.5,11.2-9.8,11.2-9.8
			c-7.6-5.6-12.2-6.6-12.2-6.6l-23.3,0.8C1518.8,601.9,1512.4,605.2,1506.7,611.7z"/>
		<path fill="#664D4E" d="M1549.5,588.2c0,0,4.4-15,3.2-22.4c-1.5-9.4-2.3-10.6-6.8-2.1l-0.6,27.7c0,0,1.7,0.4,3.4,1.2
			C1552.7,592.4,1549.5,588.2,1549.5,588.2z"/>
		<path fill="#FFB7A5" d="M1532.9,606.8c10.5-1.5,12.8-2.2,12.8-2.2c-7.4-20,4-47.9,4-47.9s-1-1.6-4.5-2.8c0,0,0.4,10.1-8.6,9.5
			c-9-0.5-6.6-11.9-6.6-11.9c-5.3,0.1-6.3,1.3-6.3,1.3c-3.3,17.2-6.7,23.9-8,50.9C1515.7,603.8,1522.4,608.3,1532.9,606.8z"/>
		<g>
			<g>
				<path fill="#664D4E" d="M1562.2,601.2c-3.9-1-5.2-2.8-4.8-4.3c0.4-1.5,3.9-1.6,7.8-0.6C1567.5,596.9,1564.4,601.8,1562.2,601.2z
					"/>
			</g>
		</g>
		<path fill="#664D4E" d="M1549.5,588.2c6.5,1.3,13,8.8,13,8.8l-1,2.1c0,0-8.9-4.4-12.8-6.5"/>
		<path fill="#0E1414" d="M1577.5,579.7c2.1,2.1,3.9,5.4-1.7,10.9c-5.6,5.5-8.9,3.6-10.9,1.5L1577.5,579.7z"/>
		
			<line fill="none" stroke="#0E1414" stroke-width="2" stroke-linecap="round" stroke-miterlimit="10" x1="1558.1" y1="601.7" x2="1569" y2="591"/>
		<path fill="#664D4E" d="M1557.5,596.9c0.9-3.2,5-0.7,8.4-2.6C1565.9,594.3,1566.2,599.5,1557.5,596.9z"/>
		
			<ellipse transform="matrix(0.7117 -0.7025 0.7025 0.7117 41.403 1272.6682)" fill="#0E1414" cx="1571.2" cy="585.9" rx="8.9" ry="4.1"/>
		<path fill="#24D595" d="M1577.5,581.7c-1.2-1.1-5.2-0.8-8.3,2.2c-2.6,2.6-3.6,6.3-3.1,8c1.7,0.8,4.9-0.5,7.8-3.3
			C1576.3,586.2,1577.7,583.5,1577.5,581.7z"/>
	</g>
	<g>
		<path opacity="0.2" fill="#24D595" d="M1354.4,552.7c0,3.1-3.7,15.3-17.6,10.1c-14.6-5.5-31.1-7-31.1-10.1c0-3.1,9.5-5.6,24.3-5.6
			S1354.4,549.7,1354.4,552.7z"/>
		<path fill="#EBC7C1" d="M1333.4,444.5l-0.5-5.5c-0.1-0.9-0.8-1.6-1.8-1.6l0,0c-0.9,0-1.7,0.7-1.8,1.6l-0.5,5.5
			c-0.1,1.3-1.1,2.3-2.4,2.5c-6.1,0.9-8.1,4.2-8.1,4.2l12.7,10.3l12.7-10.3c0,0-2-3.3-8.1-4.2
			C1334.5,446.8,1333.5,445.8,1333.4,444.5z"/>
		<g>
			<path fill="#EBC7C1" d="M1344.1,474l-3.9,19.2l1.7,0.6l6.9-19l-1.2-15.3c-1.5-7.4-5.4-12.7-6.9-8.9
				C1338.4,456,1344.1,474,1344.1,474z"/>
			<g>
				<path fill="#EBC7C1" d="M1338.6,503.9c0,0,3.4-1.8,4.2-4.8c0.8-3.1,0.5-5.8-0.7-6.1c-1.2-0.3-2.8,1.9-3.6,5
					c-0.8,3.1-1.2,5.6-1.2,5.6L1338.6,503.9z"/>
				<path fill="#EBC7C1" d="M1342.1,493c-2.5-0.7-2.5,3-5.2,4.6C1336.9,497.5,1340.3,499.9,1342.1,493z"/>
			</g>
		</g>
		<path fill="#EBC7C1" d="M1343.8,495.6c-0.2-8.8-1.9-11.5-1.9-11.5h-21.7c0,0-1.7,2.6-1.9,11.5c0,0,5.1,6.9,13.2,6.9
			C1339.6,502.5,1343.8,495.6,1343.8,495.6z"/>
		<path fill="#FF7353" d="M1318.3,551.1c-5.4-2,0-5.6,6-1.9l1.2,1.2c0,0,1.6,3-0.9,3.6C1322.8,554.4,1320.9,552,1318.3,551.1z"/>
		<path fill="#FF7353" d="M1335.3,549.7c-3.8-2.7,2.1-4.8,5.9-0.5l0.6,1.3c0,0,0.2,2.9-2.2,2.9
			C1337.8,553.4,1337.1,551,1335.3,549.7z"/>
		<path fill="#EBC7C1" d="M1330,495.6c-0.8,11.2-5.8,28.3-5.8,28.3c2.4,7.7,0.2,25.4,0.2,25.4h-3.1l-2.2-25.4l-0.9-28.3H1330z"/>
		<path fill="#EBC7C1" d="M1332,495.6c0.8,11.2,5.8,28.3,5.8,28.3c-2.4,7.7-0.2,25.4-0.2,25.4h3.1l2.2-25.4l0.9-28.3H1332z"/>
		<path fill="#FF6152" d="M1331.2,515.6c-12.6,0-18.8-3.1-18.8-3.1c6-22.4,2.5-32.2,7.9-37.7h21.7c5.5,5.5,2,15.3,7.9,37.7
			C1349.9,512.5,1343.7,515.6,1331.2,515.6z"/>
		<g>
			<path fill="#EBC7C1" d="M1310.1,468.8l3.3-10.7c3.1-6.9,8-11.2,8.7-7.2c1,5.8-8.4,21.7-8.4,21.7s-2-0.3-2.9-1
				C1309.8,470.8,1310.1,468.8,1310.1,468.8z"/>
		</g>
		<g>
			<path fill="#2912A7" d="M1345.4,449.8l-5.1-2c0,0,0.1,8.5-9.2,8.5s-9.2-8.5-9.2-8.5l-5.1,2c0,0,4,15.8,2.8,25.9
				c0,0,3.4,2.9,11.5,2.9c8.1,0,11.5-2.9,11.5-2.9C1341.4,465.6,1345.4,449.8,1345.4,449.8z"/>
		</g>
		<path fill="#FFFFFF" d="M1318.2,503.5l-11.5-13.8c-0.2-0.2-0.2-0.4-0.2-0.7l1-15.5c0-0.5,0.5-0.9,1-0.9l12.1,0.7
			c0.5,0,0.9,0.5,0.9,1l-1.6,28.6C1319.8,503.8,1318.7,504.2,1318.2,503.5z"/>
		<g>
			<path fill="#EBC7C1" d="M1311.6,496.8c0.3-3.2,1.4-5.6,2.6-5.5c1.2,0.1,2,2.7,1.7,5.9c-0.3,3.2-0.5,4.1-0.5,4.1
				S1311.3,499.9,1311.6,496.8z"/>
			<path fill="#EBC7C1" d="M1314.2,491.3c2.6,0.2,1.4,3.7,3.4,6C1317.6,497.3,1313.6,498.4,1314.2,491.3z"/>
		</g>
		<path fill="#EBC7C1" d="M1308.9,472.8l4.5,19.6l1.7-0.5l-1.5-19.3l2.5-4.5c0,0-0.9-2.2-2.3-2.5s-3.2,1.4-3.2,1.4L1308.9,472.8z"/>
		<path fill="#EBC7C1" d="M1343.2,430.9c0,9.5-7.7,12.5-11.9,12.5c-4.2,0-11.9-3-11.9-12.5c0-7.3,4.6-13.2,11.9-13.2
			S1343.2,423.7,1343.2,430.9z"/>
		<path fill="#FFF784" d="M1339.1,413.9c-14.3-17.1-43.3,14.1-19.6,38.9C1324.2,438.2,1357.5,436,1339.1,413.9z"/>
	</g>
	<g>
		<path fill="none" stroke="#FFE884" stroke-linecap="round" stroke-miterlimit="10" d="M1584.5,621.2c0,0-1.5-0.1-2.2,1.7"/>
		<line fill="none" stroke="#FFE884" stroke-linecap="round" stroke-miterlimit="10" x1="1591" y1="615" x2="1591.5" y2="617.9"/>
		
			<line fill="none" stroke="#FFE884" stroke-linecap="round" stroke-miterlimit="10" x1="1601.9" y1="619.5" x2="1601.9" y2="620.7"/>
		<path fill="none" stroke="#FFE884" stroke-linecap="round" stroke-miterlimit="10" d="M1613.2,614.1c0,0-2-0.9-1.6,1"/>
		<path fill="none" stroke="#FFE884" stroke-linecap="round" stroke-miterlimit="10" d="M1610.9,616.5c0,0-1.2-0.9-1.9,0.7"/>
		<path fill="none" stroke="#FFE884" stroke-linecap="round" stroke-miterlimit="10" d="M1587,618.1c0,0-1.7-0.9-2.7,0.7"/>
		<path fill="none" stroke="#FF6152" stroke-width="2" stroke-linecap="round" stroke-miterlimit="10" d="M1584.8,622.8
			c0.6-6,6.8-8.1,13.4-4.8c6.6,3.3,14.6-0.5,15.8-5.4"/>
		<path fill="none" stroke="#FFE884" stroke-linecap="round" stroke-miterlimit="10" d="M1585.8,621.2c0,0,1.5-0.1,2.2,1.7"/>
		<path fill="none" stroke="#FFE884" stroke-linecap="round" stroke-miterlimit="10" d="M1588,618.1c0,0,1.9,0,2.1,1.9"/>
		<path fill="none" stroke="#FFE884" stroke-linecap="round" stroke-miterlimit="10" d="M1611.9,616.5c0,0,1.9,0,2.1,1.9"/>
		<path fill="none" stroke="#FFE884" stroke-linecap="round" stroke-miterlimit="10" d="M1614,614.1c0,0,1.9,0,2.1,1.9"/>
		<path fill="none" stroke="#FFE884" stroke-linecap="round" stroke-miterlimit="10" d="M1597.1,618c0,0-1.1,0.6-1,2.1"/>
		<path fill="none" stroke="#FFE884" stroke-linecap="round" stroke-miterlimit="10" d="M1610.1,618c0,0,1.1,0.6,1,2.1"/>
		<path fill="none" stroke="#FFE884" stroke-linecap="round" stroke-miterlimit="10" d="M1600.2,619.2c0,0-0.7,0.8-0.6,2"/>
		<path fill="none" stroke="#FFE884" stroke-linecap="round" stroke-miterlimit="10" d="M1606.9,619.2c0,0,0.7,0.8,0.6,2"/>
		<line fill="none" stroke="#FFE884" stroke-linecap="round" stroke-miterlimit="10" x1="1593.3" y1="616.8" x2="1593.3" y2="619"/>
		
			<line fill="none" stroke="#FFE884" stroke-linecap="round" stroke-miterlimit="10" x1="1603.6" y1="619.6" x2="1603.6" y2="621.9"/>
		
			<ellipse transform="matrix(0.3917 -0.9201 0.9201 0.3917 420.5322 1857.0428)" fill="#FFE884" cx="1614.7" cy="610.5" rx="2.1" ry="1.7"/>
		<line fill="none" stroke="#FFE884" stroke-linecap="round" stroke-miterlimit="10" x1="1614.2" y1="609.8" x2="1612.4" y2="605"/>
		
			<line fill="none" stroke="#FFE884" stroke-linecap="round" stroke-miterlimit="10" x1="1615.1" y1="610.5" x2="1616.1" y2="605.7"/>
	</g>
	<g>
		<path opacity="0.2" fill="#24D595" d="M1404.6,498.7c-0.5,3,0.6,9.7-16.6,6.8c-17.2-2.8-29-10.3-28.5-13.3c0.5-3,7.3-5.4,24.5-2.6
			C1401.2,492.5,1405.1,495.6,1404.6,498.7z"/>
		<path fill="#FFFFFF" d="M1398,380.1c-3.6,8.8-11.9,8.7-15.8,7.1c-3.9-1.6-9.9-7.3-6.3-16.1c2.8-6.7,9.3-10.4,16-7.6
			C1398.7,366.2,1400.8,373.4,1398,380.1z"/>
		<path fill="#2912A7" d="M1394.4,357.5c16.2,6.7,3.2,23.6,3.2,23.6c5-12.2-3.1-14-9-11.2s-8.7-3.5-8.7-3.5s-2.9,2.1-4.3,5.6
			C1375.6,372,1378.2,350.8,1394.4,357.5z"/>
		<g>
			
				<path fill="none" stroke="#0E1414" stroke-width="1.26" stroke-linecap="round" stroke-linejoin="round" stroke-miterlimit="10" d="
				M1383,373c-1.5-0.5-2.7-3.1-6.1-2.7c-0.5,0.1-0.9-0.2-0.9-0.2l-0.2,0.4c0,0,0.7,0.6,0.3,1.6"/>
			
				<path fill="none" stroke="#0E1414" stroke-width="1.26" stroke-linecap="round" stroke-linejoin="round" stroke-miterlimit="10" d="
				M1383,373c1.5,0.5,5.3-0.1,8.5,2.8c0.4,0.4,1.1,0.5,1.1,0.5l-0.2,0.4c0,0-1.2-0.1-1.5,0.9"/>
			
				<path fill="none" stroke="#0E1414" stroke-width="1.26" stroke-linecap="round" stroke-linejoin="round" stroke-miterlimit="10" d="
				M1391.5,375.7c0.1,1.3-1.3,3.8-2.7,4.5c-1.3,0.7-4.9-0.5-5.2-2.4c-0.4-2.1,0.7-3.5-0.8-4.1c-1.5-0.6-1.4,1.3-2.8,2.8
				c-1.2,1.3-3.8,0.2-4.1-1.1c-0.3-1.4,0.4-4.1,1.2-5.1"/>
		</g>
		<polygon fill="#FFD31C" points="1383.2,373 1378.4,378.7 1382.7,380.4 		"/>
		<path fill="#005779" d="M1392.8,390c-4.6-2-11.2-0.3-11.2-0.3s-3.8,3.8,3.8,3.5S1393,392.8,1392.8,390z"/>
		<path fill="#FFFFFF" d="M1388.2,389l-0.3-5.7c-0.1-0.9-0.8-1.7-1.7-1.7l0,0c-0.9,0-1.7,0.7-1.9,1.6l-0.7,5.6
			c-0.2,1.3-1.2,2.4-2.5,2.5c-6.3,0.7,4.3,15.1,4.3,15.1l15-10.1c0,0-3.4-3.6-9.6-4.7C1389.3,391.4,1388.3,390.3,1388.2,389z"/>
		<path fill="#FF6152" d="M1368.2,492.5l13.2-1.3c0,0,0.4-2.1-1.9-3.7l-2.7-0.1C1376.8,487.4,1367.3,489.1,1368.2,492.5z"/>
		<g>
			<path fill="#FFFFFF" d="M1373.3,421.2c0.7,4.9,0.6,13.8,0.6,13.8l-2,1.1l-3.1-15.5l2.6-15.7c2.2-7.4,5.2-10.8,6.4-6.8
				C1379.6,404,1373.3,421.2,1373.3,421.2z"/>
			<g>
				<g>
					<path fill="#FFFFFF" d="M1373.9,445.6c0,0-2.9-2.7-2.9-5.9c0-3.3,1.1-5.9,2.3-5.9c1.2,0,2.2,2.7,2.2,5.9c0,3.3-0.3,5.9-0.3,5.9
						L1373.9,445.6z"/>
				</g>
			</g>
			<path fill="#FFFFFF" d="M1373.4,433.8c2.7,0.1,1.5,3.7,3.7,6.1C1377,439.9,1373,441.1,1373.4,433.8z"/>
		</g>
		<path fill="#1F7698" d="M1380.5,391.4c0,0-6.2,2.5-8.6,8.7c-1,2.4-3,18.2-3,18.2s3.2,1.9,5.7,0c0,0,3.7-10.4,5-13.7
			C1381.3,400.1,1380.5,391.4,1380.5,391.4z"/>
		<path fill="#334040" d="M1379.5,488.6l-3,0.2l-2.3-24.9l1-29.1h10.6c-2.1,20.3-5.4,29.1-5.4,29.1
			C1382.2,471.6,1379.5,488.6,1379.5,488.6z"/>
		<path fill="#FF6152" d="M1391.3,500.5c-1.1,1.3-4.7,1-4.7,1s-1.3-3.4,5-7.1c0,0,2.3-0.2,3.1-0.2c1.1,0.6,1,2.5,1,2.5
			S1392.4,499.2,1391.3,500.5z"/>
		<path fill="#334040" d="M1397.1,438.6c0.1,11.6-3.3,29.5-3.3,29.5c3.1,7.7,1.2,26,1.2,26l-3.1,0.2l-4.3-25.9l-2.5-29L1397.1,438.6
			z"/>
		<path fill="#334040" d="M1395.1,439.5c-0.2-9.1-1.4-11.8-1.4-11.8H1378c0,0-1.2,2.7-1.4,11.8c0,0,0.1,7,9.2,7
			C1394.9,446.5,1395.1,439.5,1395.1,439.5z"/>
		<path fill="#FFB7A5" d="M1375.6,437.8c-0.7-11.9,1.8-18,0.7-28.4c-1-9.9,1.1-17.7,4.8-18.1c0,0-1.1,8.1,3.4,8.3
			c4.5,0.2,8.3-7.9,8.3-7.9c4.1,1.2,4.2,2.2,4.2,2.2c2.2,12.5-2.1,27,0.9,43.9C1397.9,437.9,1383.7,444.9,1375.6,437.8z"/>
		<path fill="#1F7698" d="M1388.6,443c7.1-0.5,11.5-3.3,11.5-3.3c-3.5-16.3-1.1-46.1-1.1-46.1s-2.5-1.4-6.5-2.4c0,0-1,4.1-4.1,5.4
			l0,0L1388.6,443z"/>
		<path fill="#1F7698" d="M1382.1,396.6L1382.1,396.6c-3.1-1.3-1.2-5.2-1.2-5.2c-3.9,0.5-5.8,6.1-5.8,6.1s1.7,25.9-1.8,42.2
			c0,0,1.5,2.8,8.6,3.3L1382.1,396.6z"/>
		<path fill="#FFFFFF" d="M1407.7,415c-3.3,0.7-11.2,10.5-11.2,10.5l1.3,2l15.6-11.6l-6.1-11.2c-4-6.7-7.6-9.2-7.9-5
			C1399.1,405.6,1407.7,415,1407.7,415z"/>
		<path fill="#1F7698" d="M1399,393.6c0,0,4,1.3,7.5,7c1.3,2.2,7,15.2,7,15.2s-3.2,0.5-5.8-0.8c0,0-6.9-5.8-9.1-8.7
			C1393.1,399.1,1399,393.6,1399,393.6z"/>
		<g>
			<g>
				<path fill="#FFFFFF" d="M1395.8,436.9c0,0,3.2-2.3,3.6-5.5c0.4-3.2-0.3-6-1.5-6.1c-1.2-0.2-2.6,2.3-2.9,5.6
					c-0.4,3.2-0.4,5.9-0.4,5.9L1395.8,436.9z"/>
			</g>
		</g>
		<path fill="#FFFFFF" d="M1397.9,425.3c-2.6-0.2-2,3.5-4.4,5.5C1393.5,430.8,1397.3,432.6,1397.9,425.3z"/>
		<path fill="#66ADCB" d="M1382.1,396.6c0,0-2-3.4-0.6-6.9l-2.5,2.5c-0.3,2.3,1.2,7.5,1.2,7.5
			C1380.2,396.7,1382.1,396.6,1382.1,396.6z"/>
		<path fill="#66ADCB" d="M1388.4,396.6c0,0,4.4-3.8,4.4-6.6l1.4,1.9c-1.2,3.3-3.3,8.9-3.3,8.9
			C1391.2,397.8,1388.4,396.6,1388.4,396.6z"/>
	</g>
	<g>
		<circle fill="#FFFFFF" cx="1098.2" cy="372.3" r="8.2"/>
		<path fill="#0E1414" d="M1105.5,368.7l-0.7,1.5l0.9,2.7l0.6-0.1c0-0.1,0-0.3,0-0.4C1106.4,371,1106.1,369.8,1105.5,368.7z
			 M1096.3,380l0.7,0.5c0.4,0.1,0.8,0.1,1.2,0.1c1,0,1.9-0.2,2.8-0.5l0.1-0.4l-2.7-0.5L1096.3,380z M1100.5,365.5l-1.1-1.3
			c-0.4-0.1-0.8-0.1-1.3-0.1c-0.7,0-1.4,0.1-2,0.3l-0.3,1.8l2.7,0.9L1100.5,365.5z M1090.5,372.2l-0.6,1.2c0.1,1.2,0.6,2.3,1.2,3.3
			l0.9-0.2l0-2.8L1090.5,372.2z M1096.4,371.6l1.1,3.6h3.4l1.1-3.6l-2.8-2.2L1096.4,371.6z"/>
	</g>
	<polygon fill="#24D595" points="1442.8,615.5 1433.3,600.6 1443.4,606.7 1436.7,588.1 1449.7,604.7 1451.4,592.4 1457.4,607.7 
		1462.9,599.1 1463.1,613.7 1470.2,605.4 1466.6,615.5 	"/>
	<polygon fill="#21AA9A" points="569.7,640.8 564.8,628.7 574.5,637.2 567.8,611.6 577.7,630.9 577.3,615.4 586.5,640.8 
		590.1,630.1 591,641.8 	"/>
	<polygon fill="#ABF3B0" points="1496.9,464.7 1499.5,455.5 1495,461.8 1495,445.8 1490.3,458.1 1488.6,449 1485.2,464.7 
		1481.1,458.9 1481.1,465.4 	"/>
	<polygon fill="#23BC98" points="1212.1,630.9 1217.7,624.1 1211.4,626.9 1210.3,611.4 1207,629.1 1201.4,619.1 1201.3,633.4 	"/>
	<polygon fill="#CDFAB7" points="794.3,429.6 799.7,425 794.3,426.3 795.7,413.7 790.5,427.5 788.7,415.7 787,429.6 	"/>
	<polygon fill="#ABF3B0" points="1135.2,441.9 1135.2,430.4 1138.9,438.5 1138.9,419.1 1145.8,438.5 1151.5,425.6 1149.9,438.5 
		1161.4,429.1 1154.9,441.9 	"/>
	<polygon fill="#23BC98" points="1806,545.3 1806,533.6 1809.8,541.8 1809.8,522.3 1816.8,541.8 1822.5,528.9 1820.9,541.8 
		1832.5,532.4 1825.9,545.3 	"/>
</g>
</svg>
