<?xml version="1.0" encoding="utf-8"?>
<!-- Generator: Adobe Illustrator 19.2.0, SVG Export Plug-In . SVG Version: 6.00 Build 0)  -->
<svg version="1.1" id="Layer_1" xmlns="http://www.w3.org/2000/svg" xmlns:xlink="http://www.w3.org/1999/xlink" x="0px" y="0px"
	 viewBox="0 0 48 48" enable-background="new 0 0 48 48" xml:space="preserve">
<path fill="#55ACEE" d="M34.2,19.3c0,0.2,0,0.4,0,0.6c0,6.3-4.8,13.6-13.6,13.6c-2.7,0-5.2-0.8-7.3-2.1c0.4,0,0.8,0.1,1.1,0.1
	c2.2,0,4.3-0.8,5.9-2c-2.1,0-3.8-1.4-4.5-3.3c0.3,0.1,0.6,0.1,0.9,0.1c0.4,0,0.9-0.1,1.3-0.2c-2.2-0.4-3.8-2.4-3.8-4.7
	c0,0,0,0,0-0.1c0.6,0.4,1.4,0.6,2.2,0.6c-1.3-0.9-2.1-2.3-2.1-4c0-0.9,0.2-1.7,0.6-2.4c2.4,2.9,5.9,4.8,9.8,5
	c-0.1-0.3-0.1-0.7-0.1-1.1c0-2.6,2.1-4.8,4.8-4.8c1.4,0,2.6,0.6,3.5,1.5c1.1-0.2,2.1-0.6,3-1.2c-0.4,1.1-1.1,2-2.1,2.6
	c1-0.1,1.9-0.4,2.7-0.8C36,17.7,35.2,18.6,34.2,19.3z"/>
</svg>
