<?xml version="1.0" encoding="utf-8"?>
<!-- Generator: Adobe Illustrator 19.2.0, SVG Export Plug-In . SVG Version: 6.00 Build 0)  -->
<svg version="1.1" id="Layer_1" xmlns="http://www.w3.org/2000/svg" xmlns:xlink="http://www.w3.org/1999/xlink" x="0px" y="0px"
	 viewBox="0 0 128.3 48" enable-background="new 0 0 128.3 48" xml:space="preserve">
<g>
	<g>
		<path fill="#FFFFFF" d="M27.3,22.8c0-3.2,2.6-4.8,2.8-4.9c-1.5-2.2-3.9-2.5-4.7-2.5c-2-0.2-3.9,1.2-4.9,1.2c-1,0-2.6-1.2-4.2-1.1
			c-2.1,0-4.1,1.3-5.2,3.2c-2.3,3.9-0.6,9.7,1.6,12.9c1.1,1.6,2.4,3.3,4,3.2c1.6-0.1,2.2-1,4.2-1c1.9,0,2.5,1,4.2,1
			c1.7,0,2.8-1.6,3.9-3.1c1.3-1.8,1.8-3.5,1.8-3.6C30.6,27.9,27.3,26.6,27.3,22.8z M24.1,13.3c0.9-1.1,1.5-2.6,1.3-4.1
			c-1.3,0.1-2.8,0.9-3.8,1.9c-0.8,0.9-1.5,2.5-1.3,3.9C21.7,15.2,23.2,14.4,24.1,13.3z M43.8,21.2l-4.3,13.3h2.2l1.2-3.9h4.3
			l1.2,3.9h2.3l-4.3-13.3H43.8z M43.3,29l1.1-3.5c0.3-1.1,0.5-1.9,0.6-2.5h0c0.3,1.3,0.6,2.2,0.7,2.5l1.1,3.5H43.3z M57.8,24.7
			c-1.4,0-2.5,0.6-3.2,1.7h0l-0.1-1.5h-1.9c0.1,1.1,0.1,2.1,0.1,3.2v10.3h2.1v-5.1h0c0.6,0.9,1.5,1.4,2.7,1.4c1.2,0,2.2-0.4,2.9-1.3
			c0.9-0.9,1.3-2.2,1.3-3.9c0-1.5-0.4-2.6-1.1-3.5C59.9,25.2,59,24.7,57.8,24.7z M59,32.1c-0.4,0.6-1.1,0.9-1.9,0.9
			c-0.7,0-1.2-0.2-1.7-0.7c-0.4-0.5-0.6-1.1-0.6-1.8V29c0-0.2,0-0.4,0.1-0.7c0.1-0.6,0.4-1,0.8-1.4c0.4-0.3,0.9-0.5,1.4-0.5
			c0.8,0,1.4,0.3,1.9,0.9c0.4,0.6,0.6,1.4,0.6,2.3C59.6,30.7,59.4,31.5,59,32.1z M68.9,24.7c-1.4,0-2.5,0.6-3.2,1.7h0l-0.1-1.5h-1.9
			c0.1,1.1,0.1,2.1,0.1,3.2v10.3h2.1v-5.1h0c0.6,0.9,1.5,1.4,2.7,1.4c1.2,0,2.2-0.4,2.9-1.3c0.9-0.9,1.3-2.2,1.3-3.9
			c0-1.5-0.4-2.6-1.1-3.5C70.9,25.2,70,24.7,68.9,24.7z M70,32.1c-0.4,0.6-1.1,0.9-1.9,0.9c-0.7,0-1.2-0.2-1.7-0.7
			c-0.4-0.5-0.6-1.1-0.6-1.8V29c0-0.2,0-0.4,0.1-0.7c0.1-0.6,0.4-1,0.8-1.4c0.4-0.3,0.9-0.5,1.4-0.5c0.8,0,1.4,0.3,1.9,0.9
			c0.4,0.6,0.6,1.4,0.6,2.3C70.7,30.7,70.4,31.5,70,32.1z M81.8,26.8c-0.9-0.4-1.6-0.7-1.9-1c-0.4-0.3-0.6-0.8-0.6-1.3
			c0-0.5,0.2-0.9,0.5-1.2c0.4-0.4,1-0.6,1.8-0.6c0.9,0,1.8,0.2,2.5,0.6l0.5-1.7c-0.8-0.4-1.8-0.6-3-0.6c-1.4,0-2.4,0.3-3.3,1
			c-0.8,0.7-1.2,1.6-1.2,2.7c0,1.7,1.2,2.9,3.5,3.8c0.9,0.3,1.5,0.7,1.8,1c0.4,0.4,0.6,0.8,0.6,1.4c0,0.6-0.2,1.1-0.7,1.5
			c-0.4,0.4-1.1,0.5-1.9,0.5c-1.1,0-2.1-0.3-3.1-0.9l-0.5,1.8c0.9,0.6,2,0.8,3.4,0.8c1.6,0,2.8-0.4,3.6-1.2c0.8-0.7,1.2-1.6,1.2-2.8
			c0-0.9-0.3-1.7-0.8-2.3C83.8,27.8,83,27.3,81.8,26.8z M89.9,22.5l-2.1,0.6v1.8h-1.4v1.6h1.4v4.8c0,1.2,0.2,2.1,0.7,2.6
			c0.5,0.5,1.1,0.8,2,0.8c0.7,0,1.2-0.1,1.7-0.2l-0.1-1.6c-0.2,0.1-0.6,0.1-0.9,0.1c-0.8,0-1.2-0.6-1.2-1.8v-4.7h2.3v-1.6h-2.3V22.5
			z M98.2,24.7c-1.5,0-2.6,0.5-3.5,1.4c-0.9,0.9-1.3,2.2-1.3,3.7c0,1.4,0.4,2.6,1.3,3.5c0.8,0.9,2,1.4,3.4,1.4
			c1.5,0,2.6-0.5,3.5-1.5c0.8-0.9,1.3-2.2,1.3-3.6c0-1.4-0.4-2.6-1.2-3.5C100.7,25.2,99.6,24.7,98.2,24.7z M100,32
			c-0.5,0.8-1.1,1.2-1.9,1.2c-0.8,0-1.5-0.4-1.9-1.1c-0.4-0.6-0.6-1.4-0.6-2.3c0-0.9,0.2-1.7,0.6-2.3c0.4-0.8,1.1-1.1,2-1.1
			c0.8,0,1.5,0.4,1.9,1.1c0.4,0.6,0.6,1.4,0.6,2.3C100.6,30.6,100.4,31.3,100,32z M107.7,25.2c-0.5,0.4-0.8,0.9-1.1,1.5h-0.1
			l-0.1-1.8h-1.9c0.1,0.9,0.1,1.9,0.1,3l0,6.6h2.1v-5c0-0.8,0.2-1.4,0.5-1.9c0.4-0.6,1-0.8,1.7-0.8c0.2,0,0.5,0,0.7,0.1v-2
			c-0.2,0-0.3,0-0.5,0C108.7,24.7,108.2,24.9,107.7,25.2z M119.3,29.3c0-1.2-0.3-2.2-0.8-3c-0.7-1-1.8-1.5-3.1-1.5
			c-1.4,0-2.5,0.5-3.4,1.5c-0.8,1-1.2,2.2-1.2,3.6c0,1.5,0.4,2.6,1.3,3.5c0.8,0.9,2,1.3,3.5,1.3c1.2,0,2.3-0.2,3.2-0.6l-0.3-1.5
			c-0.8,0.3-1.6,0.5-2.6,0.5c-0.9,0-1.6-0.2-2.1-0.7c-0.6-0.5-0.9-1.2-0.9-2.2h6.4C119.3,30,119.3,29.6,119.3,29.3z M112.8,28.7
			c0.1-0.6,0.3-1.2,0.6-1.7c0.4-0.6,1-0.9,1.7-0.9c0.8,0,1.3,0.3,1.7,0.9c0.3,0.5,0.4,1,0.4,1.6H112.8z M45.1,15.7
			c0.7-0.6,1.1-1.5,1.1-2.7c0-1-0.3-1.9-1-2.4c-0.6-0.5-1.4-0.7-2.6-0.7c-0.6,0-1.2,0-1.8,0.1v6.4c0.4,0.1,0.9,0.1,1.5,0.1
			C43.5,16.5,44.5,16.2,45.1,15.7z M41.9,10.7c0.2,0,0.5-0.1,0.8-0.1c0.8,0,1.4,0.2,1.8,0.6c0.4,0.4,0.6,1,0.6,1.8
			c0,0.9-0.2,1.5-0.7,2c-0.4,0.4-1.1,0.7-1.9,0.7c-0.3,0-0.6,0-0.7,0V10.7z M49.8,11.6c-0.7,0-1.3,0.2-1.7,0.7
			c-0.4,0.5-0.6,1.1-0.6,1.8c0,0.7,0.2,1.3,0.6,1.7c0.4,0.5,1,0.7,1.7,0.7c0.7,0,1.3-0.2,1.7-0.7c0.4-0.5,0.6-1.1,0.6-1.8
			c0-0.7-0.2-1.3-0.6-1.7C51,11.9,50.5,11.6,49.8,11.6z M50.7,15.2c-0.2,0.4-0.5,0.6-0.9,0.6c-0.4,0-0.7-0.2-1-0.6
			c-0.2-0.3-0.3-0.7-0.3-1.1c0-0.4,0.1-0.8,0.3-1.1c0.2-0.4,0.5-0.6,1-0.6c0.4,0,0.7,0.2,0.9,0.6c0.2,0.3,0.3,0.7,0.3,1.1
			S50.9,14.9,50.7,15.2z M59.9,11.7L59.9,11.7L59.9,11.7L59.9,11.7z M55.4,16.4l0.6-2c0.2-0.5,0.3-1,0.4-1.5h0
			c0.1,0.5,0.2,1,0.4,1.5l0.6,2h1l1.5-4.7h-1l-0.6,2.2c-0.1,0.6-0.2,1.1-0.3,1.6h0c-0.1-0.5-0.2-1-0.4-1.6l-0.6-2.2h-0.9L55.4,14
			c-0.2,0.6-0.3,1.1-0.4,1.5h0c-0.1-0.5-0.2-1-0.3-1.5l-0.5-2.2h-1.1l1.4,4.7H55.4z M64.3,13.7v2.7h1v-2.8c0-0.7-0.2-1.2-0.5-1.6
			c-0.3-0.3-0.7-0.4-1.1-0.4c-0.3,0-0.7,0.1-0.9,0.3c-0.2,0.2-0.4,0.3-0.5,0.6h0l0-0.7h-0.9c0,0.5,0,0.9,0,1.3v3.4h1v-2.8
			c0-0.3,0.1-0.6,0.3-0.8c0.2-0.2,0.4-0.3,0.8-0.3C64,12.5,64.3,12.9,64.3,13.7z M68.2,9.6h-1v6.9h1V9.6z M72.1,11.6
			c-0.7,0-1.3,0.2-1.7,0.7c-0.4,0.5-0.6,1.1-0.6,1.8c0,0.7,0.2,1.3,0.6,1.7c0.4,0.5,1,0.7,1.7,0.7c0.7,0,1.3-0.2,1.7-0.7
			c0.4-0.5,0.6-1.1,0.6-1.8c0-0.7-0.2-1.3-0.6-1.7C73.4,11.9,72.8,11.6,72.1,11.6z M73,15.2c-0.2,0.4-0.5,0.6-0.9,0.6
			c-0.4,0-0.7-0.2-1-0.6c-0.2-0.3-0.3-0.7-0.3-1.1c0-0.4,0.1-0.8,0.3-1.1c0.2-0.4,0.5-0.6,1-0.6c0.4,0,0.7,0.2,0.9,0.6
			c0.2,0.3,0.3,0.7,0.3,1.1S73.2,14.9,73,15.2z M78.4,15.9L78.4,15.9l0.1,0.5h0.9c0-0.3-0.1-0.7-0.1-1.1v-1.7c0-1.3-0.6-1.9-1.9-1.9
			c-0.6,0-1.2,0.1-1.6,0.4l0.2,0.7c0.4-0.2,0.8-0.3,1.2-0.3c0.7,0,1,0.3,1,0.9v0.1c-0.9,0-1.6,0.1-2,0.4c-0.5,0.3-0.7,0.7-0.7,1.3
			c0,0.4,0.1,0.7,0.4,1c0.3,0.3,0.6,0.4,1.1,0.4C77.6,16.5,78.1,16.3,78.4,15.9z M76.6,15c0-0.7,0.6-1,1.7-1v0.7c0,0.1,0,0.1,0,0.2
			c0,0.2-0.2,0.4-0.4,0.6c-0.2,0.1-0.4,0.2-0.6,0.2c-0.2,0-0.4-0.1-0.5-0.2S76.6,15.3,76.6,15z M85.4,9.6h-1v2.7h0
			c-0.3-0.4-0.7-0.6-1.3-0.6c-0.6,0-1.1,0.2-1.5,0.7c-0.4,0.5-0.6,1.1-0.6,1.9c0,0.7,0.2,1.3,0.6,1.7c0.4,0.4,0.8,0.7,1.4,0.7
			c0.7,0,1.2-0.3,1.5-0.9h0l0,0.8h0.9c0-0.4,0-0.8,0-1.3V9.6z M84.3,14.4c0,0.3-0.1,0.6-0.3,0.9c-0.2,0.3-0.5,0.4-0.8,0.4
			c-0.4,0-0.7-0.2-0.9-0.5c-0.2-0.3-0.3-0.7-0.3-1.1c0-0.5,0.1-0.9,0.3-1.2c0.2-0.3,0.5-0.5,0.9-0.5c0.3,0,0.5,0.1,0.7,0.3
			c0.2,0.2,0.3,0.4,0.4,0.6c0,0.1,0,0.2,0,0.3V14.4z M92,16.5c0.7,0,1.3-0.2,1.7-0.7c0.4-0.5,0.6-1.1,0.6-1.8c0-0.7-0.2-1.3-0.6-1.7
			c-0.4-0.5-1-0.7-1.7-0.7c-0.7,0-1.3,0.2-1.7,0.7c-0.4,0.5-0.6,1.1-0.6,1.8c0,0.7,0.2,1.3,0.6,1.7C90.8,16.3,91.3,16.5,92,16.5z
			 M91.1,13c0.2-0.4,0.5-0.6,1-0.6c0.4,0,0.7,0.2,0.9,0.6c0.2,0.3,0.3,0.7,0.3,1.1s-0.1,0.8-0.3,1.1c-0.2,0.4-0.5,0.6-0.9,0.6
			c-0.4,0-0.7-0.2-1-0.6c-0.2-0.3-0.3-0.7-0.3-1.1C90.8,13.6,90.9,13.3,91.1,13z M95.9,16.4h1v-2.8c0-0.3,0.1-0.6,0.3-0.8
			c0.2-0.2,0.4-0.3,0.8-0.3c0.6,0,1,0.4,1,1.2v2.7h1v-2.8c0-0.7-0.2-1.2-0.5-1.6c-0.3-0.3-0.7-0.4-1.1-0.4c-0.3,0-0.7,0.1-1,0.3
			c-0.2,0.2-0.4,0.3-0.5,0.6h0l0-0.7h-0.9c0,0.5,0,0.9,0,1.3V16.4z M104.9,14.9c0,0.6,0.1,1,0.4,1.3c0.2,0.3,0.6,0.4,1,0.4
			c0.3,0,0.6,0,0.8-0.1l0-0.8c-0.1,0-0.3,0-0.5,0c-0.4,0-0.6-0.3-0.6-0.9v-2.3h1.2v-0.8h-1.2v-1.2l-1,0.3v0.9h-0.7v0.8h0.7V14.9z
			 M111.6,13.8v2.7h1v-2.8c0-0.7-0.2-1.2-0.5-1.6c-0.3-0.3-0.6-0.4-1.1-0.4c-0.6,0-1.1,0.3-1.4,0.8h0V9.6h-1v6.9h1v-2.8
			c0-0.1,0-0.3,0-0.4c0.2-0.5,0.5-0.7,1-0.7C111.3,12.5,111.6,12.9,111.6,13.8z M116.5,16.5c0.6,0,1.1-0.1,1.6-0.3l-0.2-0.7
			c-0.4,0.1-0.8,0.2-1.3,0.2c-0.4,0-0.8-0.1-1-0.3c-0.3-0.2-0.4-0.6-0.5-1.1h3.1c0-0.1,0-0.3,0-0.5c0-0.6-0.1-1.1-0.4-1.5
			c-0.3-0.5-0.9-0.8-1.5-0.8c-0.7,0-1.2,0.3-1.6,0.8c-0.4,0.5-0.6,1.1-0.6,1.8c0,0.7,0.2,1.3,0.6,1.7
			C115.2,16.3,115.8,16.5,116.5,16.5z M115.5,12.8c0.2-0.3,0.5-0.4,0.8-0.4c0.4,0,0.7,0.1,0.8,0.4c0.1,0.2,0.2,0.5,0.2,0.8h-2.2
			C115.2,13.3,115.3,13,115.5,12.8z"/>
	</g>
</g>
</svg>
