<?xml version="1.0" encoding="utf-8"?>
<!-- Generator: Adobe Illustrator 19.2.0, SVG Export Plug-In . SVG Version: 6.00 Build 0)  -->
<svg version="1.1" id="Layer_1" xmlns="http://www.w3.org/2000/svg" xmlns:xlink="http://www.w3.org/1999/xlink" x="0px" y="0px"
	 viewBox="0 0 100 100" enable-background="new 0 0 100 100" xml:space="preserve">
<g>
	<g>
		<g>
			<path fill="#01D0B7" d="M51.3,13c-19.7,0-35.7,15.9-35.7,35.6c0,7.2,2.2,14,5.9,19.6c0,0-4-6.5,0,0c4,6.5,7.2,12.8-4.2,9.6
				S2.7,93.6,6.6,93c3.9-0.6,2.3-9.3,10.8-4.6c7.5,4.1,17.1,1.2,22.1-6.2c3.7,1.3,7.7,2,11.9,2C71,84.2,87,68.3,87,48.6
				C87,28.9,71,13,51.3,13z"/>
		</g>
	</g>
</g>
<path fill="#FFFFFF" d="M48.8,36.6L46.2,37c-0.8,0.1-1.2,0.6-1.1,1.4l1,8.4L36.8,48l-1-8.4c-0.1-0.9-0.6-1.2-1.4-1.1l-2.6,0.3
	c-0.8,0.1-1.2,0.6-1.1,1.4l2.7,22.2c0.1,0.9,0.6,1.2,1.4,1.1l2.6-0.3c0.8-0.1,1.2-0.6,1.1-1.4l-1.2-9.4l9.3-1.1l1.2,9.4
	c0.1,0.9,0.6,1.2,1.4,1.1l2.6-0.3c0.8-0.1,1.2-0.6,1.1-1.4l-2.7-22.2C50,36.9,49.6,36.5,48.8,36.6z M59.4,39.4
	c0.7-0.1,1-0.5,0.9-1.2L60,36c-0.1-0.7-0.5-1-1.2-0.9l-2.8,0.3c-0.7,0.1-1,0.5-0.9,1.2l0.3,2.2c0.1,0.7,0.5,1,1.2,0.9L59.4,39.4z
	 M59.7,42l-2.8,0.3c-0.7,0.1-1,0.5-0.9,1.2l2,16.1c0.1,0.7,0.5,1,1.2,0.9l2.8-0.3c0.7-0.1,1-0.5,0.9-1.2l-2-16.1
	C60.8,42.3,60.4,41.9,59.7,42z M69.3,51.9l1.9-0.2c0.7-0.1,1-0.5,1-1.3l-1.4-15.1c-0.1-0.9-0.5-1.2-1.3-1.2l-2.7,0.3
	c-0.8,0.1-1.1,0.6-1,1.4l2.3,15C68.1,51.7,68.5,52,69.3,51.9z M73.2,55.1c-0.1-0.9-0.6-1.2-1.4-1.1l-2.6,0.3
	c-0.8,0.1-1.2,0.6-1.1,1.4l0.3,2.3c0.1,0.9,0.6,1.2,1.4,1.1l2.6-0.3c0.8-0.1,1.2-0.6,1.1-1.4L73.2,55.1z"/>
</svg>
