<?xml version="1.0" encoding="utf-8"?>
<!-- Generator: Adobe Illustrator 19.2.0, SVG Export Plug-In . SVG Version: 6.00 Build 0)  -->
<svg version="1.1" id="Layer_1" xmlns="http://www.w3.org/2000/svg" xmlns:xlink="http://www.w3.org/1999/xlink" x="0px" y="0px"
	 viewBox="0 0 285.1 80" enable-background="new 0 0 285.1 80" xml:space="preserve">
<g>
	<circle fill="#FF6252" cx="40" cy="40" r="40"/>
	<path fill="#FFFFFF" d="M23.9,24.7v30.7c0,1.5,1.2,2.7,2.7,2.7h15.3V40l13.4-13.4c1.7-1.7,0.5-4.6-1.9-4.6H26.6
		C25.1,22,23.9,23.2,23.9,24.7z"/>
	<path fill="#DBE1E0" d="M41.9,40l13.4,13.4c1.7,1.7,0.5,4.6-1.9,4.6H30.3c-2.4,0-3.6-2.9-1.9-4.6L41.9,40z"/>
	<path fill="#3F4C4C" d="M102.8,55.6c-1,0-1.5-0.5-1.5-1.6V26.9c0-1.1,0.5-1.6,1.5-1.6h3.2c1,0,1.5,0.5,1.5,1.6v8.4
		c0,0.8,0,1.7-0.1,2.5h0.1l10.3-11.3c0.8-0.8,1.4-1.2,1.9-1.2h4.2c1.6,0,1.9,0.6,0.8,1.8l-9.6,10.5l10.3,16.1
		c0.8,1.2,0.5,1.8-0.8,1.8h-3.9c-0.7,0-1.4-0.4-1.9-1.2L111,42.1l-3.5,3.9V54c0,1.1-0.5,1.6-1.5,1.6H102.8z"/>
	<path fill="#3F4C4C" d="M135.9,55.6c-1,0-1.5-0.5-1.5-1.6V26.9c0-1.1,0.5-1.6,1.5-1.6h3.2c1,0,1.5,0.5,1.5,1.6V54
		c0,1.1-0.5,1.6-1.5,1.6H135.9z"/>
	<path fill="#3F4C4C" d="M153.1,55.6c-1,0-1.5-0.5-1.5-1.6V26.9c0-1.1,0.5-1.6,1.5-1.6h7.4c6.5,0,10.9,1.3,13.1,3.9
		c2.3,2.6,3.4,6.3,3.4,11.2s-1.1,8.6-3.4,11.2c-2.3,2.6-6.7,4-13.1,4H153.1z M157.8,50.3h2.3c4.4,0,7.2-0.8,8.5-2.4
		c1.3-1.6,1.9-4.1,1.9-7.5s-0.6-5.9-1.9-7.5c-1.3-1.6-4.1-2.4-8.5-2.4h-2.3V50.3z"/>
	<path fill="#3F4C4C" d="M186.3,55.6c-1,0-1.5-0.5-1.5-1.6V26.9c0-1.1,0.5-1.6,1.5-1.6h7.4c6.5,0,10.9,1.3,13.1,3.9
		c2.3,2.6,3.4,6.3,3.4,11.2s-1.1,8.6-3.4,11.2c-2.3,2.6-6.7,4-13.1,4H186.3z M191,50.3h2.3c4.4,0,7.2-0.8,8.5-2.4
		c1.3-1.6,1.9-4.1,1.9-7.5s-0.6-5.9-1.9-7.5c-1.3-1.6-4.1-2.4-8.5-2.4H191V50.3z"/>
	<path fill="#3F4C4C" d="M216.5,40.4c0-4.9,1.3-8.7,3.8-11.6c2.5-2.9,6.1-4.3,10.7-4.3c4.6,0,8.2,1.4,10.7,4.3
		c2.5,2.9,3.8,6.7,3.8,11.6s-1.3,8.7-3.8,11.6c-2.5,2.9-6.1,4.3-10.7,4.3c-4.6,0-8.2-1.4-10.7-4.3C217.8,49.1,216.5,45.3,216.5,40.4
		z M223.1,40.4c0,3.5,0.6,6.2,1.9,8.1c1.3,1.9,3.3,2.8,6,2.8c2.7,0,4.7-0.9,6-2.8c1.3-1.9,1.9-4.6,1.9-8.1c0-3.5-0.6-6.2-1.9-8.1
		c-1.3-1.9-3.3-2.8-6-2.8c-2.7,0-4.7,0.9-6,2.8C223.7,34.2,223.1,36.9,223.1,40.4z"/>
	<path fill="#3F4C4C" d="M254.8,55.6c-1,0-1.5-0.5-1.5-1.6V26.9c0-1.1,0.5-1.6,1.5-1.6h6.1c0.8,0,1.4,0.6,1.8,1.7l5.7,18.5
		c0.3,0.8,0.4,1.5,0.5,2c0.1,0.5,0.2,1.1,0.3,1.8h0.1c0.1-0.7,0.2-1.3,0.3-1.8c0.1-0.5,0.3-1.2,0.5-2l5.7-18.5
		c0.4-1.1,0.9-1.7,1.8-1.7h6.1c1,0,1.5,0.5,1.5,1.6V54c0,1.1-0.5,1.6-1.5,1.6h-3.2c-1,0-1.5-0.5-1.5-1.6V36.5c0-0.8,0-1.7,0.1-2.5
		h-0.1l-6.1,19.9c-0.4,1.1-1,1.7-1.8,1.7h-3.6c-0.9,0-1.5-0.6-1.8-1.7L259.5,34h-0.1c0.1,0.8,0.1,1.7,0.1,2.5V54
		c0,1.1-0.5,1.6-1.5,1.6H254.8z"/>
</g>
</svg>
