<?xml version="1.0" encoding="utf-8"?>
<!-- Generator: Adobe Illustrator 16.0.0, SVG Export Plug-In . SVG Version: 6.00 Build 0)  -->
<!DOCTYPE svg PUBLIC "-//W3C//DTD SVG 1.1//EN" "http://www.w3.org/Graphics/SVG/1.1/DTD/svg11.dtd">
<svg version="1.1" id="Layer_1" xmlns="http://www.w3.org/2000/svg" xmlns:xlink="http://www.w3.org/1999/xlink" x="0px" y="0px"
	 width="760px" height="466px" viewBox="0 0 760 466" enable-background="new 0 0 760 466" xml:space="preserve">
<rect y="-0.001" fill="#573FDF" width="760" height="466.001"/>
<g>
	<defs>
		<rect id="SVGID_5_" y="-0.001" width="760" height="466.001"/>
	</defs>
	<clipPath id="SVGID_2_">
		<use xlink:href="#SVGID_5_"  overflow="visible"/>
	</clipPath>
	<path clip-path="url(#SVGID_2_)" fill="#00D0B8" d="M616.463,300.467c0.84,9.697-6.984,20.203-7.72,30.023
		c0,0,1.334,2.885,4.323,6.752l-3.247,88.635L619.011,466h18.271c-0.881-14.836-3.098-29.871-8.041-38.842
		c0,0,8.169-24.686,14.775-71.043c1.939,0.359,3.96,0.637,6.085,0.797h-0.001c2.01,0.148,3.944,0.184,5.816,0.131
		c1.103,39.43,4.449,79.623,7.388,108.957h18.365c3.275-32.699,7.06-78.893,7.674-122.479c0.137-0.219,0.278-0.436,0.409-0.656
		c0.021-0.02,0.04-0.039,0.062-0.061l21.253,5.92c1.437,0.4,2.925-0.439,3.325-1.877l11.764-42.24c0.4-1.438-0.44-2.926-1.877-3.326
		l-7.885-2.195l11.643-15.27l-8.151-24.652c1.665-1.74,4.065-3.232,7.562-4.375c0,0-6.682-33.213-38.264-48.749
		c-0.02,0.214-0.062,0.429-0.117,0.647c-3.863-1.725-9.088-3.651-15.573-5.11c-3.186-0.717-5.478-3.519-5.536-6.782l-0.032-1.759
		c3.809-1.772,6.577-4.873,8.021-8.497c7.208,2.792,15.56-0.027,19.484-6.951c2.099-3.705,2.531-7.893,1.558-11.717
		c7.472-1.979,12.572-9.167,11.677-17.076c-0.479-4.23-2.591-7.873-5.627-10.395c4.883-5.992,4.784-14.807-0.59-20.678
		c-2.874-3.143-6.724-4.848-10.661-5.104c0.428-7.717-4.833-14.789-12.632-16.382c-4.172-0.853-8.289,0.03-11.625,2.14
		c-4.19-6.496-12.604-9.125-19.848-5.83c-3.877,1.764-6.688,4.897-8.147,8.563c-7.208-2.792-15.56,0.026-19.485,6.952
		c-2.099,3.703-2.531,7.892-1.557,11.716c-7.473,1.978-12.573,9.167-11.677,17.075c0.479,4.232,2.59,7.875,5.626,10.396
		c-4.883,5.992-4.783,14.806,0.59,20.679c2.874,3.142,6.724,4.847,10.662,5.103c-0.43,7.717,4.833,14.789,12.632,16.382
		c4.171,0.852,8.288-0.031,11.624-2.139c2.064,3.199,5.146,5.453,8.618,6.527l-0.023,0.141c-0.544,3.22-3.227,5.648-6.483,5.884
		c-6.626,0.479-12.084,1.606-16.16,2.737c-0.023-0.223-0.032-0.442-0.02-0.655c-33.541,10.668-57.726,35.442-57.726,35.442
		c0.324,0.236,0.618,0.469,0.931,0.705c-3.146,3.223-5.089,5.438-5.089,5.438c-13.256-16.119-33.646-28.663-40.292-32.514
		l-2.889,4.771l42.482,46.528c0,0,8.185-5.078,18.229-11.736c7.631,11.422,3.949,20.525,10.276,30.273
		C608.903,294.828,615.623,290.771,616.463,300.467 M704.285,295.373c-0.056,0.098-0.113,0.195-0.169,0.293l-0.183-0.051
		C704.049,295.537,704.167,295.455,704.285,295.373"/>
	<path clip-path="url(#SVGID_2_)" fill="#00D0B8" d="M499.136,68.229c2.761,0,5,2.238,5,5v243.436c0,2.764-2.239,5-5,5H78.389
		c-2.762,0-5-2.236-5-5V73.229c0-2.762,2.238-5,5-5H499.136 M499.136,62.229H78.389c-6.065,0-11,4.934-11,11v243.436
		c0,6.066,4.935,11,11,11h420.747c6.064,0,11-4.934,11-11V73.229C510.136,67.162,505.2,62.229,499.136,62.229"/>
	<path clip-path="url(#SVGID_2_)" fill="#331416" d="M698.473,115.68c-0.532-4.701-2.879-8.75-6.252-11.551
		c5.426-6.66,5.314-16.453-0.656-22.979c-3.194-3.49-7.472-5.386-11.848-5.669c0.476-8.577-5.37-16.436-14.037-18.205
		c-4.637-0.947-9.211,0.033-12.917,2.377c-4.657-7.219-14.006-10.141-22.058-6.477c-4.307,1.959-7.432,5.44-9.054,9.515
		c-8.009-3.103-17.29,0.028-21.651,7.725c-2.333,4.116-2.813,8.771-1.73,13.021c-8.304,2.197-13.973,10.186-12.977,18.975
		c0.532,4.702,2.879,8.749,6.252,11.551c-5.426,6.659-5.314,16.453,0.656,22.979c3.194,3.489,7.471,5.386,11.848,5.67
		c-0.476,8.575,5.37,16.435,14.037,18.204c4.636,0.947,9.211-0.034,12.917-2.377c4.656,7.219,14.006,10.14,22.058,6.478
		c4.307-1.959,7.431-5.442,9.053-9.516c8.01,3.103,17.291-0.029,21.652-7.726c2.332-4.115,2.813-8.77,1.73-13.019
		C693.801,132.457,699.468,124.469,698.473,115.68"/>
	<path clip-path="url(#SVGID_2_)" fill="#2912A7" d="M639.441,318.793c0,51.193,4.483,107.617,8.407,147.207h20.844
		c3.924-39.59,8.406-96.014,8.406-147.207H639.441z M592.408,318.752l-2.836,106.258l8.807,40.99h20.633
		c-1.063-15.771-3.545-31.461-8.797-40.99c0,0,12.308-37.156,19.851-106.258H592.408z"/>
	<path clip-path="url(#SVGID_2_)" fill="#664D4E" d="M591.385,187.644c-17.72,2.429-44.782,33.267-44.782,33.267
		c-14.73-17.912-37.39-31.851-44.774-36.131c-0.811-5.045-9.395-7.504-12.481-15.168c0,0-1.846,1.981-1.888,4.979
		c-0.065-0.029-0.129-0.059-0.194-0.088c-9.277-3.949-17.145-6.336-17.145-6.336l-1.586,3.727c0,0,3.999,11.471,13.275,15.42
		c6.753,2.875,13.207,3.824,16.808,2.768l47.21,51.707c0,0,38.378-23.813,54.279-37.805S609.104,185.215,591.385,187.644
		 M700.016,205.273c-6.539-12.379-10.414-18.601-15.277-20.08l0.691-0.48c0,0-9.252-6.602-26.041-10.381
		c-3.54-0.797-6.086-3.908-6.152-7.536l-0.185-10.263c10.114-5.608,21.938-22.328,19.681-42.26c-0.29-2.557-0.808-5.015-1.522-7.354
		c-3.906-6.041-12.489-13.391-30.849-11.313c-18.359,2.079-25.081,11.161-27.539,17.924c-0.173,2.438-0.129,4.951,0.161,7.506
		c2.275,20.1,17.776,33.82,28.911,36.873l-1.34,7.938c-0.605,3.578-3.585,6.277-7.205,6.539c-17.164,1.24-27.294,6.393-27.294,6.393
		l37.271,35.283l27.449-19.136c1.419,7.108,11.315,15.013,11.315,15.013c6.093,34.684,24.113,57.443,24.113,57.443
		c5.104,4.377,13.795-1.664,13.795-1.664L700.016,205.273z"/>
	<polygon clip-path="url(#SVGID_2_)" fill="#A79899" points="638.495,119.83 635.066,133.912 648.129,130.658 	"/>
	<path clip-path="url(#SVGID_2_)" fill="#CFE143" d="M633.395,346.945c33.552,2.508,49.812-22.199,49.812-22.199
		c0.815-10.916-6.048-23.754-3.522-34.268c2.523-10.516,9.238-4.949,21.552-18.846c11.607-13.102-2.968-31.275,18.108-38.168
		c0,0-7.424-36.908-42.52-54.172c-0.637,7.046-19.878,16.695-32.078,15.783c-12.2-0.911-29.793-13.314-29.376-20.377
		c-37.271,11.855-64.147,39.384-64.147,39.384c27.684,20.259,16.75,33.62,26.28,48.302c10.11,15.572,17.578,11.064,18.513,21.84
		c0.933,10.773-7.764,22.449-8.578,33.363C587.438,317.588,599.842,344.438,633.395,346.945"/>
	<path clip-path="url(#SVGID_2_)" fill="#DFEE73" d="M600.218,209.887c0.183-2.438-1.646-4.563-4.085-4.745
		s-4.563,1.647-4.744,4.085c-0.184,2.438,1.646,4.563,4.085,4.745C597.911,214.154,600.035,212.324,600.218,209.887
		 M620.499,208.445c2.438,0.184,4.563-1.646,4.744-4.084c0.183-2.438-1.646-4.563-4.085-4.746c-2.438-0.182-4.563,1.647-4.744,4.086
		C616.231,206.14,618.061,208.264,620.499,208.445 M618.673,232.874c-0.183,2.438,1.646,4.563,4.085,4.745
		c2.438,0.182,4.563-1.646,4.745-4.084c0.182-2.439-1.647-4.564-4.085-4.746C620.979,228.606,618.854,230.436,618.673,232.874
		 M601.052,246.123c-2.438-0.182-4.563,1.646-4.745,4.086c-0.182,2.438,1.646,4.563,4.085,4.744s4.563-1.646,4.745-4.084
		C605.318,248.43,603.49,246.305,601.052,246.123 M626.642,260.992c-2.438-0.182-4.563,1.646-4.745,4.084
		c-0.182,2.439,1.647,4.563,4.085,4.746c2.439,0.182,4.563-1.646,4.745-4.086C630.908,263.299,629.08,261.174,626.642,260.992
		 M619.078,286.84c-2.438-0.182-4.563,1.646-4.744,4.086c-0.183,2.438,1.646,4.563,4.085,4.744c2.438,0.184,4.563-1.646,4.745-4.084
		C623.346,289.148,621.517,287.023,619.078,286.84 M651.266,286.869c-2.438-0.182-4.563,1.646-4.745,4.084
		c-0.182,2.439,1.647,4.563,4.085,4.746c2.438,0.182,4.563-1.646,4.745-4.086C655.532,289.176,653.703,287.051,651.266,286.869
		 M614.735,312.785c-2.438-0.182-4.562,1.646-4.745,4.084c-0.182,2.438,1.647,4.563,4.085,4.746
		c2.439,0.182,4.563-1.648,4.745-4.086C619.004,315.092,617.175,312.967,614.735,312.785 M669.108,207.775
		c-2.438-0.183-4.563,1.646-4.745,4.086c-0.182,2.438,1.646,4.562,4.085,4.744c2.438,0.182,4.563-1.646,4.745-4.085
		C673.376,210.082,671.547,207.957,669.108,207.775 M694.017,209.637c-2.438-0.182-4.562,1.646-4.745,4.085
		c-0.182,2.438,1.647,4.563,4.085,4.745c2.439,0.183,4.563-1.646,4.745-4.085C698.284,211.943,696.455,209.82,694.017,209.637
		 M652.678,234.824c2.438,0.182,4.562-1.646,4.745-4.087c0.182-2.438-1.647-4.562-4.085-4.745c-2.439-0.182-4.563,1.647-4.745,4.085
		C648.409,232.517,650.238,234.641,652.678,234.824 M664.555,261.699c-2.438-0.184-4.563,1.645-4.745,4.084
		c-0.182,2.438,1.647,4.563,4.085,4.744c2.439,0.184,4.563-1.646,4.745-4.084C668.822,264.004,666.993,261.881,664.555,261.699
		 M660.036,311.678c-2.438-0.182-4.563,1.646-4.744,4.086c-0.184,2.438,1.646,4.563,4.085,4.744
		c2.438,0.184,4.562-1.646,4.744-4.086C664.304,313.984,662.475,311.861,660.036,311.678 M686.673,248.5
		c-2.438-0.182-4.563,1.648-4.745,4.086s1.646,4.563,4.085,4.744c2.438,0.182,4.563-1.646,4.745-4.084
		C690.939,250.807,689.11,248.682,686.673,248.5"/>
	<path clip-path="url(#SVGID_2_)" fill="#F4F8F7" d="M717.91,288.824l-13.072,46.939c-0.445,1.596-2.099,2.529-3.695,2.084
		l-61.062-17.004c-1.597-0.443-2.529-2.098-2.085-3.693l13.072-46.941c0.444-1.596,2.099-2.529,3.694-2.086l61.063,17.006
		C717.421,285.574,718.354,287.227,717.91,288.824"/>
	<path clip-path="url(#SVGID_2_)" fill="#DBE0DF" d="M679.648,296.898c-3.362-0.936-6.847,1.031-7.783,4.393
		s1.029,6.848,4.392,7.783s6.848-1.031,7.783-4.393C684.977,301.32,683.01,297.834,679.648,296.898"/>
	<path clip-path="url(#SVGID_2_)" fill="#664D4E" d="M720,265.721c-8.14-10.105-12.671-5.703-12.671-5.703
		c-11.971,10.037-26.657,44.123-30.218,52.676c-4.922,0.324-8.837,7.984-16.715,9.648c0,0,1.633,2.162,4.576,2.723
		c-0.04,0.061-0.081,0.117-0.121,0.178c0,0-2.04,2.338-4.79,1.572c-10.638,1.121,10.957,14.475,16.458,6.025
		c4.445-6.826,6.502-13.713,5.43-17.215L720,265.721z"/>
	<path clip-path="url(#SVGID_2_)" fill="#664D4E" d="M185.911,343.541c0,0,4.949,9.037,10.018,14.172
		c-0.628,3.578-2.517,18.686,4.7,43.178c0.865,2.936,1.884,5.594,3.017,8.004c-5.306,14.236-19.46,26.779-41.467,57.105h46.099
		c8.498-16.324,17.933-31.027,27.54-42.965c7.827-2.936,17.256-10.359,27.798-24.438c17.446-23.297,27.848-27.189,27.848-27.189
		s-9.303-15.92-31.892,8.861c-1.568,1.721-3.163,3.271-4.73,4.598c1.461-12.621-1.21-21.777-1.21-21.777
		c-0.663-13.564,1.76-34.709,4.705-48.668c2.593-12.295-5.021-14.219-10.156-1.598c-4.89,12.018-6.172,21.859-7.089,40.742
		c-1.984-1.117-3.934-2.039-5.844-2.787c-2.227-20.984-8.303-27.586-8.303-27.586s0.549-5.838,1.208-19.678
		c0.379-7.951-2.057-11.65-4.2-13.359c-1.357-1.084-3.373-0.457-3.881,1.203c-3.834,12.541-5.446,31.297-5.446,31.297
		s2.453,10.855,5.339,25.363c-0.93,0.025-1.842,0.082-2.73,0.17c-6.366-18.768-12.11-22.455-12.11-22.455s0.437-15.436-1.738-22.785
		c-0.945-3.191-2.371-4.75-3.682-5.494c-1.481-0.838-3.344,0.074-3.617,1.754c-2.398,14.744-1.523,26.781-1.523,26.781
		s2.808,10.813,11.687,24.945c-0.811,0.328-1.581,0.67-2.305,1.016c-4.586-5.207-10.792-11.172-10.792-11.172
		s-2.867-13.057-6.998-19.549c-1.325-2.08-2.632-3.215-3.797-3.795c-1.917-0.955-4.047,0.857-3.429,2.908L185.911,343.541z"/>
	<path clip-path="url(#SVGID_2_)" fill="#FFFFFF" d="M291.633,448.439c2.394,2.086,4.611,3.727,6.671,5.023
		c-0.548,3.971-1.396,8.186-2.502,12.537h16.246c0.829-4.326,1.994-7.58,4.361-10.498c2.812-2.242,4.83-6.41,5.278-12.381
		c0.756-10.063-0.721-16.533-1.651-19.467c0.212-0.332,0.39-0.721,0.51-1.176c0.887-3.365,1.287-9.563,1.287-9.563l0.385-11.123
		c0.034-1.037-1.188-1.621-1.967-0.936c-0.473,0.416-0.944,1.109-1.305,2.248c-0.97,3.055-2.472,12.609-2.934,17.412
		c-0.911-0.26-1.978-0.492-3.164-0.635c0.619-6.553-0.763-21.912-0.763-21.912c-0.045-1.217-1.523-1.797-2.377-0.932
		c-0.519,0.525-1.013,1.375-1.342,2.736c-0.858,3.559-1.568,14.521-1.516,20.346c-0.63,0.131-1.271,0.295-1.921,0.504
		c-0.073-0.43-0.173-0.879-0.303-1.35c-2.697-9.725-2.83-14.01-3.568-20.566c-0.739-6.557-4.147-5.699-4.968,0.33
		c-0.931,6.846,0.573,17.893,2.782,24.088c0.074,0.207,0.162,0.381,0.244,0.568c-0.567,0.43-1.134,0.896-1.699,1.412
		c-3.375-8.605-4.958-13.143-7.782-18.789c-2.95-5.898-5.62-4.006-4.215,1.898c1.584,6.654,4.7,16.203,7.499,22.156
		c-0.056,0.084-0.114,0.156-0.17,0.24c0,0-0.333,4.605,1.641,10.432c-0.876-0.469-1.789-1.039-2.706-1.693
		c-11.439-8.148-13.412,0.256-13.412,0.256S281.003,439.184,291.633,448.439"/>
	<path clip-path="url(#SVGID_2_)" fill="#A79899" d="M78.535,431.328c-0.203,0.945-0.45,1.836-0.735,2.639
		c-2.108-4.807-4.964-7.531-4.964-7.531c-3.062-4.701-6.603-12.75-8.46-18.344c-1.636-4.926-4.753-4.027-3.956,1.545
		c0.759,5.309,2.355,9.092,5.963,16.023c-0.943,0.014-1.834,0.09-2.673,0.221c-5.162-7.014-8.706-8.119-8.706-8.119
		s-1.021-2.197-3.669-7.273c-1.521-2.914-3.161-3.727-4.281-3.891c-0.71-0.104-1.299,0.539-1.134,1.238
		c1.244,5.271,4.577,12.299,4.577,12.299s3.138,3.365,7.189,7.939c-0.328,0.205-0.643,0.414-0.943,0.633
		c-6.171-5.359-8.995-5.494-8.995-5.494s-3.06-5.598-5.366-7.766c-1.002-0.943-1.836-1.201-2.459-1.193
		c-0.703,0.008-1.177,0.723-0.925,1.379c2.216,5.76,5.036,9.871,5.036,9.871s3.257,3.273,9.368,6.465
		c-0.222,0.287-0.423,0.568-0.61,0.844c-2.721-0.902-6.18-1.738-6.18-1.738s-3.743-4.061-6.569-5.516
		c-0.907-0.467-1.609-0.6-2.145-0.563c-0.883,0.059-1.266,1.148-0.618,1.752l7.323,6.822c0,0,3.648,2.189,6.526,2.967
		c0.517,1.398,2.986,7.184,10.672,14.426c0.917,0.865,1.831,1.6,2.735,2.221c0.605,3.48,0.099,7.355-0.732,12.816h14.15
		c0.019-5.172,0.366-10.074,1.033-14.498c2.172-2.682,3.982-7.281,4.808-14.479c1.371-11.945,4.272-15.502,4.272-15.502
		S81.431,417.781,78.535,431.328 M468.049,463.09c-12.435-35.592-22.218-40.82-20.983-51.119c0.03-0.256,0.036-0.498,0.037-0.738
		c0.348-1.014,0.639-2.121,0.842-3.352c1.268-7.709,0.569-12.797,0.053-15.121c0.186-0.244,0.35-0.531,0.473-0.873
		c0.913-2.535,1.645-7.285,1.645-7.285l1.055-8.551c0.097-0.797-0.805-1.33-1.453-0.854c-0.393,0.287-0.803,0.789-1.159,1.643
		c-0.955,2.289-2.766,9.555-3.448,13.225c-0.686-0.262-1.491-0.514-2.396-0.703c0.924-5.012,0.905-16.947,0.905-16.947
		c0.047-0.941-1.052-1.49-1.771-0.881c-0.436,0.371-0.874,0.99-1.221,2.02c-0.905,2.688-2.197,11.092-2.553,15.582
		c-0.495,0.059-1.001,0.141-1.519,0.258c-0.025-0.336-0.072-0.688-0.141-1.061c-1.417-7.682-1.227-10.994-1.35-16.102
		c-0.123-5.104-2.81-4.676-3.853-0.084c-1.185,5.217-0.778,13.836,0.503,18.762c0.043,0.166,0.1,0.307,0.15,0.457
		c-0.467,0.291-0.937,0.611-1.407,0.973c-2.015-6.867-2.927-10.471-4.72-15.018c-1.872-4.75-4.061-3.471-3.379,1.178
		c0.768,5.238,2.52,12.813,4.272,17.592c-0.05,0.061-0.099,0.113-0.147,0.174c0,0-0.571,3.529,0.554,8.154
		c-0.643-0.42-1.308-0.922-1.971-1.488c-8.265-7.063-10.358-0.717-10.358-0.717s2.135-0.141,9.7,7.721
		c3.188,3.314,6.021,5.434,8.48,6.67c6.999,11.629,12.688,29.973,13.891,47.818c0.037,0.547,0.102,1.059,0.161,1.578h21.933
		C468.66,465.063,468.403,464.102,468.049,463.09"/>
	<path clip-path="url(#SVGID_2_)" fill="#EBC7C1" d="M577.885,375.537c-0.767,0.174-1.695,0.652-2.77,1.684
		c-2.767,2.656-9.641,11.58-13.166,16.699c-0.721-0.646-1.547-1.313-2.479-1.961c4.147-6.803,10.931-25.494,10.931-25.494
		c0.59-1.396-0.77-2.834-2.192-2.309c-0.864,0.32-1.87,1.018-2.962,2.383c-2.853,3.566-9.462,15.594-12.477,22.193
		c-0.706-0.209-1.44-0.389-2.205-0.533c0.176-0.512,0.335-1.064,0.472-1.658c2.842-12.256,5.25-17.027,8.348-24.646
		c3.098-7.621-1.146-8.713-5.635-2.6c-5.1,6.941-10.035,19.936-11.308,28.033c-0.041,0.266-0.07,0.523-0.092,0.773
		c-0.87,0.131-1.762,0.303-2.682,0.529c1.433-11.434,2.401-17.344,2.674-25.211c0.285-8.219-3.768-7.734-5.747-0.432
		c-2.231,8.23-4.507,20.543-4.989,28.729c-0.111,0.059-0.218,0.104-0.33,0.162c0,0-3.108,4.844-4.418,12.4
		c-0.681-1.035-1.34-2.203-1.955-3.465c-7.67-15.74-14.839-7.713-14.839-7.713s3.244,1.164,9.368,17.633
		c2.361,6.352,4.924,11.055,7.516,14.42c0.081,12.061-1.795,26.303-5.466,40.846h24.079c0.457-17.68-0.713-27.24,2.078-34.908
		c2.724-1.738,5.417-4.471,7.873-8.273c7.796-12.076,9.615-20.777,10.025-23.666c2.956-3.232,6.893-9.471,6.893-9.471l7.05-11.949
		C580.136,376.617,579.146,375.25,577.885,375.537"/>
	<path clip-path="url(#SVGID_2_)" fill="#EBC7C1" d="M147.15,402.688c-0.714,0.887-1.446,1.691-2.17,2.387
		c0.327-6.209-1.257-10.6-1.257-10.6c-0.078-0.066-0.154-0.123-0.232-0.188c1.096-6.559,1.516-16.705,1.237-23.615
		c-0.248-6.131-3.364-7.242-4.622-0.693c-1.203,6.268-1.503,11.115-2.433,20.414c-0.691-0.348-1.37-0.646-2.04-0.908
		c0.029-0.205,0.067-0.4,0.082-0.621c0.455-6.633-1.103-17.797-3.883-24.203c-2.447-5.643-5.999-5.547-4.924,1.037
		s2.118,10.789,2.154,20.992c0.002,0.494,0.028,0.959,0.074,1.396c-0.69-0.025-1.359-0.012-2.007,0.035
		c-1.543-5.684-5.234-16.158-7.042-19.385c-0.693-1.236-1.406-1.928-2.055-2.297c-1.068-0.609-2.347,0.359-2.059,1.557
		c0,0,2.858,15.326,5.253,21.535c-1.116,0.461-2.09,0.98-2.906,1.482c-1.763-4.549-5.839-13.436-7.619-16.145
		c-0.663-1.008-1.311-1.555-1.885-1.83c-0.946-0.453-1.975,0.449-1.658,1.449l3.418,10.719c0,0,2.085,5.924,3.868,8.955
		c0.242,0.41,0.521,0.74,0.819,1.006c-0.103,3.109,0.23,9.811,3.718,19.396c0.562,1.543,1.202,2.916,1.9,4.141
		c0.059,0.295,0.119,0.59,0.215,0.898c3.277,10.4-3.403,18.314-9.977,46.396h21.984c0.266-16.393,2.961-32.17,7.298-43.848
		c2.86-2.182,5.99-5.609,9.285-10.635c7.812-11.916,10.587-12.25,10.587-12.25S156.053,391.627,147.15,402.688"/>
	<path clip-path="url(#SVGID_2_)" fill="#FFF3C1" d="M478.599,445.484c1.999,1.742,3.851,3.111,5.57,4.195
		c-0.7,5.068-1.974,10.609-3.741,16.322h14.335c0.868-6.818,1.603-11.023,4.522-14.621c2.347-1.873,4.032-5.354,4.407-10.336
		c0.631-8.402-0.604-13.805-1.379-16.254c0.177-0.277,0.325-0.602,0.426-0.98c0.74-2.809,1.074-7.984,1.074-7.984l0.321-9.287
		c0.028-0.865-0.992-1.354-1.642-0.781c-0.396,0.348-0.788,0.926-1.09,1.877c-0.811,2.551-2.064,10.527-2.45,14.537
		c-0.76-0.217-1.651-0.41-2.641-0.529c0.517-5.471-0.638-18.295-0.638-18.295c-0.038-1.016-1.271-1.5-1.984-0.777
		c-0.435,0.439-0.847,1.148-1.12,2.285c-0.717,2.973-1.309,12.125-1.264,16.986c-0.527,0.107-1.063,0.246-1.606,0.42
		c-0.062-0.357-0.145-0.732-0.253-1.127c-2.252-8.119-2.362-11.697-2.979-17.17c-0.616-5.475-3.463-4.758-4.146,0.275
		c-0.778,5.715,0.478,14.939,2.321,20.109c0.063,0.174,0.136,0.32,0.204,0.475c-0.474,0.359-0.946,0.748-1.419,1.182
		c-2.816-7.188-4.139-10.975-6.497-15.688c-2.463-4.926-4.691-3.346-3.519,1.584c1.322,5.557,3.924,13.529,6.261,18.498
		c-0.047,0.07-0.095,0.131-0.142,0.201c0,0-0.278,3.846,1.37,8.709c-0.732-0.391-1.494-0.867-2.261-1.414
		c-9.55-6.803-11.196,0.215-11.196,0.215S469.725,437.758,478.599,445.484"/>
	<path clip-path="url(#SVGID_2_)" fill="#F0EBEC" d="M323.992,367.037c6.418,9.785,12.519,16.508,18.109,20.846
		c12.203,20.303,22.919,48.166,29.69,78.117h45.979c-20.452-46.328-35.745-63.537-39.448-80.336
		c2.526-3.342,4.781-7.535,6.622-12.598c7.877-21.664,7.642-35.945,7.254-40.68c0.286-0.465,0.552-0.967,0.765-1.543
		c2.414-6.553,4.396-18.857,4.396-18.857l2.893-22.148c0.267-2.064-2.062-3.463-3.75-2.244c-1.023,0.742-2.097,2.035-3.036,4.242
		c-2.45,5.752-7.085,23.699-9.031,33.428c-1.028-0.563-2.148-1.121-3.36-1.645c1.902-12.533,0.121-44.893,0.121-44.893
		c-0.007-2.441-2.929-3.711-4.704-2.033c-1.078,1.018-2.127,2.688-2.881,5.395c-1.853,6.654-3.9,26.461-4.387,38.516
		c-1.557-0.131-3.176-0.168-4.855-0.086c0.082-0.947,0.118-1.957,0.088-3.039c-0.555-20.242,1.257-28.654,2.985-41.781
		c1.729-13.127-5.324-13.104-9.834-1.756c-5.121,12.883-7.528,35.127-6.217,48.258c0.041,0.416,0.096,0.813,0.161,1.197
		c-1.184,0.475-2.388,1.02-3.607,1.631c-1.472-18.416-1.878-28.018-4.016-40.477c-2.239-13.047-8.468-10.961-9.2,1.197
		c-0.829,13.754-0.385,34.016,1.551,47.072c-0.153,0.127-0.306,0.25-0.459,0.379c0,0-3.143,8.719-2.489,21.043
		c-1.439-1.379-2.892-2.977-4.31-4.738c-17.678-21.949-26.051-6.781-26.051-6.781S308.479,343.385,323.992,367.037"/>
	<path clip-path="url(#SVGID_2_)" fill="#84D9FF" d="M443.853,237.924h0.01H443.853z"/>
</g>
<g>
	<path fill="#FFFFFF" d="M265.395,197.379c-3.477,0-6.295-2.818-6.295-6.295v-5.779c0-3.477,2.818-6.295,6.295-6.295h6.343
		c-4.323-32.484-32.132-57.545-65.798-57.545c-36.664,0-66.385,29.721-66.385,66.385c0,36.662,29.721,66.385,66.385,66.385
		c33.427,0,61.079-24.709,65.702-56.855H265.395z"/>
	<path fill="#FFFFFF" d="M305.022,197.379c3.477,0,6.295-2.818,6.295-6.295v-5.779c0-3.477-2.818-6.295-6.295-6.295h-6.343
		c4.323-32.484,32.132-57.545,65.798-57.545c36.664,0,66.384,29.721,66.384,66.385c0,36.662-29.721,66.385-66.384,66.385
		c-33.427,0-61.079-24.709-65.701-56.855H305.022z"/>
	<g>
		<defs>
			<rect id="SVGID_7_" x="154.65" y="136.561" width="102.578" height="102.578"/>
		</defs>
		<clipPath id="SVGID_4_">
			<use xlink:href="#SVGID_7_"  overflow="visible"/>
		</clipPath>
		<path clip-path="url(#SVGID_4_)" fill="#FF6252" d="M257.228,187.85c0,28.326-22.962,51.289-51.289,51.289
			c-28.326,0-51.289-22.963-51.289-51.289c0-28.327,22.963-51.289,51.289-51.289C234.266,136.561,257.228,159.522,257.228,187.85"/>
		<path clip-path="url(#SVGID_4_)" fill="#FFFFFF" d="M185.269,168.188v39.32c0,1.897,1.538,3.436,3.436,3.436h19.66V187.85
			l17.231-17.232c2.164-2.164,0.631-5.863-2.429-5.863h-34.462C186.807,164.754,185.269,166.292,185.269,168.188"/>
		<path clip-path="url(#SVGID_4_)" fill="#DBE1E0" d="M208.364,187.85l17.231,17.23c2.164,2.164,0.631,5.864-2.429,5.864h-31.202
			c-2.471,0-3.708-2.987-1.961-4.735L208.364,187.85z"/>
	</g>
	<path fill="#FFFFFF" d="M309.315,189.506c0,3.477-2.818,6.295-6.295,6.295h-35.385c-3.477,0-6.295-2.818-6.295-6.295v-2.623
		c0-3.477,2.818-6.295,6.295-6.295h35.385c3.477,0,6.295,2.818,6.295,6.295V189.506z"/>
	<g>
		<g>
			<g>
				<path fill="#9BB43B" d="M371.315,162.567c0,0-1.602-4.186,1.722-6.702c2.923-2.214,6.143-2.293,6.143-2.293
					s0.917,3.134-1.347,6.689c-2.418,3.804-5.93,2.801-5.93,2.801s2.999-3.932,2.957-4.218
					C374.859,158.845,374.422,158.921,371.315,162.567z"/>
				<path fill="#9BB43B" d="M376.613,173.415c0,0,0.879-3.854,4.549-4.067c3.229-0.188,5.629,1.335,5.629,1.335
					s-0.868,2.745-4.271,4.241c-3.64,1.601-5.72-0.858-5.72-0.858s4.126-1.409,4.237-1.639
					C381.037,172.427,380.679,172.267,376.613,173.415z"/>
				<path fill="#9BB43B" d="M382.921,178.154c0,0,3.425-2.603,6.638-0.217c2.824,2.1,3.765,5.046,3.765,5.046
					s-2.644,1.685-6.525,0.557c-4.157-1.207-4.177-4.713-4.177-4.713s4.427,1.708,4.681,1.592
					C387.302,180.419,387.115,180.037,382.921,178.154z"/>
				<path fill="#9BB43B" d="M377.55,184.859c0,0,2.754-2.092,5.334-0.175c2.271,1.687,3.027,4.057,3.027,4.057
					s-2.125,1.354-5.245,0.446c-3.341-0.971-3.356-3.788-3.356-3.788s3.558,1.373,3.762,1.279
					C381.071,186.679,380.921,186.371,377.55,184.859z"/>
				<path fill="#9BB43B" d="M389.437,171.248c0,0,1.772-2.38,4.358-1.414c2.274,0.85,3.463,2.623,3.463,2.623
					s-1.429,1.623-4.22,1.619c-2.986-0.006-3.672-2.324-3.672-2.324s3.264,0.283,3.407,0.158
					C392.773,171.91,392.577,171.694,389.437,171.248z"/>
				<path fill="#9BB43B" d="M347.806,182.874c0,0-1.449-2.304-3.882-1.606c-2.14,0.612-3.353,2.147-3.353,2.147
					s1.188,1.587,3.739,1.783c2.73,0.212,3.523-1.859,3.523-1.859s-3.001,0.025-3.126-0.1
					C344.708,183.239,344.904,183.054,347.806,182.874z"/>
				<path fill="#9BB43B" d="M343.246,175.144c0,0-1.577-2.801-4.486-2.12c-2.561,0.6-4.082,2.341-4.082,2.341
					s1.312,1.94,4.309,2.319c3.209,0.408,4.264-1.989,4.264-1.989s-3.543-0.145-3.681-0.299
					C339.57,175.396,339.811,175.188,343.246,175.144z"/>
				<path fill="#9BB43B" d="M379.646,166.266c0,0-0.738-3.186,1.915-4.672c2.333-1.307,4.67-1.043,4.67-1.043s0.348,2.357-1.642,4.7
					c-2.132,2.508-4.568,1.434-4.568,1.434s2.561-2.542,2.559-2.753C382.58,163.932,382.258,163.94,379.646,166.266z"/>
				<path fill="#9BB43B" d="M388.492,164.561c0,0,0.667-3.44,3.915-3.735c2.854-0.261,5.025,1.02,5.025,1.02
					s-0.69,2.459-3.661,3.883c-3.181,1.522-5.095-0.597-5.095-0.597s3.616-1.366,3.706-1.573
					C392.383,163.558,392.062,163.426,388.492,164.561z"/>
				<path fill="#9BB43B" d="M340.027,160.425c0,0-0.217-2.757-2.735-3.275c-2.214-0.458-4.03,0.352-4.03,0.352
					s0.322,1.988,2.524,3.369c2.357,1.477,4.046-0.014,4.046-0.014s-2.714-1.393-2.765-1.563
					C337.066,159.293,337.33,159.218,340.027,160.425z"/>
				<path fill="#9BB43B" d="M357.07,185.682c0,0-2.529-1.931-4.91-0.172c-2.094,1.547-2.794,3.727-2.794,3.727
					s1.951,1.251,4.825,0.423c3.078-0.887,3.098-3.479,3.098-3.479s-3.278,1.254-3.464,1.17
					C353.825,187.351,353.964,187.067,357.07,185.682z"/>
				<path fill="#9BB43B" d="M382.93,156.554c0,0-0.344-3.012,2.256-4.1c2.286-0.957,4.41-0.467,4.41-0.467s0.071,2.205-2.008,4.153
					c-2.228,2.084-4.356,0.836-4.356,0.836s2.626-2.068,2.646-2.264C385.877,154.713,385.578,154.688,382.93,156.554z"/>
				<path fill="#9BB43B" d="M340.825,165.632c0,0-2.157-2.363-4.827-1.051c-2.347,1.156-3.43,3.187-3.43,3.187
					s1.706,1.587,4.698,1.284c3.201-0.327,3.686-2.887,3.686-2.887s-3.468,0.654-3.636,0.535
					C337.316,166.7,337.503,166.445,340.825,165.632z"/>
				<path fill="#9BB43B" d="M379.085,149.379c0,0-0.293-2.576,1.931-3.507c1.956-0.82,3.774-0.399,3.774-0.399
					s0.06,1.888-1.721,3.554c-1.904,1.784-3.727,0.716-3.727,0.716s2.247-1.771,2.265-1.938
					C381.608,147.805,381.353,147.783,379.085,149.379z"/>
				<path fill="#9BB43B" d="M363.663,146.51c0,0,0.998-2.029-0.556-3.447c-1.368-1.247-2.984-1.435-2.984-1.435
					s-0.604,1.533,0.37,3.424c1.042,2.024,2.853,1.681,2.853,1.681s-1.328-2.114-1.293-2.256
					C362.053,144.477,362.27,144.535,363.663,146.51z"/>
				<path fill="#9BB43B" d="M351.528,149.291c0,0,1.24-1.891-0.126-3.489c-1.202-1.407-2.783-1.793-2.783-1.793
					s-0.789,1.445-0.057,3.442c0.782,2.138,2.622,2.021,2.622,2.021s-1.056-2.262-1.004-2.396
					C350.18,147.076,350.389,147.159,351.528,149.291z"/>
				<path fill="#9BB43B" d="M363.496,160.069c0,0-3.709-2.517-2.424-6.482c1.13-3.486,3.725-5.396,3.725-5.396
					s2.545,2.046,2.724,6.256c0.193,4.504-3.26,5.691-3.26,5.691s0.209-4.938,0.01-5.15
					C364.271,154.988,363.958,155.3,363.496,160.069z"/>
				<path fill="#9BB43B" d="M371.767,151.863c0,0-2.739-2.271-1.421-5.306c1.158-2.669,3.354-3.979,3.354-3.979
					s1.855,1.811,1.675,5.15c-0.19,3.573-3.01,4.248-3.01,4.248s0.542-3.886,0.403-4.067
					C372.767,147.909,372.494,148.132,371.767,151.863z"/>
				<path fill="#9BB43B" d="M358.833,152.307c0,0,1.847-2.776-0.155-5.146c-1.761-2.083-4.085-2.667-4.085-2.667
					s-1.176,2.125-0.114,5.075c1.135,3.156,3.847,3.001,3.847,3.001s-1.534-3.342-1.458-3.544
					C356.868,149.026,357.173,149.153,358.833,152.307z"/>
				<path fill="#9BB43B" d="M357.289,165.563c0,0-4.357-1.047-4.55-5.212c-0.17-3.662,1.587-6.361,1.587-6.361
					s3.102,1.018,4.752,4.896c1.767,4.147-1.047,6.475-1.047,6.475s-1.544-4.697-1.804-4.824
					C356.228,160.536,356.042,160.938,357.289,165.563z"/>
				<path fill="#9BB43B" d="M351.226,169.841c0,0-4.703,1.191-6.987-2.701c-2.008-3.422-1.686-6.895-1.686-6.895
					s3.484-0.586,7.019,2.295c3.784,3.084,2.261,6.73,2.261,6.73s-3.845-3.72-4.159-3.711
					C347.674,165.56,347.7,166.039,351.226,169.841z"/>
				<path fill="#9BB43B" d="M351.185,156.822c0,0-3.736,2.205-6.673-0.561c-2.583-2.431-3.18-5.492-3.18-5.492
					s2.842-1.378,6.6,0.207c4.02,1.693,3.63,5.205,3.63,5.205s-4.234-2.227-4.501-2.14
					C347.061,154.042,347.204,154.445,351.185,156.822z"/>
				<path fill="#9BB43B" d="M353.75,180.34c0,0-4.235,1.557-6.724-1.823c-2.188-2.972-2.227-6.214-2.227-6.214
					s3.167-0.88,6.715,1.443c3.797,2.487,2.742,6.008,2.742,6.008s-3.917-3.069-4.206-3.032
					C350.05,176.722,350.121,177.163,353.75,180.34z"/>
			</g>
			<path fill="#91897E" d="M371.473,199.755h-9.513c0,0,0.555-1.977,0.555-4.015c0-2.039,0-3.893,0-3.893s-2.286-2.593-3.088-6.362
				c-0.804-3.768-0.68-6.053-2.162-9.327c-1.482-3.273-1.977-4.323-1.977-4.323s-0.679-1.112,0.309-1.545
				c0.988-0.432,1.792,1.05,1.792,1.05l2.348,3.954c0,0,0.642,1.342,1.278,1.404c0.635,0.065,0.297-1.945,0.297-1.945l-0.834-8.385
				c0,0-0.138-1.482,0.742-1.482c0.879,0,1.112,1.203,1.112,1.203l2.13,8.108c0,0,0.278,0.974,0.556,0.974
				c0.279,0,0.557-0.788,0.695-2.224l0.787-9.638c0,0,0.093-1.11,1.204-1.11c1.113,0,1.16,1.156,1.16,1.156l-0.093,10.286
				c0,0,0.046,1.621,0.37,1.621c0.324,0,0.603-0.231,0.973-1.065l3.567-7.876c0,0,0.51-0.833,1.391-0.556s0.417,1.808,0.417,1.808
				l-3.104,9.311c0,0-0.479,2.179-0.107,3.229c0.369,1.05,0.679,2.285,1.853,1.297s2.038-2.78,3.583-3.09
				c1.544-0.309,3.398,0.186,2.533,1.052c-0.865,0.864-2.409,1.235-4.14,3.953c-1.729,2.718-2.1,6.114-5.064,7.599
				C371.04,190.923,370.33,197.284,371.473,199.755z"/>
		</g>
		<g>
			<path fill="#24282E" d="M347.059,220c-1.281,0-1.722-0.663-2.142-2.032l-0.839-2.584c-0.442-1.391-0.995-1.922-2.054-1.922
				c-0.287,0-0.619,0.022-0.972,0.044v6.296c-0.574,0.109-1.281,0.132-1.768,0.132c-0.419,0-1.193-0.022-1.767-0.132v-15.086
				c0.574-0.109,1.347-0.132,1.767-0.132c0.486,0,1.193,0.022,1.768,0.132v5.832l0.573-0.022c0.552,0,0.685-0.155,0.995-0.752
				l2.097-3.953c0.42-0.839,0.773-1.236,1.812-1.236c0.574,0,1.413,0.044,2.12,0.11l0.199,0.243l-2.694,5.08
				c-0.332,0.661-0.729,1.192-1.237,1.612c1.502,0.331,2.031,1.325,2.429,2.495l0.905,2.738c0.265,0.773,0.42,1.391,1.148,2.076
				C348.937,219.603,348.01,220,347.059,220z"/>
			<path fill="#24282E" d="M359.491,215.119c0-0.617,0.023-1.038,0.023-1.635c-0.31,0-0.795,0.021-1.104,0.021h-2.563
				c-0.31,0-0.772-0.021-1.103-0.021c0,0.597,0.021,1.018,0.021,1.635v4.683c-0.575,0.109-1.28,0.132-1.766,0.132
				c-0.42,0-1.193-0.022-1.767-0.132v-15.086c0.574-0.109,1.346-0.132,1.767-0.132c0.486,0,1.191,0.022,1.766,0.132v4.22
				c0,0.617-0.021,1.037-0.021,1.633c0.331,0,0.793-0.021,1.103-0.021h2.563c0.309,0,0.795,0.021,1.104,0.021
				c0-0.596-0.023-1.016-0.023-1.633v-4.22c0.575-0.109,1.304-0.132,1.767-0.132c0.441,0,1.214,0.022,1.767,0.132v15.086
				c-0.596,0.109-1.237,0.132-1.723,0.132c-0.486,0-1.214-0.022-1.811-0.132V215.119z"/>
			<path fill="#24282E" d="M369.162,216.621l-0.949,3.202c-0.442,0.11-0.951,0.133-1.479,0.133c-0.553,0-1.304-0.089-1.724-0.244
				l-0.109-0.176l4.859-14.82c0.574-0.088,1.457-0.132,2.054-0.132c0.575,0,1.479,0.044,2.032,0.154l4.77,14.841
				c-0.486,0.266-1.369,0.421-2.032,0.421c-1.126,0-1.678-0.397-2.121-1.922l-0.418-1.457c-0.288,0.021-0.642,0.021-0.861,0.021
				h-3.136C369.781,216.643,369.449,216.643,369.162,216.621z M369.978,213.859c0.289,0,0.641-0.021,0.884-0.021h1.612
				c0.222,0,0.529,0.021,0.795,0.021l-0.375-1.368c-0.355-1.26-0.84-3.093-1.215-4.55h-0.133c-0.22,1.236-0.728,3.003-1.06,4.218
				L369.978,213.859z"/>
			<path fill="#24282E" d="M392.481,204.716v15.019c-0.574,0.133-1.702,0.199-2.143,0.199c-0.441,0-1.28-0.022-2.054-0.132
				l-3.466-7.907c-0.509-1.128-0.952-2.274-1.262-3.114l-0.064,0.022c0.155,1.876,0.265,4.771,0.265,6.604v4.396
				c-0.575,0.109-1.171,0.132-1.612,0.132c-0.42,0-1.127-0.022-1.679-0.132v-15.02c0.552-0.132,1.656-0.198,2.1-0.198
				c0.44,0,1.257,0.022,2.031,0.132l3.423,7.885c0.552,1.303,1.06,2.54,1.369,3.357l0.088-0.044
				c-0.177-2.055-0.266-4.992-0.266-6.516v-2.693c0-1.569,0.619-2.142,1.967-2.142h1.147L392.481,204.716z"/>
		</g>
		<g>
			<path fill="#24282E" d="M338.256,230.632l-0.542,1.667c-0.084,0.019-0.205,0.029-0.317,0.029c-0.139,0-0.232-0.018-0.343-0.047
				l-0.021-0.028l2.135-6.328c0.102-0.018,0.29-0.027,0.411-0.027c0.112,0,0.307,0.01,0.391,0.027l2.134,6.328
				c-0.103,0.064-0.251,0.094-0.419,0.094c-0.233,0-0.334-0.075-0.428-0.373l-0.448-1.342c-0.148,0-0.597,0.009-0.652,0.009h-1.249
				C338.843,230.641,338.405,230.632,338.256,230.632z M338.459,230.025c0.141,0,0.485-0.009,0.542-0.009h1.072
				c0.046,0,0.382,0.009,0.54,0.009l-0.587-1.77c-0.176-0.55-0.364-1.138-0.476-1.557h-0.046c-0.093,0.363-0.233,0.856-0.317,1.109
				L338.459,230.025z"/>
			<path fill="#24282E" d="M348.021,226.41c-1.081,0-1.696,0.941-1.696,2.73c0,1.658,0.643,2.638,1.687,2.638
				c0.55,0,1.108-0.225,1.706-0.735c0.177,0.102,0.335,0.297,0.392,0.465c-0.495,0.504-1.286,0.895-2.2,0.895
				c-1.687,0-2.338-1.584-2.338-3.262c0-2.303,1.136-3.327,2.45-3.327c1.351,0,2.171,0.896,2.171,1.752
				c0,0.204-0.073,0.419-0.4,0.419c-0.121,0-0.187-0.009-0.317-0.047C349.493,227.276,349.121,226.41,348.021,226.41z"/>
			<path fill="#24282E" d="M354.917,230.632l-0.54,1.667c-0.084,0.019-0.206,0.029-0.317,0.029c-0.14,0-0.233-0.018-0.345-0.047
				l-0.019-0.028l2.134-6.328c0.103-0.018,0.288-0.027,0.41-0.027c0.112,0,0.308,0.01,0.392,0.027l2.133,6.328
				c-0.101,0.064-0.251,0.094-0.418,0.094c-0.233,0-0.336-0.075-0.429-0.373l-0.447-1.342c-0.149,0-0.596,0.009-0.652,0.009h-1.249
				C355.504,230.641,355.066,230.632,354.917,230.632z M355.122,230.025c0.14,0,0.485-0.009,0.54-0.009h1.072
				c0.047,0,0.383,0.009,0.541,0.009l-0.587-1.77c-0.178-0.55-0.364-1.138-0.476-1.557h-0.045c-0.093,0.363-0.233,0.856-0.317,1.109
				L355.122,230.025z"/>
			<path fill="#24282E" d="M366.268,231.853c-0.391,0.336-1.09,0.476-1.565,0.476c-0.736,0-1.081-0.018-1.892-0.039l-0.057-0.055
				v-6.253l0.057-0.057c0.811-0.027,1.156-0.027,1.892-0.027c0.475,0,1.174,0.14,1.565,0.476c0.811,0.689,0.96,1.658,0.96,2.74
				C367.228,230.203,367.088,231.163,366.268,231.853z M364.693,226.495c-0.438,0-0.747-0.011-1.23-0.011v5.237
				c0.484,0,0.792,0.01,1.23,0.01c1.557,0,1.78-1.427,1.78-2.618C366.473,227.91,366.25,226.495,364.693,226.495z"/>
			<path fill="#24282E" d="M375.316,231.965c-0.046,0.224-0.214,0.324-0.457,0.324h-2.936c-0.243,0-0.4-0.176-0.4-0.465v-5.843
				l0.056-0.057h3.598c0.019,0.112,0.019,0.206,0.019,0.289c0,0.074-0.01,0.215-0.048,0.327h-2.375c-0.15,0-0.363,0.008-0.569,0
				c0,0.241,0.009,0.336,0.009,0.577v1.649c0.206,0,0.41-0.009,0.56-0.009h1.929c0.019,0.11,0.028,0.232,0.028,0.306
				c0,0.085-0.009,0.207-0.028,0.309h-1.929c-0.15,0-0.354,0-0.56-0.008v1.965c0,0.131-0.009,0.233-0.009,0.354
				c0.158-0.009,0.345-0.019,0.578-0.019h2.553C375.334,231.731,375.334,231.862,375.316,231.965z"/>
			<path fill="#24282E" d="M379.947,225.925c0.178-0.027,0.392-0.027,0.485-0.027c0.111,0,0.299,0,0.456,0.027l1.072,3.271
				c0.112,0.316,0.363,1.221,0.382,1.361h0.048c0.027-0.141,0.27-1.045,0.382-1.361l1.072-3.271
				c0.196-0.027,0.354-0.027,0.456-0.027c0.094,0,0.289,0,0.485,0.027l0.494,6.356c-0.104,0.029-0.253,0.047-0.365,0.047
				c-0.12,0-0.224-0.011-0.325-0.029l-0.271-3.857c-0.027-0.429-0.056-1.229-0.074-1.762h-0.046l-1.473,4.614
				c-0.111,0.019-0.242,0.036-0.362,0.036c-0.122,0-0.254-0.018-0.346-0.036l-1.482-4.614h-0.047
				c-0.026,0.533-0.047,1.333-0.074,1.762l-0.261,3.857c-0.112,0.019-0.233,0.029-0.345,0.029c-0.122,0-0.261-0.018-0.354-0.047
				L379.947,225.925z"/>
			<path fill="#24282E" d="M392.276,225.925c0.102-0.027,0.214-0.036,0.317-0.036c0.13,0,0.241,0.019,0.343,0.046l0.03,0.057
				l-1.754,4.23v2.067c-0.103,0.021-0.231,0.028-0.363,0.028c-0.13,0-0.26-0.007-0.354-0.028v-2.096l-1.752-4.185
				c0.197-0.12,0.345-0.148,0.467-0.148c0.196,0,0.309,0.11,0.391,0.345l0.895,2.162c0.131,0.298,0.28,0.755,0.382,1.071h0.049
				c0.092-0.316,0.315-0.895,0.382-1.071L392.276,225.925z"/>
		</g>
		<g>
			<rect x="337.284" y="222.809" fill="#24282E" width="55.433" height="0.359"/>
		</g>
	</g>
</g>
</svg>
