<?xml version="1.0" encoding="UTF-8" standalone="no"?>
<svg width="22px" height="22px" viewBox="0 0 22 22" version="1.1" xmlns="http://www.w3.org/2000/svg" xmlns:xlink="http://www.w3.org/1999/xlink" xmlns:sketch="http://www.bohemiancoding.com/sketch/ns">
    <!-- Generator: Sketch 3.5.1 (25234) - http://www.bohemiancoding.com/sketch -->
    <title>logo-google</title>
    <desc>Created with Sketch.</desc>
    <defs></defs>
    <g id="Page-1" stroke="none" stroke-width="1" fill="none" fill-rule="evenodd" sketch:type="MSPage">
        <g id="Components" sketch:type="MSArtboardGroup" transform="translate(-185.000000, -2567.000000)">
            <g id="Buttons-/-login-google" sketch:type="MSLayerGroup" transform="translate(173.000000, 2554.000000)">
                <g id="logo-google" transform="translate(12.000000, 13.000000)" sketch:type="MSShapeGroup">
                    <path d="M21.56,11.1368421 C21.5620292,10.3900949 21.496583,9.6446658 21.3644444,8.90947368 L11,8.90947368 L11,13.1221053 L16.9155556,13.1221053 C16.6680307,14.4715729 15.8729055,15.6615977 14.7155556,16.4147368 L14.7155556,19.1505263 L18.2722222,19.1505263 C20.4580093,17.0625198 21.6482297,14.1550306 21.5477778,11.1489474 L21.5477778,11.1489474 L21.56,11.1368421 Z" id="Shape" fill="#3E82F1"></path>
                    <path d="M11,21.7894737 C13.695957,21.8755038 16.3219207,20.9305339 18.3333333,19.1505263 L14.7766667,16.4147368 C13.0537409,17.5084748 10.9177065,17.753797 8.98779028,17.0795857 C7.05787405,16.4053744 5.54993251,14.8870386 4.90111111,12.9647368 L1.23444444,12.9647368 L1.23444444,15.7368421 C3.07941277,19.4201574 6.8609189,21.7609821 11.0122222,21.7894737 L11.0122222,21.7894737 L11,21.7894737 Z" id="Shape" fill="#32A753"></path>
                    <path d="M4.85222222,12.9647368 C4.39215816,11.6223505 4.39215816,10.1671232 4.85222222,8.82473684 L4.85222222,6.05263158 L1.18555556,6.05263158 C-0.375159919,9.12976314 -0.375159919,12.7565527 1.18555556,15.8336842 L4.85222222,13.0131579 L4.85222222,13.0131579 L4.85222222,12.9647368 Z" id="Shape" fill="#F9BB00"></path>
                    <path d="M11,4.33368421 C12.5640698,4.30885851 14.0748943,4.89609547 15.2044444,5.96789474 L18.3577778,2.84473684 C16.3725723,1.00085793 13.7458898,-0.0137453482 11.0244444,0.0121052632 C6.87314112,0.0405968753 3.09163499,2.38142154 1.24666667,6.06473684 L4.91333333,8.88526316 C5.7737273,6.24981274 8.22837285,4.44589491 11.0244444,4.39421053 L11.0244444,4.39421053 L11,4.33368421 Z" id="Shape" fill="#E74133"></path>
                </g>
            </g>
        </g>
    </g>
</svg>