<?xml version="1.0" encoding="UTF-8" standalone="no"?>
<svg width="110px" height="110px" viewBox="0 0 110 110" version="1.1" xmlns="http://www.w3.org/2000/svg" xmlns:xlink="http://www.w3.org/1999/xlink" xmlns:sketch="http://www.bohemiancoding.com/sketch/ns">
    <!-- Generator: Sketch 3.5.1 (25234) - http://www.bohemiancoding.com/sketch -->
    <title>logo-learn</title>
    <desc>Created with Sketch.</desc>
    <defs></defs>
    <g id="Page-1" stroke="none" stroke-width="1" fill="none" fill-rule="evenodd" sketch:type="MSPage">
        <g id="Components" sketch:type="MSArtboardGroup" transform="translate(-282.000000, -2344.000000)">
            <g id="Logos" sketch:type="MSLayerGroup" transform="translate(142.000000, 2344.000000)">
                <g id="logo-learn" transform="translate(140.000000, 0.000000)" sketch:type="MSShapeGroup">
                    <ellipse id="Oval" fill="#FFFFFF" cx="55.3963964" cy="54.9" rx="54.4054054" ry="54.9"></ellipse>
                    <path d="M94.1243243,93.44 C99.4474022,81.2195051 98.8021289,67.1904114 92.3801802,55.52 L18.4126126,55.52 C11.9685755,67.1807312 11.3048239,81.2129266 16.6189189,93.44 C-4.39748768,71.917845 -4.22907528,37.3043141 16.9957455,15.991438 C38.2205663,-5.32143814 72.522677,-5.32143814 93.7474978,15.991438 C114.972319,37.3043141 115.140731,71.917845 94.1243243,93.44 L94.1243243,93.44 Z" id="Shape" fill="#8F80FF"></path>
                    <path d="M92.9252252,52.07 C92.9272597,53.2396736 92.7535129,54.4028961 92.4099099,55.52 L18.4126126,55.52 C17.3244837,51.9719226 17.9750132,48.1130589 20.1645649,45.1276268 C22.3541165,42.1421947 25.8211903,40.386747 29.5018018,40.4 C30.9002433,40.4030597 32.2866827,40.6605108 33.5945946,41.16 C33.8142662,35.8805361 37.5248487,31.410122 42.6370998,30.2658227 C47.7493509,29.1215235 52.9851148,31.5894348 55.3963964,36.28 C57.807678,31.5894348 63.0434419,29.1215235 68.155693,30.2658227 C73.2679441,31.410122 76.9785266,35.8805361 77.1981982,41.16 C78.5066308,40.662398 79.8927286,40.4050104 81.290991,40.4 C84.3701854,40.3813619 87.3296065,41.6026433 89.5134658,43.7932162 C91.6973252,45.9837891 92.9252806,48.962757 92.9252252,52.07 L92.9252252,52.07 Z" id="Shape" fill="#573FE0"></path>
                    <ellipse id="Oval" fill="#8F80FF" cx="41.4135135" cy="77.87" rx="6.3027027" ry="6.36"></ellipse>
                    <ellipse id="Oval" fill="#8F80FF" cx="69.3792793" cy="77.87" rx="6.3027027" ry="6.36"></ellipse>
                </g>
            </g>
        </g>
    </g>
</svg>