<?xml version="1.0" encoding="UTF-8" standalone="no"?>
<svg width="142px" height="40px" viewBox="0 0 142 40" version="1.1" xmlns="http://www.w3.org/2000/svg" xmlns:xlink="http://www.w3.org/1999/xlink" xmlns:sketch="http://www.bohemiancoding.com/sketch/ns">
    <!-- Generator: Sketch 3.5.1 (25234) - http://www.bohemiancoding.com/sketch -->
    <title>logo-kiddom</title>
    <desc>Created with Sketch.</desc>
    <defs></defs>
    <g id="Page-1" stroke="none" stroke-width="1" fill="none" fill-rule="evenodd" sketch:type="MSPage">
        <g id="Components" sketch:type="MSArtboardGroup" transform="translate(-548.000000, -2361.000000)">
            <g id="logo-kiddom" sketch:type="MSLayerGroup" transform="translate(548.000000, 2361.000000)">
                <g id="kiddom" transform="translate(49.000000, 12.000000)" fill="#3F4C4C" sketch:type="MSShapeGroup">
                    <path d="M1.56666667,15.8333333 C1.06666667,15.8333333 0.833333333,15.5666667 0.833333333,15.0333333 L0.833333333,1.56666667 C0.833333333,1.03333333 1.06666667,0.766666667 1.56666667,0.766666667 L3.16666667,0.766666667 C3.66666667,0.766666667 3.9,1.03333333 3.9,1.56666667 L3.9,5.73333333 C3.9,6.16666667 3.86666667,6.56666667 3.83333333,7 L3.9,7 L9.03333333,1.4 C9.4,1 9.73333333,0.766666667 10,0.766666667 L12.1,0.766666667 C12.9333333,0.766666667 13.0666667,1.06666667 12.5,1.66666667 L7.73333333,6.9 L12.8666667,14.9 C13.2666667,15.5 13.1333333,15.8 12.4666667,15.8 L10.5,15.8 C10.1333333,15.8 9.83333333,15.6 9.56666667,15.1666667 L5.66666667,9.16666667 L3.9,11.1333333 L3.9,15.0666667 C3.9,15.6 3.66666667,15.8666667 3.16666667,15.8666667 L1.56666667,15.8666667 L1.56666667,15.8333333 Z" id="Shape"></path>
                    <path d="M18,15.8333333 C17.5,15.8333333 17.2666667,15.5666667 17.2666667,15.0333333 L17.2666667,1.56666667 C17.2666667,1.03333333 17.5,0.766666667 18,0.766666667 L19.6,0.766666667 C20.1,0.766666667 20.3333333,1.03333333 20.3333333,1.56666667 L20.3333333,15.0333333 C20.3333333,15.5666667 20.1,15.8333333 19.6,15.8333333 L18,15.8333333 L18,15.8333333 Z" id="Shape"></path>
                    <path d="M26.6,15.8333333 C26.1,15.8333333 25.8666667,15.5666667 25.8666667,15.0333333 L25.8666667,1.56666667 C25.8666667,1.03333333 26.1,0.766666667 26.6,0.766666667 L30.2666667,0.766666667 C33.5,0.766666667 35.6666667,1.43333333 36.8,2.73333333 C37.9333333,4.03333333 38.5,5.9 38.5,8.3 C38.5,10.7 37.9333333,12.5666667 36.8,13.8666667 C35.6666667,15.1666667 33.5,15.8333333 30.2666667,15.8333333 L26.6,15.8333333 L26.6,15.8333333 Z M28.9,13.2333333 L30.0333333,13.2333333 C32.2,13.2333333 33.6,12.8333333 34.2333333,12.0333333 C34.8666667,11.2333333 35.2,9.96666667 35.2,8.3 C35.2,6.63333333 34.8666667,5.36666667 34.2333333,4.56666667 C33.6,3.76666667 32.2,3.36666667 30.0333333,3.36666667 L28.9,3.36666667 L28.9,13.2333333 L28.9,13.2333333 Z" id="Shape"></path>
                    <path d="M43.1,15.8333333 C42.6,15.8333333 42.3666667,15.5666667 42.3666667,15.0333333 L42.3666667,1.56666667 C42.3666667,1.03333333 42.6,0.766666667 43.1,0.766666667 L46.7666667,0.766666667 C50,0.766666667 52.1666667,1.43333333 53.3,2.73333333 C54.4333333,4.03333333 55,5.9 55,8.3 C55,10.7 54.4333333,12.5666667 53.3,13.8666667 C52.1666667,15.1666667 50,15.8333333 46.7666667,15.8333333 L43.1,15.8333333 L43.1,15.8333333 Z M45.4333333,13.2333333 L46.5666667,13.2333333 C48.7333333,13.2333333 50.1333333,12.8333333 50.7666667,12.0333333 C51.4,11.2333333 51.7333333,9.96666667 51.7333333,8.3 C51.7333333,6.63333333 51.4,5.36666667 50.7666667,4.56666667 C50.1333333,3.76666667 48.7333333,3.36666667 46.5666667,3.36666667 L45.4333333,3.36666667 L45.4333333,13.2333333 L45.4333333,13.2333333 Z" id="Shape"></path>
                    <path d="M58.1,8.3 C58.1,5.9 58.7333333,3.96666667 59.9666667,2.53333333 C61.2,1.1 63,0.4 65.3,0.4 C67.6,0.4 69.4,1.1 70.6333333,2.53333333 C71.8666667,3.96666667 72.5,5.86666667 72.5,8.3 C72.5,10.7333333 71.8666667,12.6333333 70.6333333,14.0666667 C69.4,15.5 67.6,16.2 65.3,16.2 C63,16.2 61.2,15.5 59.9666667,14.0666667 C58.7333333,12.6333333 58.1,10.7333333 58.1,8.3 L58.1,8.3 Z M61.3666667,8.3 C61.3666667,10.0333333 61.6666667,11.4 62.3,12.3 C62.9333333,13.2333333 63.9333333,13.7 65.3,13.7 C66.6666667,13.7 67.6666667,13.2333333 68.3,12.3 C68.9333333,11.3666667 69.2333333,10.0333333 69.2333333,8.3 C69.2333333,6.56666667 68.9333333,5.2 68.3,4.3 C67.6666667,3.36666667 66.6666667,2.9 65.3,2.9 C63.9333333,2.9 62.9333333,3.36666667 62.3,4.3 C61.7,5.23333333 61.3666667,6.56666667 61.3666667,8.3 L61.3666667,8.3 Z" id="Shape"></path>
                    <path d="M77.1,15.8333333 C76.6,15.8333333 76.3666667,15.5666667 76.3666667,15.0333333 L76.3666667,1.56666667 C76.3666667,1.03333333 76.6,0.766666667 77.1,0.766666667 L80.1333333,0.766666667 C80.5333333,0.766666667 80.8333333,1.03333333 81,1.6 L83.8333333,10.8 C83.9666667,11.2 84.0333333,11.5333333 84.1,11.7666667 C84.1333333,12.0333333 84.2,12.3333333 84.2333333,12.6666667 L84.3,12.6666667 C84.3333333,12.3 84.3666667,12 84.4333333,11.7666667 C84.4666667,11.5 84.5666667,11.2 84.7,10.8 L87.5333333,1.6 C87.7,1.03333333 88,0.766666667 88.4,0.766666667 L91.4333333,0.766666667 C91.9333333,0.766666667 92.1666667,1.03333333 92.1666667,1.56666667 L92.1666667,15.0333333 C92.1666667,15.5666667 91.9333333,15.8333333 91.4333333,15.8333333 L89.8333333,15.8333333 C89.3333333,15.8333333 89.1,15.5666667 89.1,15.0333333 L89.1,6.36666667 C89.1,5.93333333 89.1333333,5.53333333 89.1666667,5.1 L89.1,5.1 L86.0666667,14.9666667 C85.9,15.5333333 85.6,15.8333333 85.1666667,15.8333333 L83.3666667,15.8333333 C82.9333333,15.8333333 82.6333333,15.5333333 82.4666667,14.9666667 L79.4333333,5.1 L79.3666667,5.1 C79.4,5.53333333 79.4333333,5.93333333 79.4333333,6.36666667 L79.4333333,15.0333333 C79.4333333,15.5666667 79.2,15.8333333 78.7,15.8333333 L77.1,15.8333333 L77.1,15.8333333 Z" id="Shape"></path>
                </g>
                <g id="logo" sketch:type="MSShapeGroup">
                    <circle id="Oval" fill="#FF6252" cx="20" cy="20" r="20"></circle>
                    <g id="Group" transform="translate(12.000000, 11.000000)">
                        <path d="M0,1.46666667 L0,16.7 C0,17.4333333 0.6,18.0333333 1.33333333,18.0333333 L8.96666667,18.0333333 L8.96666667,9.06666667 L15.6333333,2.4 C16.4666667,1.56666667 15.8666667,0.133333333 14.7,0.133333333 L1.33333333,0.133333333 C0.6,0.133333333 0,0.733333333 0,1.46666667 L0,1.46666667 Z" id="Shape" fill="#FFFFFF"></path>
                        <path d="M8.96666667,9.1 L15.6333333,15.7666667 C16.4666667,16.6 15.8666667,18.0333333 14.7,18.0333333 L2.6,18.0333333 C1.63333333,18.0333333 1.16666667,16.8666667 1.83333333,16.2 L8.96666667,9.1 L8.96666667,9.1 Z" id="Shape" fill="#DCE2E1"></path>
                    </g>
                </g>
            </g>
        </g>
    </g>
</svg>