<?xml version="1.0" encoding="utf-8"?>
<!-- Generator: Adobe Illustrator 19.2.0, SVG Export Plug-In . SVG Version: 6.00 Build 0)  -->
<svg version="1.1" id="Layer_1" xmlns="http://www.w3.org/2000/svg" xmlns:xlink="http://www.w3.org/1999/xlink" x="0px" y="0px"
	 viewBox="0 0 176 176" enable-background="new 0 0 176 176" xml:space="preserve">
<circle fill="#FFFFFF" cx="88" cy="88" r="88"/>
<path fill="#0085FF" d="M112.3,47.9c-9.2,0-17.6,3.1-24.3,8.2c9.6,7.3,15.8,18.9,15.8,31.9c0,13-6.2,24.5-15.8,31.9
	c6.7,5.2,15.2,8.2,24.3,8.2c22.1,0,40.1-17.9,40.1-40.1C152.4,65.9,134.5,47.9,112.3,47.9z"/>
<path fill="#1EB9FF" d="M23.6,88c0,22.1,17.9,40.1,40.1,40.1c9.2,0,17.6-3.1,24.3-8.2C78.4,112.5,72.2,101,72.2,88
	c0-13,6.2-24.5,15.8-31.9c-6.7-5.2-15.2-8.2-24.3-8.2C41.5,47.9,23.6,65.9,23.6,88z"/>
</svg>
