<?xml version="1.0" encoding="UTF-8" standalone="no"?>
<svg width="110px" height="110px" viewBox="0 0 110 110" version="1.1" xmlns="http://www.w3.org/2000/svg" xmlns:xlink="http://www.w3.org/1999/xlink" xmlns:sketch="http://www.bohemiancoding.com/sketch/ns">
    <!-- Generator: Sketch 3.5.1 (25234) - http://www.bohemiancoding.com/sketch -->
    <title>logo-teach</title>
    <desc>Created with Sketch.</desc>
    <defs></defs>
    <g id="Page-1" stroke="none" stroke-width="1" fill="none" fill-rule="evenodd" sketch:type="MSPage">
        <g id="Components" sketch:type="MSArtboardGroup" transform="translate(-422.000000, -2344.000000)">
            <g id="Logos" sketch:type="MSLayerGroup" transform="translate(142.000000, 2344.000000)">
                <g id="logo-teach" transform="translate(280.000000, 0.000000)" sketch:type="MSShapeGroup">
                    <circle id="Oval" fill="#1DBAFF" cx="54.9" cy="54.9" r="54.9"></circle>
                    <path d="M70.08,29.89 C64.5916971,29.8828604 59.25492,31.6899114 54.9,35.03 C61.0940024,39.7594455 64.7282137,47.1068414 64.7282137,54.9 C64.7282137,62.6931586 61.0940024,70.0405545 54.9,74.77 C63.5670008,81.3786586 75.5165904,81.6108135 84.4337384,75.3437772 C93.3508863,69.0767408 97.1803036,57.7549852 93.8982483,47.3617477 C90.616193,36.9685103 80.9791369,29.8992997 70.08,29.89 L70.08,29.89 Z" id="Shape" fill="#0086FF"></path>
                    <path d="M14.71,54.89 C14.7047009,64.4047569 20.100867,73.0976772 28.63014,77.3145634 C37.159413,81.5314495 47.3429691,80.5411687 54.9,74.76 C48.7059976,70.0305545 45.0717863,62.6831586 45.0717863,54.89 C45.0717863,47.0968414 48.7059976,39.7494455 54.9,35.02 C47.3429691,29.2388313 37.159413,28.2485505 28.63014,32.4654366 C20.100867,36.6823228 14.7047009,45.3752431 14.71,54.89 L14.71,54.89 Z" id="Shape" fill="#FFFFFF"></path>
                </g>
            </g>
        </g>
    </g>
</svg>