<?xml version="1.0" encoding="utf-8"?>
<!-- Generator: Adobe Illustrator 19.2.0, SVG Export Plug-In . SVG Version: 6.00 Build 0)  -->
<svg version="1.1" id="Layer_1" xmlns="http://www.w3.org/2000/svg" xmlns:xlink="http://www.w3.org/1999/xlink" x="0px" y="0px"
	 viewBox="0 0 176 176" enable-background="new 0 0 176 176" xml:space="preserve">
<g>
	<circle fill="#58DBCC" cx="88" cy="88" r="88"/>
	<path fill="#FFFFFF" d="M67.2,82.8c0-5.4-4.2-6.4-9.9-12.3c6.4-1.9,11.1-7.9,11.1-14.9c0-8.6-7-15.6-15.6-15.6
		c-8.6,0-15.6,7-15.6,15.6c0,7.1,4.7,13,11.1,14.9c-5.8,5.9-9.9,6.9-9.9,12.3c0,3.1-2.5,22.7-3.5,30.7c-0.3,2.3,0.8,4.6,2.8,5.8
		c2.8,1.6,7.7,3.4,15.1,3.4c7.4,0,12.2-1.8,15.1-3.4c2-1.2,3.1-3.5,2.8-5.8C69.7,105.5,67.2,85.9,67.2,82.8z M152,88.4l-8.6-14.1
		V47.1c0-4.1-3.3-7.4-7.4-7.4H90.7c-4.1,0-7.4,3.3-7.4,7.4v27.2v0l-8.6,14.1c-0.9,1.4,0.2,3.2,1.8,3.2h73.7
		C151.9,91.6,152.9,89.8,152,88.4z M137.1,74.2H89.6V47.1c0-0.6,0.5-1.1,1.1-1.1H136c0.6,0,1.1,0.5,1.1,1.1V74.2z"/>
	<path fill="#E1F073" d="M149.9,132.8c6.4-1.9,11.1-7.9,11.1-14.9c0-8.6-7-15.6-15.6-15.6c-8.6,0-15.6,7-15.6,15.6
		c0,7.1,4.7,13,11.1,14.9c-5.8,5.9-9.9,6.9-9.9,12.3c0,2.1-1.2,12.3-2.3,21c11.7-6.1,21.9-14.8,29.8-25.3
		C156.8,138.5,153.7,136.7,149.9,132.8z M87.3,145.1c0-5.4-4.2-6.4-9.9-12.3c6.4-1.9,11.1-7.9,11.1-14.9c0-8.6-7-15.6-15.6-15.6
		c-8.6,0-15.6,7-15.6,15.6c0,7.1,4.7,13,11.1,14.9c-5.8,5.9-9.9,6.9-9.9,12.3c0,2.5-1.6,15.5-2.7,24.8c10,4,20.9,6.2,32.3,6.2
		c0.9,0,1.9,0,2.8-0.1c0,0,0-0.1,0-0.1C89.8,167.8,87.3,148.2,87.3,145.1z M124.7,132.2c0-8.6-7-15.6-15.6-15.6s-15.6,7-15.6,15.6
		c0,7.1,4.7,13,11.1,14.9c-5.8,5.9-9.9,6.9-9.9,12.3c0,1.8-0.8,9-1.7,16.4c11.1-0.6,21.7-3.3,31.4-7.7c-0.5-4.2-0.8-7.6-0.8-8.7
		c0-5.4-4.2-6.4-9.9-12.3C120,145.2,124.7,139.3,124.7,132.2z"/>
</g>
</svg>
