<?xml version="1.0" encoding="utf-8"?>
<!-- Generator: Adobe Illustrator 19.2.0, SVG Export Plug-In . SVG Version: 6.00 Build 0)  -->
<svg version="1.1" id="Layer_1" xmlns="http://www.w3.org/2000/svg" xmlns:xlink="http://www.w3.org/1999/xlink" x="0px" y="0px"
	 viewBox="0 0 1600 668.5" enable-background="new 0 0 1600 668.5" xml:space="preserve">
<rect x="0" fill="#664D4E" width="1600" height="668.5"/>
<path fill="#5A4042" d="M0,668.5c156.5,0,319.1-200.2,592-122c422.9,121.2,645.9-25.8,534.3-241.8c-111.7-216,62-328.7,473.8-296.8
	v660.6H0z"/>
<g>
	<circle fill="#58DBCC" cx="1051.5" cy="555" r="83.4"/>
	<path fill="#FFFFFF" d="M993.9,538.9c0-10.3,2.5-19.9,7.5-27.9c1.2-1.9-1.4-4-2.9-2.3c-9.7,10.4-14.5,24.4-14.5,39.7
		c0,20.3,11.4,38.2,28.8,48.7V577C1001.2,567.7,993.9,554.1,993.9,538.9z"/>
	<path fill="#FFFFFF" d="M1104.6,508.8c-1.5-1.7-4.1,0.4-2.9,2.3c5,8,7.5,17.6,7.5,27.9c0,15.2-7.3,28.8-18.9,38v20.2
		c17.4-10.5,28.8-28.4,28.8-48.7C1119,533.1,1114.2,519.2,1104.6,508.8z"/>
	<path fill="#E1F073" d="M1070.7,568.3c0-10.1-8.2-18.3-18.3-18.3s-18.3,8.2-18.3,18.3c0,8.3,5.5,15.2,13,17.5
		c-6.7,6.9-11.6,8.1-11.6,14.4c0,3.6-2.8,26.2-4.1,35.7c6.4,1.6,13.1,2.4,20,2.4c7.6,0,14.9-1,21.9-2.9c-1.2-9.8-4-31.7-4-35.2
		c0-6.3-4.9-7.5-11.6-14.4C1065.2,583.6,1070.7,576.6,1070.7,568.3z"/>
	<path fill="#FFFFFF" d="M1093,604v-11.5l3.9-8.9l-3.9-4.9v-14.2c0-1.9-2.4-2.6-3.4-1l-15.9,23.9l16.1,17.9
		C1090.9,606.5,1093,605.7,1093,604z"/>
	<path fill="#FFFFFF" d="M1071.5,521h-40c-1.8,0-2.6,2.2-1.2,3.3l21.2,17.1l21.2-17.1C1074.1,523.3,1073.3,521,1071.5,521z"/>
	<path fill="#FFFFFF" d="M1010,604v-11.5l-3.9-8.9l3.9-4.9v-14.2c0-1.9,2.4-2.6,3.4-1l15.9,23.9l-16.1,17.9
		C1012.1,606.5,1010,605.7,1010,604z"/>
	<path fill="#FFFFFF" d="M1049.7,490.8l-11,30.2l12.8,3l12.8-3l-11-30.2C1052.7,489.2,1050.3,489.2,1049.7,490.8z"/>
</g>
<g>
	<circle fill="#58DBCC" cx="1168.5" cy="377.4" r="83.4"/>
	<path fill="#FFFFFF" d="M1148.8,372.5c0-5.1-4-6.1-9.4-11.7c6.1-1.8,10.5-7.5,10.5-14.2c0-8.2-6.6-14.8-14.8-14.8
		c-8.2,0-14.8,6.6-14.8,14.8c0,6.7,4.4,12.3,10.5,14.2c-5.5,5.6-9.4,6.6-9.4,11.7c0,2.9-2.3,21.6-3.3,29.1c-0.3,2.2,0.8,4.4,2.7,5.5
		c2.7,1.5,7.3,3.3,14.3,3.3c7,0,11.6-1.7,14.3-3.3c1.9-1.1,3-3.3,2.7-5.5C1151.1,394,1148.8,375.4,1148.8,372.5z M1229.2,377.8
		l-8.1-13.4v-25.7c0-3.9-3.1-7-7-7h-43c-3.9,0-7,3.1-7,7v25.7v0l-8.1,13.4c-0.8,1.3,0.1,3,1.7,3h69.9
		C1229,380.8,1230,379.1,1229.2,377.8z M1215,364.4h-45v-25.7c0-0.6,0.4-1,1-1h43c0.6,0,1,0.4,1,1V364.4z"/>
	<path fill="#E1F073" d="M1227.1,419.9c6.1-1.8,10.5-7.5,10.5-14.2c0-8.2-6.6-14.8-14.8-14.8c-8.2,0-14.8,6.6-14.8,14.8
		c0,6.7,4.4,12.3,10.5,14.2c-5.5,5.6-9.4,6.6-9.4,11.7c0,2-1.1,11.7-2.1,19.9c11.1-5.8,20.8-14,28.2-24
		C1233.6,425.3,1230.7,423.6,1227.1,419.9z M1167.8,431.5c0-5.1-4-6.1-9.4-11.7c6.1-1.8,10.5-7.5,10.5-14.2
		c0-8.2-6.6-14.8-14.8-14.8c-8.2,0-14.8,6.6-14.8,14.8c0,6.7,4.4,12.3,10.5,14.2c-5.5,5.6-9.4,6.6-9.4,11.7c0,2.3-1.5,14.7-2.6,23.5
		c9.5,3.8,19.8,5.8,30.6,5.8c0.9,0,1.8,0,2.6-0.1c0,0,0-0.1,0-0.1C1170.1,453.1,1167.8,434.5,1167.8,431.5z M1203.3,419.3
		c0-8.2-6.6-14.8-14.8-14.8s-14.8,6.6-14.8,14.8c0,6.7,4.4,12.3,10.5,14.2c-5.5,5.6-9.4,6.6-9.4,11.7c0,1.7-0.8,8.6-1.6,15.6
		c10.6-0.6,20.6-3.2,29.8-7.3c-0.4-4-0.8-7.2-0.8-8.2c0-5.1-4-6.1-9.4-11.7C1198.8,431.7,1203.3,426,1203.3,419.3z"/>
</g>
<g>
	<circle fill="#58DBCC" cx="1090.6" cy="186.5" r="83.4"/>
	<path fill="#E1F073" d="M1081.1,160.7c0-3.8-2.9-4.5-7-8.6c4.5-1.4,7.8-5.5,7.8-10.5c0-6.1-4.9-11-11-11s-11,4.9-11,11
		c0,5,3.3,9.1,7.8,10.5c-4,4.1-7,4.9-7,8.6c0,2.2-1.7,16-2.5,21.6c-0.2,1.6,0.6,3.3,2,4.1c2,1.1,5.4,2.4,10.6,2.4s8.6-1.3,10.6-2.4
		c1.4-0.8,2.2-2.4,2-4.1C1082.9,176.7,1081.1,162.9,1081.1,160.7z M1122.7,182.3c-0.7-5.6-2.5-19.4-2.5-21.6c0-3.8-2.9-4.5-7-8.6
		c4.5-1.4,7.8-5.5,7.8-10.5c0-6.1-4.9-11-11-11s-11,4.9-11,11c0,5,3.3,9.1,7.8,10.5c-4,4.1-7,4.9-7,8.6c0,2.2-1.7,16-2.5,21.6
		c-0.2,1.6,0.6,3.3,2,4.1c2,1.1,5.4,2.4,10.6,2.4s8.6-1.3,10.6-2.4C1122.2,185.5,1123,183.9,1122.7,182.3z"/>
	<path fill="#FFFFFF" d="M1139.1,186.6c0-11.7-21.7-21.1-48.6-21.1s-48.6,9.5-48.6,21.1c0,8.5,11.5,15.8,28,19.1l-5.9,18.1
		c-0.3,0.8,0.2,1.6,1,1.9c0.2,0.1,0.3,0.1,0.5,0.1c0.6,0,1.2-0.4,1.4-1l6.1-18.5c5.4,0.9,11.4,1.4,17.6,1.4s12.1-0.5,17.6-1.4
		l6.1,18.5c0.2,0.6,0.8,1,1.4,1c0.2,0,0.3,0,0.5-0.1c0.8-0.3,1.2-1.1,1-1.9l-5.9-18.1C1127.6,202.3,1139.1,195,1139.1,186.6z"/>
	<path fill="#E1F073" d="M1100.7,213c0-3.8-2.9-4.5-7-8.6c4.5-1.4,7.8-5.5,7.8-10.5c0-6.1-4.9-11-11-11s-11,4.9-11,11
		c0,5,3.3,9.1,7.8,10.5c-4,4.1-7,4.9-7,8.6c0,2.2-1.7,16-2.5,21.6c-0.2,1.6,0.6,3.3,2,4.1c2,1.1,5.4,2.4,10.6,2.4s8.6-1.3,10.6-2.4
		c1.4-0.8,2.2-2.4,2-4.1C1102.4,229,1100.7,215.2,1100.7,213z M1151.4,214.6c-0.7-5.6-2.5-19.4-2.5-21.6c0-3.8-2.9-4.5-7-8.6
		c4.5-1.4,7.8-5.5,7.8-10.5c0-6.1-4.9-11-11-11s-11,4.9-11,11c0,5,3.3,9.1,7.8,10.5c-4,4.1-7,4.9-7,8.6c0,2.2-1.7,16-2.5,21.6
		c-0.2,1.6,0.6,3.3,2,4.1c2,1.1,5.4,2.4,10.6,2.4c5.2,0,8.6-1.3,10.6-2.4C1150.9,217.9,1151.6,216.2,1151.4,214.6z M1052.4,193
		c0-3.8-2.9-4.5-7-8.6c4.5-1.4,7.8-5.5,7.8-10.5c0-6.1-4.9-11-11-11s-11,4.9-11,11c0,5,3.3,9.1,7.8,10.5c-4,4.1-7,4.9-7,8.6
		c0,2.2-1.7,16-2.5,21.6c-0.2,1.6,0.6,3.3,2,4.1c2,1.1,5.4,2.4,10.6,2.4c5.2,0,8.6-1.3,10.6-2.4c1.4-0.8,2.2-2.4,2-4.1
		C1054.2,209,1052.4,195.2,1052.4,193z"/>
</g>
</svg>
