<?xml version="1.0" encoding="utf-8"?>
<!-- Generator: Adobe Illustrator 19.2.0, SVG Export Plug-In . SVG Version: 6.00 Build 0)  -->
<svg version="1.1" id="Layer_1" xmlns="http://www.w3.org/2000/svg" xmlns:xlink="http://www.w3.org/1999/xlink" x="0px" y="0px"
	 viewBox="0 0 176 176" enable-background="new 0 0 176 176" xml:space="preserve">
<g>
	<circle fill="#58DBCC" cx="88" cy="88" r="88"/>
	<path fill="#E1F073" d="M78,60.8c0-4-3.1-4.8-7.4-9.1c4.8-1.4,8.2-5.8,8.2-11.1c0-6.4-5.2-11.6-11.6-11.6s-11.6,5.2-11.6,11.6
		c0,5.2,3.5,9.6,8.2,11.1c-4.3,4.4-7.4,5.2-7.4,9.1c0,2.3-1.8,16.9-2.6,22.8c-0.2,1.7,0.6,3.4,2.1,4.3c2.1,1.2,5.7,2.5,11.2,2.5
		s9.1-1.3,11.2-2.5c1.5-0.9,2.3-2.6,2.1-4.3C79.9,77.6,78,63.1,78,60.8z M122,83.5c-0.8-5.9-2.6-20.5-2.6-22.8c0-4-3.1-4.8-7.4-9.1
		c4.8-1.4,8.2-5.8,8.2-11.1c0-6.4-5.2-11.6-11.6-11.6s-11.6,5.2-11.6,11.6c0,5.2,3.5,9.6,8.2,11.1c-4.3,4.4-7.4,5.2-7.4,9.1
		c0,2.3-1.8,16.9-2.6,22.8c-0.2,1.7,0.6,3.4,2.1,4.3c2.1,1.2,5.7,2.5,11.2,2.5s9.1-1.3,11.2-2.5C121.4,87,122.2,85.3,122,83.5z"/>
	<path fill="#FFFFFF" d="M139.2,88.1c0-12.3-22.9-22.3-51.2-22.3s-51.2,10-51.2,22.3c0,8.9,12.1,16.6,29.6,20.2l-6.3,19.1
		c-0.3,0.8,0.2,1.7,1,2c0.2,0.1,0.3,0.1,0.5,0.1c0.7,0,1.3-0.4,1.5-1.1l6.4-19.5c5.7,1,12,1.5,18.5,1.5s12.8-0.5,18.5-1.5l6.4,19.5
		c0.2,0.7,0.8,1.1,1.5,1.1c0.2,0,0.3,0,0.5-0.1c0.8-0.3,1.3-1.2,1-2l-6.3-19.1C127.1,104.7,139.2,97,139.2,88.1z"/>
	<path fill="#E1F073" d="M98.7,116c0-4-3.1-4.8-7.4-9.1c4.8-1.4,8.2-5.8,8.2-11.1c0-6.4-5.2-11.6-11.6-11.6s-11.6,5.2-11.6,11.6
		c0,5.2,3.5,9.6,8.2,11.1c-4.3,4.4-7.4,5.2-7.4,9.1c0,2.3-1.8,16.9-2.6,22.8c-0.2,1.7,0.6,3.4,2.1,4.3c2.1,1.2,5.7,2.5,11.2,2.5
		s9.1-1.3,11.2-2.5c1.5-0.9,2.3-2.6,2.1-4.3C100.5,132.8,98.7,118.3,98.7,116z M152.2,117.7c-0.8-5.9-2.6-20.5-2.6-22.8
		c0-4-3.1-4.8-7.4-9.1c4.8-1.4,8.2-5.8,8.2-11.1c0-6.4-5.2-11.6-11.6-11.6c-6.4,0-11.6,5.2-11.6,11.6c0,5.2,3.5,9.6,8.2,11.1
		c-4.3,4.4-7.4,5.2-7.4,9.1c0,2.3-1.8,16.9-2.6,22.8c-0.2,1.7,0.6,3.4,2.1,4.3c2.1,1.2,5.7,2.5,11.2,2.5c5.5,0,9.1-1.3,11.2-2.5
		C151.6,121.1,152.4,119.4,152.2,117.7z M47.8,94.9c0-4-3.1-4.8-7.4-9.1c4.8-1.4,8.2-5.8,8.2-11.1c0-6.4-5.2-11.6-11.6-11.6
		s-11.6,5.2-11.6,11.6c0,5.2,3.5,9.6,8.2,11.1c-4.3,4.4-7.4,5.2-7.4,9.1c0,2.3-1.8,16.9-2.6,22.8c-0.2,1.7,0.6,3.4,2.1,4.3
		c2.1,1.2,5.7,2.5,11.2,2.5c5.5,0,9.1-1.3,11.2-2.5c1.5-0.9,2.3-2.6,2.1-4.3C49.6,111.7,47.8,97.2,47.8,94.9z"/>
</g>
</svg>
