<?xml version="1.0" encoding="utf-8"?>
<!-- Generator: Adobe Illustrator 19.2.0, SVG Export Plug-In . SVG Version: 6.00 Build 0)  -->
<svg version="1.1" id="Layer_1" xmlns="http://www.w3.org/2000/svg" xmlns:xlink="http://www.w3.org/1999/xlink" x="0px" y="0px"
	 viewBox="0 0 1600 668.5" enable-background="new 0 0 1600 668.5" xml:space="preserve">
<rect y="0" fill="#66ADCB" width="1600" height="668.5"/>
<path fill="#DDD3D4" d="M412.7,568L412.7,568c-1.5,0.2-2.8-0.7-3.1-2.2l-11.9-73.5c-0.2-1.5,0.7-2.8,2.2-3.1h0
	c1.5-0.2,2.8,0.7,3.1,2.2l11.9,73.5C415.1,566.4,414.1,567.8,412.7,568z"/>
<path fill="#664D4E" d="M425.5,516.8l-44.3,7.2c-1.1,0.2-2.1-0.6-2.3-1.7l-3.5-21.4c-0.2-1.1,0.6-2.1,1.7-2.3l44.3-7.2
	c0.5-0.1,1,0,1.4,0.3l13.4,8.8c1,0.6,1.2,2,0.5,2.9l-9.9,12.6C426.5,516.4,426,516.7,425.5,516.8z"/>
<polygon fill="#F5FAF9" points="1333.3,368.5 1066.7,458.5 800,508.5 533.3,518.5 266.7,596.5 0,668.5 1600,668.5 1600,218.5 "/>
<path fill="#FFE682" d="M1600,276l-1.7-2.5c-115.8,76.5-228.1,137.7-343.3,187.2c-119.5,51.3-239.6,89-367.3,115.1
	c-130,26.6-264.6,40.6-411.5,42.8C329,620.9,173.4,611.2,0.4,589L0,592v3C157,615.1,299.8,625,434.9,625c13.9,0,27.7-0.1,41.4-0.3
	c147.2-2.2,282.2-16.3,412.6-43c128.1-26.2,248.6-64,368.5-115.5c114.9-49.4,227-110.4,342.6-186.6V276z"/>
<g>
	<path fill="#FFF3C1" d="M950,452.3c-0.2,5.1,8.4,7.8,8.4,7.8s9,1.1,10.9-3.7c1.1-2.7,1.3-5.8,0.7-8.6c-6.6-1.4-3.1-6.7-6.7-7.5
		C956.9,439,950.3,445.6,950,452.3z"/>
	<path fill="#EBC7C1" d="M950.4,452.5c-1.6,7.4,3.9,11.1,7.2,11.8c3.3,0.7,9.8-0.4,11.4-7.8c1.2-5.7-1.4-11.1-7.1-12.3
		C956.2,443,951.6,446.8,950.4,452.5z"/>
	<path fill="#FFF3C1" d="M954.4,444.2c4.8,6.6,13.2,5.1,16-1.1C966.9,438.8,958.2,436.1,954.4,444.2z"/>
	<path fill="#FFF3C1" d="M954.4,444.1c2.7,7.6,12.7,9.9,18.4,5.9C970.7,444.8,962.1,439,954.4,444.1z"/>
	<polygon fill="#FF7353" points="962.8,456.5 964.2,461.6 959.6,460.6 	"/>
	<path opacity="5.000000e-02" fill="#0E1414" d="M928.2,536c-0.1,2-2.4,6.2,14.6,6.8c17,0.6,29.7-2.6,29.8-4.7s-5.9-4.5-23-5.1
		C932.6,532.5,928.2,534,928.2,536z"/>
	<path fill="#EBC7C1" d="M954.7,464.7l1.5-4.1c0.3-0.7,1-1,1.7-0.9l0,0c0.7,0.2,1.1,0.9,1,1.6l-0.7,4.3c-0.2,1,0.5,1.8,1.3,2.4
		c8.8,7-6.6,10.2-6.6,10.2l-8.4-10.2c0,0,3-2.5,7.8-1.9C953.4,466.2,954.4,465.6,954.7,464.7z"/>
	<g>
		<path fill="#EBC7C1" d="M933.8,479c1.7,3.4,0.1,13.5,0.1,13.5l-1.8,0.4l-1.4-15.2l7.1-6.8c4.5-4,11.7-6.1,10.9-3
			C947.6,472.3,933.8,479,933.8,479z"/>
		<g>
			<g>
				<path fill="#EBC7C1" d="M934.3,500.5c0,0-2.4-1.8-2.7-4.3c-0.3-2.5,0.3-4.6,1.2-4.7c0.9-0.1,1.9,1.8,2.2,4.3
					c0.3,2.5,0.3,4.5,0.3,4.5L934.3,500.5z"/>
			</g>
		</g>
		<path fill="#EBC7C1" d="M932.9,492c2-0.1,1.5,2.7,3.4,4.3C936.3,496.3,933.3,497.6,932.9,492z"/>
	</g>
	<path fill="#FF6152" d="M941.5,538l-9.9-2.2c0,0-0.1-1.7,1.8-2.7l2.1,0.2C935.4,533.4,942.5,535.6,941.5,538z"/>
	<g>
		<path fill="#EBC7C1" d="M965.9,487.4c3.8,0.7,9,5.7,9,5.7l-0.4,1.7l-11.5-5.3c0,0-3-3.9-4.9-10.6c-2-6.7,3.5-9.3,3.9-7.6
			C962.7,473.7,965.9,487.4,965.9,487.4z"/>
		<g>
			<g>
				<path fill="#EBC7C1" d="M976.8,497.3c-2-1.5-3.8-2.6-3.4-3.6c0.4-0.9,2.9-1.3,4.9,0.2C979.9,495,978.4,498.4,976.8,497.3z"/>
			</g>
		</g>
		<path fill="#EBC7C1" d="M973.5,493.6c0.9-1.8,3.1,0.1,5.4-0.7C978.9,492.9,978.6,496.1,973.5,493.6z"/>
	</g>
	<path fill="#EBC7C1" d="M932.8,533.9l2.2,0.1l11.1-14.9c0,0,6.8-12.5,6.8-19.2S946,497,946,497l-4.1,19.7
		C937.7,521,932.8,533.9,932.8,533.9z"/>
	<path fill="#EBC7C1" d="M938.9,500.7c0.1-7,1.1-9.1,1.1-9.1H952c0,0,1,2.1,1.1,9.1c0,0-0.1,5.4-7.1,5.4S938.9,500.7,938.9,500.7z"
		/>
	<path fill="#2912A7" d="M949.3,495.1c-5.8,1.7-2.1,4.8-7,15.1c0,0,0.2,1.2,3.3,2.4c3.1,1.2,4.5,0.6,4.5,0.6l3.1-7.6
		C953.1,505.5,955,493.4,949.3,495.1z"/>
	<path fill="#FF6152" d="M967.9,534.1c1.4-0.2,3.1-2.6,3.1-2.6s-1.6-2.3-7.3,0.2c0,0-1.3,1.5-1.8,2c-0.2,1,1.1,1.7,1.1,1.7
		S966.5,534.3,967.9,534.1z"/>
	<path fill="#EBC7C1" d="M940,501.8c2.3,5.1,20.7,12.8,20.7,12.8c-1.5,6.2,1.7,18.5,1.7,18.5l2.4-0.2l-0.3-19.9L946,498
		C946,498,936.6,494.5,940,501.8z"/>
	<path fill="#2912A7" d="M937.6,497.7c0,10.6,5.8,6.9,13.8,14.3c0,0,1.1,0.1,3.1-2.4c1.9-2.5,1.7-3.9,1.7-3.9l-6.1-4.9
		C950.1,500.7,937.6,492,937.6,497.7z"/>
	<path fill="#FF7353" d="M953.9,500.6c3.2-8.6,1.9-10.7,5-18.2c3-7,3.2-13.3,0.6-14.4c0,0-1,6.3-4.4,5.3s-4.3-7.7-4.3-7.7
		c-3.3-0.1-3.6,0.7-3.6,0.7c-4.5,8.7-3.7,17.5-9.8,29.3C937.4,495.6,946.3,503.9,953.9,500.6z"/>
</g>
<g>
	<path opacity="5.000000e-02" fill="#0E1414" d="M1471.8,328.9c14.7-0.7,20.5-4.7,20.8-7.9s-4.9-2.2-19.3-5.2
		C1438.6,308.4,1438.8,330.4,1471.8,328.9z"/>
	<path fill="#2B3635" d="M1463.5,280.4c1.8-5.9,3.4-7.4,3.4-7.4l14.6,4c0,0,0.7,2.1-0.8,8.1c0,0-4.7,3.7-10.2,2.2
		C1465.1,285.8,1463.5,280.4,1463.5,280.4z"/>
	<path fill="#CFE144" d="M1482.1,323.3c1,0.5,3.1-0.7,3.1-0.7s-0.2-2.5-5.1-3c0,0-1.5,0.5-2,0.7c-0.5,0.7,0.1,1.8,0.1,1.8
		S1481.1,322.8,1482.1,323.3z"/>
	<path fill="#CFE144" d="M1457,319.7c-0.9,0.7-3.2,0-3.2,0s-0.4-2.4,4.4-4c0,0,1.6,0.2,2.1,0.3c0.6,0.5,0.3,1.8,0.3,1.8
		S1457.9,319,1457,319.7z"/>
	<path fill="#2B3635" d="M1473.2,281.6c0.5,7.8,3.8,20.7,3.8,20.7c-1.7,5.3,1.2,18,1.2,18l2-0.7l1.1-18.2l0.2-19.7H1473.2z"/>
	<path fill="#2B3635" d="M1468.8,277c5.2,5.9-4.7,21-4.7,21c2.2,6-3.8,18.1-3.8,18.1l-2.1-0.3l1.2-17.4l3.7-16.7L1468.8,277z"/>
	<path fill="#664D4E" d="M1478.1,248.9l1.2-3.7c0.2-0.6,0.8-1,1.4-0.8l0,0c0.6,0.1,1,0.7,1,1.3l-0.5,3.8c-0.1,0.9,0.4,1.7,1.3,2.1
		c4,1.5,5.9,4.3,5.9,4.3l-11.2,4.9l-8.2-9.1c0,0,2.9-1.8,7.1-1.5C1477,250.4,1477.8,249.8,1478.1,248.9z"/>
	<g>
		<path fill="#664D4E" d="M1457.2,252.6l-11.2-15.1l1.6-0.5l9.6,10.8l9.6,0.7c5.2,0.6,9.1,2.9,6.6,4.2
			C1469.8,254.5,1457.2,252.6,1457.2,252.6z"/>
		<g>
			<path fill="#664D4E" d="M1444.2,230.8c0,0-1,2.5,0,4.4c1,2,2.3,3.3,3.1,2.9c0.8-0.4,0.6-2.3-0.4-4.3c-1-2-1.9-3.5-1.9-3.5
				L1444.2,230.8z"/>
			<path fill="#664D4E" d="M1447.2,238.2c1.6-0.8,0-2.7,0.7-4.8C1447.9,233.4,1445.1,233.7,1447.2,238.2z"/>
		</g>
	</g>
	<g>
		<path fill="#08D0B7" d="M1474.5,250.1c0,0-2.1-2.1-6.7-2.4c-1.8-0.1-10.6,0-10.6,0l0,4.9c0,0,7,1.4,9.5,1.8
			C1473,255.5,1474.5,250.1,1474.5,250.1z"/>
	</g>
	<g>
		<path fill="#664D4E" d="M1497.5,263.4l17.2-7.5l-1.1-1.2l-13.7,4.5l-8.6-4.2c-4.8-2.1-9.4-2-7.9,0.3
			C1485.6,258.8,1497.5,263.4,1497.5,263.4z"/>
		<g>
			<path fill="#664D4E" d="M1519.7,251.1c0,0-0.4,2.6-2.2,3.9c-1.8,1.2-3.7,1.7-4.2,1c-0.5-0.7,0.6-2.3,2.4-3.5s3.4-2.1,3.4-2.1
				L1519.7,251.1z"/>
			<path fill="#664D4E" d="M1513.4,255.9c-1-1.5,1.4-2.3,1.8-4.5C1515.1,251.5,1517.5,253.1,1513.4,255.9z"/>
		</g>
	</g>
	<g>
		<path fill="#08D0B7" d="M1483.8,252.6c0,0,2.9-0.8,7,1.3c1.6,0.8,9.1,5.3,9.1,5.3l-2.4,4.2c0,0-6.8-2.3-9.1-3.2
			C1482.4,258,1483.8,252.6,1483.8,252.6z"/>
	</g>
	<path fill="#08D0B7" d="M1470.3,250.4c0,0,1.9-0.6,4.8-0.7c0,0,0.3,3,2.2,4.3l0,0l0.4,4.1l2.1-3.6l0,0c2.3-0.4,3.8-3,3.8-3
		c2.6,1.3,4.1,2.6,4.1,2.6s-6,19.9-6,31.6c0,0-3.6,1.2-8.5,0.5l-0.8-3.2l-2,2.6c-4.8-1.4-7.6-4-7.6-4
		C1467.5,271.1,1470.3,250.4,1470.3,250.4z"/>
	
		<ellipse transform="matrix(0.2102 -0.9777 0.9777 0.2102 910.77 1650.5083)" fill="#08D0B7" cx="1477" cy="261.5" rx="0.8" ry="0.8"/>
	
		<ellipse transform="matrix(0.2102 -0.9777 0.9777 0.2102 905.2467 1653.2979)" fill="#08D0B7" cx="1475.9" cy="266.3" rx="0.8" ry="0.8"/>
	<path fill="#420709" d="M1473.8,238c1.3-5,5.8-7.7,10.2-6.6c4.4,1.1,7,5.7,5.7,10.7c-1.3,5-5.9,8.1-10.3,7S1472.5,243,1473.8,238z"
		/>
	<path fill="#664D4E" d="M1473.9,240.4c-1.5,5.8,2.7,8.9,5.3,9.5s7.8,0,9.3-5.8c1.1-4.4-0.8-8.8-5.2-9.9S1475.1,236,1473.9,240.4z"
		/>
	
		<ellipse transform="matrix(0.8616 -0.5076 0.5076 0.8616 86.7604 780.5254)" fill="#420709" cx="1474.5" cy="231.2" rx="4.4" ry="3.3"/>
	<path fill="#420709" d="M1488.5,244c0,0,3.3-8.4-5-10.5c-8.4-2.2-9.5,6.8-9.5,6.8s1.5-6.1,8.9-4.3
		C1490.2,237.9,1488.5,244,1488.5,244z"/>
	<polygon fill="#A79899" points="1481.7,240.3 1481.9,245 1479.3,244.3 	"/>
</g>
<g>
	<g>
		<g>
			<path fill="#FFE9E8" d="M889.4,480.4c0,0-2.6,1.6-5,0.9s-4.1-2-3.8-2.9c0.3-0.9,2.4-1.1,4.8-0.4c2.4,0.7,4.3,1.5,4.3,1.5
				L889.4,480.4z"/>
		</g>
	</g>
	<path fill="#FFE9E8" d="M880.6,478.3c0.7-1.9,3.1-0.4,5.3-1.4C885.9,476.8,885.9,480.1,880.6,478.3z"/>
	<path opacity="5.000000e-02" fill="#0E1414" d="M830.6,527.1c0.2,2.2,9.5,1.7,25.1-2.4c15.6-4.1,21.8-6,21.6-8.3s-6.2-3.4-22.4-1.6
		C838.6,516.6,830.4,524.9,830.6,527.1z"/>
	<path fill="#FFE9E8" d="M866.3,447.9l2.3-3.7c0.4-0.6,1.2-0.8,1.8-0.5l0,0c0.6,0.3,0.9,1.1,0.7,1.7l-1.5,4.1c-0.4,1,0,2,0.8,2.6
		c4,2.7-8.3,8.7-8.3,8.7l-6.5-12.2c0,0,3.6-1.2,8.2,0.3C864.7,449.1,865.8,448.7,866.3,447.9z"/>
	<path fill="#FF7353" d="M881.5,439.3c-0.2,7-6.4,11.8-9.6,11.6c-3.3-0.1-9.1-5.3-8.9-12.3c0.3-8.4,9.6-12.1,9.6-12.1
		S881.7,430.9,881.5,439.3z"/>
	<path fill="#FFE9E8" d="M882.1,442.9c-0.2,7-5.9,9-9,8.9c-3.1-0.1-8.7-2.5-8.4-9.5c0.2-5.3,3.7-9.5,9.1-9.4
		S882.2,437.6,882.1,442.9z"/>
	<polygon fill="#F09CAC" points="875.6,442 873.4,445.3 877.7,445.5 	"/>
	<path fill="#FF7353" d="M873.6,433c-6.1-0.2-3,6.3-6.7,7.2c-0.2,0.1-2.2-1.8-2.4,2.1C864.7,437.5,866,427.5,873.6,433z"/>
	<path fill="#2B3635" d="M867.8,517.6l-10.1,0.3c0,0-0.5-1.6,1.1-3l2-0.3C860.7,514.5,868.2,515,867.8,517.6z"/>
	<path fill="#1F7696" d="M858.4,514.8l2.1,0.9l7.7-19.4l-13.6-18.2l-8.7,5.2c10.7,11.4,17.2,13.6,17.2,13.6
		C859.8,502,858.4,514.8,858.4,514.8z"/>
	<path fill="#2B3635" d="M814.2,508.9c-0.5,1.2,1,3.5,1,3.5s2.8-0.3,3.1-5.9c0,0-0.7-1.6-0.9-2.2c-0.8-0.5-2.1,0.2-2.1,0.2
		S814.7,507.7,814.2,508.9z"/>
	<path fill="#1F7696" d="M845.2,476.6c-5.1,7.2-9.4,19.9-9.4,19.9c-6.3,0.6-18.5,7.7-18.5,7.7l0.9,2.2l20.3-6.5l13.8-17.4
		L845.2,476.6z"/>
	<path fill="#1F7696" d="M844.9,478.9c2.7-6.4,4.4-8,4.4-8l11.2,4.5c0,0,0.1,2.3-2.4,8.8c0,0-2.1,5-8.6,2.4
		C842.9,484,844.9,478.9,844.9,478.9z"/>
	<path fill="#FFE9E8" d="M870.7,474c3.8-0.4,10.6,3.5,10.6,3.5l-0.3,1.8l-13.1-3.2l0.1-12.1c0.8-5.9,2.7-8.8,4.1-5.9
		C874.1,462.3,870.7,474,870.7,474z"/>
	<path fill="#FFE682" d="M873.7,462.6c0,0-3.3,0.2-7.5-3.1l4.4-7.1C876.6,456.3,873.7,462.6,873.7,462.6z"/>
	<path fill="#FFE9E8" d="M841.6,456.8c-0.5,3.8-5.5,10.4-5.5,10.4l-1.7-0.7l5.7-12.4l11.3-4.3c5.8-1.4,9.1-0.8,7,1.6
		C855.3,454.8,841.6,456.8,841.6,456.8z"/>
	<g>
		<g>
			<g>
				<path fill="#FFE9E8" d="M830.8,473.7c0,0-0.5-3,1-4.9c1.5-2,3.4-3.1,4.1-2.5c0.8,0.6,0.1,2.7-1.4,4.6s-2.9,3.5-2.9,3.5
					L830.8,473.7z"/>
			</g>
		</g>
		<path fill="#FFE9E8" d="M835.9,466.2c1.6,1.3-0.8,3-0.5,5.4C835.3,471.6,832.3,470.6,835.9,466.2z"/>
	</g>
	<path fill="#FFE682" d="M857.3,447.4c0,0-3.3-0.8-7.9,1.7l3.1,7.8C859.1,454.1,857.3,447.4,857.3,447.4z"/>
	<path fill="#FFE682" d="M858.1,484.3c4.8-7.8,5.2-11.3,9.6-18c4.2-6.3,5-12.8,2.6-14.3c0,0-1.5,2.6-4.6,1.1c-3.1-1.5-3-5.2-3-5.2
		c-3.2-0.7-5.4-0.5-5.4-0.5c-6,7.7-7,20.8-15.1,31.1C842.2,478.5,850.1,486.2,858.1,484.3z"/>
</g>
<g>
	<path fill="#015247" d="M543,449c-8.1-2.4-24.1,5.7-19.6,16.2c4,9.4-10.4,18.2,8.9,19.6c10.5,0.8,24.9-3.6,19.2-18.9
		C548.7,458.6,552.1,451.7,543,449z"/>
	<path fill="#FFF3C1" d="M548,461.9c1.2,7-4.2,10.2-7.3,10.8c-3.1,0.5-9.2-0.8-10.4-7.9c-0.9-5.4,1.8-10.3,7.2-11.2
		C542.9,452.7,547.1,456.5,548,461.9z"/>
	<path fill="#015247" d="M544.7,454.8c-2.2,9-11.7,11.1-17.3,5.8C529.2,454.5,537.2,448,544.7,454.8z"/>
	<polygon fill="#FFD31C" points="542.7,462 541.3,466.7 545.6,466 	"/>
	<path opacity="5.000000e-02" fill="#0E1414" d="M514.4,549.7c-0.3,2.1,8.3,3.6,23.5,3.4c15.1-0.3,21.2-0.7,21.5-2.8
		c0.3-2.1-4.9-4.4-20.1-6.4S514.7,547.7,514.4,549.7z"/>
	<path fill="#FFF3C1" d="M538.4,473.2l0.6-4.1c0.1-0.7,0.7-1.2,1.4-1.1l0,0c0.7,0,1.2,0.6,1.2,1.2l0.2,4.1c0,1,0.7,1.8,1.7,1.9
		c4.5,0.9-3.9,10.6-3.9,10.6l-10.2-8.1c0,0,2.7-2.4,7.2-2.8C537.5,474.9,538.2,474.2,538.4,473.2z"/>
	<path fill="#FF7353" d="M560.7,539.9l-8.8,3.6c0,0-0.9-1.2-0.1-3l1.7-1C553.5,539.5,560.2,537.4,560.7,539.9z"/>
	<path fill="#A22900" d="M551.5,540.5l2.1,0.1l0.8-18.6l-11.9-17.6l-8.4,4.5c9.5,11.2,15.6,14.4,15.6,14.4
		C548.5,528.9,551.5,540.5,551.5,540.5z"/>
	<path fill="#FF7353" d="M524.3,550.3c0.8,0.9,3.4,0.6,3.4,0.6s0.8-2.5-3.8-5c0,0-1.7-0.1-2.3-0.1c-0.8,0.4-0.6,1.8-0.6,1.8
		S523.5,549.4,524.3,550.3z"/>
	<path fill="#A22900" d="M530.7,505.7c-2.3,8-2.9,22.6-2.9,22.6c-3.5,4.8-6,17.8-6,17.8l2.2,0.7l8-18.4l7-19.7L530.7,505.7z"/>
	<path fill="#A22900" d="M531.5,508c-0.1-6.5,0.8-8.5,0.8-8.5l11.3-0.3c0,0,0.9,1.9,1.2,8.5c0,0,0,5.1-6.5,5.2
		C531.7,513.1,531.5,508,531.5,508z"/>
	<path fill="#FFF3C1" d="M550.2,493.8c2.7-2.3,8-3.8,8-3.8l1.1,1.4l-11.1,6.1l-2.8-11c-0.7-5.5,0.3-8.6,2.2-6.4
		C550.3,483.4,550.2,493.8,550.2,493.8z"/>
	<g>
		<g>
			<g>
				<path fill="#FFF3C1" d="M565.4,486.2c0,0-0.6,2.8-2.6,3.9c-2,1.2-4,1.5-4.5,0.7c-0.5-0.8,0.8-2.4,2.8-3.5s3.8-2,3.8-2
					L565.4,486.2z"/>
			</g>
		</g>
		<path fill="#FFF3C1" d="M558.3,490.9c-0.9-1.7,1.7-2.3,2.4-4.5C560.7,486.4,562.9,488.4,558.3,490.9z"/>
	</g>
	<path fill="#CFE144" d="M550.4,491.5l-4.2,1.5c0,0-2.3-9.6-3.7-10.3l1.2-7.3C550.4,476.7,550.4,491.5,550.4,491.5z"/>
	<path fill="#FFF3C1" d="M520.9,490.1c1,3.4-1.3,11.9-1.3,11.9l-1.7,0.1l0.3-13.7l8.1-7.9c4.5-3.4,7.6-4.1,6.6-1.2
		C531.5,483.3,520.9,490.1,520.9,490.1z"/>
	<g>
		<g>
			<g>
				<path fill="#FFF3C1" d="M517.4,509.7c0,0-1.6-2.3-1-4.6c0.6-2.3,1.7-3.9,2.6-3.7c0.9,0.2,1.1,2.2,0.5,4.5
					c-0.6,2.3-1.2,4.1-1.2,4.1L517.4,509.7z"/>
			</g>
		</g>
		<path fill="#FFF3C1" d="M519,501.3c1.8,0.5,0.4,2.9,1.5,4.9C520.5,506.2,517.5,506.4,519,501.3z"/>
	</g>
	<path fill="#CFE144" d="M530.5,476.2c0,0-6,3.6-10.8,10.7l3.5,2.2l6.4-4.3C534.3,479.9,530.5,476.2,530.5,476.2z"/>
	<path fill="#CFE144" d="M544.9,507.7c1.2-8.5,0.2-11.7,1.6-19.1c1.3-7-0.5-12.9-3.1-13.3c0,0-0.3,2.8-3.6,2.7s-4.5-3.4-4.5-3.4
		c-3,0.6-4.9,1.6-4.9,1.6c-2.3,8.9,1.7,20.5-1.4,32.5C529,508.7,538.7,512.3,544.9,507.7z"/>
</g>
<path fill="#DDD3D4" d="M1183.2,431.9c-0.9-0.5-1.4-1.5-1.2-2.5l13.3-69.9c0.2-1.3,1.5-2.1,2.8-1.9c1.3,0.2,2.1,1.5,1.9,2.8
	l-13.3,69.9c-0.2,1.3-1.5,2.1-2.8,1.9C1183.7,432.1,1183.4,432,1183.2,431.9z"/>
<path fill="#CDFAB7" d="M1201,356c-11.5-25-32.2-25.7-31.9-13.5c0.6,23.1-16.5,3.5-18.4-8.9s-4.4,1.7-3.7,10.7
	c1.2,15.1,17,44,25,18.8c8-25.2,0.3,21.5,22.1,28.7L1201,356z"/>
</svg>
