<?xml version="1.0" encoding="utf-8"?>
<!-- Generator: Adobe Illustrator 19.2.0, SVG Export Plug-In . SVG Version: 6.00 Build 0)  -->
<svg version="1.1" id="Layer_1" xmlns="http://www.w3.org/2000/svg" xmlns:xlink="http://www.w3.org/1999/xlink" x="0px" y="0px"
	 viewBox="0 0 176 176" enable-background="new 0 0 176 176" xml:space="preserve">
<g>
	<circle fill="#58DBCC" cx="88" cy="88" r="88"/>
	<path fill="#FFFFFF" d="M27.2,71.1c0-10.9,2.6-21,7.9-29.4c1.3-2-1.5-4.2-3.1-2.4C21.8,50.3,16.8,65,16.8,81.1
		c0,21.5,12.1,40.4,30.4,51.4v-21.4C35,101.4,27.2,87.1,27.2,71.1z"/>
	<path fill="#FFFFFF" d="M144,39.3c-1.6-1.8-4.4,0.4-3.1,2.4c5.3,8.4,7.9,18.5,7.9,29.4c0,16-7.7,30.4-19.9,40.1v21.4
		c18.3-11.1,30.4-30,30.4-51.4C159.2,65,154.2,50.3,144,39.3z"/>
	<path fill="#E1F073" d="M108.3,102.1c0-10.7-8.6-19.3-19.3-19.3s-19.3,8.6-19.3,19.3c0,8.7,5.8,16.1,13.7,18.5
		c-7.1,7.3-12.3,8.6-12.3,15.2c0,3.8-3,27.6-4.3,37.7c6.8,1.7,13.8,2.6,21.1,2.6c8,0,15.7-1.1,23.1-3.1c-1.3-10.3-4.2-33.4-4.2-37.2
		c0-6.6-5.2-7.9-12.3-15.2C102.5,118.2,108.3,110.8,108.3,102.1z"/>
	<path fill="#FFFFFF" d="M131.8,139.7v-12.1l4.2-9.4l-4.2-5.1v-15c0-2-2.5-2.7-3.6-1.1l-16.8,25.2l17,18.9
		C129.6,142.4,131.8,141.5,131.8,139.7z"/>
	<path fill="#FFFFFF" d="M109.1,52.2H66.9c-1.9,0-2.7,2.3-1.2,3.5l22.3,18l22.3-18C111.8,54.5,111,52.2,109.1,52.2z"/>
	<path fill="#FFFFFF" d="M44.2,139.7v-12.1l-4.2-9.4l4.2-5.1v-15c0-2,2.5-2.7,3.6-1.1l16.8,25.2l-17,18.9
		C46.4,142.4,44.2,141.5,44.2,139.7z"/>
	<path fill="#FFFFFF" d="M86.1,20.3L74.5,52.2L88,55.4l13.5-3.2L89.9,20.3C89.2,18.6,86.8,18.6,86.1,20.3z"/>
</g>
</svg>
