<?xml version="1.0" encoding="utf-8"?>
<!-- Generator: Adobe Illustrator 19.2.0, SVG Export Plug-In . SVG Version: 6.00 Build 0)  -->
<svg version="1.1" id="Layer_1" xmlns="http://www.w3.org/2000/svg" xmlns:xlink="http://www.w3.org/1999/xlink" x="0px" y="0px"
	 viewBox="0 0 304 275" enable-background="new 0 0 304 275" xml:space="preserve">
<g>
	<g>
		<path fill="#DEF5FF" d="M192.9,185.1C105.7,165,111.5,241.5,46.4,223c-65.3-18.6-56.8-104.9-5-148.2s110.9-58.9,172.1-30.2
			C313.8,91.7,280.2,205.1,192.9,185.1z"/>
		<g>
			<path fill="#222929" d="M33.5,165.7h147.3c1.3,0,2.4,1.1,2.4,2.4v25.8c0,1.3-1.1,2.4-2.4,2.4H33.5c-1.3,0-2.4-1.1-2.4-2.4v-25.8
				C31.1,166.7,32.2,165.7,33.5,165.7z"/>
			<path fill="#1CB8FF" d="M68.5,140.3L68.5,140.3c0,1.2,0.9,2.1,2.1,2.1l138.1-2.7v21.7H70.6c-1.2,0-2.1,0.9-2.1,2.1v0
				c0,1.2,0.9,2.1,2.1,2.1H220c1.2,0,2.1-0.9,2.1-2.1v-25.9c0-1.2-0.9-2.1-2.1-2.1l-149.3,2.7C69.4,138.2,68.5,139.1,68.5,140.3z"/>
			<path fill="#FF7353" d="M101.2,103.6l108-1.9c1.3,0,2.4,1,2.4,2.3l0.4,20.1c0,1.3-1,2.4-2.3,2.4l-108,1.9c-1.3,0-2.4-1-2.4-2.3
				l-0.4-20.1C98.9,104.7,99.9,103.7,101.2,103.6z"/>
			
				<rect x="187.7" y="102" transform="matrix(0.9998 -1.780581e-02 1.780581e-02 0.9998 -2.0059 3.4927)" fill="#4224D6" width="14.8" height="24.9"/>
			
				<rect x="108.4" y="103.5" transform="matrix(0.9998 -1.780581e-02 1.780581e-02 0.9998 -2.0465 1.9717)" fill="#4224D6" width="2.6" height="24.9"/>
			<path fill="#FFE884" d="M137.6,62.1c9.6-2.4,21.2,8.1,11.2,31l-6.1-8.7L137,90c0,0,8.4-17.5-0.8-17.5
				C127,72.6,137.6,62.1,137.6,62.1z"/>
			<path fill="#8EDA6D" d="M44.4,99.5l81.7-47.7c2.9-1.7,6.5-0.7,8.2,2.2l10.4,17.8c1.7,2.9,0.7,6.5-2.2,8.2l-81.7,47.7
				c-2.9,1.7-6.5,0.7-8.2-2.2l-10.4-17.8C40.6,104.9,41.6,101.2,44.4,99.5z"/>
			
				<line fill="none" stroke="#CDFAB7" stroke-width="4" stroke-linecap="round" stroke-miterlimit="10" x1="61.7" y1="121.1" x2="50.5" y2="101.9"/>
			
				<line fill="none" stroke="#CDFAB7" stroke-width="4" stroke-linecap="round" stroke-miterlimit="10" x1="137.7" y1="76.9" x2="126.5" y2="57.6"/>
			<path fill="#FFE884" d="M32.1,129.3l132.9-2.4c1.3,0,2.4,1,2.4,2.3l0.1,4.9c0,1.3-1,2.4-2.3,2.4l-132.9,2.4c-1.3,0-2.4-1-2.4-2.3
				l-0.1-4.9C29.7,130.4,30.8,129.3,32.1,129.3z"/>
			<rect x="38.9" y="165.7" fill="#FF7353" width="18.9" height="30.6"/>
			<path fill="#FF7353" d="M168.3,186H153c-2.8,0-5-2.2-5-5l0,0c0-2.8,2.2-5,5-5h15.3c2.8,0,5,2.2,5,5l0,0
				C173.3,183.8,171,186,168.3,186z"/>
			<path fill="#FFFFFF" d="M61.9,134.6l-25.6,0.5c-0.6,0-1.1-0.5-1.1-1.1l0,0c0-0.6,0.5-1.1,1.1-1.1l25.6-0.5c0.6,0,1.1,0.5,1.1,1.1
				l0,0C63,134.1,62.5,134.6,61.9,134.6z"/>
			<path fill="#FFFFFF" d="M216.7,139.7l-141.1,2.7c0,0,1.9,0.6,2.5,5.1l13.1,1.1l-12.9,3.7c-0.4,6.2-2.6,9-2.6,9h141.1
				c0,0-3.6-4.4-3.6-10.8C213.2,144.2,216.7,139.7,216.7,139.7z"/>
			<path fill="#1CB8FF" d="M195.6,154H177c0,0,2.7-1.2,2.7-3.4h20.1c0,0.6-0.3,1.2-0.6,1.7C198.3,153.4,196.9,154,195.6,154z"/>
			<path fill="#01D0B7" d="M137.5,158.4h-18.7c0,0,2.7-1.2,2.7-3.4h20.1c0,0.8-0.4,1.4-0.9,2C139.9,157.9,138.7,158.4,137.5,158.4z"
				/>
			<path fill="#FFE884" d="M176.8,142.5l-17.5,3.8c0,0,2.7,0.3,2.7,2.5H182c0-1-0.7-2.9-1.4-4.4C179.9,143,178.3,142.2,176.8,142.5z
				"/>
			<g>
				<path fill="#FFF3C1" d="M210,156.8c0,0,0.2-4,19.5-4s19.5,4,19.5,4s-1.9,8-19.5,8S210,156.8,210,156.8z"/>
				<path fill="none" stroke="#FFF3C1" stroke-width="8" stroke-miterlimit="10" d="M260.5,180.2c0,7.6-2.9,13.7-9.6,13.7
					c-6.7,0-9.6-6.2-9.6-13.7s2.9-13.7,9.6-13.7C257.6,166.4,260.5,172.6,260.5,180.2z"/>
				<path fill="#FFF3C1" d="M210,156.8v42.9c0,2,1.2,3.8,3.1,4.5c3.1,1.1,8.4,2.6,16.4,2.6c7.9,0,13.3-1.4,16.4-2.6
					c1.9-0.7,3.1-2.5,3.1-4.5v-42.9c0,0-1.6,4-19.5,4S210,156.8,210,156.8z"/>
				<path fill="#FFE884" d="M220.6,206.1c2.5,0.4,5.4,0.6,8.8,0.6c7.9,0,13.3-1.4,16.4-2.6c1.9-0.7,3.1-2.5,3.1-4.5v-34.3
					C248.9,165.4,247.3,208.1,220.6,206.1z"/>
				<g>
					<path fill="#FF6252" d="M241.4,185.6c0,6.2-6.4,11.2-11.2,11.2c-4.8,0-11.2-5-11.2-11.2s2.7-9.3,11.2-9.3
						C238.7,176.3,241.4,179.4,241.4,185.6z"/>
					<path fill="#6AB446" d="M231.1,178.6c0,0-4.9-0.3-8.3-4c-3.3-3.5-1.8-7.8-1.8-7.8C221.4,170.8,232.9,167.4,231.1,178.6z"/>
					<path fill="#8EDA6D" d="M231.1,178.6c2.1-11.7-9.4-8-10.1-11.8C221.3,173,231,172.3,231.1,178.6z"/>
					
						<ellipse transform="matrix(0.2994 -0.9541 0.9541 0.2994 -19.3164 341.2171)" fill="#FFF7F6" cx="222.7" cy="183.8" rx="2.2" ry="1.2"/>
					<path fill="#FF2B02" d="M241.4,185.6c0-5-1.8-8.1-7.1-9c7.1,4.6,0.7,26-13.5,14.5c2,3.1,6.3,5.7,9.4,5.7
						C235,196.8,241.4,191.8,241.4,185.6z"/>
				</g>
				<ellipse fill="#FFE884" cx="229.4" cy="156.8" rx="14.8" ry="2.1"/>
			</g>
			<path fill="#FFFFFF" d="M234.9,146.4c14.7-6.6-1.8-10.6-8.3-18.2c-13.7-15.9,9.3-30.5,16.1-16.6c0.4,0.7-0.4,1.5-1.1,1.2
				c-2.6-1.3-6.2-0.3-7.6,3.3c-1.5,3.7,0.5,8.6,6.2,11.4C251.3,132.7,253.5,146.4,234.9,146.4z"/>
		</g>
	</g>
	<circle fill="#6AB446" cx="117.1" cy="76.4" r="9"/>
</g>
</svg>
