<?xml version="1.0" encoding="utf-8"?>
<!-- Generator: Adobe Illustrator 19.2.0, SVG Export Plug-In . SVG Version: 6.00 Build 0)  -->
<svg version="1.1" id="Layer_1" xmlns="http://www.w3.org/2000/svg" xmlns:xlink="http://www.w3.org/1999/xlink" x="0px" y="0px"
	 viewBox="0 0 550 550" enable-background="new 0 0 550 550" xml:space="preserve">
<path fill="#FFE8E1" d="M348.5,334.9c-49.6,31.7-74.6,81.2-55.8,110.7s74.2,27.6,123.8-4.1c49.6-31.7,74.6-81.2,55.8-110.7
	C453.6,301.4,398.1,303.2,348.5,334.9z M374.2,287.8c256.2-69.6-6.1-339.5-243.3-147c-88.3,71.7-98.8,241.4,5.6,286.4
	C241,472.3,264.5,317.6,374.2,287.8z"/>
<polygon fill="#4D3134" points="212.5,158.4 221.8,174.5 221.8,183.7 224.6,193.4 236.4,193.4 248.2,183.3 246.2,157.2 236.9,148.9 
	218.8,149.9 "/>
<polygon fill="#EF511C" points="410.4,284.2 453.9,284.2 449.9,277.3 439.4,266.1 420.4,261.2 411.3,267.7 "/>
<path fill="#FF7254" d="M381.5,257c0,0,63.9-16,75,27.1h-4.9c0,0-6-19.4-24.9-19.4c0,0-10.4-1.1-13.4,22.6l-1.3,31.7l0,58.2
	L381.5,257z"/>
<path fill="#0284FF" d="M168.8,323.6V205.5c0,0-2.5-17.1,19.1-17.1h194.9c0,0,17.6-1,17.6,14.1v141.2H168.7L168.8,323.6z"/>
<path fill="#FFFFFF" d="M375,331.6H188.1c-1.2,0-2.3-1-2.3-2.3V205.8c0-1.2,1-2.3,2.3-2.3H375c1.2,0,2.3,1,2.3,2.3v123.6
	C377.3,330.6,376.3,331.6,375,331.6z"/>
<path fill="#FF7254" d="M271.2,258.2c-4.6-19.5-24-31.6-43.5-27c-19.5,4.6-31.6,24-27,43.5c4,17.1,19.6,28.6,36.5,27.9l8,8.7
	c0.7,0.7,1.9,0.4,2.2-0.5l3.4-11.3C266.3,292.5,275.2,275.4,271.2,258.2z"/>
<ellipse transform="matrix(0.9737 -0.2277 0.2277 0.9737 -56.1028 56.8849)" fill="#FFFFFF" cx="218.5" cy="271.6" rx="6.4" ry="6.4"/>
<ellipse transform="matrix(0.9737 -0.2277 0.2277 0.9737 -54.4151 60.7096)" fill="#FFFFFF" cx="235.9" cy="266.2" rx="5.5" ry="5.5"/>
<ellipse transform="matrix(0.9737 -0.2277 0.2277 0.9737 -52.7274 64.5344)" fill="#FFFFFF" cx="253.3" cy="260.8" rx="7.4" ry="7.4"/>
<path fill="#01D0B7" d="M303.3,309c0-9.7-7.9-17.6-17.6-17.6s-17.6,7.9-17.6,17.6c0,8.6,6.1,15.7,14.2,17.3l2.8,5
	c0.2,0.4,0.9,0.4,1.1,0l2.8-5C297.2,324.7,303.3,317.6,303.3,309z"/>
<path fill="#FFFFFF" d="M284.8,304.7c-5.3-6-10.2,2.4-4.9,6.6c2.7,2.2,1.8,4,0.5,5.2c-0.5,0.4-0.1,1.2,0.6,1.1
	c4-0.7,11.3-3.1,12.8-11.5C294.8,300.3,287.2,298,284.8,304.7z"/>
<path fill="#FFD31C" d="M359.9,259.1c3.4-21.4-11.2-41.4-32.5-44.8s-41.4,11.2-44.8,32.5c-3,18.8,7.9,36.6,25.2,42.9l4.5,12
	c0.4,1,1.7,1.2,2.4,0.4l8-10C341,291.4,356.9,277.9,359.9,259.1z"/>
<path fill="#FFFFFF" d="M332.7,248.4c0,0-10.4-11.5-9.8-18.4c0,0-3.4-1.3-4,2.5c-0.6,3.8,0.7,10.7,0.7,10.7l-14.2-2.3
	c0,0-2.5,0.4-2.6,3.2c-0.2,2.9,1.1,2.9,1.1,2.9s-2.1,1.2-2.1,3.7c-0.1,2.6,1.5,3.4,1.5,3.4s-1.8,0.9-1.9,3.6c-0.1,2.7,2.5,4,2.5,4
	s-1,5.4,2.4,6.1c3.4,0.7,17.3,1.7,22.3-1.4c3.7-2.3,9.3-1.7,12.1-1.2c0.9,0.2,1.8-0.5,1.9-1.4l2-12.3c0.1-0.9-0.5-1.8-1.4-1.9
	L332.7,248.4z"/>
<circle fill="#0163E5" cx="389" cy="278.1" r="7.6"/>
<path fill="#FF7254" d="M161.3,319.1v65.3c0,0-1,13.6,16.6,13.6h221.1l-13.1-13.1v-65.8H161.3z"/>
<path fill="#EF511C" d="M412,384.8c0,7.2-5.9,13.1-13.1,13.1s-13.1-5.9-13.1-13.1v-65.8c0,0,5.9,7.5,13.8,7.5s12.4-7.5,12.4-7.5
	L412,384.8z"/>
<path fill="#664D4E" d="M82.1,185.8c-2.2-8.2,2-16.8,9.9-20.1c30.5-12.5,102.2-41.5,116.7-43.6c18.5-2.6,46.7,26,50.9,36.2
	c4.1,10.2-4.5,30.1-4.5,30.1h-16.4l-0.2-23.9c0,0-3.4-10.5-13.6-9.3l-20.3,10c0,0,3.8,12.6,22.4,21.1s17.8,13.3,15.3,17.8
	c-2.5,4.5-12.6,3.5-25.4-4.8s-22.4-8.3-22.4-8.3s-19.6,0.3-34.4-7.8c-9.5-5.1-36.4,5.3-54.7,13.5C95.8,201.1,84.8,195.8,82.1,185.8
	L82.1,185.8z"/>
<path fill="#664D4E" d="M155.2,454.7c-2.6-6.6-0.8-14.1,4.5-18.8l42.3-37c0,0,23.2-21.5,41.1-18.8c37,5.5,64.8,1.9,77.6-1.6
	c0,0,3.7-0.6,4.4,3.9c0.7,4.5-3.3,7.2-10.4,9.2s-33.3,5.2-33.3,5.2l-2.3,0.9l75.4,0.4c0,0-13.9,11.3-25.2,14.1
	c-11.3,2.8-24.7,7.5-24.7,7.5s-17.1,9.6-38.2,4.3s-31.6-5.7-42.8-1.3c-6.6,2.6-26.1,22-40.8,37.3
	C174.3,468.8,159.7,465.9,155.2,454.7L155.2,454.7z"/>
</svg>
