<?xml version="1.0" encoding="utf-8"?>
<!-- Generator: Adobe Illustrator 19.2.0, SVG Export Plug-In . SVG Version: 6.00 Build 0)  -->
<svg version="1.1" id="Layer_1" xmlns="http://www.w3.org/2000/svg" xmlns:xlink="http://www.w3.org/1999/xlink" x="0px" y="0px"
	 viewBox="0 0 760 466" enable-background="new 0 0 760 466" xml:space="preserve">
<g>
	<g>
		<path fill="#8372F8" d="M63.1,466.6c98.1-18,54.7-45.7,76.9-102c25-63.3,89.2-20.2,123.9,25.5c46.5,61.2,105.7,0.5,66.3-62.5
			C209.9,134.7,510,91,597.6,191.1c82.1,93.7-94.5,238,53.1,221.9c73.2-8,43.9,53.7,104.3,53.7H63.1z"/>
		<path fill="#8372F8" d="M276.1,0.6c125.8,13.9,79.4,32.9,40.6,72.2s70.5,58.7,112.4-18.7s154.1,44,223.1-9.3s51.4,13.2,103.4-44.2
			H276.1z"/>
		<path fill="#8372F8" d="M208.5,49.3c16.2,42.8-28.2,45.2-49.9,91.8c-47.2,101.4,73.9,111.8,56.2,39.8
			c-20.6-83.8,29.2-72.4,47.4-90C303.1,51.6,188.8-2.9,208.5,49.3z"/>
		<g>
			<circle fill="#FFFFFF" cx="72.1" cy="415.9" r="3"/>
			<circle fill="#FFFFFF" cx="198" cy="148.2" r="3"/>
			<circle fill="#FFFFFF" cx="691.7" cy="86.6" r="3"/>
			<circle fill="#FFFFFF" cx="688.7" cy="394.6" r="3"/>
			<circle fill="#FFFFFF" cx="396.4" cy="319.1" r="3"/>
			<circle fill="#FFFFFF" cx="315" cy="400.6" r="3"/>
			<circle fill="#FFFFFF" cx="396.4" cy="28.2" r="3"/>
			<circle fill="#FFFFFF" cx="139.5" cy="61.9" r="3"/>
			<circle fill="#FFFFFF" cx="319.5" cy="170.9" r="3"/>
			<circle fill="#FFFFFF" cx="581.2" cy="274.1" r="3"/>
		</g>
		<g>
			<circle fill="#BCB4FF" cx="394.4" cy="225.1" r="1.5"/>
			<circle fill="#BCB4FF" cx="396.4" cy="97.9" r="1.5"/>
			<circle fill="#BCB4FF" cx="353.1" cy="140.6" r="1.5"/>
			<circle fill="#BCB4FF" cx="648.4" cy="96.1" r="1.5"/>
			<circle fill="#BCB4FF" cx="579.7" cy="88.1" r="1.5"/>
			<circle fill="#BCB4FF" cx="721.1" cy="235.4" r="1.5"/>
			<circle fill="#BCB4FF" cx="519.7" cy="38.1" r="1.5"/>
			<circle fill="#BCB4FF" cx="465.4" cy="12.2" r="1.5"/>
			<circle fill="#BCB4FF" cx="669.7" cy="23.7" r="1.5"/>
			<circle fill="#BCB4FF" cx="142.5" cy="38.1" r="1.5"/>
			<circle fill="#BCB4FF" cx="260.4" cy="50.8" r="1.5"/>
			<circle fill="#BCB4FF" cx="353.1" cy="72.8" r="1.5"/>
			<circle fill="#BCB4FF" cx="239.7" cy="211.4" r="1.5"/>
			<circle fill="#BCB4FF" cx="274.4" cy="127.4" r="1.5"/>
			<circle fill="#BCB4FF" cx="301.7" cy="370.8" r="1.5"/>
			<circle fill="#BCB4FF" cx="371.1" cy="314.1" r="1.5"/>
			<circle fill="#BCB4FF" cx="417.1" cy="370.1" r="1.5"/>
			<circle fill="#BCB4FF" cx="361.1" cy="402.1" r="1.5"/>
			<circle fill="#BCB4FF" cx="262.4" cy="278.8" r="1.5"/>
			<circle fill="#BCB4FF" cx="654.4" cy="298.1" r="1.5"/>
			<circle fill="#BCB4FF" cx="662.4" cy="250.1" r="1.5"/>
			<circle fill="#BCB4FF" cx="556.4" cy="328.1" r="1.5"/>
			<circle fill="#BCB4FF" cx="639.2" cy="383.9" r="1.5"/>
			<circle fill="#BCB4FF" cx="705.2" cy="361.3" r="1.5"/>
			<circle fill="#BCB4FF" cx="679.2" cy="433.3" r="1.5"/>
			<circle fill="#BCB4FF" cx="568.6" cy="394.6" r="1.5"/>
			<circle fill="#BCB4FF" cx="474.6" cy="432.6" r="1.5"/>
			<circle fill="#BCB4FF" cx="401.9" cy="433.9" r="1.5"/>
			<circle fill="#BCB4FF" cx="261.9" cy="424.6" r="1.5"/>
			<circle fill="#BCB4FF" cx="130.3" cy="194.2" r="1.5"/>
			<circle fill="#BCB4FF" cx="73.6" cy="124.9" r="1.5"/>
			<circle fill="#BCB4FF" cx="161.6" cy="134.9" r="1.5"/>
			<circle fill="#BCB4FF" cx="754.4" cy="74.3" r="1.5"/>
			<circle fill="#BCB4FF" cx="608.4" cy="451.3" r="1.5"/>
			<circle fill="#BCB4FF" cx="193.5" cy="94" r="1.5"/>
			<circle fill="#BCB4FF" cx="112.8" cy="150.7" r="1.5"/>
			<circle fill="#BCB4FF" cx="184.1" cy="234" r="1.5"/>
			
				<ellipse transform="matrix(0.7071 -0.7071 0.7071 0.7071 -236.1402 200.621)" fill="#BCB4FF" cx="124.1" cy="385.4" rx="1.5" ry="1.5"/>
			
				<ellipse transform="matrix(0.7071 -0.7071 0.7071 0.7071 -167.6712 112.6258)" fill="#BCB4FF" cx="52.1" cy="258.7" rx="1.5" ry="1.5"/>
			
				<ellipse transform="matrix(0.7071 -0.7071 0.7071 0.7071 -239.2473 239.7888)" fill="#BCB4FF" cx="169.8" cy="408.7" rx="1.5" ry="1.5"/>
			
				<ellipse transform="matrix(0.7071 -0.7071 0.7071 0.7071 -190.4247 237.9205)" fill="#BCB4FF" cx="192" cy="348.8" rx="1.5" ry="1.5"/>
			
				<ellipse transform="matrix(0.7071 -0.7071 0.7071 0.7071 -170.0857 153.2711)" fill="#BCB4FF" cx="100" cy="281.9" rx="1.5" ry="1.5"/>
			
				<ellipse transform="matrix(0.7071 -0.7071 0.7071 0.7071 -159.4287 213.7563)" fill="#BCB4FF" cx="178.3" cy="299.3" rx="1.5" ry="1.5"/>
		</g>
	</g>
	<path fill="#BCB4FF" d="M84.9,302.6c-0.4,0-0.8-0.3-1-0.7c-5.7-19.5,19.8-46.7,71.7-76.6c51.6-29.7,123.2-58.7,201.7-81.6
		c78.5-22.9,154.4-37.1,213.9-39.9c59.9-2.8,96,6.4,101.7,25.9c0.2,0.5-0.1,1.1-0.7,1.2c-0.5,0.2-1.1-0.1-1.2-0.7
		c-5.3-18.3-41.7-27.2-99.7-24.5c-59.3,2.8-135.1,16.9-213.4,39.8S208.1,197.4,156.6,227c-50.3,29-76.1,56.1-70.8,74.3
		c0.2,0.5-0.1,1.1-0.7,1.2C85.1,302.6,85,302.6,84.9,302.6z"/>
	<path fill="#BCB4FF" d="M672.1,302c-0.1,0-0.2,0-0.3,0c-0.5-0.2-0.8-0.7-0.7-1.2c5.3-18.3-20.6-45.3-70.9-74.2
		c-51.5-29.5-123-58.3-201.4-81c-78.4-22.7-154.2-36.7-213.5-39.4c-58-2.6-94.3,6.4-99.6,24.7c-0.2,0.5-0.7,0.8-1.2,0.7
		c-0.5-0.2-0.8-0.7-0.7-1.2c5.7-19.5,41.8-28.8,101.6-26.1c59.4,2.7,135.4,16.7,213.9,39.5s150.2,51.6,201.8,81.2
		c52,29.8,77.5,57,71.9,76.5C672.9,301.7,672.5,302,672.1,302z"/>
	<path fill="#BCB4FF" d="M138.6,282.7c-0.4,0-0.8-0.3-1-0.7c-4-13.5,17.3-33.4,59.9-56c42.2-22.4,100.4-44.9,163.8-63.4
		c63.4-18.6,124.6-30.9,172.2-34.8c48-3.9,76.7,1.4,80.6,14.9c0.2,0.5-0.1,1.1-0.7,1.2c-0.5,0.2-1.1-0.1-1.2-0.7
		c-3.6-12.4-32.2-17.3-78.6-13.5c-47.5,3.9-108.5,16.2-171.8,34.7c-63.3,18.5-121.4,41-163.4,63.3c-41.1,21.8-62.5,41.3-58.9,53.7
		c0.2,0.5-0.1,1.1-0.7,1.2C138.8,282.7,138.7,282.7,138.6,282.7z"/>
	<path fill="#BCB4FF" d="M180.2,266.8c-0.4,0-0.8-0.3-1-0.7c-3-10.1,26.6-25.9,51.9-37.3c35.3-16,83.4-33.1,135.4-48.4
		c96.2-28.1,198.8-46.6,204-28.8c0.2,0.5-0.1,1.1-0.7,1.2c-0.5,0.2-1.1-0.1-1.2-0.7c-3.7-12.8-85.6-3.8-201.5,30.1
		c-52,15.2-100,32.3-135.2,48.3c-33.7,15.3-52.7,28.3-50.8,34.9c0.2,0.5-0.1,1.1-0.7,1.2C180.4,266.8,180.3,266.8,180.2,266.8z"/>
	<path fill="#FFD31C" d="M343.2,466.6c0.4-3.4,0.5-6.5,0.5-9.4c0,0,17-38.9,25.7-73.2c2.4,0.2,5,0.3,7.7,0.3c2.4,0,4.6-0.1,6.8-0.2
		c3.7,18.6,9.3,29.2,26.7,73.1c-0.1,2.9,0.1,6,0.5,9.4h17.9l-1.6-10.3l-6.7-97.1l-2.9,0.2c-0.9-27.1-6.1-35.2-6.1-35.2h-69.2
		c0,0-5.2,8.2-6.1,35.2l-2.9-0.2l-6.7,97.1c-0.9,3.4-1.7,6.9-2.4,10.3H343.2z"/>
	<path fill="#005779" d="M376.9,288c24.6,0,59.8-20.1,53.7-37s18-21.5,18-38.6s-17.9-20.7-4.4-33.5c10.8-10.3-7.7-21.8-6.3-34.5
		c3.6-32.8-26.4-63.8-61-63.8s-64.6,31-61,63.8c1.4,12.7-17.1,24.3-6.3,34.5c13.4,12.8-4.4,16.4-4.4,33.5s24.2,21.8,18,38.6
		S352.4,288,376.9,288z"/>
	<path fill="#FFF3C1" d="M416,150.4c0,31.1-25.3,41.1-39.1,41.1c-13.8,0-39.1-10-39.1-41.1c0-23.9,15.2-43.2,39.1-43.2
		C400.8,107.2,416,126.6,416,150.4z"/>
	<path fill="#005779" d="M398.1,110.8c-3.6,26.4-26.2,8.4-38.6,29.3c-8.6,14.5-21.3,22.7-30.4,15.8
		C334,128.8,352.1,85.8,398.1,110.8z"/>
	<polygon fill="#FFD31C" points="376.9,141.2 368.2,162 385.7,162 	"/>
	<path fill="#FFF3C1" d="M384.4,195.7l-1.7-18.1c-0.3-3-2.8-5.3-5.8-5.3l0,0c-3,0-5.5,2.3-5.8,5.3l-1.7,18.1
		c-0.4,4.2-3.6,7.6-7.8,8.3c-19.9,2.9-31.3,13.9-31.3,13.9l46.6,33.8l46.6-33.8c0,0-11.4-11-31.3-13.9
		C388,203.3,384.8,199.9,384.4,195.7z"/>
	<g>
		<g>
			<path fill="#FFF3C1" d="M450.1,279.5l-24.9,41.3l6.8,4.1l36.9-46.1l-23.4-42.3c-15.9-19-35.3-28.3-33.9-15.1
				C413.4,240.5,450.1,279.5,450.1,279.5z"/>
		</g>
		<g>
			<path fill="#08D0B7" d="M418.8,210.3c0,0,14,6,26.7,20.5c14.4,16.5,26.2,44.6,26.2,44.6l-13.9,11.1c0,0-17.3-13.3-37.3-35.3
				C400.4,229.2,418.8,210.3,418.8,210.3z"/>
			<path fill="#08D0B7" d="M456.8,272.4c-12.2,7.4-17.3,22.2-17.3,22.2l16.4,8.4l15.9-27.5C471.7,275.4,465.9,265.7,456.8,272.4z"/>
		</g>
	</g>
	<g>
		<g>
			<path fill="#FFF3C1" d="M303.8,279.5l24.9,41.3l-6.8,4.1l-36.9-46.1l23.4-42.3c15.9-19,35.3-28.3,33.9-15.1
				C340.4,240.5,303.8,279.5,303.8,279.5z"/>
		</g>
		<g>
			<path fill="#08D0B7" d="M335.1,210.3c0,0-14,6-26.7,20.5c-14.4,16.5-26.2,44.6-26.2,44.6l13.9,11.1c0,0,17.3-13.3,37.3-35.3
				S335.1,210.3,335.1,210.3z"/>
			<path fill="#08D0B7" d="M297.1,272.4c12.2,7.4,17.3,22.2,17.3,22.2L298,303l-15.9-27.5C282.1,275.4,288,265.7,297.1,272.4z"/>
		</g>
	</g>
	<path fill="#08D0B7" d="M376.9,374c-27.2,0-46.8-12.4-46.8-12.4c6.5-36.7,13-59.3,4.9-151.3c0,0,8.3-4.6,21.3-7.9c0,0,6,14,20.5,14
		c14.5,0,20.5-14,20.5-14c13.1,3.3,21.3,7.9,21.3,7.9c-8.1,92-1.6,114.6,4.9,151.3C423.7,361.6,404.1,374,376.9,374z"/>
	<path fill="#FFF3C1" d="M406.8,321.1c-5.6,9.6,1.1,15.4,5.9,11.1c4.8-4.3,3-2.7,8.5-2.1c5.3,0.6,7.7-1.5,10.5-5
		c3.2-4-2.8-3.5-4.2-4.4C420.3,316.5,412.4,311.4,406.8,321.1z"/>
	<path fill="#FFF3C1" d="M347,321.1c5.6,9.6-1.1,15.4-5.9,11.1c-4.8-4.3-3-2.7-8.5-2.1c-5.3,0.6-7.7-1.5-10.5-5
		c-3.2-4,2.8-3.5,4.2-4.4C333.6,316.5,341.5,311.4,347,321.1z"/>
	
		<ellipse transform="matrix(0.9689 -0.2474 0.2474 0.9689 -41.6173 100.3353)" fill="none" cx="378.4" cy="215.8" rx="28.4" ry="28.4"/>
	<path fill="#FFFFFF" d="M165.5,328.2c-47.8,0-76.5-9.2-81.6-26.4c-0.2-0.5,0.1-1.1,0.7-1.2c0.5-0.2,1.1,0.1,1.2,0.7
		c5.3,18.3,41.7,27.2,99.7,24.5c59.3-2.8,135.1-16.9,213.4-39.8s149.8-51.8,201.2-81.4c50.3-29,76.1-56.1,70.8-74.3
		c-0.2-0.5,0.1-1.1,0.7-1.2c0.5-0.2,1.1,0.1,1.2,0.7c5.7,19.5-19.8,46.7-71.7,76.6c-51.6,29.7-123.2,58.7-201.7,81.6
		C321,310.8,245.1,325,185.6,327.8C178.6,328.1,171.9,328.2,165.5,328.2z"/>
	<path fill="#FFFFFF" d="M590.8,327.8c-6.1,0-12.6-0.2-19.4-0.5c-59.4-2.7-135.4-16.7-213.9-39.5c-78.5-22.8-150.2-51.6-201.8-81.2
		c-52-29.8-77.5-57-71.9-76.5c0.2-0.5,0.7-0.8,1.2-0.7c0.5,0.2,0.8,0.7,0.7,1.2c-5.3,18.3,20.6,45.3,70.9,74.2
		c51.5,29.5,123,58.3,201.4,81c78.4,22.7,154.2,36.7,213.5,39.4c58,2.6,94.3-6.4,99.6-24.7c0.2-0.5,0.7-0.8,1.2-0.7
		c0.5,0.2,0.8,0.7,0.7,1.2C668,318.6,639,327.8,590.8,327.8z"/>
	<path fill="#FFFFFF" d="M190,298.1c-30.9,0-49.2-5.5-52.4-16.2c-0.2-0.5,0.1-1.1,0.7-1.2c0.5-0.2,1.1,0.1,1.2,0.7
		c3.6,12.4,32.2,17.3,78.6,13.5c47.5-3.9,108.5-16.2,171.8-34.7c63.3-18.5,121.4-41,163.4-63.3c41.1-21.8,62.5-41.3,58.9-53.7
		c-0.2-0.5,0.1-1.1,0.7-1.2c0.5-0.2,1.1,0.1,1.2,0.7c4,13.5-17.3,33.4-59.9,56c-42.2,22.4-100.4,44.9-163.8,63.4
		C327,280.6,265.9,293,218.3,296.9C208,297.7,198.5,298.1,190,298.1z"/>
	<g>
		
			<ellipse transform="matrix(0.6027 -0.7979 0.7979 0.6027 37.5266 462.7626)" fill="#985053" cx="483.5" cy="193.7" rx="15.3" ry="15.3"/>
		<path fill="#EF511C" d="M486.7,178.8c-5.6-1.2-11.6,0.8-15.3,5.7c-3.7,4.9-4,11.2-1.3,16.3c5.6,1.2,11.6-0.8,15.3-5.7
			C489,190.2,489.3,183.8,486.7,178.8z"/>
	</g>
	<g>
		
			<ellipse transform="matrix(0.6027 -0.7979 0.7979 0.6027 71.207 471.274)" fill="#0163E5" cx="508.9" cy="164.1" rx="6.2" ry="6.2"/>
		<path fill="#08D0B7" d="M510.2,158.1c-2.3-0.5-4.7,0.3-6.2,2.3c-1.5,2-1.6,4.5-0.5,6.6c2.3,0.5,4.7-0.3,6.2-2.3
			C511.1,162.7,511.3,160.1,510.2,158.1z"/>
	</g>
	<path fill="#FFFFFF" d="M203.2,273.1c-13.8,0-22.5-2.2-23.9-7c-0.2-0.5,0.1-1.1,0.7-1.2c0.5-0.2,1.1,0.1,1.2,0.7
		c3.7,12.8,85.6,3.8,201.5-30.1c52-15.2,100-32.3,135.2-48.3c33.7-15.3,52.7-28.3,50.8-34.9c-0.2-0.5,0.1-1.1,0.7-1.2
		c0.5-0.2,1.1,0.1,1.2,0.7c3,10.1-26.6,25.9-51.9,37.3c-35.3,16-83.4,33.1-135.4,48.4C313.3,257.8,240,273.1,203.2,273.1z"/>
	
		<ellipse transform="matrix(0.9995 -3.310770e-02 3.310770e-02 0.9995 -3.3673 5.5788)" fill="#FFF3C1" cx="166.8" cy="104.5" rx="8.3" ry="8.3"/>
	<path fill="#664D4E" d="M164.5,110.4c-0.2-4.6,3.5-8.4,8-8.6c0.7,0,1.5,0.1,2.1,0.2c-1.1-3.5-4.4-6-8.2-5.9c-4.6,0.2-8.2,4-8,8.6
		c0.1,3.9,2.9,7,6.5,7.8C164.7,111.9,164.6,111.2,164.5,110.4z"/>
	
		<ellipse transform="matrix(0.9995 -3.310770e-02 3.310770e-02 0.9995 -6.8276 7.7985)" fill="#1DBAFF" cx="232.1" cy="210.1" rx="12.5" ry="12.5"/>
	<path fill="#0163E5" d="M236.1,219.6c-5-4.7-5.3-12.6-0.6-17.7c1-1,2.1-1.8,3.2-2.5c-5-3.1-11.6-2.4-15.8,2.1
		c-4.7,5-4.5,13,0.6,17.7c4,3.8,9.9,4.4,14.5,1.9C237.3,220.7,236.7,220.2,236.1,219.6z"/>
	<g>
		<path fill="#FFE884" d="M155.6,260.7c0.8-2,10.4-0.1,21.6,4.2s19.5,9.5,18.7,11.5l17.6,8.1c1.8-4.7-13.7-15.2-34.8-23.4
			s-39.7-11.1-41.5-6.4L155.6,260.7z"/>
		
			<ellipse transform="matrix(3.625220e-02 -0.9993 0.9993 3.625220e-02 -99.2681 433.9495)" fill="#FF7353" cx="175.4" cy="268.4" rx="18.8" ry="18.8"/>
		<path fill="#EF511C" d="M186.4,276c-7.8-0.3-14-6.7-13.7-14.4c0.2-4.9,3-9.2,7.1-11.5c-1.2-0.3-2.5-0.5-3.8-0.5
			c-10.4-0.4-19.1,7.7-19.5,18.1c-0.4,10.4,7.7,19.1,18.1,19.5c8.4,0.3,15.8-5,18.4-12.6C191.1,275.6,188.8,276.1,186.4,276z"/>
		<path fill="#FFF3C1" d="M155.6,260.7c-0.8,2,7.6,7.2,18.7,11.5c11.1,4.3,20.8,6.2,21.6,4.2c0,0,2.2-0.8,9.1,2.3s8.5,5.8,8.5,5.8
			c-1.8,4.7-20.4,1.9-41.5-6.4s-36.7-18.7-34.8-23.4c0,0,3.2-1.5,10,0.8C154,257.9,155.6,260.7,155.6,260.7z"/>
	</g>
	<g>
		
			<ellipse transform="matrix(0.9995 -3.310770e-02 3.310770e-02 0.9995 -5.9968 20.7229)" fill="#0163E5" cx="622.8" cy="191.4" rx="15.3" ry="15.3"/>
		<path fill="#1DBAFF" d="M607.5,191.9c0.1,2.5,0.8,4.9,1.9,6.9c8.1-0.6,14.4-7.5,14.2-15.7c-0.1-2.5-0.8-4.9-1.9-6.9
			C613.5,176.8,607.2,183.7,607.5,191.9z"/>
	</g>
	<rect y="0.6" fill="none" width="760" height="466"/>
</g>
</svg>
