<?xml version="1.0" encoding="utf-8"?>
<!-- Generator: Adobe Illustrator 19.2.0, SVG Export Plug-In . SVG Version: 6.00 Build 0)  -->
<svg version="1.1" id="Layer_1" xmlns="http://www.w3.org/2000/svg" xmlns:xlink="http://www.w3.org/1999/xlink" x="0px" y="0px"
	 viewBox="0 0 100 100" enable-background="new 0 0 100 100" xml:space="preserve">
<path fill="#F4F8F7" d="M62.1,42.4c-3.1,1-6.6-0.3-8.2-3.3L42.8,18.7c-1.1-2-2.8-3.4-5-4s-4.4-0.4-6.4,0.7c-3.4,1.8-7.6,0.6-9.4-2.8
	c-1.8-3.4-0.6-7.6,2.8-9.4C30,0.3,36.1-0.4,41.8,1.3C47.5,3,52.2,6.8,55,12.1l11.1,20.4c1.8,3.4,0.6,7.6-2.8,9.4
	C62.9,42.1,62.5,42.3,62.1,42.4z"/>
<path fill="#FFD31C" d="M71.3,97c-17.7,7.9-37.4,2.1-46.3-17.7S25.1,40.9,42.7,33s36.6,0.9,44.4,18.6S96.2,85.9,71.3,97z"/>
<path fill="#FFF3C1" d="M89.6,52c-7.3-16.5-23.9-25.1-37.1-19.2C39.4,38.6,34.7,56.7,42,73.2c7.3,16.5,23.9,25.1,37.1,19.2
	C92.2,86.6,96.9,68.5,89.6,52z M78.5,73.4c-7.4,3-16.2,1.9-20-7.9s1.6-16.6,9-19.6c7.4-3,12.7,1.3,16,9.4
	C86.7,63.5,86,70.4,78.5,73.4z"/>
<ellipse transform="matrix(0.9284 -0.3716 0.3716 0.9284 -15.9509 32.9292)" fill="#FFFFFF" cx="77.5" cy="57.9" rx="10.8" ry="13.6"/>
<path fill="#F4F8F7" d="M32.8,52.6c-3.1,1-6.6-0.3-8.2-3.3l-8.7-16.1C13,28,12.4,22,14.1,16.3c1.7-5.7,5.5-10.4,10.7-13.2
	c3.4-1.8,7.6-0.6,9.4,2.8c1.8,3.4,0.6,7.6-2.8,9.4c-2,1.1-3.4,2.8-4,5c-0.6,2.1-0.4,4.4,0.7,6.4l8.7,16.1c1.8,3.4,0.6,7.6-2.8,9.4
	C33.6,52.3,33.2,52.5,32.8,52.6z"/>
<path fill="#FFD31C" d="M46.5,52.9c0.2,0.1,0.5,0.1,0.7,0c0.3-0.1,0.5-0.3,0.6-0.6c0.2-0.5,0-1.1-0.6-1.3l-6.5-2.6
	c-0.3-0.1-0.7-0.1-1,0.2c-0.1,0.4-0.2,0.8-0.3,1.1c0.1,0.2,0.3,0.4,0.5,0.5L46.5,52.9z M54.9,31.9c0,0,0,0.1,0,0.1l2.9,6.4
	c0.2,0.5,0.7,0.7,1.2,0.5c0,0,0.1,0,0.1,0c0.5-0.2,0.7-0.8,0.5-1.3l-2.8-6.3C56.2,31.5,55.5,31.7,54.9,31.9z M90.7,71.7
	c-0.5-0.3-1.1-0.1-1.3,0.4c-0.3,0.5-0.1,1.1,0.4,1.3l2.6,1.4c0.1-0.7,0.3-1.4,0.4-2.1L90.7,71.7z M79.6,83.7
	c-0.5,0.2-0.8,0.8-0.6,1.3l2.4,6.1c0.6-0.4,1.1-0.7,1.7-1.2l-2.2-5.7C80.7,83.8,80.1,83.6,79.6,83.7z M48.4,70.7l-6.2,3
	c0.3,0.6,0.6,1.2,0.9,1.8l6.2-3c0.5-0.2,0.7-0.8,0.5-1.3C49.5,70.7,48.9,70.5,48.4,70.7z M71.7,38.7c-0.1,0.5,0.2,1.1,0.7,1.2
	c0.2,0,0.4,0,0.5,0c0.3-0.1,0.6-0.4,0.7-0.7l1-4.3c-0.6-0.4-1.2-0.7-1.8-1L71.7,38.7z M60.3,84.8l-2.4,6.2c0.6,0.3,1.2,0.6,1.8,0.9
	l2.5-6.3c0.2-0.5-0.1-1.1-0.6-1.3C61.1,84,60.5,84.2,60.3,84.8z"/>
<ellipse transform="matrix(0.1036 -0.9946 0.9946 0.1036 -4.9872 37.6901)" fill="#FFFFFF" cx="18.4" cy="21.6" rx="5.3" ry="2"/>
</svg>
