<?xml version="1.0" encoding="utf-8"?>
<!-- Generator: Adobe Illustrator 19.2.0, SVG Export Plug-In . SVG Version: 6.00 Build 0)  -->
<svg version="1.1" id="Layer_1" xmlns="http://www.w3.org/2000/svg" xmlns:xlink="http://www.w3.org/1999/xlink" x="0px" y="0px"
	 viewBox="0 0 688 670" enable-background="new 0 0 688 670" xml:space="preserve">
<rect x="0" fill="none" width="688" height="670"/>
<path fill="#F7F6FF" d="M254.7,195.8C366.6-3.8,597.3,246,426.2,454.4c-57.1,69.5-147.1,103.8-226.3,88
	C89.3,520.5-9.6,396.2,28.7,322.6S178.3,332.2,254.7,195.8z"/>
<path fill="#01D0B7" d="M469.9,435.3h-38.5c0.6-1.7,0.9-3.5,0.9-5.4V238.5c0-9.1-7.4-16.5-16.5-16.5H115.4
	c-9.1,0-16.5,7.4-16.5,16.5v191.4c0,1.9,0.3,3.7,0.9,5.4H61.4c-2,0-3.5,1.8-3,3.7c1.7,7.3,8.2,12.8,16.1,12.8h382.5
	c7.8,0,14.4-5.4,16-12.8C473.4,437.1,471.9,435.3,469.9,435.3z M294.7,438.4c0,1.1-0.9,1.9-1.9,1.9h-58c-1.1,0-1.9-0.9-1.9-1.9v0
	c0-1.1,0.9-1.9,1.9-1.9h58C293.8,436.5,294.7,437.4,294.7,438.4L294.7,438.4z"/>
<path fill="#FFFFFF" d="M416.2,425.5H115.1c-0.9,0-1.5-0.7-1.5-1.5V241c0-0.9,0.7-1.5,1.5-1.5h301.1c0.9,0,1.5,0.7,1.5,1.5v183
	C417.8,424.8,417.1,425.5,416.2,425.5z"/>
<path fill="#FF7353" d="M357.8,256.6v24.3c0,1.3,1.1,2.4,2.4,2.4h39.1c1.3,0,2.4-1.1,2.4-2.4v-26.2v-3c0-1.3-1.1-2.4-2.4-2.4h-14.6
	c-1.3,0-2.4,1.1-2.4,2.4l0,0c0,1.3-1.1,2.4-2.4,2.4h-19.7C358.9,254.2,357.8,255.3,357.8,256.6z"/>
<path fill="#8272F7" d="M298.7,256.6v24.3c0,1.3,1.1,2.4,2.4,2.4h39.1c1.3,0,2.4-1.1,2.4-2.4v-26.2v-3c0-1.3-1.1-2.4-2.4-2.4h-14.6
	c-1.3,0-2.4,1.1-2.4,2.4l0,0c0,1.3-1.1,2.4-2.4,2.4h-19.7C299.8,254.2,298.7,255.3,298.7,256.6z"/>
<path fill="#FF7353" d="M357.8,299.9v24.3c0,1.3,1.1,2.4,2.4,2.4h39.1c1.3,0,2.4-1.1,2.4-2.4V298v-3c0-1.3-1.1-2.4-2.4-2.4h-14.6
	c-1.3,0-2.4,1.1-2.4,2.4l0,0c0,1.3-1.1,2.4-2.4,2.4h-19.7C358.9,297.5,357.8,298.5,357.8,299.9z"/>
<path fill="#FF7353" d="M298.7,299.9v24.3c0,1.3,1.1,2.4,2.4,2.4h39.1c1.3,0,2.4-1.1,2.4-2.4V298v-3c0-1.3-1.1-2.4-2.4-2.4h-14.6
	c-1.3,0-2.4,1.1-2.4,2.4l0,0c0,1.3-1.1,2.4-2.4,2.4h-19.7C299.8,297.5,298.7,298.5,298.7,299.9z"/>
<path fill="#FF7353" d="M357.8,343.1v24.3c0,1.3,1.1,2.4,2.4,2.4h39.1c1.3,0,2.4-1.1,2.4-2.4v-26.2v-3c0-1.3-1.1-2.4-2.4-2.4h-14.6
	c-1.3,0-2.4,1.1-2.4,2.4l0,0c0,1.3-1.1,2.4-2.4,2.4h-19.7C358.9,340.7,357.8,341.8,357.8,343.1z"/>
<path fill="#FF7353" d="M298.7,343.1v24.3c0,1.3,1.1,2.4,2.4,2.4h39.1c1.3,0,2.4-1.1,2.4-2.4v-26.2v-3c0-1.3-1.1-2.4-2.4-2.4h-14.6
	c-1.3,0-2.4,1.1-2.4,2.4l0,0c0,1.3-1.1,2.4-2.4,2.4h-19.7C299.8,340.7,298.7,341.8,298.7,343.1z"/>
<path fill="#FF7353" d="M357.8,386.8v24.3c0,1.3,1.1,2.4,2.4,2.4h39.1c1.3,0,2.4-1.1,2.4-2.4V385v-3c0-1.3-1.1-2.4-2.4-2.4h-14.6
	c-1.3,0-2.4,1.1-2.4,2.4l0,0c0,1.3-1.1,2.4-2.4,2.4h-19.7C358.9,384.4,357.8,385.5,357.8,386.8z"/>
<path fill="#FF7353" d="M298.7,386.8v24.3c0,1.3,1.1,2.4,2.4,2.4h39.1c1.3,0,2.4-1.1,2.4-2.4V385v-3c0-1.3-1.1-2.4-2.4-2.4h-14.6
	c-1.3,0-2.4,1.1-2.4,2.4l0,0c0,1.3-1.1,2.4-2.4,2.4h-19.7C299.8,384.4,298.7,385.5,298.7,386.8z"/>
<path fill="#DBE0DF" d="M259,381.4H127.9c-1,0-1.8-0.8-1.8-1.8v-3.1c0-1,0.8-1.8,1.8-1.8H259c1,0,1.8,0.8,1.8,1.8v3.1
	C260.8,380.6,260,381.4,259,381.4z"/>
<path fill="#DBE0DF" d="M243.5,395H127.9c-1,0-1.8-0.8-1.8-1.8v-3.1c0-1,0.8-1.8,1.8-1.8h115.6c1,0,1.8,0.8,1.8,1.8v3.1
	C245.3,394.2,244.5,395,243.5,395z"/>
<rect x="126.2" y="255" fill="#005779" width="156.3" height="109"/>
<path fill="#FFFFFF" d="M192.2,290.1l28,16.2c2.5,1.5,2.5,5.1,0,6.6l-28,16.2c-2.5,1.5-5.7-0.4-5.7-3.3v-32.4
	C186.5,290.4,189.7,288.6,192.2,290.1z"/>
<g>
	<path fill="#FFD31C" d="M140.4,478.8c0,7.4-6,13.5-13.5,13.5H71c-7.4,0-13.5-6-13.5-13.5V342c0-7.4,6-13.5,13.5-13.5h55.9
		c7.4,0,13.5,6,13.5,13.5V478.8z"/>
	<path fill="#FFFFFF" d="M132.2,471.2H65.7c-0.8,0-1.5-0.6-1.5-1.4V349.6c0-0.8,0.7-1.4,1.5-1.4h66.5c0.8,0,1.5,0.6,1.5,1.4v120.2
		C133.7,470.6,133,471.2,132.2,471.2z"/>
	<path fill="#005779" d="M133.7,391.2H64.2v-47c0-0.8,0.7-1.5,1.5-1.5h66.5c0.8,0,1.5,0.7,1.5,1.5V391.2z"/>
	<path fill="#FFFFFF" d="M93.6,358.3l12.5,7.2c1.1,0.7,1.1,2.3,0,2.9l-12.5,7.2c-1.1,0.7-2.5-0.2-2.5-1.5v-14.4
		C91,358.5,92.4,357.7,93.6,358.3z"/>
	<g>
		<path fill="#FF7353" d="M101.2,419.8v15c0,0.8,0.7,1.5,1.5,1.5h24.2c0.8,0,1.5-0.7,1.5-1.5v-16.2v-1.8c0-0.8-0.7-1.5-1.5-1.5h-9.1
			c-0.8,0-1.5,0.7-1.5,1.5l0,0c0,0.8-0.7,1.5-1.5,1.5h-12.2C101.9,418.3,101.2,419,101.2,419.8z"/>
	</g>
	<g>
		<path fill="#8272F7" d="M69.5,419.8v15c0,0.8,0.7,1.5,1.5,1.5h24.2c0.8,0,1.5-0.7,1.5-1.5v-16.2v-1.8c0-0.8-0.7-1.5-1.5-1.5h-9.1
			c-0.8,0-1.5,0.7-1.5,1.5l0,0c0,0.8-0.7,1.5-1.5,1.5H71C70.2,418.3,69.5,419,69.5,419.8z"/>
	</g>
	<g>
		<path fill="#FF7353" d="M101.2,447.6v15c0,0.8,0.7,1.5,1.5,1.5h24.2c0.8,0,1.5-0.7,1.5-1.5v-16.2v-1.8c0-0.8-0.7-1.5-1.5-1.5h-9.1
			c-0.8,0-1.5,0.7-1.5,1.5v0c0,0.8-0.7,1.5-1.5,1.5h-12.2C101.9,446.1,101.2,446.8,101.2,447.6z"/>
	</g>
	<g>
		<path fill="#FF7353" d="M69.5,447.6v15c0,0.8,0.7,1.5,1.5,1.5h24.2c0.8,0,1.5-0.7,1.5-1.5v-16.2v-1.8c0-0.8-0.7-1.5-1.5-1.5h-9.1
			c-0.8,0-1.5,0.7-1.5,1.5v0c0,0.8-0.7,1.5-1.5,1.5H71C70.2,446.1,69.5,446.8,69.5,447.6z"/>
	</g>
	<path fill="#DBE0DF" d="M127.5,404H70.4c-1,0-1.8-0.8-1.8-1.8v-3.7c0-1,0.8-1.8,1.8-1.8h57.1c1,0,1.8,0.8,1.8,1.8v3.7
		C129.3,403.3,128.5,404,127.5,404z"/>
</g>
</svg>
