<?xml version="1.0" encoding="utf-8"?>
<!-- Generator: Adobe Illustrator 19.2.0, SVG Export Plug-In . SVG Version: 6.00 Build 0)  -->
<svg version="1.1" id="Layer_1" xmlns="http://www.w3.org/2000/svg" xmlns:xlink="http://www.w3.org/1999/xlink" x="0px" y="0px"
	 viewBox="0 0 176 176" enable-background="new 0 0 176 176" xml:space="preserve">
<circle fill="#8E80FF" cx="88" cy="88" r="88"/>
<path fill="#5640DF" d="M129.9,64.8c-2.3,0-4.6,0.4-6.6,1.2c-0.4-10-8.6-18-18.7-18c-7.3,0-13.5,4.1-16.6,10.2
	c-3.1-6-9.4-10.2-16.6-10.2c-10.1,0-18.3,8-18.7,18c-2.1-0.8-4.3-1.2-6.6-1.2c-10.3,0-18.7,8.4-18.7,18.7s8.4,18.7,18.7,18.7
	c1.2,0,82.3,0,83.9,0c10.3,0,18.7-8.4,18.7-18.7S140.3,64.8,129.9,64.8z"/>
<path fill="#FFFFFF" d="M147.8,89H28.2c-5.5,9.8-8.6,21.2-8.6,33.2c0,9.8,2.1,19.1,5.8,27.5C41.3,166,63.5,176,88,176
	c24.5,0,46.7-10,62.7-26.2c3.7-8.4,5.8-17.7,5.8-27.5C156.4,110.2,153.3,98.8,147.8,89z M65.4,135c-5.6,0-10.2-4.6-10.2-10.2
	s4.6-10.2,10.2-10.2c5.6,0,10.2,4.6,10.2,10.2S71,135,65.4,135z M110.6,135c-5.6,0-10.2-4.6-10.2-10.2s4.6-10.2,10.2-10.2
	c5.6,0,10.2,4.6,10.2,10.2S116.2,135,110.6,135z"/>
</svg>
