<?xml version="1.0" encoding="utf-8"?>
<!-- Generator: Adobe Illustrator 19.2.0, SVG Export Plug-In . SVG Version: 6.00 Build 0)  -->
<svg version="1.1" id="Layer_1" xmlns="http://www.w3.org/2000/svg" xmlns:xlink="http://www.w3.org/1999/xlink" x="0px" y="0px"
	 viewBox="0 0 688 670" enable-background="new 0 0 688 670" xml:space="preserve">
<path fill="#DDF4FF" d="M580.6,319.2c0,0,30.1-70.8,5-78.1c-25.1-7.3-39,1.7-37.4,25.7c1.7,24-1.1,31.2-35.7,30.7
	c-34.6-0.6-190.8-38.5-225.3-32.4c-34.6,6.1,63,34.6,122.7,39.6c59.7,5-2.2,50.8-74.7,63c-72.5,12.3-113.8,80.9-51.3,101.5
	c62.5,20.6,36.8-40.7,140.6-32.9c103.7,7.8,229.8,78.6,227,12.3c-2.8-66.4-87-41.3-87-41.3s99.4,4.5,87.1-39.6
	C639.2,323.7,580.6,319.2,580.6,319.2z"/>
<path fill="#333131" d="M669.2,260.2c0,0-139-12.6-261.5,27.8c0,0-66.9,24.5,7.9,49.6c74.8,25.2,39.1,35.7-2,44.4
	c-41,8.6-133.7-0.7-209.2,62.2h385.3c0,0-56.3-20.5-23.8-29.1c32.4-8.6,111.9-14.6,94-59.6c-17.9-45-134.4-33.8-134.4-33.8
	s-73.5-13.9,7.3-35.1C613.6,265.5,669.2,260.2,669.2,260.2z"/>
<path fill="none" stroke="#595353" stroke-miterlimit="10" d="M630.7,260.7c-47.8,2.1-106.6,9-162,27.3c0,0-66.9,24.5,7.9,49.6
	c74.8,25.2,122.3,35.7,81.2,44.4c-32.8,6.9-98.8,2.3-162.5,32.5"/>
<path fill="#CEE043" d="M415.7,263c0-11.2-9.1-20.3-20.3-20.3c-11.2,0-20.3,9.1-20.3,20.3l20.3,30.4L415.7,263z"/>
<circle fill="#97AB00" cx="395.3" cy="259.8" r="12.9"/>
<path fill="#FFFFFF" d="M403.7,260c0,4.7-3.8,8.5-8.5,8.5c-4.7,0-8.5-3.8-8.5-8.5c0-4.7,3.8-8.5,8.5-8.5v8.5H403.7z"/>
<path fill="#FFFFFF" d="M404.2,259c-0.3-4.3-3.8-7.7-8.1-8v8H404.2z"/>
<path fill="#CEE043" d="M676.3,343.3c0-21-17-38-38-38c-21,0-38,17-38,38l38,57.1L676.3,343.3z"/>
<circle fill="#97AB00" cx="638.2" cy="337.3" r="24.2"/>
<rect x="622.7" y="333.8" fill="#FFFFFF" width="5.9" height="17.4"/>
<rect x="632.9" y="325.6" fill="#FFFFFF" width="5.9" height="25.5"/>
<rect x="643.1" y="321.5" fill="#FFFFFF" width="5.9" height="29.6"/>
<path fill="#CEE043" d="M680.5,243.5c0-6.3-5.1-11.4-11.4-11.4c-6.3,0-11.4,5.1-11.4,11.4l11.4,17L680.5,243.5z"/>
<circle fill="#97AB00" cx="669.1" cy="241.8" r="7.2"/>
<polygon fill="#FFFFFF" points="662.6,243.7 663.1,244.3 665.8,242.5 669.8,243.7 674.1,240.4 674.5,240.9 675.1,239.2 673.2,239.2 
	673.7,239.8 669.7,242.8 665.6,241.6 "/>
<path fill="#CEE043" d="M259.4,361.9c0-28.8-23.4-52.2-52.2-52.2c-28.8,0-52.2,23.4-52.2,52.2l52.2,78.4L259.4,361.9z"/>
<circle fill="#97AB00" cx="207" cy="353.7" r="33.2"/>
<g>
	<path fill="#FFFFFF" d="M208.7,336h-2.3h-12.9v13.1c0,0,2.1,7.9,9.2,7.9c7.1,0,0,14.3,0,14.3h3.7h2.3h3.7c0,0-7.1-14.3,0-14.3
		c7.1,0,9.2-7.9,9.2-7.9V336H208.7z"/>
</g>
<g>
	<rect x="199.3" y="370.5" fill="#FFFFFF" width="16.4" height="4.7"/>
</g>
<g>
	<path fill="#FFFFFF" d="M199.9,355.7h-1.1c-9.4,0-10-6.8-10-6.8l0-10.9h11.1V355.7z M191,340.3v8.6c0,0.1,0.4,4.2,6.7,4.6v-13.2
		H191z"/>
</g>
<g>
	<path fill="#FFFFFF" d="M215.7,355.7h-1.1V338h11.1v10.8C225.7,349,225.1,355.7,215.7,355.7z M216.8,340.3v13.2
		c6.3-0.4,6.7-4.7,6.7-4.7l0-8.5H216.8z"/>
</g>
<path fill="#5C983A" d="M414.7,347.2c0,0,3.2,3.6,3.8,5.6c0,0-4.4-6-5.4-6.8C413,346,414.4,346.9,414.7,347.2z"/>
<path fill="#6BB346" d="M454.3,354.7c0.7-2.2,1.1-5.7-0.9-9.2c-2.3-3.9-5-4.7-6.5-4.7c-2-3.5-4.9-6.7-8.7-7.3
	c-8.8-1.4-8.4,7.8-8.4,7.8s-3.9-3.4-11.3-3.3c-7.4,0.1-3.7,9.2-3.7,9.2s-4.1-4.3-10.8-1.2c-6.6,3.1,2.7,8-2,9.8
	c-4.7,1.8-5.1,13.5-0.8,21.7c4.2,8.1,34.3-3,49.5-7.5C460.4,367.1,457.5,359.7,454.3,354.7z"/>
<path fill="#5C983A" d="M429.7,341.3c0,0-0.7,5.5-0.3,8.8c0,0-0.8-7.1-0.2-9.3L429.7,341.3z"/>
<path fill="#5C983A" d="M401.9,355.8c0,0,6.1-1,8.7,1.9c0,0-6.9-2.4-10-1C400.6,356.7,401.1,356.1,401.9,355.8z"/>
<path fill="#5C983A" d="M416,346.2c0,0,6.1-1,8.7,1.9c0,0-6.9-2.4-10-1C414.7,347.1,415.2,346.5,416,346.2z"/>
<path fill="#5C983A" d="M453,354.3c0,0-5.8-5-11.1-1.2c-5.3,3.8-11.2-2.5-16.2,4.2v0.4c0,0,3.8-3.7,9.1-2.3c5.3,1.4,9.4-2.3,9.4-2.3
	S448.1,351.2,453,354.3z"/>
<path fill="#5C983A" d="M400.6,368.1c0,0,4.1-4.9,11-1.9C411.6,366.1,404.1,364.8,400.6,368.1z"/>
<path fill="#5C983A" d="M435.2,339.1c0,0,7.8-3.7,11.7,1.8c0,0-5.4-4.3-11.7-0.7V339.1z"/>
<path fill="#5C983A" d="M575.3,248.8c0,0,0.7,1.3,0.8,2c0,0-0.9-2.1-1.2-2.4C574.9,248.4,575.3,248.7,575.3,248.8z"/>
<path fill="#6BB346" d="M586.8,253.8c0.3-0.6,0.7-1.7,0.3-2.9c-0.4-1.4-1.2-1.8-1.7-1.9c-0.4-1.2-1-2.4-2.2-2.8
	c-2.6-1-3.1,1.8-3.1,1.8s-1-1.3-3.2-1.8c-2.3-0.5-1.7,2.5-1.7,2.5s-1-1.6-3.2-1.1c-2.2,0.5,0.3,2.6-1.3,2.8
	c-1.5,0.2-2.5,3.8-1.7,6.5c0.7,2.8,10.6,1.4,15.5,1.1C587.9,258,587.5,255.5,586.8,253.8z"/>
<path fill="#5C983A" d="M580.3,248.1c0,0-0.6,1.6-0.7,2.7c0,0,0.2-2.2,0.6-2.8L580.3,248.1z"/>
<path fill="#5C983A" d="M570.9,250.6c0,0,1.9,0.1,2.5,1.2c0,0-1.9-1.2-3-1C570.4,250.8,570.6,250.6,570.9,250.6z"/>
<path fill="#5C983A" d="M575.8,248.6c0,0,1.9,0.1,2.5,1.2c0,0-1.9-1.2-3-1C575.4,248.8,575.5,248.7,575.8,248.6z"/>
<path fill="#5C983A" d="M586.5,253.6c0,0-1.4-1.9-3.3-1.1c-1.9,0.8-3.2-1.5-5.2,0.2l0,0.1c0,0,1.4-0.9,2.9-0.1c1.5,0.8,3,0,3,0
	S585.2,252.3,586.5,253.6z"/>
<path fill="#5C983A" d="M569.6,254.2c0,0,1.6-1.2,3.5,0.2C573.1,254.4,570.9,253.5,569.6,254.2z"/>
<path fill="#5C983A" d="M582.1,247.8c0,0,2.6-0.6,3.4,1.3c0,0-1.3-1.7-3.5-1L582.1,247.8z"/>
<path fill="#DC595D" d="M481.7,255.8l18.5,33c0,0,7.6,14.6,16.7,23.2c9.1,8.6,17.6,0,17.6,0l2.5-8.1v-12.1v-17.1l-2-5.5v-19.4
	l-2.6-4.2l-5.3-4.2c0,0-15.7-7.1-30.5-7.5c-14.8-0.4-15.4,5.2-15.4,5.2L481.7,255.8z"/>
<path fill="#A79899" d="M563.6,265.6l12.6,27.2c0,0,5.6,2,5.4,5.7c-0.1,3.7-3.7,6.8-5.9,6.8c-2.2,0-7.6-1-5.5-9.1l0.8-1.8
	l-15.3-22.1L563.6,265.6z"/>
<path fill="#A79899" d="M477.5,213.7c0,0,0.9,14,4.2,19.8c0,0,4.5,3,8.1,3.3l0.9,10l1.1,7.9l2.2,39.7l11.1-1.9l4.9-41l-1.2-12.4
	l-0.8-15.2l-3.2-14.9l-13-6L477.5,213.7z"/>
<path fill="#231F20" d="M469.1,390.1l-2,11.6c0,0-30.6,4.5-30.3-5.8c0.3-10.3,20.3-5.6,20.3-5.6l2.5-2.8
	C459.6,387.5,468,385.9,469.1,390.1z"/>
<path fill="#F3AEA1" d="M497,326.1l12.7,30c0,0,4.2,12.8,19.1,8.6c14.9-4.1,40.9-21.6,40.9-21.6l-5-8.5c0,0-33.3,8-35.9,9
	c-2.6,1-5.2-22.3-5.2-22.3L497,326.1z"/>
<path fill="#FFB7A5" d="M524.9,309.3c0,0,5.5,13.2-12.2,20.4c-17.8,7.3-30.5,17.3-30.5,17.3l-13.8,45.6c0,0-5.6,1.9-11.2-3.3
	l8.9-56.5c0,0,26.6-17.4,28-23.6C495.4,303.1,524.9,309.3,524.9,309.3z"/>
<path fill="#231F20" d="M564.7,334.6c0,0,0-5.3,5-4.5c5,0.8,24,19,21.1,24.8c-2.9,5.8-21.1-11.7-21.1-11.7L564.7,334.6z"/>
<circle fill="#08D0B7" cx="491.7" cy="265.6" r="1.2"/>
<circle fill="#08D0B7" cx="492.2" cy="272.3" r="1.2"/>
<path fill="#F0EBEC" d="M481.1,239.1l-28.7,16.5l-4.8-1.4c0,0,4.3,9-1.3,15.1c0,0,2.6,2.1,7.3,0.3l20.3-7.8l16,51.2l6.4-1l0.2-1.7
	l0.5,1.4l27.4,3.7l2.2-32.7l0.9-12.3l20.9-0.5l3.9,5.2c0,0,11.2-3.3,12.4-9.9l-4.5-7.6L512.6,240l-4.5-1.5l-13.5,7l-2.1,5.7l-3.9-12
	H481.1z"/>
<path fill="#A79899" d="M448.1,255.2l-20.8-8.8c0,0-10-10.8-15.3-3.6c-5.3,7.2,7.9,9.1,10.4,8.3l25.6,17.9
	C448.1,269,454.2,262,448.1,255.2z"/>
<polygon fill="#08D0B7" points="489.4,239.2 493,245.6 490.4,249.8 488.1,239.1 488.8,239.2 "/>
<polygon fill="#08D0B7" points="509.6,236.8 493.9,245.9 497,254.2 512.6,238.5 "/>
<path fill="#231F20" d="M525.9,214.9c1.3-0.7,2.2-2.1,2.2-3.7c0-2-1.4-3.7-3.3-4.1c0.6-0.7,1-1.7,1-2.7c0-2.1-1.6-3.8-3.6-4.1
	c-0.1-0.4-0.2-0.8-0.3-1.2c0.3-0.6,0.5-1.2,0.5-1.9c0-2.3-1.9-4.1-4.1-4.1c-0.8,0-1.5,0.2-2.2,0.6c0.5-0.7,0.9-1.6,0.9-2.5
	c0-2.3-1.9-4.1-4.1-4.1c-0.6,0-1.2,0.2-1.8,0.4c-0.1-2.2-1.9-4-4.1-4c-1.3,0-2.5,0.6-3.3,1.6c-0.5-1.7-2.1-3-4-3
	c-1.1,0-2.2,0.5-2.9,1.2c-0.7-0.7-1.8-1.2-2.9-1.2c-1.8,0-3.2,1.1-3.9,2.6c-0.8-0.8-1.8-1.2-2.9-1.2c-2.3,0-4.1,1.9-4.1,4.1
	c0,0.2,0,0.3,0,0.5c-0.7-0.5-1.6-0.9-2.5-0.9c-2,0-3.6,1.4-4,3.2c0,0-0.1,0-0.1,0c-2.3,0-4.1,1.9-4.1,4.1c0,0.3,0.1,0.7,0.1,1
	c0,0-0.1,0-0.1,0c-2.3,0-4.1,1.9-4.1,4.1c0,0.8,0.2,1.5,0.6,2.1c-1.5,0.6-2.5,2.1-2.5,3.8c0,1.5,0.8,2.8,2,3.6
	c-0.1,0.3-0.1,0.6-0.1,1c0,2.3,1.9,4.1,4.1,4.1c0.3,0,0.5,0,0.8-0.1c0.8,1,1.9,1.6,3.3,1.6c1.5,0,2.8-0.8,3.5-2
	c0.6,0.3,1.2,0.5,1.9,0.5c1.4,0,2.6-0.7,3.3-1.7c0.6,1.6,2.1,2.7,3.9,2.7c0.2,0,0.4,0,0.6-0.1c1.1,1.3,2.7,2.1,4.4,2.1
	c1.4,0,2.6-0.5,3.6-1.3c0.5,1.1,1.6,2,2.8,2.3c-0.4,0.6-0.6,1.3-0.6,2.1c0,1.3,0.6,2.4,1.5,3.1c-0.2,0.5-0.4,1.1-0.4,1.7
	c0,1.4,0.7,2.6,1.7,3.3c-0.8,0.8-1.3,1.8-1.3,3c0,1.8,1.1,3.3,2.7,3.9c0.3,2,2,3.6,4.1,3.6c1.3,0,2.4-0.6,3.2-1.5
	c0.8,0.9,1.9,1.5,3.2,1.5c2.3,0,4.1-1.9,4.1-4.1l0,0h0c2.3,0,4.1-1.9,4.1-4.1c0-0.5-0.1-0.9-0.2-1.4c0,0,0.1,0,0.1,0
	c2.3,0,4.1-1.9,4.1-4.2c0-1.1-0.4-2.1-1.2-2.9c1.6-0.6,2.7-2.1,2.7-3.9C528.1,217,527.2,215.6,525.9,214.9z M521.9,215
	c0,0,0-0.1,0-0.1c0,0,0.1,0,0.1,0C522,214.9,521.9,214.9,521.9,215z"/>
<ellipse fill="#08D0B7" cx="490.5" cy="259.5" rx="0.8" ry="2.5"/>
<ellipse fill="#08D0B7" cx="491" cy="268.1" rx="0.8" ry="2.5"/>
<path fill="#DC595D" d="M528.1,312.8c0,0-23.1-1.7-23-20.3c0.1-18.6,2.3-47.1,12.9-50.5l4.1,1.5c0,0-27.2,51.4,5.9,64V312.8z"/>
<path fill="#DC595D" d="M487.2,303.8c0,0-18.2-39.8-2.1-64.7h-4C481.1,239.1,461.3,274.1,487.2,303.8z"/>
</svg>
