<?xml version="1.0" encoding="utf-8"?>
<!-- Generator: Adobe Illustrator 19.2.0, SVG Export Plug-In . SVG Version: 6.00 Build 0)  -->
<svg version="1.1" id="Layer_1" xmlns="http://www.w3.org/2000/svg" xmlns:xlink="http://www.w3.org/1999/xlink" x="0px" y="0px"
	 viewBox="0 0 550 550" enable-background="new 0 0 550 550" xml:space="preserve">
<path fill="#DDFAF7" d="M403.7,81.6c-86.6-6-26.7,88-228.4,112c-198.6,23.7-129.7,258.5,27.3,268.3C564.5,484.4,554.6,92,403.7,81.6
	z"/>
<path fill="#664D4E" d="M493.1,186.9c0,0-121.4-24.9-261.5,27.8c-34.1,12.8-49.5,36,7.9,49.6c32.9,7.8,35.2,26.4,4.1,30.4
	c-43,5.5-128.9,19.2-196.5,57.5c-9,5.1-5.4,18.7,4.9,18.7l315.8,0c8.3,0,15.8-5.1,18.7-12.9c15-39.9,100-43,86.6-77.3
	c-14.7-37.7-206.4-41.2-116.4-81.3C414.6,173.6,493.1,186.9,493.1,186.9z"/>
<path fill="#FFD31C" d="M67.5,244.8c-19.2-0.2-34.8,15.3-34.8,34.5c0,29.8,24.4,62.9,32.2,72.6c1.2,1.5,3.5,1.5,4.7,0
	c7.6-9.5,30.9-41.1,32.1-70.4C102.4,262,87.2,245,67.5,244.8z M440.9,210.5c-13.5,0-24.4,10.8-24.4,24.2c0,20.9,17.1,44.1,22.5,50.9
	c0.8,1.1,2.4,1.1,3.3,0c5.3-6.7,21.7-28.8,22.5-49.3C465.7,215,452.7,210.5,440.9,210.5z M224.2,171.3c-10-0.1-18.1,8-18.1,17.9
	c0,15.5,12.7,32.7,16.7,37.8c0.6,0.8,1.8,0.8,2.4,0c3.9-4.9,16.1-21.4,16.7-36.6C242.3,180.2,234.4,171.4,224.2,171.3z M492.9,159.8
	c-6.2-0.1-11.3,5-11.3,11.2c0,9.7,7.9,20.4,10.4,23.5c0.4,0.5,1.1,0.5,1.5,0c2.5-3.1,10-13.3,10.4-22.8
	C504.2,165.3,499.3,159.8,492.9,159.8z"/>
<path fill="#24D595" d="M437.4,188.9c-2.3-0.9-8.4-3.1-15.4-2.9c-4.1,0.1-7.7,1-10.6,2c2.6-1.4,5.9-3.4,8.8-6.2
	c5.1-4.9,7.8-10.8,8.7-13c0.2-0.4-0.2-0.8-0.6-0.6c-2.3,0.8-8.3,3.3-13.4,8.2c-1.6,1.5-2.9,3.1-4,4.7c0.7-1.8,1.3-3.8,1.7-5.9
	c1.3-7,0.1-13.3-0.4-15.7c-0.1-0.4-0.6-0.5-0.9-0.2c-1.4,2-4.8,7.5-6.2,14.4c-0.5,2.4-0.6,4.8-0.6,6.9c-0.8-1.8-1.8-3.7-3-5.5
	c-4-5.9-9.3-9.5-11.4-10.8c-0.4-0.2-0.8,0.1-0.7,0.5c0.4,2.4,1.9,8.7,5.9,14.6c1.6,2.4,3.5,4.4,5.3,6.1c-2.1-1.2-4.6-2.4-7.3-3.3
	c-6.7-2.1-13.2-1.7-15.6-1.5c-0.4,0-0.6,0.6-0.3,0.8c1.8,1.6,6.8,5.7,13.6,7.8c7,2.2,13.8,1.7,15.9,1.4c2.3,0.9,8.4,3.1,15.4,2.8
	c7.1-0.2,13-2.8,15.2-3.8C437.8,189.6,437.8,189.1,437.4,188.9z"/>
<path fill="#554242" d="M275.6,308.8c-2.2-5.4,11.8-10.8,45.3-13.7c30.9-2.7,43.6-3,45.6,2.2s-6.8,12.3-36.4,20.7
	C300.6,326.4,277.7,314,275.6,308.8z"/>
<path fill="#58DBCC" d="M351.6,191.2c-4.2-18.4-15.9-25.1-40.8-19c-4.5,1.1-7.4,5.6-6.4,10.1l1.4,6l6.1,2.7l5.5,24.1
	c1.7,7.4,9.6,11.4,16.6,8.5C346.1,218.5,355.8,209.6,351.6,191.2z"/>
<path fill="#015247" d="M326.4,148.3c0.6,9.5-15.2,14.8-15.2,14.8s-16.5,2.4-20.3-6.3c-2.1-4.9-2.7-10.6-1.7-15.8
	c12.1-2.9,5.3-12.4,12.1-14.1C313.2,124.1,325.6,136,326.4,148.3z"/>
<path fill="#FFFFC7" d="M291.5,157c3.3,13.6,15.4,15.4,21.4,13.9s16.1-8.5,12.8-22.1c-2.5-10.4-11.2-17.3-21.7-14.8
	S289,146.5,291.5,157z"/>
<path fill="#015247" d="M318,133.4c-5.7,13.7-24.5,16.9-34.6,8.9C287.8,133.1,304.3,123.2,318,133.4z"/>
<polygon fill="#FF7353" points="303.9,148.6 309,158.5 303.7,159.8 "/>
<path fill="#FFFFC7" d="M314.7,171.4l-2.1-7.8c-0.4-1.3-1.6-2.1-2.9-1.9l0,0c-1.3,0.2-2.2,1.4-2.1,2.7l0.7,8c0.2,1.9-1,3.6-2.8,4.2
	c-8.5,2.8,10.4,19.7,10.4,19.7l17.7-18.4c0,0-5.8-3.9-14.8-3.7C316.9,174.4,315.2,173.2,314.7,171.4z"/>
<path fill="#FFD31C" d="M387.4,287.7l-7.6-17.1c0,0-3,0.5-4.1,4.2l1.1,3.7C376.7,278.4,383.3,290.4,387.4,287.7z"/>
<path fill="#FFD31C" d="M270.3,298.5l15.8,10c0,0,2.3-2.1,1.1-5.8l-2.9-2.5C284.4,300.3,272.2,293.9,270.3,298.5z"/>
<path fill="#FFFFC7" d="M376.6,272.6l0.3,4.2l-40,2.4L318,241.5l13.1-7.3c11.4,26.5,10.4,37.4,10.4,37.4
	C352.5,268.9,376.6,272.6,376.6,272.6z"/>
<path fill="#FFFFC7" d="M333.1,249.5c-12.6,10.4-37.9,19.6-37.9,19.6c1,11.7-8,33.5-8,33.5l-4.4-1l5.6-37l33.4-25.9L333.1,249.5z"/>
<path fill="#1F7698" d="M337.1,227.1c0,0,1.3,4.9,1.9,12.5c0.6,7.6-3.8,9.2-8.9,13.1c-6.6,5-17.5,8.9-29.7,17.5c0,0-2.5,0.2-5.9-5.3
	c-3.4-5.5-2.5-8.4-2.5-8.4l15.2-11.4L337.1,227.1z"/>
<path fill="#1F7698" d="M339.4,253.3l5.7,18.1c0,0-1.2,2.5-7,5.2c-3.1,1.5-4.8-0.3-4.8-0.3c-11.3-21.9-14.1-40.6-14.1-40.6l9.2-5.1
	c0,0,10.4-2.5,13.6,4.5C347.4,247.6,339.4,253.3,339.4,253.3z"/>
<path fill="#FFFFC7" d="M288.5,218.7c0,0-0.9-8.3,4.1-22.5c2.9-8.2,9.8-13.8,10.6-8c1.2,8.4-9.5,25.9-9.5,25.9
	C290.5,220,288.5,218.7,288.5,218.7z"/>
<path fill="#0E1414" d="M292.2,192.3c0,0,5.5,2.7,14.9,0.2l-2.3-15.2C291.8,179.6,292.2,192.3,292.2,192.3z"/>
<path fill="#FFFFC7" d="M352,198.8l-0.8,24.5l2.7,0.4l4.2-27.6l-17.5-14.4c-9.4-6-19-7.3-16.6-1.8C327.5,187.7,352,198.8,352,198.8z
	"/>
<path fill="#FFFFC7" d="M352.5,237.8c0,0,4.2-3.8,4.2-8.4s-1.4-8.5-3.2-8.5c-1.8,0-3.3,3.8-3.3,8.4s0.3,8.5,0.3,8.5L352.5,237.8z"/>
<path fill="#FFFFC7" d="M353.6,220.9c-3.8,0-2.5,5.2-5.8,8.4C347.8,229.3,353.5,231.4,353.6,220.9z"/>
<path fill="#0E1414" d="M310.3,243c-4.5-16.2-2.9-25.4-7.4-39.5c-4.3-13.4-2.4-25.2,2.6-26.7c0,0,1.3,5.4,7.6,4.3
	c6.3-1.1,7.9-7.7,7.9-7.7c6,0.4,9.9,1.8,9.9,1.8c6.8,16.7,2.4,38.7,11.6,61.2C342.5,236.3,323.6,250.4,310.3,243z"/>
<path fill="#FFFFC7" d="M288.5,218.7l-19.8-16.5l2.9-2.1c0,0,11.5,6.1,17.3,9.5C292.5,211.8,290.6,216.2,288.5,218.7z"/>
<path fill="#FFFFC7" d="M258.6,191.7c0,0,0.1,6.3,3.7,8.7c3.6,2.4,7.6,2.9,8.8,1c1.2-1.8-0.7-5.3-4.3-7.7c-3.6-2.4-6.8-3.9-6.8-3.9
	L258.6,191.7z"/>
<path fill="#FFFFC7" d="M271.1,201.4c2.6-3.9-2.4-5.2-2.6-10.2C268.4,191.2,262.9,196,271.1,201.4z"/>
<path fill="#0E1414" d="M330.9,175.1c0,0,6.2,0.4,13,7.3l-9.6,12.1C324.2,185.9,330.9,175.1,330.9,175.1z"/>
<path fill="#58DBCC" d="M305.7,176.6c-5.8-1.6-9.6,7.2-7.3,19.3c1,5.3,3.7,16.8,6.9,17.3c-1.6-12.2-3.9-20-2.6-28.4
	C303.2,181.5,303.7,177.4,305.7,176.6z"/>
<path fill="#58DBCC" d="M325.5,206.9c3.5,9.7,11.4,7.5,11.4,7.5l0.9-4c0,0-8.6,4.1-10.8-20.6c-1.4-16.3,5-14.5,5-14.5
	c-1.1-1.6-8.3-3.4-9.2-1.8C321.9,175.3,318.8,188.1,325.5,206.9z"/>
<path fill="#24D595" d="M209.9,263.5c-8.1,10.6-18.9,6.2-16.9-3.5c4.3-20.2-23.8-20.6-37-12.2c-27.9,17.8-5,41-15.5,45.5
	c-8.2,3.6-8.9-12.3-19.5-8.8c-6.9,2.3-6.8,11.4,0.4,19.1c0,0,8.9,5.1,50-7c41.1-12.1,66.4-8.7,66.4-8.7
	C259.2,267,228.8,238.7,209.9,263.5z"/>
</svg>
