<?xml version="1.0" encoding="utf-8"?>
<!-- Generator: Adobe Illustrator 19.2.0, SVG Export Plug-In . SVG Version: 6.00 Build 0)  -->
<svg version="1.1" id="Layer_1" xmlns="http://www.w3.org/2000/svg" xmlns:xlink="http://www.w3.org/1999/xlink" x="0px" y="0px"
	 viewBox="0 0 550 550" enable-background="new 0 0 550 550" xml:space="preserve">
<path fill="#F7F6FF" d="M275.5,135.8C387.4-63.8,618.1,186,447,394.4c-57.1,69.5-147.1,103.8-226.3,88
	C110.1,460.5,11.1,336.2,49.5,262.6S199.1,272.2,275.5,135.8z"/>
<path fill="#01D0B7" d="M490.7,375.3h-38.5c0.6-1.7,0.9-3.5,0.9-5.4V178.5c0-9.1-7.4-16.5-16.5-16.5H136.2
	c-9.1,0-16.5,7.4-16.5,16.5v191.4c0,1.9,0.3,3.7,0.9,5.4H82.2c-2,0-3.5,1.8-3,3.7c1.7,7.3,8.2,12.8,16.1,12.8h382.5
	c7.8,0,14.4-5.4,16-12.8C494.2,377.1,492.7,375.3,490.7,375.3z M315.5,378.4c0,1.1-0.9,1.9-1.9,1.9h-58c-1.1,0-1.9-0.9-1.9-1.9v0
	c0-1.1,0.9-1.9,1.9-1.9h58C314.6,376.5,315.5,377.4,315.5,378.4L315.5,378.4z"/>
<path fill="#FFFFFF" d="M437,365.5H135.9c-0.9,0-1.5-0.7-1.5-1.5V181c0-0.9,0.7-1.5,1.5-1.5H437c0.9,0,1.5,0.7,1.5,1.5v183
	C438.6,364.8,437.9,365.5,437,365.5z"/>
<path fill="#FF7353" d="M378.6,196.6v24.3c0,1.3,1.1,2.4,2.4,2.4h39.1c1.3,0,2.4-1.1,2.4-2.4v-26.2v-3c0-1.3-1.1-2.4-2.4-2.4h-14.6
	c-1.3,0-2.4,1.1-2.4,2.4l0,0c0,1.3-1.1,2.4-2.4,2.4H381C379.7,194.2,378.6,195.3,378.6,196.6z"/>
<path fill="#8272F7" d="M319.5,196.6v24.3c0,1.3,1.1,2.4,2.4,2.4H361c1.3,0,2.4-1.1,2.4-2.4v-26.2v-3c0-1.3-1.1-2.4-2.4-2.4h-14.6
	c-1.3,0-2.4,1.1-2.4,2.4l0,0c0,1.3-1.1,2.4-2.4,2.4h-19.7C320.6,194.2,319.5,195.3,319.5,196.6z"/>
<path fill="#FF7353" d="M378.6,239.9v24.3c0,1.3,1.1,2.4,2.4,2.4h39.1c1.3,0,2.4-1.1,2.4-2.4V238v-3c0-1.3-1.1-2.4-2.4-2.4h-14.6
	c-1.3,0-2.4,1.1-2.4,2.4l0,0c0,1.3-1.1,2.4-2.4,2.4H381C379.7,237.5,378.6,238.5,378.6,239.9z"/>
<path fill="#FF7353" d="M319.5,239.9v24.3c0,1.3,1.1,2.4,2.4,2.4H361c1.3,0,2.4-1.1,2.4-2.4V238v-3c0-1.3-1.1-2.4-2.4-2.4h-14.6
	c-1.3,0-2.4,1.1-2.4,2.4l0,0c0,1.3-1.1,2.4-2.4,2.4h-19.7C320.6,237.5,319.5,238.5,319.5,239.9z"/>
<path fill="#FF7353" d="M378.6,283.1v24.3c0,1.3,1.1,2.4,2.4,2.4h39.1c1.3,0,2.4-1.1,2.4-2.4v-26.2v-3c0-1.3-1.1-2.4-2.4-2.4h-14.6
	c-1.3,0-2.4,1.1-2.4,2.4l0,0c0,1.3-1.1,2.4-2.4,2.4H381C379.7,280.7,378.6,281.8,378.6,283.1z"/>
<path fill="#FF7353" d="M319.5,283.1v24.3c0,1.3,1.1,2.4,2.4,2.4H361c1.3,0,2.4-1.1,2.4-2.4v-26.2v-3c0-1.3-1.1-2.4-2.4-2.4h-14.6
	c-1.3,0-2.4,1.1-2.4,2.4l0,0c0,1.3-1.1,2.4-2.4,2.4h-19.7C320.6,280.7,319.5,281.8,319.5,283.1z"/>
<path fill="#FF7353" d="M378.6,326.8v24.3c0,1.3,1.1,2.4,2.4,2.4h39.1c1.3,0,2.4-1.1,2.4-2.4V325v-3c0-1.3-1.1-2.4-2.4-2.4h-14.6
	c-1.3,0-2.4,1.1-2.4,2.4l0,0c0,1.3-1.1,2.4-2.4,2.4H381C379.7,324.4,378.6,325.5,378.6,326.8z"/>
<path fill="#FF7353" d="M319.5,326.8v24.3c0,1.3,1.1,2.4,2.4,2.4H361c1.3,0,2.4-1.1,2.4-2.4V325v-3c0-1.3-1.1-2.4-2.4-2.4h-14.6
	c-1.3,0-2.4,1.1-2.4,2.4l0,0c0,1.3-1.1,2.4-2.4,2.4h-19.7C320.6,324.4,319.5,325.5,319.5,326.8z"/>
<path fill="#DBE0DF" d="M279.8,321.4H148.7c-1,0-1.8-0.8-1.8-1.8v-3.1c0-1,0.8-1.8,1.8-1.8h131.1c1,0,1.8,0.8,1.8,1.8v3.1
	C281.6,320.6,280.8,321.4,279.8,321.4z"/>
<path fill="#DBE0DF" d="M264.3,335H148.7c-1,0-1.8-0.8-1.8-1.8v-3.1c0-1,0.8-1.8,1.8-1.8h115.6c1,0,1.8,0.8,1.8,1.8v3.1
	C266.1,334.2,265.3,335,264.3,335z"/>
<rect x="147" y="195" fill="#005779" width="156.3" height="109"/>
<path fill="#FFFFFF" d="M213,230.1l28,16.2c2.5,1.5,2.5,5.1,0,6.6L213,269c-2.5,1.5-5.7-0.4-5.7-3.3v-32.4
	C207.3,230.4,210.5,228.6,213,230.1z"/>
<path fill="#FFD31C" d="M161.2,418.8c0,7.4-6,13.5-13.5,13.5H91.8c-7.4,0-13.5-6-13.5-13.5V282c0-7.4,6-13.5,13.5-13.5h55.9
	c7.4,0,13.5,6,13.5,13.5V418.8z"/>
<path fill="#FFFFFF" d="M153,411.2H86.5c-0.8,0-1.5-0.6-1.5-1.4V289.6c0-0.8,0.7-1.4,1.5-1.4H153c0.8,0,1.5,0.6,1.5,1.4v120.2
	C154.5,410.6,153.8,411.2,153,411.2z"/>
<path fill="#005779" d="M154.5,331.2H85v-47c0-0.8,0.7-1.5,1.5-1.5H153c0.8,0,1.5,0.7,1.5,1.5V331.2z"/>
<path fill="#FFFFFF" d="M114.4,298.3l12.5,7.2c1.1,0.7,1.1,2.3,0,2.9l-12.5,7.2c-1.1,0.7-2.5-0.2-2.5-1.5v-14.4
	C111.8,298.5,113.2,297.7,114.4,298.3z"/>
<path fill="#FF7353" d="M122,359.8v15c0,0.8,0.7,1.5,1.5,1.5h24.2c0.8,0,1.5-0.7,1.5-1.5v-16.2v-1.8c0-0.8-0.7-1.5-1.5-1.5h-9.1
	c-0.8,0-1.5,0.7-1.5,1.5l0,0c0,0.8-0.7,1.5-1.5,1.5h-12.2C122.7,358.3,122,359,122,359.8z"/>
<path fill="#8272F7" d="M90.3,359.8v15c0,0.8,0.7,1.5,1.5,1.5H116c0.8,0,1.5-0.7,1.5-1.5v-16.2v-1.8c0-0.8-0.7-1.5-1.5-1.5h-9.1
	c-0.8,0-1.5,0.7-1.5,1.5l0,0c0,0.8-0.7,1.5-1.5,1.5H91.8C91,358.3,90.3,359,90.3,359.8z"/>
<path fill="#FF7353" d="M122,387.6v15c0,0.8,0.7,1.5,1.5,1.5h24.2c0.8,0,1.5-0.7,1.5-1.5v-16.2v-1.8c0-0.8-0.7-1.5-1.5-1.5h-9.1
	c-0.8,0-1.5,0.7-1.5,1.5v0c0,0.8-0.7,1.5-1.5,1.5h-12.2C122.7,386.1,122,386.8,122,387.6z"/>
<path fill="#FF7353" d="M90.3,387.6v15c0,0.8,0.7,1.5,1.5,1.5H116c0.8,0,1.5-0.7,1.5-1.5v-16.2v-1.8c0-0.8-0.7-1.5-1.5-1.5h-9.1
	c-0.8,0-1.5,0.7-1.5,1.5v0c0,0.8-0.7,1.5-1.5,1.5H91.8C91,386.1,90.3,386.8,90.3,387.6z"/>
<path fill="#DBE0DF" d="M148.3,344H91.2c-1,0-1.8-0.8-1.8-1.8v-3.7c0-1,0.8-1.8,1.8-1.8h57.1c1,0,1.8,0.8,1.8,1.8v3.7
	C150.1,343.3,149.3,344,148.3,344z"/>
</svg>
