<?xml version="1.0" encoding="utf-8"?>
<!-- Generator: Adobe Illustrator 19.2.0, SVG Export Plug-In . SVG Version: 6.00 Build 0)  -->
<svg version="1.1" id="Layer_1" xmlns="http://www.w3.org/2000/svg" xmlns:xlink="http://www.w3.org/1999/xlink" x="0px" y="0px"
	 viewBox="0 0 760 466" enable-background="new 0 0 760 466" xml:space="preserve">
<g>
	<path fill="#0284FF" d="M616.5,300.5c0.8,9.7-7,20.2-7.7,30c0,0,1.3,2.9,4.3,6.8l-3.2,88.6L619,466h18.3c-0.9-14.8-3.1-29.9-8-38.8
		c0,0,8.2-24.7,14.8-71c1.9,0.4,4,0.6,6.1,0.8h0c2,0.2,3.9,0.2,5.8,0.1c1.1,39.4,4.4,79.6,7.4,109h18.4c3.3-32.7,7.1-78.9,7.7-122.5
		c0.1-0.2,0.3-0.4,0.4-0.7c0,0,0,0,0.1-0.1l21.3,5.9c1.4,0.4,2.9-0.4,3.3-1.9l11.8-42.2c0.4-1.4-0.4-2.9-1.9-3.3l-7.9-2.2l11.6-15.3
		l-8.2-24.7c1.7-1.7,4.1-3.2,7.6-4.4c0,0-6.7-33.2-38.3-48.7c0,0.2-0.1,0.4-0.1,0.6c-3.9-1.7-9.1-3.7-15.6-5.1
		c-3.2-0.7-5.5-3.5-5.5-6.8l0-1.8c3.8-1.8,6.6-4.9,8-8.5c7.2,2.8,15.6,0,19.5-7c2.1-3.7,2.5-7.9,1.6-11.7c7.5-2,12.6-9.2,11.7-17.1
		c-0.5-4.2-2.6-7.9-5.6-10.4c4.9-6,4.8-14.8-0.6-20.7c-2.9-3.1-6.7-4.8-10.7-5.1c0.4-7.7-4.8-14.8-12.6-16.4
		c-4.2-0.9-8.3,0-11.6,2.1c-4.2-6.5-12.6-9.1-19.8-5.8c-3.9,1.8-6.7,4.9-8.1,8.6c-7.2-2.8-15.6,0-19.5,7c-2.1,3.7-2.5,7.9-1.6,11.7
		c-7.5,2-12.6,9.2-11.7,17.1c0.5,4.2,2.6,7.9,5.6,10.4c-4.9,6-4.8,14.8,0.6,20.7c2.9,3.1,6.7,4.8,10.7,5.1
		c-0.4,7.7,4.8,14.8,12.6,16.4c4.2,0.9,8.3,0,11.6-2.1c2.1,3.2,5.1,5.5,8.6,6.5l0,0.1c-0.5,3.2-3.2,5.6-6.5,5.9
		c-6.6,0.5-12.1,1.6-16.2,2.7c0-0.2,0-0.4,0-0.7c-33.5,10.7-57.7,35.4-57.7,35.4c0.3,0.2,0.6,0.5,0.9,0.7c-3.1,3.2-5.1,5.4-5.1,5.4
		c-13.3-16.1-33.6-28.7-40.3-32.5l-2.9,4.8l42.5,46.5c0,0,8.2-5.1,18.2-11.7c7.6,11.4,3.9,20.5,10.3,30.3
		C608.9,294.8,615.6,290.8,616.5,300.5z M704.3,295.4c-0.1,0.1-0.1,0.2-0.2,0.3l-0.2-0.1C704,295.5,704.2,295.5,704.3,295.4z"/>
	<rect y="0" fill="none" width="760" height="466"/>
	<g>
		<path fill="#84D9FF" d="M499.1,68.2c2.8,0,5,2.2,5,5v243.4c0,2.8-2.2,5-5,5H78.4c-2.8,0-5-2.2-5-5V73.2c0-2.8,2.2-5,5-5H499.1
			 M499.1,62.2H78.4c-6.1,0-11,4.9-11,11v243.4c0,6.1,4.9,11,11,11h420.7c6.1,0,11-4.9,11-11V73.2C510.1,67.2,505.2,62.2,499.1,62.2
			L499.1,62.2z"/>
	</g>
	<path fill="#331416" d="M698.5,115.7c-0.5-4.7-2.9-8.7-6.3-11.6c5.4-6.7,5.3-16.5-0.7-23c-3.2-3.5-7.5-5.4-11.8-5.7
		c0.5-8.6-5.4-16.4-14-18.2c-4.6-0.9-9.2,0-12.9,2.4c-4.7-7.2-14-10.1-22.1-6.5c-4.3,2-7.4,5.4-9.1,9.5c-8-3.1-17.3,0-21.7,7.7
		c-2.3,4.1-2.8,8.8-1.7,13c-8.3,2.2-14,10.2-13,19c0.5,4.7,2.9,8.7,6.3,11.6c-5.4,6.7-5.3,16.5,0.7,23c3.2,3.5,7.5,5.4,11.8,5.7
		c-0.5,8.6,5.4,16.4,14,18.2c4.6,0.9,9.2,0,12.9-2.4c4.7,7.2,14,10.1,22.1,6.5c4.3-2,7.4-5.4,9.1-9.5c8,3.1,17.3,0,21.7-7.7
		c2.3-4.1,2.8-8.8,1.7-13C693.8,132.5,699.5,124.5,698.5,115.7z"/>
	<path fill="#2912A7" d="M639.4,318.8c0,51.2,4.5,107.6,8.4,147.2h20.8c3.9-39.6,8.4-96,8.4-147.2H639.4z M592.4,318.8L589.6,425
		l8.8,41H619c-1.1-15.8-3.5-31.5-8.8-41c0,0,12.3-37.2,19.9-106.3H592.4z"/>
	<path fill="#664D4E" d="M591.4,187.6c-17.7,2.4-44.8,33.3-44.8,33.3c-14.7-17.9-37.4-31.9-44.8-36.1c-0.8-5-9.4-7.5-12.5-15.2
		c0,0-1.8,2-1.9,5c-0.1,0-0.1-0.1-0.2-0.1c-9.3-3.9-17.1-6.3-17.1-6.3l-1.6,3.7c0,0,4,11.5,13.3,15.4c6.8,2.9,13.2,3.8,16.8,2.8
		l47.2,51.7c0,0,38.4-23.8,54.3-37.8C616,190,609.1,185.2,591.4,187.6z M700,205.3c-6.5-12.4-10.4-18.6-15.3-20.1l0.7-0.5
		c0,0-9.3-6.6-26-10.4c-3.5-0.8-6.1-3.9-6.2-7.5l-0.2-10.3c10.1-5.6,21.9-22.3,19.7-42.3c-0.3-2.6-0.8-5-1.5-7.4
		c-3.9-6-12.5-13.4-30.8-11.3c-18.4,2.1-25.1,11.2-27.5,17.9c-0.2,2.4-0.1,5,0.2,7.5c2.3,20.1,17.8,33.8,28.9,36.9l-1.3,7.9
		c-0.6,3.6-3.6,6.3-7.2,6.5c-17.2,1.2-27.3,6.4-27.3,6.4l37.3,35.3l27.4-19.1c1.4,7.1,11.3,15,11.3,15c6.1,34.7,24.1,57.4,24.1,57.4
		c5.1,4.4,13.8-1.7,13.8-1.7L700,205.3z"/>
	<polygon fill="#A79899" points="638.5,119.8 635.1,133.9 648.1,130.7 	"/>
	<path fill="#CFE143" d="M633.4,346.9c33.6,2.5,49.8-22.2,49.8-22.2c0.8-10.9-6-23.8-3.5-34.3c2.5-10.5,9.2-4.9,21.6-18.8
		c11.6-13.1-3-31.3,18.1-38.2c0,0-7.4-36.9-42.5-54.2c-0.6,7-19.9,16.7-32.1,15.8c-12.2-0.9-29.8-13.3-29.4-20.4
		c-37.3,11.9-64.1,39.4-64.1,39.4c27.7,20.3,16.8,33.6,26.3,48.3c10.1,15.6,17.6,11.1,18.5,21.8c0.9,10.8-7.8,22.4-8.6,33.4
		C587.4,317.6,599.8,344.4,633.4,346.9"/>
	<path fill="#DFEE73" d="M600.2,209.9c0.2-2.4-1.6-4.6-4.1-4.7c-2.4-0.2-4.6,1.6-4.7,4.1s1.6,4.6,4.1,4.7S600,212.3,600.2,209.9z
		 M620.5,208.4c2.4,0.2,4.6-1.6,4.7-4.1c0.2-2.4-1.6-4.6-4.1-4.7s-4.6,1.6-4.7,4.1C616.2,206.1,618.1,208.3,620.5,208.4z
		 M618.7,232.9c-0.2,2.4,1.6,4.6,4.1,4.7c2.4,0.2,4.6-1.6,4.7-4.1s-1.6-4.6-4.1-4.7C621,228.6,618.9,230.4,618.7,232.9z
		 M601.1,246.1c-2.4-0.2-4.6,1.6-4.7,4.1c-0.2,2.4,1.6,4.6,4.1,4.7c2.4,0.2,4.6-1.6,4.7-4.1C605.3,248.4,603.5,246.3,601.1,246.1z
		 M626.6,261c-2.4-0.2-4.6,1.6-4.7,4.1c-0.2,2.4,1.6,4.6,4.1,4.7c2.4,0.2,4.6-1.6,4.7-4.1C630.9,263.3,629.1,261.2,626.6,261z
		 M619.1,286.8c-2.4-0.2-4.6,1.6-4.7,4.1c-0.2,2.4,1.6,4.6,4.1,4.7c2.4,0.2,4.6-1.6,4.7-4.1C623.3,289.1,621.5,287,619.1,286.8z
		 M651.3,286.9c-2.4-0.2-4.6,1.6-4.7,4.1c-0.2,2.4,1.6,4.6,4.1,4.7c2.4,0.2,4.6-1.6,4.7-4.1C655.5,289.2,653.7,287.1,651.3,286.9z
		 M614.7,312.8c-2.4-0.2-4.6,1.6-4.7,4.1c-0.2,2.4,1.6,4.6,4.1,4.7c2.4,0.2,4.6-1.6,4.7-4.1C619,315.1,617.2,313,614.7,312.8z
		 M669.1,207.8c-2.4-0.2-4.6,1.6-4.7,4.1c-0.2,2.4,1.6,4.6,4.1,4.7c2.4,0.2,4.6-1.6,4.7-4.1C673.4,210.1,671.5,208,669.1,207.8z
		 M694,209.6c-2.4-0.2-4.6,1.6-4.7,4.1c-0.2,2.4,1.6,4.6,4.1,4.7c2.4,0.2,4.6-1.6,4.7-4.1C698.3,211.9,696.5,209.8,694,209.6z
		 M652.7,234.8c2.4,0.2,4.6-1.6,4.7-4.1s-1.6-4.6-4.1-4.7c-2.4-0.2-4.6,1.6-4.7,4.1C648.4,232.5,650.2,234.6,652.7,234.8z
		 M664.6,261.7c-2.4-0.2-4.6,1.6-4.7,4.1c-0.2,2.4,1.6,4.6,4.1,4.7s4.6-1.6,4.7-4.1C668.8,264,667,261.9,664.6,261.7z M660,311.7
		c-2.4-0.2-4.6,1.6-4.7,4.1c-0.2,2.4,1.6,4.6,4.1,4.7c2.4,0.2,4.6-1.6,4.7-4.1C664.3,314,662.5,311.9,660,311.7z M686.7,248.5
		c-2.4-0.2-4.6,1.6-4.7,4.1c-0.2,2.4,1.6,4.6,4.1,4.7c2.4,0.2,4.6-1.6,4.7-4.1C690.9,250.8,689.1,248.7,686.7,248.5z"/>
	<g>
		<path fill="#F4F8F7" d="M717.9,288.8l-13.1,46.9c-0.4,1.6-2.1,2.5-3.7,2.1l-61.1-17c-1.6-0.4-2.5-2.1-2.1-3.7l13.1-46.9
			c0.4-1.6,2.1-2.5,3.7-2.1l61.1,17C717.4,285.6,718.4,287.2,717.9,288.8z"/>
	</g>
	<ellipse transform="matrix(0.2683 -0.9633 0.9633 0.2683 204.195 874.8029)" fill="#DBE0DF" cx="678" cy="303" rx="6.3" ry="6.3"/>
	<path fill="#664D4E" d="M720,265.7c-8.1-10.1-12.7-5.7-12.7-5.7c-12,10-26.7,44.1-30.2,52.7c-4.9,0.3-8.8,8-16.7,9.6
		c0,0,1.6,2.2,4.6,2.7c0,0.1-0.1,0.1-0.1,0.2c0,0-2,2.3-4.8,1.6c-10.6,1.1,11,14.5,16.5,6c4.4-6.8,6.5-13.7,5.4-17.2L720,265.7z"/>
	<path fill="#664D4E" d="M185.9,343.5c0,0,4.9,9,10,14.2c-0.6,3.6-2.5,18.7,4.7,43.2c0.9,2.9,1.9,5.6,3,8
		c-5.3,14.2-19.5,26.8-41.5,57.1h46.1c8.5-16.3,17.9-31,27.5-43c7.8-2.9,17.3-10.4,27.8-24.4c17.4-23.3,27.8-27.2,27.8-27.2
		s-9.3-15.9-31.9,8.9c-1.6,1.7-3.2,3.3-4.7,4.6c1.5-12.6-1.2-21.8-1.2-21.8c-0.7-13.6,1.8-34.7,4.7-48.7c2.6-12.3-5-14.2-10.2-1.6
		c-4.9,12-6.2,21.9-7.1,40.7c-2-1.1-3.9-2-5.8-2.8c-2.2-21-8.3-27.6-8.3-27.6s0.5-5.8,1.2-19.7c0.4-7.9-2.1-11.6-4.2-13.4
		c-1.4-1.1-3.4-0.5-3.9,1.2c-3.8,12.5-5.4,31.3-5.4,31.3s2.5,10.9,5.3,25.4c-0.9,0-1.8,0.1-2.7,0.2c-6.4-18.8-12.1-22.5-12.1-22.5
		s0.4-15.4-1.7-22.8c-0.9-3.2-2.4-4.8-3.7-5.5c-1.5-0.8-3.3,0.1-3.6,1.8c-2.4,14.7-1.5,26.8-1.5,26.8s2.8,10.8,11.7,24.9
		c-0.8,0.3-1.6,0.7-2.3,1c-4.6-5.2-10.8-11.2-10.8-11.2s-2.9-13.1-7-19.5c-1.3-2.1-2.6-3.2-3.8-3.8c-1.9-1-4,0.9-3.4,2.9
		L185.9,343.5z"/>
	<path fill="#FFFFFF" d="M291.6,448.4c2.4,2.1,4.6,3.7,6.7,5c-0.5,4-1.4,8.2-2.5,12.5H312c0.8-4.3,2-7.6,4.4-10.5
		c2.8-2.2,4.8-6.4,5.3-12.4c0.8-10.1-0.7-16.5-1.7-19.5c0.2-0.3,0.4-0.7,0.5-1.2c0.9-3.4,1.3-9.6,1.3-9.6l0.4-11.1
		c0-1-1.2-1.6-2-0.9c-0.5,0.4-0.9,1.1-1.3,2.2c-1,3.1-2.5,12.6-2.9,17.4c-0.9-0.3-2-0.5-3.2-0.6c0.6-6.6-0.8-21.9-0.8-21.9
		c0-1.2-1.5-1.8-2.4-0.9c-0.5,0.5-1,1.4-1.3,2.7c-0.9,3.6-1.6,14.5-1.5,20.3c-0.6,0.1-1.3,0.3-1.9,0.5c-0.1-0.4-0.2-0.9-0.3-1.4
		c-2.7-9.7-2.8-14-3.6-20.6s-4.1-5.7-5,0.3c-0.9,6.8,0.6,17.9,2.8,24.1c0.1,0.2,0.2,0.4,0.2,0.6c-0.6,0.4-1.1,0.9-1.7,1.4
		c-3.4-8.6-5-13.1-7.8-18.8c-3-5.9-5.6-4-4.2,1.9c1.6,6.7,4.7,16.2,7.5,22.2c-0.1,0.1-0.1,0.2-0.2,0.2c0,0-0.3,4.6,1.6,10.4
		c-0.9-0.5-1.8-1-2.7-1.7c-11.4-8.1-13.4,0.3-13.4,0.3S281,439.2,291.6,448.4z"/>
	<path fill="#A79899" d="M78.5,431.3c-0.2,0.9-0.4,1.8-0.7,2.6c-2.1-4.8-5-7.5-5-7.5c-3.1-4.7-6.6-12.7-8.5-18.3
		c-1.6-4.9-4.8-4-4,1.5c0.8,5.3,2.4,9.1,6,16c-0.9,0-1.8,0.1-2.7,0.2c-5.2-7-8.7-8.1-8.7-8.1s-1-2.2-3.7-7.3
		c-1.5-2.9-3.2-3.7-4.3-3.9c-0.7-0.1-1.3,0.5-1.1,1.2c1.2,5.3,4.6,12.3,4.6,12.3s3.1,3.4,7.2,7.9c-0.3,0.2-0.6,0.4-0.9,0.6
		c-6.2-5.4-9-5.5-9-5.5s-3.1-5.6-5.4-7.8c-1-0.9-1.8-1.2-2.5-1.2c-0.7,0-1.2,0.7-0.9,1.4c2.2,5.8,5,9.9,5,9.9s3.3,3.3,9.4,6.5
		c-0.2,0.3-0.4,0.6-0.6,0.8c-2.7-0.9-6.2-1.7-6.2-1.7s-3.7-4.1-6.6-5.5c-0.9-0.5-1.6-0.6-2.1-0.6c-0.9,0.1-1.3,1.1-0.6,1.8l7.3,6.8
		c0,0,3.6,2.2,6.5,3c0.5,1.4,3,7.2,10.7,14.4c0.9,0.9,1.8,1.6,2.7,2.2c0.6,3.5,0.1,7.4-0.7,12.8H78c0-5.2,0.4-10.1,1-14.5
		c2.2-2.7,4-7.3,4.8-14.5c1.4-11.9,4.3-15.5,4.3-15.5S81.4,417.8,78.5,431.3z M468,463.1c-12.4-35.6-22.2-40.8-21-51.1
		c0-0.3,0-0.5,0-0.7c0.3-1,0.6-2.1,0.8-3.4c1.3-7.7,0.6-12.8,0.1-15.1c0.2-0.2,0.3-0.5,0.5-0.9c0.9-2.5,1.6-7.3,1.6-7.3l1.1-8.6
		c0.1-0.8-0.8-1.3-1.5-0.9c-0.4,0.3-0.8,0.8-1.2,1.6c-1,2.3-2.8,9.6-3.4,13.2c-0.7-0.3-1.5-0.5-2.4-0.7c0.9-5,0.9-16.9,0.9-16.9
		c0-0.9-1.1-1.5-1.8-0.9c-0.4,0.4-0.9,1-1.2,2c-0.9,2.7-2.2,11.1-2.6,15.6c-0.5,0.1-1,0.1-1.5,0.3c0-0.3-0.1-0.7-0.1-1.1
		c-1.4-7.7-1.2-11-1.3-16.1s-2.8-4.7-3.9-0.1c-1.2,5.2-0.8,13.8,0.5,18.8c0,0.2,0.1,0.3,0.1,0.5c-0.5,0.3-0.9,0.6-1.4,1
		c-2-6.9-2.9-10.5-4.7-15c-1.9-4.8-4.1-3.5-3.4,1.2c0.8,5.2,2.5,12.8,4.3,17.6c0,0.1-0.1,0.1-0.1,0.2c0,0-0.6,3.5,0.6,8.2
		c-0.6-0.4-1.3-0.9-2-1.5c-8.3-7.1-10.4-0.7-10.4-0.7s2.1-0.1,9.7,7.7c3.2,3.3,6,5.4,8.5,6.7c7,11.6,12.7,30,13.9,47.8
		c0,0.5,0.1,1.1,0.2,1.6h21.9C468.7,465.1,468.4,464.1,468,463.1z"/>
	<g>
		<path fill="#EBC7C1" d="M577.9,375.5c-0.8,0.2-1.7,0.7-2.8,1.7c-2.8,2.7-9.6,11.6-13.2,16.7c-0.7-0.6-1.5-1.3-2.5-2
			c4.1-6.8,10.9-25.5,10.9-25.5c0.6-1.4-0.8-2.8-2.2-2.3c-0.9,0.3-1.9,1-3,2.4c-2.9,3.6-9.5,15.6-12.5,22.2
			c-0.7-0.2-1.4-0.4-2.2-0.5c0.2-0.5,0.3-1.1,0.5-1.7c2.8-12.3,5.2-17,8.3-24.6c3.1-7.6-1.1-8.7-5.6-2.6c-5.1,6.9-10,19.9-11.3,28
			c0,0.3-0.1,0.5-0.1,0.8c-0.9,0.1-1.8,0.3-2.7,0.5c1.4-11.4,2.4-17.3,2.7-25.2c0.3-8.2-3.8-7.7-5.7-0.4c-2.2,8.2-4.5,20.5-5,28.7
			c-0.1,0.1-0.2,0.1-0.3,0.2c0,0-3.1,4.8-4.4,12.4c-0.7-1-1.3-2.2-2-3.5c-7.7-15.7-14.8-7.7-14.8-7.7s3.2,1.2,9.4,17.6
			c2.4,6.4,4.9,11.1,7.5,14.4c0.1,12.1-1.8,26.3-5.5,40.8h24.1c0.5-17.7-0.7-27.2,2.1-34.9c2.7-1.7,5.4-4.5,7.9-8.3
			c7.8-12.1,9.6-20.8,10-23.7c3-3.2,6.9-9.5,6.9-9.5l7-12C580.1,376.6,579.1,375.3,577.9,375.5z"/>
		<path fill="#EBC7C1" d="M147.1,402.7c-0.7,0.9-1.4,1.7-2.2,2.4c0.3-6.2-1.3-10.6-1.3-10.6c-0.1-0.1-0.2-0.1-0.2-0.2
			c1.1-6.6,1.5-16.7,1.2-23.6c-0.2-6.1-3.4-7.2-4.6-0.7c-1.2,6.3-1.5,11.1-2.4,20.4c-0.7-0.3-1.4-0.6-2-0.9c0-0.2,0.1-0.4,0.1-0.6
			c0.5-6.6-1.1-17.8-3.9-24.2c-2.4-5.6-6-5.5-4.9,1c1.1,6.6,2.1,10.8,2.2,21c0,0.5,0,1,0.1,1.4c-0.7,0-1.4,0-2,0
			c-1.5-5.7-5.2-16.2-7-19.4c-0.7-1.2-1.4-1.9-2.1-2.3c-1.1-0.6-2.3,0.4-2.1,1.6c0,0,2.9,15.3,5.3,21.5c-1.1,0.5-2.1,1-2.9,1.5
			c-1.8-4.5-5.8-13.4-7.6-16.1c-0.7-1-1.3-1.6-1.9-1.8c-0.9-0.5-2,0.4-1.7,1.4l3.4,10.7c0,0,2.1,5.9,3.9,9c0.2,0.4,0.5,0.7,0.8,1
			c-0.1,3.1,0.2,9.8,3.7,19.4c0.6,1.5,1.2,2.9,1.9,4.1c0.1,0.3,0.1,0.6,0.2,0.9c3.3,10.4-3.4,18.3-10,46.4h22
			c0.3-16.4,3-32.2,7.3-43.8c2.9-2.2,6-5.6,9.3-10.6c7.8-11.9,10.6-12.3,10.6-12.3S156.1,391.6,147.1,402.7z"/>
	</g>
	<path fill="#FFF3C1" d="M478.6,445.5c2,1.7,3.8,3.1,5.6,4.2c-0.7,5.1-2,10.6-3.7,16.3h14.3c0.9-6.8,1.6-11,4.5-14.6
		c2.3-1.9,4-5.4,4.4-10.3c0.6-8.4-0.6-13.8-1.4-16.3c0.2-0.3,0.3-0.6,0.4-1c0.7-2.8,1.1-8,1.1-8l0.3-9.3c0-0.9-1-1.4-1.6-0.8
		c-0.4,0.3-0.8,0.9-1.1,1.9c-0.8,2.6-2.1,10.5-2.4,14.5c-0.8-0.2-1.7-0.4-2.6-0.5c0.5-5.5-0.6-18.3-0.6-18.3c0-1-1.3-1.5-2-0.8
		c-0.4,0.4-0.8,1.1-1.1,2.3c-0.7,3-1.3,12.1-1.3,17c-0.5,0.1-1.1,0.2-1.6,0.4c-0.1-0.4-0.1-0.7-0.3-1.1c-2.3-8.1-2.4-11.7-3-17.2
		c-0.6-5.5-3.5-4.8-4.1,0.3c-0.8,5.7,0.5,14.9,2.3,20.1c0.1,0.2,0.1,0.3,0.2,0.5c-0.5,0.4-0.9,0.7-1.4,1.2c-2.8-7.2-4.1-11-6.5-15.7
		c-2.5-4.9-4.7-3.3-3.5,1.6c1.3,5.6,3.9,13.5,6.3,18.5c0,0.1-0.1,0.1-0.1,0.2c0,0-0.3,3.8,1.4,8.7c-0.7-0.4-1.5-0.9-2.3-1.4
		c-9.6-6.8-11.2,0.2-11.2,0.2S469.7,437.8,478.6,445.5z"/>
	<path fill="#F0EBEC" d="M324,367c6.4,9.8,12.5,16.5,18.1,20.8c12.2,20.3,22.9,48.2,29.7,78.1h46c-20.5-46.3-35.7-63.5-39.4-80.3
		c2.5-3.3,4.8-7.5,6.6-12.6c7.9-21.7,7.6-35.9,7.3-40.7c0.3-0.5,0.6-1,0.8-1.5c2.4-6.6,4.4-18.9,4.4-18.9l2.9-22.1
		c0.3-2.1-2.1-3.5-3.7-2.2c-1,0.7-2.1,2-3,4.2c-2.4,5.8-7.1,23.7-9,33.4c-1-0.6-2.1-1.1-3.4-1.6c1.9-12.5,0.1-44.9,0.1-44.9
		c0-2.4-2.9-3.7-4.7-2c-1.1,1-2.1,2.7-2.9,5.4c-1.9,6.7-3.9,26.5-4.4,38.5c-1.6-0.1-3.2-0.2-4.9-0.1c0.1-0.9,0.1-2,0.1-3
		c-0.6-20.2,1.3-28.7,3-41.8c1.7-13.1-5.3-13.1-9.8-1.8c-5.1,12.9-7.5,35.1-6.2,48.3c0,0.4,0.1,0.8,0.2,1.2c-1.2,0.5-2.4,1-3.6,1.6
		c-1.5-18.4-1.9-28-4-40.5c-2.2-13-8.5-11-9.2,1.2c-0.8,13.8-0.4,34,1.6,47.1c-0.2,0.1-0.3,0.2-0.5,0.4c0,0-3.1,8.7-2.5,21
		c-1.4-1.4-2.9-3-4.3-4.7c-17.7-22-26.1-6.8-26.1-6.8S308.5,343.4,324,367z"/>
	<g>
		<path fill="#84D9FF" d="M162.2,192.3c-0.3,0-0.5-0.2-0.5-0.5l-2-23c0-0.3,0.2-0.5,0.4-0.5l68.9-6.9l-0.4-4.1
			c0-0.3,0.2-0.5,0.5-0.5c0.3,0,0.5,0.2,0.5,0.5l0.4,4.1l3.1-0.3c0.3,0,0.5,0.2,0.5,0.4c0,0.3-0.2,0.5-0.4,0.5l-3.1,0.3l2.1,24.2
			c0,0.1,0,0.3-0.1,0.4c-0.1,0.1-0.2,0.2-0.3,0.2L162.2,192.3C162.2,192.3,162.2,192.3,162.2,192.3z M160.7,169.2l2,22l68.6-5.2
			l-2.1-23.7L160.7,169.2z"/>
		<path fill="#84D9FF" d="M110.1,245.3c-0.1,0-0.3-0.1-0.4-0.2c-0.1-0.1-0.1-0.2-0.1-0.4l2-23.1c0-0.3,0.2-0.5,0.5-0.5l67.5-1.1
			l0-3.2c0-0.3,0.2-0.5,0.5-0.5c0,0,0,0,0,0c0.3,0,0.5,0.2,0.5,0.5l0,3.2l4-0.1c0.3,0,0.5,0.2,0.5,0.5c0,0.3-0.2,0.5-0.5,0.5l-4,0.1
			l-0.2,20.7c0,0.3-0.2,0.5-0.5,0.5L110.1,245.3C110.2,245.3,110.2,245.3,110.1,245.3z M112.6,222.2l-1.9,22.1l68.7-3l0.2-20.2
			L112.6,222.2z"/>
		<path fill="#84D9FF" d="M211.2,244.7c-0.2,0-0.4-0.2-0.5-0.4c-0.1-0.3,0.1-0.5,0.4-0.6l72.4-14.1l-2.9-17c0-0.3,0.1-0.5,0.4-0.6
			c0.3,0,0.5,0.1,0.6,0.4l3,17.5c0,0.3-0.1,0.5-0.4,0.6L211.2,244.7C211.3,244.7,211.3,244.7,211.2,244.7z"/>
		<path fill="#84D9FF" d="M216.3,247.5c-0.2,0-0.5-0.2-0.5-0.4l-4.9-29c0-0.1,0-0.3,0.1-0.4s0.2-0.2,0.3-0.2l68.9-10.7
			c0.3,0,0.5,0.1,0.6,0.4c0,0.3-0.1,0.5-0.4,0.6l-68.4,10.7l4.8,28.5C216.8,247.2,216.6,247.5,216.3,247.5
			C216.3,247.5,216.3,247.5,216.3,247.5z"/>
		<path fill="#84D9FF" d="M273.3,133.6C273.3,133.6,273.2,133.6,273.3,133.6l-72.5-1.4c-0.3,0-0.5-0.2-0.5-0.5
			c0-0.3,0.3-0.5,0.5-0.5l71.9,1.4l-0.8-21.3l-65.2-0.3l-0.8,17.4c0,0.3-0.2,0.5-0.5,0.5c-0.3,0-0.5-0.2-0.5-0.5l0.8-17.9
			c0-0.3,0.2-0.5,0.5-0.5l66.2,0.3c0.3,0,0.5,0.2,0.5,0.5l0.8,22.3c0,0.1,0,0.3-0.1,0.4C273.5,133.5,273.4,133.6,273.3,133.6z"/>
		<path fill="#84D9FF" d="M106,157.2c-0.2,0-0.5-0.2-0.5-0.4l-4.4-28.4c0-0.3,0.1-0.5,0.4-0.6l71-14.4c0.3-0.1,0.5,0.1,0.6,0.4
			c0.1,0.3-0.1,0.5-0.4,0.6l-70.5,14.3l4.3,27.9C106.5,156.8,106.4,157.1,106,157.2C106.1,157.2,106,157.2,106,157.2z"/>
		<path fill="#84D9FF" d="M100.8,153.4c-0.2,0-0.4-0.2-0.5-0.4c-0.1-0.3,0.1-0.5,0.4-0.6l70.7-13.4l-3.8-24.1c0-0.3,0.1-0.5,0.4-0.6
			c0.3,0,0.5,0.1,0.6,0.4l3.9,24.6c0,0.3-0.1,0.5-0.4,0.6L100.8,153.4C100.9,153.4,100.8,153.4,100.8,153.4z"/>
		<path fill="#84D9FF" d="M156.6,235.4c-0.4,0-0.8,0-1.2-0.1c-1.7-0.2-2.8-0.7-3.2-1.5c-0.1-0.2-0.2-0.3-0.2-0.5l-3.5,1.6
			c-0.2,0.1-0.3,0.1-0.5,0s-0.2-0.3-0.2-0.4l0-2l-3.7,2.4c-0.2,0.1-0.4,0.1-0.6,0c-0.9-0.7-1.1-1.6-1.2-2.4l-3,2.3
			c-0.2,0.2-0.5,0.1-0.7,0l-1.8-1.8c-4,2.3-4.4,1.8-4.6,1.5c-0.4-0.5,0.1-1.2,0.4-1.6c0.8-1,0.9-1.7,0.7-1.8
			c-0.3-0.3-1.9-0.1-5.1,2.5c-0.2,0.2-0.5,0.1-0.7-0.1c-0.2-0.2-0.1-0.5,0.1-0.7c3.1-2.5,5.4-3.4,6.4-2.4c0.7,0.6,0.4,1.8-0.6,3.1
			c0,0,0,0.1-0.1,0.1c0.8-0.3,2.2-1,3.3-1.7c0.2-0.1,0.5-0.1,0.6,0.1l1.7,1.8l3.6-2.8c0.2-0.1,0.4-0.1,0.6,0
			c0.2,0.1,0.3,0.4,0.2,0.6c0,0.1-0.4,1.4,0.5,2.3l4.2-2.7c0.2-0.1,0.3-0.1,0.5,0c0.2,0.1,0.3,0.3,0.3,0.4l0,2.1l3.5-1.6
			c0.2-0.1,0.4,0,0.6,0.1c0.1,0.1,0.2,0.4,0.1,0.6c0,0-0.1,0.3,0.1,0.6c0.2,0.3,0.7,0.8,2.5,1c3.5,0.4,6-1.4,6-1.4
			c0.2-0.2,0.5-0.1,0.7,0.1c0.2,0.2,0.1,0.5-0.1,0.7C162.1,233.8,159.9,235.4,156.6,235.4z"/>
		<path fill="#84D9FF" d="M237,123.4c-0.1,0-0.1,0-0.2,0c-0.2-0.1-0.3-0.2-0.3-0.4l-0.2-2.1l-3.3,2c-0.2,0.1-0.4,0.1-0.6,0
			s-0.2-0.3-0.2-0.5c0,0,0.1-0.3-0.1-0.6c-0.2-0.3-0.8-0.7-2.5-0.7c-3.5,0-5.8,2-5.8,2c-0.2,0.2-0.5,0.2-0.7,0
			c-0.2-0.2-0.2-0.5,0-0.7c0.1-0.1,2.6-2.3,6.5-2.3c1.7,0,2.8,0.4,3.4,1.2c0.1,0.2,0.2,0.3,0.2,0.5l3.3-1.9c0.1-0.1,0.3-0.1,0.5,0
			c0.2,0.1,0.3,0.2,0.3,0.4l0.2,2l3.5-2.7c0.2-0.1,0.4-0.1,0.6,0c1,0.6,1.3,1.5,1.4,2.2l2.7-2.6c0.2-0.2,0.5-0.2,0.7,0l2,1.7
			c3.7-2.7,4.2-2.2,4.5-2c0.5,0.5,0,1.2-0.2,1.6c-0.7,1-0.7,1.7-0.5,1.9c0.3,0.3,1.9-0.1,4.8-3c0.2-0.2,0.5-0.2,0.7,0
			c0.2,0.2,0.2,0.5,0,0.7c-2.8,2.8-5.1,3.9-6.1,3c-0.7-0.6-0.6-1.8,0.3-3.2c0,0,0-0.1,0.1-0.1c-0.8,0.4-2.1,1.2-3.2,2
			c-0.2,0.1-0.4,0.1-0.6,0l-1.9-1.6l-3.3,3.1c-0.2,0.2-0.4,0.2-0.6,0.1c-0.2-0.1-0.3-0.3-0.2-0.5c0-0.1,0.3-1.4-0.7-2.2l-3.9,3.1
			C237.2,123.3,237.1,123.4,237,123.4z"/>
		<path fill="#84D9FF" d="M460.1,123.8c-0.3,0-0.7,0-1-0.1c-1.7-0.2-2.8-0.7-3.2-1.5c-0.1-0.2-0.2-0.3-0.2-0.5l-3.4,1.6
			c-0.2,0.1-0.3,0.1-0.5,0c-0.1-0.1-0.2-0.2-0.2-0.4l0-2l-3.7,2.4c-0.2,0.1-0.4,0.1-0.6,0c-0.9-0.7-1.2-1.6-1.2-2.3l-3,2.4
			c-0.2,0.2-0.5,0.1-0.7,0l-1.8-1.8c-3.9,2.3-4.4,1.8-4.6,1.6c-0.5-0.5,0.1-1.2,0.4-1.6c0.7-1,0.8-1.7,0.7-1.8
			c-0.3-0.3-1.9,0-5.1,2.5c-0.2,0.2-0.5,0.1-0.7-0.1c-0.2-0.2-0.1-0.5,0.1-0.7c3.1-2.5,5.4-3.5,6.4-2.5c0.7,0.6,0.5,1.8-0.6,3.2
			c0,0,0,0.1-0.1,0.1c0.8-0.3,2.2-1,3.3-1.7c0.2-0.1,0.5-0.1,0.6,0.1l1.8,1.8l3.5-2.8c0.2-0.1,0.4-0.1,0.6,0s0.3,0.4,0.2,0.6
			c0,0.1-0.4,1.4,0.5,2.3l4.2-2.7c0.2-0.1,0.3-0.1,0.5,0s0.3,0.3,0.3,0.4l0,2.1l3.5-1.7c0.2-0.1,0.4-0.1,0.6,0.1
			c0.1,0.1,0.2,0.4,0.1,0.6c0,0-0.1,0.3,0.1,0.6c0.2,0.3,0.7,0.8,2.5,1c3.5,0.4,6-1.5,6-1.5c0.2-0.2,0.5-0.1,0.7,0.1
			c0.2,0.2,0.1,0.5-0.1,0.7C465.6,122.1,463.4,123.8,460.1,123.8z"/>
		<path fill="#84D9FF" d="M239.9,230c0,0-0.1,0-0.1,0c-0.2-0.1-0.4-0.3-0.4-0.5l0.1-4l-4,4.1c-0.1,0.1-0.3,0.2-0.4,0.1
			c-0.2,0-0.3-0.1-0.4-0.3l-0.9-1.9c-1.4,1.3-3.8,2.5-4.9,2.2c-0.4-0.1-0.6-0.3-0.7-0.6c-0.1-0.5,0-1.2,2-3.2c0.2-0.2,0.5-0.2,0.7,0
			c0.2,0.2,0.2,0.5,0,0.7c-1.4,1.4-1.7,2-1.7,2.2c0.7,0.1,3.1-0.9,4.4-2.5c0.1-0.1,0.3-0.2,0.5-0.2c0.2,0,0.3,0.1,0.4,0.3l0.9,1.9
			l4.4-4.5c0.1-0.1,0.4-0.2,0.6-0.1c0.2,0.1,0.3,0.3,0.3,0.5l-0.1,3.5l2.2-3.3c0.1-0.2,0.3-0.3,0.5-0.2c0.2,0,0.3,0.1,0.4,0.3
			l0.9,1.9c0.5-0.2,1.4-0.6,2.2-1.6c-1.3-1.7-0.9-2.7-0.7-3.1c0.4-0.6,1.2-0.8,1.8-0.5c0.6,0.3,1.1,1.1,0.6,2.3
			c-0.2,0.4-0.3,0.8-0.5,1.2c0.2,0.2,0.5,0.5,0.8,0.8c1.8,1.6,2.3,1.5,2.3,1.5c0.1-0.2-0.2-1.6-0.7-2.7c-0.1-0.2,0-0.5,0.2-0.6
			c0.2-0.1,0.5-0.1,0.6,0l1.6,1.5l1.9-3.2c0.1-0.2,0.4-0.3,0.6-0.2c0.2,0.1,0.4,0.3,0.3,0.6c-0.2,1-0.2,2.6,0.3,3
			c0.3,0.2,0.9-0.1,1.2-0.3c1.8-1.1,2-3.4,2-3.4c0-0.3,0.2-0.5,0.5-0.5c0.3,0,0.5,0.2,0.5,0.4l0.2,1.4l2.9-3.5
			c0.2-0.2,0.5-0.2,0.7-0.1c0.2,0.2,0.3,0.5,0.1,0.7c0,0-0.8,1.1-0.4,2.2c0.2,0.7,0.9,1.3,1.9,1.7c0.3,0.1,0.4,0.4,0.3,0.7
			c-0.1,0.3-0.4,0.4-0.7,0.3c-1.4-0.6-2.2-1.4-2.5-2.4c-0.1-0.2-0.1-0.4-0.1-0.6l-2.1,2.6c-0.1,0.2-0.3,0.2-0.5,0.2
			c-0.2-0.1-0.3-0.2-0.4-0.4l-0.1-0.4c-0.4,0.7-0.9,1.5-1.9,2c-1,0.6-1.7,0.6-2.3,0.2c-0.5-0.4-0.8-1.1-0.8-1.8l-1.2,2
			c-0.1,0.1-0.2,0.2-0.4,0.2c-0.1,0-0.3,0-0.4-0.1l-0.6-0.5c0.2,0.8,0.2,1.7-0.3,2c-0.7,0.5-1.7,0-3.5-1.6c-0.3-0.2-0.5-0.5-0.7-0.7
			c-1.3,1.6-2.9,1.9-3,1.9c-0.2,0-0.4-0.1-0.5-0.3l-0.7-1.5l-2.6,4C240.2,229.9,240,230,239.9,230z M229.1,228.8L229.1,228.8
			L229.1,228.8z M247,222.1c-0.1,0-0.3,0.1-0.3,0.2c-0.2,0.2-0.2,0.8,0.4,1.6c0.1-0.2,0.2-0.4,0.3-0.6c0.2-0.6,0.1-1-0.1-1.1
			C247.1,222.1,247,222.1,247,222.1z"/>
		<path fill="#84D9FF" d="M350.2,108.4c-0.1,0-0.2,0-0.3,0c-1-0.3-1.2-2.2-1.1-4l-1.4,1.6c-0.1,0.1-0.2,0.2-0.4,0.2
			c-0.2,0-0.3-0.1-0.4-0.2l-2-2.8c0.1,1.1,0,2.2-0.8,2.8c-0.6,0.6-1.6,0.5-2.8,0c-1.4-0.6-1.9-1.8-2-2.9l-0.9,1.4
			c-0.1,0.2-0.3,0.2-0.5,0.2c-0.2,0-0.3-0.1-0.4-0.3l-2.3-6.4c-0.1,2.7-0.8,6.1-3.7,7.6c-0.2,0.1-0.5,0-0.7-0.2
			c-0.1-0.2,0-0.5,0.2-0.7c4.4-2.3,3-10,3-10.1c0-0.3,0.1-0.5,0.4-0.6c0.2-0.1,0.5,0.1,0.6,0.3l3.2,8.7l1.7-2.5
			c0.1-0.2,0.4-0.3,0.7-0.2c0.2,0.1,0.3,0.4,0.2,0.6c-0.1,0.1-1.2,2.9,1.1,4c0.6,0.3,1.4,0.5,1.8,0.2c0.7-0.6,0.4-3,0.1-4
			c-0.1-0.2,0-0.5,0.3-0.6c0.2-0.1,0.5,0,0.6,0.2l2.9,4.1l1.9-2.2c0.1-0.2,0.4-0.2,0.6-0.1c0.2,0.1,0.3,0.3,0.3,0.5
			c-0.2,2.1,0,4.2,0.3,4.4c0,0,0.6-0.1,2-2.7c0.2-0.4,0.5-0.9,0.6-1.3c-0.2-0.5-0.4-1-0.5-1.6c-0.6-4.6,0.3-6.7,1.3-7.2
			c0.5-0.2,0.9-0.1,1.3,0.3c0.9,0.9,1.2,3.9-1,8.6c1,1.6,2.8,1.9,3.6,1.9l0.2-3.3c0-0.2,0.1-0.3,0.3-0.4c0.2-0.1,0.4-0.1,0.5,0.1
			l5.2,3.9c1.4-1.2,1-3,1-3.1c0-0.2,0-0.4,0.2-0.5c0.2-0.1,0.4-0.1,0.6,0.1l4.4,4l2.5-2.2c0.2-0.2,0.4-0.2,0.6,0
			c1.7,1.2,3.7,2.4,4.5,2.7c-0.1-0.1-0.2-0.3-0.3-0.5c-1.1-1.7-1.3-3.2-0.5-3.9c1.3-1.1,4.2,0.3,7.8,3.8c0.2,0.2,0.2,0.5,0,0.7
			c-0.2,0.2-0.5,0.2-0.7,0c-4.2-4-6.1-4-6.4-3.7c-0.3,0.3-0.2,1.3,0.7,2.6c0.3,0.4,0.9,1.4,0.4,1.9c-0.2,0.2-0.9,0.9-5.7-2.5
			l-2.6,2.2c-0.2,0.2-0.5,0.2-0.7,0l-3.8-3.5c-0.1,0.9-0.4,2.2-1.7,3.1c-0.2,0.1-0.4,0.1-0.6,0l-4.8-3.6l-0.2,2.8
			c0,0.3-0.2,0.5-0.5,0.5c0,0-2.9,0.1-4.6-1.9c-0.1,0.2-0.3,0.5-0.4,0.8C351.9,107.4,351,108.4,350.2,108.4z M354.2,95.4
			C354.2,95.4,354.1,95.4,354.2,95.4c-0.5,0.3-1.4,2.1-0.8,6.2c0,0.2,0.1,0.3,0.1,0.5c1.6-3.8,1.3-6.1,0.8-6.6
			C354.2,95.5,354.2,95.4,354.2,95.4z"/>
		<path fill="#84D9FF" d="M133.1,137.2c0,0-0.1,0-0.1,0c-0.2-0.1-0.4-0.3-0.4-0.5l0-4.1l-3.2,3.2c-0.2,0.2-0.5,0.2-0.7,0l-1.6-1.2
			c-1.4,1.4-3.8,2.7-5,2.5c-0.4-0.1-0.6-0.3-0.7-0.6c-0.1-0.5-0.1-1.2,1.9-3.3c0.2-0.2,0.5-0.2,0.7,0c0.2,0.2,0.2,0.5,0,0.7
			c-1.4,1.4-1.6,2-1.7,2.2c0.6,0.1,3.1-1,4.3-2.6c0.2-0.2,0.5-0.3,0.7-0.1l1.6,1.2l3.8-3.7c0.1-0.1,0.4-0.2,0.5-0.1
			c0.2,0.1,0.3,0.3,0.3,0.5l0,3.5l2.1-3.3c0.1-0.2,0.3-0.2,0.5-0.2c0.2,0,0.3,0.1,0.4,0.3l0.8,1.6c0.8-0.9,2.6-2.4,5.3-3.1
			c1.6-0.4,2.8-0.2,3.5,0.4c0.2,0.1,0.3,0.3,0.4,0.4l2.8-2.6c0.1-0.1,0.3-0.2,0.5-0.1c0.2,0,0.3,0.2,0.4,0.3l0.9,2.8
			c0.1,0.3-0.1,0.5-0.3,0.6c-0.3,0.1-0.5-0.1-0.6-0.3l-0.7-2l-2.8,2.7c-0.1,0.1-0.4,0.2-0.6,0.1c-0.2-0.1-0.3-0.3-0.3-0.5
			c0,0,0-0.3-0.3-0.6c-0.3-0.2-0.9-0.5-2.6-0.1c-3.5,0.8-5.2,3.3-5.2,3.3c-0.1,0.1-0.3,0.2-0.5,0.2c-0.2,0-0.3-0.1-0.4-0.3L136,133
			l-2.5,4C133.4,137.2,133.2,137.2,133.1,137.2z M122.3,136.3L122.3,136.3L122.3,136.3z"/>
		<path fill="#84D9FF" d="M288.6,263.7c-0.1,0-0.1,0-0.2,0c-0.2-0.1-0.3-0.3-0.3-0.5l0.5-5.4l-4.7,3.8c-0.2,0.2-0.5,0.2-0.7,0
			l-1.9-1.8c-1.8,1.7-5.2,3.1-6.6,2.7c-0.6-0.2-0.7-0.5-0.8-0.7c-0.1-0.6,0.1-1.5,2.8-3.8c0.2-0.2,0.5-0.2,0.7,0.1
			c0.2,0.2,0.2,0.5-0.1,0.7c-2.5,2.1-2.5,2.8-2.5,2.8c0.5,0.3,4.1-0.7,6-2.8c0.2-0.2,0.5-0.2,0.7,0l2,1.8l5.3-4.3
			c0.2-0.1,0.4-0.1,0.6-0.1c0.2,0.1,0.3,0.3,0.3,0.5l-0.5,4.9l3.3-4.3c0.1-0.1,0.3-0.2,0.5-0.2c0.2,0,0.3,0.1,0.4,0.3l0.8,2.2
			c1-1,3.5-2.9,7.1-3.4c2.1-0.3,3.5,0,4.3,0.8c0.2,0.2,0.3,0.5,0.4,0.7l3.9-3.1c0.1-0.1,0.3-0.1,0.5-0.1c0.2,0.1,0.3,0.2,0.3,0.4
			l0.9,3.6c0.1,0.3-0.1,0.5-0.4,0.6c-0.3,0.1-0.5-0.1-0.6-0.4l-0.7-2.8l-4,3.2c-0.2,0.1-0.4,0.1-0.6,0c-0.2-0.1-0.3-0.3-0.2-0.5
			c0,0,0.1-0.5-0.3-0.9c-0.4-0.4-1.3-0.8-3.4-0.5c-4.5,0.6-7,3.6-7,3.6c-0.1,0.1-0.3,0.2-0.5,0.2c-0.2,0-0.3-0.2-0.4-0.3l-0.8-2.1
			l-3.8,5C288.9,263.6,288.7,263.7,288.6,263.7z"/>
		<path fill="#84D9FF" d="M175.7,181.5c-0.1,0-0.1,0-0.2,0c-0.1-0.1-0.2-0.2-0.3-0.3l-0.8-2.8c-0.1-0.3,0.1-0.5,0.3-0.6
			c0.3-0.1,0.5,0.1,0.6,0.3l0.6,2.2l4.7-2.7c0.2-0.1,0.4-0.1,0.6,0c0.2,0.1,0.2,0.3,0.2,0.5c0,0,0,0.2,0.1,0.4
			c0.2,0.2,1.1,0.8,4.1,0.5c5.1-0.6,8.1-3,8.1-3c0.1-0.1,0.3-0.1,0.4-0.1c0.2,0,0.3,0.1,0.3,0.3l0.8,1.7l4.6-4.2
			c0.2-0.1,0.4-0.2,0.6-0.1c0.2,0.1,0.3,0.3,0.2,0.5l-0.8,4.2l5.5-3.2c0.2-0.1,0.4-0.1,0.5,0l2.2,1.4c2.3-1.5,6.5-2.8,7.8-2.2
			c0.3,0.1,0.5,0.4,0.5,0.7c0,0.5-0.3,1.3-3.3,3.1c-0.2,0.1-0.5,0.1-0.7-0.2c-0.1-0.2-0.1-0.5,0.2-0.7c2-1.2,2.6-1.8,2.7-2
			c-1-0.2-4.9,0.8-6.9,2.3c-0.2,0.1-0.4,0.1-0.6,0l-2.2-1.5l-6.2,3.6c-0.2,0.1-0.4,0.1-0.5,0c-0.2-0.1-0.2-0.3-0.2-0.5l0.7-3.8
			l-4,3.6c-0.1,0.1-0.3,0.1-0.4,0.1c-0.2,0-0.3-0.1-0.4-0.3l-0.9-1.8c-1.1,0.8-3.9,2.4-8.1,2.9c-2.6,0.3-4.2,0-4.9-0.8
			c-0.1-0.1-0.2-0.2-0.2-0.3l-4.6,2.6C175.8,181.5,175.7,181.5,175.7,181.5z"/>
		<path fill="#84D9FF" d="M173.5,168c-0.1,0-0.1,0-0.2,0c-21-6.8-29.7-19.7-29.8-19.8c-0.2-0.2-0.1-0.5,0.1-0.7
			c0.2-0.2,0.5-0.1,0.7,0.1c0.1,0.1,8.6,12.7,29.2,19.4c0.3,0.1,0.4,0.4,0.3,0.6C173.9,167.8,173.7,168,173.5,168z"/>
		<path fill="#84D9FF" d="M144.6,154.9c-0.3,0-0.5-0.2-0.5-0.5l-0.6-6.6c0-0.2,0.1-0.4,0.2-0.5c0.2-0.1,0.4-0.1,0.5,0
			c0,0,3.1,1.7,7.4,1.5c0.3,0,0.5,0.2,0.5,0.5c0,0.3-0.2,0.5-0.5,0.5c-3.3,0.2-5.9-0.7-7.1-1.2l0.5,5.7
			C145.1,154.7,144.9,154.9,144.6,154.9C144.6,154.9,144.6,154.9,144.6,154.9z"/>
		<path fill="#84D9FF" d="M209,164.2c-0.2,0-0.3-0.1-0.4-0.2c-0.1-0.2-0.1-0.5,0.2-0.7c22.6-13.2,25.7-26.7,25.7-26.9
			c0.1-0.3,0.3-0.4,0.6-0.4c0.3,0.1,0.4,0.3,0.4,0.6c-0.1,0.6-3.2,14.1-26.2,27.5C209.2,164.1,209.1,164.2,209,164.2z"/>
		<path fill="#84D9FF" d="M236.8,143.8c-0.2,0-0.4-0.1-0.5-0.4l-1.5-5.8c-0.7,0.6-2.1,1.3-4.9,1.7c-0.3,0-0.5-0.1-0.6-0.4
			c0-0.3,0.1-0.5,0.4-0.6c4.5-0.7,4.7-2,4.7-2c0-0.3,0.1-0.5,0.4-0.5c0.3-0.1,0.5,0.1,0.6,0.4l1.8,6.9c0.1,0.3-0.1,0.5-0.4,0.6
			C236.8,143.8,236.8,143.8,236.8,143.8z"/>
		<path fill="#84D9FF" d="M147.7,217.7c-0.2,0-0.4-0.1-0.5-0.3c-0.1-0.3,0-0.5,0.3-0.6c0.1-0.1,14.2-5.5,21.8-25.7
			c0.1-0.3,0.4-0.4,0.6-0.3c0.3,0.1,0.4,0.4,0.3,0.6c-4.1,10.8-9.9,17.4-14.1,21c-4.6,3.9-8.1,5.3-8.3,5.3
			C147.9,217.7,147.8,217.7,147.7,217.7z"/>
		<path fill="#84D9FF" d="M147.7,217.7c-0.2,0-0.3-0.1-0.4-0.3c-0.1-0.2-0.1-0.4,0-0.5c0,0,1.9-3,1.9-7.3c0-0.3,0.2-0.5,0.5-0.5
			c0,0,0,0,0,0c0.3,0,0.5,0.2,0.5,0.5c0,3.3-1,5.8-1.6,7.1l5.7-0.2c0,0,0,0,0,0c0.3,0,0.5,0.2,0.5,0.5c0,0.3-0.2,0.5-0.5,0.5
			L147.7,217.7C147.8,217.7,147.8,217.7,147.7,217.7z"/>
		<path fill="#84D9FF" d="M241.5,210.6c-0.2,0-0.4-0.1-0.5-0.3c-0.1-0.1-5.5-12.6-30-21.7c-0.3-0.1-0.4-0.4-0.3-0.6
			c0.1-0.3,0.4-0.4,0.6-0.3c25,9.2,30.3,21.7,30.6,22.2c0.1,0.3,0,0.5-0.3,0.7C241.6,210.5,241.5,210.6,241.5,210.6z"/>
		<path fill="#84D9FF" d="M241.5,210.6C241.5,210.6,241.5,210.6,241.5,210.6c-0.3,0-0.5-0.2-0.5-0.5c0,0,0,0,0,0c0,0-0.5-1.2-5-1.1
			c-0.2,0-0.5-0.2-0.5-0.5c0-0.3,0.2-0.5,0.5-0.5c2.8,0,4.3,0.4,5.1,0.9l0.5-5.9c0-0.3,0.3-0.5,0.5-0.5c0.3,0,0.5,0.3,0.5,0.5
			l-0.6,7.1C241.9,210.4,241.7,210.6,241.5,210.6z"/>
		<g>
			<path fill="#84D9FF" d="M398.1,166.8c0,0-0.1,0-0.1,0l-65-14.4c-0.2,0-0.4-0.2-0.4-0.5c0-0.2,0.1-0.4,0.4-0.5l45.7-13.6
				c0.3-0.1,0.5,0.1,0.6,0.3c0.1,0.3-0.1,0.5-0.3,0.6l-43.9,13l62.9,13.9l48.6-19.4l-63.8-7.6c-0.3,0-0.5-0.3-0.4-0.6
				c0-0.3,0.3-0.5,0.6-0.4l65.7,7.8c0.2,0,0.4,0.2,0.4,0.4c0,0.2-0.1,0.4-0.3,0.5l-50.6,20.1C398.3,166.7,398.2,166.8,398.1,166.8z"
				/>
			<path fill="#84D9FF" d="M400.4,272.5c-0.1,0-0.3,0-0.4-0.1c-23.1-23.4-62.9-35.6-63.3-35.8c-0.2-0.1-0.4-0.3-0.3-0.6
				c0.1-0.5,9.6-46.3-6.4-88.6c-0.1-0.3,0-0.5,0.3-0.6c0.3-0.1,0.5,0,0.6,0.3c15.3,40.4,7.5,83.9,6.5,88.7
				c4.4,1.4,41.3,13.6,63.2,35.9c0.2,0.2,0.2,0.5,0,0.7C400.7,272.5,400.5,272.5,400.4,272.5z"/>
			<path fill="#84D9FF" d="M396.3,271c-0.1,0-0.3-0.1-0.4-0.2c-0.2-0.2-0.2-0.5,0-0.7c15.1-14.7,44.8-31.1,47.5-32.6
				c0.8-3.2,9.9-42.8,4.8-85.2c0-0.3,0.2-0.5,0.4-0.6c0.3,0,0.5,0.2,0.6,0.4c5.2,44.3-4.8,85.4-4.9,85.8c0,0.1-0.1,0.3-0.2,0.3
				c-0.3,0.2-31.9,17.3-47.5,32.5C396.5,271,396.4,271,396.3,271z M443.9,237.9L443.9,237.9L443.9,237.9z"/>
			<path fill="#84D9FF" d="M336.9,236.6c-0.1,0-0.3-0.1-0.4-0.2c-0.2-0.2-0.2-0.5,0-0.7c19.3-16.9,40.9-22.4,43.8-23.1
				c7-35.1-0.5-70.1-0.5-70.5c-0.1-0.3,0.1-0.5,0.4-0.6c0.3-0.1,0.5,0.1,0.6,0.4c0.1,0.4,7.6,35.8,0.5,71.2c0,0.2-0.2,0.3-0.4,0.4
				c-0.2,0-23.3,5.1-43.7,23C337.2,236.6,337.1,236.6,336.9,236.6z M380.9,213.1L380.9,213.1L380.9,213.1z"/>
			<path fill="#84D9FF" d="M447.3,240.7c-0.1,0-0.3-0.1-0.4-0.2c-0.2-0.2-23.2-23.6-66.1-27c-0.3,0-0.5-0.3-0.5-0.5s0.3-0.5,0.5-0.5
				c22.6,1.8,39.5,9.1,49.7,14.9c11.1,6.3,16.9,12.3,17,12.4c0.2,0.2,0.2,0.5,0,0.7C447.5,240.6,447.4,240.7,447.3,240.7z"/>
			<g>
				<path fill="#84D9FF" d="M401.2,199.1c-4.3,0-7.7-3.5-7.7-7.7s3.5-7.7,7.7-7.7s7.7,3.5,7.7,7.7S405.4,199.1,401.2,199.1z
					 M401.2,184.6c-3.7,0-6.7,3-6.7,6.7s3,6.7,6.7,6.7s6.7-3,6.7-6.7S404.9,184.6,401.2,184.6z"/>
				<path fill="#84D9FF" d="M402,198.2c-0.1,0-0.3-0.1-0.4-0.2c-0.2-0.2-0.2-0.4,0-0.6l3.4-5.2l-7.7,5.6c-0.2,0.1-0.5,0.1-0.6,0
					c-0.2-0.2-0.2-0.4-0.1-0.6l6.9-10l-9.3,5.6c-0.2,0.1-0.5,0.1-0.6-0.1s-0.2-0.4,0-0.6l7.2-9.2c0.2-0.2,0.5-0.3,0.7-0.1
					c0.2,0.2,0.3,0.5,0.1,0.7l-5.5,7.1l8.9-5.4c0.2-0.1,0.5-0.1,0.6,0.1c0.2,0.2,0.2,0.4,0,0.6l-6.6,9.6l7.5-5.4
					c0.2-0.1,0.5-0.1,0.6,0s0.2,0.4,0.1,0.6l-3.8,5.9l2.5-1.3c0.2-0.1,0.5,0,0.7,0.2c0.1,0.2,0,0.5-0.2,0.7l-4.2,2.2
					C402.2,198.2,402.1,198.2,402,198.2z"/>
			</g>
			<g>
				<path fill="#84D9FF" d="M336.2,243.7c-4.3,0-7.7-3.5-7.7-7.7s3.5-7.7,7.7-7.7s7.7,3.5,7.7,7.7S340.5,243.7,336.2,243.7z
					 M336.2,229.2c-3.7,0-6.7,3-6.7,6.7s3,6.7,6.7,6.7s6.7-3,6.7-6.7S339.9,229.2,336.2,229.2z"/>
				<path fill="#84D9FF" d="M336.2,244.8c-0.1,0-0.1,0-0.2,0c-0.2-0.1-0.4-0.3-0.3-0.6l2.5-9.4l-5.7,7.4c-0.2,0.2-0.4,0.3-0.7,0.1
					c-0.2-0.1-0.3-0.4-0.2-0.6l4.6-9.4l-5.5,5.2c-0.2,0.2-0.5,0.2-0.7,0c-0.2-0.2-0.2-0.4-0.1-0.7l3.8-5.9l-2.5,1.3
					c-0.2,0.1-0.5,0-0.7-0.2c-0.1-0.2,0-0.5,0.2-0.7l4.2-2.2c0.2-0.1,0.4-0.1,0.6,0.1s0.2,0.4,0,0.6l-2.5,3.9l4.4-4.2
					c0.2-0.2,0.4-0.2,0.6,0c0.2,0.1,0.3,0.4,0.2,0.6l-3.7,7.5l4.3-5.5c0.1-0.2,0.4-0.2,0.6-0.1c0.2,0.1,0.3,0.3,0.3,0.6l-2,7.3
					l2.8-5.5c0.1-0.2,0.4-0.3,0.6-0.2c0.2,0.1,0.4,0.3,0.4,0.5l-0.7,7c0,0.3-0.3,0.5-0.5,0.5c-0.3,0-0.5-0.3-0.5-0.5l0.4-4.5
					l-3.8,7.3C336.6,244.7,336.4,244.8,336.2,244.8z"/>
			</g>
			<g>
				<path fill="#84D9FF" d="M442.9,244.4c-0.8,0-1.5-0.1-2.3-0.3c-2-0.6-3.6-2-4.6-3.8c-1-1.8-1.2-3.9-0.5-5.9
					c1.3-4.1,5.6-6.4,9.7-5.1c2,0.6,3.6,2,4.6,3.8c1,1.8,1.2,3.9,0.5,5.9l0,0c-0.6,2-2,3.6-3.8,4.6
					C445.4,244.1,444.1,244.4,442.9,244.4z M442.9,230c-2.9,0-5.5,1.9-6.4,4.7c-0.5,1.7-0.4,3.5,0.5,5.1s2.2,2.8,4,3.3
					c3.6,1.1,7.3-0.9,8.4-4.4l0,0c1.1-3.5-0.9-7.3-4.4-8.4C444.2,230.1,443.5,230,442.9,230z"/>
				<path fill="#84D9FF" d="M441.8,243.5c-0.2,0-0.4-0.1-0.5-0.3c-0.1-0.2,0-0.5,0.1-0.6l3.6-3l-5.4,2.7c-0.2,0.1-0.5,0-0.6-0.2
					c-0.1-0.2-0.1-0.5,0-0.6l5.8-6.1l-5.7,4c-0.2,0.1-0.5,0.1-0.6,0c-0.2-0.2-0.2-0.4-0.1-0.6l4-6.4l-4.3,4.4
					c-0.2,0.2-0.4,0.2-0.6,0.1c-0.2-0.1-0.3-0.4-0.2-0.6l2.7-6.5c0.1-0.3,0.4-0.4,0.7-0.3c0.3,0.1,0.4,0.4,0.3,0.7l-1.7,4.1l5.8-5.9
					c0.2-0.2,0.5-0.2,0.7,0c0.2,0.2,0.2,0.4,0.1,0.7l-5.2,8.2l7.7-5.4c0.2-0.1,0.5-0.1,0.7,0.1s0.2,0.5,0,0.7l-7.2,7.6l6.7-3.3
					c0.2-0.1,0.5,0,0.6,0.2c0.1,0.2,0.1,0.5-0.1,0.7l-5.4,4.5l2.8-0.5c0.3,0,0.5,0.1,0.6,0.4c0.1,0.3-0.1,0.5-0.4,0.6L441.8,243.5
					C441.9,243.5,441.9,243.5,441.8,243.5z"/>
			</g>
			<g>
				<path fill="#84D9FF" d="M380.1,145.5c-0.9,0-1.8-0.2-2.6-0.5c-4-1.4-6.1-5.9-4.7-9.9l0,0c1.4-4,5.9-6.1,9.9-4.7
					c1.9,0.7,3.5,2.1,4.4,4c0.9,1.9,1,4,0.3,5.9c-0.7,1.9-2.1,3.5-4,4.4C382.4,145.2,381.2,145.5,380.1,145.5z M373.8,135.5
					c-1.3,3.5,0.6,7.4,4.1,8.6c1.7,0.6,3.5,0.5,5.1-0.2c1.6-0.8,2.9-2.1,3.5-3.8c0.6-1.7,0.5-3.5-0.2-5.1s-2.1-2.9-3.8-3.5
					C378.9,130.2,375,132,373.8,135.5L373.8,135.5z"/>
				<path fill="#84D9FF" d="M377.3,146.2c-0.2,0-0.3-0.1-0.4-0.2c-0.1-0.2-0.1-0.5,0.2-0.7l7.6-4.8l-10.2,2.1
					c-0.2,0-0.5-0.1-0.6-0.3c-0.1-0.2,0-0.5,0.2-0.6l9.5-6.8l-8.9,2.6c-0.2,0.1-0.5,0-0.6-0.3c-0.1-0.2,0-0.5,0.1-0.6l5.6-4.2
					l-2.8,0.4c-0.3,0-0.5-0.2-0.6-0.4c0-0.3,0.2-0.5,0.4-0.6l4.7-0.7c0.2,0,0.4,0.1,0.5,0.3c0.1,0.2,0,0.5-0.2,0.6l-5,3.8l9.1-2.6
					c0.2-0.1,0.5,0,0.6,0.3c0.1,0.2,0,0.5-0.2,0.6l-9.9,7.1l10.6-2.1c0.2,0,0.5,0.1,0.6,0.3c0.1,0.2,0,0.5-0.2,0.6l-9.9,6.3
					C377.5,146.1,377.4,146.2,377.3,146.2z"/>
			</g>
			<g>
				<path fill="#84D9FF" d="M330.5,158.2c-4.3,0-7.7-3.5-7.7-7.7s3.5-7.7,7.7-7.7s7.7,3.5,7.7,7.7S334.8,158.2,330.5,158.2z
					 M330.5,143.7c-3.7,0-6.7,3-6.7,6.7s3,6.7,6.7,6.7s6.7-3,6.7-6.7S334.2,143.7,330.5,143.7z"/>
				<path fill="#84D9FF" d="M331.4,157.3c-0.1,0-0.3-0.1-0.4-0.2c-0.2-0.2-0.2-0.4,0-0.6l3.4-5.2l-7.7,5.6c-0.2,0.1-0.5,0.1-0.6,0
					c-0.2-0.2-0.2-0.4-0.1-0.6l6.9-10l-9.3,5.6c-0.2,0.1-0.5,0.1-0.6-0.1s-0.2-0.4,0-0.6l7.2-9.2c0.2-0.2,0.5-0.3,0.7-0.1
					c0.2,0.2,0.3,0.5,0.1,0.7l-5.5,7.1l8.9-5.4c0.2-0.1,0.5-0.1,0.6,0.1s0.2,0.4,0,0.6l-6.6,9.6l7.5-5.4c0.2-0.1,0.5-0.1,0.6,0
					c0.2,0.2,0.2,0.4,0.1,0.6l-3.8,5.9l2.5-1.3c0.2-0.1,0.5,0,0.7,0.2s0,0.5-0.2,0.7l-4.2,2.2C331.5,157.3,331.5,157.3,331.4,157.3z
					"/>
			</g>
			<g>
				<path fill="#84D9FF" d="M393.7,271c-4.6,0-8.4-3.8-8.4-8.4c0-4.6,3.8-8.4,8.4-8.4s8.4,3.8,8.4,8.4
					C402.1,267.2,398.4,271,393.7,271z M393.7,255.2c-4.1,0-7.4,3.3-7.4,7.4s3.3,7.4,7.4,7.4s7.4-3.3,7.4-7.4
					S397.8,255.2,393.7,255.2z"/>
				<path fill="#84D9FF" d="M394.7,270c-0.1,0-0.3-0.1-0.4-0.2c-0.2-0.2-0.2-0.4,0-0.6l3.8-5.9l-8.6,6.2c-0.2,0.1-0.5,0.1-0.6,0
					c-0.2-0.2-0.2-0.4-0.1-0.6l7.7-11.1l-10.3,6.2c-0.2,0.1-0.5,0.1-0.6-0.1c-0.2-0.2-0.2-0.4,0-0.6l7.8-10c0.2-0.2,0.5-0.3,0.7-0.1
					c0.2,0.2,0.3,0.5,0.1,0.7l-6.2,7.9l9.9-6c0.2-0.1,0.5-0.1,0.6,0.1s0.2,0.4,0,0.6l-7.3,10.6l8.4-6.1c0.2-0.1,0.5-0.1,0.6,0
					c0.2,0.2,0.2,0.4,0.1,0.6l-4.2,6.5l2.9-1.5c0.2-0.1,0.5,0,0.7,0.2c0.1,0.2,0,0.5-0.2,0.7l-4.6,2.4
					C394.8,270,394.8,270,394.7,270z"/>
			</g>
			<g>
				<path fill="#84D9FF" d="M447.3,155.6c-3.8,0-7.2-2.9-7.7-6.8c-0.5-4.2,2.5-8.1,6.7-8.6c4.2-0.5,8.1,2.5,8.6,6.7
					c0.3,2.1-0.3,4.1-1.6,5.7s-3.1,2.7-5.2,2.9C447.9,155.5,447.6,155.6,447.3,155.6z M447.3,141.1c-0.3,0-0.5,0-0.8,0.1
					c-3.7,0.5-6.3,3.8-5.9,7.5c0.2,1.8,1.1,3.4,2.5,4.5c1.4,1.1,3.2,1.6,5,1.4c1.8-0.2,3.4-1.1,4.5-2.5c1.1-1.4,1.6-3.2,1.4-5
					C453.6,143.6,450.7,141.1,447.3,141.1z"/>
				<path fill="#84D9FF" d="M443.9,154.8c-0.1,0-0.2,0-0.3-0.1c-0.2-0.1-0.3-0.4-0.1-0.6l5.7-10.8l-8.5,6.7c-0.2,0.1-0.5,0.1-0.6,0
					c-0.2-0.2-0.2-0.4-0.1-0.6l6-10c0.1-0.2,0.4-0.3,0.7-0.2c0.2,0.1,0.3,0.4,0.2,0.7l-4.6,7.7l8.2-6.5c0.2-0.1,0.4-0.1,0.6,0
					c0.2,0.2,0.2,0.4,0.1,0.6l-5.4,10.3l6.8-6.3c0.2-0.2,0.4-0.2,0.6,0c0.2,0.1,0.3,0.4,0.2,0.6l-3.1,6.3l2.3-1.6
					c0.2-0.2,0.5-0.1,0.7,0.1c0.2,0.2,0.1,0.5-0.1,0.7l-3.9,2.7c-0.2,0.1-0.4,0.1-0.6,0c-0.2-0.1-0.2-0.4-0.1-0.6l2.7-5.6l-7,6.5
					C444.2,154.7,444,154.8,443.9,154.8z"/>
			</g>
			<path fill="#84D9FF" d="M379.9,217.8c-3.5,0-6.4-2.9-6.4-6.4s2.9-6.4,6.4-6.4s6.4,2.9,6.4,6.4S383.5,217.8,379.9,217.8z
				 M379.9,206c-3,0-5.4,2.4-5.4,5.4s2.4,5.4,5.4,5.4s5.4-2.4,5.4-5.4S382.9,206,379.9,206z"/>
			<path fill="#84D9FF" d="M376.4,218L376.4,218c-0.3,0-0.5-0.2-0.5-0.5l0.1-10.9c0-0.3,0.2-0.5,0.5-0.5c0.3,0,0.5,0.1,0.5,0.4
				l1.8,8.8l2.9-7.6c0.1-0.2,0.2-0.3,0.4-0.3c0.2,0,0.4,0.1,0.5,0.3l3,6.5c0.1,0.3,0,0.5-0.2,0.7c-0.2,0.1-0.5,0-0.7-0.2l-2.5-5.4
				l-3.1,8.1c-0.1,0.2-0.3,0.3-0.5,0.3c-0.2,0-0.4-0.2-0.4-0.4l-1.2-5.8l-0.1,6.2C376.9,217.8,376.6,218,376.4,218z"/>
			<path fill="#84D9FF" d="M399.2,190.8c0,0-0.1,0-0.1,0c-0.2,0-0.3-0.2-0.3-0.3l-18.4-50.8c-0.1-0.3,0-0.5,0.3-0.6
				c0.3-0.1,0.5,0,0.6,0.3l18.1,50.1l44.7-39.4c0.2-0.2,0.5-0.2,0.7,0c0.2,0.2,0.2,0.5,0,0.7l-45.2,39.9
				C399.5,190.8,399.4,190.8,399.2,190.8z"/>
			<path fill="#84D9FF" d="M383.9,206c-0.1,0-0.3-0.1-0.4-0.2c-0.2-0.2-0.1-0.5,0.1-0.7l13.5-10.5c0.2-0.2,0.5-0.1,0.7,0.1
				c0.2,0.2,0.1,0.5-0.1,0.7l-13.5,10.5C384.2,205.9,384,206,383.9,206z"/>
			<path fill="#84D9FF" d="M443.2,234.3c-0.1,0-0.3-0.1-0.4-0.2l-37.4-40c-0.2-0.2-0.2-0.5,0-0.7c0.2-0.2,0.5-0.2,0.7,0l37.4,40
				c0.2,0.2,0.2,0.5,0,0.7C443.5,234.3,443.3,234.3,443.2,234.3z"/>
			<path fill="#84D9FF" d="M343.5,228.1c-0.1,0-0.2,0-0.3-0.1c-0.2-0.2-0.2-0.5-0.1-0.7c22-26.9,51.2-37.2,51.5-37.3
				c0.3-0.1,0.5,0,0.6,0.3c0.1,0.3,0,0.5-0.3,0.6c-0.3,0.1-29.2,10.3-51.1,37C343.7,228,343.6,228.1,343.5,228.1z"/>
			<path fill="#84D9FF" d="M398.2,253.9C398.2,253.9,398.2,253.9,398.2,253.9c-0.3,0-0.5-0.2-0.5-0.5c1-27.4,5.5-58.2,5.6-58.5
				c0-0.3,0.3-0.5,0.6-0.4c0.3,0,0.5,0.3,0.4,0.6c0,0.3-4.5,31-5.6,58.4C398.7,253.7,398.5,253.9,398.2,253.9z"/>
		</g>
		<path fill="#84D9FF" d="M394.9,258.1L394.9,258.1c-0.3,0-0.5-0.2-0.5-0.5c0-0.5,0.3-49.6,4.2-89.2c0-0.3,0.3-0.5,0.5-0.4
			c0.3,0,0.5,0.3,0.4,0.5c-3.9,39.5-4.2,88.6-4.2,89.1C395.4,257.8,395.1,258.1,394.9,258.1z"/>
	</g>
</g>
</svg>
