<?xml version="1.0" encoding="utf-8"?>
<!-- Generator: Adobe Illustrator 19.2.0, SVG Export Plug-In . SVG Version: 6.00 Build 0)  -->
<svg version="1.1" id="Layer_1" xmlns="http://www.w3.org/2000/svg" xmlns:xlink="http://www.w3.org/1999/xlink" x="0px" y="0px"
	 viewBox="0 0 688 670" enable-background="new 0 0 688 670" xml:space="preserve">
<rect x="0" fill="none" width="688" height="670"/>
<path fill="#E6FFDA" d="M395.5,212.5c37.4-23.2,58.4-58.3,46.9-78.3c-11.5-20.1-51-17.5-88.4,5.7s-58.4,58.3-46.9,78.3
	C318.5,238.3,358.1,235.7,395.5,212.5z"/>
<path fill="#E6FFDA" d="M523.8,140.4c-86.7,1.4-19.1,93.6-217.7,136.4c-195.6,42.1-68.2,325,158.5,258.6S657.6,138.2,523.8,140.4z"
	/>
<path fill="#01D0B7" d="M465.8,462l7.5-14.1c0.8-1.5,0.7-3.4-0.4-4.7l-5.5-7.5c-0.8-1-1.1-2.3-0.8-3.6c1-5,1.4-10,1.3-15
	c0-1.3,0.6-2.6,1.6-3.5l7.3-6.1c1.4-1.2,1.9-3,1.4-4.7l-4.9-15.8c-0.5-1.7-1.9-2.9-3.6-3.1l-10.7-1.5c-1.2-0.2-2.4-0.8-3.1-1.9
	c-2.5-3.7-5.4-7.1-8.6-10.3c-0.9-0.9-1.4-2.2-1.3-3.5l0.8-11.1c0.1-1.8-0.8-3.4-2.4-4.3l-14.5-7.7c-1.7-0.9-3.8-0.6-5.2,0.7
	l-6.9,6.6c-1.1,1-2.6,1.4-4,1.1c-5.4-1.2-10.8-1.8-16.1-1.7l0,0l-8.2-8.9c-1.2-1.2-2.9-1.7-4.5-1.3l-16.6,4.9
	c-1.8,0.5-3,2.1-3.2,3.9l-0.6,8.2c-0.1,1.4-0.9,2.7-2.1,3.4c-4.5,2.8-8.7,6.2-12.5,10.1c-0.9,0.9-2.1,1.4-3.4,1.3l-8.5-0.4
	c-1.7-0.1-3.4,0.8-4.2,2.4l-7.2,13.7c-0.8,1.4-0.7,3.2,0.2,4.5l5.2,8c0.6,1,0.9,2.1,0.6,3.3c-1.1,5.3-1.5,10.6-1.3,15.9
	c0.1,1.4-0.6,2.8-1.7,3.7l-6.3,4.9c-1.4,1.1-2.1,3-1.5,4.8l4.9,16.3c0.5,1.7,1.9,2.9,3.7,3.1l10,1.4c1.2,0.2,2.3,0.8,3,1.8
	c2.5,3.6,5.4,7.1,8.6,10.2c0.9,0.9,1.4,2.1,1.3,3.4l-0.6,10.4c-0.1,1.7,0.8,3.4,2.4,4.2l14.6,7.7c1.6,0.8,3.5,0.7,4.8-0.4l7.8-6.2
	c1-0.8,2.4-1.1,3.6-0.9c4.8,1,9.7,1.5,14.5,1.5c1.3,0,2.5,0.6,3.3,1.6l6.4,7.4c1.1,1.3,2.9,1.9,4.6,1.4l16.7-4.8
	c1.7-0.5,2.9-1.9,3.2-3.6l1.4-10c0.2-1.2,0.9-2.4,1.9-3.1c3.8-2.5,7.3-5.4,10.6-8.7c0.8-0.8,2-1.3,3.2-1.3l9.9,0.2
	C463.5,464.4,465,463.4,465.8,462z"/>
<ellipse transform="matrix(0.4674 -0.8841 0.8841 0.4674 -156.4998 575.8236)" fill="#FFFFFF" cx="399.6" cy="417.8" rx="53.3" ry="54.4"/>
<path fill="#9BB43B" d="M409.7,393.9c1.8-2.8,1.1-5.2,1.1-5.2s-2.5,0.1-4.8,1.8c-2.6,2-1.3,5.2-1.3,5.2c2.4-2.9,2.8-2.9,2.8-2.9
	c0,0.2-2.3,3.3-2.3,3.3S407.8,396.9,409.7,393.9z M413.3,405.4c2.7-1.2,3.3-3.3,3.3-3.3s-1.9-1.2-4.4-1c-2.9,0.2-3.6,3.2-3.6,3.2
	c3.2-0.9,3.5-0.8,3.5-0.8c-0.1,0.2-3.3,1.3-3.3,1.3S410.5,406.6,413.3,405.4z M418.9,407.7c-2.5-1.9-5.2,0.2-5.2,0.2
	c3.3,1.5,3.4,1.8,3.4,1.8c-0.2,0.1-3.7-1.2-3.7-1.2s0,2.7,3.3,3.7c3,0.9,5.1-0.4,5.1-0.4S421.1,409.4,418.9,407.7z M413.6,413
	c-2-1.5-4.2,0.1-4.2,0.1c2.6,1.2,2.8,1.4,2.8,1.4c-0.2,0.1-2.9-1-2.9-1s0,2.2,2.6,3c2.4,0.7,4.1-0.4,4.1-0.4S415.4,414.3,413.6,413z
	 M422.2,401.4c-2-0.8-3.4,1.1-3.4,1.1c2.5,0.3,2.6,0.5,2.6,0.5c-0.1,0.1-2.7-0.1-2.7-0.1s0.5,1.8,2.9,1.8c2.2,0,3.3-1.3,3.3-1.3
	S424,402,422.2,401.4z M383.7,411.9c0,0,0.2-0.1,2.4-0.3c0,0-1.1-1.8-3-1.3c-1.7,0.5-2.6,1.7-2.6,1.7s0.9,1.2,2.9,1.4
	c2.1,0.2,2.8-1.5,2.8-1.5S383.8,412,383.7,411.9z M382.6,406c0,0-2.8-0.1-2.9-0.2c0,0,0.2-0.2,2.9-0.2c0,0-1.2-2.2-3.5-1.7
	c-2,0.5-3.2,1.8-3.2,1.8s1,1.5,3.4,1.8C381.8,407.8,382.6,406,382.6,406z M411.4,398.9c0,0,1.9,0.8,3.6-1.1c1.6-1.8,1.3-3.7,1.3-3.7
	s-1.8-0.2-3.7,0.8c-2.1,1.2-1.5,3.7-1.5,3.7c2-1.8,2.3-1.8,2.3-1.8C413.4,396.9,411.4,398.9,411.4,398.9z M421.1,396.5
	c-0.1,0.2-2.9,1.2-2.9,1.2s1.5,1.7,4,0.5c2.3-1.1,2.9-3,2.9-3s-1.7-1-3.9-0.8c-2.5,0.2-3.1,2.9-3.1,2.9
	C420.8,396.4,421.1,396.5,421.1,396.5z M376.8,394.3c1.8,1.2,3.2,0,3.2,0s-2.1-1.1-2.2-1.2c0,0,0.2-0.1,2.3,0.9c0,0-0.2-2.2-2.1-2.6
	c-1.7-0.4-3.2,0.3-3.2,0.3S375,393.3,376.8,394.3z M390.9,415.1c0,0,0.1-0.2,2.5-1.3c0,0-2-1.5-3.8-0.1c-1.6,1.2-2.2,2.9-2.2,2.9
	s1.5,1,3.8,0.3c2.4-0.7,2.4-2.7,2.4-2.7S391,415.1,390.9,415.1z M413.7,391c2.1-1.5,2.3-1.4,2.3-1.4c0,0.2-2.1,1.8-2.1,1.8
	s1.7,1,3.4-0.7c1.6-1.5,1.6-3.3,1.6-3.3s-1.7-0.4-3.5,0.4C413.4,388.6,413.7,391,413.7,391z M377.9,400.8c2.5-0.3,2.9-2.3,2.9-2.3
	s-2.7,0.5-2.8,0.4c0,0,0.1-0.2,2.7-0.8c0,0-1.7-1.8-3.8-0.8c-1.8,0.9-2.7,2.5-2.7,2.5S375.6,401,377.9,400.8z M412.6,384.1
	c0,0.1-1.8,1.5-1.8,1.5s1.4,0.8,2.9-0.6c1.4-1.3,1.3-2.8,1.3-2.8s-1.4-0.3-3,0.3c-1.7,0.7-1.5,2.7-1.5,2.7
	C412.4,384.1,412.6,384.1,412.6,384.1z M398.3,383.3c0,0-1-1.7-1-1.8c0,0,0.2,0,1.3,1.6c0,0,0.8-1.6-0.4-2.7c-1.1-1-2.3-1.1-2.3-1.1
	s-0.5,1.2,0.3,2.7C396.9,383.5,398.3,383.3,398.3,383.3z M388.8,385.4c0,0-0.8-1.8-0.8-1.9c0,0,0.2,0.1,1.1,1.7c0,0,1-1.5-0.1-2.7
	c-0.9-1.1-2.2-1.4-2.2-1.4s-0.6,1.1,0,2.7C387.4,385.5,388.8,385.4,388.8,385.4z M399.5,384.4c0,0-2,1.5-2.9,4.2
	c-1,3.1,1.9,5.1,1.9,5.1c0.4-3.7,0.6-4,0.6-4c0.2,0.2,0,4,0,4s2.7-0.9,2.6-4.5C401.5,386,399.5,384.4,399.5,384.4z M404.9,387.3
	c0.6-2.9,0.8-3.1,0.8-3.1c0.1,0.1-0.3,3.2-0.3,3.2s2.2-0.5,2.4-3.3c0.1-2.6-1.3-4-1.3-4s-1.7,1-2.6,3.1
	C402.8,385.5,404.9,387.3,404.9,387.3z M394.4,387.9c0,0-1.2-2.6-1.1-2.8c0,0,0.2,0.1,1.5,2.6c0,0,1.4-2.2-0.1-4
	c-1.4-1.6-3.2-2.1-3.2-2.1s-0.9,1.7-0.1,4C392.3,388,394.4,387.9,394.4,387.9z M391.3,389c0,0-1.4,2.1-1.2,5
	c0.2,3.3,3.6,4.1,3.6,4.1c-1-3.6-0.8-3.9-0.8-3.9c0.2,0.1,1.4,3.8,1.4,3.8s2.2-1.8,0.8-5.1C393.7,389.8,391.3,389,391.3,389z
	 M387.6,395.7c-2.8-2.3-5.5-1.8-5.5-1.8s-0.3,2.7,1.3,5.4c1.8,3,5.5,2.1,5.5,2.1c-2.8-3-2.8-3.4-2.8-3.4c0.2,0,3.3,2.9,3.3,2.9
	S390.5,398.1,387.6,395.7z M388.8,391.2c-3.1-1.9-3.2-2.2-3.2-2.2c0.2-0.1,3.5,1.7,3.5,1.7s0.3-2.7-2.8-4.1
	c-2.9-1.2-5.2-0.2-5.2-0.2s0.5,2.4,2.5,4.3C385.9,392.9,388.8,391.2,388.8,391.2z M389.1,404.4c-2.8-1.8-5.3-1.1-5.3-1.1
	s0,2.5,1.7,4.9c1.9,2.6,5.3,1.4,5.3,1.4c-2.8-2.5-2.9-2.8-2.9-2.8c0.2,0,3.3,2.4,3.3,2.4S392,406.4,389.1,404.4z"/>
<path fill="#91897E" d="M404.7,424.8h-7.4c0,0,0.4-1.5,0.4-3.1c0-1.6,0-3,0-3s-1.8-2-2.4-5c-0.6-3-0.5-4.7-1.7-7.3
	c-1.2-2.6-1.5-3.4-1.5-3.4s-0.5-0.9,0.2-1.2c0.8-0.3,1.4,0.8,1.4,0.8l1.8,3.1c0,0,0.5,1.1,1,1.1c0.5,0,0.2-1.5,0.2-1.5l-0.7-6.6
	c0,0-0.1-1.2,0.6-1.2s0.9,0.9,0.9,0.9l1.7,6.3c0,0,0.2,0.8,0.4,0.8c0.2,0,0.4-0.6,0.5-1.7l0.6-7.5c0,0,0.1-0.9,0.9-0.9
	c0.9,0,0.9,0.9,0.9,0.9l-0.1,8.1c0,0,0,1.3,0.3,1.3c0.3,0,0.5-0.2,0.8-0.8l2.8-6.2c0,0,0.4-0.7,1.1-0.4c0.7,0.2,0.3,1.4,0.3,1.4
	l-2.4,7.3c0,0-0.4,1.7-0.1,2.5c0.3,0.8,0.5,1.8,1.5,1c0.9-0.8,1.6-2.2,2.8-2.4c1.2-0.2,2.7,0.1,2,0.8c-0.7,0.7-1.9,1-3.2,3.1
	c-1.4,2.1-1.6,4.8-4,5.9C404.4,417.9,403.8,422.9,404.7,424.8z"/>
<path fill="#24282E" d="M380.9,440.5v-4.9c0.3,0,0.5,0,0.8,0c0.8,0,1.3,0.4,1.6,1.5l0.7,2c0.3,1.1,0.7,1.6,1.7,1.6
	c0.7,0,1.5-0.3,1.8-0.8c-0.6-0.5-0.7-1-0.9-1.6l-0.7-2.1c-0.3-0.9-0.7-1.7-1.9-2c0.4-0.3,0.7-0.7,1-1.3l2.1-4l-0.2-0.2
	c-0.6-0.1-1.2-0.1-1.7-0.1c-0.8,0-1.1,0.3-1.4,1l-1.6,3.1c-0.2,0.5-0.3,0.6-0.8,0.6l-0.4,0v-4.6c-0.4-0.1-1-0.1-1.4-0.1
	c-0.3,0-0.9,0-1.4,0.1v11.8c0.4,0.1,1.1,0.1,1.4,0.1C379.9,440.6,380.4,440.6,380.9,440.5z M391.6,440.5v-3.7c0-0.5,0-0.8,0-1.3
	c0.3,0,0.6,0,0.9,0h2c0.2,0,0.6,0,0.9,0c0,0.5,0,0.8,0,1.3v3.7c0.5,0.1,1,0.1,1.4,0.1s0.9,0,1.3-0.1v-11.8c-0.4-0.1-1-0.1-1.4-0.1
	c-0.4,0-0.9,0-1.4,0.1v3.3c0,0.5,0,0.8,0,1.3c-0.2,0-0.6,0-0.9,0h-2c-0.2,0-0.6,0-0.9,0c0-0.5,0-0.8,0-1.3v-3.3
	c-0.4-0.1-1-0.1-1.4-0.1c-0.3,0-0.9,0-1.4,0.1v11.8c0.4,0.1,1.1,0.1,1.4,0.1C390.6,440.6,391.2,440.6,391.6,440.5z M401,440.6
	c0.4,0,0.8,0,1.2-0.1l0.7-2.5c0.2,0,0.5,0,0.7,0h2.5c0.2,0,0.4,0,0.7,0l0.3,1.1c0.3,1.2,0.8,1.5,1.7,1.5c0.5,0,1.2-0.1,1.6-0.3
	l-3.7-11.6c-0.4-0.1-1.1-0.1-1.6-0.1c-0.5,0-1.2,0-1.6,0.1l-3.8,11.6l0.1,0.1C400,440.5,400.6,440.6,401,440.6z M403.9,434.5
	c0.3-1,0.7-2.3,0.8-3.3h0.1c0.3,1.1,0.7,2.6,1,3.6l0.3,1.1c-0.2,0-0.4,0-0.6,0h-1.3c-0.2,0-0.5,0-0.7,0L403.9,434.5z M414.3,440.5
	v-3.4c0-1.4-0.1-3.7-0.2-5.2l0.1,0c0.2,0.7,0.6,1.6,1,2.4l2.7,6.2c0.6,0.1,1.3,0.1,1.6,0.1c0.3,0,1.2-0.1,1.7-0.2v-11.8l-0.1-0.1
	h-0.9c-1.1,0-1.5,0.4-1.5,1.7v2.1c0,1.2,0.1,3.5,0.2,5.1l-0.1,0c-0.2-0.6-0.6-1.6-1.1-2.6l-2.7-6.2c-0.6-0.1-1.2-0.1-1.6-0.1
	c-0.3,0-1.2,0.1-1.6,0.2v11.8c0.4,0.1,1,0.1,1.3,0.1C413.4,440.6,413.9,440.6,414.3,440.5z M379.7,445.3c-0.1,0-0.2,0-0.3,0l-1.7,5
	l0,0c0.1,0,0.2,0,0.3,0c0.1,0,0.2,0,0.2,0l0.4-1.3c0.1,0,0.5,0,0.5,0h1c0,0,0.4,0,0.5,0l0.4,1.1c0.1,0.2,0.2,0.3,0.3,0.3
	c0.1,0,0.2,0,0.3-0.1l-1.7-5C380,445.3,379.8,445.3,379.7,445.3z M380.5,448.5c-0.1,0-0.4,0-0.4,0h-0.8c0,0-0.3,0-0.4,0l0.6-1.7
	c0.1-0.2,0.2-0.6,0.2-0.9h0c0.1,0.3,0.2,0.8,0.4,1.2L380.5,448.5z M386.3,445.2c-1,0-1.9,0.8-1.9,2.6c0,1.3,0.5,2.6,1.8,2.6
	c0.7,0,1.3-0.3,1.7-0.7c0-0.1-0.2-0.3-0.3-0.4c-0.5,0.4-0.9,0.6-1.3,0.6c-0.8,0-1.3-0.8-1.3-2.1c0-1.4,0.5-2.1,1.3-2.1
	c0.9,0,1.2,0.7,1.1,1.2c0.1,0,0.2,0,0.2,0c0.3,0,0.3-0.2,0.3-0.3C388,445.9,387.4,445.2,386.3,445.2z M392.8,445.3
	c-0.1,0-0.2,0-0.3,0l-1.7,5l0,0c0.1,0,0.2,0,0.3,0c0.1,0,0.2,0,0.2,0l0.4-1.3c0.1,0,0.5,0,0.5,0h1c0,0,0.4,0,0.5,0l0.3,1.1
	c0.1,0.2,0.2,0.3,0.3,0.3c0.1,0,0.2,0,0.3-0.1l-1.7-5C393,445.3,392.9,445.3,392.8,445.3z M393.6,448.5c-0.1,0-0.4,0-0.4,0h-0.8
	c0,0-0.3,0-0.4,0l0.6-1.7c0.1-0.2,0.2-0.6,0.2-0.9h0c0.1,0.3,0.2,0.8,0.4,1.2L393.6,448.5z M400.6,445.6c-0.3-0.3-0.9-0.4-1.2-0.4
	c-0.6,0-0.8,0-1.5,0l0,0v4.9l0,0c0.6,0,0.9,0,1.5,0c0.4,0,0.9-0.1,1.2-0.4c0.6-0.5,0.8-1.3,0.8-2.1
	C401.4,446.9,401.3,446.2,400.6,445.6z M399.4,449.8c-0.3,0-0.6,0-1,0v-4.1c0.4,0,0.6,0,1,0c1.2,0,1.4,1.1,1.4,2.1
	C400.8,448.7,400.6,449.8,399.4,449.8z M405.3,449.8c0-0.1,0-0.2,0-0.3V448c0.2,0,0.3,0,0.4,0h1.5c0-0.1,0-0.2,0-0.2
	c0-0.1,0-0.2,0-0.2h-1.5c-0.1,0-0.3,0-0.4,0v-1.3c0-0.2,0-0.3,0-0.5c0.2,0,0.3,0,0.4,0h1.9c0-0.1,0-0.2,0-0.3c0-0.1,0-0.1,0-0.2
	h-2.8l0,0v4.6c0,0.2,0.1,0.4,0.3,0.4h2.3c0.2,0,0.3-0.1,0.4-0.3c0-0.1,0-0.2,0-0.2h-2C405.5,449.8,405.4,449.8,405.3,449.8z
	 M414.7,445.3c-0.1,0-0.2,0-0.4,0l-0.8,2.6c-0.1,0.2-0.3,1-0.3,1.1h0c0-0.1-0.2-0.8-0.3-1.1l-0.8-2.6c-0.1,0-0.3,0-0.4,0
	c-0.1,0-0.2,0-0.4,0l-0.4,5c0.1,0,0.2,0,0.3,0c0.1,0,0.2,0,0.3,0l0.2-3c0-0.3,0-1,0.1-1.4h0l1.2,3.6c0.1,0,0.2,0,0.3,0s0.2,0,0.3,0
	l1.2-3.6h0c0,0.4,0,1,0.1,1.4l0.2,3c0.1,0,0.2,0,0.3,0c0.1,0,0.2,0,0.3,0l-0.4-5C415,445.3,414.8,445.3,414.7,445.3z M421.5,445.3
	c-0.1,0-0.2,0-0.3,0c-0.1,0-0.2,0-0.2,0l-0.8,1.9c-0.1,0.1-0.2,0.6-0.3,0.8h0c-0.1-0.2-0.2-0.6-0.3-0.8l-0.7-1.7
	c-0.1-0.2-0.2-0.3-0.3-0.3c-0.1,0-0.2,0-0.4,0.1l1.4,3.3v1.6c0.1,0,0.2,0,0.3,0c0.1,0,0.2,0,0.3,0v-1.6L421.5,445.3L421.5,445.3z
	 M421.3,442.8h-43.4v0.3h43.4V442.8z"/>
<path fill="#66ADCB" d="M305.3,425.8l2.5-4.7c0.8-1.5,0.7-3.4-0.4-4.7l-1.4-1.9c-0.7-1-1-2.2-0.8-3.4c0.3-1.9,0.5-3.8,0.5-5.7
	c0-1.3,0.6-2.6,1.6-3.5l1.7-1.5c1.4-1.2,1.9-3,1.4-4.7l-1.6-5.2c-0.5-1.6-1.9-2.9-3.6-3.1l-3.1-0.4c-1.2-0.2-2.3-0.8-3-1.8
	c-1-1.3-2-2.6-3.2-3.8c-0.9-0.9-1.3-2.2-1.3-3.4l0.2-3.2c0.1-1.8-0.8-3.4-2.4-4.3l-4.7-2.5c-1.7-0.9-3.8-0.6-5.1,0.7l-1.5,1.4
	c-1.1,1-2.5,1.4-3.9,1.1c-2.4-0.5-4.7-0.7-7.1-0.6l0,0l-3.2-3.5c-1.2-1.2-2.9-1.7-4.5-1.3l-5.6,1.7c-1.8,0.5-3,2.1-3.2,3.9l-0.1,1.5
	c-0.1,1.4-0.8,2.6-2,3.4c-1.7,1.1-3.3,2.4-4.8,3.9c-0.9,0.9-2.1,1.3-3.3,1.3l-1.9-0.1c-1.7-0.1-3.4,0.8-4.2,2.4l-2.4,4.5
	c-0.8,1.4-0.7,3.2,0.2,4.5l1.4,2.2c0.6,0.9,0.9,2.1,0.7,3.2c-0.4,2-0.5,4.1-0.5,6.2c0,1.4-0.6,2.7-1.7,3.6l-1.1,0.9
	c-1.4,1.1-2.1,3-1.5,4.8l1.6,5.4c0.5,1.7,1.9,2.9,3.7,3.1l2.7,0.4c1.2,0.2,2.3,0.8,3,1.8c1,1.3,2,2.6,3.2,3.8
	c0.9,0.9,1.3,2.1,1.3,3.4l-0.2,2.9c-0.1,1.7,0.8,3.4,2.4,4.2l4.9,2.6c1.6,0.8,3.5,0.7,4.8-0.4l2-1.6c1-0.8,2.3-1.1,3.6-0.9
	c1.8,0.3,3.6,0.5,5.5,0.6c1.3,0,2.4,0.6,3.3,1.5l1.6,1.9c1.1,1.3,2.9,1.9,4.6,1.4l5.7-1.6c1.7-0.5,2.9-1.9,3.2-3.6l0.4-2.7
	c0.2-1.2,0.9-2.3,1.9-3c1.4-1,2.7-2.1,4-3.3c0.8-0.8,2-1.2,3.1-1.2l2.7,0C302.9,428.2,304.5,427.3,305.3,425.8z"/>
<path fill="#8E80FF" d="M393.3,316.4l14.2-16.5c1.1-1.3,1.4-3.1,0.7-4.7l-5.3-12.1c-0.5-1.2-0.5-2.5,0.1-3.7
	c2.8-6.2,4.9-12.6,6.1-19.2c0.3-1.3,1.1-2.5,2.3-3.1l11.9-6.1c1.6-0.8,2.6-2.5,2.4-4.3l-1.7-22.5c-0.1-1.7-1.2-3.2-2.9-3.8
	l-14.1-5.4c-1.2-0.5-2.1-1.4-2.6-2.6c-2.2-5.5-4.9-10.9-8.2-15.9c-0.7-1.1-1-2.5-0.6-3.8l4.6-14.8c0.5-1.7,0-3.5-1.4-4.7l-17.1-14.7
	c-1.4-1.2-3.5-1.4-5.2-0.5l-11.7,7c-1.3,0.8-2.9,0.8-4.2,0.2c-6.5-3.1-13.2-5.4-20.1-6.9l0,0l-8-13.9c-0.8-1.5-2.5-2.3-4.1-2.2
	l-23.5,1.5c-1.9,0.1-3.4,1.4-4,3.1l-3.5,11.3c-0.4,1.3-1.4,2.4-2.8,2.9c-6.7,2.3-13.2,5.4-19.2,9.4c-1.1,0.7-2.5,1-3.7,0.6
	l-11.6-3.3c-1.7-0.5-3.5,0.1-4.6,1.4l-13.8,16c-1.1,1.2-1.4,2.9-0.8,4.5l4.6,12.5c0.4,1.1,0.3,2.4-0.2,3.4c-3,6.5-5.1,13.3-6.3,20.3
	c-0.3,1.4-1.2,2.6-2.5,3.2l-10.5,4.9c-1.7,0.8-2.7,2.5-2.6,4.3l1.6,23.1c0.1,1.7,1.2,3.3,2.9,3.9l13.3,5c1.2,0.4,2.1,1.4,2.6,2.6
	c2.2,5.5,4.9,10.8,8.2,15.8c0.7,1.1,0.9,2.5,0.6,3.7l-4,14c-0.5,1.7,0.1,3.5,1.4,4.6l17.1,14.7c1.3,1.1,3.2,1.4,4.8,0.6l12.7-6
	c1.2-0.6,2.6-0.6,3.8,0c6,2.8,12.2,4.9,18.5,6.3c1.3,0.3,2.3,1.1,2.9,2.3l6.4,12.1c0.8,1.5,2.5,2.5,4.2,2.4l23.5-1.4
	c1.7-0.1,3.3-1.2,3.9-2.9l5.1-13.2c0.5-1.2,1.4-2.1,2.7-2.6c5.7-2.1,11.1-4.8,16.3-8.1c1-0.7,2.3-0.9,3.5-0.6l13.4,3.3
	C390.5,318.2,392.2,317.7,393.3,316.4z"/>
<path fill="#FFFFFF" d="M271.8,197.5c24.4-28.4,67.6-31.2,96.5-6.4c28.9,24.9,32.6,68,8.3,96.4c-24.4,28.4-67.6,31.2-96.5,6.4
	C251.2,269,247.5,225.9,271.8,197.5z"/>
<path fill="#CF5726" d="M290.8,259.1c-1.9,1-4.1,1.5-6.4,1.5c-9.5,0-13.2-5.7-13.2-13.1s5.1-13.3,13.5-13.3c2.3,0,4.4,0.5,6.3,1.4
	l-1.1,3.5c-1.4-0.7-3.1-1.2-4.8-1.2c-6,0-9.3,4.1-9.3,9.4s2.7,9.4,9.5,9.4c1.7,0,3.3-0.4,4.7-1.2L290.8,259.1z"/>
<rect x="294.6" y="225" fill="#A6CB65" width="4.7" height="35"/>
<path fill="#477637" d="M300.2,238.8v5.7c0,0,8.8,6.4,13.8,16.2c0,0,2.2-0.8,4.2-2.9c0,0-3.5-6.9-9.4-12.1c0,0,5.3,2.7,10.3,11
	c0,0,0.6-1.2,0.7-1.6c0,0-8.4-11.7-18.2-13.5c0,0,10.3-2.7,15.6-11l-0.2-0.8c0,0-4.8,7.1-12.3,10.3c0,0,5.2-2.3,12.1-11.4l-0.5-1
	c0,0-3.5,5.1-7.6,8.2c0,0,6.3-7.2,7.3-8.8c0,0-1.1-1.8-2.7-2.7C313.2,224.4,307.5,233.4,300.2,238.8z"/>
<rect x="319.3" y="244.4" fill="#A6CB65" width="12.9" height="3.3"/>
<polygon fill="#A6CB65" points="333.3,230.3 340.7,226.2 344.7,226.2 344.7,260 340.2,260 340.2,230.6 334.2,233.9 "/>
<path fill="#A6CB65" d="M353.8,232.5c0,0,3.8-3.8,9.1-2.8c5.3,1,5,7,3.9,10c-1.2,3-4.7,7.5-7.4,9.7l-8,7.8v2.8h21.6v-3.8h-15.1
	c0,0,6.6-6.1,10.6-11c3.9-4.9,4.6-10.6,2.9-14.2c-1.8-3.6-5.6-6-11.5-5.2c0,0-3.7,0.4-7.5,3.4L353.8,232.5z"/>
<path fill="#DDFAF7" d="M265.4,396.8c0,0.2,0,0.4,0,0.6v4.3c0,0.3,0.1,0.4,0.4,0.4h0.8c0.2,0,0.4-0.1,0.4-0.4v-6.7
	c0-0.3-0.1-0.4-0.4-0.4H265c-0.2,0-0.3,0.1-0.4,0.4l-1.4,4.6c-0.1,0.2-0.1,0.4-0.1,0.5c0,0.1,0,0.3-0.1,0.5h0c0-0.2,0-0.3-0.1-0.5
	c0-0.1-0.1-0.3-0.1-0.5l-1.4-4.6c-0.1-0.3-0.2-0.4-0.4-0.4h-1.5c-0.2,0-0.4,0.1-0.4,0.4v6.7c0,0.3,0.1,0.4,0.4,0.4h0.8
	c0.2,0,0.4-0.1,0.4-0.4v-4.3c0-0.2,0-0.4,0-0.6h0l1.5,4.9c0.1,0.3,0.2,0.4,0.4,0.4h0.9c0.2,0,0.4-0.1,0.4-0.4L265.4,396.8
	L265.4,396.8z M270.9,402.3c0.9,0,1.6-0.3,2-0.8c0.5-0.5,0.7-1.2,0.7-2.1c0-0.9-0.2-1.6-0.7-2.1c-0.5-0.5-1.1-0.8-2-0.8
	c-0.9,0-1.6,0.3-2,0.8c-0.5,0.5-0.7,1.2-0.7,2.1c0,0.9,0.2,1.6,0.7,2.1C269.3,402,270,402.3,270.9,402.3z M270,398
	c0.2-0.3,0.5-0.4,0.9-0.4c0.4,0,0.7,0.1,0.9,0.4c0.2,0.3,0.3,0.7,0.3,1.4c0,0.7-0.1,1.1-0.3,1.4c-0.2,0.3-0.5,0.4-0.9,0.4
	c-0.4,0-0.7-0.1-0.9-0.4c-0.2-0.3-0.3-0.7-0.3-1.4C269.7,398.8,269.8,398.3,270,398z M277.6,397.7c0.2,0.1,0.3,0,0.3-0.1l0.1-0.6
	c0-0.1,0-0.2-0.1-0.3c-0.1,0-0.3-0.1-0.5-0.1c-0.3,0-0.5,0.1-0.8,0.3c-0.2,0.2-0.4,0.4-0.5,0.6V397c0-0.2-0.1-0.3-0.3-0.3H275
	c-0.2,0-0.3,0.1-0.3,0.3v4.9c0,0.2,0.1,0.3,0.3,0.3h0.8c0.2,0,0.3-0.1,0.3-0.3V400c0-0.8,0.1-1.3,0.3-1.8c0.2-0.4,0.5-0.6,0.8-0.6
	C277.4,397.6,277.5,397.6,277.6,397.7z M283.3,401.1l-0.5-0.3c-0.2-0.1-0.3-0.1-0.4,0.1c-0.1,0.1-0.2,0.2-0.4,0.3
	c-0.2,0.1-0.4,0.1-0.7,0.1c-0.3,0-0.6-0.1-0.8-0.2c-0.2-0.1-0.4-0.5-0.4-1.1h3.4c0.2,0,0.3-0.1,0.3-0.3c0-1.1-0.2-1.8-0.7-2.3
	c-0.5-0.5-1.1-0.7-2.1-0.7c-0.8,0-1.4,0.3-1.9,0.8c-0.4,0.5-0.7,1.2-0.7,2.1c0,0.9,0.2,1.6,0.6,2.1c0.4,0.5,1.1,0.8,2.1,0.8
	c0.6,0,1.1-0.1,1.4-0.2c0.3-0.1,0.5-0.3,0.7-0.6C283.6,401.3,283.5,401.2,283.3,401.1z M280.4,398c0.2-0.2,0.5-0.3,0.8-0.3
	c0.4,0,0.7,0.1,0.9,0.4c0.2,0.2,0.3,0.5,0.3,0.9h-2.3C280.1,398.5,280.2,398.2,280.4,398z M262.5,409.2c-0.2-0.2-0.5-0.3-0.8-0.5
	c-0.3-0.1-0.5-0.2-0.8-0.3c-0.3-0.1-0.6-0.2-1-0.3c-0.1,0-0.2-0.1-0.4-0.1c-0.1-0.1-0.2-0.1-0.3-0.3c-0.1-0.1-0.1-0.3-0.1-0.5
	c0-0.2,0.1-0.4,0.2-0.5c0.1-0.1,0.3-0.2,0.5-0.3c0.2,0,0.4-0.1,0.6-0.1c0.3,0,0.6,0.1,0.8,0.2c0.3,0.1,0.5,0.2,0.6,0.3
	c0.2,0.2,0.4,0.1,0.6,0l0.4-0.6c0.1-0.1,0.1-0.3-0.2-0.5c-0.2-0.2-0.6-0.3-1-0.5c-0.4-0.1-0.9-0.2-1.3-0.2c-0.4,0-0.8,0-1.2,0.1
	c-0.4,0.1-0.8,0.3-1.1,0.7c-0.3,0.3-0.5,0.8-0.5,1.2c0,0.4,0.1,0.7,0.2,1c0.1,0.2,0.3,0.5,0.6,0.6s0.5,0.3,0.8,0.5
	c0.3,0.1,0.7,0.2,1,0.3c0.3,0.1,0.6,0.2,0.8,0.3c0.1,0.1,0.2,0.1,0.4,0.2c0.1,0.1,0.2,0.2,0.3,0.3c0.1,0.1,0.1,0.3,0.1,0.4
	c0,0.2-0.1,0.4-0.2,0.6c-0.1,0.2-0.3,0.3-0.5,0.3c-0.2,0.1-0.5,0.1-0.7,0.1c-0.3,0-0.7-0.1-1-0.2c-0.3-0.1-0.6-0.3-0.8-0.4
	c-0.3-0.2-0.4-0.2-0.6,0l-0.4,0.6c-0.1,0.2-0.1,0.3,0.2,0.5c0.3,0.3,0.7,0.4,1.1,0.6c0.4,0.1,0.9,0.2,1.5,0.2c0.4,0,0.8-0.1,1.3-0.2
	c0.4-0.1,0.8-0.3,1.2-0.7c0.4-0.4,0.5-0.8,0.5-1.4c0-0.4-0.1-0.7-0.2-1C262.8,409.6,262.6,409.3,262.5,409.2z M266.6,407.3
	c-0.9,0-1.6,0.3-2,0.8c-0.5,0.5-0.7,1.2-0.7,2.1c0,0.9,0.2,1.6,0.7,2.1c0.5,0.5,1.1,0.8,2,0.8c0.9,0,1.6-0.3,2-0.8
	c0.5-0.5,0.7-1.2,0.7-2.1c0-0.9-0.2-1.6-0.7-2.1C268.2,407.5,267.5,407.3,266.6,407.3z M267.5,411.5c-0.2,0.3-0.5,0.4-0.9,0.4
	c-0.4,0-0.7-0.1-0.9-0.4c-0.2-0.3-0.3-0.7-0.3-1.4c0-0.7,0.1-1.1,0.3-1.4c0.2-0.3,0.5-0.4,0.9-0.4c0.4,0,0.7,0.1,0.9,0.4
	c0.2,0.3,0.3,0.7,0.3,1.4C267.8,410.8,267.7,411.3,267.5,411.5z M272.9,407.3c-0.9,0-1.6,0.3-2,0.8c-0.5,0.5-0.7,1.2-0.7,2.1
	c0,0.9,0.2,1.6,0.7,2.1c0.5,0.5,1.1,0.8,2,0.8c0.9,0,1.6-0.3,2-0.8c0.5-0.5,0.7-1.2,0.7-2.1c0-0.9-0.2-1.6-0.7-2.1
	C274.5,407.5,273.8,407.3,272.9,407.3z M273.8,411.5c-0.2,0.3-0.5,0.4-0.9,0.4c-0.4,0-0.7-0.1-0.9-0.4c-0.2-0.3-0.3-0.7-0.3-1.4
	c0-0.7,0.1-1.1,0.3-1.4c0.2-0.3,0.5-0.4,0.9-0.4c0.4,0,0.7,0.1,0.9,0.4c0.2,0.3,0.3,0.7,0.3,1.4C274.1,410.8,274,411.3,273.8,411.5z
	 M279.7,407.3c-0.4,0-0.6,0.1-0.9,0.2c-0.2,0.1-0.5,0.3-0.6,0.6v-0.3c0-0.2-0.1-0.3-0.3-0.3h-0.8c-0.2,0-0.3,0.1-0.3,0.3v4.9
	c0,0.2,0.1,0.3,0.3,0.3h0.8c0.2,0,0.3-0.1,0.3-0.3v-2.1c0-0.9,0.1-1.5,0.3-1.8s0.5-0.4,0.8-0.4c0.3,0,0.6,0.1,0.7,0.3
	c0.1,0.2,0.2,0.7,0.2,1.4v2.5c0,0.2,0.1,0.3,0.3,0.3h0.8c0.2,0,0.3-0.1,0.3-0.3v-2.9c0-0.9-0.2-1.5-0.5-1.9
	C280.7,407.5,280.3,407.3,279.7,407.3z M283.3,405.8l0.1,4.6c0,0.2,0.1,0.3,0.3,0.3h0.6c0.2,0,0.3-0.1,0.3-0.3l0.1-4.6
	c0-0.3-0.1-0.4-0.4-0.4h-0.8C283.4,405.4,283.3,405.5,283.3,405.8z M284.5,411.4h-0.8c-0.2,0-0.4,0.1-0.4,0.4v0.7
	c0,0.3,0.1,0.4,0.4,0.4h0.8c0.2,0,0.4-0.1,0.4-0.4v-0.7C284.8,411.5,284.7,411.4,284.5,411.4z"/>
<path fill="#DA1D00" d="M660.7,302.2v-24.9c0-1.7-1-3.3-2.5-4l-13.7-6.6c-1.2-0.6-2-1.6-2.4-2.8c-2.1-7.4-5.1-14.4-8.9-21
	c-0.7-1.2-0.8-2.7-0.3-4l5.9-14.4c0.7-1.7,0.3-3.6-1-4.8l-18.2-18.2c-1.2-1.2-3-1.6-4.7-1l-16.3,5.9c-1.2,0.4-2.5,0.3-3.6-0.3
	c-6-3.2-12.3-5.8-19-7.7c-1.3-0.4-2.3-1.3-2.9-2.5l-7.1-16.3c-0.7-1.6-2.3-2.7-4.1-2.7h-25.8c-1.9,0-3.6,1.2-4.2,3l-5.1,15
	c-0.5,1.4-1.6,2.5-3.1,2.9c-7.8,2-15.3,5-22.2,8.8l0,0l-17.2-6.1c-1.6-0.6-3.4-0.2-4.6,1l-19.3,18.8c-1.3,1.3-1.7,3.3-1,5l5.5,12.7
	c0.6,1.3,0.5,2.8-0.2,4c-4.1,6.9-7.3,14.4-9.6,22.3c-0.4,1.3-1.2,2.3-2.4,2.9L440,273c-1.6,0.7-2.6,2.3-2.6,4v24.2
	c0,1.6,0.9,3.1,2.3,3.9l13.4,7.4c1,0.6,1.8,1.6,2.1,2.7c2.2,7.8,5.5,15.2,9.5,22.1c0.7,1.2,0.8,2.8,0.2,4.1l-5.5,12.3
	c-0.8,1.7-0.4,3.6,0.9,5l18.6,18.9c1.2,1.2,3.1,1.7,4.7,1.1l15.4-5.6c1.2-0.4,2.5-0.3,3.7,0.3c5.9,3.1,12.2,5.7,18.8,7.6
	c1.3,0.4,2.3,1.2,2.8,2.4l7,15.3c0.7,1.6,2.3,2.6,4.1,2.6h25.8c1.8,0,3.4-1,4.1-2.7l6.6-14.8c0.5-1.2,1.6-2.1,2.9-2.5
	c7.2-2,14.1-4.7,20.5-8.2c1.2-0.6,2.5-0.7,3.8-0.2l14.7,5.8c1.6,0.6,3.5,0.3,4.7-0.9l19.4-18.7c1.3-1.2,1.7-3.1,1.1-4.7l-5.5-15.3
	c-0.4-1.2-0.3-2.6,0.3-3.7c3.3-6,6.1-12.4,8-19.1c0.4-1.2,1.2-2.2,2.3-2.8l14.2-7.2C659.8,305.5,660.7,303.9,660.7,302.2z"/>
<ellipse fill="#FF6152" cx="548.7" cy="289.6" rx="77" ry="75.5"/>
<path fill="#FFFFFF" d="M518.2,260.6v58.2c0,2.8,2.3,5.1,5.1,5.1h29.1v-34.2l25.5-25.5c3.2-3.2,0.9-8.7-3.6-8.7h-51
	C520.5,255.6,518.2,257.8,518.2,260.6"/>
<path fill="#DBE0DF" d="M552.4,289.7l25.5,25.5c3.2,3.2,0.9,8.7-3.6,8.7h-46.2c-3.7,0-5.5-4.4-2.9-7L552.4,289.7z"/>
</svg>
