<?xml version="1.0" encoding="utf-8"?>
<!-- Generator: Adobe Illustrator 19.2.0, SVG Export Plug-In . SVG Version: 6.00 Build 0)  -->
<svg version="1.1" id="Layer_1" xmlns="http://www.w3.org/2000/svg" xmlns:xlink="http://www.w3.org/1999/xlink" x="0px" y="0px"
	 viewBox="0 0 688 670" enable-background="new 0 0 688 670" xml:space="preserve">
<rect x="0" fill="none" width="688" height="670"/>
<path fill="#F7F6FF" d="M503.5,497c99-126.6-100.2-495.4-229.8-341.3C149,304.2,123.5,178.1,59.7,218
	c-41.7,26.1-23.4,166,55.6,253.7c114.5,127.2,236.4,102.1,227.1,3.7C327,312,431.6,588.9,503.5,497z"/>
<path fill="#FF6152" d="M151,308l-35.5-2.8c23.3-30.1,82-57.3,165.4-57.3c87.7,0,140.8,23.1,168.8,40.9c2.7,1.7,5.6-1.9,3.2-4.1
	c-27.4-24.1-83-57.4-180.8-57.4C154.9,227.3,89.5,265.1,70,300c-0.3,0.5-0.5,1-0.7,1.5l-37.5-3c-2.6-0.2-3.9,2.9-1.9,4.5L79,343.1
	c0.8,0.6,1.8,0.8,2.8,0.4l70.1-30.6C154.4,311.8,153.7,308.2,151,308z"/>
<path fill="#FF6152" d="M536.9,368.4l-49.1-40.1c-0.8-0.6-1.8-0.8-2.8-0.4l-70.1,30.6c-2.5,1.1-1.9,4.7,0.9,4.9l35.5,2.8
	c-23.3,30.1-82,57.3-165.4,57.3c-87.7,0-140.8-23.1-168.8-40.9c-2.7-1.7-5.6,1.9-3.2,4.1c27.4,24.1,83,57.4,180.8,57.4
	c117.2,0,182.6-37.8,202.1-72.7c0.3-0.5,0.5-1,0.7-1.5l37.5,3C537.5,373.2,538.8,370,536.9,368.4z"/>
<g>
	<circle fill="#4E9FC7" cx="371.5" cy="421.1" r="65.3"/>
	<g>
		<path fill-rule="evenodd" clip-rule="evenodd" fill="#FFFFFF" d="M353,430.9c1.1,0.3,2.2,0.6,3.3,0.8c0.9,0.1,1.9,0.1,2.8-0.1
			c1.7-0.4,2.6-1.7,2.7-3.4c0-0.4,0-0.9,0-1.3c-0.2,0-0.2,0-0.3,0c-1.9,1.9-4.3,2-6.6,1.1c-2.4-0.9-3.6-2.8-4.1-5.2
			c-0.4-1.9-0.3-3.9,0.4-5.7c1.6-4.3,7.3-5.6,10.6-2.4c0.1,0.1,0.2,0.1,0.3,0.2c0.5-1.3,0.8-1.5,2.2-1.5c2,0,4.1,0,6.1,0
			c1.9,0,2.6,0.6,2.4,2.4c0,0.2,0,0.4,0,0.5c0.8-0.8,1.5-1.7,2.3-2.4c0.9-0.7,2-0.9,3.3-0.7c0,1.1,0,2.2,0,3.4
			c0,0.5-0.4,0.3-0.7,0.3c-2.2,0-3.9,1.3-4.4,3.4c-0.2,0.6-0.2,1.2-0.3,1.8c0,1.9,0,3.8,0,5.8c0,0.2,0,0.5,0,0.8c-1.3,0-2.5,0-3.8,0
			c0-0.1-0.1-0.2-0.1-0.4c0-3.5,0-6.9,0-10.4c0-1.3-0.1-1.4-1.4-1.4c-2.5,0-2.2-0.1-2.2,2.2c0,2.9,0,5.9,0,8.8
			c0,4.2-2.1,6.7-6.2,7.4c-2.4,0.4-4.7,0-7-0.9c-0.3-0.1-0.5-0.2-0.3-0.6C352.3,432.5,352.7,431.7,353,430.9z M354.2,420.5
			c0.2,0.8,0.3,1.6,0.5,2.3c0.6,1.6,2,2.4,3.7,2.3c1.5-0.1,2.7-1.1,3.1-2.7c0.3-1.2,0.3-2.5,0-3.7c-0.7-2.4-3.8-3.4-5.8-1.8
			C354.6,417.8,354.3,419.1,354.2,420.5z"/>
		<path fill-rule="evenodd" clip-rule="evenodd" fill="#FFFFFF" d="M405.5,414.5c0-1.2,0-2.4,0-3.5c0-0.5-0.5-0.5-0.9-0.5
			c-0.9-0.1-0.9-0.1-0.9-1c0-0.6,0-1.2,0-1.8c0-0.4,0.1-0.5,0.5-0.5c1.2,0,2.4,0,3.6,0c0.9,0,1.4,0.5,1.6,1.4c0.1,0.3,0.1,0.7,0.1,1
			c0,4.9,0,9.7,0,14.6c0,1.1,0.1,1.2,1.2,1.2c0.5,0,0.7,0.1,0.7,0.7c0,0.7,0,1.4,0,2.1c0,0.4-0.1,0.6-0.5,0.5c-1,0-2,0-2.9,0
			c-1.4-0.1-1.7-0.3-2.1-1.8c-0.1,0.1-0.2,0.1-0.3,0.2c-2.3,2.9-8,2.7-10.1-1.2c-1.7-3.2-1.7-6.5,0-9.7c1.9-3.5,6.9-4.4,9.9-1.8
			C405.2,414.4,405.3,414.4,405.5,414.5z M405.6,421.1c0.1,0,0.1,0,0.2-0.1c-0.3-1-0.5-1.9-0.9-2.8c-0.6-1.2-1.6-1.9-3-2
			c-1.4,0-2.5,0.6-3.2,1.8c-1.1,2-1.1,4.1,0.1,6.1c1.3,2.3,4.6,2.3,6,0.1C405.4,423.2,405.6,422.2,405.6,421.1z"/>
		<path fill-rule="evenodd" clip-rule="evenodd" fill="#FFFFFF" d="M337.7,415.7c0.2-0.2,0.3-0.3,0.4-0.4c1.7-2.3,4.6-2.9,7.1-2.1
			c1.9,0.5,2.8,1.9,3,3.7c0.2,1.7,0.1,3.4,0.2,5.1c0,0.8,0,1.7,0,2.5c0,0.6,0.3,0.9,0.9,0.9c1.1,0,1-0.1,1,1c0,0.6,0,1.2,0,1.8
			c0,0.2-0.3,0.5-0.4,0.5c-1.2,0-2.4,0-3.6-0.1c-1.2-0.1-1.6-0.6-1.6-1.8c0-2.4,0-4.7,0-7.1c0-0.6-0.1-1.2-0.2-1.8
			c-0.3-1-0.9-1.5-2-1.6c-2.3-0.1-4.3,1.5-4.5,4c-0.2,2.2-0.1,4.3-0.1,6.5c0,1.9,0,1.9-1.9,1.9c-1.9,0-1.9,0-1.9-1.9
			c0-3.1,0-6.1,0-9.2c0-1-0.1-1.2-1.1-1.2c-0.5,0-0.8-0.1-0.8-0.7c0-0.7,0-1.4,0-2.1c0-0.2,0.3-0.5,0.4-0.5c1.2,0,2.3-0.1,3.5,0
			c1.2,0.1,1.6,0.6,1.7,1.8C337.6,415.3,337.7,415.4,337.7,415.7z"/>
		<path fill-rule="evenodd" clip-rule="evenodd" fill="#FFFFFF" d="M388.4,426.7c-0.2,0.2-0.3,0.3-0.4,0.5c-1.9,2.3-5.8,2.6-8,0.5
			c-2.3-2.2-1.7-5.8,1-7.3c2-1,4.1-1.3,6.2-1.3c1,0,1.1-0.1,0.9-1.1c-0.3-1.3-1-2-2.3-2c-0.5,0-1,0-1.4,0.1
			c-0.7,0.1-1.1,0.5-1.1,1.3c0,0.4-0.2,0.5-0.5,0.5c-0.8,0-1.6,0-2.5,0c-0.4,0-0.5-0.2-0.6-0.6c-0.2-2.4,0.5-3.4,2.8-3.9
			c2-0.5,4-0.5,6,0.1c2.1,0.7,3.2,2.2,3.4,4.2c0.2,2.2,0.1,4.5,0.2,6.7c0,1.1,0.1,1.2,1.1,1.1c0.6,0,0.8,0.2,0.7,0.7
			c0,0.7,0,1.4,0,2.1c0,0.2-0.3,0.5-0.4,0.5c-1,0-2.1,0.1-3.1,0C389,428.6,388.7,428.3,388.4,426.7z M387.3,421.5
			c-0.1,0-0.1,0-0.2,0c-1.2,0.3-2.5,0.5-3.6,0.9c-1.4,0.6-1.5,2.3-0.4,3.2c0.6,0.5,1.3,0.6,2.1,0.4c1.6-0.4,2.5-1.6,2.9-3.2
			C388.4,421.7,388.4,421.5,387.3,421.5z"/>
		<path fill-rule="evenodd" clip-rule="evenodd" fill="#FFFFFF" d="M415.4,421.6c0,2,1.5,3.6,3.5,4.1c1.4,0.3,2.6,0,5.4-1.6
			c0.5,0.8,1,1.7,1.6,2.6c-1.2,1.1-2.6,1.7-4.1,2.1c-2.1,0.5-4.2,0.3-6.1-0.7c-3.1-1.5-4.6-5-4.2-8.2c0.2-1.4,0.6-2.7,1.4-3.9
			c2.6-3.9,8.9-4.3,11.7-0.8c1.4,1.7,1.7,3.8,1.5,6c0,0.5-0.4,0.4-0.7,0.4c-3,0-6,0-9.1,0C416,421.6,415.7,421.6,415.4,421.6z
			 M418.7,419L418.7,419c0.9,0,1.8,0,2.7,0c0.6,0,0.8-0.2,0.6-0.8c-0.4-1.5-1.5-2.4-3-2.3c-1.6,0-3.1,1.2-3.4,2.6
			c-0.1,0.4,0.1,0.5,0.5,0.5C417,419,417.9,419,418.7,419z"/>
		<path fill-rule="evenodd" clip-rule="evenodd" fill="#FFFFFF" d="M329.9,424.1c0.5,0.8,1,1.6,1.4,2.4c0.1,0.1,0,0.5-0.2,0.5
			c-2.7,2-5.7,2.6-8.9,1.5c-3-1-4.8-3.3-5.2-6.4c-0.8-6.5,4.2-10.5,10.1-8.9c2.7,0.8,4,2.9,4.4,5.5c0.1,0.7,0.1,1.4,0.1,2.1
			c0,0.6-0.2,0.8-0.8,0.7c-3,0-5.9,0-8.9,0c-0.3,0-0.5,0-0.9,0c0.1,1.4,0.7,2.5,1.7,3.2C325.2,426.6,327.6,425.7,329.9,424.1z
			 M321.2,418.9c0.3,0,0.5,0,0.7,0c1.7,0,3.4,0,5.1,0c0.7,0,0.8-0.1,0.6-0.9c-0.4-1.5-1.6-2.3-3.2-2.2
			C322.8,416,321.4,417.3,321.2,418.9z"/>
	</g>
</g>
<g>
	<circle fill="#FFD21B" cx="321.4" cy="251.7" r="64.8"/>
	<path fill="#FFFFFF" d="M356.9,228.8c0,0-1.4-11.8-36.6-11.8S286,228.8,286,228.8l1.3,47.3l22.5,8.5l11.7,11.5l11.4-11.5l22.8-8.5
		L356.9,228.8z"/>
	<g>
		<path fill="#3D93C6" d="M321.4,214.7c0,0-15.4-0.5-26.2,2.6c-10.7,3.1-11.4,12.2-12.7,23.1c0,0-1.3,21.7,2.5,32.2
			c0,0,0.7,8.3,9,10.4c8.3,2.1,13,2.3,13,2.3l14.3,14v-6.3L311,282.5c0,0-1-1.6-3.1-1.8c-2.1-0.2-16.6-0.5-18.5-9.6
			c-2-9.1-3.1-19.8-1.6-33.5c1.5-13.7,6.8-16.3,14.1-17.2c7.3-1,19.5-1.5,19.5-1.5V214.7z"/>
		<path fill="#3D93C6" d="M310.4,232.4c-6.7,0-12.2,5.5-12.2,12.3s5.5,12.3,12.2,12.3c6.7,0,12.2-5.5,12.2-12.3
			S317.1,232.4,310.4,232.4z M310.6,253.7c-5,0-9-4-9-8.9c0-4.9,4-8.9,9-8.9c5,0,9,4,9,8.9C319.6,249.7,315.6,253.7,310.6,253.7z"/>
		<rect x="285.9" y="241.3" fill="#3D93C6" width="12.9" height="4.9"/>
		<ellipse fill="#3D93C6" cx="311.3" cy="247.5" rx="3.2" ry="3.5"/>
		<g>
			<path fill="#3D93C6" d="M321.3,271.1c-8.8,0-12.2-5.5-12.4-5.7c-0.5-0.8-0.2-1.9,0.6-2.3c0.8-0.5,1.8-0.2,2.3,0.6
				c0.1,0.2,2.6,4.1,9.4,4.1c0.9,0,1.7,0.8,1.7,1.7C323,270.3,322.2,271.1,321.3,271.1z"/>
		</g>
	</g>
	<g>
		<path fill="#3D93C6" d="M321.4,214.7c0,0,15.4-0.5,26.2,2.6c10.7,3.1,11.4,12.2,12.7,23.1c0,0,1.3,21.7-2.5,32.2
			c0,0-0.7,8.3-9,10.4c-8.3,2.1-13,2.3-13,2.3l-14.3,14v-6.3l10.4-10.4c0,0,1-1.6,3.1-1.8c2.1-0.2,16.6-0.5,18.5-9.6
			c2-9.1,3.1-19.8,1.6-33.5c-1.5-13.7-6.8-16.3-14.1-17.2c-7.3-1-19.5-1.5-19.5-1.5V214.7z"/>
		<path fill="#3D93C6" d="M320.3,244.7c0,6.8,5.5,12.3,12.2,12.3s12.2-5.5,12.2-12.3s-5.5-12.3-12.2-12.3S320.3,237.9,320.3,244.7z
			 M323.2,244.8c0-4.9,4-8.9,9-8.9c5,0,9,4,9,8.9c0,4.9-4,8.9-9,8.9C327.2,253.7,323.2,249.7,323.2,244.8z"/>
		<rect x="344.1" y="241.3" fill="#3D93C6" width="12.9" height="4.9"/>
		<ellipse fill="#3D93C6" cx="331.6" cy="247.5" rx="3.2" ry="3.5"/>
		<g>
			<path fill="#3D93C6" d="M321.6,271.1c-0.9,0-1.7-0.8-1.7-1.7c0-0.9,0.8-1.7,1.7-1.7c6.9,0,9.4-4,9.4-4c0.5-0.8,1.5-1.1,2.3-0.6
				c0.8,0.5,1.1,1.5,0.6,2.3C333.8,265.6,330.4,271.1,321.6,271.1z"/>
		</g>
	</g>
</g>
<g>
	<circle fill="#4593CA" cx="188.1" cy="242.5" r="52.1"/>
	<path fill="#FFFFFF" d="M188.1,206.3c-19.9,0-36.2,16.2-36.2,36.2s16.2,36.2,36.2,36.2c19.9,0,36.2-16.2,36.2-36.2
		S208.1,206.3,188.1,206.3z M188.1,273.8c-17.3,0-31.3-14-31.3-31.3s14-31.3,31.3-31.3c17.3,0,31.3,14,31.3,31.3
		S205.4,273.8,188.1,273.8z M184,237.2c-7.8-2-6.3-11.8,4.1-11c10.4,0.8,9.6,9,9.6,9l7.8-1.1c-2.1-13.7-17.4-13.6-17.4-13.6
		c-14.8,0.5-16.1,8.2-16.5,13.1c-0.4,4.9,4.5,9.8,16.5,11.6c12,1.8,11.1,6.1,10.3,9.2c-0.8,3.2-7.3,5.9-14.1,4
		c-6.8-1.9-6.4-10-6.4-10l-7.8,1.4c0.5,6.6,5.2,14.7,18.1,14.8c12.9,0.1,16.9-6.8,17.8-10.3c0.9-3.5-0.5-7.3-0.5-7.3
		C202.3,240.1,191.8,239.2,184,237.2z"/>
</g>
<g>
	<circle fill="#FFFFFF" cx="215.1" cy="400.2" r="64.1"/>
	<g>
		<path fill-rule="evenodd" clip-rule="evenodd" fill="#3073EF" d="M180.9,408.1c-0.1,0-0.1,0-0.2,0c-0.1,0-0.2,0-0.4,0
			c-0.4,0-0.8,0-1.2,0c-0.1,0-0.2,0-0.4,0c-0.1,0-0.1,0-0.2,0c-0.1,0-0.1,0-0.2,0c0,0-0.1,0-0.1,0c-0.1,0-0.1,0-0.2,0
			c-5.8-0.7-10.4-5.3-11.1-11.1c0-0.1,0-0.2,0-0.2c0,0,0-0.1,0-0.1c0-0.1,0-0.2,0-0.3c0,0,0,0,0-0.1c0-0.1,0-0.3,0-0.4
			c0-0.3,0-0.6,0-0.8c0-0.1,0-0.3,0-0.4c0,0,0,0,0-0.1c0-0.1,0-0.2,0-0.3c0-0.1,0-0.1,0-0.2c0-0.1,0-0.1,0-0.2
			c0.1-0.9,0.3-1.8,0.6-2.7c0.4-1.2,1-2.3,1.8-3.3c0.5-0.6,1-1.2,1.5-1.7c0.6-0.6,1.3-1.1,2.1-1.6c1.2-0.7,2.5-1.3,3.9-1.5
			c0.4-0.1,0.8-0.1,1.1-0.2c0.1,0,0.1,0,0.2,0c0,0,0.1,0,0.1,0c0.1,0,0.2,0,0.2,0c0.1,0,0.1,0,0.2,0c0.1,0,0.2,0,0.3,0
			c0.5,0,0.9,0,1.4,0c0.1,0,0.2,0,0.3,0c0.1,0,0.1,0,0.2,0c0.1,0,0.2,0,0.2,0c0,0,0.1,0,0.1,0c0.1,0,0.1,0,0.2,0
			c0.6,0.1,1.2,0.2,1.7,0.4c1.6,0.4,3,1.1,4.3,2.1c0.3,0.2,0.6,0.5,1,0.8c-0.2,0.2-0.4,0.4-0.6,0.7c-0.6,0.6-1.1,1.1-1.7,1.7
			c-0.2,0.2-0.2,0.2-0.4,0c-0.6-0.6-1.3-1-2.1-1.4c-0.7-0.3-1.4-0.5-2.1-0.7c-0.2,0-0.4-0.1-0.6-0.1c-0.1,0-0.1,0-0.2,0
			c0,0-0.1,0-0.1,0c-0.1,0-0.2,0-0.3,0c-0.1,0-0.2,0-0.3,0c-0.1,0-0.3,0-0.4,0c-0.1,0-0.3,0-0.5,0c-0.1,0-0.2,0-0.3,0
			c-0.6,0-1.1,0.1-1.7,0.3c-1.3,0.4-2.4,1-3.4,1.8c-1.4,1.2-2.3,2.6-2.9,4.3c-0.2,0.6-0.3,1.1-0.3,1.7c0,0.1,0,0.2,0,0.2
			c0,0.1,0,0.1,0,0.2c0,0.4,0,0.8,0,1.2c0,0.1,0,0.1,0,0.2c0,0.1,0,0.2,0,0.2c0,0.5,0.1,1,0.3,1.5c0.3,1.2,0.9,2.3,1.7,3.3
			c0.7,0.9,1.6,1.7,2.7,2.3c1,0.5,2,0.9,3.1,1.1c0.1,0,0.1,0,0.2,0c0.1,0,0.1,0,0.2,0c0,0,0.1,0,0.1,0c0.1,0,0.2,0,0.3,0
			c0.2,0,0.3,0.1,0.5,0c0.1,0,0.2,0,0.3,0c0.1,0,0.2,0,0.3,0c0.1,0,0.2,0,0.3,0c0.1,0,0.1,0,0.2,0c0.1,0,0.1,0,0.2,0
			c0.6,0,1.1-0.2,1.6-0.4c0.9-0.3,1.7-0.7,2.5-1.2c0.3-0.2,0.6-0.5,0.9-0.7c0.4-0.4,0.8-0.9,1.1-1.5c0.4-0.7,0.6-1.4,0.8-2.2
			c0-0.2,0-0.4,0.1-0.5c0-0.1,0-0.2,0-0.2c0-0.1,0,0-0.1,0c-0.9,0-1.7,0-2.6,0c-0.1,0-0.1,0-0.2,0c-1.3,0-2.7,0-4,0
			c-0.1,0-0.1,0-0.2,0c-0.4,0-0.8,0-1.1,0c0,0,0-0.1,0-0.2c0-1,0-2.1,0-3.1c0-0.1,0-0.2,0.2-0.2c3.8,0,7.6,0,11.3,0
			c0.1,0,0.1,0,0.2,0c0,0.1,0,0.2,0,0.2c0,0.1,0,0.1,0,0.2c0,0,0,0.1,0,0.1c0,0.1,0,0.2,0,0.2c0,0.1,0,0.1,0,0.2c0,0.1,0,0.2,0,0.4
			c0,0.2,0,0.3,0,0.5c0,0.1,0,0.3,0,0.4c0,0.2,0,0.3,0,0.5c0,0.1,0,0.2,0,0.3c0,0.1,0,0.1,0,0.2c0,0.1,0,0.2,0,0.2c0,0,0,0.1,0,0.1
			c0,0.1,0,0.1,0,0.2c-0.1,0.6-0.2,1.1-0.3,1.7c-0.4,1.5-1.1,2.9-2.1,4.2c-1.1,1.3-2.5,2.3-4,3.1c-0.9,0.4-1.8,0.7-2.8,0.9
			c-0.3,0.1-0.5,0.1-0.8,0.1c-0.1,0-0.1,0-0.2,0c0,0-0.1,0-0.1,0C181,408.1,180.9,408.1,180.9,408.1z"/>
		<path fill-rule="evenodd" clip-rule="evenodd" fill="#269841" d="M246.3,383.6c0,0,0.1,0,0.1,0c1.1,0,2.2,0,3.3,0
			c0.1,0,0.2,0,0.2,0.2c0,7.9,0,15.8,0,23.7c0,0.1,0,0.2-0.1,0.2c-1.1,0-2.3,0-3.4,0c0,0,0,0-0.1,0c0-0.1,0-0.1,0-0.2
			c0-7.9,0-15.7,0-23.6C246.2,383.7,246.2,383.7,246.3,383.6z"/>
		<path fill-rule="evenodd" clip-rule="evenodd" fill="#269841" d="M246.3,383.6c0,0.1,0,0.1,0,0.2c0,7.9,0,15.7,0,23.6
			c0,0.1,0,0.1,0,0.2c-0.1-0.1,0-0.1,0-0.2c0-7.9,0-15.7,0-23.6C246.2,383.7,246.2,383.7,246.3,383.6z"/>
		<path fill-rule="evenodd" clip-rule="evenodd" fill="#3073EF" d="M243.8,408.2c0-2,0-4,0-6c0-3.2,0-6.5,0-9.7c0-0.1,0-0.2,0-0.2
			c0.1,0,0,0.1,0,0.2c0,5.2,0,10.4,0,15.6C243.8,408.1,243.9,408.1,243.8,408.2z"/>
		<path fill-rule="evenodd" clip-rule="evenodd" fill="#3073EF" d="M191.4,394.3c-0.1,0-0.1,0-0.2,0c-3.8,0-7.5,0-11.3,0
			c-0.2,0-0.2,0.1-0.2,0.2c0,1,0,2,0,3c0,0.1,0,0.1,0,0.2c-0.1,0,0-0.1,0-0.2c0-1,0-2.1,0-3.1c0-0.2,0-0.2,0.2-0.2
			c3.8,0,7.6,0,11.3,0C191.2,394.3,191.3,394.3,191.4,394.3z"/>
		<path fill-rule="evenodd" clip-rule="evenodd" fill="#3073EF" d="M180.8,397.7c1.2,0,2.4,0,3.6,0c0.3,0,0.6,0,0.8,0
			c-1.4,0-2.8,0-4.3,0C180.9,397.8,180.9,397.8,180.8,397.7z"/>
		<path fill-rule="evenodd" clip-rule="evenodd" fill="#E43125" d="M192.6,399.4c0,0.4,0,0.8,0,1.1c-0.1-0.1,0-0.3,0-0.4
			C192.6,399.9,192.5,399.6,192.6,399.4z"/>
		<path fill-rule="evenodd" clip-rule="evenodd" fill="#3073EF" d="M170.6,396c0-0.4,0-0.8,0-1.2C170.6,395.3,170.6,395.7,170.6,396
			z"/>
		<path fill-rule="evenodd" clip-rule="evenodd" fill="#3073EF" d="M235.4,408.1c0.3,0,0.7,0,1,0
			C236.1,408.1,235.8,408.1,235.4,408.1z"/>
		<path fill-rule="evenodd" clip-rule="evenodd" fill="#3073EF" d="M228.1,399.6c0,0.2,0,0.4,0,0.7
			C228.1,400,228.1,399.8,228.1,399.6z"/>
		<path fill-rule="evenodd" clip-rule="evenodd" fill="#3073EF" d="M240.4,393c0,0.2,0,0.3,0,0.5c0,0,0,0.1-0.1,0
			c0.1-0.1,0-0.2,0-0.3C240.4,393.2,240.4,393.1,240.4,393z"/>
		<path fill-rule="evenodd" clip-rule="evenodd" fill="#3073EF" d="M166.8,395.9c0,0.1,0,0.3,0,0.4
			C166.8,396.2,166.9,396,166.8,395.9z"/>
		<path fill-rule="evenodd" clip-rule="evenodd" fill="#3073EF" d="M166.9,394.6c0,0.1,0,0.3,0,0.4
			C166.9,394.9,166.8,394.7,166.9,394.6z"/>
		<path fill-rule="evenodd" clip-rule="evenodd" fill="#F4AB00" d="M210.4,400.2c0,0.1,0,0.3,0,0.4
			C210.3,400.5,210.4,400.3,210.4,400.2z"/>
		<path fill-rule="evenodd" clip-rule="evenodd" fill="#F4AB00" d="M210.4,399.3c0,0.1,0,0.3,0,0.4
			C210.4,399.6,210.3,399.4,210.4,399.3z"/>
		<path fill-rule="evenodd" clip-rule="evenodd" fill="#F4AB00" d="M226.8,399.7c0-0.1,0-0.3,0-0.4
			C226.9,399.4,226.8,399.6,226.8,399.7z"/>
		<path fill-rule="evenodd" clip-rule="evenodd" fill="#3073EF" d="M191.5,396.5c0-0.1,0-0.3,0-0.4
			C191.6,396.3,191.6,396.4,191.5,396.5z"/>
		<path fill-rule="evenodd" clip-rule="evenodd" fill="#F4AB00" d="M226.8,400.6c0-0.1,0-0.3,0-0.4
			C226.8,400.3,226.9,400.5,226.8,400.6z"/>
		<path fill-rule="evenodd" clip-rule="evenodd" fill="#E43125" d="M200.6,408.2c0.1,0,0.3,0,0.4,0
			C200.9,408.2,200.7,408.2,200.6,408.2z"/>
		<path fill-rule="evenodd" clip-rule="evenodd" fill="#3073EF" d="M179.6,386.3c0.1,0,0.3,0,0.4,0
			C179.9,386.3,179.7,386.3,179.6,386.3z"/>
		<path fill-rule="evenodd" clip-rule="evenodd" fill="#F4AB00" d="M218.4,408.2c0.1,0,0.3,0,0.4,0
			C218.7,408.2,218.5,408.2,218.4,408.2z"/>
		<path fill-rule="evenodd" clip-rule="evenodd" fill="#3073EF" d="M191.5,395.7c0-0.1,0-0.2,0-0.4
			C191.5,395.4,191.5,395.5,191.5,395.7z"/>
		<path fill-rule="evenodd" clip-rule="evenodd" fill="#3073EF" d="M180.3,408.2c0.1,0,0.2,0,0.4,0
			C180.6,408.2,180.4,408.2,180.3,408.2z"/>
		<path fill-rule="evenodd" clip-rule="evenodd" fill="#E43125" d="M209,399.6c0-0.1,0-0.2,0-0.4C209.1,399.4,209,399.5,209,399.6z"
			/>
		<path fill-rule="evenodd" clip-rule="evenodd" fill="#3073EF" d="M178.8,408.1c0.1,0,0.2,0,0.4,0
			C179,408.2,178.9,408.2,178.8,408.1z"/>
		<path fill-rule="evenodd" clip-rule="evenodd" fill="#3073EF" d="M240.5,392.3c0,0.1,0,0.2,0,0.4
			C240.4,392.6,240.4,392.4,240.5,392.3z"/>
		<path fill-rule="evenodd" clip-rule="evenodd" fill="#3073EF" d="M240.5,406.3c0,0.1,0,0.2,0,0.3
			C240.4,406.6,240.5,406.4,240.5,406.3z"/>
		<path fill-rule="evenodd" clip-rule="evenodd" fill="#3073EF" d="M180,404.6c-0.1,0-0.2,0-0.3,0
			C179.8,404.6,179.9,404.6,180,404.6z"/>
		<path fill-rule="evenodd" clip-rule="evenodd" fill="#E43125" d="M209,400.6c0-0.1,0-0.2,0-0.3C209,400.4,209.1,400.5,209,400.6z"
			/>
		<path fill-rule="evenodd" clip-rule="evenodd" fill="#3073EF" d="M236.6,415.3c0.1,0,0.2,0,0.3,0
			C236.8,415.4,236.7,415.3,236.6,415.3z"/>
		<path fill-rule="evenodd" clip-rule="evenodd" fill="#3073EF" d="M191.5,397.4c0-0.1,0-0.2,0-0.3
			C191.5,397.2,191.5,397.3,191.5,397.4z"/>
		<path fill-rule="evenodd" clip-rule="evenodd" fill="#3073EF" d="M240.5,407.1c0,0.1,0,0.2,0,0.3
			C240.5,407.3,240.5,407.2,240.5,407.1z"/>
		<path fill-rule="evenodd" clip-rule="evenodd" fill="#3073EF" d="M179,382.8c-0.1,0-0.2,0-0.3,0
			C178.8,382.7,178.9,382.8,179,382.8z"/>
		<path fill-rule="evenodd" clip-rule="evenodd" fill="#3073EF" d="M180.7,382.8c-0.1,0-0.2,0-0.3,0
			C180.5,382.8,180.6,382.7,180.7,382.8z"/>
		<path fill-rule="evenodd" clip-rule="evenodd" fill="#3073EF" d="M235.2,415.3c0.1,0,0.2,0,0.3,0
			C235.4,415.3,235.3,415.4,235.2,415.3z"/>
		<path fill-rule="evenodd" clip-rule="evenodd" fill="#3073EF" d="M180.3,386.3c0.1,0,0.2,0,0.3,0
			C180.5,386.3,180.4,386.3,180.3,386.3z"/>
		<path fill-rule="evenodd" clip-rule="evenodd" fill="#3073EF" d="M236.2,412.2c-0.1,0-0.2,0-0.3,0
			C236,412.2,236.1,412.2,236.2,412.2z"/>
		<path fill-rule="evenodd" clip-rule="evenodd" fill="#3073EF" d="M179.2,404.6c-0.1,0-0.2,0-0.3,0
			C179,404.6,179.1,404.6,179.2,404.6z"/>
		<path fill-rule="evenodd" clip-rule="evenodd" fill="#3073EF" d="M235.7,412.2c-0.1,0-0.2,0-0.3,0
			C235.5,412.2,235.6,412.2,235.7,412.2z"/>
		<path fill-rule="evenodd" clip-rule="evenodd" fill="#3073EF" d="M240.5,407.8c0,0.1,0,0.2,0,0.3
			C240.5,408,240.4,407.9,240.5,407.8z"/>
		<path fill-rule="evenodd" clip-rule="evenodd" fill="#3073EF" d="M166.9,396.4c0,0.1,0,0.2,0,0.3
			C166.8,396.6,166.9,396.5,166.9,396.4z"/>
		<path fill-rule="evenodd" clip-rule="evenodd" fill="#3073EF" d="M180.6,404.6c-0.1,0-0.2,0-0.3,0
			C180.4,404.6,180.5,404.6,180.6,404.6z"/>
		<path fill-rule="evenodd" clip-rule="evenodd" fill="#E43125" d="M200,408.1c0.1,0,0.2,0,0.3,0C200.2,408.2,200.1,408.2,200,408.1
			z"/>
		<path fill-rule="evenodd" clip-rule="evenodd" fill="#E43125" d="M201.3,408.2c0.1,0,0.2,0,0.3,0
			C201.5,408.2,201.4,408.2,201.3,408.2z"/>
		<path fill-rule="evenodd" clip-rule="evenodd" fill="#3073EF" d="M178.9,386.3c0.1,0,0.2,0,0.3,0
			C179.1,386.3,179,386.3,178.9,386.3z"/>
		<path fill-rule="evenodd" clip-rule="evenodd" fill="#3073EF" d="M166.9,394.3c0,0.1,0,0.2,0,0.3
			C166.9,394.5,166.8,394.4,166.9,394.3z"/>
		<path fill-rule="evenodd" clip-rule="evenodd" fill="#F4AB00" d="M217.8,408.1c0.1,0,0.2,0,0.3,0
			C218,408.2,217.9,408.2,217.8,408.1z"/>
		<path fill-rule="evenodd" clip-rule="evenodd" fill="#F4AB00" d="M218,391.7c-0.1,0-0.2,0-0.3,0
			C217.8,391.7,217.9,391.7,218,391.7z"/>
		<path fill-rule="evenodd" clip-rule="evenodd" fill="#F4AB00" d="M219.1,408.2c0.1,0,0.2,0,0.3,0
			C219.3,408.2,219.2,408.2,219.1,408.2z"/>
		<path fill-rule="evenodd" clip-rule="evenodd" fill="#3073EF" d="M178.6,382.8c-0.1,0-0.1,0-0.2,0
			C178.4,382.8,178.5,382.8,178.6,382.8z"/>
		<path fill-rule="evenodd" clip-rule="evenodd" fill="#3073EF" d="M181.1,382.8c-0.1,0-0.2,0-0.2,0
			C181,382.8,181,382.8,181.1,382.8z"/>
		<path fill-rule="evenodd" clip-rule="evenodd" fill="#3073EF" d="M187.9,397.8c0,0.1,0,0.2,0,0.2
			C187.9,398,187.8,397.9,187.9,397.8z"/>
		<path fill-rule="evenodd" clip-rule="evenodd" fill="#E43125" d="M192.6,400.7c0,0.1,0,0.1,0,0.2
			C192.6,400.8,192.6,400.8,192.6,400.7z"/>
		<path fill-rule="evenodd" clip-rule="evenodd" fill="#3073EF" d="M191.4,397.8c0-0.1,0-0.2,0-0.2
			C191.5,397.7,191.5,397.7,191.4,397.8z"/>
		<path fill-rule="evenodd" clip-rule="evenodd" fill="#E43125" d="M201.7,391.8c-0.1,0-0.2,0-0.2,0
			C201.5,391.7,201.6,391.7,201.7,391.8z"/>
		<path fill-rule="evenodd" clip-rule="evenodd" fill="#3073EF" d="M170.6,394.7c0-0.1,0-0.2,0-0.2
			C170.6,394.5,170.6,394.6,170.6,394.7z"/>
		<path fill-rule="evenodd" clip-rule="evenodd" fill="#3073EF" d="M228.2,400.5c0,0.1,0,0.1,0,0.2
			C228.1,400.6,228.2,400.5,228.2,400.5z"/>
		<path fill-rule="evenodd" clip-rule="evenodd" fill="#F4AB00" d="M210.4,400.7c0,0.1,0,0.1,0,0.2
			C210.4,400.9,210.4,400.8,210.4,400.7z"/>
		<path fill-rule="evenodd" clip-rule="evenodd" fill="#3073EF" d="M228.2,399.1c0,0.1,0,0.2,0,0.2
			C228.2,399.3,228.1,399.2,228.2,399.1z"/>
		<path fill-rule="evenodd" clip-rule="evenodd" fill="#E43125" d="M192.6,399c0,0.1,0,0.2,0,0.2C192.6,399.1,192.6,399.1,192.6,399
			z"/>
		<path fill-rule="evenodd" clip-rule="evenodd" fill="#F4AB00" d="M226.8,400.9c0-0.1,0-0.2,0-0.2
			C226.8,400.8,226.8,400.9,226.8,400.9z"/>
		<path fill-rule="evenodd" clip-rule="evenodd" fill="#3073EF" d="M166.9,396.8c0,0.1,0,0.1,0,0.2
			C166.9,396.9,166.9,396.8,166.9,396.8z"/>
		<path fill-rule="evenodd" clip-rule="evenodd" fill="#3073EF" d="M236.8,412.2c-0.1,0-0.1,0-0.2,0
			C236.6,412.1,236.7,412.2,236.8,412.2z"/>
		<path fill-rule="evenodd" clip-rule="evenodd" fill="#3073EF" d="M170.6,396.5c0-0.1,0-0.1,0-0.2
			C170.6,396.3,170.6,396.4,170.6,396.5z"/>
		<path fill-rule="evenodd" clip-rule="evenodd" fill="#3073EF" d="M191.5,395.1c0-0.1,0-0.1,0-0.2C191.5,395,191.5,395,191.5,395.1
			z"/>
		<path fill-rule="evenodd" clip-rule="evenodd" fill="#3073EF" d="M191.4,394.8c0-0.1,0-0.1,0-0.2
			C191.5,394.6,191.4,394.7,191.4,394.8z"/>
		<path fill-rule="evenodd" clip-rule="evenodd" fill="#3073EF" d="M178.8,404.6c-0.1,0-0.1,0-0.2,0
			C178.6,404.6,178.7,404.5,178.8,404.6z"/>
		<path fill-rule="evenodd" clip-rule="evenodd" fill="#3073EF" d="M180.9,404.6c-0.1,0-0.1,0-0.2,0
			C180.8,404.5,180.9,404.6,180.9,404.6z"/>
		<path fill-rule="evenodd" clip-rule="evenodd" fill="#E43125" d="M209,399.1c0-0.1,0-0.1,0-0.2C209,399,209,399,209,399.1z"/>
		<path fill-rule="evenodd" clip-rule="evenodd" fill="#F4AB00" d="M226.8,398.8c0-0.1,0-0.1,0-0.2
			C226.8,398.7,226.8,398.8,226.8,398.8z"/>
		<path fill-rule="evenodd" clip-rule="evenodd" fill="#3073EF" d="M191.4,398.1c0-0.1,0-0.1,0-0.2
			C191.4,398,191.4,398.1,191.4,398.1z"/>
		<path fill-rule="evenodd" clip-rule="evenodd" fill="#F4AB00" d="M210.5,398.7c0,0.1,0,0.1,0,0.2
			C210.4,398.8,210.4,398.7,210.5,398.7z"/>
		<path fill-rule="evenodd" clip-rule="evenodd" fill="#3073EF" d="M235.1,408c0.1,0,0.1,0,0.2,0C235.3,408.1,235.2,408.1,235.1,408
			z"/>
		<path fill-rule="evenodd" clip-rule="evenodd" fill="#3073EF" d="M178,408.1c0.1,0,0.1,0,0.2,0C178.2,408.1,178.1,408.1,178,408.1
			z"/>
		<path fill-rule="evenodd" clip-rule="evenodd" fill="#3073EF" d="M181.2,408.1c0.1,0,0.1,0,0.2,0
			C181.3,408.1,181.3,408.1,181.2,408.1z"/>
		<path fill-rule="evenodd" clip-rule="evenodd" fill="#3073EF" d="M228.2,398.8c0,0.1,0,0.1,0,0.2
			C228.2,399,228.2,398.9,228.2,398.8z"/>
		<path fill-rule="evenodd" clip-rule="evenodd" fill="#3073EF" d="M178.2,382.8c-0.1,0-0.1,0-0.2,0
			C178.1,382.8,178.1,382.8,178.2,382.8z"/>
		<path fill-rule="evenodd" clip-rule="evenodd" fill="#3073EF" d="M180.9,408.1c0.1,0,0.1,0,0.2,0
			C181,408.2,180.9,408.1,180.9,408.1z"/>
		<path fill-rule="evenodd" clip-rule="evenodd" fill="#E43125" d="M201.7,408.1c0.1,0,0.1,0,0.2,0
			C201.9,408.2,201.8,408.1,201.7,408.1z"/>
		<path fill-rule="evenodd" clip-rule="evenodd" fill="#E43125" d="M192.7,398.7c0,0.1,0,0.1,0,0.2
			C192.6,398.8,192.6,398.8,192.7,398.7z"/>
		<path fill-rule="evenodd" clip-rule="evenodd" fill="#3073EF" d="M181.4,382.9c-0.1,0-0.1,0-0.2,0
			C181.3,382.8,181.4,382.8,181.4,382.9z"/>
		<path fill-rule="evenodd" clip-rule="evenodd" fill="#3073EF" d="M180.8,386.3c0.1,0,0.1,0,0.2,0
			C180.9,386.3,180.8,386.4,180.8,386.3z"/>
		<path fill-rule="evenodd" clip-rule="evenodd" fill="#3073EF" d="M235.4,391.7c-0.1,0-0.1,0-0.2,0
			C235.3,391.7,235.3,391.7,235.4,391.7z"/>
		<path fill-rule="evenodd" clip-rule="evenodd" fill="#E43125" d="M209,401c0-0.1,0-0.1,0-0.2C209,400.8,209,400.9,209,401z"/>
		<path fill-rule="evenodd" clip-rule="evenodd" fill="#3073EF" d="M178.4,408.1c0.1,0,0.1,0,0.2,0
			C178.5,408.1,178.4,408.2,178.4,408.1z"/>
		<path fill-rule="evenodd" clip-rule="evenodd" fill="#F4AB00" d="M226.8,399.1c0-0.1,0-0.1,0-0.2
			C226.8,399,226.8,399.1,226.8,399.1z"/>
		<path fill-rule="evenodd" clip-rule="evenodd" fill="#3073EF" d="M240.5,408.2c0,0.1,0,0.1,0,0.2
			C240.4,408.3,240.4,408.2,240.5,408.2z"/>
		<path fill-rule="evenodd" clip-rule="evenodd" fill="#E43125" d="M192.6,401c0,0.1,0,0.1,0,0.2C192.6,401.1,192.6,401.1,192.6,401
			z"/>
		<path fill-rule="evenodd" clip-rule="evenodd" fill="#3073EF" d="M234.9,415.3c0.1,0,0.1,0,0.2,0
			C235,415.3,234.9,415.3,234.9,415.3z"/>
		<path fill-rule="evenodd" clip-rule="evenodd" fill="#3073EF" d="M237,415.3c0.1,0,0.1,0,0.2,0C237.2,415.3,237.1,415.3,237,415.3
			z"/>
		<path fill-rule="evenodd" clip-rule="evenodd" fill="#3073EF" d="M166.9,393.9c0,0.1,0,0.1,0,0.2
			C166.9,394.1,166.9,394,166.9,393.9z"/>
		<path fill-rule="evenodd" clip-rule="evenodd" fill="#F4AB00" d="M210.4,398.9c0,0.1,0,0.1,0,0.2
			C210.4,399.1,210.4,399,210.4,398.9z"/>
		<path fill-rule="evenodd" clip-rule="evenodd" fill="#3073EF" d="M243.8,392.5c0-0.1,0-0.1,0-0.2c-1.1,0-2.1,0-3.2,0
			c-0.1,0-0.1,0-0.2,0c0,0.1,0,0.2,0,0.4c0,0.1,0,0.2,0,0.3c0,0.1,0,0.3,0,0.4c0,0,0,0.1-0.1,0.1c0,0,0,0-0.1,0
			c-0.7-0.6-1.4-1-2.3-1.4c-0.5-0.2-1-0.3-1.4-0.4c-0.1,0-0.1,0-0.2,0c0,0,0,0,0,0c-0.1,0-0.1,0-0.2,0c-0.2,0-0.4,0-0.6,0
			c-0.1,0-0.1,0-0.2,0c-0.1,0-0.1,0-0.2,0c-0.2,0-0.5,0.1-0.7,0.1c-1.4,0.3-2.6,1.1-3.6,2c-0.3,0.3-0.5,0.5-0.8,0.8
			c-0.5,0.7-1,1.4-1.3,2.2c-0.3,0.6-0.4,1.2-0.5,1.8c0,0.1,0,0.1,0,0.2c0,0,0,0.1,0,0.1c0,0.1,0,0.2,0,0.2c0,0.1,0,0.2,0,0.2
			c0,0.2,0,0.4,0,0.7c0,0.1,0,0.1,0,0.2c0,0.1,0,0.2,0,0.2c0,0.2,0,0.3,0,0.5c0.1,0.7,0.4,1.4,0.7,2.1c0.5,1,1.1,1.8,1.8,2.6
			c0.4,0.4,0.9,0.8,1.4,1.1c1,0.6,2,1,3.1,1.1c0.1,0,0.1,0,0.2,0c0,0,0.1,0,0.1,0c0.3,0,0.7,0,1,0c0.2,0,0.4,0,0.6-0.1
			c0.8-0.1,1.6-0.5,2.3-0.9c0.3-0.2,0.7-0.5,1-0.7c0,0,0.1-0.1,0.1,0c0,0.1,0,0.2,0,0.3c0,0.1,0,0.3,0,0.4c0,0.1,0,0.2,0,0.3
			c0,0.1,0,0.2,0,0.3c0,0.1,0,0.2,0,0.3c0,0,0,0.1,0,0.1c0,0.1,0,0.1,0,0.2c0,0.1,0,0.1,0,0.1c0,0.4-0.2,0.8-0.3,1.2
			c-0.2,0.5-0.5,0.9-0.9,1.3c-0.2,0.2-0.5,0.4-0.8,0.6c-0.5,0.3-1.1,0.5-1.7,0.6c-0.1,0-0.2,0-0.2,0c-0.1,0-0.3,0-0.4,0
			c-0.1,0-0.2,0-0.3,0c-0.1,0-0.1,0-0.2,0c-0.1,0-0.2,0-0.3,0c-0.5,0-1-0.2-1.4-0.5c-0.9-0.5-1.5-1.3-1.9-2.2
			c-0.1-0.1-0.1-0.1-0.2-0.1c-0.3,0.1-0.6,0.3-0.9,0.4c-0.7,0.3-1.3,0.6-2,0.8c-0.1,0-0.1,0.1-0.1,0.2c0.1,0.2,0.2,0.3,0.3,0.5
			c0.5,0.9,1.1,1.7,1.8,2.3c0.4,0.3,0.9,0.7,1.3,0.9c0.8,0.4,1.6,0.7,2.5,0.8c0.1,0,0.1,0,0.2,0c0,0,0.1,0,0.1,0c0.1,0,0.2,0,0.3,0
			c0.4,0,0.7,0,1.1,0c0.1,0,0.2,0,0.3,0c0,0,0.1,0,0.1,0c0.1,0,0.1,0,0.2,0c0.3,0,0.5-0.1,0.8-0.1c0.5-0.1,0.9-0.2,1.4-0.4
			c1.5-0.7,2.7-1.7,3.5-3.2c0.6-1.1,0.9-2.2,1-3.4c0-0.1,0-0.1,0-0.2C243.8,402.8,243.8,397.7,243.8,392.5z M238.8,404.1
			c-0.7,0.6-1.6,0.9-2.8,0.8c-1.3,0-2.5-0.8-3.4-2.1c-1.3-2.1-1-4.9,0.7-6.6c1.7-1.6,4.2-1.6,5.9,0
			C241.5,398.4,241.2,402.3,238.8,404.1z"/>
		<path fill-rule="evenodd" clip-rule="evenodd" fill="#F4AB00" d="M226.8,399.7c0-0.1,0-0.3,0-0.4c0-0.1,0-0.1,0-0.2
			c0-0.1,0-0.1,0-0.2c0,0,0-0.1,0-0.1c0-0.1,0-0.1,0-0.2c0,0,0-0.1,0-0.1c-0.1-0.7-0.3-1.4-0.7-2.1c-0.5-1-1.1-1.9-2-2.6
			c-0.8-0.7-1.7-1.2-2.7-1.6c-0.5-0.2-1.1-0.3-1.6-0.4c0,0-0.1,0-0.1,0c0,0,0,0-0.1,0c0,0-0.1,0-0.1,0c-0.1,0-0.1,0-0.2,0
			c0,0,0,0-0.1,0c-0.1,0-0.2,0-0.2,0c-0.2,0-0.5,0-0.7,0c-0.1,0-0.2,0-0.2,0c-0.1,0-0.2,0-0.3,0c-0.1,0-0.2,0-0.3,0
			c-0.8,0.1-1.5,0.3-2.2,0.6c-1,0.5-1.9,1.1-2.7,1.9c-0.3,0.3-0.5,0.6-0.7,0.9c-0.4,0.5-0.7,1.1-0.9,1.7c-0.2,0.5-0.4,1.1-0.4,1.7
			c0,0.1,0,0.1,0,0.2c0,0,0,0.1,0,0.1c0,0.1,0,0.1,0,0.2c0,0.1,0,0.1,0,0.2c0,0.1,0,0.3,0,0.4c0,0.2,0,0.3,0,0.5c0,0.1,0,0.3,0,0.4
			c0,0,0,0.1,0,0.1c0,0.1,0,0.2,0,0.2c0,0.2,0,0.4,0.1,0.6c0.2,0.7,0.4,1.4,0.7,2.1c0.3,0.6,0.7,1.2,1.2,1.7
			c0.4,0.4,0.8,0.8,1.2,1.1c0.6,0.4,1.2,0.8,1.9,1.1c0.7,0.3,1.5,0.5,2.2,0.5c0.1,0,0.2,0,0.3,0c0.1,0,0.2,0,0.3,0
			c0.1,0,0.3,0,0.4,0c0.1,0,0.2,0,0.3,0c0.1,0,0.2,0,0.3,0c0.3,0,0.6-0.1,0.9-0.2c0.5-0.1,1.1-0.3,1.6-0.5c1.2-0.5,2.2-1.3,3-2.3
			c0.6-0.7,1.1-1.6,1.4-2.5c0.2-0.6,0.3-1.2,0.4-1.8c0-0.1,0-0.2,0-0.2c0,0,0-0.1,0-0.1c0-0.1,0-0.3,0-0.4
			C226.8,400,226.8,399.9,226.8,399.7z M221.7,403.7c-2,2-5.3,1.6-6.9-0.8c-0.6-0.9-0.9-1.9-0.9-3.2c0.1-1.5,0.7-2.9,2.2-3.9
			c1.8-1.2,4.2-0.9,5.7,0.7C223.8,398.4,223.7,401.8,221.7,403.7z"/>
		<path fill-rule="evenodd" clip-rule="evenodd" fill="#E43125" d="M209,399.6c0-0.1,0-0.2,0-0.4c0,0,0-0.1,0-0.1c0-0.1,0-0.1,0-0.2
			c0-0.1,0-0.1,0-0.2c-0.1-0.8-0.3-1.5-0.7-2.3c-0.5-1-1.2-2-2-2.7c-0.8-0.7-1.6-1.2-2.6-1.5c-0.6-0.2-1.3-0.4-2-0.5
			c-0.1,0-0.2,0-0.2,0c-0.1,0-0.2,0-0.3,0c-0.2,0-0.5,0-0.7,0c-0.1,0-0.2,0-0.2,0c0,0,0,0-0.1,0c-0.1,0-0.1,0-0.2,0c0,0-0.1,0-0.1,0
			c0,0,0,0,0,0c0,0-0.1,0-0.1,0c-0.8,0.1-1.6,0.3-2.3,0.7c-0.7,0.3-1.3,0.7-1.8,1.2c-0.4,0.4-0.9,0.8-1.2,1.3
			c-0.5,0.7-1,1.5-1.3,2.4c-0.2,0.5-0.3,0.9-0.3,1.4c0,0.1,0,0.1,0,0.2c0,0,0,0.1,0,0.1c0,0.1,0,0.2,0,0.2c0,0.1,0,0.1,0,0.2
			c0,0.4,0,0.8,0,1.1c0,0.1,0,0.1,0,0.2c0,0.1,0,0.2,0,0.2c0,0,0,0.1,0,0.1c0,0.1,0,0.1,0,0.2c0,0.2,0,0.4,0.1,0.6
			c0.2,0.8,0.5,1.5,0.8,2.2c0.3,0.5,0.7,1.1,1.1,1.5c0.5,0.5,1,1,1.5,1.3c0.7,0.4,1.4,0.8,2.2,1c0.5,0.2,1.1,0.3,1.6,0.3
			c0.1,0,0.2,0,0.3,0c0.1,0,0.2,0,0.3,0c0.1,0,0.3,0,0.4,0c0.1,0,0.2,0,0.3,0c0.1,0,0.2,0,0.3,0c0,0,0.1,0,0.1,0c0.1,0,0.1,0,0.2,0
			c0.7-0.1,1.5-0.3,2.1-0.6c1.1-0.5,2.1-1.2,2.9-2.1c0.7-0.8,1.2-1.6,1.6-2.6c0.2-0.6,0.4-1.2,0.5-1.8c0-0.1,0-0.1,0-0.2
			c0-0.1,0-0.1,0-0.2c0-0.1,0-0.2,0-0.3C209,400.1,209,399.8,209,399.6z M203.4,404.1c-1.8,1.3-4.1,1.1-5.7-0.4
			c-2-1.9-2-5.3-0.1-7.3c2-2,5.1-1.8,6.8,0.5c0.7,0.9,1,2,1,3.4C205.4,401.7,204.8,403.1,203.4,404.1z"/>
		<path fill-rule="evenodd" clip-rule="evenodd" fill="#E43125" d="M266.3,397.7c-0.3-0.9-0.8-1.8-1.3-2.7c-0.8-1.3-1.9-2.3-3.3-2.8
			c-2.2-0.8-4.4-0.6-6.4,0.7c-2.8,1.7-4.3,5-3.7,8.3c0.7,3.9,4,6.8,8,6.8c0.2,0,0.4,0,0.7,0c0.2,0,0.4,0,0.6-0.1
			c2.2-0.4,4-1.5,5.3-3.4c0.1-0.1,0.1-0.1,0-0.2c-0.8-0.5-1.6-1.1-2.5-1.6c-0.1-0.1-0.1-0.1-0.2,0c-0.3,0.5-0.6,0.9-1.1,1.2
			c-0.7,0.5-1.6,0.8-2.5,0.9c-1.9,0.2-3.5-0.6-4.3-2.3c-0.1-0.1,0-0.2,0.1-0.2c1.5-0.6,3-1.3,4.5-1.9c2-0.8,4-1.7,6-2.6
			C266.3,397.9,266.3,397.9,266.3,397.7z M262.1,396.7c-2.3,1-4.7,2-7,2.9c-0.1,0-0.2,0.1-0.2-0.1c0-1,0.2-2,0.8-2.8
			c0.5-0.8,1.3-1.3,2.2-1.6c0.5-0.1,0.9-0.2,1.6-0.2c1,0,2,0.5,2.6,1.5C262.2,396.6,262.2,396.7,262.1,396.7z"/>
		<path fill="#808184" d="M165.7,411.3l-1.8,6.3h0.8l0.5-1.8h2l0.5,1.8h0.8l-1.8-6.3H165.7z M165.3,415.2l0.8-3.4h0l0.8,3.4H165.3z
			 M171.9,413.5c-0.1-0.2-0.3-0.4-0.5-0.5c-0.2-0.1-0.4-0.2-0.7-0.2c-0.2,0-0.4,0.1-0.5,0.2c-0.2,0.1-0.3,0.3-0.4,0.5h0v-0.5h-0.6
			v6.3h0.7v-2.1h0c0.1,0.2,0.3,0.3,0.4,0.5c0.1,0.1,0.3,0.2,0.6,0.2c0.3,0,0.6-0.1,0.8-0.2c0.2-0.2,0.4-0.4,0.5-0.6
			c0.1-0.3,0.2-0.6,0.2-0.9c0-0.3,0.1-0.7,0.1-1c0-0.2,0-0.5-0.1-0.7C172.1,414,172,413.7,171.9,413.5z M171.3,416.7
			c-0.1,0.3-0.4,0.5-0.7,0.5c-0.2,0-0.4-0.1-0.5-0.2c-0.1-0.1-0.2-0.3-0.3-0.5c-0.1-0.2-0.1-0.4-0.1-0.6c0-0.2,0-0.4,0-0.6
			c0-0.2,0-0.4,0-0.6c0-0.2,0-0.4,0.1-0.6c0.1-0.2,0.1-0.4,0.3-0.5c0.1-0.1,0.3-0.2,0.5-0.2c0.2,0,0.4,0.1,0.5,0.2
			c0.1,0.1,0.2,0.3,0.3,0.5c0.1,0.2,0.1,0.4,0.1,0.6c0,0.2,0,0.4,0,0.5C171.5,415.8,171.5,416.3,171.3,416.7z M176.1,413.5
			c-0.1-0.2-0.3-0.4-0.5-0.5c-0.2-0.1-0.4-0.2-0.7-0.2c-0.2,0-0.4,0.1-0.5,0.2c-0.2,0.1-0.3,0.3-0.4,0.5h0v-0.5h-0.6v6.3h0.7v-2.1h0
			c0.1,0.2,0.3,0.3,0.4,0.5c0.1,0.1,0.3,0.2,0.6,0.2c0.3,0,0.6-0.1,0.8-0.2c0.2-0.2,0.4-0.4,0.5-0.6c0.1-0.3,0.2-0.6,0.2-0.9
			c0-0.3,0.1-0.7,0.1-1c0-0.2,0-0.5-0.1-0.7C176.3,414,176.3,413.7,176.1,413.5z M175.6,416.7c-0.1,0.3-0.4,0.5-0.7,0.5
			c-0.2,0-0.4-0.1-0.5-0.2c-0.1-0.1-0.2-0.3-0.3-0.5c-0.1-0.2-0.1-0.4-0.1-0.6c0-0.2,0-0.4,0-0.6c0-0.2,0-0.4,0-0.6
			c0-0.2,0-0.4,0.1-0.6c0.1-0.2,0.1-0.4,0.3-0.5c0.1-0.1,0.3-0.2,0.5-0.2c0.2,0,0.4,0.1,0.5,0.2c0.1,0.1,0.2,0.3,0.3,0.5
			c0.1,0.2,0.1,0.4,0.1,0.6c0,0.2,0,0.4,0,0.5C175.8,415.8,175.7,416.3,175.6,416.7z M179.9,415.4c-0.1-0.1-0.3-0.2-0.4-0.2
			c-0.2-0.1-0.3-0.1-0.5-0.2c-0.1-0.1-0.2-0.1-0.3-0.1c-0.1,0-0.2-0.1-0.3-0.1c-0.1-0.1-0.2-0.1-0.2-0.2c-0.1-0.1-0.1-0.2-0.1-0.4
			c0-0.2,0.1-0.4,0.2-0.5c0.1-0.1,0.3-0.2,0.5-0.2c0.3,0,0.5,0.1,0.6,0.2c0.1,0.1,0.2,0.3,0.1,0.6h0.7c0-0.5-0.1-0.8-0.4-1.1
			c-0.3-0.2-0.6-0.3-1.1-0.3c-0.2,0-0.4,0-0.6,0.1c-0.2,0.1-0.3,0.2-0.4,0.3c-0.1,0.1-0.2,0.3-0.3,0.4c-0.1,0.2-0.1,0.3-0.1,0.5
			c0,0.2,0,0.4,0.1,0.5c0.1,0.1,0.1,0.3,0.2,0.4c0.1,0.1,0.2,0.2,0.4,0.3c0.1,0.1,0.3,0.1,0.5,0.2c0.1,0.1,0.2,0.1,0.4,0.1
			c0.1,0,0.3,0.1,0.4,0.2c0.1,0.1,0.2,0.1,0.3,0.2c0.1,0.1,0.1,0.2,0.1,0.4c0,0.3-0.1,0.5-0.2,0.6c-0.2,0.1-0.4,0.2-0.7,0.2
			c-0.3,0-0.5-0.1-0.6-0.2c-0.1-0.2-0.2-0.4-0.2-0.7h-0.6c0,0.2,0,0.3,0,0.5c0,0.2,0.1,0.3,0.2,0.5c0.1,0.2,0.3,0.3,0.5,0.4
			c0.2,0.1,0.4,0.1,0.6,0.1c0.5,0,0.9-0.1,1.2-0.4c0.3-0.3,0.4-0.6,0.4-1.1c0-0.2,0-0.4-0.1-0.5C180.1,415.6,180,415.5,179.9,415.4z
			 M184.2,411.3c-0.2,0-0.4,0.2-0.5,0.3c-0.1,0.1-0.1,0.3-0.1,0.4c0,0.2,0,0.3,0,0.5v0.4h-0.7v0.6h0.7v4.1h0.7v-4.1h0.7v-0.6h-0.7
			v-0.5c0-0.1,0-0.3,0-0.3c0-0.1,0.1-0.1,0.1-0.2c0.1,0,0.1-0.1,0.2-0.1c0.1,0,0.2,0,0.3,0v-0.6
			C184.7,411.2,184.4,411.3,184.2,411.3z M188.5,413.4c-0.1-0.2-0.3-0.4-0.5-0.5c-0.2-0.1-0.5-0.2-0.7-0.2c-0.3,0-0.5,0.1-0.7,0.2
			c-0.2,0.1-0.4,0.3-0.5,0.5c-0.1,0.2-0.2,0.4-0.3,0.7c-0.1,0.3-0.1,0.6-0.1,1c0,0.5,0,0.9,0.1,1.3c0.1,0.3,0.2,0.6,0.3,0.8
			c0.1,0.2,0.3,0.3,0.5,0.4c0.2,0.1,0.4,0.1,0.7,0.1c0.3,0,0.5,0,0.7-0.1c0.2-0.1,0.4-0.2,0.5-0.4c0.1-0.2,0.3-0.5,0.3-0.8
			c0.1-0.3,0.1-0.8,0.1-1.3c0-0.4,0-0.7-0.1-1C188.8,413.9,188.7,413.6,188.5,413.4z M188.2,416.1c0,0.2-0.1,0.4-0.2,0.6
			c-0.1,0.2-0.2,0.3-0.3,0.4c-0.1,0.1-0.3,0.1-0.5,0.1s-0.4,0-0.5-0.1c-0.1-0.1-0.2-0.2-0.3-0.4c-0.1-0.2-0.1-0.4-0.2-0.6
			c0-0.2,0-0.5,0-0.8c0-0.7,0.1-1.2,0.2-1.5c0.2-0.3,0.4-0.4,0.8-0.4c0.3,0,0.6,0.1,0.8,0.4c0.2,0.3,0.2,0.8,0.2,1.5
			C188.2,415.6,188.2,415.8,188.2,416.1z M190.7,413.7L190.7,413.7l0-0.8H190v4.7h0.7v-2.8c0-0.2,0-0.4,0.1-0.6
			c0.1-0.2,0.2-0.3,0.3-0.4c0.1-0.1,0.3-0.2,0.4-0.2c0.2,0,0.4,0,0.6,0v-0.7c-0.4,0-0.6,0-0.8,0.2
			C191,413.1,190.8,413.4,190.7,413.7z M195.6,414.6h2.3V414h-2.3v-2.1h2.5v-0.6h-3.2v6.3h3.2V417h-2.5V414.6z M201.4,413.4
			L201.4,413.4c-0.2-0.2-0.3-0.4-0.5-0.5c-0.2-0.1-0.4-0.2-0.6-0.2c-0.3,0-0.5,0.1-0.7,0.2c-0.2,0.1-0.3,0.3-0.4,0.5
			c-0.1,0.2-0.2,0.5-0.2,0.8c-0.1,0.3-0.1,0.6-0.1,1c0,0.1,0,0.2,0,0.3c0,0.1,0,0.3,0,0.5c0,0.2,0.1,0.4,0.1,0.6
			c0,0.2,0.1,0.4,0.2,0.5c0.1,0.2,0.2,0.3,0.4,0.4c0.2,0.1,0.4,0.2,0.6,0.2c0.1,0,0.3,0,0.4,0c0.1,0,0.2-0.1,0.3-0.1
			c0.1-0.1,0.2-0.1,0.2-0.2c0.1-0.1,0.1-0.2,0.2-0.4h0v0.6h0.6v-6.3h-0.7V413.4z M201.4,415.8c0,0.1,0,0.3,0,0.4
			c0,0.2-0.1,0.3-0.1,0.5c-0.1,0.1-0.2,0.3-0.3,0.4c-0.1,0.1-0.3,0.1-0.4,0.1c-0.2,0-0.4-0.1-0.5-0.2c-0.1-0.1-0.2-0.2-0.3-0.4
			c-0.1-0.2-0.1-0.4-0.1-0.6c0-0.2,0-0.5,0-0.7c0-0.4,0-0.7,0.1-0.9c0-0.2,0.1-0.4,0.2-0.6c0.1-0.1,0.2-0.2,0.3-0.3
			c0.1-0.1,0.2-0.1,0.4-0.1c0.2,0,0.4,0.1,0.5,0.2c0.1,0.1,0.2,0.3,0.3,0.5c0.1,0.2,0.1,0.4,0.1,0.6c0,0.2,0,0.4,0,0.6V415.8z
			 M205.7,415.9c0,0.1,0,0.3,0,0.4c0,0.1-0.1,0.3-0.2,0.4c-0.1,0.1-0.2,0.2-0.4,0.3c-0.1,0.1-0.3,0.1-0.5,0.1
			c-0.2,0-0.4-0.1-0.5-0.2c-0.1-0.1-0.1-0.3-0.1-0.5v-3.7h-0.7v3.6c0,0.4,0.1,0.7,0.3,0.9c0.2,0.2,0.5,0.3,0.8,0.3
			c0.2,0,0.4-0.1,0.6-0.2c0.2-0.1,0.4-0.3,0.5-0.6h0v0.6h0.7v-4.7h-0.7V415.9z M209.7,416.4c0,0.1-0.1,0.3-0.1,0.4
			c-0.1,0.1-0.1,0.2-0.2,0.3c-0.1,0.1-0.3,0.1-0.4,0.1c-0.2,0-0.4-0.1-0.5-0.2c-0.1-0.1-0.2-0.3-0.3-0.4c-0.1-0.2-0.1-0.4-0.1-0.6
			c0-0.2,0-0.4,0-0.5c0-0.2,0-0.4,0-0.6c0-0.2,0-0.5,0.1-0.7c0.1-0.2,0.1-0.4,0.3-0.6c0.1-0.2,0.3-0.2,0.6-0.2c0.2,0,0.3,0,0.4,0.1
			c0.1,0.1,0.2,0.1,0.2,0.2c0.1,0.1,0.1,0.2,0.1,0.3c0,0.1,0,0.3,0,0.4h0.6c0-0.2,0-0.4-0.1-0.6c-0.1-0.2-0.1-0.4-0.3-0.5
			c-0.1-0.1-0.3-0.3-0.4-0.3c-0.2-0.1-0.4-0.1-0.6-0.1c-0.4,0-0.6,0.1-0.9,0.2c-0.2,0.2-0.4,0.4-0.5,0.6c-0.1,0.2-0.2,0.5-0.2,0.8
			c0,0.3-0.1,0.6-0.1,0.9c0,0.3,0,0.6,0.1,0.9c0,0.3,0.1,0.5,0.2,0.8c0.1,0.2,0.3,0.4,0.5,0.5c0.2,0.1,0.5,0.2,0.9,0.2
			c0.3,0,0.5,0,0.7-0.1c0.2-0.1,0.3-0.2,0.4-0.4c0.1-0.2,0.2-0.4,0.2-0.6c0.1-0.2,0.1-0.4,0.1-0.7h-0.6
			C209.7,416.1,209.7,416.3,209.7,416.4z M214,417.1c-0.1,0-0.1-0.1-0.1-0.2c0-0.1,0-0.1,0-0.2v-2.7c0,0,0-0.1,0-0.1
			c0-0.1,0-0.2,0-0.2c0-0.1-0.1-0.2-0.1-0.3c0-0.1-0.1-0.2-0.2-0.3c-0.1-0.1-0.2-0.2-0.4-0.2c-0.2-0.1-0.3-0.1-0.6-0.1
			c-0.5,0-0.8,0.1-1.1,0.3c-0.2,0.2-0.3,0.6-0.3,1.1h0.6c0-0.1,0-0.3,0-0.4c0-0.1,0-0.2,0.1-0.3c0-0.1,0.1-0.1,0.2-0.2
			c0.1,0,0.2-0.1,0.4-0.1c0.3,0,0.5,0.1,0.6,0.2c0.1,0.1,0.2,0.3,0.2,0.6c0,0.1,0,0.2,0,0.3c0,0.1,0,0.2-0.1,0.2c0,0-0.1,0-0.2,0.1
			c-0.1,0-0.2,0.1-0.4,0.2c-0.1,0.1-0.3,0.1-0.4,0.2c-0.1,0.1-0.3,0.1-0.4,0.2c-0.2,0.1-0.3,0.2-0.4,0.3c-0.1,0.1-0.2,0.2-0.2,0.3
			c0,0.1-0.1,0.2-0.1,0.3c0,0.1,0,0.2,0,0.2c0,0.2,0,0.4,0.1,0.6c0,0.2,0.1,0.3,0.2,0.4c0.1,0.1,0.2,0.2,0.4,0.3
			c0.2,0.1,0.4,0.1,0.6,0.1c0.1,0,0.2,0,0.3-0.1c0.1,0,0.2-0.1,0.3-0.2c0.1-0.1,0.2-0.2,0.2-0.2c0.1-0.1,0.1-0.2,0.2-0.3h0
			c0,0.2,0,0.3,0.1,0.4c0,0.1,0.1,0.2,0.2,0.2c0.1,0,0.2,0.1,0.2,0.1c0.1,0,0.2,0,0.4,0c0,0,0.1,0,0.1,0c0,0,0,0,0.1,0v-0.5
			c0,0-0.1,0-0.1,0S214,417.1,214,417.1z M213.1,416.2c0,0.2,0,0.3-0.1,0.5c-0.1,0.1-0.1,0.2-0.2,0.3c-0.1,0.1-0.2,0.1-0.3,0.1
			c-0.1,0-0.2,0-0.2,0c-0.3,0-0.4-0.1-0.5-0.2c-0.1-0.1-0.1-0.3-0.1-0.6c0-0.2,0-0.3,0.1-0.5c0.1-0.2,0.2-0.3,0.3-0.3
			c0.2-0.1,0.4-0.2,0.5-0.2c0.2-0.1,0.4-0.2,0.5-0.3V416.2z M215.9,411.6h-0.7v1.3h-0.7v0.6h0.7v3.4c0,0.2,0,0.3,0.1,0.4
			c0,0.1,0.1,0.2,0.1,0.2c0.1,0.1,0.1,0.1,0.2,0.1c0.1,0,0.2,0,0.3,0h0.7V417h-0.4c-0.1,0-0.2,0-0.2,0c0,0-0.1-0.1-0.1-0.1
			c0,0,0-0.1,0-0.1c0,0,0-0.1,0-0.1v-3.2h0.8v-0.6h-0.8V411.6z M217.4,412.1h0.7v-0.8h-0.7V412.1z M217.4,417.6h0.7v-4.7h-0.7V417.6
			z M222.1,413.4c-0.1-0.2-0.3-0.4-0.5-0.5c-0.2-0.1-0.5-0.2-0.7-0.2c-0.3,0-0.5,0.1-0.7,0.2c-0.2,0.1-0.4,0.3-0.5,0.5
			c-0.1,0.2-0.2,0.4-0.3,0.7c-0.1,0.3-0.1,0.6-0.1,1c0,0.5,0,0.9,0.1,1.3c0.1,0.3,0.2,0.6,0.3,0.8c0.1,0.2,0.3,0.3,0.5,0.4
			c0.2,0.1,0.4,0.1,0.7,0.1c0.3,0,0.5,0,0.7-0.1c0.2-0.1,0.4-0.2,0.5-0.4c0.1-0.2,0.3-0.5,0.3-0.8c0.1-0.3,0.1-0.8,0.1-1.3
			c0-0.4,0-0.7-0.1-1C222.3,413.9,222.2,413.6,222.1,413.4z M221.8,416.1c0,0.2-0.1,0.4-0.2,0.6c-0.1,0.2-0.2,0.3-0.3,0.4
			c-0.1,0.1-0.3,0.1-0.5,0.1c-0.2,0-0.4,0-0.5-0.1c-0.1-0.1-0.2-0.2-0.3-0.4c-0.1-0.2-0.1-0.4-0.2-0.6c0-0.2,0-0.5,0-0.8
			c0-0.7,0.1-1.2,0.2-1.5c0.2-0.3,0.4-0.4,0.8-0.4c0.3,0,0.6,0.1,0.8,0.4c0.2,0.3,0.2,0.8,0.2,1.5
			C221.8,415.6,221.8,415.8,221.8,416.1z M226.2,413.1c-0.2-0.2-0.5-0.3-0.8-0.3c-0.3,0-0.5,0.1-0.7,0.2c-0.2,0.1-0.4,0.3-0.5,0.5h0
			v-0.5h-0.7v4.7h0.7v-3.1c0-0.2,0-0.3,0.1-0.5c0-0.1,0.1-0.3,0.3-0.4c0.2-0.2,0.4-0.3,0.7-0.3c0.3,0,0.5,0.1,0.6,0.2
			c0.1,0.1,0.1,0.3,0.1,0.6v3.4h0.7V414C226.5,413.6,226.4,413.3,226.2,413.1z"/>
	</g>
</g>
</svg>
