<?xml version="1.0" encoding="utf-8"?>
<!-- Generator: Adobe Illustrator 19.2.0, SVG Export Plug-In . SVG Version: 6.00 Build 0)  -->
<svg version="1.1" id="Layer_1" xmlns="http://www.w3.org/2000/svg" xmlns:xlink="http://www.w3.org/1999/xlink" x="0px" y="0px"
	 viewBox="0 0 688 670" enable-background="new 0 0 688 670" xml:space="preserve">
<g>
	<g>
		<path fill="#FFFADD" d="M513.5,115.1C185,69-125.6,230.9,83.6,336.2c39.9,20.1,40.6,41.2,24.5,74.6
			C21.8,589,221.6,613.2,318.9,470.1c91.4-134.5,193.2-115.1,286-162.6C716.1,250.5,692.7,140.3,513.5,115.1z"/>
		
			<ellipse transform="matrix(0.9116 -0.4111 0.4111 0.9116 -151.4843 249.7833)" fill="#FFFADD" cx="505" cy="477.1" rx="107.8" ry="55.2"/>
	</g>
	<path fill="#005779" d="M534.4,493.8l-457-52.7c-5.5-0.6-9.4-5.6-8.8-11.1L103,132c0.6-5.5,5.6-9.4,11.1-8.8l457,52.7
		c5.5,0.6,9.4,5.6,8.8,11.1l-34.4,298C544.8,490.5,539.8,494.5,534.4,493.8z"/>
	
		<ellipse transform="matrix(0.1146 -0.9934 0.9934 0.1146 -60.0368 389.5048)" fill="#90DB6E" cx="188.5" cy="228.4" rx="52.4" ry="52.4"/>
	<path fill="#66ADCB" d="M528.9,332.1l-250.3-28.9c-1.1-0.1-1.9-1.1-1.8-2.2L291,177.8c0.1-1.1,1.1-1.9,2.2-1.8L543.5,205
		c1.1,0.1,1.9,1.1,1.8,2.2l-14.2,123.2C530.9,331.5,530,332.3,528.9,332.1z"/>
	<path fill="#FFD31C" d="M304,346.2l-30.1-3.5c-1.1-0.1-1.9-1.1-1.8-2.2l1.5-13.3c0.1-1.1,1.1-1.9,2.2-1.8L306,329
		c1.1,0.1,1.9,1.1,1.8,2.2l-1.5,13.3C306.1,345.5,305.1,346.3,304,346.2z"/>
	
		<ellipse transform="matrix(0.1146 -0.9934 0.9934 0.1146 -82.3958 577.6035)" fill="#FFFFFF" cx="282.8" cy="335" rx="2.1" ry="2.1"/>
	<path fill="#E5A317" d="M309.5,346.8l-17.8-2.1l2-17.2l17.8,2.1c1.1,0.1,1.9,1.1,1.8,2.2l-1.5,13.3
		C311.6,346.2,310.6,347,309.5,346.8z"/>
	<path fill="#FFD31C" d="M353,351.9l-30.5-3.5c-1.1-0.1-1.9-1.1-1.8-2.2l1.5-13.3c0.1-1.1,1.1-1.9,2.2-1.8l30.5,3.5
		c1.1,0.1,1.9,1.1,1.8,2.2l-1.5,13.3C355.1,351.2,354.1,352,353,351.9z"/>
	<path fill="#FF7353" d="M377.7,337.2l29.9,3.4c1.1,0.1,1.9,1.1,1.8,2.2l-1.5,13.3c-0.1,1.1-1.1,1.9-2.2,1.8l-29.9-3.4
		c-1.1-0.1-1.9-1.1-1.8-2.2l1.5-13.3C375.6,337.9,376.6,337.1,377.7,337.2z"/>
	<path fill="#90DB6E" d="M367.4,430.3L270.1,419c-0.8-0.1-1.4-0.8-1.3-1.6c3.9-26.9,28.5-46,55.7-42.8s46.8,27.3,44.4,54.4
		C368.9,429.8,368.2,430.4,367.4,430.3z"/>
	<path fill="#FFD31C" d="M510.3,446.8l-97.2-11.2c-0.8-0.1-1.4-0.8-1.3-1.6c3.9-26.9,28.5-46,55.7-42.8s46.8,27.3,44.4,54.4
		C511.9,446.3,511.1,446.9,510.3,446.8z"/>
	<path fill="#FFFFFF" d="M326.4,416.4c-2.5,3.4-7.4,4.1-10.8,1.6c-3.4-2.5-4.1-7.4-1.6-10.8c3.5-4.8,16.1-13.1,20.6-16
		c0.6-0.4,1.3,0.2,1.1,0.8C334.3,397.1,330,411.6,326.4,416.4z"/>
	<path fill="#FFFFFF" d="M470.7,426.5c1,4.1-1.6,8.3-5.7,9.3c-4.1,1-8.3-1.6-9.3-5.7c-1.4-5.8,0.3-20.8,1-26.1
		c0.1-0.7,0.9-0.9,1.3-0.3C461,408.1,469.3,420.7,470.7,426.5z"/>
	<path fill="#66ADCB" d="M457.5,466l6.2-4.9c1.1,0.5,2.5,0.4,3.5-0.4c0.9-0.7,1.3-1.7,1.3-2.7c0-0.3-0.3-0.4-0.5-0.3l-1.3,1
		c-0.1,0.1-0.2,0.1-0.3,0l-1.3-0.5c-0.1,0-0.2-0.1-0.2-0.3l-0.2-1.4c0-0.1,0-0.2,0.1-0.3l1.3-1c0.2-0.2,0.1-0.5-0.1-0.6
		c-1.1-0.3-2.2,0-3.1,0.8c-0.9,0.8-1.2,2-1,3.1l-6.2,4.9c-1-0.5-2.3-0.4-3.3,0.3c-1,0.7-1.5,1.8-1.5,2.9c0,0.3,0.3,0.4,0.5,0.3
		l1.3-1c0.1-0.1,0.2-0.1,0.3,0l1.3,0.5c0.1,0,0.2,0.1,0.2,0.3l0.2,1.4c0,0.1,0,0.2-0.1,0.3l-1.3,1c-0.2,0.2-0.1,0.5,0.1,0.6
		c1,0.2,2.1,0,2.9-0.6C457.3,468.5,457.7,467.2,457.5,466z"/>
	<g>
		<path fill="#66ADCB" d="M318.6,444.2c-0.5-0.7-1.5-0.8-2.2-0.2l-8,7.5c-0.2,0.2-0.2,0.6-0.1,0.8c0.2,0.2,0.5,0.3,0.8,0.1l9.1-6.1
			C319,445.9,319.1,444.9,318.6,444.2z"/>
		<path fill="#66ADCB" d="M322.6,438.9c-0.2-0.1-0.4,0.2-0.2,0.4c0.8,0.7,0.6,1.6-1,1.5c-3.3-0.2-3.2,4.4,0.8,3.2
			C324.5,443.3,325.5,439.8,322.6,438.9z"/>
	</g>
	
		<line fill="none" stroke="#66ADCB" stroke-width="4" stroke-linecap="round" stroke-miterlimit="10" x1="424.5" y1="351.4" x2="523.3" y2="362.8"/>
	<path fill="#E5A317" d="M358.1,352.4l-17.8-2.1l2-17.2l17.8,2.1c1.1,0.1,1.9,1.1,1.8,2.2l-1.5,13.3
		C360.2,351.8,359.2,352.6,358.1,352.4z"/>
	<path fill="#CB3503" d="M372,336.6l17.8,2.1l-2,17.2l-17.8-2.1c-1.1-0.1-1.9-1.1-1.8-2.2l1.5-13.3
		C369.9,337.2,370.9,336.5,372,336.6z"/>
	
		<ellipse transform="matrix(0.1146 -0.9934 0.9934 0.1146 77.6513 805.1072)" fill="#FFFFFF" cx="490.5" cy="359" rx="7.1" ry="7.1"/>
	
		<ellipse transform="matrix(0.1146 -0.9934 0.9934 0.1146 -44.9296 630.861)" fill="#FFFFFF" cx="331.5" cy="340.6" rx="2.1" ry="2.1"/>
	
		<ellipse transform="matrix(0.1146 -0.9934 0.9934 0.1146 -8.3489 682.8597)" fill="#FF7353" cx="378.9" cy="346.1" rx="2.1" ry="2.1"/>
	<path fill="#FFFFFF" d="M280.2,271.2l52.1-5.3l50.2,11.4l54.3-24.2l52-3.4l53.6-17.6L531,330.8c-0.1,0.9-0.9,1.5-1.8,1.4l-251.1-29
		c-0.9-0.1-1.5-0.9-1.4-1.8L280.2,271.2z"/>
	
		<ellipse transform="matrix(0.1146 -0.9934 0.9934 0.1146 30.0744 565.6038)" fill="#90DB6E" cx="332.4" cy="265.9" rx="4.6" ry="4.6"/>
	
		<ellipse transform="matrix(0.1146 -0.9934 0.9934 0.1146 135.2856 658.1356)" fill="#90DB6E" cx="436.9" cy="253.2" rx="4.6" ry="4.6"/>
	
		<ellipse transform="matrix(0.1146 -0.9934 0.9934 0.1146 184.6819 706.7427)" fill="#90DB6E" cx="488.8" cy="249.8" rx="4.6" ry="4.6"/>
	
		<ellipse transform="matrix(0.1146 -0.9934 0.9934 0.1146 63.1808 625.6151)" fill="#FFD31C" cx="382.6" cy="277.4" rx="4.6" ry="4.6"/>
	<path fill="#66ADCB" d="M163.6,356.8l-43.7-5c-1.1-0.1-1.9-1.1-1.8-2.2l5-43.7c0.1-1.1,1.1-1.9,2.2-1.8l43.7,5
		c1.1,0.1,1.9,1.1,1.8,2.2l-5,43.7C165.7,356.2,164.7,357,163.6,356.8z"/>
	<path fill="#66ADCB" d="M227.2,364.2l-43.7-5c-1.1-0.1-1.9-1.1-1.8-2.2l5-43.7c0.1-1.1,1.1-1.9,2.2-1.8l43.7,5
		c1.1,0.1,1.9,1.1,1.8,2.2l-5,43.7C229.3,363.5,228.3,364.3,227.2,364.2z"/>
	<path fill="#FFFFFF" d="M218,330.2l-17.5-2c-1.1-0.1-2,0.6-2.1,1.7l-1.7,14.9c-0.1,0.8,0.9,1.4,1.6,0.9l4.2-3.3l14.1,1.6
		c1.1,0.1,2-0.6,2.1-1.7l1.1-9.9C219.8,331.3,219,330.3,218,330.2z"/>
	
		<ellipse transform="matrix(0.1146 -0.9934 0.9934 0.1146 -210.4111 573.0275)" fill="#FFFFFF" cx="216.3" cy="404.6" rx="8.2" ry="8.2"/>
	
		<ellipse transform="matrix(0.1146 -0.9934 0.9934 0.1146 -283.575 469.0266)" fill="#FFFFFF" cx="121.3" cy="393.6" rx="8.2" ry="8.2"/>
	
		<ellipse transform="matrix(0.1146 -0.9934 0.9934 0.1146 -259.187 503.6936)" fill="#FFD31C" cx="153" cy="397.3" rx="8.2" ry="8.2"/>
	
		<ellipse transform="matrix(0.1146 -0.9934 0.9934 0.1146 -234.7991 538.3605)" fill="#FFFFFF" cx="184.6" cy="400.9" rx="8.2" ry="8.2"/>
	<path fill="#005779" d="M150.7,321.6c-2.1-0.2-4.1,0.6-5.4,2.2c-0.9-1.8-2.6-3.1-4.8-3.3c-3.3-0.4-6.4,2-6.8,5.4
		c-0.9,7.9,9.7,14.1,9.7,14.1s11.7-3.6,12.6-11.5C156.4,325,154,322,150.7,321.6z"/>
	<path fill="#D29D96" d="M194.3,248.7c-2.2-0.6-3.6-2.6-3.6-4.8l0-1.1c7.4-0.7,17.5-5.5,19-19.2c1.4-12.5-5.4-23.5-17.8-24.9
		c-12.5-1.4-21.6,7.7-23,20.2c-1.6,13.7,7.1,20.7,14.2,23l-0.2,1.1c-0.5,2.2-2.4,3.8-4.6,3.8c-10.6,0.3-17.2,5.4-17.2,5.4l22.3,20.5
		l26.4-14.9C209.8,257.9,204.5,251.4,194.3,248.7z"/>
	<path fill="#005779" d="M209.4,225.9c4.2-6.6,4.7-15.1,2.7-20.4c-3.6-9.1-9-3.2-9-3.2l0,0l0,0l0,0c0-0.5-0.1-0.9-0.2-1.2
		c-6.4-31.1-33.7-9.3-42.8,7.3l0,0l0,0c0,0,2,9.4,9,17.1c-0.3-2-0.3-4.2-0.1-6.7c0.1-0.8,0.2-1.6,0.4-2.4
		c10.6,4.4,25.1-0.2,33.1-13.1c-3.6,7.2,1.7,16.5,7.5,19.3c0,0.3,0,0.6-0.1,0.9C209.6,224.4,209.5,225.1,209.4,225.9z"/>
	<polygon fill="#FFC7D2" points="189.2,221.8 183.3,229.1 193.4,230.3 	"/>
	<path fill="#E1F073" d="M207.6,253.5c0.1,0.1,0.2,0.2,0.2,0.2C207.7,253.4,207.6,253.4,207.6,253.5z M164,248.6c0,0,0.1,0,0.2-0.1
		C164.2,248.4,164.1,248.4,164,248.6z M216.8,268.8c-2.9-11.1-9-15.2-9-15.2s-0.2,0.1-0.4,0.3c0.1-0.2,0.2-0.3,0.2-0.4
		c-0.9-0.6-4.7-3.1-10.5-5.3c0,0-4,7-11.6,6.1c-7.6-0.9-9.9-8.6-9.9-8.6c-6.1,0.8-10.3,2.3-11.4,2.7c0,0.1,0.1,0.2,0.1,0.4
		c-0.2-0.2-0.4-0.4-0.4-0.4s-6.9,2.6-12.3,12.7c-0.5,1-1,2-1.5,2.9c8.2,8.8,19.4,14.8,32.3,16.3c12.9,1.5,25.2-1.8,35.2-8.5
		C217.4,270.9,217.1,269.9,216.8,268.8z"/>
</g>
</svg>
