<?xml version="1.0" encoding="utf-8"?>
<!-- Generator: Adobe Illustrator 19.2.0, SVG Export Plug-In . SVG Version: 6.00 Build 0)  -->
<svg version="1.1" id="Layer_1" xmlns="http://www.w3.org/2000/svg" xmlns:xlink="http://www.w3.org/1999/xlink" x="0px" y="0px"
	 viewBox="0 0 550 550" enable-background="new 0 0 550 550" xml:space="preserve">
<path fill="#E6FFDA" d="M496.5,437c99-126.6-100.2-495.4-229.8-341.3C142,244.2,116.5,118.1,52.7,158
	c-41.7,26.1-23.4,166,55.6,253.7c114.5,127.2,236.4,102.1,227.1,3.7C320,252,424.6,528.9,496.5,437z"/>
<path fill="#FF6152" d="M144,248l-35.5-2.8c23.3-30.1,82-57.3,165.4-57.3c87.7,0,140.8,23.1,168.8,40.9c2.7,1.7,5.6-1.9,3.2-4.1
	c-27.4-24.1-83-57.4-180.8-57.4C147.9,167.3,82.5,205.1,63,240c-0.3,0.5-0.5,1-0.7,1.5l-37.5-3c-2.6-0.2-3.9,2.9-1.9,4.5L72,283.1
	c0.8,0.6,1.8,0.8,2.8,0.4l70.1-30.6C147.4,251.8,146.7,248.2,144,248z"/>
<path fill="#FF6152" d="M529.9,308.4l-49.1-40.1c-0.8-0.6-1.8-0.8-2.8-0.4l-70.1,30.6c-2.5,1.1-1.9,4.7,0.9,4.9l35.5,2.8
	c-23.3,30.1-82,57.3-165.4,57.3c-87.7,0-140.8-23.1-168.8-40.9c-2.7-1.7-5.6,1.9-3.2,4.1c27.4,24.1,83,57.4,180.8,57.4
	c117.2,0,182.6-37.8,202.1-72.7c0.3-0.5,0.5-1,0.7-1.5l37.5,3C530.5,313.2,531.8,310,529.9,308.4z"/>
<circle fill="#4E9FC7" cx="364.5" cy="361.1" r="65.3"/>
<path fill-rule="evenodd" clip-rule="evenodd" fill="#FFFFFF" d="M346,370.9c1.1,0.3,2.2,0.6,3.3,0.8c0.9,0.1,1.9,0.1,2.8-0.1
	c1.7-0.4,2.6-1.7,2.7-3.4c0-0.4,0-0.9,0-1.3c-0.2,0-0.2,0-0.3,0c-1.9,1.9-4.3,2-6.6,1.1c-2.4-0.9-3.6-2.8-4.1-5.2
	c-0.4-1.9-0.3-3.9,0.4-5.7c1.6-4.3,7.3-5.6,10.6-2.4c0.1,0.1,0.2,0.1,0.3,0.2c0.5-1.3,0.8-1.5,2.2-1.5c2,0,4.1,0,6.1,0
	c1.9,0,2.6,0.6,2.4,2.4c0,0.2,0,0.4,0,0.5c0.8-0.8,1.5-1.7,2.3-2.4c0.9-0.7,2-0.9,3.3-0.7c0,1.1,0,2.2,0,3.4c0,0.5-0.4,0.3-0.7,0.3
	c-2.2,0-3.9,1.3-4.4,3.4c-0.2,0.6-0.2,1.2-0.3,1.8c0,1.9,0,3.8,0,5.8c0,0.2,0,0.5,0,0.8c-1.3,0-2.5,0-3.8,0c0-0.1-0.1-0.2-0.1-0.4
	c0-3.5,0-6.9,0-10.4c0-1.3-0.1-1.4-1.4-1.4c-2.5,0-2.2-0.1-2.2,2.2c0,2.9,0,5.9,0,8.8c0,4.2-2.1,6.7-6.2,7.4c-2.4,0.4-4.7,0-7-0.9
	c-0.3-0.1-0.5-0.2-0.3-0.6C345.3,372.5,345.7,371.7,346,370.9z M347.2,360.5c0.2,0.8,0.3,1.6,0.5,2.3c0.6,1.6,2,2.4,3.7,2.3
	c1.5-0.1,2.7-1.1,3.1-2.7c0.3-1.2,0.3-2.5,0-3.7c-0.7-2.4-3.8-3.4-5.8-1.8C347.6,357.8,347.3,359.1,347.2,360.5z"/>
<path fill-rule="evenodd" clip-rule="evenodd" fill="#FFFFFF" d="M398.5,354.5c0-1.2,0-2.4,0-3.5c0-0.5-0.5-0.5-0.9-0.5
	c-0.9-0.1-0.9-0.1-0.9-1c0-0.6,0-1.2,0-1.8c0-0.4,0.1-0.5,0.5-0.5c1.2,0,2.4,0,3.6,0c0.9,0,1.4,0.5,1.6,1.4c0.1,0.3,0.1,0.7,0.1,1
	c0,4.9,0,9.7,0,14.6c0,1.1,0.1,1.2,1.2,1.2c0.5,0,0.7,0.1,0.7,0.7c0,0.7,0,1.4,0,2.1c0,0.4-0.1,0.6-0.5,0.5c-1,0-2,0-2.9,0
	c-1.4-0.1-1.7-0.3-2.1-1.8c-0.1,0.1-0.2,0.1-0.3,0.2c-2.3,2.9-8,2.7-10.1-1.2c-1.7-3.2-1.7-6.5,0-9.7c1.9-3.5,6.9-4.4,9.9-1.8
	C398.2,354.4,398.3,354.4,398.5,354.5z M398.6,361.1c0.1,0,0.1,0,0.2-0.1c-0.3-1-0.5-1.9-0.9-2.8c-0.6-1.2-1.6-1.9-3-2
	c-1.4,0-2.5,0.6-3.2,1.8c-1.1,2-1.1,4.1,0.1,6.1c1.3,2.3,4.6,2.3,6,0.1C398.4,363.2,398.6,362.2,398.6,361.1z"/>
<path fill-rule="evenodd" clip-rule="evenodd" fill="#FFFFFF" d="M330.7,355.7c0.2-0.2,0.3-0.3,0.4-0.4c1.7-2.3,4.6-2.9,7.1-2.1
	c1.9,0.5,2.8,1.9,3,3.7c0.2,1.7,0.1,3.4,0.2,5.1c0,0.8,0,1.7,0,2.5c0,0.6,0.3,0.9,0.9,0.9c1.1,0,1-0.1,1,1c0,0.6,0,1.2,0,1.8
	c0,0.2-0.3,0.5-0.4,0.5c-1.2,0-2.4,0-3.6-0.1c-1.2-0.1-1.6-0.6-1.6-1.8c0-2.4,0-4.7,0-7.1c0-0.6-0.1-1.2-0.2-1.8
	c-0.3-1-0.9-1.5-2-1.6c-2.3-0.1-4.3,1.5-4.5,4c-0.2,2.2-0.1,4.3-0.1,6.5c0,1.9,0,1.9-1.9,1.9c-1.9,0-1.9,0-1.9-1.9
	c0-3.1,0-6.1,0-9.2c0-1-0.1-1.2-1.1-1.2c-0.5,0-0.8-0.1-0.8-0.7c0-0.7,0-1.4,0-2.1c0-0.2,0.3-0.5,0.4-0.5c1.2,0,2.3-0.1,3.5,0
	c1.2,0.1,1.6,0.6,1.7,1.8C330.6,355.3,330.7,355.4,330.7,355.7z"/>
<path fill-rule="evenodd" clip-rule="evenodd" fill="#FFFFFF" d="M381.4,366.7c-0.2,0.2-0.3,0.3-0.4,0.5c-1.9,2.3-5.8,2.6-8,0.5
	c-2.3-2.2-1.7-5.8,1-7.3c2-1,4.1-1.3,6.2-1.3c1,0,1.1-0.1,0.9-1.1c-0.3-1.3-1-2-2.3-2c-0.5,0-1,0-1.4,0.1c-0.7,0.1-1.1,0.5-1.1,1.3
	c0,0.4-0.2,0.5-0.5,0.5c-0.8,0-1.6,0-2.5,0c-0.4,0-0.5-0.2-0.6-0.6c-0.2-2.4,0.5-3.4,2.8-3.9c2-0.5,4-0.5,6,0.1
	c2.1,0.7,3.2,2.2,3.4,4.2c0.2,2.2,0.1,4.5,0.2,6.7c0,1.1,0.1,1.2,1.1,1.1c0.6,0,0.8,0.2,0.7,0.7c0,0.7,0,1.4,0,2.1
	c0,0.2-0.3,0.5-0.4,0.5c-1,0-2.1,0.1-3.1,0C382,368.6,381.7,368.3,381.4,366.7z M380.3,361.5c-0.1,0-0.1,0-0.2,0
	c-1.2,0.3-2.5,0.5-3.6,0.9c-1.4,0.6-1.5,2.3-0.4,3.2c0.6,0.5,1.3,0.6,2.1,0.4c1.6-0.4,2.5-1.6,2.9-3.2
	C381.4,361.7,381.4,361.5,380.3,361.5z"/>
<path fill-rule="evenodd" clip-rule="evenodd" fill="#FFFFFF" d="M408.4,361.6c0,2,1.5,3.6,3.5,4.1c1.4,0.3,2.6,0,5.4-1.6
	c0.5,0.8,1,1.7,1.6,2.6c-1.2,1.1-2.6,1.7-4.1,2.1c-2.1,0.5-4.2,0.3-6.1-0.7c-3.1-1.5-4.6-5-4.2-8.2c0.2-1.4,0.6-2.7,1.4-3.9
	c2.6-3.9,8.9-4.3,11.7-0.8c1.4,1.7,1.7,3.8,1.5,6c0,0.5-0.4,0.4-0.7,0.4c-3,0-6,0-9.1,0C409,361.6,408.7,361.6,408.4,361.6z
	 M411.7,359L411.7,359c0.9,0,1.8,0,2.7,0c0.6,0,0.8-0.2,0.6-0.8c-0.4-1.5-1.5-2.4-3-2.3c-1.6,0-3.1,1.2-3.4,2.6
	c-0.1,0.4,0.1,0.5,0.5,0.5C410,359,410.9,359,411.7,359z"/>
<path fill-rule="evenodd" clip-rule="evenodd" fill="#FFFFFF" d="M322.9,364.1c0.5,0.8,1,1.6,1.4,2.4c0.1,0.1,0,0.5-0.2,0.5
	c-2.7,2-5.7,2.6-8.9,1.5c-3-1-4.8-3.3-5.2-6.4c-0.8-6.5,4.2-10.5,10.1-8.9c2.7,0.8,4,2.9,4.4,5.5c0.1,0.7,0.1,1.4,0.1,2.1
	c0,0.6-0.2,0.8-0.8,0.7c-3,0-5.9,0-8.9,0c-0.3,0-0.5,0-0.9,0c0.1,1.4,0.7,2.5,1.7,3.2C318.2,366.6,320.6,365.7,322.9,364.1z
	 M314.2,358.9c0.3,0,0.5,0,0.7,0c1.7,0,3.4,0,5.1,0c0.7,0,0.8-0.1,0.6-0.9c-0.4-1.5-1.6-2.3-3.2-2.2
	C315.8,356,314.4,357.3,314.2,358.9z"/>
<circle fill="#FFD21B" cx="314.4" cy="191.7" r="64.8"/>
<path fill="#FFFFFF" d="M349.9,168.8c0,0-1.4-11.8-36.6-11.8S279,168.8,279,168.8l1.3,47.3l22.5,8.5l11.7,11.5l11.4-11.5l22.8-8.5
	L349.9,168.8z"/>
<path fill="#3D93C6" d="M314.4,154.7c0,0-15.4-0.5-26.2,2.6c-10.7,3.1-11.4,12.2-12.7,23.1c0,0-1.3,21.7,2.5,32.2
	c0,0,0.7,8.3,9,10.4c8.3,2.1,13,2.3,13,2.3l14.3,14v-6.3L304,222.5c0,0-1-1.6-3.1-1.8c-2.1-0.2-16.6-0.5-18.5-9.6
	c-2-9.1-3.1-19.8-1.6-33.5c1.5-13.7,6.8-16.3,14.1-17.2c7.3-1,19.5-1.5,19.5-1.5V154.7z"/>
<path fill="#3D93C6" d="M303.4,172.4c-6.7,0-12.2,5.5-12.2,12.3s5.5,12.3,12.2,12.3c6.7,0,12.2-5.5,12.2-12.3
	S310.1,172.4,303.4,172.4z M303.6,193.7c-5,0-9-4-9-8.9c0-4.9,4-8.9,9-8.9c5,0,9,4,9,8.9C312.6,189.7,308.6,193.7,303.6,193.7z"/>
<rect x="278.9" y="181.3" fill="#3D93C6" width="12.9" height="4.9"/>
<ellipse fill="#3D93C6" cx="304.3" cy="187.5" rx="3.2" ry="3.5"/>
<path fill="#3D93C6" d="M314.3,211.1c-8.8,0-12.2-5.5-12.4-5.7c-0.5-0.8-0.2-1.9,0.6-2.3c0.8-0.5,1.8-0.2,2.3,0.6
	c0.1,0.2,2.6,4.1,9.4,4.1c0.9,0,1.7,0.8,1.7,1.7C316,210.3,315.2,211.1,314.3,211.1z"/>
<path fill="#3D93C6" d="M314.4,154.7c0,0,15.4-0.5,26.2,2.6c10.7,3.1,11.4,12.2,12.7,23.1c0,0,1.3,21.7-2.5,32.2c0,0-0.7,8.3-9,10.4
	c-8.3,2.1-13,2.3-13,2.3l-14.3,14v-6.3l10.4-10.4c0,0,1-1.6,3.1-1.8c2.1-0.2,16.6-0.5,18.5-9.6c2-9.1,3.1-19.8,1.6-33.5
	c-1.5-13.7-6.8-16.3-14.1-17.2c-7.3-1-19.5-1.5-19.5-1.5V154.7z"/>
<path fill="#3D93C6" d="M313.3,184.7c0,6.8,5.5,12.3,12.2,12.3s12.2-5.5,12.2-12.3s-5.5-12.3-12.2-12.3S313.3,177.9,313.3,184.7z
	 M316.2,184.8c0-4.9,4-8.9,9-8.9c5,0,9,4,9,8.9c0,4.9-4,8.9-9,8.9C320.2,193.7,316.2,189.7,316.2,184.8z"/>
<rect x="337.1" y="181.3" fill="#3D93C6" width="12.9" height="4.9"/>
<ellipse fill="#3D93C6" cx="324.6" cy="187.5" rx="3.2" ry="3.5"/>
<path fill="#3D93C6" d="M314.6,211.1c-0.9,0-1.7-0.8-1.7-1.7c0-0.9,0.8-1.7,1.7-1.7c6.9,0,9.4-4,9.4-4c0.5-0.8,1.5-1.1,2.3-0.6
	c0.8,0.5,1.1,1.5,0.6,2.3C326.8,205.6,323.4,211.1,314.6,211.1z"/>
<circle fill="#4593CA" cx="181.1" cy="182.5" r="52.1"/>
<path fill="#FFFFFF" d="M181.1,146.3c-19.9,0-36.2,16.2-36.2,36.2s16.2,36.2,36.2,36.2c19.9,0,36.2-16.2,36.2-36.2
	S201.1,146.3,181.1,146.3z M181.1,213.8c-17.3,0-31.3-14-31.3-31.3s14-31.3,31.3-31.3c17.3,0,31.3,14,31.3,31.3
	S198.4,213.8,181.1,213.8z M177,177.2c-7.8-2-6.3-11.8,4.1-11c10.4,0.8,9.6,9,9.6,9l7.8-1.1c-2.1-13.7-17.4-13.6-17.4-13.6
	c-14.8,0.5-16.1,8.2-16.5,13.1c-0.4,4.9,4.5,9.8,16.5,11.6c12,1.8,11.1,6.1,10.3,9.2c-0.8,3.2-7.3,5.9-14.1,4
	c-6.8-1.9-6.4-10-6.4-10l-7.8,1.4c0.5,6.6,5.2,14.7,18.1,14.8c12.9,0.1,16.9-6.8,17.8-10.3c0.9-3.5-0.5-7.3-0.5-7.3
	C195.3,180.1,184.8,179.2,177,177.2z"/>
<circle fill="#FFFFFF" cx="208.1" cy="340.2" r="64.1"/>
<path fill-rule="evenodd" clip-rule="evenodd" fill="#3073EF" d="M173.9,348.1c-0.1,0-0.1,0-0.2,0c-0.1,0-0.2,0-0.4,0
	c-0.4,0-0.8,0-1.2,0c-0.1,0-0.2,0-0.4,0c-0.1,0-0.1,0-0.2,0c-0.1,0-0.1,0-0.2,0c0,0-0.1,0-0.1,0c-0.1,0-0.1,0-0.2,0
	c-5.8-0.7-10.4-5.3-11.1-11.1c0-0.1,0-0.2,0-0.2c0,0,0-0.1,0-0.1c0-0.1,0-0.2,0-0.3c0,0,0,0,0-0.1c0-0.1,0-0.3,0-0.4
	c0-0.3,0-0.6,0-0.8c0-0.1,0-0.3,0-0.4c0,0,0,0,0-0.1c0-0.1,0-0.2,0-0.3c0-0.1,0-0.1,0-0.2c0-0.1,0-0.1,0-0.2
	c0.1-0.9,0.3-1.8,0.6-2.7c0.4-1.2,1-2.3,1.8-3.3c0.5-0.6,1-1.2,1.5-1.7c0.6-0.6,1.3-1.1,2.1-1.6c1.2-0.7,2.5-1.3,3.9-1.5
	c0.4-0.1,0.8-0.1,1.1-0.2c0.1,0,0.1,0,0.2,0c0,0,0.1,0,0.1,0c0.1,0,0.2,0,0.2,0c0.1,0,0.1,0,0.2,0c0.1,0,0.2,0,0.3,0
	c0.5,0,0.9,0,1.4,0c0.1,0,0.2,0,0.3,0c0.1,0,0.1,0,0.2,0c0.1,0,0.2,0,0.2,0c0,0,0.1,0,0.1,0c0.1,0,0.1,0,0.2,0
	c0.6,0.1,1.2,0.2,1.7,0.4c1.6,0.4,3,1.1,4.3,2.1c0.3,0.2,0.6,0.5,1,0.8c-0.2,0.2-0.4,0.4-0.6,0.7c-0.6,0.6-1.1,1.1-1.7,1.7
	c-0.2,0.2-0.2,0.2-0.4,0c-0.6-0.6-1.3-1-2.1-1.4c-0.7-0.3-1.4-0.5-2.1-0.7c-0.2,0-0.4-0.1-0.6-0.1c-0.1,0-0.1,0-0.2,0
	c0,0-0.1,0-0.1,0c-0.1,0-0.2,0-0.3,0c-0.1,0-0.2,0-0.3,0c-0.1,0-0.3,0-0.4,0c-0.1,0-0.3,0-0.5,0c-0.1,0-0.2,0-0.3,0
	c-0.6,0-1.1,0.1-1.7,0.3c-1.3,0.4-2.4,1-3.4,1.8c-1.4,1.2-2.3,2.6-2.9,4.3c-0.2,0.6-0.3,1.1-0.3,1.7c0,0.1,0,0.2,0,0.2
	c0,0.1,0,0.1,0,0.2c0,0.4,0,0.8,0,1.2c0,0.1,0,0.1,0,0.2c0,0.1,0,0.2,0,0.2c0,0.5,0.1,1,0.3,1.5c0.3,1.2,0.9,2.3,1.7,3.3
	c0.7,0.9,1.6,1.7,2.7,2.3c1,0.5,2,0.9,3.1,1.1c0.1,0,0.1,0,0.2,0c0.1,0,0.1,0,0.2,0c0,0,0.1,0,0.1,0c0.1,0,0.2,0,0.3,0
	c0.2,0,0.3,0.1,0.5,0c0.1,0,0.2,0,0.3,0c0.1,0,0.2,0,0.3,0c0.1,0,0.2,0,0.3,0c0.1,0,0.1,0,0.2,0c0.1,0,0.1,0,0.2,0
	c0.6,0,1.1-0.2,1.6-0.4c0.9-0.3,1.7-0.7,2.5-1.2c0.3-0.2,0.6-0.5,0.9-0.7c0.4-0.4,0.8-0.9,1.1-1.5c0.4-0.7,0.6-1.4,0.8-2.2
	c0-0.2,0-0.4,0.1-0.5c0-0.1,0-0.2,0-0.2c0-0.1,0,0-0.1,0c-0.9,0-1.7,0-2.6,0c-0.1,0-0.1,0-0.2,0c-1.3,0-2.7,0-4,0
	c-0.1,0-0.1,0-0.2,0c-0.4,0-0.8,0-1.1,0c0,0,0-0.1,0-0.2c0-1,0-2.1,0-3.1c0-0.1,0-0.2,0.2-0.2c3.8,0,7.6,0,11.3,0c0.1,0,0.1,0,0.2,0
	c0,0.1,0,0.2,0,0.2c0,0.1,0,0.1,0,0.2c0,0,0,0.1,0,0.1c0,0.1,0,0.2,0,0.2c0,0.1,0,0.1,0,0.2c0,0.1,0,0.2,0,0.4c0,0.2,0,0.3,0,0.5
	c0,0.1,0,0.3,0,0.4c0,0.2,0,0.3,0,0.5c0,0.1,0,0.2,0,0.3c0,0.1,0,0.1,0,0.2c0,0.1,0,0.2,0,0.2c0,0,0,0.1,0,0.1c0,0.1,0,0.1,0,0.2
	c-0.1,0.6-0.2,1.1-0.3,1.7c-0.4,1.5-1.1,2.9-2.1,4.2c-1.1,1.3-2.5,2.3-4,3.1c-0.9,0.4-1.8,0.7-2.8,0.9c-0.3,0.1-0.5,0.1-0.8,0.1
	c-0.1,0-0.1,0-0.2,0c0,0-0.1,0-0.1,0C174,348.1,173.9,348.1,173.9,348.1z"/>
<path fill-rule="evenodd" clip-rule="evenodd" fill="#269841" d="M239.3,323.6c0,0,0.1,0,0.1,0c1.1,0,2.2,0,3.3,0
	c0.1,0,0.2,0,0.2,0.2c0,7.9,0,15.8,0,23.7c0,0.1,0,0.2-0.1,0.2c-1.1,0-2.3,0-3.4,0c0,0,0,0-0.1,0c0-0.1,0-0.1,0-0.2
	c0-7.9,0-15.7,0-23.6C239.2,323.7,239.2,323.7,239.3,323.6z"/>
<path fill-rule="evenodd" clip-rule="evenodd" fill="#269841" d="M239.3,323.6c0,0.1,0,0.1,0,0.2c0,7.9,0,15.7,0,23.6
	c0,0.1,0,0.1,0,0.2c-0.1-0.1,0-0.1,0-0.2c0-7.9,0-15.7,0-23.6C239.2,323.7,239.2,323.7,239.3,323.6z"/>
<path fill-rule="evenodd" clip-rule="evenodd" fill="#3073EF" d="M236.8,348.2c0-2,0-4,0-6c0-3.2,0-6.5,0-9.7c0-0.1,0-0.2,0-0.2
	c0.1,0,0,0.1,0,0.2c0,5.2,0,10.4,0,15.6C236.8,348.1,236.9,348.1,236.8,348.2z"/>
<path fill-rule="evenodd" clip-rule="evenodd" fill="#3073EF" d="M184.4,334.3c-0.1,0-0.1,0-0.2,0c-3.8,0-7.5,0-11.3,0
	c-0.2,0-0.2,0.1-0.2,0.2c0,1,0,2,0,3c0,0.1,0,0.1,0,0.2c-0.1,0,0-0.1,0-0.2c0-1,0-2.1,0-3.1c0-0.2,0-0.2,0.2-0.2c3.8,0,7.6,0,11.3,0
	C184.2,334.3,184.3,334.3,184.4,334.3z"/>
<path fill-rule="evenodd" clip-rule="evenodd" fill="#3073EF" d="M173.8,337.7c1.2,0,2.4,0,3.6,0c0.3,0,0.6,0,0.8,0
	c-1.4,0-2.8,0-4.3,0C173.9,337.8,173.9,337.8,173.8,337.7z"/>
<path fill-rule="evenodd" clip-rule="evenodd" fill="#E43125" d="M185.6,339.4c0,0.4,0,0.8,0,1.1c-0.1-0.1,0-0.3,0-0.4
	C185.6,339.9,185.5,339.6,185.6,339.4z"/>
<path fill-rule="evenodd" clip-rule="evenodd" fill="#3073EF" d="M163.6,336c0-0.4,0-0.8,0-1.2C163.6,335.3,163.6,335.7,163.6,336z"
	/>
<path fill-rule="evenodd" clip-rule="evenodd" fill="#3073EF" d="M228.4,348.1c0.3,0,0.7,0,1,0C229.1,348.1,228.8,348.1,228.4,348.1
	z"/>
<path fill-rule="evenodd" clip-rule="evenodd" fill="#3073EF" d="M221.1,339.6c0,0.2,0,0.4,0,0.7C221.1,340,221.1,339.8,221.1,339.6
	z"/>
<path fill-rule="evenodd" clip-rule="evenodd" fill="#3073EF" d="M233.4,333c0,0.2,0,0.3,0,0.5c0,0,0,0.1-0.1,0c0.1-0.1,0-0.2,0-0.3
	C233.4,333.2,233.4,333.1,233.4,333z"/>
<path fill-rule="evenodd" clip-rule="evenodd" fill="#3073EF" d="M159.8,335.9c0,0.1,0,0.3,0,0.4C159.8,336.2,159.9,336,159.8,335.9
	z"/>
<path fill-rule="evenodd" clip-rule="evenodd" fill="#3073EF" d="M159.9,334.6c0,0.1,0,0.3,0,0.4
	C159.9,334.9,159.8,334.7,159.9,334.6z"/>
<path fill-rule="evenodd" clip-rule="evenodd" fill="#F4AB00" d="M203.4,340.2c0,0.1,0,0.3,0,0.4
	C203.3,340.5,203.4,340.3,203.4,340.2z"/>
<path fill-rule="evenodd" clip-rule="evenodd" fill="#F4AB00" d="M203.4,339.3c0,0.1,0,0.3,0,0.4
	C203.4,339.6,203.3,339.4,203.4,339.3z"/>
<path fill-rule="evenodd" clip-rule="evenodd" fill="#F4AB00" d="M219.8,339.7c0-0.1,0-0.3,0-0.4
	C219.9,339.4,219.8,339.6,219.8,339.7z"/>
<path fill-rule="evenodd" clip-rule="evenodd" fill="#3073EF" d="M184.5,336.5c0-0.1,0-0.3,0-0.4
	C184.6,336.3,184.6,336.4,184.5,336.5z"/>
<path fill-rule="evenodd" clip-rule="evenodd" fill="#F4AB00" d="M219.8,340.6c0-0.1,0-0.3,0-0.4
	C219.8,340.3,219.9,340.5,219.8,340.6z"/>
<path fill-rule="evenodd" clip-rule="evenodd" fill="#E43125" d="M193.6,348.2c0.1,0,0.3,0,0.4,0
	C193.9,348.2,193.7,348.2,193.6,348.2z"/>
<path fill-rule="evenodd" clip-rule="evenodd" fill="#3073EF" d="M172.6,326.3c0.1,0,0.3,0,0.4,0
	C172.9,326.3,172.7,326.3,172.6,326.3z"/>
<path fill-rule="evenodd" clip-rule="evenodd" fill="#F4AB00" d="M211.4,348.2c0.1,0,0.3,0,0.4,0
	C211.7,348.2,211.5,348.2,211.4,348.2z"/>
<path fill-rule="evenodd" clip-rule="evenodd" fill="#3073EF" d="M184.5,335.7c0-0.1,0-0.2,0-0.4
	C184.5,335.4,184.5,335.5,184.5,335.7z"/>
<path fill-rule="evenodd" clip-rule="evenodd" fill="#3073EF" d="M173.3,348.2c0.1,0,0.2,0,0.4,0
	C173.6,348.2,173.4,348.2,173.3,348.2z"/>
<path fill-rule="evenodd" clip-rule="evenodd" fill="#E43125" d="M202,339.6c0-0.1,0-0.2,0-0.4C202.1,339.4,202,339.5,202,339.6z"/>
<path fill-rule="evenodd" clip-rule="evenodd" fill="#3073EF" d="M171.8,348.1c0.1,0,0.2,0,0.4,0C172,348.2,171.9,348.2,171.8,348.1
	z"/>
<path fill-rule="evenodd" clip-rule="evenodd" fill="#3073EF" d="M233.5,332.3c0,0.1,0,0.2,0,0.4
	C233.4,332.6,233.4,332.4,233.5,332.3z"/>
<path fill-rule="evenodd" clip-rule="evenodd" fill="#3073EF" d="M233.5,346.3c0,0.1,0,0.2,0,0.3
	C233.4,346.6,233.5,346.4,233.5,346.3z"/>
<path fill-rule="evenodd" clip-rule="evenodd" fill="#3073EF" d="M173,344.6c-0.1,0-0.2,0-0.3,0C172.8,344.6,172.9,344.6,173,344.6z
	"/>
<path fill-rule="evenodd" clip-rule="evenodd" fill="#E43125" d="M202,340.6c0-0.1,0-0.2,0-0.3C202,340.4,202.1,340.5,202,340.6z"/>
<path fill-rule="evenodd" clip-rule="evenodd" fill="#3073EF" d="M229.6,355.3c0.1,0,0.2,0,0.3,0
	C229.8,355.4,229.7,355.3,229.6,355.3z"/>
<path fill-rule="evenodd" clip-rule="evenodd" fill="#3073EF" d="M184.5,337.4c0-0.1,0-0.2,0-0.3
	C184.5,337.2,184.5,337.3,184.5,337.4z"/>
<path fill-rule="evenodd" clip-rule="evenodd" fill="#3073EF" d="M233.5,347.1c0,0.1,0,0.2,0,0.3
	C233.5,347.3,233.5,347.2,233.5,347.1z"/>
<path fill-rule="evenodd" clip-rule="evenodd" fill="#3073EF" d="M172,322.8c-0.1,0-0.2,0-0.3,0C171.8,322.7,171.9,322.8,172,322.8z
	"/>
<path fill-rule="evenodd" clip-rule="evenodd" fill="#3073EF" d="M173.7,322.8c-0.1,0-0.2,0-0.3,0
	C173.5,322.8,173.6,322.7,173.7,322.8z"/>
<path fill-rule="evenodd" clip-rule="evenodd" fill="#3073EF" d="M228.2,355.3c0.1,0,0.2,0,0.3,0
	C228.4,355.3,228.3,355.4,228.2,355.3z"/>
<path fill-rule="evenodd" clip-rule="evenodd" fill="#3073EF" d="M173.3,326.3c0.1,0,0.2,0,0.3,0
	C173.5,326.3,173.4,326.3,173.3,326.3z"/>
<path fill-rule="evenodd" clip-rule="evenodd" fill="#3073EF" d="M229.2,352.2c-0.1,0-0.2,0-0.3,0
	C229,352.2,229.1,352.2,229.2,352.2z"/>
<path fill-rule="evenodd" clip-rule="evenodd" fill="#3073EF" d="M172.2,344.6c-0.1,0-0.2,0-0.3,0
	C172,344.6,172.1,344.6,172.2,344.6z"/>
<path fill-rule="evenodd" clip-rule="evenodd" fill="#3073EF" d="M228.7,352.2c-0.1,0-0.2,0-0.3,0
	C228.5,352.2,228.6,352.2,228.7,352.2z"/>
<path fill-rule="evenodd" clip-rule="evenodd" fill="#3073EF" d="M233.5,347.8c0,0.1,0,0.2,0,0.3C233.5,348,233.4,347.9,233.5,347.8
	z"/>
<path fill-rule="evenodd" clip-rule="evenodd" fill="#3073EF" d="M159.9,336.4c0,0.1,0,0.2,0,0.3
	C159.8,336.6,159.9,336.5,159.9,336.4z"/>
<path fill-rule="evenodd" clip-rule="evenodd" fill="#3073EF" d="M173.6,344.6c-0.1,0-0.2,0-0.3,0
	C173.4,344.6,173.5,344.6,173.6,344.6z"/>
<path fill-rule="evenodd" clip-rule="evenodd" fill="#E43125" d="M193,348.1c0.1,0,0.2,0,0.3,0C193.2,348.2,193.1,348.2,193,348.1z"
	/>
<path fill-rule="evenodd" clip-rule="evenodd" fill="#E43125" d="M194.3,348.2c0.1,0,0.2,0,0.3,0
	C194.5,348.2,194.4,348.2,194.3,348.2z"/>
<path fill-rule="evenodd" clip-rule="evenodd" fill="#3073EF" d="M171.9,326.3c0.1,0,0.2,0,0.3,0C172.1,326.3,172,326.3,171.9,326.3
	z"/>
<path fill-rule="evenodd" clip-rule="evenodd" fill="#3073EF" d="M159.9,334.3c0,0.1,0,0.2,0,0.3
	C159.9,334.5,159.8,334.4,159.9,334.3z"/>
<path fill-rule="evenodd" clip-rule="evenodd" fill="#F4AB00" d="M210.8,348.1c0.1,0,0.2,0,0.3,0C211,348.2,210.9,348.2,210.8,348.1
	z"/>
<path fill-rule="evenodd" clip-rule="evenodd" fill="#F4AB00" d="M211,331.7c-0.1,0-0.2,0-0.3,0C210.8,331.7,210.9,331.7,211,331.7z
	"/>
<path fill-rule="evenodd" clip-rule="evenodd" fill="#F4AB00" d="M212.1,348.2c0.1,0,0.2,0,0.3,0
	C212.3,348.2,212.2,348.2,212.1,348.2z"/>
<path fill-rule="evenodd" clip-rule="evenodd" fill="#3073EF" d="M171.6,322.8c-0.1,0-0.1,0-0.2,0
	C171.4,322.8,171.5,322.8,171.6,322.8z"/>
<path fill-rule="evenodd" clip-rule="evenodd" fill="#3073EF" d="M174.1,322.8c-0.1,0-0.2,0-0.2,0C174,322.8,174,322.8,174.1,322.8z
	"/>
<path fill-rule="evenodd" clip-rule="evenodd" fill="#3073EF" d="M180.9,337.8c0,0.1,0,0.2,0,0.2C180.9,338,180.8,337.9,180.9,337.8
	z"/>
<path fill-rule="evenodd" clip-rule="evenodd" fill="#E43125" d="M185.6,340.7c0,0.1,0,0.1,0,0.2
	C185.6,340.8,185.6,340.8,185.6,340.7z"/>
<path fill-rule="evenodd" clip-rule="evenodd" fill="#3073EF" d="M184.4,337.8c0-0.1,0-0.2,0-0.2
	C184.5,337.7,184.5,337.7,184.4,337.8z"/>
<path fill-rule="evenodd" clip-rule="evenodd" fill="#E43125" d="M194.7,331.8c-0.1,0-0.2,0-0.2,0
	C194.5,331.7,194.6,331.7,194.7,331.8z"/>
<path fill-rule="evenodd" clip-rule="evenodd" fill="#3073EF" d="M163.6,334.7c0-0.1,0-0.2,0-0.2
	C163.6,334.5,163.6,334.6,163.6,334.7z"/>
<path fill-rule="evenodd" clip-rule="evenodd" fill="#3073EF" d="M221.2,340.5c0,0.1,0,0.1,0,0.2
	C221.1,340.6,221.2,340.5,221.2,340.5z"/>
<path fill-rule="evenodd" clip-rule="evenodd" fill="#F4AB00" d="M203.4,340.7c0,0.1,0,0.1,0,0.2
	C203.4,340.9,203.4,340.8,203.4,340.7z"/>
<path fill-rule="evenodd" clip-rule="evenodd" fill="#3073EF" d="M221.2,339.1c0,0.1,0,0.2,0,0.2
	C221.2,339.3,221.1,339.2,221.2,339.1z"/>
<path fill-rule="evenodd" clip-rule="evenodd" fill="#E43125" d="M185.6,339c0,0.1,0,0.2,0,0.2C185.6,339.1,185.6,339.1,185.6,339z"
	/>
<path fill-rule="evenodd" clip-rule="evenodd" fill="#F4AB00" d="M219.8,340.9c0-0.1,0-0.2,0-0.2
	C219.8,340.8,219.8,340.9,219.8,340.9z"/>
<path fill-rule="evenodd" clip-rule="evenodd" fill="#3073EF" d="M159.9,336.8c0,0.1,0,0.1,0,0.2
	C159.9,336.9,159.9,336.8,159.9,336.8z"/>
<path fill-rule="evenodd" clip-rule="evenodd" fill="#3073EF" d="M229.8,352.2c-0.1,0-0.1,0-0.2,0
	C229.6,352.1,229.7,352.2,229.8,352.2z"/>
<path fill-rule="evenodd" clip-rule="evenodd" fill="#3073EF" d="M163.6,336.5c0-0.1,0-0.1,0-0.2
	C163.6,336.3,163.6,336.4,163.6,336.5z"/>
<path fill-rule="evenodd" clip-rule="evenodd" fill="#3073EF" d="M184.5,335.1c0-0.1,0-0.1,0-0.2C184.5,335,184.5,335,184.5,335.1z"
	/>
<path fill-rule="evenodd" clip-rule="evenodd" fill="#3073EF" d="M184.4,334.8c0-0.1,0-0.1,0-0.2
	C184.5,334.6,184.4,334.7,184.4,334.8z"/>
<path fill-rule="evenodd" clip-rule="evenodd" fill="#3073EF" d="M171.8,344.6c-0.1,0-0.1,0-0.2,0
	C171.6,344.6,171.7,344.5,171.8,344.6z"/>
<path fill-rule="evenodd" clip-rule="evenodd" fill="#3073EF" d="M173.9,344.6c-0.1,0-0.1,0-0.2,0
	C173.8,344.5,173.9,344.6,173.9,344.6z"/>
<path fill-rule="evenodd" clip-rule="evenodd" fill="#E43125" d="M202,339.1c0-0.1,0-0.1,0-0.2C202,339,202,339,202,339.1z"/>
<path fill-rule="evenodd" clip-rule="evenodd" fill="#F4AB00" d="M219.8,338.8c0-0.1,0-0.1,0-0.2
	C219.8,338.7,219.8,338.8,219.8,338.8z"/>
<path fill-rule="evenodd" clip-rule="evenodd" fill="#3073EF" d="M184.4,338.1c0-0.1,0-0.1,0-0.2C184.4,338,184.4,338.1,184.4,338.1
	z"/>
<path fill-rule="evenodd" clip-rule="evenodd" fill="#F4AB00" d="M203.5,338.7c0,0.1,0,0.1,0,0.2
	C203.4,338.8,203.4,338.7,203.5,338.7z"/>
<path fill-rule="evenodd" clip-rule="evenodd" fill="#3073EF" d="M228.1,348c0.1,0,0.1,0,0.2,0C228.3,348.1,228.2,348.1,228.1,348z"
	/>
<path fill-rule="evenodd" clip-rule="evenodd" fill="#3073EF" d="M171,348.1c0.1,0,0.1,0,0.2,0C171.2,348.1,171.1,348.1,171,348.1z"
	/>
<path fill-rule="evenodd" clip-rule="evenodd" fill="#3073EF" d="M174.2,348.1c0.1,0,0.1,0,0.2,0
	C174.3,348.1,174.3,348.1,174.2,348.1z"/>
<path fill-rule="evenodd" clip-rule="evenodd" fill="#3073EF" d="M221.2,338.8c0,0.1,0,0.1,0,0.2C221.2,339,221.2,338.9,221.2,338.8
	z"/>
<path fill-rule="evenodd" clip-rule="evenodd" fill="#3073EF" d="M171.2,322.8c-0.1,0-0.1,0-0.2,0
	C171.1,322.8,171.1,322.8,171.2,322.8z"/>
<path fill-rule="evenodd" clip-rule="evenodd" fill="#3073EF" d="M173.9,348.1c0.1,0,0.1,0,0.2,0C174,348.2,173.9,348.1,173.9,348.1
	z"/>
<path fill-rule="evenodd" clip-rule="evenodd" fill="#E43125" d="M194.7,348.1c0.1,0,0.1,0,0.2,0
	C194.9,348.2,194.8,348.1,194.7,348.1z"/>
<path fill-rule="evenodd" clip-rule="evenodd" fill="#E43125" d="M185.7,338.7c0,0.1,0,0.1,0,0.2
	C185.6,338.8,185.6,338.8,185.7,338.7z"/>
<path fill-rule="evenodd" clip-rule="evenodd" fill="#3073EF" d="M174.4,322.9c-0.1,0-0.1,0-0.2,0
	C174.3,322.8,174.4,322.8,174.4,322.9z"/>
<path fill-rule="evenodd" clip-rule="evenodd" fill="#3073EF" d="M173.8,326.3c0.1,0,0.1,0,0.2,0
	C173.9,326.3,173.8,326.4,173.8,326.3z"/>
<path fill-rule="evenodd" clip-rule="evenodd" fill="#3073EF" d="M228.4,331.7c-0.1,0-0.1,0-0.2,0
	C228.3,331.7,228.3,331.7,228.4,331.7z"/>
<path fill-rule="evenodd" clip-rule="evenodd" fill="#E43125" d="M202,341c0-0.1,0-0.1,0-0.2C202,340.8,202,340.9,202,341z"/>
<path fill-rule="evenodd" clip-rule="evenodd" fill="#3073EF" d="M171.4,348.1c0.1,0,0.1,0,0.2,0
	C171.5,348.1,171.4,348.2,171.4,348.1z"/>
<path fill-rule="evenodd" clip-rule="evenodd" fill="#F4AB00" d="M219.8,339.1c0-0.1,0-0.1,0-0.2C219.8,339,219.8,339.1,219.8,339.1
	z"/>
<path fill-rule="evenodd" clip-rule="evenodd" fill="#3073EF" d="M233.5,348.2c0,0.1,0,0.1,0,0.2
	C233.4,348.3,233.4,348.2,233.5,348.2z"/>
<path fill-rule="evenodd" clip-rule="evenodd" fill="#E43125" d="M185.6,341c0,0.1,0,0.1,0,0.2C185.6,341.1,185.6,341.1,185.6,341z"
	/>
<path fill-rule="evenodd" clip-rule="evenodd" fill="#3073EF" d="M227.9,355.3c0.1,0,0.1,0,0.2,0C228,355.3,227.9,355.3,227.9,355.3
	z"/>
<path fill-rule="evenodd" clip-rule="evenodd" fill="#3073EF" d="M230,355.3c0.1,0,0.1,0,0.2,0C230.2,355.3,230.1,355.3,230,355.3z"
	/>
<path fill-rule="evenodd" clip-rule="evenodd" fill="#3073EF" d="M159.9,333.9c0,0.1,0,0.1,0,0.2C159.9,334.1,159.9,334,159.9,333.9
	z"/>
<path fill-rule="evenodd" clip-rule="evenodd" fill="#F4AB00" d="M203.4,338.9c0,0.1,0,0.1,0,0.2C203.4,339.1,203.4,339,203.4,338.9
	z"/>
<path fill-rule="evenodd" clip-rule="evenodd" fill="#3073EF" d="M236.8,332.5c0-0.1,0-0.1,0-0.2c-1.1,0-2.1,0-3.2,0
	c-0.1,0-0.1,0-0.2,0c0,0.1,0,0.2,0,0.4c0,0.1,0,0.2,0,0.3c0,0.1,0,0.3,0,0.4c0,0,0,0.1-0.1,0.1c0,0,0,0-0.1,0
	c-0.7-0.6-1.4-1-2.3-1.4c-0.5-0.2-1-0.3-1.4-0.4c-0.1,0-0.1,0-0.2,0c0,0,0,0,0,0c-0.1,0-0.1,0-0.2,0c-0.2,0-0.4,0-0.6,0
	c-0.1,0-0.1,0-0.2,0c-0.1,0-0.1,0-0.2,0c-0.2,0-0.5,0.1-0.7,0.1c-1.4,0.3-2.6,1.1-3.6,2c-0.3,0.3-0.5,0.5-0.8,0.8
	c-0.5,0.7-1,1.4-1.3,2.2c-0.3,0.6-0.4,1.2-0.5,1.8c0,0.1,0,0.1,0,0.2c0,0,0,0.1,0,0.1c0,0.1,0,0.2,0,0.2c0,0.1,0,0.2,0,0.2
	c0,0.2,0,0.4,0,0.7c0,0.1,0,0.1,0,0.2c0,0.1,0,0.2,0,0.2c0,0.2,0,0.3,0,0.5c0.1,0.7,0.4,1.4,0.7,2.1c0.5,1,1.1,1.8,1.8,2.6
	c0.4,0.4,0.9,0.8,1.4,1.1c1,0.6,2,1,3.1,1.1c0.1,0,0.1,0,0.2,0c0,0,0.1,0,0.1,0c0.3,0,0.7,0,1,0c0.2,0,0.4,0,0.6-0.1
	c0.8-0.1,1.6-0.5,2.3-0.9c0.3-0.2,0.7-0.5,1-0.7c0,0,0.1-0.1,0.1,0c0,0.1,0,0.2,0,0.3c0,0.1,0,0.3,0,0.4c0,0.1,0,0.2,0,0.3
	c0,0.1,0,0.2,0,0.3c0,0.1,0,0.2,0,0.3c0,0,0,0.1,0,0.1c0,0.1,0,0.1,0,0.2c0,0.1,0,0.1,0,0.1c0,0.4-0.2,0.8-0.3,1.2
	c-0.2,0.5-0.5,0.9-0.9,1.3c-0.2,0.2-0.5,0.4-0.8,0.6c-0.5,0.3-1.1,0.5-1.7,0.6c-0.1,0-0.2,0-0.2,0c-0.1,0-0.3,0-0.4,0
	c-0.1,0-0.2,0-0.3,0c-0.1,0-0.1,0-0.2,0c-0.1,0-0.2,0-0.3,0c-0.5,0-1-0.2-1.4-0.5c-0.9-0.5-1.5-1.3-1.9-2.2
	c-0.1-0.1-0.1-0.1-0.2-0.1c-0.3,0.1-0.6,0.3-0.9,0.4c-0.7,0.3-1.3,0.6-2,0.8c-0.1,0-0.1,0.1-0.1,0.2c0.1,0.2,0.2,0.3,0.3,0.5
	c0.5,0.9,1.1,1.7,1.8,2.3c0.4,0.3,0.9,0.7,1.3,0.9c0.8,0.4,1.6,0.7,2.5,0.8c0.1,0,0.1,0,0.2,0c0,0,0.1,0,0.1,0c0.1,0,0.2,0,0.3,0
	c0.4,0,0.7,0,1.1,0c0.1,0,0.2,0,0.3,0c0,0,0.1,0,0.1,0c0.1,0,0.1,0,0.2,0c0.3,0,0.5-0.1,0.8-0.1c0.5-0.1,0.9-0.2,1.4-0.4
	c1.5-0.7,2.7-1.7,3.5-3.2c0.6-1.1,0.9-2.2,1-3.4c0-0.1,0-0.1,0-0.2C236.8,342.8,236.8,337.7,236.8,332.5z M231.8,344.1
	c-0.7,0.6-1.6,0.9-2.8,0.8c-1.3,0-2.5-0.8-3.4-2.1c-1.3-2.1-1-4.9,0.7-6.6c1.7-1.6,4.2-1.6,5.9,0
	C234.5,338.4,234.2,342.3,231.8,344.1z"/>
<path fill-rule="evenodd" clip-rule="evenodd" fill="#F4AB00" d="M219.8,339.7c0-0.1,0-0.3,0-0.4c0-0.1,0-0.1,0-0.2
	c0-0.1,0-0.1,0-0.2c0,0,0-0.1,0-0.1c0-0.1,0-0.1,0-0.2c0,0,0-0.1,0-0.1c-0.1-0.7-0.3-1.4-0.7-2.1c-0.5-1-1.1-1.9-2-2.6
	c-0.8-0.7-1.7-1.2-2.7-1.6c-0.5-0.2-1.1-0.3-1.6-0.4c0,0-0.1,0-0.1,0c0,0,0,0-0.1,0c0,0-0.1,0-0.1,0c-0.1,0-0.1,0-0.2,0
	c0,0,0,0-0.1,0c-0.1,0-0.2,0-0.2,0c-0.2,0-0.5,0-0.7,0c-0.1,0-0.2,0-0.2,0c-0.1,0-0.2,0-0.3,0c-0.1,0-0.2,0-0.3,0
	c-0.8,0.1-1.5,0.3-2.2,0.6c-1,0.5-1.9,1.1-2.7,1.9c-0.3,0.3-0.5,0.6-0.7,0.9c-0.4,0.5-0.7,1.1-0.9,1.7c-0.2,0.5-0.4,1.1-0.4,1.7
	c0,0.1,0,0.1,0,0.2c0,0,0,0.1,0,0.1c0,0.1,0,0.1,0,0.2c0,0.1,0,0.1,0,0.2c0,0.1,0,0.3,0,0.4c0,0.2,0,0.3,0,0.5c0,0.1,0,0.3,0,0.4
	c0,0,0,0.1,0,0.1c0,0.1,0,0.2,0,0.2c0,0.2,0,0.4,0.1,0.6c0.2,0.7,0.4,1.4,0.7,2.1c0.3,0.6,0.7,1.2,1.2,1.7c0.4,0.4,0.8,0.8,1.2,1.1
	c0.6,0.4,1.2,0.8,1.9,1.1c0.7,0.3,1.5,0.5,2.2,0.5c0.1,0,0.2,0,0.3,0c0.1,0,0.2,0,0.3,0c0.1,0,0.3,0,0.4,0c0.1,0,0.2,0,0.3,0
	c0.1,0,0.2,0,0.3,0c0.3,0,0.6-0.1,0.9-0.2c0.5-0.1,1.1-0.3,1.6-0.5c1.2-0.5,2.2-1.3,3-2.3c0.6-0.7,1.1-1.6,1.4-2.5
	c0.2-0.6,0.3-1.2,0.4-1.8c0-0.1,0-0.2,0-0.2c0,0,0-0.1,0-0.1c0-0.1,0-0.3,0-0.4C219.8,340,219.8,339.9,219.8,339.7z M214.7,343.7
	c-2,2-5.3,1.6-6.9-0.8c-0.6-0.9-0.9-1.9-0.9-3.2c0.1-1.5,0.7-2.9,2.2-3.9c1.8-1.2,4.2-0.9,5.7,0.7
	C216.8,338.4,216.7,341.8,214.7,343.7z"/>
<path fill-rule="evenodd" clip-rule="evenodd" fill="#E43125" d="M202,339.6c0-0.1,0-0.2,0-0.4c0,0,0-0.1,0-0.1c0-0.1,0-0.1,0-0.2
	c0-0.1,0-0.1,0-0.2c-0.1-0.8-0.3-1.5-0.7-2.3c-0.5-1-1.2-2-2-2.7c-0.8-0.7-1.6-1.2-2.6-1.5c-0.6-0.2-1.3-0.4-2-0.5
	c-0.1,0-0.2,0-0.2,0c-0.1,0-0.2,0-0.3,0c-0.2,0-0.5,0-0.7,0c-0.1,0-0.2,0-0.2,0c0,0,0,0-0.1,0c-0.1,0-0.1,0-0.2,0c0,0-0.1,0-0.1,0
	c0,0,0,0,0,0c0,0-0.1,0-0.1,0c-0.8,0.1-1.6,0.3-2.3,0.7c-0.7,0.3-1.3,0.7-1.8,1.2c-0.4,0.4-0.9,0.8-1.2,1.3c-0.5,0.7-1,1.5-1.3,2.4
	c-0.2,0.5-0.3,0.9-0.3,1.4c0,0.1,0,0.1,0,0.2c0,0,0,0.1,0,0.1c0,0.1,0,0.2,0,0.2c0,0.1,0,0.1,0,0.2c0,0.4,0,0.8,0,1.1
	c0,0.1,0,0.1,0,0.2c0,0.1,0,0.2,0,0.2c0,0,0,0.1,0,0.1c0,0.1,0,0.1,0,0.2c0,0.2,0,0.4,0.1,0.6c0.2,0.8,0.5,1.5,0.8,2.2
	c0.3,0.5,0.7,1.1,1.1,1.5c0.5,0.5,1,1,1.5,1.3c0.7,0.4,1.4,0.8,2.2,1c0.5,0.2,1.1,0.3,1.6,0.3c0.1,0,0.2,0,0.3,0c0.1,0,0.2,0,0.3,0
	c0.1,0,0.3,0,0.4,0c0.1,0,0.2,0,0.3,0c0.1,0,0.2,0,0.3,0c0,0,0.1,0,0.1,0c0.1,0,0.1,0,0.2,0c0.7-0.1,1.5-0.3,2.1-0.6
	c1.1-0.5,2.1-1.2,2.9-2.1c0.7-0.8,1.2-1.6,1.6-2.6c0.2-0.6,0.4-1.2,0.5-1.8c0-0.1,0-0.1,0-0.2c0-0.1,0-0.1,0-0.2c0-0.1,0-0.2,0-0.3
	C202,340.1,202,339.8,202,339.6z M196.4,344.1c-1.8,1.3-4.1,1.1-5.7-0.4c-2-1.9-2-5.3-0.1-7.3c2-2,5.1-1.8,6.8,0.5
	c0.7,0.9,1,2,1,3.4C198.4,341.7,197.8,343.1,196.4,344.1z"/>
<path fill-rule="evenodd" clip-rule="evenodd" fill="#E43125" d="M259.3,337.7c-0.3-0.9-0.8-1.8-1.3-2.7c-0.8-1.3-1.9-2.3-3.3-2.8
	c-2.2-0.8-4.4-0.6-6.4,0.7c-2.8,1.7-4.3,5-3.7,8.3c0.7,3.9,4,6.8,8,6.8c0.2,0,0.4,0,0.7,0c0.2,0,0.4,0,0.6-0.1
	c2.2-0.4,4-1.5,5.3-3.4c0.1-0.1,0.1-0.1,0-0.2c-0.8-0.5-1.6-1.1-2.5-1.6c-0.1-0.1-0.1-0.1-0.2,0c-0.3,0.5-0.6,0.9-1.1,1.2
	c-0.7,0.5-1.6,0.8-2.5,0.9c-1.9,0.2-3.5-0.6-4.3-2.3c-0.1-0.1,0-0.2,0.1-0.2c1.5-0.6,3-1.3,4.5-1.9c2-0.8,4-1.7,6-2.6
	C259.3,337.9,259.3,337.9,259.3,337.7z M255.1,336.7c-2.3,1-4.7,2-7,2.9c-0.1,0-0.2,0.1-0.2-0.1c0-1,0.2-2,0.8-2.8
	c0.5-0.8,1.3-1.3,2.2-1.6c0.5-0.1,0.9-0.2,1.6-0.2c1,0,2,0.5,2.6,1.5C255.2,336.6,255.2,336.7,255.1,336.7z"/>
<path fill="#808184" d="M158.7,351.3l-1.8,6.3h0.8l0.5-1.8h2l0.5,1.8h0.8l-1.8-6.3H158.7z M158.3,355.2l0.8-3.4h0l0.8,3.4H158.3z
	 M164.9,353.5c-0.1-0.2-0.3-0.4-0.5-0.5c-0.2-0.1-0.4-0.2-0.7-0.2c-0.2,0-0.4,0.1-0.5,0.2c-0.2,0.1-0.3,0.3-0.4,0.5h0v-0.5h-0.6v6.3
	h0.7v-2.1h0c0.1,0.2,0.3,0.3,0.4,0.5c0.1,0.1,0.3,0.2,0.6,0.2c0.3,0,0.6-0.1,0.8-0.2c0.2-0.2,0.4-0.4,0.5-0.6
	c0.1-0.3,0.2-0.6,0.2-0.9c0-0.3,0.1-0.7,0.1-1c0-0.2,0-0.5-0.1-0.7C165.1,354,165,353.7,164.9,353.5z M164.3,356.7
	c-0.1,0.3-0.4,0.5-0.7,0.5c-0.2,0-0.4-0.1-0.5-0.2c-0.1-0.1-0.2-0.3-0.3-0.5c-0.1-0.2-0.1-0.4-0.1-0.6c0-0.2,0-0.4,0-0.6
	c0-0.2,0-0.4,0-0.6c0-0.2,0-0.4,0.1-0.6c0.1-0.2,0.1-0.4,0.3-0.5c0.1-0.1,0.3-0.2,0.5-0.2c0.2,0,0.4,0.1,0.5,0.2
	c0.1,0.1,0.2,0.3,0.3,0.5c0.1,0.2,0.1,0.4,0.1,0.6c0,0.2,0,0.4,0,0.5C164.5,355.8,164.5,356.3,164.3,356.7z M169.1,353.5
	c-0.1-0.2-0.3-0.4-0.5-0.5c-0.2-0.1-0.4-0.2-0.7-0.2c-0.2,0-0.4,0.1-0.5,0.2c-0.2,0.1-0.3,0.3-0.4,0.5h0v-0.5h-0.6v6.3h0.7v-2.1h0
	c0.1,0.2,0.3,0.3,0.4,0.5c0.1,0.1,0.3,0.2,0.6,0.2c0.3,0,0.6-0.1,0.8-0.2c0.2-0.2,0.4-0.4,0.5-0.6c0.1-0.3,0.2-0.6,0.2-0.9
	c0-0.3,0.1-0.7,0.1-1c0-0.2,0-0.5-0.1-0.7C169.3,354,169.3,353.7,169.1,353.5z M168.6,356.7c-0.1,0.3-0.4,0.5-0.7,0.5
	c-0.2,0-0.4-0.1-0.5-0.2c-0.1-0.1-0.2-0.3-0.3-0.5c-0.1-0.2-0.1-0.4-0.1-0.6c0-0.2,0-0.4,0-0.6c0-0.2,0-0.4,0-0.6
	c0-0.2,0-0.4,0.1-0.6c0.1-0.2,0.1-0.4,0.3-0.5c0.1-0.1,0.3-0.2,0.5-0.2c0.2,0,0.4,0.1,0.5,0.2c0.1,0.1,0.2,0.3,0.3,0.5
	c0.1,0.2,0.1,0.4,0.1,0.6c0,0.2,0,0.4,0,0.5C168.8,355.8,168.7,356.3,168.6,356.7z M172.9,355.4c-0.1-0.1-0.3-0.2-0.4-0.2
	c-0.2-0.1-0.3-0.1-0.5-0.2c-0.1-0.1-0.2-0.1-0.3-0.1c-0.1,0-0.2-0.1-0.3-0.1c-0.1-0.1-0.2-0.1-0.2-0.2c-0.1-0.1-0.1-0.2-0.1-0.4
	c0-0.2,0.1-0.4,0.2-0.5c0.1-0.1,0.3-0.2,0.5-0.2c0.3,0,0.5,0.1,0.6,0.2c0.1,0.1,0.2,0.3,0.1,0.6h0.7c0-0.5-0.1-0.8-0.4-1.1
	c-0.3-0.2-0.6-0.3-1.1-0.3c-0.2,0-0.4,0-0.6,0.1c-0.2,0.1-0.3,0.2-0.4,0.3c-0.1,0.1-0.2,0.3-0.3,0.4c-0.1,0.2-0.1,0.3-0.1,0.5
	c0,0.2,0,0.4,0.1,0.5c0.1,0.1,0.1,0.3,0.2,0.4c0.1,0.1,0.2,0.2,0.4,0.3c0.1,0.1,0.3,0.1,0.5,0.2c0.1,0.1,0.2,0.1,0.4,0.1
	c0.1,0,0.3,0.1,0.4,0.2c0.1,0.1,0.2,0.1,0.3,0.2c0.1,0.1,0.1,0.2,0.1,0.4c0,0.3-0.1,0.5-0.2,0.6c-0.2,0.1-0.4,0.2-0.7,0.2
	c-0.3,0-0.5-0.1-0.6-0.2c-0.1-0.2-0.2-0.4-0.2-0.7h-0.6c0,0.2,0,0.3,0,0.5c0,0.2,0.1,0.3,0.2,0.5c0.1,0.2,0.3,0.3,0.5,0.4
	c0.2,0.1,0.4,0.1,0.6,0.1c0.5,0,0.9-0.1,1.2-0.4c0.3-0.3,0.4-0.6,0.4-1.1c0-0.2,0-0.4-0.1-0.5C173.1,355.6,173,355.5,172.9,355.4z
	 M177.2,351.3c-0.2,0-0.4,0.2-0.5,0.3c-0.1,0.1-0.1,0.3-0.1,0.4c0,0.2,0,0.3,0,0.5v0.4h-0.7v0.6h0.7v4.1h0.7v-4.1h0.7v-0.6h-0.7
	v-0.5c0-0.1,0-0.3,0-0.3c0-0.1,0.1-0.1,0.1-0.2c0.1,0,0.1-0.1,0.2-0.1c0.1,0,0.2,0,0.3,0v-0.6C177.7,351.2,177.4,351.3,177.2,351.3z
	 M181.5,353.4c-0.1-0.2-0.3-0.4-0.5-0.5c-0.2-0.1-0.5-0.2-0.7-0.2c-0.3,0-0.5,0.1-0.7,0.2c-0.2,0.1-0.4,0.3-0.5,0.5
	c-0.1,0.2-0.2,0.4-0.3,0.7c-0.1,0.3-0.1,0.6-0.1,1c0,0.5,0,0.9,0.1,1.3c0.1,0.3,0.2,0.6,0.3,0.8c0.1,0.2,0.3,0.3,0.5,0.4
	c0.2,0.1,0.4,0.1,0.7,0.1c0.3,0,0.5,0,0.7-0.1c0.2-0.1,0.4-0.2,0.5-0.4c0.1-0.2,0.3-0.5,0.3-0.8c0.1-0.3,0.1-0.8,0.1-1.3
	c0-0.4,0-0.7-0.1-1C181.8,353.9,181.7,353.6,181.5,353.4z M181.2,356.1c0,0.2-0.1,0.4-0.2,0.6c-0.1,0.2-0.2,0.3-0.3,0.4
	c-0.1,0.1-0.3,0.1-0.5,0.1s-0.4,0-0.5-0.1c-0.1-0.1-0.2-0.2-0.3-0.4c-0.1-0.2-0.1-0.4-0.2-0.6c0-0.2,0-0.5,0-0.8
	c0-0.7,0.1-1.2,0.2-1.5c0.2-0.3,0.4-0.4,0.8-0.4c0.3,0,0.6,0.1,0.8,0.4c0.2,0.3,0.2,0.8,0.2,1.5
	C181.2,355.6,181.2,355.8,181.2,356.1z M183.7,353.7L183.7,353.7l0-0.8H183v4.7h0.7v-2.8c0-0.2,0-0.4,0.1-0.6
	c0.1-0.2,0.2-0.3,0.3-0.4c0.1-0.1,0.3-0.2,0.4-0.2c0.2,0,0.4,0,0.6,0v-0.7c-0.4,0-0.6,0-0.8,0.2C184,353.1,183.8,353.4,183.7,353.7z
	 M188.6,354.6h2.3V354h-2.3v-2.1h2.5v-0.6h-3.2v6.3h3.2V357h-2.5V354.6z M194.4,353.4L194.4,353.4c-0.2-0.2-0.3-0.4-0.5-0.5
	c-0.2-0.1-0.4-0.2-0.6-0.2c-0.3,0-0.5,0.1-0.7,0.2c-0.2,0.1-0.3,0.3-0.4,0.5c-0.1,0.2-0.2,0.5-0.2,0.8c-0.1,0.3-0.1,0.6-0.1,1
	c0,0.1,0,0.2,0,0.3c0,0.1,0,0.3,0,0.5c0,0.2,0.1,0.4,0.1,0.6c0,0.2,0.1,0.4,0.2,0.5c0.1,0.2,0.2,0.3,0.4,0.4
	c0.2,0.1,0.4,0.2,0.6,0.2c0.1,0,0.3,0,0.4,0c0.1,0,0.2-0.1,0.3-0.1c0.1-0.1,0.2-0.1,0.2-0.2c0.1-0.1,0.1-0.2,0.2-0.4h0v0.6h0.6v-6.3
	h-0.7V353.4z M194.4,355.8c0,0.1,0,0.3,0,0.4c0,0.2-0.1,0.3-0.1,0.5c-0.1,0.1-0.2,0.3-0.3,0.4c-0.1,0.1-0.3,0.1-0.4,0.1
	c-0.2,0-0.4-0.1-0.5-0.2c-0.1-0.1-0.2-0.2-0.3-0.4c-0.1-0.2-0.1-0.4-0.1-0.6c0-0.2,0-0.5,0-0.7c0-0.4,0-0.7,0.1-0.9
	c0-0.2,0.1-0.4,0.2-0.6c0.1-0.1,0.2-0.2,0.3-0.3c0.1-0.1,0.2-0.1,0.4-0.1c0.2,0,0.4,0.1,0.5,0.2c0.1,0.1,0.2,0.3,0.3,0.5
	c0.1,0.2,0.1,0.4,0.1,0.6c0,0.2,0,0.4,0,0.6V355.8z M198.7,355.9c0,0.1,0,0.3,0,0.4c0,0.1-0.1,0.3-0.2,0.4c-0.1,0.1-0.2,0.2-0.4,0.3
	c-0.1,0.1-0.3,0.1-0.5,0.1c-0.2,0-0.4-0.1-0.5-0.2c-0.1-0.1-0.1-0.3-0.1-0.5v-3.7h-0.7v3.6c0,0.4,0.1,0.7,0.3,0.9
	c0.2,0.2,0.5,0.3,0.8,0.3c0.2,0,0.4-0.1,0.6-0.2c0.2-0.1,0.4-0.3,0.5-0.6h0v0.6h0.7v-4.7h-0.7V355.9z M202.7,356.4
	c0,0.1-0.1,0.3-0.1,0.4c-0.1,0.1-0.1,0.2-0.2,0.3c-0.1,0.1-0.3,0.1-0.4,0.1c-0.2,0-0.4-0.1-0.5-0.2c-0.1-0.1-0.2-0.3-0.3-0.4
	c-0.1-0.2-0.1-0.4-0.1-0.6c0-0.2,0-0.4,0-0.5c0-0.2,0-0.4,0-0.6c0-0.2,0-0.5,0.1-0.7c0.1-0.2,0.1-0.4,0.3-0.6
	c0.1-0.2,0.3-0.2,0.6-0.2c0.2,0,0.3,0,0.4,0.1c0.1,0.1,0.2,0.1,0.2,0.2c0.1,0.1,0.1,0.2,0.1,0.3c0,0.1,0,0.3,0,0.4h0.6
	c0-0.2,0-0.4-0.1-0.6c-0.1-0.2-0.1-0.4-0.3-0.5c-0.1-0.1-0.3-0.3-0.4-0.3c-0.2-0.1-0.4-0.1-0.6-0.1c-0.4,0-0.6,0.1-0.9,0.2
	c-0.2,0.2-0.4,0.4-0.5,0.6c-0.1,0.2-0.2,0.5-0.2,0.8c0,0.3-0.1,0.6-0.1,0.9c0,0.3,0,0.6,0.1,0.9c0,0.3,0.1,0.5,0.2,0.8
	c0.1,0.2,0.3,0.4,0.5,0.5c0.2,0.1,0.5,0.2,0.9,0.2c0.3,0,0.5,0,0.7-0.1c0.2-0.1,0.3-0.2,0.4-0.4c0.1-0.2,0.2-0.4,0.2-0.6
	c0.1-0.2,0.1-0.4,0.1-0.7h-0.6C202.7,356.1,202.7,356.3,202.7,356.4z M207,357.1c-0.1,0-0.1-0.1-0.1-0.2c0-0.1,0-0.1,0-0.2v-2.7
	c0,0,0-0.1,0-0.1c0-0.1,0-0.2,0-0.2c0-0.1-0.1-0.2-0.1-0.3c0-0.1-0.1-0.2-0.2-0.3c-0.1-0.1-0.2-0.2-0.4-0.2
	c-0.2-0.1-0.3-0.1-0.6-0.1c-0.5,0-0.8,0.1-1.1,0.3c-0.2,0.2-0.3,0.6-0.3,1.1h0.6c0-0.1,0-0.3,0-0.4c0-0.1,0-0.2,0.1-0.3
	c0-0.1,0.1-0.1,0.2-0.2c0.1,0,0.2-0.1,0.4-0.1c0.3,0,0.5,0.1,0.6,0.2c0.1,0.1,0.2,0.3,0.2,0.6c0,0.1,0,0.2,0,0.3
	c0,0.1,0,0.2-0.1,0.2c0,0-0.1,0-0.2,0.1c-0.1,0-0.2,0.1-0.4,0.2c-0.1,0.1-0.3,0.1-0.4,0.2c-0.1,0.1-0.3,0.1-0.4,0.2
	c-0.2,0.1-0.3,0.2-0.4,0.3c-0.1,0.1-0.2,0.2-0.2,0.3c0,0.1-0.1,0.2-0.1,0.3c0,0.1,0,0.2,0,0.2c0,0.2,0,0.4,0.1,0.6
	c0,0.2,0.1,0.3,0.2,0.4c0.1,0.1,0.2,0.2,0.4,0.3c0.2,0.1,0.4,0.1,0.6,0.1c0.1,0,0.2,0,0.3-0.1c0.1,0,0.2-0.1,0.3-0.2
	c0.1-0.1,0.2-0.2,0.2-0.2c0.1-0.1,0.1-0.2,0.2-0.3h0c0,0.2,0,0.3,0.1,0.4c0,0.1,0.1,0.2,0.2,0.2c0.1,0,0.2,0.1,0.2,0.1
	c0.1,0,0.2,0,0.4,0c0,0,0.1,0,0.1,0c0,0,0,0,0.1,0v-0.5c0,0-0.1,0-0.1,0S207,357.1,207,357.1z M206.1,356.2c0,0.2,0,0.3-0.1,0.5
	c-0.1,0.1-0.1,0.2-0.2,0.3c-0.1,0.1-0.2,0.1-0.3,0.1c-0.1,0-0.2,0-0.2,0c-0.3,0-0.4-0.1-0.5-0.2c-0.1-0.1-0.1-0.3-0.1-0.6
	c0-0.2,0-0.3,0.1-0.5c0.1-0.2,0.2-0.3,0.3-0.3c0.2-0.1,0.4-0.2,0.5-0.2c0.2-0.1,0.4-0.2,0.5-0.3V356.2z M208.9,351.6h-0.7v1.3h-0.7
	v0.6h0.7v3.4c0,0.2,0,0.3,0.1,0.4c0,0.1,0.1,0.2,0.1,0.2c0.1,0.1,0.1,0.1,0.2,0.1c0.1,0,0.2,0,0.3,0h0.7V357h-0.4
	c-0.1,0-0.2,0-0.2,0c0,0-0.1-0.1-0.1-0.1c0,0,0-0.1,0-0.1c0,0,0-0.1,0-0.1v-3.2h0.8v-0.6h-0.8V351.6z M210.4,352.1h0.7v-0.8h-0.7
	V352.1z M210.4,357.6h0.7v-4.7h-0.7V357.6z M215.1,353.4c-0.1-0.2-0.3-0.4-0.5-0.5c-0.2-0.1-0.5-0.2-0.7-0.2c-0.3,0-0.5,0.1-0.7,0.2
	c-0.2,0.1-0.4,0.3-0.5,0.5c-0.1,0.2-0.2,0.4-0.3,0.7c-0.1,0.3-0.1,0.6-0.1,1c0,0.5,0,0.9,0.1,1.3c0.1,0.3,0.2,0.6,0.3,0.8
	c0.1,0.2,0.3,0.3,0.5,0.4c0.2,0.1,0.4,0.1,0.7,0.1c0.3,0,0.5,0,0.7-0.1c0.2-0.1,0.4-0.2,0.5-0.4c0.1-0.2,0.3-0.5,0.3-0.8
	c0.1-0.3,0.1-0.8,0.1-1.3c0-0.4,0-0.7-0.1-1C215.3,353.9,215.2,353.6,215.1,353.4z M214.8,356.1c0,0.2-0.1,0.4-0.2,0.6
	c-0.1,0.2-0.2,0.3-0.3,0.4c-0.1,0.1-0.3,0.1-0.5,0.1c-0.2,0-0.4,0-0.5-0.1c-0.1-0.1-0.2-0.2-0.3-0.4c-0.1-0.2-0.1-0.4-0.2-0.6
	c0-0.2,0-0.5,0-0.8c0-0.7,0.1-1.2,0.2-1.5c0.2-0.3,0.4-0.4,0.8-0.4c0.3,0,0.6,0.1,0.8,0.4c0.2,0.3,0.2,0.8,0.2,1.5
	C214.8,355.6,214.8,355.8,214.8,356.1z M219.2,353.1c-0.2-0.2-0.5-0.3-0.8-0.3c-0.3,0-0.5,0.1-0.7,0.2c-0.2,0.1-0.4,0.3-0.5,0.5h0
	v-0.5h-0.7v4.7h0.7v-3.1c0-0.2,0-0.3,0.1-0.5c0-0.1,0.1-0.3,0.3-0.4c0.2-0.2,0.4-0.3,0.7-0.3c0.3,0,0.5,0.1,0.6,0.2
	c0.1,0.1,0.1,0.3,0.1,0.6v3.4h0.7V354C219.5,353.6,219.4,353.3,219.2,353.1z"/>
</svg>
