<?xml version="1.0" encoding="utf-8"?>
<!-- Generator: Adobe Illustrator 19.2.0, SVG Export Plug-In . SVG Version: 6.00 Build 0)  -->
<svg version="1.1" id="Layer_1" xmlns="http://www.w3.org/2000/svg" xmlns:xlink="http://www.w3.org/1999/xlink" x="0px" y="0px"
	 viewBox="0 0 550 550" enable-background="new 0 0 550 550" xml:space="preserve">
<path fill="#FFFADD" d="M415.9,107C159.1,70.9-83.6,197.5,80,279.7c31.2,15.7,31.7,32.2,19.1,58.3
	c-67.4,139.3,88.7,158.3,164.7,46.4c71.4-105.1,151-89.9,223.5-127.1C574.3,212.8,556,126.6,415.9,107z"/>
<ellipse transform="matrix(0.9116 -0.4111 0.4111 0.9116 -124.0957 202.7162)" fill="#FFFADD" cx="409.3" cy="389.9" rx="84.3" ry="43.1"/>
<path fill="#005779" d="M430,402.7L77.2,362c-5.5-0.6-9.4-5.6-8.8-11.1l26.4-228.6c0.6-5.5,5.6-9.4,11.1-8.8l352.8,40.7
	c5.5,0.6,9.4,5.6,8.8,11.1l-26.4,228.6C440.5,399.4,435.5,403.3,430,402.7z"/>
<ellipse transform="matrix(0.1146 -0.9934 0.9934 0.1146 -50.9082 333.9658)" fill="#90DB6E" cx="161.9" cy="195.5" rx="41" ry="41"/>
<path fill="#66ADCB" d="M427.5,276.5l-194.8-22.5c-1.1-0.1-1.9-1.1-1.8-2.2l11-95.4c0.1-1.1,1.1-1.9,2.2-1.8l194.8,22.5
	c1.1,0.1,1.9,1.1,1.8,2.2l-11,95.4C429.6,275.9,428.6,276.7,427.5,276.5z"/>
<path fill="#FFD31C" d="M251.8,287.5l-22.6-2.6c-1.1-0.1-1.9-1.1-1.8-2.2l1.1-9.5c0.1-1.1,1.1-1.9,2.2-1.8l22.6,2.6
	c1.1,0.1,1.9,1.1,1.8,2.2l-1.1,9.5C253.9,286.9,252.9,287.7,251.8,287.5z"/>
<ellipse transform="matrix(0.1146 -0.9934 0.9934 0.1146 -68.3827 480.9733)" fill="#FFFFFF" cx="235.6" cy="278.9" rx="1.6" ry="1.6"/>
<path fill="#E5A317" d="M256,288l-13.5-1.6l1.6-13.5l13.5,1.6c1.1,0.1,1.9,1.1,1.8,2.2l-1.1,9.5C258.1,287.4,257.1,288.2,256,288z"
	/>
<path fill="#FFD31C" d="M290.1,292l-22.9-2.6c-1.1-0.1-1.9-1.1-1.8-2.2l1.1-9.5c0.1-1.1,1.1-1.9,2.2-1.8l22.9,2.6
	c1.1,0.1,1.9,1.1,1.8,2.2l-1.1,9.5C292.1,291.3,291.2,292.1,290.1,292z"/>
<path fill="#FF7353" d="M310.2,280.6l22.5,2.6c1.1,0.1,1.9,1.1,1.8,2.2l-1.1,9.5c-0.1,1.1-1.1,1.9-2.2,1.8l-22.5-2.6
	c-1.1-0.1-1.9-1.1-1.8-2.2l1.1-9.5C308.1,281.3,309.1,280.5,310.2,280.6z"/>
<path fill="#90DB6E" d="M301.7,353.3l-76-8.8c-0.6-0.1-1.1-0.6-1-1.3c3-21,22.3-35.9,43.5-33.5c21.2,2.5,36.6,21.4,34.7,42.5
	C302.9,352.9,302.3,353.4,301.7,353.3z"/>
<path fill="#FFD31C" d="M413.4,366.2l-76-8.8c-0.6-0.1-1.1-0.6-1-1.3c3-21,22.3-35.9,43.5-33.5c21.2,2.5,36.6,21.4,34.7,42.5
	C414.6,365.8,414.1,366.3,413.4,366.2z"/>
<path fill="#FFFFFF" d="M269.7,342.4c-2,2.7-5.8,3.2-8.4,1.2c-2.7-2-3.2-5.8-1.2-8.4c2.8-3.7,12.6-10.2,16.1-12.5
	c0.4-0.3,1,0.1,0.8,0.6C275.8,327.4,272.5,338.7,269.7,342.4z"/>
<path fill="#FFFFFF" d="M382.5,350.3c0.8,3.2-1.2,6.5-4.5,7.3c-3.2,0.8-6.5-1.2-7.3-4.5c-1.1-4.5,0.3-16.2,0.8-20.4
	c0.1-0.5,0.7-0.7,1-0.2C374.9,336,381.4,345.8,382.5,350.3z"/>
<path fill="#66ADCB" d="M372.1,381.2l4.8-3.8c0.9,0.4,1.9,0.3,2.7-0.3c0.7-0.5,1-1.3,1-2.1c0-0.2-0.3-0.3-0.4-0.2l-1,0.8
	c-0.1,0.1-0.2,0.1-0.3,0l-1-0.4c-0.1,0-0.1-0.1-0.2-0.2l-0.2-1.1c0-0.1,0-0.2,0.1-0.2l1-0.8c0.2-0.1,0.1-0.4-0.1-0.5
	c-0.8-0.2-1.8,0-2.4,0.7c-0.7,0.6-0.9,1.6-0.8,2.4l-4.8,3.8c-0.8-0.4-1.8-0.3-2.5,0.2c-0.8,0.5-1.2,1.4-1.2,2.2
	c0,0.2,0.3,0.3,0.4,0.2l1-0.8c0.1-0.1,0.2-0.1,0.3,0l1,0.4c0.1,0,0.1,0.1,0.2,0.2l0.2,1.1c0,0.1,0,0.2-0.1,0.2l-1,0.8
	c-0.2,0.1-0.1,0.4,0.1,0.5c0.8,0.2,1.6,0,2.3-0.5C371.9,383.2,372.3,382.2,372.1,381.2z"/>
<path fill="#66ADCB" d="M263.6,364.2c-0.4-0.5-1.2-0.6-1.7-0.1l-6.2,5.8c-0.2,0.2-0.2,0.4,0,0.6c0.1,0.2,0.4,0.2,0.6,0.1l7.1-4.7
	C263.9,365.5,264,364.7,263.6,364.2z"/>
<path fill="#66ADCB" d="M266.7,360c-0.2-0.1-0.3,0.2-0.1,0.3c0.7,0.5,0.4,1.2-0.8,1.2c-2.6-0.1-2.5,3.4,0.6,2.5
	C268.2,363.5,269,360.8,266.7,360z"/>
<line fill="none" stroke="#66ADCB" stroke-width="4" stroke-linecap="round" stroke-miterlimit="10" x1="346.3" y1="291.6" x2="423.6" y2="300.5"/>
<path fill="#E5A317" d="M294,292.4l-13.5-1.6l1.6-13.5l13.5,1.6c1.1,0.1,1.9,1.1,1.8,2.2l-1.1,9.5
	C296.1,291.8,295.1,292.5,294,292.4z"/>
<path fill="#CB3503" d="M305.8,280.1l13.5,1.6l-1.6,13.5l-13.5-1.6c-1.1-0.1-1.9-1.1-1.8-2.2l1.1-9.5
	C303.7,280.8,304.7,280,305.8,280.1z"/>
<ellipse transform="matrix(0.1146 -0.9934 0.9934 0.1146 56.7012 658.7775)" fill="#FFFFFF" cx="397.9" cy="297.6" rx="5.5" ry="5.5"/>
<ellipse transform="matrix(0.1146 -0.9934 0.9934 0.1146 -39.1011 522.5964)" fill="#FFFFFF" cx="273.6" cy="283.2" rx="1.6" ry="1.6"/>
<ellipse transform="matrix(0.1146 -0.9934 0.9934 0.1146 -10.5117 563.2357)" fill="#FF7353" cx="310.7" cy="287.5" rx="1.6" ry="1.6"/>
<path fill="#FFFFFF" d="M233.6,229l40.8-4.1l39.2,8.9l42.4-18.9l40.6-2.7l41.9-13.7l-8.9,77.1c-0.1,0.7-0.7,1.2-1.4,1.1L231.9,254
	c-0.7-0.1-1.2-0.7-1.1-1.4L233.6,229z"/>
<ellipse transform="matrix(0.1146 -0.9934 0.9934 0.1146 19.5178 471.5949)" fill="#90DB6E" cx="274.3" cy="224.8" rx="3.6" ry="3.6"/>
<ellipse transform="matrix(0.1146 -0.9934 0.9934 0.1146 101.745 543.9127)" fill="#90DB6E" cx="356" cy="214.9" rx="3.6" ry="3.6"/>
<ellipse transform="matrix(0.1146 -0.9934 0.9934 0.1146 140.3504 581.9013)" fill="#90DB6E" cx="396.6" cy="212.2" rx="3.6" ry="3.6"/>
<ellipse transform="matrix(0.1146 -0.9934 0.9934 0.1146 45.3919 518.4965)" fill="#FFD31C" cx="313.6" cy="233.8" rx="3.6" ry="3.6"/>
<path fill="#66ADCB" d="M142,295.8l-33.3-3.8c-1.1-0.1-1.9-1.1-1.8-2.2l3.8-33.3c0.1-1.1,1.1-1.9,2.2-1.8l33.3,3.8
	c1.1,0.1,1.9,1.1,1.8,2.2l-3.8,33.3C144.1,295.2,143.1,296,142,295.8z"/>
<path fill="#66ADCB" d="M191.7,301.6l-33.3-3.8c-1.1-0.1-1.9-1.1-1.8-2.2l3.8-33.3c0.1-1.1,1.1-1.9,2.2-1.8l33.3,3.8
	c1.1,0.1,1.9,1.1,1.8,2.2l-3.8,33.3C193.8,300.9,192.8,301.7,191.7,301.6z"/>
<path fill="#FFFFFF" d="M185,275.1l-13.7-1.6c-0.8-0.1-1.6,0.5-1.7,1.3l-1.3,11.6c-0.1,0.7,0.7,1.1,1.2,0.7l3.2-2.6l11,1.3
	c0.8,0.1,1.6-0.5,1.7-1.3l0.9-7.8C186.4,275.9,185.8,275.2,185,275.1z"/>
<ellipse transform="matrix(0.1146 -0.9934 0.9934 0.1146 -168.4323 477.397)" fill="#FFFFFF" cx="183.6" cy="333.2" rx="6.4" ry="6.4"/>
<ellipse transform="matrix(0.1146 -0.9934 0.9934 0.1146 -225.6131 396.1157)" fill="#FFFFFF" cx="109.4" cy="324.6" rx="6.4" ry="6.4"/>
<ellipse transform="matrix(0.1146 -0.9934 0.9934 0.1146 -206.5529 423.2094)" fill="#FFD31C" cx="134.2" cy="327.5" rx="6.4" ry="6.4"/>
<ellipse transform="matrix(0.1146 -0.9934 0.9934 0.1146 -187.4926 450.3032)" fill="#FFFFFF" cx="158.9" cy="330.3" rx="6.4" ry="6.4"/>
<path fill="#005779" d="M132.4,268.4c-1.7-0.2-3.2,0.5-4.2,1.7c-0.7-1.4-2.1-2.4-3.7-2.6c-2.6-0.3-5,1.6-5.3,4.2
	c-0.7,6.2,7.6,11,7.6,11s9.2-2.8,9.9-9C136.8,271,135,268.7,132.4,268.4z"/>
<path fill="#D29D96" d="M166.4,211.4c-1.7-0.5-2.9-2-2.8-3.7l0-0.9c5.8-0.5,13.7-4.3,14.9-15c1.1-9.7-4.2-18.4-13.9-19.5
	c-9.7-1.1-16.9,6.1-18,15.8c-1.2,10.7,5.6,16.2,11.1,18l-0.2,0.9c-0.4,1.7-1.8,2.9-3.6,3c-8.3,0.3-13.4,4.2-13.4,4.2l17.4,16
	l20.6-11.6C178.5,218.6,174.4,213.5,166.4,211.4z"/>
<path fill="#005779" d="M178.2,193.5c3.2-5.2,3.7-11.8,2.1-15.9c-2.8-7.1-7-2.5-7-2.5l0,0l0,0l0,0c0-0.4,0-0.7-0.2-0.9
	c-5-24.3-26.3-7.2-33.5,5.7l0,0l0,0c0,0,1.6,7.3,7,13.4c-0.2-1.6-0.3-3.3-0.1-5.2c0.1-0.6,0.2-1.2,0.3-1.8
	c8.3,3.5,19.6-0.1,25.9-10.2c-2.8,5.6,1.3,12.9,5.8,15.1c0,0.2,0,0.5-0.1,0.7C178.4,192.4,178.3,193,178.2,193.5z"/>
<polygon fill="#FFC7D2" points="162.5,190.4 157.8,196.1 165.7,197 "/>
<path fill="#E1F073" d="M176.8,215.1c0.1,0.1,0.2,0.1,0.2,0.1C176.9,215.1,176.9,215,176.8,215.1z M142.8,211.3c0,0,0.1,0,0.2-0.1
	C142.9,211.1,142.8,211.1,142.8,211.3z M184,227.1c-2.3-8.7-7.1-11.9-7.1-11.9s-0.1,0.1-0.3,0.2c0.1-0.2,0.1-0.3,0.2-0.3
	c-0.7-0.5-3.7-2.4-8.2-4.1c0,0-3.1,5.4-9.1,4.8s-7.7-6.7-7.7-6.7c-4.8,0.6-8.1,1.8-8.9,2.1c0,0.1,0.1,0.2,0.1,0.4
	c-0.2-0.2-0.3-0.3-0.3-0.3s-5.4,2-9.6,9.9c-0.4,0.8-0.8,1.5-1.2,2.3c6.4,6.9,15.2,11.6,25.2,12.7c10.1,1.2,19.7-1.4,27.5-6.7
	C184.5,228.8,184.3,227.9,184,227.1z"/>
</svg>
