<?xml version="1.0" encoding="utf-8"?>
<!-- Generator: Adobe Illustrator 19.2.0, SVG Export Plug-In . SVG Version: 6.00 Build 0)  -->
<svg version="1.1" id="Layer_1" xmlns="http://www.w3.org/2000/svg" xmlns:xlink="http://www.w3.org/1999/xlink" x="0px" y="0px"
	 viewBox="0 0 550 550" enable-background="new 0 0 550 550" xml:space="preserve">
<path fill="#F7F6FF" d="M241.6,162.5c37.4-23.2,58.4-58.3,46.9-78.3c-11.5-20.1-51-17.5-88.4,5.7s-58.4,58.3-46.9,78.3
	C164.7,188.3,204.3,185.7,241.6,162.5z"/>
<path fill="#F7F6FF" d="M369.9,90.4c-86.7,1.4-19.1,93.6-217.7,136.4c-195.6,42.1-68.2,325,158.5,258.6S503.7,88.2,369.9,90.4z"/>
<path fill="#01D0B7" d="M311.9,412l7.5-14.1c0.8-1.5,0.7-3.4-0.4-4.7l-5.5-7.5c-0.8-1-1.1-2.3-0.8-3.6c1-5,1.4-10,1.3-15
	c0-1.3,0.6-2.6,1.6-3.5l7.3-6.1c1.4-1.2,1.9-3,1.4-4.7l-4.9-15.8c-0.5-1.7-1.9-2.9-3.6-3.1l-10.7-1.5c-1.2-0.2-2.4-0.8-3.1-1.9
	c-2.5-3.7-5.4-7.1-8.6-10.3c-0.9-0.9-1.4-2.2-1.3-3.5l0.8-11.1c0.1-1.8-0.8-3.4-2.4-4.3l-14.5-7.7c-1.7-0.9-3.8-0.6-5.2,0.7
	l-6.9,6.6c-1.1,1-2.6,1.4-4,1.1c-5.4-1.2-10.8-1.8-16.1-1.7l0,0l-8.2-8.9c-1.2-1.2-2.9-1.7-4.5-1.3l-16.6,4.9
	c-1.8,0.5-3,2.1-3.2,3.9l-0.6,8.2c-0.1,1.4-0.9,2.7-2.1,3.4c-4.5,2.8-8.7,6.2-12.5,10.1c-0.9,0.9-2.1,1.4-3.4,1.3l-8.5-0.4
	c-1.7-0.1-3.4,0.8-4.2,2.4l-7.2,13.7c-0.8,1.4-0.7,3.2,0.2,4.5l5.2,8c0.6,1,0.9,2.1,0.6,3.3c-1.1,5.3-1.5,10.6-1.3,15.9
	c0.1,1.4-0.6,2.8-1.7,3.7l-6.3,4.9c-1.4,1.1-2.1,3-1.5,4.8l4.9,16.3c0.5,1.7,1.9,2.9,3.7,3.1l10,1.4c1.2,0.2,2.3,0.8,3,1.8
	c2.5,3.6,5.4,7.1,8.6,10.2c0.9,0.9,1.4,2.1,1.3,3.4l-0.6,10.4c-0.1,1.7,0.8,3.4,2.4,4.2l14.6,7.7c1.6,0.8,3.5,0.7,4.8-0.4l7.8-6.2
	c1-0.8,2.4-1.1,3.6-0.9c4.8,1,9.7,1.5,14.5,1.5c1.3,0,2.5,0.6,3.3,1.6l6.4,7.4c1.1,1.3,2.9,1.9,4.6,1.4l16.7-4.8
	c1.7-0.5,2.9-1.9,3.2-3.6l1.4-10c0.2-1.2,0.9-2.4,1.9-3.1c3.8-2.5,7.3-5.4,10.6-8.7c0.8-0.8,2-1.3,3.2-1.3l9.9,0.2
	C309.6,414.4,311.2,413.4,311.9,412z"/>
<ellipse transform="matrix(0.4674 -0.8841 0.8841 0.4674 -194.2477 413.1693)" fill="#FFFFFF" cx="245.8" cy="367.8" rx="53.3" ry="54.4"/>
<path fill="#9BB43B" d="M255.8,343.9c1.8-2.8,1.1-5.2,1.1-5.2s-2.5,0.1-4.8,1.8c-2.6,2-1.3,5.2-1.3,5.2c2.4-2.9,2.8-2.9,2.8-2.9
	c0,0.2-2.3,3.3-2.3,3.3S253.9,346.9,255.8,343.9z M259.5,355.4c2.7-1.2,3.3-3.3,3.3-3.3s-1.9-1.2-4.4-1c-2.9,0.2-3.6,3.2-3.6,3.2
	c3.2-0.9,3.5-0.8,3.5-0.8c-0.1,0.2-3.3,1.3-3.3,1.3S256.6,356.6,259.5,355.4z M265,357.7c-2.5-1.9-5.2,0.2-5.2,0.2
	c3.3,1.5,3.4,1.8,3.4,1.8c-0.2,0.1-3.7-1.2-3.7-1.2s0,2.7,3.3,3.7c3,0.9,5.1-0.4,5.1-0.4S267.2,359.4,265,357.7z M259.8,363
	c-2-1.5-4.2,0.1-4.2,0.1c2.6,1.2,2.8,1.4,2.8,1.4c-0.2,0.1-2.9-1-2.9-1s0,2.2,2.6,3c2.4,0.7,4.1-0.4,4.1-0.4S261.5,364.3,259.8,363z
	 M268.3,351.4c-2-0.8-3.4,1.1-3.4,1.1c2.5,0.3,2.6,0.5,2.6,0.5c-0.1,0.1-2.7-0.1-2.7-0.1s0.5,1.8,2.9,1.8c2.2,0,3.3-1.3,3.3-1.3
	S270.1,352,268.3,351.4z M229.9,361.9c0,0,0.2-0.1,2.4-0.3c0,0-1.1-1.8-3-1.3c-1.7,0.5-2.6,1.7-2.6,1.7s0.9,1.2,2.9,1.4
	c2.1,0.2,2.8-1.5,2.8-1.5S230,362,229.9,361.9z M228.7,356c0,0-2.8-0.1-2.9-0.2c0,0,0.2-0.2,2.9-0.2c0,0-1.2-2.2-3.5-1.7
	c-2,0.5-3.2,1.8-3.2,1.8s1,1.5,3.4,1.8C227.9,357.8,228.7,356,228.7,356z M257.5,348.9c0,0,1.9,0.8,3.6-1.1c1.6-1.8,1.3-3.7,1.3-3.7
	s-1.8-0.2-3.7,0.8c-2.1,1.2-1.5,3.7-1.5,3.7c2-1.8,2.3-1.8,2.3-1.8C259.5,346.9,257.5,348.9,257.5,348.9z M267.2,346.5
	c-0.1,0.2-2.9,1.2-2.9,1.2s1.5,1.7,4,0.5c2.3-1.1,2.9-3,2.9-3s-1.7-1-3.9-0.8c-2.5,0.2-3.1,2.9-3.1,2.9
	C267,346.4,267.2,346.5,267.2,346.5z M222.9,344.3c1.8,1.2,3.2,0,3.2,0s-2.1-1.1-2.2-1.2c0,0,0.2-0.1,2.3,0.9c0,0-0.2-2.2-2.1-2.6
	c-1.7-0.4-3.2,0.3-3.2,0.3S221.2,343.3,222.9,344.3z M237,365.1c0,0,0.1-0.2,2.5-1.3c0,0-2-1.5-3.8-0.1c-1.6,1.2-2.2,2.9-2.2,2.9
	s1.5,1,3.8,0.3c2.4-0.7,2.4-2.7,2.4-2.7S237.2,365.1,237,365.1z M259.8,341c2.1-1.5,2.3-1.4,2.3-1.4c0,0.2-2.1,1.8-2.1,1.8
	s1.7,1,3.4-0.7c1.6-1.5,1.6-3.3,1.6-3.3s-1.7-0.4-3.5,0.4C259.5,338.6,259.8,341,259.8,341z M224.1,350.8c2.5-0.3,2.9-2.3,2.9-2.3
	s-2.7,0.5-2.8,0.4c0,0,0.1-0.2,2.7-0.8c0,0-1.7-1.8-3.8-0.8c-1.8,0.9-2.7,2.5-2.7,2.5S221.7,351,224.1,350.8z M258.8,334.1
	c0,0.1-1.8,1.5-1.8,1.5s1.4,0.8,2.9-0.6c1.4-1.3,1.3-2.8,1.3-2.8s-1.4-0.3-3,0.3c-1.7,0.7-1.5,2.7-1.5,2.7
	C258.6,334.1,258.8,334.1,258.8,334.1z M244.5,333.3c0,0-1-1.7-1-1.8c0,0,0.2,0,1.3,1.6c0,0,0.8-1.6-0.4-2.7c-1.1-1-2.3-1.1-2.3-1.1
	s-0.5,1.2,0.3,2.7C243.1,333.5,244.5,333.3,244.5,333.3z M235,335.4c0,0-0.8-1.8-0.8-1.9c0,0,0.2,0.1,1.1,1.7c0,0,1-1.5-0.1-2.7
	c-0.9-1.1-2.2-1.4-2.2-1.4s-0.6,1.1,0,2.7C233.5,335.5,235,335.4,235,335.4z M245.6,334.4c0,0-2,1.5-2.9,4.2c-1,3.1,1.9,5.1,1.9,5.1
	c0.4-3.7,0.6-4,0.6-4c0.2,0.2,0,4,0,4s2.7-0.9,2.6-4.5C247.6,336,245.6,334.4,245.6,334.4z M251.1,337.3c0.6-2.9,0.8-3.1,0.8-3.1
	c0.1,0.1-0.3,3.2-0.3,3.2s2.2-0.5,2.4-3.3c0.1-2.6-1.3-4-1.3-4s-1.7,1-2.6,3.1C248.9,335.5,251.1,337.3,251.1,337.3z M240.5,337.9
	c0,0-1.2-2.6-1.1-2.8c0,0,0.2,0.1,1.5,2.6c0,0,1.4-2.2-0.1-4c-1.4-1.6-3.2-2.1-3.2-2.1s-0.9,1.7-0.1,4
	C238.4,338,240.5,337.9,240.5,337.9z M237.4,339c0,0-1.4,2.1-1.2,5c0.2,3.3,3.6,4.1,3.6,4.1c-1-3.6-0.8-3.9-0.8-3.9
	c0.2,0.1,1.4,3.8,1.4,3.8s2.2-1.8,0.8-5.1C239.8,339.8,237.4,339,237.4,339z M233.7,345.7c-2.8-2.3-5.5-1.8-5.5-1.8
	s-0.3,2.7,1.3,5.4c1.8,3,5.5,2.1,5.5,2.1c-2.8-3-2.8-3.4-2.8-3.4c0.2,0,3.3,2.9,3.3,2.9S236.7,348.1,233.7,345.7z M235,341.2
	c-3.1-1.9-3.2-2.2-3.2-2.2c0.2-0.1,3.5,1.7,3.5,1.7s0.3-2.7-2.8-4.1c-2.9-1.2-5.2-0.2-5.2-0.2s0.5,2.4,2.5,4.3
	C232,342.9,235,341.2,235,341.2z M235.2,354.4c-2.8-1.8-5.3-1.1-5.3-1.1s0,2.5,1.7,4.9c1.9,2.6,5.3,1.4,5.3,1.4
	c-2.8-2.5-2.9-2.8-2.9-2.8c0.2,0,3.3,2.4,3.3,2.4S238.2,356.4,235.2,354.4z"/>
<path fill="#91897E" d="M250.8,374.8h-7.4c0,0,0.4-1.5,0.4-3.1c0-1.6,0-3,0-3s-1.8-2-2.4-5c-0.6-3-0.5-4.7-1.7-7.3
	c-1.2-2.6-1.5-3.4-1.5-3.4s-0.5-0.9,0.2-1.2c0.8-0.3,1.4,0.8,1.4,0.8l1.8,3.1c0,0,0.5,1.1,1,1.1c0.5,0,0.2-1.5,0.2-1.5l-0.7-6.6
	c0,0-0.1-1.2,0.6-1.2c0.7,0,0.9,0.9,0.9,0.9l1.7,6.3c0,0,0.2,0.8,0.4,0.8c0.2,0,0.4-0.6,0.5-1.7l0.6-7.5c0,0,0.1-0.9,0.9-0.9
	c0.9,0,0.9,0.9,0.9,0.9l-0.1,8.1c0,0,0,1.3,0.3,1.3c0.3,0,0.5-0.2,0.8-0.8l2.8-6.2c0,0,0.4-0.7,1.1-0.4c0.7,0.2,0.3,1.4,0.3,1.4
	l-2.4,7.3c0,0-0.4,1.7-0.1,2.5c0.3,0.8,0.5,1.8,1.5,1c0.9-0.8,1.6-2.2,2.8-2.4c1.2-0.2,2.7,0.1,2,0.8c-0.7,0.7-1.9,1-3.2,3.1
	c-1.4,2.1-1.6,4.8-4,5.9C250.5,367.9,249.9,372.9,250.8,374.8z"/>
<path fill="#24282E" d="M227,390.5v-4.9c0.3,0,0.5,0,0.8,0c0.8,0,1.3,0.4,1.6,1.5l0.7,2c0.3,1.1,0.7,1.6,1.7,1.6
	c0.7,0,1.5-0.3,1.8-0.8c-0.6-0.5-0.7-1-0.9-1.6l-0.7-2.1c-0.3-0.9-0.7-1.7-1.9-2c0.4-0.3,0.7-0.7,1-1.3l2.1-4l-0.2-0.2
	c-0.6-0.1-1.2-0.1-1.7-0.1c-0.8,0-1.1,0.3-1.4,1l-1.6,3.1c-0.2,0.5-0.3,0.6-0.8,0.6l-0.4,0v-4.6c-0.4-0.1-1-0.1-1.4-0.1
	c-0.3,0-0.9,0-1.4,0.1v11.8c0.4,0.1,1.1,0.1,1.4,0.1C226,390.6,226.6,390.6,227,390.5z M237.8,390.5v-3.7c0-0.5,0-0.8,0-1.3
	c0.3,0,0.6,0,0.9,0h2c0.2,0,0.6,0,0.9,0c0,0.5,0,0.8,0,1.3v3.7c0.5,0.1,1,0.1,1.4,0.1c0.4,0,0.9,0,1.3-0.1v-11.8
	c-0.4-0.1-1-0.1-1.4-0.1c-0.4,0-0.9,0-1.4,0.1v3.3c0,0.5,0,0.8,0,1.3c-0.2,0-0.6,0-0.9,0h-2c-0.2,0-0.6,0-0.9,0c0-0.5,0-0.8,0-1.3
	v-3.3c-0.4-0.1-1-0.1-1.4-0.1c-0.3,0-0.9,0-1.4,0.1v11.8c0.4,0.1,1.1,0.1,1.4,0.1C236.8,390.6,237.3,390.6,237.8,390.5z
	 M247.1,390.6c0.4,0,0.8,0,1.2-0.1l0.7-2.5c0.2,0,0.5,0,0.7,0h2.5c0.2,0,0.4,0,0.7,0l0.3,1.1c0.3,1.2,0.8,1.5,1.7,1.5
	c0.5,0,1.2-0.1,1.6-0.3l-3.7-11.6c-0.4-0.1-1.1-0.1-1.6-0.1c-0.5,0-1.2,0-1.6,0.1l-3.8,11.6l0.1,0.1
	C246.1,390.5,246.7,390.6,247.1,390.6z M250.1,384.5c0.3-1,0.7-2.3,0.8-3.3h0.1c0.3,1.1,0.7,2.6,1,3.6l0.3,1.1c-0.2,0-0.4,0-0.6,0
	h-1.3c-0.2,0-0.5,0-0.7,0L250.1,384.5z M260.5,390.5v-3.4c0-1.4-0.1-3.7-0.2-5.2l0.1,0c0.2,0.7,0.6,1.6,1,2.4l2.7,6.2
	c0.6,0.1,1.3,0.1,1.6,0.1c0.3,0,1.2-0.1,1.7-0.2v-11.8l-0.1-0.1h-0.9c-1.1,0-1.5,0.4-1.5,1.7v2.1c0,1.2,0.1,3.5,0.2,5.1l-0.1,0
	c-0.2-0.6-0.6-1.6-1.1-2.6l-2.7-6.2c-0.6-0.1-1.2-0.1-1.6-0.1c-0.3,0-1.2,0.1-1.6,0.2v11.8c0.4,0.1,1,0.1,1.3,0.1
	C259.5,390.6,260,390.6,260.5,390.5z M225.9,395.3c-0.1,0-0.2,0-0.3,0l-1.7,5l0,0c0.1,0,0.2,0,0.3,0c0.1,0,0.2,0,0.2,0l0.4-1.3
	c0.1,0,0.5,0,0.5,0h1c0,0,0.4,0,0.5,0l0.4,1.1c0.1,0.2,0.2,0.3,0.3,0.3c0.1,0,0.2,0,0.3-0.1l-1.7-5
	C226.1,395.3,226,395.3,225.9,395.3z M226.7,398.5c-0.1,0-0.4,0-0.4,0h-0.8c0,0-0.3,0-0.4,0l0.6-1.7c0.1-0.2,0.2-0.6,0.2-0.9h0
	c0.1,0.3,0.2,0.8,0.4,1.2L226.7,398.5z M232.5,395.2c-1,0-1.9,0.8-1.9,2.6c0,1.3,0.5,2.6,1.8,2.6c0.7,0,1.3-0.3,1.7-0.7
	c0-0.1-0.2-0.3-0.3-0.4c-0.5,0.4-0.9,0.6-1.3,0.6c-0.8,0-1.3-0.8-1.3-2.1c0-1.4,0.5-2.1,1.3-2.1c0.9,0,1.2,0.7,1.1,1.2
	c0.1,0,0.2,0,0.2,0c0.3,0,0.3-0.2,0.3-0.3C234.2,395.9,233.5,395.2,232.5,395.2z M238.9,395.3c-0.1,0-0.2,0-0.3,0l-1.7,5l0,0
	c0.1,0,0.2,0,0.3,0c0.1,0,0.2,0,0.2,0l0.4-1.3c0.1,0,0.5,0,0.5,0h1c0,0,0.4,0,0.5,0l0.3,1.1c0.1,0.2,0.2,0.3,0.3,0.3
	c0.1,0,0.2,0,0.3-0.1l-1.7-5C239.2,395.3,239,395.3,238.9,395.3z M239.7,398.5c-0.1,0-0.4,0-0.4,0h-0.8c0,0-0.3,0-0.4,0l0.6-1.7
	c0.1-0.2,0.2-0.6,0.2-0.9h0c0.1,0.3,0.2,0.8,0.4,1.2L239.7,398.5z M246.8,395.6c-0.3-0.3-0.9-0.4-1.2-0.4c-0.6,0-0.8,0-1.5,0l0,0
	v4.9l0,0c0.6,0,0.9,0,1.5,0c0.4,0,0.9-0.1,1.2-0.4c0.6-0.5,0.8-1.3,0.8-2.1C247.5,396.9,247.4,396.2,246.8,395.6z M245.5,399.8
	c-0.3,0-0.6,0-1,0v-4.1c0.4,0,0.6,0,1,0c1.2,0,1.4,1.1,1.4,2.1C246.9,398.7,246.7,399.8,245.5,399.8z M251.4,399.8
	c0-0.1,0-0.2,0-0.3V398c0.2,0,0.3,0,0.4,0h1.5c0-0.1,0-0.2,0-0.2c0-0.1,0-0.2,0-0.2h-1.5c-0.1,0-0.3,0-0.4,0v-1.3c0-0.2,0-0.3,0-0.5
	c0.2,0,0.3,0,0.4,0h1.9c0-0.1,0-0.2,0-0.3c0-0.1,0-0.1,0-0.2h-2.8l0,0v4.6c0,0.2,0.1,0.4,0.3,0.4h2.3c0.2,0,0.3-0.1,0.4-0.3
	c0-0.1,0-0.2,0-0.2h-2C251.7,399.8,251.5,399.8,251.4,399.8z M260.9,395.3c-0.1,0-0.2,0-0.4,0l-0.8,2.6c-0.1,0.2-0.3,1-0.3,1.1h0
	c0-0.1-0.2-0.8-0.3-1.1l-0.8-2.6c-0.1,0-0.3,0-0.4,0c-0.1,0-0.2,0-0.4,0l-0.4,5c0.1,0,0.2,0,0.3,0c0.1,0,0.2,0,0.3,0l0.2-3
	c0-0.3,0-1,0.1-1.4h0l1.2,3.6c0.1,0,0.2,0,0.3,0c0.1,0,0.2,0,0.3,0l1.2-3.6h0c0,0.4,0,1,0.1,1.4l0.2,3c0.1,0,0.2,0,0.3,0
	c0.1,0,0.2,0,0.3,0l-0.4-5C261.1,395.3,261,395.3,260.9,395.3z M267.6,395.3c-0.1,0-0.2,0-0.3,0c-0.1,0-0.2,0-0.2,0l-0.8,1.9
	c-0.1,0.1-0.2,0.6-0.3,0.8h0c-0.1-0.2-0.2-0.6-0.3-0.8l-0.7-1.7c-0.1-0.2-0.2-0.3-0.3-0.3c-0.1,0-0.2,0-0.4,0.1l1.4,3.3v1.6
	c0.1,0,0.2,0,0.3,0c0.1,0,0.2,0,0.3,0v-1.6L267.6,395.3L267.6,395.3z M267.5,392.8h-43.4v0.3h43.4V392.8z"/>
<path fill="#66ADCB" d="M151.4,375.8l2.5-4.7c0.8-1.5,0.7-3.4-0.4-4.7l-1.4-1.9c-0.7-1-1-2.2-0.8-3.4c0.3-1.9,0.5-3.8,0.5-5.7
	c0-1.3,0.6-2.6,1.6-3.5l1.7-1.5c1.4-1.2,1.9-3,1.4-4.7l-1.6-5.2c-0.5-1.6-1.9-2.9-3.6-3.1l-3.1-0.4c-1.2-0.2-2.3-0.8-3-1.8
	c-1-1.3-2-2.6-3.2-3.8c-0.9-0.9-1.3-2.2-1.3-3.4l0.2-3.2c0.1-1.8-0.8-3.4-2.4-4.3L134,318c-1.7-0.9-3.8-0.6-5.1,0.7l-1.5,1.4
	c-1.1,1-2.5,1.4-3.9,1.1c-2.4-0.5-4.7-0.7-7.1-0.6l0,0l-3.2-3.5c-1.2-1.2-2.9-1.7-4.5-1.3l-5.6,1.7c-1.8,0.5-3,2.1-3.2,3.9l-0.1,1.5
	c-0.1,1.4-0.8,2.6-2,3.4c-1.7,1.1-3.3,2.4-4.8,3.9c-0.9,0.9-2.1,1.3-3.3,1.3l-1.9-0.1c-1.7-0.1-3.4,0.8-4.2,2.4l-2.4,4.5
	c-0.8,1.4-0.7,3.2,0.2,4.5l1.4,2.2c0.6,0.9,0.9,2.1,0.7,3.2c-0.4,2-0.5,4.1-0.5,6.2c0,1.4-0.6,2.7-1.7,3.6l-1.1,0.9
	c-1.4,1.1-2.1,3-1.5,4.8l1.6,5.4c0.5,1.7,1.9,2.9,3.7,3.1l2.7,0.4c1.2,0.2,2.3,0.8,3,1.8c1,1.3,2,2.6,3.2,3.8
	c0.9,0.9,1.3,2.1,1.3,3.4l-0.2,2.9c-0.1,1.7,0.8,3.4,2.4,4.2l4.9,2.6c1.6,0.8,3.5,0.7,4.8-0.4l2-1.6c1-0.8,2.3-1.1,3.6-0.9
	c1.8,0.3,3.6,0.5,5.5,0.6c1.3,0,2.4,0.6,3.3,1.5l1.6,1.9c1.1,1.3,2.9,1.9,4.6,1.4l5.7-1.6c1.7-0.5,2.9-1.9,3.2-3.6l0.4-2.7
	c0.2-1.2,0.9-2.3,1.9-3c1.4-1,2.7-2.1,4-3.3c0.8-0.8,2-1.2,3.1-1.2l2.7,0C149.1,378.2,150.6,377.3,151.4,375.8z"/>
<path fill="#8E80FF" d="M239.4,266.4l14.2-16.5c1.1-1.3,1.4-3.1,0.7-4.7l-5.3-12.1c-0.5-1.2-0.5-2.5,0.1-3.7
	c2.8-6.2,4.9-12.6,6.1-19.2c0.3-1.3,1.1-2.5,2.3-3.1l11.9-6.1c1.6-0.8,2.6-2.5,2.4-4.3l-1.7-22.5c-0.1-1.7-1.2-3.2-2.9-3.8
	l-14.1-5.4c-1.2-0.5-2.1-1.4-2.6-2.6c-2.2-5.5-4.9-10.9-8.2-15.9c-0.7-1.1-1-2.5-0.6-3.8l4.6-14.8c0.5-1.7,0-3.5-1.4-4.7L228,108.6
	c-1.4-1.2-3.5-1.4-5.2-0.5l-11.7,7c-1.3,0.8-2.9,0.8-4.2,0.2c-6.5-3.1-13.2-5.4-20.1-6.9l0,0l-8-13.9c-0.8-1.5-2.5-2.3-4.1-2.2
	l-23.5,1.5c-1.9,0.1-3.4,1.4-4,3.1l-3.5,11.3c-0.4,1.3-1.4,2.4-2.8,2.9c-6.7,2.3-13.2,5.4-19.2,9.4c-1.1,0.7-2.5,1-3.7,0.6
	l-11.6-3.3c-1.7-0.5-3.5,0.1-4.6,1.4l-13.8,16c-1.1,1.2-1.4,2.9-0.8,4.5l4.6,12.5c0.4,1.1,0.3,2.4-0.2,3.4c-3,6.5-5.1,13.3-6.3,20.3
	c-0.3,1.4-1.2,2.6-2.5,3.2l-10.5,4.9c-1.7,0.8-2.7,2.5-2.6,4.3l1.6,23.1c0.1,1.7,1.2,3.3,2.9,3.9l13.3,5c1.2,0.4,2.1,1.4,2.6,2.6
	c2.2,5.5,4.9,10.8,8.2,15.8c0.7,1.1,0.9,2.5,0.6,3.7l-4,14c-0.5,1.7,0.1,3.5,1.4,4.6l17.1,14.7c1.3,1.1,3.2,1.4,4.8,0.6l12.7-6
	c1.2-0.6,2.6-0.6,3.8,0c6,2.8,12.2,4.9,18.5,6.3c1.3,0.3,2.3,1.1,2.9,2.3l6.4,12.1c0.8,1.5,2.5,2.5,4.2,2.4l23.5-1.4
	c1.7-0.1,3.3-1.2,3.9-2.9l5.1-13.2c0.5-1.2,1.4-2.1,2.7-2.6c5.7-2.1,11.1-4.8,16.3-8.1c1-0.7,2.3-0.9,3.5-0.6l13.4,3.3
	C236.6,268.2,238.3,267.7,239.4,266.4z"/>
<path fill="#FFFFFF" d="M118,147.5c24.4-28.4,67.6-31.2,96.5-6.4c28.9,24.9,32.6,68,8.3,96.4c-24.4,28.4-67.6,31.2-96.5,6.4
	C97.3,219,93.6,175.9,118,147.5z"/>
<path fill="#CF5726" d="M136.9,209.1c-1.9,1-4.1,1.5-6.4,1.5c-9.5,0-13.2-5.7-13.2-13.1s5.1-13.3,13.5-13.3c2.3,0,4.4,0.5,6.3,1.4
	l-1.1,3.5c-1.4-0.7-3.1-1.2-4.8-1.2c-6,0-9.3,4.1-9.3,9.4s2.7,9.4,9.5,9.4c1.7,0,3.3-0.4,4.7-1.2L136.9,209.1z"/>
<rect x="140.8" y="175" fill="#A6CB65" width="4.7" height="35"/>
<path fill="#477637" d="M146.3,188.8v5.7c0,0,8.8,6.4,13.8,16.2c0,0,2.2-0.8,4.2-2.9c0,0-3.5-6.9-9.4-12.1c0,0,5.3,2.7,10.3,11
	c0,0,0.6-1.2,0.7-1.6c0,0-8.4-11.7-18.2-13.5c0,0,10.3-2.7,15.6-11l-0.2-0.8c0,0-4.8,7.1-12.3,10.3c0,0,5.2-2.3,12.1-11.4l-0.5-1
	c0,0-3.5,5.1-7.6,8.2c0,0,6.3-7.2,7.3-8.8c0,0-1.1-1.8-2.7-2.7C159.4,174.4,153.6,183.4,146.3,188.8z"/>
<rect x="165.4" y="194.4" fill="#A6CB65" width="12.9" height="3.3"/>
<polygon fill="#A6CB65" points="179.4,180.3 186.8,176.2 190.9,176.2 190.9,210 186.3,210 186.3,180.6 180.4,183.9 "/>
<path fill="#A6CB65" d="M199.9,182.5c0,0,3.8-3.8,9.1-2.8c5.3,1,5,7,3.9,10c-1.2,3-4.7,7.5-7.4,9.7l-8,7.8v2.8h21.6v-3.8h-15.1
	c0,0,6.6-6.1,10.6-11c3.9-4.9,4.6-10.6,2.9-14.2c-1.8-3.6-5.6-6-11.5-5.2c0,0-3.7,0.4-7.5,3.4L199.9,182.5z"/>
<path fill="#FFFFFF" d="M111.5,346.8c0,0.2,0,0.4,0,0.6v4.3c0,0.3,0.1,0.4,0.4,0.4h0.8c0.2,0,0.4-0.1,0.4-0.4v-6.7
	c0-0.3-0.1-0.4-0.4-0.4h-1.5c-0.2,0-0.3,0.1-0.4,0.4l-1.4,4.6c-0.1,0.2-0.1,0.4-0.1,0.5c0,0.1,0,0.3-0.1,0.5h0c0-0.2,0-0.3-0.1-0.5
	c0-0.1-0.1-0.3-0.1-0.5l-1.4-4.6c-0.1-0.3-0.2-0.4-0.4-0.4h-1.5c-0.2,0-0.4,0.1-0.4,0.4v6.7c0,0.3,0.1,0.4,0.4,0.4h0.8
	c0.2,0,0.4-0.1,0.4-0.4v-4.3c0-0.2,0-0.4,0-0.6h0l1.5,4.9c0.1,0.3,0.2,0.4,0.4,0.4h0.9c0.2,0,0.4-0.1,0.4-0.4L111.5,346.8
	L111.5,346.8z M117,352.3c0.9,0,1.6-0.3,2-0.8c0.5-0.5,0.7-1.2,0.7-2.1c0-0.9-0.2-1.6-0.7-2.1c-0.5-0.5-1.1-0.8-2-0.8
	c-0.9,0-1.6,0.3-2,0.8c-0.5,0.5-0.7,1.2-0.7,2.1c0,0.9,0.2,1.6,0.7,2.1C115.4,352,116.1,352.3,117,352.3z M116.1,348
	c0.2-0.3,0.5-0.4,0.9-0.4c0.4,0,0.7,0.1,0.9,0.4c0.2,0.3,0.3,0.7,0.3,1.4c0,0.7-0.1,1.1-0.3,1.4c-0.2,0.3-0.5,0.4-0.9,0.4
	c-0.4,0-0.7-0.1-0.9-0.4c-0.2-0.3-0.3-0.7-0.3-1.4C115.8,348.8,115.9,348.3,116.1,348z M123.8,347.7c0.2,0.1,0.3,0,0.3-0.1l0.1-0.6
	c0-0.1,0-0.2-0.1-0.3c-0.1,0-0.3-0.1-0.5-0.1c-0.3,0-0.5,0.1-0.8,0.3c-0.2,0.2-0.4,0.4-0.5,0.6V347c0-0.2-0.1-0.3-0.3-0.3h-0.8
	c-0.2,0-0.3,0.1-0.3,0.3v4.9c0,0.2,0.1,0.3,0.3,0.3h0.8c0.2,0,0.3-0.1,0.3-0.3V350c0-0.8,0.1-1.3,0.3-1.8c0.2-0.4,0.5-0.6,0.8-0.6
	C123.6,347.6,123.7,347.6,123.8,347.7z M129.5,351.1l-0.5-0.3c-0.2-0.1-0.3-0.1-0.4,0.1c-0.1,0.1-0.2,0.2-0.4,0.3
	c-0.2,0.1-0.4,0.1-0.7,0.1c-0.3,0-0.6-0.1-0.8-0.2c-0.2-0.1-0.4-0.5-0.4-1.1h3.4c0.2,0,0.3-0.1,0.3-0.3c0-1.1-0.2-1.8-0.7-2.3
	s-1.1-0.7-2.1-0.7c-0.8,0-1.4,0.3-1.9,0.8c-0.4,0.5-0.7,1.2-0.7,2.1c0,0.9,0.2,1.6,0.6,2.1c0.4,0.5,1.1,0.8,2.1,0.8
	c0.6,0,1.1-0.1,1.4-0.2c0.3-0.1,0.5-0.3,0.7-0.6C129.7,351.3,129.7,351.2,129.5,351.1z M126.5,348c0.2-0.2,0.5-0.3,0.8-0.3
	c0.4,0,0.7,0.1,0.9,0.4c0.2,0.2,0.3,0.5,0.3,0.9h-2.3C126.2,348.5,126.4,348.2,126.5,348z M108.6,359.2c-0.2-0.2-0.5-0.3-0.8-0.5
	c-0.3-0.1-0.5-0.2-0.8-0.3c-0.3-0.1-0.6-0.2-1-0.3c-0.1,0-0.2-0.1-0.4-0.1c-0.1-0.1-0.2-0.1-0.3-0.3c-0.1-0.1-0.1-0.3-0.1-0.5
	c0-0.2,0.1-0.4,0.2-0.5c0.1-0.1,0.3-0.2,0.5-0.3c0.2,0,0.4-0.1,0.6-0.1c0.3,0,0.6,0.1,0.8,0.2c0.3,0.1,0.5,0.2,0.6,0.3
	c0.2,0.2,0.4,0.1,0.6,0l0.4-0.6c0.1-0.1,0.1-0.3-0.2-0.5c-0.2-0.2-0.6-0.3-1-0.5c-0.4-0.1-0.9-0.2-1.3-0.2c-0.4,0-0.8,0-1.2,0.1
	c-0.4,0.1-0.8,0.3-1.1,0.7c-0.3,0.3-0.5,0.8-0.5,1.2c0,0.4,0.1,0.7,0.2,1c0.1,0.2,0.3,0.5,0.6,0.6s0.5,0.3,0.8,0.5
	c0.3,0.1,0.7,0.2,1,0.3c0.3,0.1,0.6,0.2,0.8,0.3c0.1,0.1,0.2,0.1,0.4,0.2c0.1,0.1,0.2,0.2,0.3,0.3s0.1,0.3,0.1,0.4
	c0,0.2-0.1,0.4-0.2,0.6c-0.1,0.2-0.3,0.3-0.5,0.3c-0.2,0.1-0.5,0.1-0.7,0.1c-0.3,0-0.7-0.1-1-0.2c-0.3-0.1-0.6-0.3-0.8-0.4
	c-0.3-0.2-0.4-0.2-0.6,0l-0.4,0.6c-0.1,0.2-0.1,0.3,0.2,0.5c0.3,0.3,0.7,0.4,1.1,0.6c0.4,0.1,0.9,0.2,1.5,0.2c0.4,0,0.8-0.1,1.3-0.2
	c0.4-0.1,0.8-0.3,1.2-0.7c0.4-0.4,0.5-0.8,0.5-1.4c0-0.4-0.1-0.7-0.2-1C108.9,359.6,108.8,359.3,108.6,359.2z M112.7,357.3
	c-0.9,0-1.6,0.3-2,0.8c-0.5,0.5-0.7,1.2-0.7,2.1c0,0.9,0.2,1.6,0.7,2.1c0.5,0.5,1.1,0.8,2,0.8c0.9,0,1.6-0.3,2-0.8
	c0.5-0.5,0.7-1.2,0.7-2.1c0-0.9-0.2-1.6-0.7-2.1C114.3,357.5,113.6,357.3,112.7,357.3z M113.6,361.5c-0.2,0.3-0.5,0.4-0.9,0.4
	c-0.4,0-0.7-0.1-0.9-0.4c-0.2-0.3-0.3-0.7-0.3-1.4c0-0.7,0.1-1.1,0.3-1.4c0.2-0.3,0.5-0.4,0.9-0.4c0.4,0,0.7,0.1,0.9,0.4
	c0.2,0.3,0.3,0.7,0.3,1.4C113.9,360.8,113.8,361.3,113.6,361.5z M119,357.3c-0.9,0-1.6,0.3-2,0.8c-0.5,0.5-0.7,1.2-0.7,2.1
	c0,0.9,0.2,1.6,0.7,2.1c0.5,0.5,1.1,0.8,2,0.8c0.9,0,1.6-0.3,2-0.8c0.5-0.5,0.7-1.2,0.7-2.1c0-0.9-0.2-1.6-0.7-2.1
	C120.6,357.5,119.9,357.3,119,357.3z M119.9,361.5c-0.2,0.3-0.5,0.4-0.9,0.4c-0.4,0-0.7-0.1-0.9-0.4c-0.2-0.3-0.3-0.7-0.3-1.4
	c0-0.7,0.1-1.1,0.3-1.4c0.2-0.3,0.5-0.4,0.9-0.4c0.4,0,0.7,0.1,0.9,0.4c0.2,0.3,0.3,0.7,0.3,1.4
	C120.2,360.8,120.1,361.3,119.9,361.5z M125.9,357.3c-0.4,0-0.6,0.1-0.9,0.2c-0.2,0.1-0.5,0.3-0.6,0.6v-0.3c0-0.2-0.1-0.3-0.3-0.3
	h-0.8c-0.2,0-0.3,0.1-0.3,0.3v4.9c0,0.2,0.1,0.3,0.3,0.3h0.8c0.2,0,0.3-0.1,0.3-0.3v-2.1c0-0.9,0.1-1.5,0.3-1.8
	c0.2-0.3,0.5-0.4,0.8-0.4c0.3,0,0.6,0.1,0.7,0.3c0.1,0.2,0.2,0.7,0.2,1.4v2.5c0,0.2,0.1,0.3,0.3,0.3h0.8c0.2,0,0.3-0.1,0.3-0.3v-2.9
	c0-0.9-0.2-1.5-0.5-1.9C126.9,357.5,126.4,357.3,125.9,357.3z M129.5,355.8l0.1,4.6c0,0.2,0.1,0.3,0.3,0.3h0.6
	c0.2,0,0.3-0.1,0.3-0.3l0.1-4.6c0-0.3-0.1-0.4-0.4-0.4h-0.8C129.6,355.4,129.4,355.5,129.5,355.8z M130.6,361.4h-0.8
	c-0.2,0-0.4,0.1-0.4,0.4v0.7c0,0.3,0.1,0.4,0.4,0.4h0.8c0.2,0,0.4-0.1,0.4-0.4v-0.7C131,361.5,130.9,361.4,130.6,361.4z"/>
<path fill="#DA1D00" d="M506.9,252.2v-24.9c0-1.7-1-3.3-2.5-4l-13.7-6.6c-1.2-0.6-2-1.6-2.4-2.8c-2.1-7.4-5.1-14.4-8.9-21
	c-0.7-1.2-0.8-2.7-0.3-4l5.9-14.4c0.7-1.7,0.3-3.6-1-4.8l-18.2-18.2c-1.2-1.2-3-1.6-4.7-1l-16.3,5.9c-1.2,0.4-2.5,0.3-3.6-0.3
	c-6-3.2-12.3-5.8-19-7.7c-1.3-0.4-2.3-1.3-2.9-2.5l-7.1-16.3c-0.7-1.6-2.3-2.7-4.1-2.7h-25.8c-1.9,0-3.6,1.2-4.2,3l-5.1,15
	c-0.5,1.4-1.6,2.5-3.1,2.9c-7.8,2-15.3,5-22.2,8.8l0,0l-17.2-6.1c-1.6-0.6-3.4-0.2-4.6,1l-19.3,18.8c-1.3,1.3-1.7,3.3-1,5l5.5,12.7
	c0.6,1.3,0.5,2.8-0.2,4c-4.1,6.9-7.3,14.4-9.6,22.3c-0.4,1.3-1.2,2.3-2.4,2.9l-12.7,5.9c-1.6,0.7-2.6,2.3-2.6,4v24.2
	c0,1.6,0.9,3.1,2.3,3.9l13.4,7.4c1,0.6,1.8,1.6,2.1,2.7c2.2,7.8,5.5,15.2,9.5,22.1c0.7,1.2,0.8,2.8,0.2,4.1l-5.5,12.3
	c-0.8,1.7-0.4,3.6,0.9,5l18.6,18.9c1.2,1.2,3.1,1.7,4.7,1.1l15.4-5.6c1.2-0.4,2.5-0.3,3.7,0.3c5.9,3.1,12.2,5.7,18.8,7.6
	c1.3,0.4,2.3,1.2,2.8,2.4l7,15.3c0.7,1.6,2.3,2.6,4.1,2.6h25.8c1.8,0,3.4-1,4.1-2.7l6.6-14.8c0.5-1.2,1.6-2.1,2.9-2.5
	c7.2-2,14.1-4.7,20.5-8.2c1.2-0.6,2.5-0.7,3.8-0.2l14.7,5.8c1.6,0.6,3.5,0.3,4.7-0.9l19.4-18.7c1.3-1.2,1.7-3.1,1.1-4.7l-5.5-15.3
	c-0.4-1.2-0.3-2.6,0.3-3.7c3.3-6,6.1-12.4,8-19.1c0.4-1.2,1.2-2.2,2.3-2.8l14.2-7.2C505.9,255.5,506.9,253.9,506.9,252.2z"/>
<ellipse fill="#FF6152" cx="394.8" cy="239.6" rx="77" ry="75.5"/>
<path fill="#FFFFFF" d="M364.4,210.6v58.2c0,2.8,2.3,5.1,5.1,5.1h29.1v-34.2l25.5-25.5c3.2-3.2,0.9-8.7-3.6-8.7h-51
	C366.7,205.6,364.4,207.8,364.4,210.6"/>
<path fill="#DBE0DF" d="M398.5,239.7l25.5,25.5c3.2,3.2,0.9,8.7-3.6,8.7h-46.2c-3.7,0-5.5-4.4-2.9-7L398.5,239.7z"/>
</svg>
