<?xml version="1.0" encoding="utf-8"?>
<!-- Generator: Adobe Illustrator 19.2.0, SVG Export Plug-In . SVG Version: 6.00 Build 0)  -->
<svg version="1.1" id="Layer_1" xmlns="http://www.w3.org/2000/svg" xmlns:xlink="http://www.w3.org/1999/xlink" x="0px" y="0px"
	 viewBox="0 0 144 144" enable-background="new 0 0 144 144" xml:space="preserve">
<rect x="0" fill="none" width="144" height="144"/>
<path fill="#1F6901" d="M129.8,74.3c8.7-5.2,11.6-16.5,6.4-25.2c-5.2-8.7-16.5-11.6-25.2-6.4c-7.7,4.6-10.8,13.9-7.9,22l-3,5.2
	c-0.3,0.4,0.1,1,0.6,1l6-0.1C112.5,77.2,122.1,78.9,129.8,74.3z"/>
<path fill="#FCFFFD" d="M121,51.3l-0.3-2.3l-1.3,0.2l-9.7,2.9l1.9,15.1l10.1,0.6l1.3-0.2l-0.3-2.7l7.1-0.9l-1.7-13.7L121,51.3z
	 M119.1,62.2l-1.6,0.1l-1.4-2.5l-0.7,2.6l-1.5,0.2l1.3-3.5l-2-3.1l1.5-0.3l1.3,2.4l0.7-2.8l1.5-0.2l-1.3,3.8L119.1,62.2z
	 M124.3,63.4l-1.8,0.2l-0.2-1.5l1.8-0.2L124.3,63.4z M124,61.1l-1.8,0.2l-0.2-1.5l1.8-0.2L124,61.1z M123.7,58.7l-1.8,0.2l-0.2-1.5
	l1.8-0.2L123.7,58.7z M123.4,56.3l-1.8,0.2l-0.2-1.5l1.8-0.2L123.4,56.3z M123.1,54l-1.8,0.2l-0.2-1.5l1.8-0.2L123.1,54z M128.2,63
	l-3,0.4l-0.2-1.5l3-0.4L128.2,63z M127.9,60.6l-3,0.4l-0.2-1.5l3-0.4L127.9,60.6z M127.6,58.2l-3,0.4l-0.2-1.5l3-0.4L127.6,58.2z
	 M127.3,55.8l-3,0.4l-0.2-1.5l3-0.4L127.3,55.8z M127,53.5l-3,0.4l-0.2-1.5l3-0.4L127,53.5z"/>
<path fill="#0397F3" d="M106.1,35.3c2.2-12.5-6.2-24.5-18.7-26.7S63,14.8,60.8,27.3c-1.9,11,4.3,21.6,14.4,25.5l2.5,7.1
	c0.2,0.6,1,0.7,1.4,0.2l4.8-5.8C94.7,54.2,104.2,46.4,106.1,35.3z"/>
<path fill="#01D0B7" d="M4.2,109.4l37.5-39.7c0,0,2.3-2.5,7.1-0.8L137.2,91c0,0,5.4,0.6,3.4,5.4l-31.7,42.6c0,0-2.6,2.3-9.3,0.5
	L5.9,114.3C5.9,114.3,0.8,113,4.2,109.4z"/>
<path fill="#FFFFFF" d="M14.6,112.1l79.8,22.2c0.3,0.1,0.6,0,0.8-0.3L128.2,92c0.3-0.4,0.1-1.1-0.4-1.2L51.8,72.4
	c-0.3-0.1-0.5,0-0.7,0.2l-36.9,38.3C13.9,111.3,14.1,112,14.6,112.1z"/>
<path fill="#DA1D00" d="M107,99.5c0.6,10.5-12.7,19.8-29.8,20.7c-17,1-31.3-6.8-31.9-17.3l-0.5-8.9l5.4-4.3l56.3,1L107,99.5z"/>
<ellipse transform="matrix(0.9993 -3.616818e-02 3.616818e-02 0.9993 -3.2648 2.8031)" fill="#FF6152" cx="75.8" cy="91.6" rx="30.9" ry="19"/>
<path fill="#FFFFFF" d="M96.6,37.2c-1.9,4.1-5.8,7.2-10.6,7.8c-7.4,0.9-14.2-4.3-15.1-11.8c-0.9-7.4,4.3-14.2,11.8-15.1
	c4.3-0.5,8.3,1,11.2,3.8l-3.5,3.6c-1.8-1.7-4.3-2.7-7-2.3c-4.7,0.6-8,4.9-7.4,9.5c0.6,4.7,4.9,8,9.5,7.4c2.7-0.3,4.9-1.9,6.2-4
	L96.6,37.2z"/>
<path fill="#F4F8F7" d="M52.3,26.7c-7.5-9.4-21.3-10.9-30.7-3.4S10.7,44.6,18.3,54c6.6,8.3,18.1,10.4,27.1,5.7l6.6,2.6
	c0.6,0.2,1.2-0.3,1.1-0.8l-1.1-7C58.5,46.6,58.9,34.9,52.3,26.7z"/>
<g>
	<path fill="#4285F4" d="M47.6,36.1l-12.5,1.6l0.6,5.2l7.2-0.9c-0.3,2.6-1.5,4.7-4.1,5.7l0,0l4.4,1.9l1.5,0c2.6-2.8,3.8-6.8,3.3-11
		C48,37.7,47.8,36.9,47.6,36.1z"/>
	<path fill="#34A853" d="M37.2,53.5c3.4-0.4,6.2-2.1,8.2-4.5L41,46.3c-1.1,1.1-2.6,1.8-4.7,1.9c-3.5,0.2-6.7-1.6-8.1-4.6l-4,3.8
		C26.9,51.6,31.9,54.2,37.2,53.5z"/>
	<path fill="#FBBC02" d="M23.1,34.9c-0.9,2.1-1.3,4.5-0.9,6.9c0.3,2.2,1,4.2,2.2,5.8l3.9-3.9c-0.4-0.8-0.7-1.7-0.8-2.6
		c-0.2-1.4,0-2.7,0.5-4L23.1,34.9z"/>
	<path fill="#EA4335" d="M22.8,35.7l4.7,2.8c0.7-3.3,3.3-5.9,6.7-6.4c2.1-0.3,4,0.3,5.5,1.5l3.3-4.3c-2.5-1.9-5.8-2.9-9.2-2.5
		C28.6,27.4,24.5,31,22.8,35.7z"/>
	<path fill="none" d="M42.9,42c-0.3,3.3-2.4,6-6.7,6.3c-4.4,0.3-8.2-2.7-8.8-7.1c-0.5-4.4,2.4-8.5,6.8-9c2.1-0.3,4,0.3,5.5,1.5
		l3.3-4.3c-2.5-1.9-5.8-2.9-9.2-2.5c-7.4,0.9-12.6,7.6-11.7,15c0.9,7.4,7.6,12.6,15,11.7c7.4-0.9,11.9-7.6,10.9-14.9
		c-0.1-0.9-0.3-1.7-0.5-2.5l-12.5,1.6l0.6,5.2L42.9,42z"/>
</g>
</svg>
